<svg xmlns="http://www.w3.org/2000/svg" viewBox="0 0 65.28 65.06"><defs><style>.cls-1{fill:#455a64;}</style></defs><title>AirlineMiles</title><g id="Layer_2" data-name="Layer 2"><g id="Layer_8" data-name="Layer 8"><path class="cls-1" d="M65.2,3.69A4.33,4.33,0,0,0,61.27,0c-2.22-.2-5.42.4-7.17,2.16L42.56,13.73,6,8a1.51,1.51,0,0,0-1.28.41L.45,12.52a1.5,1.5,0,0,0,.36,2.41L27.54,28.75,13.65,42.64,7.6,42.19a1.49,1.49,0,0,0-1,.32L2,46.1a1.5,1.5,0,0,0,.33,2.55L13,53.28a1.46,1.46,0,0,0,.44.11,1.48,1.48,0,0,0,0,.14l4.26,10.6a1.5,1.5,0,0,0,2.31.63l5.16-4a1.5,1.5,0,0,0,.58-1.25l-.47-10.44s0-.09,0-.13L36.8,37.41l14.05,26.5a1.5,1.5,0,0,0,1.12.78h.2a1.5,1.5,0,0,0,1.09-.47L57.32,60a1.5,1.5,0,0,0,.39-1.31L51.1,23.11l12-12A9.64,9.64,0,0,0,65.2,3.69ZM4,13.22l2.19-2.13,33.7,5.26L29.77,26.52ZM8,45.23l3.39.25a6.1,6.1,0,0,0-.51,3.61l-5-2.17ZM22.72,58.86l-3,2.3L17.07,54.5h.1a6.07,6.07,0,0,0,4.31-1.78l.93-.93Zm31.9-.4-2.1,2.2L39,35.19l9.51-9.51ZM60.93,9,19.36,50.6a3.1,3.1,0,0,1-4.37,0l-.34-.34a3.1,3.1,0,0,1,0-4.37L56.21,4.32A6.92,6.92,0,0,1,61,3a1.32,1.32,0,0,1,1.21,1.07A6.9,6.9,0,0,1,60.93,9Z"/></g></g></svg>