<svg xmlns="http://www.w3.org/2000/svg" viewBox="0 0 60.39 66.21"><defs><style>.cls-1{fill:#455a64;}</style></defs><title>Apple</title><g id="Layer_2" data-name="Layer 2"><g id="Layer_8" data-name="Layer 8"><path class="cls-1" d="M59.91,29.92A15.79,15.79,0,0,0,48.4,17.78a24.07,24.07,0,0,0-16.32,1.55,24,24,0,0,0-.51-5.51l7.77,1a4.65,4.65,0,0,0,.59,0,4.71,4.71,0,0,0,4.6-3.78L46,3.34a1.5,1.5,0,0,0-1.19-1.76L37.15.09a4.7,4.7,0,0,0-5.49,3.69l-1.31,6.54a12.17,12.17,0,0,0-1.85-2.8A10.51,10.51,0,0,0,21.38,4a1.5,1.5,0,0,0-.06,3,7.47,7.47,0,0,1,5,2.57c1.94,2.19,2.86,5.56,2.76,10A24.27,24.27,0,0,0,12,17.65,15.79,15.79,0,0,0,.48,29.79C-.91,37.07.74,45,5.4,53.5c3.88,7,7.91,11,12.33,12.21a11,11,0,0,0,2.85.37c3.46,0,6.65-1.57,9.51-3.27,2.91,1.74,6.18,3.4,9.73,3.4a11.05,11.05,0,0,0,2.85-.37c4.42-1.17,8.45-5.17,12.33-12.21C59.65,45.19,61.3,37.21,59.91,29.92ZM34.6,4.36a1.7,1.7,0,0,1,2-1.33l6.23,1.21-1.23,6.25a1.69,1.69,0,0,1-1.87,1.35L33.27,11ZM52.37,52.18C48.9,58.47,45.47,62,41.89,62.94c-3.36.89-6.61-.47-10.72-3a1.49,1.49,0,0,0-1.82-.21c-4.18,2.55-7.45,3.95-10.85,3-3.58-1-7-4.47-10.47-10.76-4.37-7.93-5.87-15-4.6-21.7a12.81,12.81,0,0,1,9.37-9.82C21.46,18.12,29.06,23,29.13,23a1.49,1.49,0,0,0,.69.23,1.49,1.49,0,0,0,1.44-.1c.08,0,7.63-4.92,16.33-2.49A12.81,12.81,0,0,1,57,30.49C58.24,37.16,56.73,44.26,52.37,52.18Z"/><path class="cls-1" d="M14.55,23.46a9.62,9.62,0,0,0-2.08,1.23c-3,2-6.45,6.61-4.5,14.68.15.79.35,1.62.6,2.49A1.5,1.5,0,0,0,10,43a1.48,1.48,0,0,0,.42-.06,1.5,1.5,0,0,0,1-1.86c-.12-.41-.22-.82-.32-1.21a1.5,1.5,0,0,0-.05-.34c-.07-.26-.12-.5-.18-.75-1.18-6.19.9-9.49,2.67-11.11a6.78,6.78,0,0,1,1.55-.95,1.49,1.49,0,0,0,.65-.49,1.5,1.5,0,0,0-1.22-2.73Z"/></g></g></svg>