<svg xmlns="http://www.w3.org/2000/svg" viewBox="0 0 66.94 48.34"><defs><style>.cls-1{fill:#455a64;}</style></defs><title>ATV</title><g id="Layer_2" data-name="Layer 2"><g id="Layer_8" data-name="Layer 8"><path class="cls-1" d="M60.34,29.3a1.48,1.48,0,0,0,.08-.46v-.51a1.5,1.5,0,0,0-1.05-1.43l-4.46-1.39a1.46,1.46,0,0,0,.35-.73A8.41,8.41,0,0,0,53.19,18L46,9.93a2.87,2.87,0,0,0-1.14-.86l-3.38-1.4a1.5,1.5,0,0,0-1.15,0,1.47,1.47,0,0,0-.24.16l0-.36a7.12,7.12,0,0,0-.24-1.33A7.63,7.63,0,0,0,34.5,1L31.18.06a1.5,1.5,0,1,0-.82,2.88l3.32.94A4.62,4.62,0,0,1,36.93,7a4.08,4.08,0,0,1,.14.76l.06.75a5.94,5.94,0,0,0-3.33,0,6.19,6.19,0,0,0-4.11,4A20.86,20.86,0,0,0,28.36,17a1.44,1.44,0,0,0,0,.16l-26-8.11A1.5,1.5,0,0,0,.43,10.52l0,7A1.5,1.5,0,0,0,1,18.73l12.18,8.74-1.12,1.75a9.71,9.71,0,1,0,7.31,9.95h4.32a1.5,1.5,0,0,0,1.2-.6l2.61-3.49h9.7l2.61,3.49a1.5,1.5,0,0,0,1.2.6h6.52A9.71,9.71,0,1,0,60.34,29.3Zm-29-11.72a17.86,17.86,0,0,1,1.14-3.9c.63-1.48,1.17-2.06,2.13-2.32,1.58-.42,2.72.16,3.59,1.82a1.5,1.5,0,0,0,2.71-.12l.84-2,2,.84L51,20a5.42,5.42,0,0,1,1.33,4.38,1.49,1.49,0,0,0,0,.33L31.12,18.07A1.48,1.48,0,0,0,31.31,17.57ZM9.71,45.34a6.71,6.71,0,1,1,1.85-13.16,1.46,1.46,0,0,0,1.07.46h.07a6.71,6.71,0,0,1-3,12.71Zm38.1-9.18h-6l-2.61-3.49a1.5,1.5,0,0,0-1.2-.6H26.74a1.49,1.49,0,0,0-1,.42h0l-.13.15h0L23,36.17H19.1a9.73,9.73,0,0,0-4.21-5.75L16.5,27.9a1.5,1.5,0,0,0-.39-2L3.4,16.75l0-4.19L55.73,28.91A9.72,9.72,0,0,0,47.81,36.16Zm9.42,9a6.71,6.71,0,1,1,6.71-6.71A6.72,6.72,0,0,1,57.23,45.21Z"/></g></g></svg>