<svg xmlns="http://www.w3.org/2000/svg" viewBox="0 0 66.32 52.85"><defs><style>.cls-1{fill:#455a64;}</style></defs><title>Auto</title><g id="Layer_2" data-name="Layer 2"><g id="Layer_8" data-name="Layer 8"><path class="cls-1" d="M62.47,11.38H58.78a3.81,3.81,0,0,0-2.06.61L53,3l0-.1A5.34,5.34,0,0,0,48.23,0H18.09a5.34,5.34,0,0,0-4.74,2.93l0,.1L9.6,12a3.81,3.81,0,0,0-2.06-.61H3.85A3.85,3.85,0,0,0,0,15.23V16.4a2.68,2.68,0,0,0,2.67,2.67H4.46a6.53,6.53,0,0,0-1.77,4.36V39.5a2.66,2.66,0,0,0,.74,1.84,1.49,1.49,0,0,0-.06.41v7.84a3.27,3.27,0,0,0,3.26,3.26h8.09a2.12,2.12,0,0,0,1.65-.66,2.54,2.54,0,0,0,.48-2.09,5.11,5.11,0,0,1,0-.51v-6l32.53.13v5.86a3.27,3.27,0,0,0,3.26,3.26h6.91a3.27,3.27,0,0,0,3.26-3.26V41.75a1.5,1.5,0,0,0,0-.28,2.66,2.66,0,0,0,.87-2V23.43a6.53,6.53,0,0,0-1.77-4.36h1.79a2.68,2.68,0,0,0,2.67-2.67V15.23A3.85,3.85,0,0,0,62.47,11.38ZM60.63,39.21,50.9,40.74,15.27,40.6,5.69,39.21V23.43c0-2.35,2.95-4.36,5.36-4.36H55.26c2.41,0,5.36,2,5.36,4.36Zm-44.57-35a2.31,2.31,0,0,1,2-1.23H48.23a2.31,2.31,0,0,1,2,1.23l4.68,11.3v.55H11.38v-.55ZM3,15.23a.85.85,0,0,1,.85-.84H7.54a.85.85,0,0,1,.84.84v.85H3ZM6.63,49.85a.26.26,0,0,1-.26-.26V42.34l7.44,1.08v6.17c0,.09,0,.18,0,.26Zm52.89,0H52.6a.26.26,0,0,1-.26-.26v-6l7.44-1.17v7.21A.26.26,0,0,1,59.52,49.85Zm3.8-33.78H57.94v-.85a.85.85,0,0,1,.84-.84h3.69a.85.85,0,0,1,.85.84Z"/><path class="cls-1" d="M13.9,22a5.46,5.46,0,1,0,5.46,5.46A5.46,5.46,0,0,0,13.9,22Zm0,7.91a2.46,2.46,0,1,1,2.46-2.46A2.46,2.46,0,0,1,13.9,29.88Z"/><path class="cls-1" d="M52.1,22a5.46,5.46,0,1,0,5.46,5.46A5.46,5.46,0,0,0,52.1,22Zm0,7.91a2.46,2.46,0,1,1,2.46-2.46A2.46,2.46,0,0,1,52.1,29.88Z"/></g></g></svg>