<svg xmlns="http://www.w3.org/2000/svg" viewBox="0 0 66.32 66.16"><defs><style>.cls-1{fill:#455a64;}</style></defs><title>AutoAffordability</title><g id="Layer_2" data-name="Layer 2"><g id="Layer_8" data-name="Layer 8"><path class="cls-1" d="M62.47,24.69H58.78a3.81,3.81,0,0,0-2.06.61l-3.71-9,0-.1a5.33,5.33,0,0,0-4.74-2.93H34.32A16.67,16.67,0,1,0,3.4,24.74a3.82,3.82,0,0,0-2.38,1,3.76,3.76,0,0,0-1,2.78v1.17a2.68,2.68,0,0,0,2.67,2.67H4.46a6.53,6.53,0,0,0-1.77,4.36V52.81a2.66,2.66,0,0,0,.74,1.84,1.48,1.48,0,0,0-.06.41V62.9a3.27,3.27,0,0,0,3.26,3.26h8.09a2.13,2.13,0,0,0,1.65-.66,2.53,2.53,0,0,0,.48-2.09,5.11,5.11,0,0,1,0-.51v-6L49.34,57V62.9a3.27,3.27,0,0,0,3.26,3.26h6.92a3.27,3.27,0,0,0,3.26-3.26V55.06a1.5,1.5,0,0,0,0-.29,2.66,2.66,0,0,0,.87-2V36.74a6.53,6.53,0,0,0-1.77-4.36h1.79a2.68,2.68,0,0,0,2.67-2.67V28.54A3.85,3.85,0,0,0,62.47,24.69ZM60.63,52.52,50.91,54l-35.63-.14L5.69,52.52V36.74c0-2.35,2.95-4.36,5.36-4.36a1.49,1.49,0,0,0,.77-.22,16.62,16.62,0,0,0,11.78.21H55.26c2.41,0,5.36,2,5.36,4.36ZM48.23,16.31a2.31,2.31,0,0,1,2,1.23l4.68,11.3v.55H28.78a16.62,16.62,0,0,0,5.88-12.71c0-.12,0-.24,0-.36ZM18,3A13.68,13.68,0,1,1,4.31,16.67,13.69,13.69,0,0,1,18,3ZM3,28.54a1.07,1.07,0,0,1,.13-.65c.21-.2,1-.2,1.49-.2h.22a1.49,1.49,0,0,0,.54-.1A16.69,16.69,0,0,0,7.2,29.38H3ZM6.63,63.16a.26.26,0,0,1-.26-.26V55.65l7.44,1.08V62.9c0,.09,0,.18,0,.26Zm52.89,0H52.6a.26.26,0,0,1-.26-.26v-6l7.44-1.17V62.9A.26.26,0,0,1,59.52,63.16Zm3.8-33.78H57.94v-.83h0a.85.85,0,0,1,.84-.84h3.69a.85.85,0,0,1,.84.84Z"/><path class="cls-1" d="M13.9,35.28a5.46,5.46,0,1,0,5.46,5.46A5.46,5.46,0,0,0,13.9,35.28Zm0,7.91a2.46,2.46,0,1,1,2.46-2.46A2.46,2.46,0,0,1,13.9,43.19Z"/><path class="cls-1" d="M52.1,35.28a5.46,5.46,0,1,0,5.46,5.46A5.46,5.46,0,0,0,52.1,35.28Zm0,7.91a2.46,2.46,0,1,1,2.46-2.46A2.46,2.46,0,0,1,52.1,43.19Z"/><path class="cls-1" d="M16.36,24.08v.69a1.5,1.5,0,0,0,3,0V24a4.09,4.09,0,0,0,3.47-4.14c0-3-2.11-4.08-4-5l-.63-.32L18,14.44l-.08,0C16.27,13.57,16,13.33,16,12.54c0-.36,0-1,1.8-1,1,0,1.37.3,1.41.46a.31.31,0,0,1,0-.1l3-.22a3.51,3.51,0,0,0-2.85-2.95V7.41a1.5,1.5,0,0,0-3,0v1.3A3.76,3.76,0,0,0,13,12.54c0,2.76,2,3.75,3.57,4.54l.55.28.19.07.2.1c1.87.93,2.3,1.25,2.3,2.32,0,.46,0,1.33-2.29,1.33-1.33,0-1.78-.44-1.83-.7a.32.32,0,0,1,0,.08l-3,.22C12.8,21.81,13.68,23.66,16.36,24.08Z"/></g></g></svg>