<svg xmlns="http://www.w3.org/2000/svg" viewBox="0 0 65.48 62.93"><defs><style>.cls-1{fill:#455a64;}</style></defs><title>AutoRefi</title><g id="Layer_2" data-name="Layer 2"><g id="Layer_8" data-name="Layer 8"><path class="cls-1" d="M3.6,22.82A1.5,1.5,0,0,0,4,22.77l7.86-2.1a1.5,1.5,0,1,0-.77-2.9L6.67,18.94a28.47,28.47,0,0,1,54,12.52,1.5,1.5,0,0,0,3,0A31.46,31.46,0,0,0,4.1,17.39L2.95,13.07a1.5,1.5,0,1,0-2.9.77l2.1,7.86A1.5,1.5,0,0,0,3.6,22.82Z"/><path class="cls-1" d="M65.42,46.14l-2.29-7.6a1.5,1.5,0,0,0-1.87-1l-7.6,2.29a1.5,1.5,0,1,0,.87,2.87l4.39-1.32A28.46,28.46,0,0,1,3.78,31.46a1.5,1.5,0,0,0-3,0,31.47,31.47,0,0,0,60.64,11.8L62.54,47a1.5,1.5,0,0,0,2.87-.87Z"/><path class="cls-1" d="M50.52,26.22v-.71a1.41,1.41,0,0,0-1.41-1.41H46.89a1.4,1.4,0,0,0-.69.19L44,19l0-.1a3.54,3.54,0,0,0-3.14-1.94h-16a3.54,3.54,0,0,0-3.14,1.94l0,.1-2.19,5.28a1.4,1.4,0,0,0-.57-.12H16.67a1.41,1.41,0,0,0-1.41,1.41v.71a.71.71,0,0,0,.71.71h1.46A4.25,4.25,0,0,0,16,30v8.52a2.11,2.11,0,0,0,.36,1.17V43.9a2.44,2.44,0,0,0,2.44,2.43H23a1.81,1.81,0,0,0,1.4-.58,2,2,0,0,0,.43-1.65,2,2,0,0,1,0-.2V41.44l15.83.06v2.4a2.44,2.44,0,0,0,2.44,2.43h3.66a2.44,2.44,0,0,0,2.44-2.43V39.84a2.1,2.1,0,0,0,.45-1.29V30a4.25,4.25,0,0,0-1.46-3.11h1.61A.71.71,0,0,0,50.52,26.22ZM46.67,37.8l-4.5.71-18.78-.07L19,37.79V30c0-.75,1.14-1.61,2.14-1.61H44.53c1,0,2.14.86,2.14,1.61ZM24.39,20.16a.52.52,0,0,1,.44-.25h16a.52.52,0,0,1,.44.25l2.18,5.27H22.2ZM19.32,43.33V40.87l2.53.37v2.1Zm24.37,0v-2l2.53-.4v2.43Z"/><circle class="cls-1" cx="23.11" cy="32.66" r="2.61"/><circle class="cls-1" cx="42.57" cy="32.66" r="2.61"/></g></g></svg>