<svg xmlns="http://www.w3.org/2000/svg" viewBox="0 0 66.59 65.68"><defs><style>.cls-1{fill:#455a64;}</style></defs><title>BalanceTransfer</title><g id="Layer_2" data-name="Layer 2"><g id="Layer_8" data-name="Layer 8"><path class="cls-1" d="M44.6,38.09h-21v-6.7a2.1,2.1,0,0,0-3.44-1.62L.75,45.87a2.1,2.1,0,0,0,0,3.23L20.22,65.21a2.1,2.1,0,0,0,3.43-1.63v-6.7h21a2.1,2.1,0,0,0,2.1-2.1V40.18A2.1,2.1,0,0,0,44.6,38.09Zm-.9,15.8H22.15a1.5,1.5,0,0,0-1.5,1.5v6.29L3.51,47.48,20.65,33.3v6.29a1.5,1.5,0,0,0,1.5,1.5H43.7Z"/><path class="cls-1" d="M65.83,16.58,46.4.49A2.1,2.1,0,0,0,42.95,2.1V8.8H22a2.1,2.1,0,0,0-2.1,2.1V25.5a2.1,2.1,0,0,0,2.1,2.1h21v6.7a2.1,2.1,0,0,0,2.1,2.1,2.07,2.07,0,0,0,1.33-.48L65.83,19.82a2.1,2.1,0,0,0,0-3.24ZM45.95,32.38V26.09a1.5,1.5,0,0,0-1.5-1.5H22.9V11.8H44.45a1.5,1.5,0,0,0,1.5-1.5V4L63.08,18.19Z"/></g></g></svg>