<svg xmlns="http://www.w3.org/2000/svg" viewBox="0 0 67.99 62.01"><defs><style>.cls-1{fill:#455a64;}</style></defs><title>Ballongs</title><g id="Layer_2" data-name="Layer 2"><g id="Layer_8" data-name="Layer 8"><path class="cls-1" d="M62.66,6.88A18.66,18.66,0,0,0,49.86,0,20.69,20.69,0,0,0,35.14,5.31,22,22,0,0,0,30,11.93c-4.9-4-11.64-4.25-16.25-3.1A17.91,17.91,0,0,0,2.66,17.75,23.67,23.67,0,0,0,1.23,36.26c3.49,10.88,13.89,18.9,23.42,18.9a16,16,0,0,0,3-.28L27.19,56l-1.21,4a1.5,1.5,0,0,0,2,1.83l9.62-3.69a1.5,1.5,0,0,0,.24-2.68l-3.66-2.22-1.06-.57a29.23,29.23,0,0,0,6-7,18.56,18.56,0,0,0,2.34,1.11l-1.06.95-3.1,3a1.5,1.5,0,0,0,.8,2.56L48.2,55l.24,0a1.5,1.5,0,0,0,1.33-2.19l-2-3.9-.56-1c11.06,0,19.54-11.66,20.67-23.13A24.46,24.46,0,0,0,62.66,6.88ZM29.73,58l1-3.11,1.89,1,1,.59Zm1.15-7.38L28,51.73C19.16,54.14,7.56,46.2,4.08,35.35A20.66,20.66,0,0,1,5.29,19.19a14.94,14.94,0,0,1,9.25-7.45c4.11-1,10.21-.78,14.27,3.11a27.17,27.17,0,0,0-1.4,7.31c-.64,11.47,4.36,18.31,9.15,21.94C35.12,46.37,32.64,49.58,30.88,50.63Zm10.59.25.91-.88L44,48.53l1.09,1.88.61,1.18Zm23.41-26.3c-1.28,13-10.67,21-18.71,20.39l-2.62-.55c-.14,0-14.17-4.05-13.16-22.08.45-7.72,3.9-12.29,6.72-14.77A17.87,17.87,0,0,1,49.63,3,15.68,15.68,0,0,1,60.35,8.8,21.45,21.45,0,0,1,64.88,24.57Z"/><path class="cls-1" d="M42.54,7.85c-5.1,2.43-8.24,7.38-8.6,13.58A21.62,21.62,0,0,0,34.14,26a1.5,1.5,0,0,0,1.48,1.27l.24,0a1.5,1.5,0,0,0,1.25-1.72,18.59,18.59,0,0,1-.17-3.92c.3-5.07,2.81-9.1,6.89-11a1.5,1.5,0,0,0-1.29-2.71Z"/><path class="cls-1" d="M10,35.68c-2.24-4.56-2-9.3.55-13a1.5,1.5,0,1,0-2.46-1.72C4.81,25.59,4.53,31.44,7.27,37A21.65,21.65,0,0,0,9.7,40.87,1.5,1.5,0,0,0,12,39,18.67,18.67,0,0,1,10,35.68Z"/></g></g></svg>