<svg xmlns="http://www.w3.org/2000/svg" viewBox="0 0 66.71 66.04"><defs><style>.cls-1{fill:#455a64;}</style></defs><title>Bank</title><g id="Layer_2" data-name="Layer 2"><g id="Layer_8" data-name="Layer 8"><path class="cls-1" d="M65.21,50H62.06V23.44h2.31a1.5,1.5,0,0,0,1.5-1.5v-7.4a1.5,1.5,0,0,0-1.5-1.5l-.15,0L34,.12a1.5,1.5,0,0,0-1.18,0L2.62,13.06a1.5,1.5,0,0,0-1.27,1.48v7.4a1.5,1.5,0,0,0,1.5,1.5H4.6V50H1.5A1.5,1.5,0,0,0,0,51.54v13A1.5,1.5,0,0,0,1.5,66H65.21a1.5,1.5,0,0,0,1.5-1.5v-13A1.5,1.5,0,0,0,65.21,50Zm-6.15,0H53.6V23.44h5.46ZM47.94,56.76H19.15V53H47.94ZM19.6,23.44V50H16.06V23.44Zm8.46,0V50H22.6V23.44Zm7.54,0V50H31.06V23.44Zm8.46,0V50H38.6V23.44Zm6.54,0V50H47.06V23.44Zm10.26-3a1.51,1.51,0,0,0-.61,0H52.4a1.51,1.51,0,0,0-.61,0H45.86a1.51,1.51,0,0,0-.61,0H37.4a1.51,1.51,0,0,0-.61,0H34.66V18.79a3.55,3.55,0,0,0,2.79-3.56c0-2.62-1.86-3.55-3.36-4.29l-.51-.25-.18-.07-.07,0C32,9.91,32,9.79,32,9.34c0-.19,0-.48,1.16-.48A1.46,1.46,0,0,1,34,9a1.5,1.5,0,0,0,3-.37,3.08,3.08,0,0,0-2.29-2.57V3.68L62.87,15.74v4.69ZM4.35,15.58,31.66,3.87V6A3.29,3.29,0,0,0,29,9.34c0,2.41,1.75,3.28,3,3.92l.44.22.16.06.16.08c1.49.74,1.69.93,1.69,1.61,0,.31,0,.77-1.55.77-.77,0-1.13-.2-1.19-.33a1.5,1.5,0,0,0-3,.32,3.39,3.39,0,0,0,2.93,2.88v1.57h-1.8a1.51,1.51,0,0,0-.61,0H21.4a1.51,1.51,0,0,0-.61,0H14.86a1.51,1.51,0,0,0-.61,0H6.4a1.51,1.51,0,0,0-.61,0H4.35ZM7.6,23.44h5.46V50H7.6ZM3,53H16.15V63H3ZM19.15,63V59.76H47.94V63Zm44.55,0H50.94V53H63.71Z"/></g></g></svg>