<svg xmlns="http://www.w3.org/2000/svg" viewBox="0 0 67.13 52.64"><defs><style>.cls-1{fill:#455a64;}</style></defs><title>BarChartr</title><g id="Layer_2" data-name="Layer 2"><g id="Layer_8" data-name="Layer 8"><path class="cls-1" d="M52.92,46.29h9.57a1.5,1.5,0,0,0,1.5-1.5V1.5A1.5,1.5,0,0,0,62.49,0H52.92a1.5,1.5,0,0,0-1.5,1.5V44.79A1.5,1.5,0,0,0,52.92,46.29ZM54.42,3H61V43.29H54.42Z"/><path class="cls-1" d="M36.41,46.29H46a1.5,1.5,0,0,0,1.5-1.5V16.43a1.5,1.5,0,0,0-1.5-1.5H36.41a1.5,1.5,0,0,0-1.5,1.5V44.79A1.5,1.5,0,0,0,36.41,46.29Zm1.5-28.36h6.57V43.29H37.91Z"/><path class="cls-1" d="M19.89,46.29h9.57a1.5,1.5,0,0,0,1.5-1.5v-17a1.5,1.5,0,0,0-1.5-1.5H19.89a1.5,1.5,0,0,0-1.5,1.5v17A1.5,1.5,0,0,0,19.89,46.29Zm1.5-17H28v14H21.39Z"/><path class="cls-1" d="M3.38,46.29h9.57a1.5,1.5,0,0,0,1.5-1.5V35a1.5,1.5,0,0,0-1.5-1.5H3.38A1.5,1.5,0,0,0,1.88,35v9.74A1.5,1.5,0,0,0,3.38,46.29Zm1.5-9.74h6.57v6.74H4.88Z"/><path class="cls-1" d="M65.63,49.64H1.5a1.5,1.5,0,0,0,0,3H65.63a1.5,1.5,0,0,0,0-3Z"/></g></g></svg>