<svg xmlns="http://www.w3.org/2000/svg" viewBox="0 0 68.16 41.5"><defs><style>.cls-1{fill:#455a64;}</style></defs><title>Boat</title><g id="Layer_2" data-name="Layer 2"><g id="Layer_8" data-name="Layer 8"><path class="cls-1" d="M67.82,19.28a1.84,1.84,0,0,0-1.5-.77l-24,0-2-4.32h2a1.5,1.5,0,0,0,0-3H38.95l-1-2.22a6,6,0,0,0-7.6-3.88L22.24,6.47,17.86.6a1.5,1.5,0,1,0-2.4,1.79l3.92,5.25a6.18,6.18,0,0,0-2.06,2.91l-.26.62H11.56a1.5,1.5,0,0,0,0,3h4.21l-4.09,9.58L2.84,6.41A1.5,1.5,0,1,0,.16,7.77L9.1,25.31a1.46,1.46,0,0,0,.13.19l-2.31,0H5.28l-.37,0a4.14,4.14,0,0,0-3.62,3.6C1,31,1,40.06,1.84,41A1.5,1.5,0,0,0,3,41.5H51.55c10.15,0,14.73-14.82,16.24-19.7.12-.38.21-.67.28-.87A1.83,1.83,0,0,0,67.82,19.28ZM22,9.56,31,8l.26-.07a3,3,0,0,1,3.86,2,1.57,1.57,0,0,0,.08.21l.49,1.07H20.31A3.18,3.18,0,0,1,22,9.56Zm15,4.6,2,4.32h-.16a18,18,0,0,0-7.76,1.76l-8.91,4.27h0a10.73,10.73,0,0,1-4.85,1.07l-3.16,0L19,14.17ZM51.55,38.5H4.33a55.11,55.11,0,0,1-.07-9,1.13,1.13,0,0,1,1-1l12,.13a14.17,14.17,0,0,0,6.18-1.37L32.38,23a15,15,0,0,1,6.46-1.47h0l25.9,0C61.16,32.78,56.73,38.5,51.55,38.5Z"/><path class="cls-1" d="M23,18H35a1.5,1.5,0,0,0,0-3H23a1.5,1.5,0,0,0,0,3Z"/></g></g></svg>