<svg xmlns="http://www.w3.org/2000/svg" viewBox="0 0 42.34 67.34"><defs><style>.cls-1{fill:#455a64;}</style></defs><title>Bookmark</title><g id="Layer_2" data-name="Layer 2"><g id="Layer_8" data-name="Layer 8"><path class="cls-1" d="M2.45,67.34a2.46,2.46,0,0,1-1-.22A2.41,2.41,0,0,1,0,64.89V2.44A2.44,2.44,0,0,1,2.44,0H39.9a2.44,2.44,0,0,1,2.44,2.44V64.89a2.44,2.44,0,0,1-4.07,1.82L21.17,51.39,4.07,66.71A2.42,2.42,0,0,1,2.45,67.34Zm37.83-2.86h0ZM3,3V63.64L19.54,48.82a2.44,2.44,0,0,1,3.26,0L39.34,63.64V3Z"/></g></g></svg>