<svg xmlns="http://www.w3.org/2000/svg" viewBox="0 0 65.92 59.13"><defs><style>.cls-1{fill:#455a64;}</style></defs><title>Briefcase</title><g id="Layer_2" data-name="Layer 2"><g id="Layer_8" data-name="Layer 8"><path class="cls-1" d="M60.63,7.9H48.23V4.68A4.69,4.69,0,0,0,43.54,0H23.67A4.69,4.69,0,0,0,19,4.68V7.9H5.29A5.29,5.29,0,0,0,0,13.19V53.84a5.29,5.29,0,0,0,5.29,5.29H60.63a5.29,5.29,0,0,0,5.29-5.29V13.19A5.29,5.29,0,0,0,60.63,7.9ZM22,4.68A1.68,1.68,0,0,1,23.67,3H43.54a1.68,1.68,0,0,1,1.68,1.68V7.9H22ZM5.29,10.9H60.63a2.29,2.29,0,0,1,2.29,2.29V25.14l-.06,0C59.4,29,50.07,32.25,39.62,33.38V28.29a1.5,1.5,0,0,0-1.5-1.5H27a1.5,1.5,0,0,0-1.5,1.5v5C15.94,32.46,6.84,29.2,3,25.28V13.19A2.29,2.29,0,0,1,5.29,10.9ZM28.5,40.09V29.79h8.12V40.09Zm32.13,16H5.29A2.29,2.29,0,0,1,3,53.84V29.19c5,3.62,13.5,6.37,22.5,7.15v5.25a1.5,1.5,0,0,0,1.5,1.5h4.3v3.19a1.5,1.5,0,0,0,3,0V43.09h3.82a1.5,1.5,0,0,0,1.5-1.5V36.37h.22c9.67-1,18.28-3.8,23.08-7.3V53.84A2.29,2.29,0,0,1,60.63,56.13Z"/></g></g></svg>