<svg xmlns="http://www.w3.org/2000/svg" viewBox="0 0 65.77 65.48"><defs><style>.cls-1{fill:#455a64;}</style></defs><title>BusinessLoans</title><g id="Layer_2" data-name="Layer 2"><g id="Layer_8" data-name="Layer 8"><path class="cls-1" d="M13.67,35.91c-4.48,0-7.6,4.08-7.6,9.92,0,5.67,3,9.63,7.41,9.63,3.78,0,7.6-3.07,7.6-9.94C21.08,39.86,18,35.91,13.67,35.91Zm-.2,16.54c-2.64,0-4.41-2.66-4.41-6.63s1.89-6.92,4.6-6.92c3,0,4.41,3.32,4.41,6.61C18.08,49.73,16.27,52.46,13.47,52.46Z"/><path class="cls-1" d="M27.23,36.05a17.88,17.88,0,0,0-3.55.34,1.5,1.5,0,0,0-1.2,1.47V53.69a1.5,1.5,0,0,0,3,0V48.9c3.68-.1,5.57-.77,6.75-2.31a6.81,6.81,0,0,0,1.34-4.36A6.29,6.29,0,0,0,32,37.88,6.16,6.16,0,0,0,27.23,36.05Zm2.63,8.69c-.4.52-1.25,1.06-4.39,1.16V39.15a16.17,16.17,0,0,1,1.76-.09,3.37,3.37,0,0,1,2.6.86,3.36,3.36,0,0,1,.74,2.32A3.94,3.94,0,0,1,29.86,44.75Z"/><path class="cls-1" d="M43.68,52.19H37.79V47.68h3.68a1.5,1.5,0,0,0,0-3H37.79V39.17h5.6a1.5,1.5,0,0,0,0-3h-7.1a1.5,1.5,0,0,0-1.5,1.5v16a1.5,1.5,0,0,0,1.5,1.5h7.39a1.5,1.5,0,0,0,0-3Z"/><path class="cls-1" d="M57.69,36.17a1.5,1.5,0,0,0-1.5,1.5V48.4L49.11,36.89a1.5,1.5,0,0,0-2.78.79v16a1.5,1.5,0,0,0,3,0V43l7.09,11.51a1.5,1.5,0,0,0,2.78-.79v-16A1.5,1.5,0,0,0,57.69,36.17Z"/><path class="cls-1" d="M60.27,23.39H54.36L36.62,5.32a3.85,3.85,0,1,0-7.11,0l-18.1,18.1H5.5A5.51,5.51,0,0,0,0,28.89V60a5.51,5.51,0,0,0,5.5,5.5H60.27a5.51,5.51,0,0,0,5.5-5.5V28.89A5.51,5.51,0,0,0,60.27,23.39Zm-28.64-16a3.76,3.76,0,0,0,2.85,0l15.68,16H15.65ZM62.77,60a2.5,2.5,0,0,1-2.5,2.5H5.5A2.5,2.5,0,0,1,3,60V28.89a2.5,2.5,0,0,1,2.5-2.5H60.27a2.5,2.5,0,0,1,2.5,2.5Z"/><path class="cls-1" d="M8,32.54a1.5,1.5,0,1,0,0-3H8A1.49,1.49,0,0,0,6.54,31,1.51,1.51,0,0,0,8,32.54Z"/><path class="cls-1" d="M58,29.54h0A1.49,1.49,0,0,0,56.54,31,1.51,1.51,0,1,0,58,29.54Z"/></g></g></svg>