<svg xmlns="http://www.w3.org/2000/svg" viewBox="0 0 52.66 66.11"><defs><style>.cls-1{fill:#455a64;}</style></defs><title>Calculator</title><g id="Layer_2" data-name="Layer 2"><g id="Layer_8" data-name="Layer 8"><path class="cls-1" d="M46.69,0H6A5.9,5.9,0,0,0,0,5.81V60.3a5.9,5.9,0,0,0,6,5.81H46.69a5.9,5.9,0,0,0,6-5.81V5.81A5.9,5.9,0,0,0,46.69,0Zm3,60.3a2.9,2.9,0,0,1-3,2.81H6A2.9,2.9,0,0,1,3,60.3V5.81A2.9,2.9,0,0,1,6,3H46.69a2.9,2.9,0,0,1,3,2.81Z"/><path class="cls-1" d="M43.25,6.45H9.33A2.65,2.65,0,0,0,6.66,9.07V16.5a2.65,2.65,0,0,0,2.67,2.62H43.25a2.65,2.65,0,0,0,2.67-2.62V9.07A2.65,2.65,0,0,0,43.25,6.45Zm-.33,9.67H9.66V9.45H42.91Z"/><path class="cls-1" d="M12.13,22.65a5.41,5.41,0,1,0,5.41,5.41A5.41,5.41,0,0,0,12.13,22.65Zm0,7.81a2.41,2.41,0,1,1,2.41-2.41A2.41,2.41,0,0,1,12.13,30.47Z"/><path class="cls-1" d="M26.14,22.65a5.41,5.41,0,1,0,5.41,5.41A5.41,5.41,0,0,0,26.14,22.65Zm0,7.81a2.41,2.41,0,1,1,2.41-2.41A2.41,2.41,0,0,1,26.14,30.47Z"/><path class="cls-1" d="M40.15,22.65a5.41,5.41,0,1,0,5.41,5.41A5.41,5.41,0,0,0,40.15,22.65Zm0,7.81a2.41,2.41,0,1,1,2.41-2.41A2.41,2.41,0,0,1,40.15,30.47Z"/><path class="cls-1" d="M12.13,35.65a5.41,5.41,0,1,0,5.41,5.41A5.41,5.41,0,0,0,12.13,35.65Zm0,7.81a2.41,2.41,0,1,1,2.41-2.41A2.41,2.41,0,0,1,12.13,43.47Z"/><path class="cls-1" d="M26.14,35.65a5.41,5.41,0,1,0,5.41,5.41A5.41,5.41,0,0,0,26.14,35.65Zm0,7.81a2.41,2.41,0,1,1,2.41-2.41A2.41,2.41,0,0,1,26.14,43.47Z"/><path class="cls-1" d="M40.15,35.65a5.41,5.41,0,1,0,5.41,5.41A5.41,5.41,0,0,0,40.15,35.65Zm0,7.81a2.41,2.41,0,1,1,2.41-2.41A2.41,2.41,0,0,1,40.15,43.47Z"/><path class="cls-1" d="M12.13,48.65a5.41,5.41,0,1,0,5.41,5.41A5.41,5.41,0,0,0,12.13,48.65Zm0,7.81a2.41,2.41,0,1,1,2.41-2.41A2.41,2.41,0,0,1,12.13,56.47Z"/><path class="cls-1" d="M26.14,48.65a5.41,5.41,0,1,0,5.41,5.41A5.41,5.41,0,0,0,26.14,48.65Zm0,7.81a2.41,2.41,0,1,1,2.41-2.41A2.41,2.41,0,0,1,26.14,56.47Z"/><path class="cls-1" d="M40.15,48.65a5.41,5.41,0,1,0,5.41,5.41A5.41,5.41,0,0,0,40.15,48.65Zm0,7.81a2.41,2.41,0,1,1,2.41-2.41A2.41,2.41,0,0,1,40.15,56.47Z"/></g></g></svg>