<svg xmlns="http://www.w3.org/2000/svg" viewBox="0 0 62.57 62.57"><defs><style>.cls-1{fill:#455a64;}</style></defs><title>Calendar</title><g id="Layer_2" data-name="Layer 2"><g id="Layer_8" data-name="Layer 8"><path class="cls-1" d="M57.19,5.18H47V4.09a4.09,4.09,0,1,0-8.18,0V5.18H23.72V4.09a4.09,4.09,0,0,0-8.18,0V5.18H5.39A5.39,5.39,0,0,0,0,10.57V57.19a5.39,5.39,0,0,0,5.39,5.38h51.8a5.39,5.39,0,0,0,5.38-5.38V10.57A5.39,5.39,0,0,0,57.19,5.18ZM41.85,4.09a1.09,1.09,0,0,1,2.18,0V9.27a1.09,1.09,0,0,1-2.18,0Zm-23.31,0a1.09,1.09,0,0,1,2.18,0V9.27a1.09,1.09,0,0,1-2.18,0ZM5.39,8.18H15.54V9.27a4.09,4.09,0,0,0,8.18,0V8.18H38.85V9.27a4.09,4.09,0,0,0,8.18,0V8.18H57.19a2.39,2.39,0,0,1,2.38,2.39v5H3v-5A2.39,2.39,0,0,1,5.39,8.18Zm51.8,51.39H5.39A2.39,2.39,0,0,1,3,57.19V18.54H59.57V57.19A2.39,2.39,0,0,1,57.19,59.57Z"/><path class="cls-1" d="M19.63,25.9H11.86a1.5,1.5,0,0,0-1.5,1.5v7.77a1.5,1.5,0,0,0,1.5,1.5h7.77a1.5,1.5,0,0,0,1.5-1.5V27.4A1.5,1.5,0,0,0,19.63,25.9Zm-1.5,7.77H13.36V28.9h4.77Z"/><path class="cls-1" d="M35.17,25.9H27.4a1.5,1.5,0,0,0-1.5,1.5v7.77a1.5,1.5,0,0,0,1.5,1.5h7.77a1.5,1.5,0,0,0,1.5-1.5V27.4A1.5,1.5,0,0,0,35.17,25.9Zm-1.5,7.77H28.9V28.9h4.77Z"/><path class="cls-1" d="M50.71,25.9H42.94a1.5,1.5,0,0,0-1.5,1.5v7.77a1.5,1.5,0,0,0,1.5,1.5h7.77a1.5,1.5,0,0,0,1.5-1.5V27.4A1.5,1.5,0,0,0,50.71,25.9Zm-1.5,7.77H44.44V28.9h4.77Z"/><path class="cls-1" d="M19.63,41.44H11.86a1.5,1.5,0,0,0-1.5,1.5v7.77a1.5,1.5,0,0,0,1.5,1.5h7.77a1.5,1.5,0,0,0,1.5-1.5V42.94A1.5,1.5,0,0,0,19.63,41.44Zm-1.5,7.77H13.36V44.44h4.77Z"/><path class="cls-1" d="M35.17,41.44H27.4a1.5,1.5,0,0,0-1.5,1.5v7.77a1.5,1.5,0,0,0,1.5,1.5h7.77a1.5,1.5,0,0,0,1.5-1.5V42.94A1.5,1.5,0,0,0,35.17,41.44Zm-1.5,7.77H28.9V44.44h4.77Z"/><path class="cls-1" d="M50.71,41.44H42.94a1.5,1.5,0,0,0-1.5,1.5v7.77a1.5,1.5,0,0,0,1.5,1.5h7.77a1.5,1.5,0,0,0,1.5-1.5V42.94A1.5,1.5,0,0,0,50.71,41.44Zm-1.5,7.77H44.44V44.44h4.77Z"/></g></g></svg>