<svg xmlns="http://www.w3.org/2000/svg" viewBox="0 0 68 52.28"><defs><style>.cls-1{fill:#455a64;}</style></defs><title>Camera</title><g id="Layer_2" data-name="Layer 2"><g id="Layer_8" data-name="Layer 8"><path class="cls-1" d="M8.4,5.06h8.15a1.5,1.5,0,0,0,0-3H8.4a1.5,1.5,0,0,0,0,3Z"/><path class="cls-1" d="M16.54,14.06H8.4a1.5,1.5,0,1,0,0,3h8.15a1.5,1.5,0,0,0,0-3Z"/><path class="cls-1" d="M39,16.4a1.5,1.5,0,0,0,0,3,9.2,9.2,0,0,1,9.19,9.19,1.5,1.5,0,1,0,3,0A12.2,12.2,0,0,0,39,16.4Z"/><path class="cls-1" d="M63.54,6.29H56.12L51.71,1.64A4.45,4.45,0,0,0,48.25,0H29.65a4.48,4.48,0,0,0-3.46,1.65L21.78,6.29H4.46A4.47,4.47,0,0,0,0,10.75V47.81a4.47,4.47,0,0,0,4.46,4.46H63.54A4.47,4.47,0,0,0,68,47.81V10.75A4.47,4.47,0,0,0,63.54,6.29ZM65,47.81a1.47,1.47,0,0,1-1.46,1.46H4.46A1.47,1.47,0,0,1,3,47.81V10.75A1.46,1.46,0,0,1,4.46,9.29h18a1.5,1.5,0,0,0,1.09-.47l4.9-5.15.1-.11A1.46,1.46,0,0,1,29.65,3h18.6a1.47,1.47,0,0,1,1.15.57l.09.1,4.9,5.15a1.5,1.5,0,0,0,1.09.47h8.06A1.46,1.46,0,0,1,65,10.75Z"/><path class="cls-1" d="M39,10.79A17.79,17.79,0,1,0,56.74,28.58,17.81,17.81,0,0,0,39,10.79Zm0,32.58A14.79,14.79,0,1,1,53.74,28.58,14.81,14.81,0,0,1,39,43.38Z"/></g></g></svg>