<svg xmlns="http://www.w3.org/2000/svg" viewBox="0 0 67.42 65.42"><defs><style>.cls-1{fill:#455a64;}</style></defs><title>Care</title><g id="Layer_2" data-name="Layer 2"><g id="Layer_8" data-name="Layer 8"><path class="cls-1" d="M39.26,28.34A58.33,58.33,0,0,0,47,23h0c4.33-3.79,6.24-8.84,5.23-13.86A10.75,10.75,0,0,0,45.51.89,12,12,0,0,0,34.78,2.3c-.35.2-.82.47-1,.55a10.69,10.69,0,0,1-1-.59C30.8,1,27.11-1.3,21.89.93a11.33,11.33,0,0,0-7,8.91c-.6,4.66,1.83,9.49,6.66,13.26l1.91,1.5a73.79,73.79,0,0,0,6.42,4.73c.73.46,3,2,3,2a1.5,1.5,0,0,0,1.69,0s2.29-1.56,3-2Zm-5.5,0C33,27.8,32,27.1,31.48,26.79a71.57,71.57,0,0,1-6.14-4.54L23.4,20.73c-4-3.09-6-6.92-5.53-10.5a8.36,8.36,0,0,1,5.2-6.54A7.88,7.88,0,0,1,26.2,3a9.19,9.19,0,0,1,5,1.8,5,5,0,0,0,2.57,1.07,5.2,5.2,0,0,0,2.52-1c1.82-1,4.31-2.49,8.28-1.16a7.76,7.76,0,0,1,4.78,6c.79,3.93-.76,7.94-4.27,11a56.3,56.3,0,0,1-7.36,5L36,26.8C35.56,27.1,34.51,27.8,33.76,28.31Z"/><path class="cls-1" d="M29.38,54.53h-1.1V49.8a11.58,11.58,0,0,0-4.7-9.61l-6.39-6.53.06-1.51c0-.53.22-3.32-1.52-5a4.23,4.23,0,0,0-3-1.1,6,6,0,0,0-2.85-3.85,3.82,3.82,0,0,0-2-.31,6.14,6.14,0,0,0-2.25-4,5.46,5.46,0,0,0-4.48-.82A1.5,1.5,0,0,0,0,18.57l.17,20.6A1.49,1.49,0,0,0,.42,40l9.75,14.63a1.5,1.5,0,0,0-1,1.41v7.69a1.5,1.5,0,0,0,1.5,1.5H29.38a1.5,1.5,0,0,0,1.5-1.5V56A1.5,1.5,0,0,0,29.38,54.53ZM14.27,31.88s0,.07,0,.1v.12a6.1,6.1,0,0,0-1.37.78V29.07a1.12,1.12,0,0,1,.79.29A3.65,3.65,0,0,1,14.27,31.88ZM8.6,24.95a3.52,3.52,0,0,1,1.28,2.14v9.08L7.71,33.88l.28-9A1,1,0,0,1,8.6,24.95ZM3,20a2,2,0,0,1,.8.35C4.56,20.92,5,22.17,5,23.86L4.69,34.42A1.5,1.5,0,0,0,5.1,35.5l8.42,8.86a4,4,0,0,0,4.72.83,1.5,1.5,0,0,0,.39-2.4L15,39.17c-.64-.86-1.32-2-1.06-2.94a1.79,1.79,0,0,1,.61-.85,1.5,1.5,0,0,0,.38.29l6.58,6.72a1.51,1.51,0,0,0,.21.18,8.56,8.56,0,0,1,3.55,7.15v4.53H13.52L3.16,38.69ZM27.88,62.22H12.16V57.53H27.88Z"/><path class="cls-1" d="M66.32,17.31a5.46,5.46,0,0,0-4.48.82,6.12,6.12,0,0,0-2.24,4,3.82,3.82,0,0,0-2,.31,6,6,0,0,0-2.85,3.85,4.22,4.22,0,0,0-3,1.1c-1.74,1.65-1.57,4.44-1.52,5l.06,1.51-6.39,6.53a11.55,11.55,0,0,0-4.71,9.52v4.83H38a1.5,1.5,0,0,0-1.5,1.5v7.69a1.5,1.5,0,0,0,1.5,1.5H56.75a1.5,1.5,0,0,0,1.5-1.5V56.23a1.5,1.5,0,0,0-1-1.41L67,40.19a1.5,1.5,0,0,0,.25-.82l.17-20.6A1.5,1.5,0,0,0,66.32,17.31Zm-7.51,7.84a1,1,0,0,1,.62,0l.28,9-2.17,2.28V27.29A3.57,3.57,0,0,1,58.81,25.15Zm-5.06,4.4a1.11,1.11,0,0,1,.79-.29v3.81a6.09,6.09,0,0,0-1.38-.78v-.21A3.65,3.65,0,0,1,53.75,29.55Zm1.5,32.86H39.54V57.73H55.25Zm9-23.52L53.89,54.43H42.13V49.82a8.54,8.54,0,0,1,3.55-7.06,1.51,1.51,0,0,0,.21-.18l6.58-6.72a1.5,1.5,0,0,0,.38-.29,1.8,1.8,0,0,1,.61.85c.26.91-.42,2.09-1.06,2.94L48.78,43a1.5,1.5,0,0,0,.39,2.4,4,4,0,0,0,4.72-.83l8.42-8.86a1.5,1.5,0,0,0,.41-1.08l-.33-10.47c0-1.78.46-3,1.21-3.6a2,2,0,0,1,.8-.35Z"/></g></g></svg>