<svg xmlns="http://www.w3.org/2000/svg" viewBox="0 0 66.68 44.65"><defs><style>.cls-1{fill:#455a64;}</style></defs><title>Cash</title><g id="Layer_2" data-name="Layer 2"><g id="Layer_8" data-name="Layer 8"><path class="cls-1" d="M63.91,9.09h-6a1.49,1.49,0,0,0-.43-.94V2.78A2.78,2.78,0,0,0,54.7,0H2.78A2.78,2.78,0,0,0,0,2.78v30a2.78,2.78,0,0,0,2.78,2.78H9.21v6.31A2.78,2.78,0,0,0,12,44.65H63.91a2.78,2.78,0,0,0,2.78-2.78v-30A2.78,2.78,0,0,0,63.91,9.09ZM55.85,41.65H19.7a8.79,8.79,0,0,0-7.49-8.16V19.59a8.8,8.8,0,0,0,7.43-7.51H55.91a8.8,8.8,0,0,0,7.77,7.56V33.44A8.8,8.8,0,0,0,55.85,41.65ZM3,10.69A8.79,8.79,0,0,0,11.45,3H47.7a8.79,8.79,0,0,0,3.65,6.09H12a2.78,2.78,0,0,0-2.78,2.78v15.4A8.76,8.76,0,0,0,3,24.41Zm13.61,1.4a5.81,5.81,0,0,1-4.4,4.46V12.09Zm47.07,4.53a5.8,5.8,0,0,1-4.74-4.53h4.74ZM54.47,7.36A5.8,5.8,0,0,1,50.73,3h3.74ZM8.42,3A5.79,5.79,0,0,1,3,7.69V3ZM3,27.41a5.79,5.79,0,0,1,5.49,5.16H3Zm9.21,9.13a5.8,5.8,0,0,1,4.49,5.12H12.21Zm46.64,5.12a5.8,5.8,0,0,1,4.83-5.18v5.18Z"/><path class="cls-1" d="M37.95,14A12.94,12.94,0,1,0,50.89,26.9,13,13,0,0,0,37.95,14Zm0,22.88a9.94,9.94,0,1,1,9.94-9.94A10,10,0,0,1,37.95,36.84Z"/><path class="cls-1" d="M38.78,26l-.44-.22-.16-.06-.06,0c-1.1-.54-1.1-.62-1.1-.91,0-.06,0-.09,0-.1a1.74,1.74,0,0,1,.82-.13,1.51,1.51,0,0,1,.58.08,1.5,1.5,0,0,0,3-.46,2.86,2.86,0,0,0-2-2.38v-.63a1.5,1.5,0,0,0-3,0v.59a3,3,0,0,0-2.36,3c0,2.22,1.6,3,2.76,3.6l.38.19.13,0,.15.08c1.33.66,1.38.78,1.38,1.24,0,.2,0,.49-1.17.49a1.44,1.44,0,0,1-.86-.18A1.48,1.48,0,0,0,35.2,29a1.5,1.5,0,0,0-1.39,1.6,3.13,3.13,0,0,0,2.56,2.65v.14a1.5,1.5,0,1,0,3,0v-.23a3.27,3.27,0,0,0,2.45-3.24C41.82,27.51,40.06,26.63,38.78,26Z"/></g></g></svg>