<svg xmlns="http://www.w3.org/2000/svg" viewBox="0 0 65.13 65.56"><defs><style>.cls-1{fill:#455a64;}</style></defs><title>CashRegister</title><g id="Layer_2" data-name="Layer 2"><g id="Layer_8" data-name="Layer 8"><path class="cls-1" d="M27.2,60.48H37.4a1.5,1.5,0,0,0,0-3H27.2a1.5,1.5,0,0,0,0,3Z"/><path class="cls-1" d="M65,53.39,56.43,32.23V21a6.58,6.58,0,0,0-6.58-6.58H34s0-.06,0-.09V10.81h7a3,3,0,0,0,2.94-2.94V2.94A2.94,2.94,0,0,0,40.95,0H24.18a3,3,0,0,0-2.94,2.94V7.87a3,3,0,0,0,2.94,2.94H31v3.54s0,.06,0,.09H16.29c-3.58,0-7.58,2.81-7.58,6.58V31.9L.13,53.52a1.5,1.5,0,0,0-.07.26,1.48,1.48,0,0,0-.05.37v9a2.43,2.43,0,0,0,2.43,2.43H62.7a2.43,2.43,0,0,0,2.43-2.43v-9s0,0,0-.07A1.48,1.48,0,0,0,65,53.39ZM24.18,3l16.71-.06V7.81l-16.65.06ZM11.71,21c0-1.89,2.56-3.58,4.58-3.58H49.85A3.58,3.58,0,0,1,53.43,21V32.21a1.49,1.49,0,0,0,.05.37,1.49,1.49,0,0,0,.11.63l7.9,19.44H3.7l7.83-19.71v0a1.48,1.48,0,0,0,.17-.68ZM62.13,62.56H3V55.65H62.13Z"/><path class="cls-1" d="M17.3,29.67H48.38a1.5,1.5,0,0,0,1.5-1.5V21.74a1.5,1.5,0,0,0-1.5-1.5H17.3a1.5,1.5,0,0,0-1.5,1.5v6.43A1.5,1.5,0,0,0,17.3,29.67Zm1.5-6.43H46.88v3.43H18.8Z"/><ellipse class="cls-1" cx="18.18" cy="37.58" rx="3.78" ry="1.98"/><ellipse class="cls-1" cx="27.55" cy="37.58" rx="3.78" ry="1.98"/><ellipse class="cls-1" cx="36.91" cy="37.58" rx="3.78" ry="1.98"/><ellipse class="cls-1" cx="46.28" cy="37.58" rx="3.78" ry="1.98"/><ellipse class="cls-1" cx="15.94" cy="45.75" rx="4.42" ry="1.98"/><ellipse class="cls-1" cx="26.89" cy="45.75" rx="4.42" ry="1.98"/><ellipse class="cls-1" cx="37.83" cy="45.75" rx="4.42" ry="1.98"/><ellipse class="cls-1" cx="48.78" cy="45.75" rx="4.42" ry="1.98"/></g></g></svg>