<svg xmlns="http://www.w3.org/2000/svg" viewBox="0 0 68 67.98"><defs><style>.cls-1{fill:#455a64;}</style></defs><title>Certified</title><g id="Layer_2" data-name="Layer 2"><g id="Layer_8" data-name="Layer 8"><path class="cls-1" d="M67.48,31.88l-2.54-4.4a8,8,0,0,1-.89-3.31V19.08a4.61,4.61,0,0,0-2.11-3.66l-4.4-2.53a8,8,0,0,1-2.42-2.42L52.57,6.05a4.61,4.61,0,0,0-3.66-2.11H43.82a7.88,7.88,0,0,1-3.31-.89L36.1.5a4.71,4.71,0,0,0-4.22,0L27.48,3a8,8,0,0,1-3.31.89H19.08a4.6,4.6,0,0,0-3.66,2.11l-2.54,4.41a7.94,7.94,0,0,1-2.42,2.41L6.06,15.42a4.61,4.61,0,0,0-2.11,3.66v5.09a7.88,7.88,0,0,1-.89,3.31L.53,31.88a4.52,4.52,0,0,0,0,4.23l2.54,4.4A8,8,0,0,1,4,43.83v5.08a4.61,4.61,0,0,0,2.11,3.66l4.41,2.54A7.17,7.17,0,0,1,12,56.42a6.72,6.72,0,0,1,.86,1.11l2.54,4.4A4.61,4.61,0,0,0,19.09,64h5.09a8,8,0,0,1,3.3.89l4.4,2.55a4.7,4.7,0,0,0,4.22,0l4.42-2.54a7.86,7.86,0,0,1,3.3-.88h5.09a4.6,4.6,0,0,0,3.66-2.11l2.55-4.4A6,6,0,0,1,56,56.43a7.45,7.45,0,0,1,1.57-1.31L62,52.58a4.61,4.61,0,0,0,2.11-3.66V43.83A7.87,7.87,0,0,1,65,40.52l2.55-4.43A4.6,4.6,0,0,0,67.48,31.88ZM64.9,34.61,62.36,39a10.75,10.75,0,0,0-1.29,4.81v5.09A1.74,1.74,0,0,1,60.46,50l-4.39,2.54a10.19,10.19,0,0,0-2.24,1.84A9,9,0,0,0,52.53,56L50,60.44a1.74,1.74,0,0,1-1.06.61H43.83A10.74,10.74,0,0,0,39,62.34l-4.4,2.54a2,2,0,0,1-1.23,0L29,62.32A10.89,10.89,0,0,0,24.18,61H19.09A1.71,1.71,0,0,1,18,60.42L15.49,56a9.72,9.72,0,0,0-1.26-1.64A10,10,0,0,0,12,52.51L7.56,50A1.74,1.74,0,0,1,7,48.91V43.83A10.9,10.9,0,0,0,5.66,39L3.12,34.61a1.62,1.62,0,0,1,0-1.23L5.65,29a10.76,10.76,0,0,0,1.29-4.81V19.08A1.74,1.74,0,0,1,7.55,18L12,15.48A10.88,10.88,0,0,0,15.48,12L18,7.55a1.73,1.73,0,0,1,1.06-.61h5.09A10.9,10.9,0,0,0,29,5.65L33.37,3.1a2,2,0,0,1,1.23,0L39,5.65a10.75,10.75,0,0,0,4.81,1.29h5.09A1.7,1.7,0,0,1,50,7.55L52.51,12A10.86,10.86,0,0,0,56,15.48L60.44,18a1.74,1.74,0,0,1,.61,1.06v5.09A10.88,10.88,0,0,0,62.34,29l2.54,4.41h0A1.7,1.7,0,0,1,64.9,34.61Z"/><path class="cls-1" d="M34,10.67A23.33,23.33,0,1,0,57.34,34,23.35,23.35,0,0,0,34,10.67Zm0,43.66A20.33,20.33,0,1,1,54.34,34,20.36,20.36,0,0,1,34,54.32Z"/><path class="cls-1" d="M46.61,28.48l-7.24-1.05-3.24-6.56a2.38,2.38,0,0,0-4.27,0l-3.24,6.56-7.24,1.05a2.38,2.38,0,0,0-1.32,4.06l5.24,5.11-1.24,7.21a2.38,2.38,0,0,0,3.46,2.51L34,44l6.47,3.4a2.38,2.38,0,0,0,3.46-2.51l-1.24-7.21,5.24-5.11a2.38,2.38,0,0,0-1.32-4.06Zm-6.25,7.25a2.38,2.38,0,0,0-.68,2.11l1.08,6.29-5.65-3a2.39,2.39,0,0,0-2.22,0l-5.65,3,1.08-6.29a2.37,2.37,0,0,0-.68-2.11l-4.57-4.46,6.32-.92a2.38,2.38,0,0,0,1.8-1.3L34,23.32,36.83,29a2.38,2.38,0,0,0,1.79,1.3l6.32.92Z"/></g></g></svg>