<svg xmlns="http://www.w3.org/2000/svg" viewBox="0 0 67.13 65.13"><defs><style>.cls-1{fill:#455a64;}</style></defs><title>ChartDown</title><g id="Layer_2" data-name="Layer 2"><g id="Layer_8" data-name="Layer 8"><path class="cls-1" d="M4.63,58.77H14.2a1.5,1.5,0,0,0,1.5-1.5V14a1.5,1.5,0,0,0-1.5-1.5H4.63A1.5,1.5,0,0,0,3.13,14V57.27A1.5,1.5,0,0,0,4.63,58.77Zm1.5-43.29H12.7V55.77H6.13Z"/><path class="cls-1" d="M21.15,27.42a1.5,1.5,0,0,0-1.5,1.5V57.27a1.5,1.5,0,0,0,1.5,1.5h9.57a1.5,1.5,0,0,0,1.5-1.5V28.92a1.5,1.5,0,0,0-1.5-1.5Zm8.07,28.36H22.65V30.42h6.57Z"/><path class="cls-1" d="M37.67,38.78a1.5,1.5,0,0,0-1.5,1.5v17a1.5,1.5,0,0,0,1.5,1.5h9.57a1.5,1.5,0,0,0,1.5-1.5v-17a1.5,1.5,0,0,0-1.5-1.5Zm8.07,17H39.17v-14h6.57Z"/><path class="cls-1" d="M63.75,46H54.18a1.5,1.5,0,0,0-1.5,1.5v9.74a1.5,1.5,0,0,0,1.5,1.5h9.57a1.5,1.5,0,0,0,1.5-1.5V47.53A1.5,1.5,0,0,0,63.75,46Zm-1.5,9.74H55.68V49h6.57Z"/><path class="cls-1" d="M65.63,62.13H1.5a1.5,1.5,0,0,0,0,3H65.63a1.5,1.5,0,0,0,0-3Z"/><path class="cls-1" d="M59.91,40.21h-3.7a1.5,1.5,0,0,0,0,3h7.63a1.51,1.51,0,0,0,.31,0h0l.27-.09.08,0,.18-.1.09-.07.15-.13,0,0,0,0a1.49,1.49,0,0,0,.27-.46l0-.06a1.48,1.48,0,0,0,.08-.45V33.33a1.5,1.5,0,0,0-3,0v5L19.88.38a1.5,1.5,0,0,0-2,2.24Z"/></g></g></svg>