<svg xmlns="http://www.w3.org/2000/svg" viewBox="0 0 67.13 65.13"><defs><style>.cls-1{fill:#455a64;}</style></defs><title>ChartUp</title><g id="Layer_2" data-name="Layer 2"><g id="Layer_8" data-name="Layer 8"><path class="cls-1" d="M52.93,58.77h9.57a1.5,1.5,0,0,0,1.5-1.5V14a1.5,1.5,0,0,0-1.5-1.5H52.93a1.5,1.5,0,0,0-1.5,1.5V57.27A1.5,1.5,0,0,0,52.93,58.77Zm1.5-43.29H61V55.77H54.43Z"/><path class="cls-1" d="M46,27.42H36.41a1.5,1.5,0,0,0-1.5,1.5V57.27a1.5,1.5,0,0,0,1.5,1.5H46a1.5,1.5,0,0,0,1.5-1.5V28.92A1.5,1.5,0,0,0,46,27.42Zm-1.5,28.36H37.91V30.42h6.57Z"/><path class="cls-1" d="M19.89,38.78a1.5,1.5,0,0,0-1.5,1.5v17a1.5,1.5,0,0,0,1.5,1.5h9.57a1.5,1.5,0,0,0,1.5-1.5v-17a1.5,1.5,0,0,0-1.5-1.5Zm8.07,17H21.39v-14H28Z"/><path class="cls-1" d="M3.38,58.77h9.57a1.5,1.5,0,0,0,1.5-1.5V47.53a1.5,1.5,0,0,0-1.5-1.5H3.38a1.5,1.5,0,0,0-1.5,1.5v9.74A1.5,1.5,0,0,0,3.38,58.77ZM4.88,49h6.57v6.74H4.88Z"/><path class="cls-1" d="M65.63,62.13H1.5a1.5,1.5,0,0,0,0,3H65.63a1.5,1.5,0,0,0,0-3Z"/><path class="cls-1" d="M3.5,42.38a1.49,1.49,0,0,0,1-.37L46.75,4.82V9.88a1.5,1.5,0,0,0,3,0V1.5s0-.06,0-.08a1.53,1.53,0,0,0,0-.17s0-.09,0-.13a1.42,1.42,0,0,0,0-.15L49.59.84,49.52.71l-.1-.13L49.38.51l0,0L49.22.37l-.1-.09L49,.2,48.87.14l-.13,0-.14,0-.13,0-.16,0H40.63a1.5,1.5,0,0,0,0,3h3.65L2.51,39.75a1.5,1.5,0,0,0,1,2.63Z"/></g></g></svg>