<svg xmlns="http://www.w3.org/2000/svg" viewBox="0 0 66.18 61.6"><defs><style>.cls-1{fill:#455a64;}</style></defs><title>CheckeredFlag</title><g id="Layer_2" data-name="Layer 2"><g id="Layer_8" data-name="Layer 8"><path class="cls-1" d="M64.17,20.44a13.39,13.39,0,0,0-9-5.37c-7.86-1.22-10.53-8.4-10.64-8.7h0l.19-.54a2.94,2.94,0,1,0-2.81-1.06L33.09,30,24.31,4.76A2.89,2.89,0,1,0,21.5,5.82l.19.54h0c-.11.3-2.78,7.48-10.64,8.7a13.39,13.39,0,0,0-9,5.37,10.57,10.57,0,0,0-2,5.45,1.5,1.5,0,0,0,.07.56L6.24,45.57a1.5,1.5,0,0,0,1.43,1h0a1.5,1.5,0,0,0,1.42-1.09c0-.08,2.33-7.93,10.39-8.92a15.07,15.07,0,0,0,2.94-.6c3.64-1.21,6.21-3,7.67-5.45l1.39,4L25,53.1a4.26,4.26,0,1,0,2.81,1.05l5.25-15.07,5.25,15.07a4.17,4.17,0,1,0,2.81-1.05L34.68,34.53l1.39-4c1.47,2.41,4,4.23,7.67,5.44a15,15,0,0,0,2.94.6c8,1,10.3,8.6,10.39,8.92a1.5,1.5,0,0,0,1.42,1.09h0a1.5,1.5,0,0,0,1.43-1l6.17-19.12a1.5,1.5,0,0,0,.07-.56A10.58,10.58,0,0,0,64.17,20.44ZM23,10.25l1.89,5.44c-.58,1.21-1.69,3.23-2.8,3.58l-2.05-5.42A18.28,18.28,0,0,0,23,10.25ZM4.22,22.55l1.92,4.79a4.12,4.12,0,0,0-1.81,2.53L3,25.82A7.56,7.56,0,0,1,4.22,22.55ZM28.53,26a7,7,0,0,1-2.25,4.48L24.7,26.24c-1,1.77-5.09,3.18-5.09,3.18l1.25,3.89a15.4,15.4,0,0,1-1.73.31,15.22,15.22,0,0,0-4.21,1.13l-1.51-4a44.1,44.1,0,0,1,6.18-1.1l-2.19-7.3-6.21,1.45,2,6.86c-.68.28-4,1.72-5,3.34l1.52,4.6A17.25,17.25,0,0,0,7.92,41L6.55,36.75c.85-1.89,2.09-3.65,1.61-3L6.22,27.4c.87-1.62,5-3.51,5-3.51l-1.54-5.4A12.06,12.06,0,0,1,11.5,18a16.17,16.17,0,0,0,4-1.19l1.9,5.55c2.62-.05,4.53-2.76,4.71-3l2.48,6.85a11,11,0,0,0,2.48-4.31L28.53,26ZM25.1,58.6a1.25,1.25,0,1,1,1.19-1.25A1.23,1.23,0,0,1,25.1,58.6Zm17.18-1.25a1.2,1.2,0,1,1-1.19-1.25A1.23,1.23,0,0,1,42.28,57.35Zm3.82-43.5L44,19.27c-1.12-.34-2.23-2.37-2.8-3.58l1.89-5.44A18.27,18.27,0,0,0,46.09,13.85ZM58.26,41a17.26,17.26,0,0,0-1.79-2.44L58,34c-1-1.62-4.35-3.06-5-3.34l2-6.86-6.21-1.45-2.19,7.3a44.1,44.1,0,0,1,6.18,1.1l-1.51,4A15.22,15.22,0,0,0,47,33.62a15.46,15.46,0,0,1-1.73-.31l1.25-3.89S42.46,28,41.48,26.24L39.9,30.5A7,7,0,0,1,37.65,26h0l1.43-4.09a11,11,0,0,0,2.48,4.31L44,19.38c.18.26,2.08,3,4.71,3l1.9-5.55a16.17,16.17,0,0,0,4,1.19,12.07,12.07,0,0,1,1.87.45L55,23.89s4.09,1.89,5,3.51L58,33.76c-.48-.66.76,1.1,1.61,3Zm3.59-11.12A4.12,4.12,0,0,0,60,27.34L62,22.55a7.57,7.57,0,0,1,1.2,3.26Z"/></g></g></svg>