<svg xmlns="http://www.w3.org/2000/svg" viewBox="0 0 52.69 68.21"><defs><style>.cls-1{fill:#455a64;}</style></defs><title>Checklist</title><g id="Layer_2" data-name="Layer 2"><g id="Layer_8" data-name="Layer 8"><path class="cls-1" d="M31.07,26H44.26a1.5,1.5,0,0,0,0-3H31.07a1.5,1.5,0,0,0,0,3Z"/><path class="cls-1" d="M45.77,35.49a1.5,1.5,0,0,0-1.5-1.5H31.07a1.5,1.5,0,0,0,0,3H44.27A1.5,1.5,0,0,0,45.77,35.49Z"/><path class="cls-1" d="M20.85,22.28l-7.92,7.53-3-3A1.5,1.5,0,0,0,7.8,28.92l4,4a1.5,1.5,0,0,0,2.09,0l9-8.54a1.5,1.5,0,1,0-2.07-2.17Z"/><path class="cls-1" d="M20.84,33.32l-7.92,7.53-3-3A1.5,1.5,0,0,0,7.78,40l4,4a1.5,1.5,0,0,0,2.09,0l9-8.54a1.5,1.5,0,1,0-2.07-2.17Z"/><path class="cls-1" d="M20.83,44.36,12.9,51.89l-3-3A1.5,1.5,0,0,0,7.77,51l4,4a1.5,1.5,0,0,0,2.09,0l9-8.54a1.5,1.5,0,1,0-2.07-2.17Z"/><path class="cls-1" d="M52.61,50.13a1.49,1.49,0,0,0,.06-.28s0-.07,0-.11,0,0,0-.07l-.36-38A4.53,4.53,0,0,0,47.8,7.21h0L43,7.25V5a4.56,4.56,0,1,0-9.11,0V7.32l-15.6.13V4.56a4.56,4.56,0,1,0-9.11,0v3l-4.73,0A4.54,4.54,0,0,0,0,12.12l.47,51.6A4.53,4.53,0,0,0,5,68.21H5l34.14-.27a1.5,1.5,0,0,0,.32,0l.07,0,.24-.09.09-.05.19-.12.09-.07a1.5,1.5,0,0,0,.17-.18l0,0,12-16.76v0a1.49,1.49,0,0,0,.17-.33ZM36.94,5A1.56,1.56,0,1,1,40,5V9.61a1.56,1.56,0,1,1-3.11,0ZM12.22,4.56a1.56,1.56,0,1,1,3.11,0V9.2a1.56,1.56,0,1,1-3.11,0ZM5,65.21H5a1.53,1.53,0,0,1-1.53-1.52L3,12.09a1.53,1.53,0,0,1,1.52-1.54l4.93,0a4.53,4.53,0,0,0,8.7-.06L34,10.32a4.54,4.54,0,0,0,9-.07l4.81,0h0a1.53,1.53,0,0,1,1.53,1.52l.34,36.46-7.6.06a4.57,4.57,0,0,0-4.53,4.61l.1,12.1Zm35.61-3.38-.07-9a1.57,1.57,0,0,1,1.56-1.58l6.15,0Z"/></g></g></svg>