<svg xmlns="http://www.w3.org/2000/svg" viewBox="0 0 66.47 60.36"><defs><style>.cls-1{fill:#455a64;}</style></defs><title>CheckBook</title><g id="Layer_2" data-name="Layer 2"><g id="Layer_8" data-name="Layer 8"><path class="cls-1" d="M66.47,24.1a5.51,5.51,0,0,0-4.14-5.32L63,16.54a1.5,1.5,0,0,0-1-1.88l-2.91-.92,1.17-3.69a1.5,1.5,0,0,0-1-1.88L58.71,8l1.52-4.79a1.5,1.5,0,0,0-1-1.88L55.38.07A1.5,1.5,0,0,0,53.5,1L52,5.84l-1-.3a1.5,1.5,0,0,0-1.88,1L45.33,18.6H5.5A5.51,5.51,0,0,0,0,24.1v4.45s0,.07,0,.1,0,.07,0,.11v14.9c0,3.57,2.47,6.48,5.5,6.48H35.55l1.76,9a1.5,1.5,0,0,0,1,1.14,1.52,1.52,0,0,0,.45.07,1.5,1.5,0,0,0,1-.43l6.55-6.4s0-.06.05-.08a1.46,1.46,0,0,0,.21-.3,1.45,1.45,0,0,0,.09-.17l0-.06.88-2.77H61c3,0,5.5-2.91,5.5-6.48l0-14.75a1.48,1.48,0,0,0,0-.36ZM55.91,3.38l1,.32L55.88,7l-1-.32ZM63.47,24.1v3.3H59.61l1.82-5.74A2.5,2.5,0,0,1,63.47,24.1Zm-6.8-2.5h1.62l-1.83,5.78H54.84Zm3.06-4.53-.49,1.53H57.62l.63-2ZM51.56,8.85,57,10.58,45.21,47.87a1.49,1.49,0,0,0-.21.67l-.65,2L38.9,48.85ZM5.5,21.6H44.38l-1.82,5.75L3,27.27V24.1A2.5,2.5,0,0,1,5.5,21.6ZM3,43.66V30.27l38.61.09L36.29,47.14H5.5C4.14,47.14,3,45.55,3,43.66ZM39.72,55.85,39,52l3.52,1.11ZM61,47.14H48.59l5.3-16.77h1.62l-2.22,7a1.5,1.5,0,1,0,2.86.9l2.5-7.9h4.77l0,13.26C63.47,45.55,62.32,47.14,61,47.14Z"/><path class="cls-1" d="M32.11,34.11H9.31a1.5,1.5,0,1,0,0,3h22.8a1.5,1.5,0,0,0,0-3Z"/><path class="cls-1" d="M27.38,40.92H9.69a1.5,1.5,0,0,0,0,3H27.38a1.5,1.5,0,1,0,0-3Z"/></g></g></svg>