<svg xmlns="http://www.w3.org/2000/svg" viewBox="0 0 69.59 69.59"><defs><style>.cls-1{fill:#455a64;}</style></defs><title>CircleCheck</title><g id="Layer_2" data-name="Layer 2"><g id="Layer_8" data-name="Layer 8"><path class="cls-1" d="M69.52,32.54a34.8,34.8,0,1,0-37,37q1.11.07,2.21.07a34.79,34.79,0,0,0,34.77-37ZM57.28,57.28A31.8,31.8,0,1,1,34.84,3c.67,0,1.35,0,2,.06A31.8,31.8,0,0,1,57.28,57.28Z"/><path class="cls-1" d="M55.75,21.64a6.76,6.76,0,0,0-9.55,0L32,35.83l-6.61-6.61a6.76,6.76,0,0,0-9.55,9.56L27.23,50.17a6.71,6.71,0,0,0,4.78,2h0a6.72,6.72,0,0,0,4.78-2l19-19a6.75,6.75,0,0,0,0-9.52Zm-2.12,7.43-19,19A3.73,3.73,0,0,1,32,49.15h0A3.73,3.73,0,0,1,29.35,48L18,36.65a3.76,3.76,0,0,1,5.31-5.31L30.95,39a1.5,1.5,0,0,0,2.12,0L48.32,23.76a3.76,3.76,0,0,1,5.28,0l0,0A3.76,3.76,0,0,1,53.63,29.07Z"/></g></g></svg>