<svg xmlns="http://www.w3.org/2000/svg" viewBox="0 0 69.5 69.49"><defs><style>.cls-1{fill:#455a64;}</style></defs><title>CircleEx</title><g id="Layer_2" data-name="Layer 2"><g id="Layer_8" data-name="Layer 8"><path class="cls-1" d="M59.34,10.16a34.74,34.74,0,1,0,0,49.16A34.8,34.8,0,0,0,59.34,10.16Zm-2.12,47a31.75,31.75,0,1,1,0-44.92A31.8,31.8,0,0,1,57.22,57.2Z"/><path class="cls-1" d="M52.28,23.66a6.26,6.26,0,0,0-1.84-4.45l-.34-.34a6.31,6.31,0,0,0-8.91,0L35,25l-6.17-6.17a6.31,6.31,0,0,0-8.91,0l-.34.34a6.3,6.3,0,0,0,0,8.91l6.17,6.17L19.6,40.45a6.3,6.3,0,0,0,0,8.91l.34.34a6.31,6.31,0,0,0,8.91,0L35,43.53l6.17,6.17a6.31,6.31,0,0,0,8.91,0l.34-.34a6.3,6.3,0,0,0,0-8.91l-6.17-6.17,6.17-6.17A6.26,6.26,0,0,0,52.28,23.66Zm-4,2.33L40,34.28l8.29,8.29a3.3,3.3,0,0,1,0,4.67l-.34.34a3.31,3.31,0,0,1-4.67,0L35,39.29l-8.29,8.29a3.31,3.31,0,0,1-4.67,0l-.34-.34a3.3,3.3,0,0,1,0-4.67L30,34.28,21.72,26a3.3,3.3,0,0,1,0-4.67l.34-.34a3.3,3.3,0,0,1,4.67,0L35,29.28,43.3,21A3.3,3.3,0,0,1,48,21l.34.34a3.3,3.3,0,0,1,0,4.66Z"/></g></g></svg>