<svg xmlns="http://www.w3.org/2000/svg" viewBox="0 0 66.25 66.25"><defs><style>.cls-1{fill:#455a64;}</style></defs><title>Clock</title><g id="Layer_2" data-name="Layer 2"><g id="Layer_8" data-name="Layer 8"><path class="cls-1" d="M33.12,0A33.12,33.12,0,1,0,66.25,33.12,33.16,33.16,0,0,0,33.12,0Zm0,63.25A30.12,30.12,0,1,1,63.25,33.12,30.16,30.16,0,0,1,33.12,63.25Z"/><path class="cls-1" d="M57.74,22.74a26.77,26.77,0,1,0,2.1,10.39A26.67,26.67,0,0,0,57.74,22.74ZM55,42.35A23.81,23.81,0,0,1,42.34,55,23.77,23.77,0,0,1,23.9,55,23.81,23.81,0,0,1,11.27,42.36a23.77,23.77,0,0,1,0-18.44A23.81,23.81,0,0,1,23.9,11.28a23.77,23.77,0,0,1,18.44,0A23.81,23.81,0,0,1,55,23.91a23.77,23.77,0,0,1,0,18.44Z"/><path class="cls-1" d="M48.93,38.83,38.34,34.23a5.44,5.44,0,0,0-3.94-6.59L34.5,14.2A1.5,1.5,0,0,0,33,12.69h0a1.5,1.5,0,0,0-1.5,1.49l-.1,13.53a5.48,5.48,0,1,0,5.45,9.15l10.89,4.74a1.5,1.5,0,1,0,1.2-2.75ZM33,35.41a2.48,2.48,0,1,1,2.48-2.48A2.48,2.48,0,0,1,33,35.41Z"/></g></g></svg>