<svg xmlns="http://www.w3.org/2000/svg" viewBox="0 0 65.8 65.8"><defs><style>.cls-1{fill:#455a64;}</style></defs><title>Coin</title><g id="Layer_2" data-name="Layer 2"><g id="Layer_8" data-name="Layer 8"><path class="cls-1" d="M32.9,6.79A26.11,26.11,0,1,0,59,32.9,26.14,26.14,0,0,0,32.9,6.79ZM32.9,56A23.11,23.11,0,1,1,56,32.9,23.14,23.14,0,0,1,32.9,56Z"/><path class="cls-1" d="M32.9,0A32.9,32.9,0,1,0,65.8,32.9,32.94,32.94,0,0,0,32.9,0Zm0,62.8A29.9,29.9,0,1,1,62.8,32.9,29.93,29.93,0,0,1,32.9,62.8Z"/><path class="cls-1" d="M34.11,30.47,33,29.9a1.48,1.48,0,0,0-.32-.12l-.21-.11c-2.79-1.39-4-2.1-4-4.33,0-.86,0-2.88,4.37-2.88,3.27,0,3.62,1.55,3.65,1.76a1.5,1.5,0,0,0,3-.25c-.1-1.38-1.32-3.85-5.07-4.39V16.21a1.5,1.5,0,0,0-3,0v3.33c-5.32.55-5.94,4.17-5.94,5.8,0,4.19,2.89,5.63,5.69,7l1,.5a1.48,1.48,0,0,0,.33.12l.35.18c3.29,1.63,4.74,2.47,4.74,5.16,0,1,0,3.52-5.23,3.52-4,0-4.37-2-4.4-2.21a1.5,1.5,0,0,0-3,.25c.12,1.62,1.64,4.58,6.46,4.93v2.26a1.5,1.5,0,0,0,3,0V44.69c5.5-.77,6.16-4.61,6.16-6.37C40.51,33.65,37.25,32,34.11,30.47Z"/></g></g></svg>