<svg xmlns="http://www.w3.org/2000/svg" viewBox="0 0 65.63 56.47"><defs><style>.cls-1{fill:#455a64;}</style></defs><title>Computer</title><g id="Layer_2" data-name="Layer 2"><g id="Layer_8" data-name="Layer 8"><path class="cls-1" d="M62.84,0H2.79A2.79,2.79,0,0,0,0,2.79V43.68a2.79,2.79,0,0,0,2.79,2.79h21v7H17.5a1.5,1.5,0,1,0,0,3H49.27a1.5,1.5,0,0,0,0-3H43.4v-7H62.84a2.79,2.79,0,0,0,2.79-2.79V2.79A2.79,2.79,0,0,0,62.84,0ZM40.4,53.33H26.83V46.47H40.4Zm22.23-9.86H42.19a1.5,1.5,0,0,0-.29,0H25.33a1.5,1.5,0,0,0-.29,0H3V3H62.63Z"/><path class="cls-1" d="M30,40.54h6.65a1.5,1.5,0,0,0,0-3H30a1.5,1.5,0,0,0,0,3Z"/><path class="cls-1" d="M33.09,26.09,36.56,24l2.89,4.7a1.05,1.05,0,0,0,1.44.35l1.93-1.17a1.05,1.05,0,0,0,.35-1.45L40.3,21.7l3.76-2.09a1.05,1.05,0,0,0,0-1.84l-11-6a1.05,1.05,0,0,0-1.56.93l0,12.53A1.05,1.05,0,0,0,33.09,26.09Z"/></g></g></svg>