<svg xmlns="http://www.w3.org/2000/svg" viewBox="0 0 44.89 66.65"><defs><style>.cls-1{fill:#455a64;}</style></defs><title>Compass</title><g id="Layer_2" data-name="Layer 2"><g id="Layer_8" data-name="Layer 8"><path class="cls-1" d="M44.89,39.93a1.5,1.5,0,0,0-1.5-1.5H36.5l-.27,0L28.4,20.22a7.6,7.6,0,0,0-4.5-12V1.5a1.5,1.5,0,0,0-3,0V8.19a7.6,7.6,0,0,0-4.8,11.91L8.22,38.43H1.5a1.5,1.5,0,0,0,0,3H6.93L.72,55.89a1.5,1.5,0,0,0,.84,2L4.35,59,2,64.58a1.5,1.5,0,0,0,2.77,1.14l2.9-7h0l7.41-17.25h5.64V43a1.5,1.5,0,0,0,3,0V41.43h5.55L36.7,58.61h0l2.9,7a1.5,1.5,0,0,0,2.77-1.14l-2.32-5.62,2.79-1.08a1.5,1.5,0,0,0,.84-2L37.51,41.43h5.89A1.5,1.5,0,0,0,44.89,39.93ZM22.29,11.05a4.61,4.61,0,0,1,2.09,8.72l-.9.35a4.56,4.56,0,0,1-1.19.17,4.62,4.62,0,1,1,0-9.25ZM18.36,22.42l1.43.55L5.51,56.19l-1.43-.55Zm5.4,16V37.3a1.5,1.5,0,0,0-3,0v1.13H16.41L22.22,24.9,28,38.43ZM38.89,56.12,24.63,22.92a7.56,7.56,0,0,0,1.09-.45l.32-.13L40.32,55.57Z"/></g></g></svg>