<svg xmlns="http://www.w3.org/2000/svg" viewBox="0 0 64.08 64.83"><defs><style>.cls-1{fill:#455a64;}</style></defs><title>Consolidate</title><g id="Layer_2" data-name="Layer 2"><g id="Layer_8" data-name="Layer 8"><path class="cls-1" d="M33.8,27.47l-1-.52a1.5,1.5,0,0,0-.31-.12l-.18-.09c-2.57-1.28-3.61-1.87-3.61-3.84,0-.75,0-2.5,3.86-2.5,2.86,0,3.18,1.31,3.21,1.5a1.5,1.5,0,0,0,3-.26c-.09-1.29-1.21-3.58-4.63-4.12v-3a1.5,1.5,0,1,0-3,0v2.92c-4.85.55-5.42,3.9-5.42,5.41,0,3.91,2.68,5.24,5.27,6.53l.9.45a1.49,1.49,0,0,0,.31.11l.32.16c3,1.47,4.26,2.22,4.26,4.6,0,.92,0,3.08-4.64,3.08-3.5,0-3.86-1.68-3.89-1.91a1.5,1.5,0,0,0-3,.25c.11,1.5,1.5,4.25,5.9,4.61v1.94a1.5,1.5,0,0,0,3,0V40.69c5-.75,5.63-4.3,5.63-5.93C39.72,30.42,36.71,28.92,33.8,27.47Z"/><path class="cls-1" d="M63.86,20a2.6,2.6,0,0,0-2.38-1.65l-.24,0c-3.58.59-8.86,1.4-11.5,1.7C49.4,15.38,48.11,3.8,48,2.66A2.67,2.67,0,0,0,45.4,0H18.69A2.67,2.67,0,0,0,16.1,2.66C16,3.8,14.69,15.37,14.35,20c-2.64-.3-7.92-1.12-11.5-1.7l-.24,0A2.61,2.61,0,0,0,.23,20a2.85,2.85,0,0,0,.31,2.79L30,63.74A2.55,2.55,0,0,0,32,64.83a2.51,2.51,0,0,0,2.06-1.08l29.43-41A2.86,2.86,0,0,0,63.86,20ZM32,61.46l-28.75-40c2.86.46,10.77,1.71,12.47,1.71a1.5,1.5,0,0,0,1.5-1.5c0-1.89,1.31-14,1.82-18.66H45c.52,4.63,1.82,16.78,1.82,18.66a1.5,1.5,0,0,0,1.5,1.5c1.7,0,9.57-1.24,12.45-1.71Z"/></g></g></svg>