<svg xmlns="http://www.w3.org/2000/svg" viewBox="0 0 66.98 55.99"><defs><style>.cls-1{fill:#455a64;}</style></defs><title>CreditCards</title><g id="Layer_2" data-name="Layer 2"><g id="Layer_8" data-name="Layer 8"><path class="cls-1" d="M62.2,6.09,16,0A5.51,5.51,0,0,0,9.85,4.8L8.38,16.61H5.5A5.51,5.51,0,0,0,0,22.11V50.49A5.51,5.51,0,0,0,5.5,56H52.07a5.51,5.51,0,0,0,5.5-5.5V45.17l.24,0a5.51,5.51,0,0,0,5.45-4.79L66.45,16s0-.07,0-.1a1.49,1.49,0,0,0,0-.2l.44-3.39A5.51,5.51,0,0,0,62.2,6.09ZM13.79,3.52A2.5,2.5,0,0,1,15.63,3l46.17,6A2.5,2.5,0,0,1,64,11.87L63.69,14,12.56,7.34l.27-2.17A2.48,2.48,0,0,1,13.79,3.52Zm40.78,47a2.5,2.5,0,0,1-2.5,2.5H5.5A2.5,2.5,0,0,1,3,50.49V22.11a2.5,2.5,0,0,1,2.5-2.5H52.07a2.5,2.5,0,0,1,2.5,2.5ZM60.28,40a2.5,2.5,0,0,1-2.71,2.16V22.11a5.51,5.51,0,0,0-5.5-5.5H11.4l.79-6.29L63.3,16.94Z"/><path class="cls-1" d="M9.5,36H22a1.5,1.5,0,0,0,1.5-1.5v-8A1.5,1.5,0,0,0,22,25H9.5A1.5,1.5,0,0,0,8,26.49v8A1.5,1.5,0,0,0,9.5,36ZM11,28h9.5v5H11Z"/><path class="cls-1" d="M23,44H9a1.5,1.5,0,0,0,0,3H23a1.5,1.5,0,0,0,0-3Z"/></g></g></svg>