<svg xmlns="http://www.w3.org/2000/svg" viewBox="0 0 68.17 55.09"><defs><style>.cls-1{fill:#455a64;}</style></defs><title>CreditRepair</title><g id="Layer_2" data-name="Layer 2"><g id="Layer_8" data-name="Layer 8"><path class="cls-1" d="M68.05,19.65l-1.79-4.36c-2.93-7.14-7.64-10.76-14-10.76V3.22A3.23,3.23,0,0,0,49,0H44.6a3.23,3.23,0,0,0-3.22,3.22V4.74a1.46,1.46,0,0,0-.74,1.18H36.89A3.22,3.22,0,0,0,34,4.1H32.27a3.23,3.23,0,0,0-3.22,3.22V9.16H5.5A5.51,5.51,0,0,0,0,14.66V43a5.51,5.51,0,0,0,5.5,5.5H41.34v3.34a3.23,3.23,0,0,0,3.22,3.22H49a3.22,3.22,0,0,0,3.22-3.22V19.47A1.49,1.49,0,0,0,53,18.2V15.67c4.57.17,7.51,1.3,12.75,5.7a1.5,1.5,0,0,0,2.35-1.72ZM44.37,3.22A.22.22,0,0,1,44.6,3H49a.22.22,0,0,1,.22.22V4.45h-4.9ZM32.05,7.32a.22.22,0,0,1,.22-.22H34a.22.22,0,0,1,.15.06,1.5,1.5,0,0,0,0,.27v7.48a1.49,1.49,0,0,0,0,.35.22.22,0,0,1-.17.08H32.27a.22.22,0,0,1-.22-.22ZM5.5,45.53A2.5,2.5,0,0,1,3,43V14.66a2.5,2.5,0,0,1,2.5-2.5H29.05v3a3.23,3.23,0,0,0,3.22,3.22H34a3.23,3.23,0,0,0,2.95-1.93h3.68V18.2a1.49,1.49,0,0,0,.71,1.27V45.53Zm43.73,6.34a.22.22,0,0,1-.06.16.22.22,0,0,1-.16.07H44.56a.22.22,0,0,1-.22-.22V19.8h4.9Zm2.24-39.23h0a1.5,1.5,0,0,0-1.5,1.5V16.7H43.63V14.91a1.5,1.5,0,0,0-1.5-1.5H37.22V8.93h4.91a1.5,1.5,0,0,0,1.5-1.4h8.63c4.9,0,8.49,2.69,10.94,8.22C59.12,13.15,56,12.64,51.47,12.64Z"/><path class="cls-1" d="M9.5,28.53H22A1.5,1.5,0,0,0,23.5,27V19a1.5,1.5,0,0,0-1.5-1.5H9.5A1.5,1.5,0,0,0,8,19v8A1.5,1.5,0,0,0,9.5,28.53Zm1.5-8h9.5v5H11Z"/><path class="cls-1" d="M23,36.53H9a1.5,1.5,0,0,0,0,3H23a1.5,1.5,0,0,0,0-3Z"/></g></g></svg>