<svg xmlns="http://www.w3.org/2000/svg" viewBox="0 0 60.82 55.01"><defs><style>.cls-1{fill:#455a64;}</style></defs><title>CreditScore</title><g id="Layer_2" data-name="Layer 2"><g id="Layer_8" data-name="Layer 8"><path class="cls-1" d="M1.4,30h.1A1.5,1.5,0,0,0,3,28.6,27.46,27.46,0,0,1,13.94,8.48a1.5,1.5,0,1,0-1.8-2.4A30.45,30.45,0,0,0,0,28.4,1.5,1.5,0,0,0,1.4,30Z"/><path class="cls-1" d="M13.45,52.11a27.32,27.32,0,0,1-10.28-18,1.5,1.5,0,1,0-3,.39,30.3,30.3,0,0,0,11.4,20,1.5,1.5,0,1,0,1.85-2.36Z"/><path class="cls-1" d="M59.36,32.84a1.5,1.5,0,0,0-1.68,1.29A27.29,27.29,0,0,1,47.13,52.32,1.5,1.5,0,0,0,49,54.7,30.28,30.28,0,0,0,60.65,34.53,1.5,1.5,0,0,0,59.36,32.84Z"/><path class="cls-1" d="M46.6,8.26a27.45,27.45,0,0,1,11.22,20,1.5,1.5,0,0,0,1.49,1.38h.12A1.5,1.5,0,0,0,60.81,28,30.45,30.45,0,0,0,48.37,5.84,1.5,1.5,0,0,0,46.6,8.26Z"/><path class="cls-1" d="M18.4,5.6A1.5,1.5,0,0,0,19,5.47a27.57,27.57,0,0,1,22.35-.19,1.5,1.5,0,0,0,1.2-2.75,30.58,30.58,0,0,0-24.8.22A1.5,1.5,0,0,0,18.4,5.6Z"/><path class="cls-1" d="M47.36,21.19a1.5,1.5,0,1,0-2-2.22L34.53,28.81a7.54,7.54,0,1,0,2.28,2ZM30.85,39.83a4.5,4.5,0,1,1,4.5-4.5A4.5,4.5,0,0,1,30.85,39.83Z"/><path class="cls-1" d="M33,9.12a1.5,1.5,0,0,0-1.5-1.5,24,24,0,0,0-24,24,1.5,1.5,0,1,0,3,0,21,21,0,0,1,21-21A1.5,1.5,0,0,0,33,9.12Z"/></g></g></svg>