<svg xmlns="http://www.w3.org/2000/svg" viewBox="0 0 55.1 66.72"><defs><style>.cls-1{fill:#455a64;}</style></defs><title>Debt</title><g id="Layer_2" data-name="Layer 2"><g id="Layer_8" data-name="Layer 8"><path class="cls-1" d="M21.74,19.84a1.5,1.5,0,0,0,1.42-1.58c0-.26,0-.52,0-.78A14.48,14.48,0,1,1,46.42,29a1.5,1.5,0,0,0,1.83,2.38A17.48,17.48,0,1,0,20.13,17.48q0,.47,0,.94A1.5,1.5,0,0,0,21.74,19.84Z"/><path class="cls-1" d="M41,12.47l2.78,1.12a3.47,3.47,0,0,0-1.24-3.87l.58-1.18a1.5,1.5,0,1,0-2.7-1.32l-.56,1.15a4.35,4.35,0,0,0-2.35-.05,3.66,3.66,0,0,0-2.27,2c-1.2,2.46.13,4.19,1.2,5.59l.37.48a1.46,1.46,0,0,0,.14.15l.13.18c1.25,1.62,1.49,2.09,1,3-.25.51-.51.59-.61.62a2.87,2.87,0,0,1-2-.44c-1.16-.57-1.37-1.14-1.31-1.39a.34.34,0,0,1,0,.08L31.4,17.48c-.38,1-.41,3,1.78,4.52l-.29.59a1.5,1.5,0,1,0,2.7,1.31l.33-.68a5.45,5.45,0,0,0,1.25.16,4.13,4.13,0,0,0,1.16-.16A4,4,0,0,0,40.79,21c1.32-2.7-.1-4.54-1.35-6.17L39,14.32a1.48,1.48,0,0,0-.16-.17l-.06-.07c-1.12-1.45-1.22-1.75-.88-2.44.18-.37.35-.42.41-.44a2.37,2.37,0,0,1,1.57.37c.89.43,1.07.84,1,1A.31.31,0,0,1,41,12.47Z"/><path class="cls-1" d="M51.24,56.22l-.08,0-.08,0-7.52-3.7-4.17-8.66-.07-.14-.08-.13A5.46,5.46,0,0,0,37.56,42l-.25-.18-2.49-2.36,7.83,3a4.13,4.13,0,0,0,1.54.3A4,4,0,0,0,45.68,35l-29-12.73s0,0,0,0a8.34,8.34,0,1,0-5.13,7.69L24.66,43.38l-7.77,1.18a5.48,5.48,0,0,0-4.6,4.64L10.65,60.42a5.5,5.5,0,0,0,5.44,6.3A5.53,5.53,0,0,0,21.54,62l1-7.53,9.58-1.67,4.26,6.07c.46.73.9,1.12,10.06,6.23a5.85,5.85,0,0,0,2.78.74,4.65,4.65,0,0,0,4.22-2.6,4.86,4.86,0,0,0,.3-4.24A5.72,5.72,0,0,0,51.24,56.22ZM8.33,27.57a5.33,5.33,0,1,1,5.33-5.33A5.34,5.34,0,0,1,8.33,27.57ZM50.85,61.83a1.69,1.69,0,0,1-1.58,1A2.88,2.88,0,0,1,48,62.5s-8.8-4.91-9-5.27l-5.41-7.7L19.91,51.9l-1.35,9.68a2.5,2.5,0,0,1-2.47,2.14l-.36,0a2.5,2.5,0,0,1-2.11-2.83l1.64-11.22a2.5,2.5,0,0,1,2.08-2.11l13.55-2.06L14.08,28.26a8.35,8.35,0,0,0,2-2.95L44.5,37.77a1,1,0,0,1-.31,1.95,1.15,1.15,0,0,1-.44-.09L21.81,31.22,35.34,44c.15.14,1.23.85,1.34,1l4.62,9.59,8.45,4.16C51,59.51,51.53,60.63,50.85,61.83Z"/></g></g></svg>