<svg xmlns="http://www.w3.org/2000/svg" viewBox="0 0 59.87 67.86"><defs><style>.cls-1{fill:#455a64;}</style></defs><title>DebtRelief</title><g id="Layer_2" data-name="Layer 2"><g id="Layer_8" data-name="Layer 8"><path class="cls-1" d="M57.68,10.38,32.93.3A3.93,3.93,0,0,0,30,.25a3.6,3.6,0,0,0-2.08,2L21.23,18.8a3.25,3.25,0,0,0,.07,2.62,3.52,3.52,0,0,0,1.88,1.78L48.29,33.43a3.57,3.57,0,0,0,1.35.27,3.35,3.35,0,0,0,3.13-2l6.87-16.87A3.41,3.41,0,0,0,57.68,10.38Zm-26.94-7a.63.63,0,0,1,.37-.34.94.94,0,0,1,.69,0L56.55,13.16a.43.43,0,0,1,.31.49l-1.61,4L29.27,7ZM50,30.52a.43.43,0,0,1-.56.14L24.31,20.43a.53.53,0,0,1-.29-.27.29.29,0,0,1,0-.23L28.13,9.8l26,10.58Z"/><path class="cls-1" d="M51.24,57.36l-.08,0-.08,0-7.52-3.7-4.17-8.66-.07-.14-.08-.13a5.46,5.46,0,0,0-1.68-1.54l-.25-.18-2.49-2.36,7.83,3a4.13,4.13,0,0,0,1.54.3,4,4,0,0,0,1.49-7.7l-29-12.73s0,0,0,0a8.34,8.34,0,1,0-5.13,7.69L24.66,44.53l-7.77,1.18a5.48,5.48,0,0,0-4.6,4.64L10.65,61.57a5.5,5.5,0,0,0,5.45,6.3,5.53,5.53,0,0,0,5.44-4.71l1-7.53L32.17,54,36.43,60c.46.73.9,1.12,10.06,6.23a5.85,5.85,0,0,0,2.78.74,4.65,4.65,0,0,0,4.22-2.6,4.86,4.86,0,0,0,.3-4.24A5.72,5.72,0,0,0,51.24,57.36ZM8.33,28.72a5.33,5.33,0,1,1,5.33-5.33A5.34,5.34,0,0,1,8.33,28.72ZM50.85,63a1.69,1.69,0,0,1-1.58,1A2.89,2.89,0,0,1,48,63.64s-8.8-4.91-9-5.27l-5.41-7.7L19.91,53l-1.35,9.68a2.5,2.5,0,0,1-2.47,2.14l-.36,0A2.5,2.5,0,0,1,13.62,62l1.64-11.22a2.5,2.5,0,0,1,2.08-2.11l13.55-2.06L14.08,29.4a8.35,8.35,0,0,0,2-2.95L44.5,38.92a1,1,0,0,1-.31,1.95,1.15,1.15,0,0,1-.44-.09L21.81,32.37,35.34,45.19c.15.14,1.23.85,1.34,1l4.62,9.59L49.75,60C51,60.65,51.53,61.78,50.85,63Z"/></g></g></svg>