<svg xmlns="http://www.w3.org/2000/svg" viewBox="0 0 63.67 45.28"><defs><style>.cls-1{fill:#455a64;}</style></defs><title>Diploma</title><g id="Layer_2" data-name="Layer 2"><g id="Layer_8" data-name="Layer 8"><path class="cls-1" d="M63.33,20.07,60,15.95l.14-.39C61,13,62.44,9.07,60,5.17,57.22.64,51.28-.81,47.16.42h0L47,.45,7.74,11.11C3.38,11.43,0,16.12,0,21.94c0,3.38,1.09,8.39,4.15,11.41a9.8,9.8,0,0,0,7.14,2.81h.21a1.52,1.52,0,0,0,.37-.05L29.6,31.33v.25a2.61,2.61,0,0,0,.71,1.89,2.47,2.47,0,0,0,1.77.75h.26v9.56a1.5,1.5,0,0,0,2.6,1l4.22-4.52,4.15,2.33a1.5,1.5,0,0,0,2.23-1.31V30.69L46.74,30a3.29,3.29,0,0,0,1.68-3.24l-.05-.49,14.19-3.82a1.5,1.5,0,0,0,.77-2.4ZM57.48,6.75c1.65,2.67.63,5.51-.19,7.8l-.06.16-9,2.3a2.61,2.61,0,0,0-.66-1.73,2.53,2.53,0,0,0-1.95-.79l-1.31.05-.52-.94a2.42,2.42,0,0,0-1.65-1.22,2.9,2.9,0,0,0-2.34.58l-.14.11a14.12,14.12,0,0,0-3.3-6.64l11.4-3.1h0l.22,0C51,2.41,55.45,3.48,57.48,6.75Zm-42.91,8a8.11,8.11,0,0,0-1.63-2L26.39,9.16c.75.32,4.42,2.21,5,9a3.33,3.33,0,0,0-2,3.1l0,.73L15.45,25.44A13.2,13.2,0,0,0,14.57,14.77Zm19.59.54-.14.27a13.28,13.28,0,0,0-3.86-7.44l2.76-.75c.77.49,2.84,2.17,3.8,6.21A3.23,3.23,0,0,0,34.15,15.31ZM11.27,33.15a6.81,6.81,0,0,1-5-1.94C3.69,28.68,3,24.19,3,21.94c0-4.23,2.28-7.76,5.09-7.85A4.16,4.16,0,0,1,12,16.31a10.09,10.09,0,0,1,.23,9,2.08,2.08,0,0,1-1.74,1.26h0a.84.84,0,0,1-.71-.32c-.77-.93-.76-3.5-.51-5a1.5,1.5,0,0,0-3-.5c-.09.51-.79,5.08,1.15,7.43a3.83,3.83,0,0,0,3,1.41,4.5,4.5,0,0,0,.93-.08h.09a1.5,1.5,0,0,0,.37,0L28,25.38a2.77,2.77,0,0,0,.44,3l.11.12ZM39.6,37.09a1.5,1.5,0,0,0-1.83.29L35.34,40V36a2.54,2.54,0,0,0,.87.17,3,3,0,0,0,1.76-.6l1.21-.88L40.4,35a2.85,2.85,0,0,0,2.14-.46v4.24Zm5.64-11.36.2,1.44a.38.38,0,0,1-.17.23l-1.88,1.05A3.4,3.4,0,0,0,42,29.85l-1,2a.42.42,0,0,1-.12.14l-1.22-.25a2.89,2.89,0,0,0-2.28.54l-1.05.77-.71-.9a2.47,2.47,0,0,0-1.92-.93h-1.1l0-1.66A2.62,2.62,0,0,0,32,27.69l-1.13-1.2v0l1.06-1.59A3.19,3.19,0,0,0,32.45,23l-.09-1.87a.38.38,0,0,1,.18-.23l1.27-.42a3.32,3.32,0,0,0,1.85-1.59l1.14-2.12a.4.4,0,0,1,.1-.12l.85.27a2.85,2.85,0,0,0,2.59-.52l1.1-.84.42.77a2.5,2.5,0,0,0,2.3,1.27l1,0-.14,1.17a2.69,2.69,0,0,0,.62,2.11l1,1.16h0l-1,1.77A3.12,3.12,0,0,0,45.24,25.72Zm4.32-2.87a2.76,2.76,0,0,0-.47-2.73l-.17-.19,8.63-2.21,2,2.45Z"/><path class="cls-1" d="M41.73,18.75a5,5,0,0,0-3.26-.23,6.74,6.74,0,0,0-3,1.71,7.55,7.55,0,0,0-1.78,2.63,6.54,6.54,0,0,0-.48,2.43A5.43,5.43,0,0,0,33.47,27a4.56,4.56,0,0,0,2.22,2.61,4.69,4.69,0,0,0,2.17.52A5.56,5.56,0,0,0,39.2,30a6.74,6.74,0,0,0,3-1.7,7.46,7.46,0,0,0,2-3.13,6.46,6.46,0,0,0,.31-1.94h0A5.27,5.27,0,0,0,44,21,4.52,4.52,0,0,0,41.73,18.75Zm-.42,5.52a4.5,4.5,0,0,1-1.17,1.86,3.75,3.75,0,0,1-1.66,1,2,2,0,0,1-1.41-.1,1.55,1.55,0,0,1-.75-.91,2.45,2.45,0,0,1-.12-.79A3.54,3.54,0,0,1,36.46,24a4.5,4.5,0,0,1,1.07-1.58,3.74,3.74,0,0,1,1.67-1,2.53,2.53,0,0,1,.61-.08,1.78,1.78,0,0,1,.72.14,1.5,1.5,0,0,1,.76.77,2.32,2.32,0,0,1,.19,1A3.48,3.48,0,0,1,41.3,24.27Z"/></g></g></svg>