<svg xmlns="http://www.w3.org/2000/svg" viewBox="0 0 57.67 68"><defs><style>.cls-1{fill:#455a64;}</style></defs><title>DocumentCheck</title><g id="Layer_2" data-name="Layer 2"><g id="Layer_8" data-name="Layer 8"><path class="cls-1" d="M10.11,17.92H28.87a1.5,1.5,0,1,0,0-3H10.11a1.5,1.5,0,0,0,0,3Z"/><path class="cls-1" d="M10.11,25.3h28a1.5,1.5,0,0,0,0-3h-28a1.5,1.5,0,0,0,0,3Z"/><path class="cls-1" d="M10.11,32.68h28a1.5,1.5,0,1,0,0-3h-28a1.5,1.5,0,0,0,0,3Z"/><path class="cls-1" d="M48.52,37.7V16.8A1.49,1.49,0,0,0,48,15.67L37,.62l0,0a1.5,1.5,0,0,0-.28-.28l0,0a1.49,1.49,0,0,0-.37-.19l-.07,0A1.48,1.48,0,0,0,35.79,0H4.29A4.3,4.3,0,0,0,0,4.29V58.37a4.3,4.3,0,0,0,4.29,4.29H29.9a15.9,15.9,0,1,0,18.62-25ZM37.29,6.1l6.77,9.28H38.63A1.33,1.33,0,0,1,37.29,14ZM10.11,47.44H26.53a15.88,15.88,0,0,0,1.23,12.22H4.29A1.3,1.3,0,0,1,3,58.37V4.29A1.3,1.3,0,0,1,4.29,3h30V14a4.34,4.34,0,0,0,4.33,4.33h6.89V36.64a15.51,15.51,0,0,0-9.09.46,1.5,1.5,0,0,0-.33,0h-26a1.5,1.5,0,0,0,0,3H31.35a16,16,0,0,0-3.56,4.38H10.11a1.5,1.5,0,0,0,0,3ZM41.75,65A12.92,12.92,0,1,1,54.67,52.08,12.93,12.93,0,0,1,41.75,65Z"/><path class="cls-1" d="M50.56,47.39a1.5,1.5,0,0,0-2.12,0L40.86,55l-4.21-4.21a1.5,1.5,0,0,0-2.12,2.12l5.27,5.27a1.5,1.5,0,0,0,2.12,0l8.64-8.64A1.5,1.5,0,0,0,50.56,47.39Z"/></g></g></svg>