<svg xmlns="http://www.w3.org/2000/svg" viewBox="0 0 52.04 66.51"><defs><style>.cls-1{fill:#455a64;}</style></defs><title>DogTag</title><g id="Layer_2" data-name="Layer 2"><g id="Layer_8" data-name="Layer 8"><path class="cls-1" d="M51.88,25.76c-3.09-6.27-8.79-10.52-11.09-12.06l-.05,0a30.83,30.83,0,0,0-7.43-3.1V1.5a1.5,1.5,0,0,0-3,0V9.85l-.39-.07a29.16,29.16,0,0,0-9.4.14,1.5,1.5,0,0,0-1.08.8L.16,48.87a1.5,1.5,0,0,0,0,1.34,29.42,29.42,0,0,0,26.29,16.3,28.9,28.9,0,0,0,5.08-.45,1.5,1.5,0,0,0,1.08-.8L34,62.52a1.51,1.51,0,0,0,.43,0A29.18,29.18,0,0,0,49.1,56.85l.07-.06a1.49,1.49,0,0,0,.54-1.07s0-.06,0-.1V31.45s0,0,0-.05l2.17-4.3A1.5,1.5,0,0,0,51.88,25.76ZM46.71,54.88a26.17,26.17,0,0,1-11.13,4.49l11.13-22ZM30.27,63.23A26.39,26.39,0,0,1,3.18,49.54l18.59-36.8a26.08,26.08,0,0,1,7.67,0l.86.17v5.2a5.68,5.68,0,1,0,3,0V13.7a26.73,26.73,0,0,1,5.85,2.52,30.7,30.7,0,0,1,9.7,10.22Zm1.54-38.14a1.5,1.5,0,0,0,1.5-1.5V21.36a2.68,2.68,0,1,1-3,0v2.22A1.5,1.5,0,0,0,31.81,25.09Z"/><path class="cls-1" d="M32.81,44.35l-4-2.83,0-4.93h0a2.12,2.12,0,0,0-3.4-1.71l-3.94,3-4.67-1.56A2.12,2.12,0,0,0,14.14,39l1.6,4.66-2.93,4A2.12,2.12,0,0,0,14.51,51h0l4.93-.08,2.86,4a2.1,2.1,0,0,0,1.72.89l.35,0a2.11,2.11,0,0,0,1.69-1.47l1.44-4.71,4.7-1.48a2.12,2.12,0,0,0,.58-3.76Zm-6.62,2.52a2.13,2.13,0,0,0-1.39,1.4l-1.06,3.45-2.1-2.94a2.12,2.12,0,0,0-1.73-.89h0L16.28,48l2.15-2.9a2.13,2.13,0,0,0,.3-1.95L17.55,39.7,21,40.84a2.12,2.12,0,0,0,2-.32l2.88-2.17,0,3.61a2.12,2.12,0,0,0,.9,1.76l3,2.07Z"/></g></g></svg>