<svg xmlns="http://www.w3.org/2000/svg" viewBox="0 0 32.79 67.78"><defs><style>.cls-1{fill:#455a64;}</style></defs><title>DollarSign</title><g id="Layer_2" data-name="Layer 2"><g id="Layer_8" data-name="Layer 8"><path class="cls-1" d="M32.79,47c0-9-6.5-12-14-15.38l-2.71-1.24a1.49,1.49,0,0,0-.49-.13l-.74-.34c-7-3.16-10.59-5.07-10.59-10.86,0-5.26,4.15-7.93,12.35-7.93,9.9,0,10.62,5.08,10.65,5.34a1.5,1.5,0,0,0,3-.26c0-.32-.74-7.49-12.19-8V1.5a1.5,1.5,0,0,0-3,0V8.17c-11.95.52-13.79,7-13.79,10.89,0,8,6,10.71,12.35,13.59l2.36,1.08a1.48,1.48,0,0,0,.48.13l1.1.51C24.65,37.6,29.79,39.93,29.79,47c0,6.18-4.84,9.31-14.37,9.31C3.84,56.32,3,50.29,3,50a1.5,1.5,0,0,0-3,.25c0,.37.88,8.91,15,9.06a1.47,1.47,0,0,0,0,.2v6.76a1.5,1.5,0,0,0,3,0V59.52a1.51,1.51,0,0,0,0-.28C24.43,58.79,32.79,56.4,32.79,47Z"/></g></g></svg>