<svg xmlns="http://www.w3.org/2000/svg" viewBox="0 0 65.54 46.79"><defs><style>.cls-1{fill:#455a64;}</style></defs><title>Dumbell</title><g id="Layer_2" data-name="Layer 2"><g id="Layer_8" data-name="Layer 8"><path class="cls-1" d="M60.21,5.34A5.26,5.26,0,0,0,57.75,6,6,6,0,0,0,45.65,6V17.54H19.88V6.08a6,6,0,0,0-12.09,0V7.25a5.26,5.26,0,0,0-2.46-.63A5.33,5.33,0,0,0,0,11.95V36a5.33,5.33,0,0,0,5.33,5.33,5.26,5.26,0,0,0,2.46-.63v.08a6,6,0,0,0,12.09,0V29.23H45.65V40.71a6,6,0,0,0,12.09,0V39.39a5.26,5.26,0,0,0,2.46.63,5.33,5.33,0,0,0,5.33-5.33v-24A5.33,5.33,0,0,0,60.21,5.34ZM7.65,36A2.33,2.33,0,1,1,3,36v-24a2.33,2.33,0,0,1,4.65,0Zm9.23,4.77a3,3,0,0,1-6.09,0V6.08a3,3,0,0,1,6.09,0Zm3-14.51v-5.7H45.65v5.7ZM54.75,40.71a3,3,0,0,1-6.09,0V6a3,3,0,1,1,6.09,0Zm7.79-6a2.33,2.33,0,0,1-4.65,0v-24a2.33,2.33,0,0,1,4.65,0Z"/></g></g></svg>