<svg xmlns="http://www.w3.org/2000/svg" viewBox="0 0 67.21 57.98"><defs><style>.cls-1{fill:#455a64;}</style></defs><title>Eagle</title><g id="Layer_2" data-name="Layer 2"><g id="Layer_8" data-name="Layer 8"><path class="cls-1" d="M67.12,2A1.5,1.5,0,0,0,64.79.32L45.26,15.47a1.5,1.5,0,0,0-.56,1.41c.58,3.76-1.51,5.2-2.79,5.73l-3.84-9.11a1.5,1.5,0,0,0-1.38-.92H31.3a6.64,6.64,0,0,0-6.64,6.89,1.5,1.5,0,0,0,1.5,1.5h.35l-.73,1.82c-1.1-.31-4-1.53-3.28-5.91a1.5,1.5,0,0,0-.56-1.41L2.42.32A1.5,1.5,0,0,0,.08,2a48.37,48.37,0,0,1,1.81,8.7,1.49,1.49,0,0,0,0,.33c.16,1.28.29,2.68.38,4.19.4,6.64,3.48,22.37,23,27.08a2.89,2.89,0,0,1-.38.9c-.69,1.06-2.75,2.75-8.85,3.2L8.35,40.15a1.5,1.5,0,0,0-1.88,2.34l5.4,4.34a1.49,1.49,0,0,0,.93,2.67c.81,0,1.57,0,2.32-.06L19.57,53a1.5,1.5,0,1,0,1.88-2.34L19.37,49c4-.68,6.73-2.09,8.1-4.2a5.84,5.84,0,0,0,.86-2.25h1.25l-3.74,7.88a1.49,1.49,0,0,0-.14.71c.11,2.36,2,6.82,8.18,6.82s8.21-4.42,8.43-6.75a1.5,1.5,0,0,0-.14-.79l-3.74-7.87h.46a5.84,5.84,0,0,0,.86,2.25c1.36,2.11,4.08,3.51,8.1,4.2l-2.08,1.67A1.5,1.5,0,1,0,47.64,53l4.45-3.58c.74,0,1.51.06,2.32.06a1.49,1.49,0,0,0,.93-2.67l5.4-4.34a1.5,1.5,0,1,0-1.88-2.34l-7.75,6.23c-6.05-.45-8.12-2.11-8.82-3.16a2.9,2.9,0,0,1-.4-.91l.06,0c19.47-4.73,22.54-20.43,22.94-27.06.09-1.51.23-2.91.38-4.19a1.5,1.5,0,0,0,0-.32A48.44,48.44,0,0,1,67.12,2ZM47.77,17.32,63.15,5.38c-.26,1.25-.53,2.76-.76,4.48L50.93,18.54a1.5,1.5,0,0,0-.58,1,15.79,15.79,0,0,1-1.78,5,8.68,8.68,0,0,1-6,4.58V25.58A7.58,7.58,0,0,0,47.77,17.32Zm-11,22.24a1.5,1.5,0,0,0-1.47-.11l-.18.11H32.9l-.18-.11a1.49,1.49,0,0,0-1.47.11H28.18V26.12H39.56v3.8a1.49,1.49,0,0,0,0,1.73V38.8a1.48,1.48,0,0,0-.31.44c0,.09-.08.21-.12.32Zm-5.45-24h4.4l3.17,7.53h-10L30.12,20A1.5,1.5,0,0,0,28.73,18h-.84A3.82,3.82,0,0,1,31.3,15.59ZM19.44,17.32a7.6,7.6,0,0,0,5.74,8.42V29.2c-7-.91-8.26-9.29-8.32-9.66a1.5,1.5,0,0,0-.58-1L4.81,9.86c-.23-1.72-.5-3.23-.76-4.48ZM5.31,15c0-.37,0-.72-.08-1.08L14,20.58c.78,4.15,3.93,10.94,11.19,11.64v6.94C8.34,34.66,5.66,20.89,5.31,15ZM39.25,51.3C39,52.3,38,55,33.87,55s-5-2.66-5.14-3.64l4.17-8.77h2.2ZM42.56,39V32.15c6.88-1,9.89-7.53,10.65-11.58L62,13.94c0,.36-.05.71-.08,1.08C61.55,20.83,58.92,34.36,42.56,39Z"/></g></g></svg>