<svg xmlns="http://www.w3.org/2000/svg" viewBox="0 0 65.68 64.89"><defs><style>.cls-1{fill:#455a64;}</style></defs><title>EnvelopeMoney</title><g id="Layer_2" data-name="Layer 2"><g id="Layer_8" data-name="Layer 8"><path class="cls-1" d="M63.48,19.48,58.77,16.1V5.36a1.5,1.5,0,0,0-1.5-1.5H41.72l-.08-.07L39.88,2.53a10.61,10.61,0,0,0-13.75,0L24.27,3.86H9.34a1.5,1.5,0,0,0-1.5,1.5V15.67l-5,3.62A3.62,3.62,0,0,0,0,22.81V61.27a3.62,3.62,0,0,0,3.62,3.62H62.06a3.62,3.62,0,0,0,3.62-3.62V22.81A3.62,3.62,0,0,0,63.48,19.48ZM3,24,23.6,41.57,3,59.8ZM28,41.69a7.57,7.57,0,0,1,10,0l22.82,20.2H5.17Zm14.68.12,20-17V59.51Zm18-20.67a1.49,1.49,0,0,0,.68.85l-2.54,2.17V19.79ZM36.52,3.86h-7A7.62,7.62,0,0,1,36.52,3.86Zm19.25,3v9.5a1.5,1.5,0,0,0,0,.9V26.7L40.41,39.79l-.4-.35a10.57,10.57,0,0,0-14,0l-.14.12-15-12.81V6.86ZM7.84,24.2l-3-2.59.09-.12,2.95-2.12Z"/><path class="cls-1" d="M31.42,32.15v1.37a1.5,1.5,0,1,0,3,0V32.06c4.15-.71,4.65-3.74,4.65-5.13,0-3.75-2.67-5.08-5-6.25l-.85-.43a1.5,1.5,0,0,0-.29-.11l-.12-.06c-2.11-1-2.84-1.48-2.84-2.94,0-.59,0-1.8,2.93-1.8,2.1,0,2.36.88,2.39,1a1.5,1.5,0,0,0,3-.27c-.08-1.11-1-3.06-3.82-3.6V10.24a1.5,1.5,0,0,0-3,0v2.19c-4,.55-4.48,3.4-4.48,4.7,0,3.39,2.39,4.58,4.5,5.63l.74.37a1.45,1.45,0,0,0,.25.09l.27.13c2.4,1.19,3.37,1.75,3.37,3.57,0,.68,0,2.29-3.58,2.29-2.63,0-2.93-1.18-3-1.35a1.5,1.5,0,0,0-3,.26C26.64,29.42,27.81,31.76,31.42,32.15Z"/><path class="cls-1" d="M15.83,23.07h5.9a1.5,1.5,0,0,0,0-3h-5.9a1.5,1.5,0,0,0,0,3Z"/><path class="cls-1" d="M17.57,14.94l3.93,2.54A1.5,1.5,0,0,0,23.13,15L19.2,12.42a1.5,1.5,0,1,0-1.63,2.52Z"/><path class="cls-1" d="M21.5,25.53l-3.93,2.54a1.5,1.5,0,0,0,1.63,2.52L23.13,28a1.5,1.5,0,0,0-1.63-2.52Z"/><path class="cls-1" d="M42.27,21.45a1.5,1.5,0,0,0,1.5,1.5h5.9a1.5,1.5,0,0,0,0-3h-5.9A1.5,1.5,0,0,0,42.27,21.45Z"/><path class="cls-1" d="M42.38,28l3.93,2.54a1.5,1.5,0,0,0,1.63-2.52L44,25.53A1.5,1.5,0,0,0,42.38,28Z"/><path class="cls-1" d="M43.19,17.72a1.49,1.49,0,0,0,.81-.24l3.93-2.54a1.5,1.5,0,0,0-1.63-2.52L42.38,15a1.5,1.5,0,0,0,.82,2.76Z"/></g></g></svg>