<svg xmlns="http://www.w3.org/2000/svg" viewBox="0 0 67.35 46.61"><defs><style>.cls-1{fill:#455a64;}</style></defs><title>Envelope</title><g id="Layer_2" data-name="Layer 2"><g id="Layer_8" data-name="Layer 8"><path class="cls-1" d="M65.85,0H1.5A1.5,1.5,0,0,0,0,1.5V45a1.5,1.5,0,0,0,1.32,1.48,1.85,1.85,0,0,0,.59.1H65.17a1.87,1.87,0,0,0,.56-.09h.13a1.5,1.5,0,0,0,1.5-1.5V1.5A1.5,1.5,0,0,0,65.85,0ZM3,5.86,20.42,23.28,3,41ZM36,29.75a3.42,3.42,0,0,1-4.83,0L4.56,3.28H62.42ZM4.7,43.53,22.54,25.4,29,31.87a6.41,6.41,0,0,0,9.07,0l6.73-6.73L62.43,43.53ZM46.93,23,64.35,5.59V41.19Z"/></g></g></svg>