<svg xmlns="http://www.w3.org/2000/svg" viewBox="0 0 57.98 68.45"><defs><style>.cls-1{fill:#455a64;}</style></defs><title>Family</title><g id="Layer_2" data-name="Layer 2"><g id="Layer_8" data-name="Layer 8"><path class="cls-1" d="M14.59,16.09a8,8,0,1,0-8-8A8.05,8.05,0,0,0,14.59,16.09ZM14.59,3a5,5,0,1,1-5,5A5.05,5.05,0,0,1,14.59,3Z"/><path class="cls-1" d="M42.08,18.71a8,8,0,1,0-8-8A8.05,8.05,0,0,0,42.08,18.71Zm0-13.09a5,5,0,1,1-5,5A5.05,5.05,0,0,1,42.08,5.62Z"/><path class="cls-1" d="M53.81,44.83h0a4.15,4.15,0,0,0,1.07-.14,4.12,4.12,0,0,0,2.91-5L53.36,23a6.27,6.27,0,0,0-6-4.64,1.5,1.5,0,0,0-1.06.44l-4.17,4.17L37.9,18.77a1.5,1.5,0,0,0-1.06-.44,6.27,6.27,0,0,0-6,4.64l-1,3.58a6.66,6.66,0,0,0-.66-.19V22.75A6.08,6.08,0,0,0,25,17l-3.39-1.17a1.5,1.5,0,0,0-1.55.36l-5.48,5.48L9.11,16.15a1.49,1.49,0,0,0-1.55-.36L4.18,17A6.09,6.09,0,0,0,0,22.75V38.15a6.74,6.74,0,0,0,5.24,6.56V67a1.5,1.5,0,0,0,1.5,1.5H32.92a1.5,1.5,0,0,0,1.5-1.5V60.6h2.24V67a1.5,1.5,0,0,0,1.5,1.5H46a1.5,1.5,0,0,0,1.5-1.5V60.6h8.57a1.5,1.5,0,0,0,1.45-1.89ZM27.68,36.65a3.74,3.74,0,1,1,2.14-6.79l.1.08a3.72,3.72,0,0,1-2.24,6.71Zm-19.44-9a1.5,1.5,0,0,0-3,0V41.57A3.74,3.74,0,0,1,3,38.15V22.75a3.1,3.1,0,0,1,2.14-3l2.51-.86,5.88,5.88a1.5,1.5,0,0,0,2.12,0l5.88-5.88,2.52.87a3.1,3.1,0,0,1,2.12,2.95v3.61a6.73,6.73,0,0,0-2.4,12l-.63.14a6.49,6.49,0,0,0-4.37,4.12l-3.47,8.85a3.76,3.76,0,0,0,2,4.85,3.58,3.58,0,0,0,2.82,0,3.64,3.64,0,0,0,.83-.47v9.52H8.24ZM31.42,65.45H23.94V49.52A1.5,1.5,0,0,0,21.05,49l-1.73,4.33a.61.61,0,0,1-.81.33.78.78,0,0,1-.4-1l3.47-8.86a3.6,3.6,0,0,1,2.3-2.3,15.11,15.11,0,0,1,7.6,0,3.6,3.6,0,0,1,2.3,2.31l3.47,8.87a.77.77,0,0,1-.4,1,.61.61,0,0,1-.81-.33L34.31,49a1.5,1.5,0,0,0-2.89.56ZM46,57.6a1.5,1.5,0,0,0-1.5,1.5v6.35H39.65V59.1a1.5,1.5,0,0,0-1.5-1.5H34.42V55.93a3.62,3.62,0,0,0,3.65.42,3.76,3.76,0,0,0,2-4.84l-3.47-8.86a6.49,6.49,0,0,0-4.37-4.12l-.63-.14a6.72,6.72,0,0,0,.92-10.19l1.2-4.47a3.26,3.26,0,0,1,2.58-2.36L41,26.12a1.5,1.5,0,0,0,2.12,0l4.75-4.75a3.26,3.26,0,0,1,2.58,2.36l4.48,16.69a1.12,1.12,0,0,1-2.16.58L50.07,30.89a1.5,1.5,0,1,0-2.9.78L54.12,57.6Z"/></g></g></svg>