<svg xmlns="http://www.w3.org/2000/svg" viewBox="0 0 65.73 65.76"><defs><style>.cls-1{fill:#455a64;}</style></defs><title>Fence</title><g id="Layer_2" data-name="Layer 2"><g id="Layer_8" data-name="Layer 8"><path class="cls-1" d="M64.23,31.25a1.5,1.5,0,0,0,1.5-1.5V20.62a1.5,1.5,0,0,0-1.5-1.5H60.55V8.64a1.5,1.5,0,0,0-.38-1L54,.75A2.21,2.21,0,0,0,52.4,0h0a2.22,2.22,0,0,0-1.65.75L44.62,7.64a1.5,1.5,0,0,0-.38,1V19.12H40.93V8.64a1.5,1.5,0,0,0-.38-1L34.42.75A2.21,2.21,0,0,0,32.78,0h0a2.22,2.22,0,0,0-1.65.75L25,7.64a1.5,1.5,0,0,0-.38,1V19.12H21.3V8.64a1.5,1.5,0,0,0-.38-1L15.16,1.16a2.75,2.75,0,0,0-4,0L5.38,7.64a1.5,1.5,0,0,0-.38,1V19.12H1.71a1.5,1.5,0,0,0-1.5,1.5v9.13a1.5,1.5,0,0,0,1.5,1.5H5V41.33H1.5A1.5,1.5,0,0,0,0,42.83V52a1.5,1.5,0,0,0,1.5,1.5H5v10.8a1.5,1.5,0,0,0,1.5,1.5H19.8a1.5,1.5,0,0,0,1.5-1.5V53.46h3.32v10.8a1.5,1.5,0,0,0,1.5,1.5h13.3a1.5,1.5,0,0,0,1.5-1.5V53.46h3.32v10.8a1.5,1.5,0,0,0,1.5,1.5H59.05a1.5,1.5,0,0,0,1.5-1.5V53.46H64a1.5,1.5,0,0,0,1.5-1.5V42.83a1.5,1.5,0,0,0-1.5-1.5H60.55V31.25Zm-17-22,5.15-5.8,5.15,5.8v9.91H47.25Zm-19.62,0,5.15-5.8,5.15,5.8v9.91H27.62ZM8,9.21l5.15-5.8,5.15,5.8v9.91H8ZM3.21,22.12H62.73v6.13H3.21ZM40.93,41.33V31.25h3.32V41.33ZM24.62,31.25V41.33H21.3V31.25Zm3,0h10.3V41.33H27.62ZM8,31.25H18.3V41.33H8ZM18.3,62.76H8v-9.3H18.3Zm19.63,0H27.62v-9.3h10.3Zm19.63,0H47.25v-9.3H57.55Zm5-12.3H3V44.33H62.53Zm-5-9.13H47.25V31.25H57.55Z"/></g></g></svg>