<svg xmlns="http://www.w3.org/2000/svg" viewBox="0 0 63.67 69.48"><defs><style>.cls-1{fill:#455a64;}</style></defs><title>FHA</title><g id="Layer_2" data-name="Layer 2"><g id="Layer_8" data-name="Layer 8"><path class="cls-1" d="M27,23.42A2.14,2.14,0,0,1,25.69,23a2.45,2.45,0,0,1-.85-2.51l.68-4-2.91-2.83a2.24,2.24,0,0,1-.75-2.06,2.84,2.84,0,0,1,1.71-2A1.51,1.51,0,0,1,24,9.55L28,9l1.8-3.64a2.45,2.45,0,0,1,2.17-1.52h0A2.45,2.45,0,0,1,34.1,5.33L35.89,9l4,.58A2.45,2.45,0,0,1,42,11.15a2.45,2.45,0,0,1-.78,2.53l-2.9,2.83.69,4a2.3,2.3,0,0,1-3.51,2.55l-3.59-1.89-3.59,1.89A3,3,0,0,1,27,23.42Zm5-5.45a1.5,1.5,0,0,1,.7.17l3.24,1.7-.62-3.61a1.5,1.5,0,0,1,.43-1.33l2.62-2.56-3.62-.53A1.5,1.5,0,0,1,33.55,11L31.93,7.72,30.31,11a1.5,1.5,0,0,1-1.13.82l-3.63.52,2.63,2.56a1.5,1.5,0,0,1,.43,1.33L28,19.84l3.24-1.7A1.5,1.5,0,0,1,31.93,18Z"/><path class="cls-1" d="M16,22.42a2.51,2.51,0,0,1-1.16-.3l-2.24-1.18-2.24,1.18A2.16,2.16,0,0,1,8.07,22a2.16,2.16,0,0,1-.77-2.18l.43-2.49L5.91,15.61a2,2,0,0,1-.65-1.83,2.42,2.42,0,0,1,1.45-1.69A1.5,1.5,0,0,1,7.09,12l2.5-.36,1.12-2.27A2.16,2.16,0,0,1,12.62,8a2.16,2.16,0,0,1,1.91,1.31l1.12,2.27,2.5.36A2.16,2.16,0,0,1,20,13.39a2.16,2.16,0,0,1-.65,2.21l-1.81,1.77L18,19.87A2.16,2.16,0,0,1,17.18,22,1.94,1.94,0,0,1,16,22.42Zm-1-2h0ZM9.27,14.7l1.11,1.08a1.5,1.5,0,0,1,.43,1.33l-.26,1.53,1.38-.72a1.5,1.5,0,0,1,1.4,0l1.37.72-.26-1.53a1.5,1.5,0,0,1,.43-1.33L16,14.7l-1.54-.22a1.5,1.5,0,0,1-1.13-.82l-.69-1.39-.69,1.39a1.5,1.5,0,0,1-1.13.82ZM8,13.44H8Z"/><path class="cls-1" d="M54,22.42a2.5,2.5,0,0,1-1.16-.3l-2.24-1.18-2.24,1.18a2,2,0,0,1-3.09-2.25l.43-2.49-1.81-1.77a2,2,0,0,1-.65-1.83,2.42,2.42,0,0,1,1.45-1.69,1.5,1.5,0,0,1,.38-.11l2.5-.36,1.12-2.27A2.16,2.16,0,0,1,50.62,8h0a2.16,2.16,0,0,1,1.91,1.31l1.12,2.27,2.5.36A2.16,2.16,0,0,1,58,13.4a2.16,2.16,0,0,1-.66,2.22l-1.81,1.77.43,2.49A2.16,2.16,0,0,1,55.17,22,1.94,1.94,0,0,1,54,22.42Zm-1-2h0ZM47.27,14.7l1.11,1.08a1.5,1.5,0,0,1,.43,1.33l-.26,1.53,1.37-.72a1.5,1.5,0,0,1,1.4,0l1.37.72-.26-1.53a1.5,1.5,0,0,1,.43-1.33L54,14.7l-1.54-.22a1.5,1.5,0,0,1-1.13-.82l-.69-1.39-.69,1.39a1.5,1.5,0,0,1-1.13.82ZM46,13.44h0Z"/><path class="cls-1" d="M62.71,5.95C62.08,5.71,47.09,0,31.83,0S1.59,5.71,1,5.95a1.5,1.5,0,0,0-1,1.4V34.74q0,.82.05,1.63C.64,45.43,6.27,54,16.33,61.23a70.62,70.62,0,0,0,15,8.16,1.5,1.5,0,0,0,1,0A67.27,67.27,0,0,0,42,64.7a1.49,1.49,0,0,0,.68-.41c1.52-.91,3.12-1.93,4.73-3.09C57.44,54,63.06,45.37,63.62,36.29q0-.77,0-1.55V7.35A1.5,1.5,0,0,0,62.71,5.95ZM31.83,3C44.38,3,57.13,7.15,60.67,8.4V24.23H3V8.4C6.54,7.15,19.28,3,31.83,3ZM3,36.18q0-.71,0-1.44V27.23h7.05v24.4C6.28,47.36,3.44,42.21,3,36.18Zm10,18.52V27.23h7V60.12A55.28,55.28,0,0,1,13.05,54.7Zm10,7.29V27.23h7V65.61A72.58,72.58,0,0,1,23.05,62Zm10,3.86V27.23h7V62.31A71.76,71.76,0,0,1,33.05,65.85Zm10-5.37V27.23h7v28A56.86,56.86,0,0,1,43.05,60.48ZM60.63,36.1c-.39,6.35-3.51,11.74-7.57,16.15v-25h7.61v7.51Q60.67,35.43,60.63,36.1Z"/></g></g></svg>