<svg xmlns="http://www.w3.org/2000/svg" viewBox="0 0 66.32 68.28"><defs><style>.cls-1{fill:#455a64;}</style></defs><title>FlipFlops</title><g id="Layer_2" data-name="Layer 2"><g id="Layer_8" data-name="Layer 8"><path class="cls-1" d="M20.09.17C5,2,1.47,12.33,1.07,13.7c-2.36,5.37-.3,18,1.26,25.5,0,.05,0,.1,0,.15.57,2.73,1.07,4.77,1.25,5.48a47.46,47.46,0,0,1,.61,6.09C4.5,58.21,4.68,63,7.75,65.82c1.84,1.68,4.55,2.46,8.66,2.46q.92,0,1.94-.05C22.85,68,26.1,66.7,28,64.37c2.59-3.13,2-7.16,1.75-9.09l-.05-.36a79.55,79.55,0,0,1-1-13.65,1.5,1.5,0,0,0,0-.23,20.07,20.07,0,0,1,.13-3.87,1.47,1.47,0,0,0,0-.23c.3-2.81.89-6.36,1.43-9.64a93.62,93.62,0,0,0,1.37-10.13C32.44,10,31.25,5,28.12,2.23A9.68,9.68,0,0,0,20.09.17Zm5.62,62.29c-1.37,1.65-3.9,2.59-7.51,2.77-4.29.22-7-.3-8.42-1.62-2.15-2-2.31-6.27-2.56-12.79a50.21,50.21,0,0,0-.66-6.54l0-.11c-.34-1.37-.78-3.27-1.23-5.45-.22-8.41,9.75-16.1,12.31-17.94,6.9,2.74,8.12,14.53,8.24,16a23.88,23.88,0,0,0-.14,4.44,81.11,81.11,0,0,0,1,14.11l0,.33C27,57.32,27.46,60.35,25.71,62.46Zm3-45.56s0,.09,0,.13a91.35,91.35,0,0,1-1.33,9.77l-.23,1.41c-1.39-4-3.86-8.36-8.21-10.16v-4.6a1.5,1.5,0,0,0-3,0v4.87C13.73,19.84,7.14,24.88,4,31.47,3,24.86,2.44,17.9,3.85,14.84a1.54,1.54,0,0,0,.09-.25c0-.1,2.72-9.8,16.58-11.45l.16,0A6.49,6.49,0,0,1,21.93,3a6.28,6.28,0,0,1,4.2,1.47C28.46,6.54,29.34,10.84,28.67,16.9Z"/><path class="cls-1" d="M65.25,13.7C64.85,12.32,61.3,2,46.23.17a9.68,9.68,0,0,0-8,2.06C35.07,5,33.88,10,34.66,17.16A93.83,93.83,0,0,0,36,27.3c.54,3.27,1.13,6.82,1.43,9.63a1.49,1.49,0,0,0,0,.24A20,20,0,0,1,37.61,41a1.49,1.49,0,0,0,0,.23,79.7,79.7,0,0,1-1,13.71l0,.31c-.27,1.94-.83,6,1.75,9.09C40.22,66.7,43.47,68,48,68.23q1,.05,1.94.05c4.11,0,6.82-.78,8.66-2.46,3.07-2.81,3.25-7.62,3.54-14.89a47.32,47.32,0,0,1,.61-6.09c.18-.72.68-2.75,1.25-5.48a1.45,1.45,0,0,0,0-.16C65.55,31.69,67.61,19.07,65.25,13.7ZM59.79,44.16l0,.11a50.12,50.12,0,0,0-.66,6.54c-.25,6.52-.42,10.83-2.56,12.79-1.45,1.33-4.13,1.84-8.42,1.63C44.5,65,42,64.12,40.61,62.46c-1.75-2.11-1.32-5.14-1.1-6.77l0-.28a81.25,81.25,0,0,0,1.06-14.16,23.92,23.92,0,0,0-.14-4.45c.13-1.53,1.35-13.3,8.24-16C51.27,22.61,61.23,30.3,61,38.71,60.57,40.9,60.13,42.79,59.79,44.16Zm2.54-12.69c-3.14-6.59-9.73-11.63-11.89-13.16V13.45a1.5,1.5,0,0,0-3,0v4.6c-4.35,1.8-6.82,6.12-8.21,10.16L39,26.8A91.37,91.37,0,0,1,37.66,17s0-.09,0-.13c-.67-6,.2-10.33,2.52-12.4a6.74,6.74,0,0,1,5.47-1.38l.16,0C59.56,4.78,62.28,14.2,62.39,14.59a1.58,1.58,0,0,0,.09.25C63.88,17.89,63.34,24.86,62.32,31.47Z"/></g></g></svg>