<svg xmlns="http://www.w3.org/2000/svg" viewBox="0 0 63.67 69.48"><defs><style>.cls-1{fill:#455a64;}</style></defs><title>FullCoverage</title><g id="Layer_2" data-name="Layer 2"><g id="Layer_8" data-name="Layer 8"><path class="cls-1" d="M38.41,56.39a55.27,55.27,0,0,1-6.58,3.25,53.86,53.86,0,0,1-13.69-8.22,26.5,26.5,0,0,1-7.75-10.2,1.5,1.5,0,1,0-2.79,1.1,29.43,29.43,0,0,0,8.6,11.38,55.8,55.8,0,0,0,15.12,9,1.51,1.51,0,0,0,1,0A54.15,54.15,0,0,0,39.91,59a1.5,1.5,0,0,0-1.5-2.6Z"/><path class="cls-1" d="M62.71,5.95C62.08,5.71,47.1,0,31.83,0S1.59,5.71,1,5.95a1.5,1.5,0,0,0-1,1.4V34.74c0,9.5,5.46,18.53,15.78,26.09a70.64,70.64,0,0,0,15.53,8.56,1.51,1.51,0,0,0,1,0,70.62,70.62,0,0,0,15.53-8.56c10.32-7.56,15.78-16.59,15.78-26.09V7.35A1.5,1.5,0,0,0,62.71,5.95Zm-2,28.79c0,19.17-24.89,30-28.83,31.63C27.89,64.77,3,53.91,3,34.74V8.4C6.54,7.15,19.27,3,31.83,3S57.13,7.15,60.67,8.4Z"/><path class="cls-1" d="M24.28,24.1a6.15,6.15,0,0,0-8.69,0l0,0a6.15,6.15,0,0,0,0,8.66L25.66,42.87A6.1,6.1,0,0,0,30,44.67h0a6.11,6.11,0,0,0,4.34-1.8L51.12,26.1a6.15,6.15,0,0,0,0-8.69h0a6.14,6.14,0,0,0-8.69,0L30,29.83Zm20.27-4.58a3.22,3.22,0,0,1,4.45,0h0A3.15,3.15,0,0,1,49,24L32.23,40.75a3.12,3.12,0,0,1-2.22.92h0a3.12,3.12,0,0,1-2.22-.92L17.71,30.67a3.14,3.14,0,0,1,0-4.45l0,0a3.15,3.15,0,0,1,4.42,0L28.94,33a1.5,1.5,0,0,0,2.12,0Z"/></g></g></svg>