<svg xmlns="http://www.w3.org/2000/svg" viewBox="0 0 66.09 66.29"><defs><style>.cls-1{fill:#455a64;}</style></defs><title>Funnel</title><g id="Layer_2" data-name="Layer 2"><g id="Layer_8" data-name="Layer 8"><path class="cls-1" d="M61.47,0H4.61A4.62,4.62,0,0,0,0,4.61v7.84A1.5,1.5,0,0,0,.52,13.6l.13.14L25.59,37.52V58.83a1.5,1.5,0,0,0,.83,1.34l11.91,6a1.5,1.5,0,0,0,2.17-1.34V37.52l25-23.82.13-.14a1.5,1.5,0,0,0,.48-1.1V4.61A4.62,4.62,0,0,0,61.47,0ZM28.59,57.91V38.38H37.5v24ZM38.4,35.38H27.69L5.23,14H60.86ZM63.09,11H3V4.61A1.62,1.62,0,0,1,4.61,3H61.47a1.62,1.62,0,0,1,1.61,1.61Z"/><path class="cls-1" d="M37.78,30.19a1.5,1.5,0,0,0,2.12,0L52,18.14A1.5,1.5,0,0,0,49.83,16L37.78,28.07A1.5,1.5,0,0,0,37.78,30.19Z"/></g></g></svg>