<svg xmlns="http://www.w3.org/2000/svg" viewBox="0 0 64.22 67.07"><defs><style>.cls-1{fill:#455a64;}</style></defs><title>GasPump</title><g id="Layer_2" data-name="Layer 2"><g id="Layer_8" data-name="Layer 8"><path class="cls-1" d="M32.39,7.1H12.69A3.29,3.29,0,0,0,9.4,10.39V23.52c0,1.52,1.12,3.29,4.29,3.29H33.4a1.5,1.5,0,0,0,1.17-.56,4.21,4.21,0,0,0,1.12-2.73V10.39A3.3,3.3,0,0,0,32.39,7.1Zm.29,16.42a.76.76,0,0,1-.08.29H13.69c-1,0-1.29-.27-1.29-.29V10.39a.3.3,0,0,1,.29-.29H32.39a.3.3,0,0,1,.29.29Z"/><path class="cls-1" d="M60.1,21.63h1.06a3,3,0,0,0,2.39-.89,4.09,4.09,0,0,0,.58-3.3C62.32,5.18,50,2.05,48.75,1.77a3.25,3.25,0,0,0-1-.16c-1.93,0-2.54,1.84-2.75,2.45C44,7.32,45.75,8.31,46.62,8.6a13,13,0,0,1,3.73,2.25A7.88,7.88,0,0,1,53.28,17l.08,1.54a3.27,3.27,0,0,0,2.84,3.08H57c-1.44,6-1,16.74,1.11,21.63A30.2,30.2,0,0,1,60.73,55a7.36,7.36,0,0,1-.26,2,6.21,6.21,0,0,1-1.87,3,7,7,0,0,1-4.66,1.7,7.46,7.46,0,0,1-2.86-.57A6.38,6.38,0,0,1,47.13,55c0-6.23-1.17-10.71-3.57-13.68a9,9,0,0,0-1-1V7.24A7.25,7.25,0,0,0,35.37,0h-25A7.25,7.25,0,0,0,3.1,7.24V64.07H1.5a1.5,1.5,0,0,0,0,3H43.4a1.5,1.5,0,0,0,0-3h-.79V45.55A24,24,0,0,1,44.13,55a9.38,9.38,0,0,0,5.77,9,10.38,10.38,0,0,0,4,.81,10,10,0,0,0,6.64-2.45,9.19,9.19,0,0,0,2.78-4.49A10.38,10.38,0,0,0,63.73,55a33.12,33.12,0,0,0-2.86-12.87C59,37.62,58.58,26.61,60.1,21.63Zm-3.56-3a.28.28,0,0,1-.18-.24l-.08-1.47A10.8,10.8,0,0,0,52.33,8.6,16.06,16.06,0,0,0,47.7,5.8,3.39,3.39,0,0,1,47.88,5c0-.14.09-.25.12-.33h.07c.12,0,11.5,2.41,13.09,13.16a5.21,5.21,0,0,1,.06.76h-.07ZM6.1,64.07V7.24A4.24,4.24,0,0,1,10.34,3h25a4.24,4.24,0,0,1,4.24,4.24V64.07Z"/></g></g></svg>