<svg xmlns="http://www.w3.org/2000/svg" viewBox="0 0 65.43 65.5"><defs><style>.cls-1{fill:#455a64;}</style></defs><title>Globe</title><g id="Layer_2" data-name="Layer 2"><g id="Layer_8" data-name="Layer 8"><path class="cls-1" d="M65.43,32.71A32.71,32.71,0,1,0,31.2,65.39a10.43,10.43,0,0,0,3.09,0A32.75,32.75,0,0,0,65.43,32.71Zm-54.67-20a32.75,32.75,0,0,0,5.57,4.14,53.36,53.36,0,0,0-2.28,15H3.73A1.48,1.48,0,0,0,3,32,29.59,29.59,0,0,1,10.76,12.71ZM51.43,31.86a53.55,53.55,0,0,0-2.21-14.76A32.84,32.84,0,0,0,54.89,13a29.58,29.58,0,0,1,7.52,18.92l-.27,0ZM34.24,3.22c4.57.86,8.64,5.63,11.24,12.45A29.5,29.5,0,0,1,34.24,18.4Zm-3,0V18.37a29.74,29.74,0,0,1-11.16-2.91C22.68,8.75,26.71,4.07,31.24,3.22Zm0,18.17V31.86H17.05A50,50,0,0,1,19.1,18.32,32.73,32.73,0,0,0,31.24,21.38Zm0,13.47v10.4A32.53,32.53,0,0,0,19.3,47.9a49.27,49.27,0,0,1-2.22-13Zm0,13.4v14.1c-4.39-.83-8.31-5.25-10.92-11.63A29.53,29.53,0,0,1,31.24,48.26Zm3,.05A29.49,29.49,0,0,1,45,51.12c-2.6,6.17-6.45,10.43-10.75,11.24Zm0-3V34.86H48.4A49,49,0,0,1,46.05,48.3,32.49,32.49,0,0,0,34.24,45.3Zm0-13.44V21.4a32.49,32.49,0,0,0,12.2-2.88,50.15,50.15,0,0,1,2,13.33Zm14-17.65a28.7,28.7,0,0,0-5.83-9.58,29.74,29.74,0,0,1,10.39,6.2A29.87,29.87,0,0,1,48.22,14.21ZM17.35,14a29.76,29.76,0,0,1-4.46-3.37,29.73,29.73,0,0,1,10.22-6A28.48,28.48,0,0,0,17.35,14ZM3.73,34.86H14.08a52.36,52.36,0,0,0,2.43,14.41A32.77,32.77,0,0,0,11.06,53a29.6,29.6,0,0,1-8-18.33A1.48,1.48,0,0,0,3.73,34.86ZM17.56,52.11a28.37,28.37,0,0,0,5.35,8.64,29.72,29.72,0,0,1-9.67-5.63A29.78,29.78,0,0,1,17.56,52.11Zm30.16.49a29.84,29.84,0,0,1,4,2.93,29.71,29.71,0,0,1-9.12,5.19A28,28,0,0,0,47.72,52.6Zm1.09-2.85a52,52,0,0,0,2.59-14.9H62.14l.2,0a29.62,29.62,0,0,1-8.41,18.65A32.86,32.86,0,0,0,48.81,49.75Z"/></g></g></svg>