<svg xmlns="http://www.w3.org/2000/svg" viewBox="0 0 65.08 57.89"><defs><style>.cls-1{fill:#455a64;}</style></defs><title>GraphChart</title><g id="Layer_2" data-name="Layer 2"><g id="Layer_8" data-name="Layer 8"><path class="cls-1" d="M17.12,28.92a1.5,1.5,0,0,0-1.61.24L1.26,41.74a1.5,1.5,0,0,0-.51,1.13V56.39a1.5,1.5,0,0,0,1.5,1.5H16.65a1.5,1.5,0,0,0,1.5-1.51L18,30.28A1.5,1.5,0,0,0,17.12,28.92Zm-13.37,26V43.54L15,33.59l.12,21.29Z"/><path class="cls-1" d="M38.14,32.77a1.5,1.5,0,0,0-1.62.28L28.8,40.23l-6.61-6.59a1.5,1.5,0,0,0-2.56,1.06V56.39a1.5,1.5,0,0,0,1.5,1.5H37.54a1.5,1.5,0,0,0,1.5-1.5V34.15A1.5,1.5,0,0,0,38.14,32.77ZM36,54.89H22.63V38.32l5.07,5.06a1.5,1.5,0,0,0,2.08,0L36,37.59Z"/><path class="cls-1" d="M57.27,15a1.5,1.5,0,0,0-1.62.28L41.18,28.71a1.5,1.5,0,0,0-.48,1.1V56.39a1.5,1.5,0,0,0,1.5,1.5H56.61a1.5,1.5,0,0,0,1.48-1.24,1.48,1.48,0,0,0,0-.51c-.1-1.83,0-24.68.08-39.79A1.5,1.5,0,0,0,57.27,15ZM55,50.1c0,2.18,0,3.71,0,4.79H43.7V30.46L55.15,19.8c0,3.79-.05,10.16-.07,16.53C55.05,41.33,55,46.34,55,50.1Z"/><path class="cls-1" d="M64.65.55A1.5,1.5,0,0,0,63.59.1L52.77,0h0a1.5,1.5,0,0,0,0,3l7,.06L28.7,31.6,17.42,21.28a1.5,1.5,0,0,0-2,0L.53,33.83a1.5,1.5,0,0,0,1.94,2.29l13.9-11.74L27.69,34.74a1.5,1.5,0,0,0,2,0L62,5,62,13.47A1.5,1.5,0,0,0,63.46,15h0A1.5,1.5,0,0,0,65,13.5l.11-11.89A1.5,1.5,0,0,0,64.65.55Z"/></g></g></svg>