<svg xmlns="http://www.w3.org/2000/svg" viewBox="0 0 65.15 59.27"><defs><style>.cls-1{fill:#455a64;}</style></defs><title>Handshake</title><g id="Layer_2" data-name="Layer 2"><g id="Layer_8" data-name="Layer 8"><path class="cls-1" d="M64.22.11a1.5,1.5,0,0,0-1.64.34L42.43,21a1.53,1.53,0,0,0-.21.27H21.85l-.08-.1L2.6.48a1.5,1.5,0,0,0-2.6,1L.23,29.29a1.5,1.5,0,0,0,.46,1.07L7,36.45a1.5,1.5,0,0,0,2.12,0l1-1,3.31,3.3L12,40A4.07,4.07,0,0,0,12,45.77l.25.25a4,4,0,0,0,1.17.82,4.06,4.06,0,0,0,.85,4.32l.25.25a4,4,0,0,0,2.4,1.18A4,4,0,0,0,18,55.2l.25.25a4,4,0,0,0,2.85,1.23h.07a4.06,4.06,0,0,0,1.34-.24,4,4,0,0,0,.86,1.33l.24.25h0a4.07,4.07,0,0,0,5.75.09l2-1.91,2,1.83a3.9,3.9,0,0,0,2.75,1.1h.26a4.4,4.4,0,0,0,2.9-1.35,4.47,4.47,0,0,0,1-1.54,4,4,0,0,0,1.5.29A4.44,4.44,0,0,0,46,52.86a4.39,4.39,0,0,0,3-1.34,4.27,4.27,0,0,0,.83-4.82,4.45,4.45,0,0,0,1.29-.91,4.18,4.18,0,0,0,.09-5.89l-.13-.13,3.63-3.58a1.49,1.49,0,0,0,1.93.06l8-6.38a1.5,1.5,0,0,0,.56-1.17V1.5A1.5,1.5,0,0,0,64.22.11ZM8,33.25,3.23,28.63,3,5.37,18.69,22.32Zm10.65,8L15.74,44a1.05,1.05,0,0,1-1.38-.1h0l-.24-.25a1.08,1.08,0,0,1,0-1.5l2.72-2.64a1.05,1.05,0,0,1,.74-.3h0a1.06,1.06,0,0,1,.75.32l.24.25a1,1,0,0,1,.06,1.39Zm-2,8.12-.24-.25a1.08,1.08,0,0,1,0-1.5l1.33-1.28c.07-.06.15-.11.22-.18l2.72-2.64c.07-.07.12-.15.19-.22l.07-.06a1.05,1.05,0,0,1,.74-.3h0a1.06,1.06,0,0,1,.75.32l.24.25a1.06,1.06,0,0,1,0,1.5l-4.52,4.38a1.07,1.07,0,0,1-1.5,0Zm4.51,4.36a1.06,1.06,0,0,1-.75-.32h0l-.24-.25a1.06,1.06,0,0,1,0-1.5l4.52-4.38a1.06,1.06,0,0,1,1.5,0l.24.25a1.08,1.08,0,0,1,0,1.5l-4.52,4.38A1.09,1.09,0,0,1,21.13,53.69ZM30,53.34,27.25,56a1.07,1.07,0,0,1-1.5,0l-.25-.25a1.07,1.07,0,0,1,0-1.5l2.72-2.64a1.07,1.07,0,0,1,1.5,0l.25.25A1.08,1.08,0,0,1,30,53.34Zm16.86-3.9a1.22,1.22,0,0,1-1.6.23,3.83,3.83,0,0,0-.32-.38l-5-4.87a1.5,1.5,0,1,0-2.1,2.14l.42.41a1.48,1.48,0,0,0,.31.45L43,51.7a1.12,1.12,0,0,1,.09.46,1.41,1.41,0,0,1-.41.94,1.21,1.21,0,0,1-1.68.18l-5.17-4.85a1.5,1.5,0,1,0-2.05,2.19l.44.41a1.47,1.47,0,0,0,.26.38L37.2,54a1,1,0,0,1,.27.73,1.47,1.47,0,0,1-1.34,1.38,1,1,0,0,1-.77-.28l-2.28-2.08a4,4,0,0,0-.94-4l-.25-.25a4,4,0,0,0-2.19-1.16,4,4,0,0,0-1.14-2.91l-.24-.25A4,4,0,0,0,25.94,44a4,4,0,0,0-1.12-2.6l-.24-.25a4,4,0,0,0-2.73-1.22,4,4,0,0,0-1.08-2.18l-.24-.25a4,4,0,0,0-2.85-1.23,4,4,0,0,0-2,.5l-3.49-3.48,8.74-8.94h5.45l-5.21,5a5,5,0,0,0-1.54,3.82,5.76,5.76,0,0,0,2,3.75c2.52,2.53,5.93,1,7.39-.14l.12-.1,3.78-3.71a5.54,5.54,0,0,1,7.74.58L49.09,42a1.32,1.32,0,0,1-1.8,1.87l-2.91-2.84a1.5,1.5,0,0,0-2.1,2.15l.11.1s0,.06.06.08L47,47.77A1.21,1.21,0,0,1,46.84,49.44Zm-4-18A8.49,8.49,0,0,0,31,30.63l-.12.11-3.78,3.71c-.33.24-2.2,1.53-3.38.31l-.13-.12A2.9,2.9,0,0,1,22.62,33a2.05,2.05,0,0,1,.67-1.51l7.32-7s0-.06.06-.09H42.39l10.14,9.79L49,37.64ZM62.15,28l-6.37,5.11L45,22.69,62.15,5.18Z"/></g></g></svg>