<svg xmlns="http://www.w3.org/2000/svg" viewBox="0 0 65.42 66.45"><defs><style>.cls-1{fill:#455a64;}</style></defs><title>Harp</title><g id="Layer_2" data-name="Layer 2"><g id="Layer_8" data-name="Layer 8"><path class="cls-1" d="M62.11,12.75c-3-1.51-5.39-.08-7.46,1.17s-4.08,2.48-7.24,1.45c-1.82-.59-2.92-2.52-4.2-4.76C40.86,6.49,37.93,1.37,29,1.37h-.11A15.86,15.86,0,0,0,15.39,8.83V3h2.25a1.5,1.5,0,0,0,0-3H2A1.5,1.5,0,0,0,2,3H4.65V57a4.73,4.73,0,0,0,.09,9.46H44c.72,0,1.29,0,4.46-4.72,2-2.92,4.13-6.54,6.13-10.19,4-7.28,8.94-17.75,10-26.24.06-.51.17-1.1.29-1.73C65.5,20.12,66.45,14.91,62.11,12.75Zm-27.42,1c.14.22.32.56.56,1s.59,1.08,1,1.72V57h-5.1a1.49,1.49,0,0,0,.1-.53V11.2A6.62,6.62,0,0,1,34.69,13.79ZM53.82,24.58l.13,0a2.32,2.32,0,0,1,.68-.15c.39,1-.41,5.62-6.11,16.79q-.7,1.36-1.4,2.68v-19A20.19,20.19,0,0,0,53.82,24.58ZM44.13,49.27A81,81,0,0,1,39.28,57h-.06V20.74a12.52,12.52,0,0,0,3.38,2.77,11.63,11.63,0,0,0,1.54.67ZM28.32,57H23.63V13.11a1.49,1.49,0,0,0-.1-.52c.16-.15.32-.3.49-.43a7,7,0,0,1,4.2-1.42V56.45A1.49,1.49,0,0,0,28.32,57Zm-7.69,0H15.39V30.84a1.49,1.49,0,0,0,.23-.47c0-.1,2.89-10.19,5-14.07ZM12.39,3V57H7.65V3ZM61.92,23c-.13.69-.24,1.34-.31,1.9C59.87,39,46,60.69,43.5,63.45H4.73a1.73,1.73,0,0,1,0-3.47H39.87a1.49,1.49,0,0,0,.43-.06c1.48-.44,5.47-7.28,8.55-12.94,2.63-4.83,7.24-13.77,8.5-19.41.38-1.72.73-4.16-.73-5.47-.6-.54-1.7-1-3.57-.42-.56.13-5.4,1.12-9.06-.82-2.83-1.51-5-5.57-6.12-7.52-.28-.5-.5-.91-.66-1.16a10,10,0,0,0-6.94-4.29l-.24,0a1.5,1.5,0,0,0-.32,0h0a10.2,10.2,0,0,0-7.58,2,20.15,20.15,0,0,0-2.52,2.56,15.21,15.21,0,0,0-1.55,2.35,45.73,45.73,0,0,0-2.67,6.4V19.67a1.48,1.48,0,0,0,.07-.44c0-8.44,5.76-14.83,13.4-14.86H29c7.23,0,9.47,3.93,11.65,7.73,1.45,2.54,3,5.18,5.88,6.12,4.47,1.45,7.38-.32,9.72-1.74,2-1.23,3.08-1.79,4.56-1.05C62.92,16.5,62.56,19.51,61.92,23Z"/></g></g></svg>