<svg xmlns="http://www.w3.org/2000/svg" viewBox="0 0 66.65 52.64"><defs><style>.cls-1{fill:#455a64;}</style></defs><title>HawaiianShirt</title><g id="Layer_2" data-name="Layer 2"><g id="Layer_8" data-name="Layer 8"><path class="cls-1" d="M66,12.25,51.74,2.76A6.67,6.67,0,0,0,50.18,2L45.74.49A9.09,9.09,0,0,0,42.8,0l-19,.12A9.07,9.07,0,0,0,20.91.6L16.47,2.11a6.74,6.74,0,0,0-1.56.77L.67,12.37a1.5,1.5,0,0,0-.43,2.06l6.57,10.2a1.5,1.5,0,0,0,2.07.45l5.92-3.82V51.14a1.5,1.5,0,0,0,1.5,1.5h0l34-.12a1.5,1.5,0,0,0,1.5-1.5V21.14L57.76,25a1.5,1.5,0,0,0,2.07-.45l6.57-10.2A1.5,1.5,0,0,0,66,12.25ZM62.3,15.16a3.43,3.43,0,0,0-5.35-1.77.43.43,0,0,1-.39.06,3.43,3.43,0,0,0-4.33,4.36h0l-.36-.23L52.3,6.74l10.79,7.19ZM49.21,4.83l.16.07-.53,13.43s0,0,0,0v6.79a3.42,3.42,0,0,0-1.15-1.39.43.43,0,0,1-.18-.35A3.43,3.43,0,0,0,42,20.64a.43.43,0,0,1-.39.06,3.41,3.41,0,0,0-3.52.84l-.06.07V17.3l3.82,1.4a1.5,1.5,0,0,0,2-1.3l1-14ZM40.14,24.1a.43.43,0,0,1,.54-.54A3.43,3.43,0,0,0,43.83,23a.43.43,0,0,1,.68.34h0A3.42,3.42,0,0,0,46,26.22a.43.43,0,0,1-.12.76,3.42,3.42,0,0,0-2.25,2.27.43.43,0,0,1-.75.12,3.42,3.42,0,0,0-2.79-1.44H40a.43.43,0,0,1-.34-.68A3.43,3.43,0,0,0,40.14,24.1ZM35.73,13.27a22.73,22.73,0,0,0,5.53-9.34l.55.12L41,15.2Zm-2.84-1.39c-1.42-1.38-4.57-4.81-5.61-8.78L38.39,3C37.46,6.94,34.42,10.36,32.89,11.88ZM24.35,3.75a22.73,22.73,0,0,0,5.53,9.34L24.58,15,23.8,3.87Zm7.47,11.82.74-.27,2.48.91V49.58H31.82ZM18.26,41a.43.43,0,0,1,.54-.54A3.43,3.43,0,0,0,21.95,40a.43.43,0,0,1,.68.35,3.43,3.43,0,0,0,1.46,2.83.43.43,0,0,1-.12.76,3.43,3.43,0,0,0-2.25,2.26.43.43,0,0,1-.75.12,3.43,3.43,0,0,0-2.79-1.44h-.06a.5.5,0,0,1-.19,0l-.13,0v-.66A3.42,3.42,0,0,0,18.26,41ZM9.7,10.13A3.43,3.43,0,0,0,11.16,13a.43.43,0,0,1-.12.76A3.43,3.43,0,0,0,8.8,16a.43.43,0,0,1-.75.12,3.43,3.43,0,0,0-2.79-1.43H5.19A.43.43,0,0,1,4.85,14a3.42,3.42,0,0,0,.55-1.17L9.68,10A.43.43,0,0,1,9.7,10.13ZM8.52,21.74l-1.93-3a3.4,3.4,0,0,0,5.08-1.89.43.43,0,0,1,.28-.28,3.43,3.43,0,0,0,.94-6.07.43.43,0,0,1-.18-.35,3.41,3.41,0,0,0-.53-1.85l2.17-1.44.43,10.85Zm9.29,26.08c.12,0,.25,0,.37,0a.56.56,0,0,1,.36.18,3.4,3.4,0,0,0,2.78,1.44,3.54,3.54,0,0,0,.56,0A3.4,3.4,0,0,0,24.6,47a.43.43,0,0,1,.28-.28,3.43,3.43,0,0,0,.94-6.07.43.43,0,0,1-.18-.35,3.43,3.43,0,0,0-5.49-2.77.43.43,0,0,1-.39.06,3.42,3.42,0,0,0-1.95-.07V18.48s0,0,0,0L17.28,5l.16-.07,3.36-1.14.94,13.41a1.5,1.5,0,0,0,2,1.3l5.08-1.85v8.74a3.43,3.43,0,0,0-5.35-1.78.42.42,0,0,1-.39.06,3.43,3.43,0,0,0-4.33,4.37.42.42,0,0,1-.06.39,3.4,3.4,0,0,0-.29,3.61,3.46,3.46,0,0,0,3.1,1.86.35.35,0,0,1,.35.18,3.4,3.4,0,0,0,2.78,1.44,3.52,3.52,0,0,0,.56,0,3.41,3.41,0,0,0,2.73-2.38.42.42,0,0,1,.28-.28,3.45,3.45,0,0,0,.62-.27v17l-11,0Zm3.78-20.73a.43.43,0,0,1,.54-.54A3.43,3.43,0,0,0,25.27,26a.43.43,0,0,1,.68.34h0a3.43,3.43,0,0,0,1.46,2.83.43.43,0,0,1-.12.76,3.42,3.42,0,0,0-2.25,2.26.43.43,0,0,1-.75.13,3.42,3.42,0,0,0-2.79-1.44h-.06a.34.34,0,0,1-.39-.23.4.4,0,0,1,0-.45A3.42,3.42,0,0,0,21.59,27.08ZM38,49.57V30.31a3.4,3.4,0,0,0,2,.62h.07a.43.43,0,0,1,.35.18,3.43,3.43,0,0,0,6.07-1,.43.43,0,0,1,.28-.28A3.4,3.4,0,0,0,48.84,28v7.7a3.44,3.44,0,0,0-1.06-.83,3.4,3.4,0,0,0-3.6.32.43.43,0,0,1-.39.06,3.43,3.43,0,0,0-4.33,4.36.43.43,0,0,1-.06.39,3.41,3.41,0,0,0-.29,3.61,3.48,3.48,0,0,0,3.1,1.86.52.52,0,0,1,.35.18,3.43,3.43,0,0,0,6.07-1,.42.42,0,0,1,.21-.24v5.12ZM42.3,38.63a.43.43,0,0,1,.54-.54A3.43,3.43,0,0,0,46,37.58a.43.43,0,0,1,.68.34,3.42,3.42,0,0,0,1.46,2.83.43.43,0,0,1-.12.76,3.42,3.42,0,0,0-2.25,2.27.43.43,0,0,1-.75.12,3.42,3.42,0,0,0-2.79-1.44h-.07a.43.43,0,0,1-.34-.68A3.43,3.43,0,0,0,42.3,38.63Zm15.83-17-3.28-2.11a3.4,3.4,0,0,0,.22-2.68.43.43,0,0,1,.54-.54,3.43,3.43,0,0,0,3.15-.51.43.43,0,0,1,.68.34,3.42,3.42,0,0,0,.8,2.22Z"/><circle class="cls-1" cx="33.42" cy="18.69" r="1.08"/><circle class="cls-1" cx="33.42" cy="25.75" r="1.08"/><circle class="cls-1" cx="33.42" cy="32.99" r="1.08"/><circle class="cls-1" cx="33.42" cy="40.18" r="1.08"/><circle class="cls-1" cx="33.42" cy="47.4" r="1.08"/></g></g></svg>