<svg xmlns="http://www.w3.org/2000/svg" viewBox="0 0 65.11 63.13"><defs><style>.cls-1{fill:#455a64;}</style></defs><title>Headset</title><g id="Layer_2" data-name="Layer 2"><g id="Layer_8" data-name="Layer 8"><path class="cls-1" d="M59.87,20.31A28.76,28.76,0,0,0,52.26,8a1.37,1.37,0,0,0-1-.9A28.86,28.86,0,0,0,4.63,20.58,5.75,5.75,0,0,0,0,26.21V42a5.75,5.75,0,0,0,5.74,5.74H8A5.75,5.75,0,0,0,13.73,42V26.21A5.75,5.75,0,0,0,8,20.47H7.8a25.78,25.78,0,0,1,5.48-9.16l3.61,3.42a2.15,2.15,0,0,0,1.49.6,2.19,2.19,0,0,0,1.55-.64c2.9-2.89,7.57-4.61,12.48-4.61a18,18,0,0,1,12.12,4.27,2.18,2.18,0,0,0,3.06-.1l3.23-3.42a25.77,25.77,0,0,1,5.92,9.49A5.75,5.75,0,0,0,51.38,26V41.81A5.75,5.75,0,0,0,56,47.44h0A25.68,25.68,0,0,1,36.19,57.79a4,4,0,0,0-3.74-2.64H28.76a4,4,0,1,0,0,8h3.69a4,4,0,0,0,3.62-2.34A28.66,28.66,0,0,0,58.46,49.2l.07-.1,1-1.56a5.75,5.75,0,0,0,5.6-5.74V26A5.75,5.75,0,0,0,59.87,20.31Zm-49.14,5.9V42A2.75,2.75,0,0,1,8,44.73H7.53V37.48a1.5,1.5,0,0,0-3,0v7A2.74,2.74,0,0,1,3,42V26.21a2.75,2.75,0,0,1,2.74-2.74H8A2.75,2.75,0,0,1,10.73,26.21ZM46,11.59A21.31,21.31,0,0,0,32.41,7.06a21,21,0,0,0-14,4.94L15.46,9.24a25.83,25.83,0,0,1,33.13-.44ZM32.45,60.13H28.76a1,1,0,1,1,0-2h3.69a1,1,0,0,1,0,2ZM62.11,41.81a2.74,2.74,0,0,1-1.74,2.55V37.61a1.5,1.5,0,0,0-3,0v6.94h-.25a2.75,2.75,0,0,1-2.74-2.74V26a2.75,2.75,0,0,1,2.74-2.74h1.37a1.47,1.47,0,0,0,.55,0h.32A2.75,2.75,0,0,1,62.11,26Z"/></g></g></svg>