<svg xmlns="http://www.w3.org/2000/svg" viewBox="0 0 65.67 63.72"><defs><style>.cls-1{fill:#455a64;}</style></defs><title>Helmet</title><g id="Layer_2" data-name="Layer 2"><g id="Layer_8" data-name="Layer 8"><path class="cls-1" d="M61.16,21.58h0v0C56.58,8.26,45.2,0,31.46,0,14.11,0,0,13.21,0,29.41c0,8.73,3.3,17.1,8.11,20.39,6.1,3.68,15.8,6.19,22.88,8l2.68.7c2.47.65,4.76,1.29,6.89,1.87,6.17,1.7,11,3,14.54,3.32l.5,0c4,0,8.67-3.71,9.78-12.15h0C67,39.73,61.4,22.32,61.16,21.58Zm1.43,27.68L30.06,36.49c-.22-.1-5.47-2.47-5.47-7.89a4.16,4.16,0,0,1,1.28-3.17c2-1.87,5.59-1.89,6.34-1.88H58.63C59.72,27.2,63.24,39.8,62.59,49.26ZM55.33,60.71c-3.21-.25-8-1.56-14-3.22-2.13-.59-4.44-1.22-6.92-1.88l-2.7-.7c-6.9-1.78-16.35-4.23-22-7.63C6.47,45,3,38,3,29.41,3,14.86,15.77,3,31.46,3,43.37,3,53,9.52,57.56,20.55H32.23c-1.3,0-5.69.09-8.44,2.71a7.11,7.11,0,0,0-2.21,5.34c0,7.36,7,10.5,7.32,10.66L62.22,52.34C61,58.75,57.51,60.88,55.33,60.71Z"/><path class="cls-1" d="M46.84,29.68a1.5,1.5,0,0,0-2.12,0l-5.49,5.49a1.5,1.5,0,1,0,2.12,2.12l5.49-5.49A1.5,1.5,0,0,0,46.84,29.68Z"/><path class="cls-1" d="M55.43,28.31a1.5,1.5,0,0,0-2.12,0l-9.61,9.61A1.5,1.5,0,1,0,45.81,40l9.61-9.61A1.5,1.5,0,0,0,55.43,28.31Z"/></g></g></svg>