<svg xmlns="http://www.w3.org/2000/svg" viewBox="0 0 53.81 67.54"><defs><style>.cls-1{fill:#455a64;}</style></defs><title>Hiking</title><g id="Layer_2" data-name="Layer 2"><g id="Layer_8" data-name="Layer 8"><path class="cls-1" d="M30.16,15.73h-.32A7.87,7.87,0,1,1,30.47,0h0a7.87,7.87,0,0,1-.32,15.72ZM30.15,3a4.86,4.86,0,1,0,.2,0Z"/><path class="cls-1" d="M7.22,35.32a5,5,0,0,1-2.59-.52A7.38,7.38,0,0,1,.35,25.6L5.8,9.84A7.19,7.19,0,0,1,9.52,5.67a7.11,7.11,0,0,1,5.6-.24A6.88,6.88,0,0,1,19.26,9a7.19,7.19,0,0,1,.23,5.74L14.07,30.42A7.29,7.29,0,0,1,7.22,35.32ZM12.58,8a4.09,4.09,0,0,0-1.77.4A4.18,4.18,0,0,0,8.64,10.8L3.2,26.54A4.35,4.35,0,0,0,5.75,32a1.5,1.5,0,0,1,.36.17,2.76,2.76,0,0,0,1.11.14,4.32,4.32,0,0,0,4-2.86l5.44-15.74a4.25,4.25,0,0,0-.11-3.4,4,4,0,0,0-2.42-2.05A4.48,4.48,0,0,0,12.58,8Z"/><path class="cls-1" d="M8.8,67.54a6.92,6.92,0,0,1-2.22-.46L6.39,67A5.39,5.39,0,0,1,4,59.74L12.64,42.2a5.41,5.41,0,0,1,1-4.62A4.42,4.42,0,0,1,15,36.24l6.4-19.39A5,5,0,0,1,24,13.7,5.74,5.74,0,0,1,28,13.35l.2.07a5.72,5.72,0,0,1,3.33,3.73l3.19,6.21,4.35-1.8h0a5.45,5.45,0,0,1,4.3.13,4.72,4.72,0,0,1,2.53,2.73,5.43,5.43,0,0,1-3,6.91l-7.72,3.09a4.7,4.7,0,0,1-2,.32,5.53,5.53,0,0,1-4.07-1.87A3,3,0,0,1,28,31.57l-.26-.49-2.67,8.4,9.31,7.24a1.51,1.51,0,0,1,.29.11,5.31,5.31,0,0,1,2.22,7.25L31.48,64.41l-.08.13a5.8,5.8,0,0,1-4.74,2.61,4.34,4.34,0,0,1-2.5-.59A5.32,5.32,0,0,1,22,59.35l3.3-6.1L21,49.9,13.64,64.57A5.63,5.63,0,0,1,8.8,67.54ZM7.64,64.26a4.14,4.14,0,0,0,1.16.27A2.59,2.59,0,0,0,11,63.16l8.11-16.23a1.5,1.5,0,0,1,2.26-.52l6.79,5.24a1.5,1.5,0,0,1,.4,1.9l-3.88,7.18a2.31,2.31,0,0,0,.9,3.19l.16.09c.19.12.4.14.92.14a2.84,2.84,0,0,0,2.21-1.22l5.39-10.21a2.34,2.34,0,0,0-.66-3.06,1.5,1.5,0,0,1-.68-.3L22.44,41.21a1.5,1.5,0,0,1-.51-1.64L26,26.76a1.5,1.5,0,0,1,2.76-.24l2,3.8a1.76,1.76,0,0,1,.56.42,2.57,2.57,0,0,0,1.93,1,3.45,3.45,0,0,0,.72,0l7.85-3.14a2.44,2.44,0,0,0,1.3-3.1,1.77,1.77,0,0,0-1-1,2.48,2.48,0,0,0-1.92-.07l-5.62,2.33A1.5,1.5,0,0,1,32.7,26l-3.88-7.57a1.52,1.52,0,0,1-.11-.27,2.71,2.71,0,0,0-1.57-1.9,2.7,2.7,0,0,0-1.84.16,2,2,0,0,0-1.07,1.33L17.6,37.78a1.5,1.5,0,0,1-1,1c-.13,0-.29.13-.58.57l-.1.13a2.6,2.6,0,0,0-.31,2.45A1.5,1.5,0,0,1,15.58,43L6.65,61.07a2.39,2.39,0,0,0,1,3.19Z"/><path class="cls-1" d="M52.31,66.22a1.5,1.5,0,0,1-1.5-1.41L47.27,4.66a1.5,1.5,0,1,1,3-.18l3.55,60.15a1.5,1.5,0,0,1-1.41,1.58Z"/></g></g></svg>