<svg xmlns="http://www.w3.org/2000/svg" viewBox="0 0 65.75 65.92"><defs><style>.cls-1{fill:#455a64;}</style></defs><title>HomeEquity</title><g id="Layer_2" data-name="Layer 2"><g id="Layer_8" data-name="Layer 8"><path class="cls-1" d="M65.31,31.8l-8-8V9a1.5,1.5,0,0,0-1.5-1.5H47.68A1.5,1.5,0,0,0,46.18,9v3.65L33.94.42a1.54,1.54,0,0,0-2.12,0L.44,31.8a1.5,1.5,0,0,0-.19,1.89L4,39.36a1.5,1.5,0,0,0,1.1.66h.15a1.5,1.5,0,0,0,1.06-.44l2.16-2.16v27a1.5,1.5,0,0,0,1.5,1.5H55.76a1.5,1.5,0,0,0,1.5-1.5v-27l2.16,2.16a1.5,1.5,0,0,0,2.31-.23l3.76-5.68A1.5,1.5,0,0,0,65.31,31.8ZM49.18,15.29V10.51h5.08V20.75l-5.12-5.12A1.5,1.5,0,0,0,49.18,15.29Zm5.08,19.22V62.92H11.49V34.77a1.51,1.51,0,0,0,0-.3L32.88,13,54.27,34.44S54.26,34.49,54.26,34.51Zm6,1.67L33.94,9.86a1.5,1.5,0,0,0-2.12,0L5.5,36.18,3.43,33.05,32.88,3.6,62.32,33.05Z"/><path class="cls-1" d="M30.78,26.77v2.92c-4.85.55-5.42,3.9-5.42,5.41,0,3.91,2.68,5.24,5.27,6.53l.9.45a1.51,1.51,0,0,0,.31.12l.31.16c3,1.47,4.26,2.22,4.26,4.6,0,.92,0,3.08-4.64,3.08-3.5,0-3.86-1.68-3.89-1.91a1.5,1.5,0,0,0-3,.25c.11,1.5,1.5,4.25,5.9,4.61v1.94a1.5,1.5,0,0,0,3,0v-2c5-.75,5.63-4.3,5.63-5.93,0-4.34-3-5.84-5.92-7.29l-1-.52a1.49,1.49,0,0,0-.31-.12L32,38.94c-2.57-1.28-3.61-1.87-3.61-3.84,0-.75,0-2.5,3.86-2.5,2.86,0,3.18,1.31,3.21,1.5a1.5,1.5,0,0,0,3-.26c-.09-1.29-1.21-3.58-4.63-4.12v-3a1.5,1.5,0,1,0-3,0Z"/></g></g></svg>