<svg xmlns="http://www.w3.org/2000/svg" viewBox="0 0 65.75 67.38"><defs><style>.cls-1{fill:#455a64;}</style></defs><title>HomeAffordability</title><g id="Layer_2" data-name="Layer 2"><g id="Layer_8" data-name="Layer 8"><path class="cls-1" d="M65.31,31.8l-9.6-9.6V9a1.5,1.5,0,0,0-1.5-1.5H46.68A1.5,1.5,0,0,0,45.18,9v2.65L33.94.42a1.54,1.54,0,0,0-2.12,0L.44,31.8a1.5,1.5,0,0,0-.19,1.89L4,39.36a1.5,1.5,0,0,0,2.31.23l2.16-2.16v22a1.5,1.5,0,0,0,1.5,1.5h5.28a4.69,4.69,0,0,0-.36,1.73c0,3.15,6,4.74,17.7,4.74s17.7-1.59,17.7-4.74a4.69,4.69,0,0,0-.36-1.73h5.82a1.5,1.5,0,0,0,1.5-1.5v-22l2.16,2.16a1.5,1.5,0,0,0,1.06.44h.15a1.5,1.5,0,0,0,1.1-.66l3.77-5.68A1.5,1.5,0,0,0,65.31,31.8ZM48.18,10.51h4.53V19.2l-4.53-4.53ZM32.6,64.38c-10.19,0-13.91-1.32-14.68-2a5.64,5.64,0,0,1,.29-.82c.52-1.3,1.31-3.27,1.31-7.88,0-6.3,1.56-8.71,4.26-10.73.82-.62,1.51-1.08,2.11-1.48a7.88,7.88,0,0,0,3.19-3.1,1.47,1.47,0,0,0,.08-.2H36c.9,1.6,2.7,2.85,4.3,4,.41.29.81.56,1.15.82,2.7,2,4.26,4.43,4.26,10.73a25,25,0,0,0,.44,5.1,1.49,1.49,0,0,0,.49,1.78c.13.38.26.71.38,1a5.54,5.54,0,0,1,.29.82C46.51,63.06,42.79,64.38,32.6,64.38Zm-6.16-32L26.12,32l-.24-.25a2,2,0,0,0,1.25,0,3,3,0,0,0,1.71-1.92c.52-1.14.76-1.38,1.33-1.38a7.81,7.81,0,0,1,1.92,1.06c1.41.93,3,2,4.32.81A4.62,4.62,0,0,1,38.77,29a3.3,3.3,0,0,0,2.12,1.92l-.38.28a14.35,14.35,0,0,0-3.92,4H28.68A12.73,12.73,0,0,0,26.45,32.36ZM54.26,34.5V57.92H49a23,23,0,0,1-.32-4.19c0-6.5-1.53-10.18-5.46-13.13-.37-.28-.8-.58-1.25-.88a16.26,16.26,0,0,1-3.08-2.51,11,11,0,0,1,3.32-3.53C44.57,32,44.89,30.33,44.93,30a1.5,1.5,0,0,0-.38-1.19,1.53,1.53,0,0,0-1.15-.5A3.93,3.93,0,0,1,41.59,28a2.78,2.78,0,0,0-1.94-1.86c-1.36-.36-3.05.21-4.8,1.64-.32-.17-.78-.48-1.11-.7a7.1,7.1,0,0,0-3.57-1.55,4.39,4.39,0,0,0-4,3.06,4.2,4.2,0,0,0-3.66-.15,2.09,2.09,0,0,0-1.1,1.83c0,1.27.94,2.21,1.93,3.21l.63.64.36.37a8.88,8.88,0,0,1,2,2.76c-.35.62-.85,1-2.09,1.8-.61.4-1.36.91-2.25,1.58-3.93,2.95-5.46,6.63-5.46,13.13a22.94,22.94,0,0,1-.32,4.19H11.49V34.77a1.51,1.51,0,0,0,0-.3L32.88,13,54.27,34.44S54.26,34.48,54.26,34.5Zm6,1.67L33.94,9.87a1.5,1.5,0,0,0-2.12,0L5.5,36.18,3.43,33.05,32.88,3.6,45.62,16.34h0l16.7,16.7Z"/><path class="cls-1" d="M33.61,50.38l-.61-.3L32.78,50l-.07,0c-1.57-.78-1.79-1-1.79-1.72,0-.34,0-.86,1.67-.86.84,0,1.23.23,1.29.39a1.5,1.5,0,0,0,3-.31,3.42,3.42,0,0,0-2.73-2.87V43.3a1.5,1.5,0,0,0-3,0v1.2a3.66,3.66,0,0,0-3.21,3.73c0,2.69,1.92,3.64,3.46,4.41l.53.26.18.07.2.1c1.79.89,2.18,1.18,2.18,2.17,0,.45,0,1.21-2.13,1.21-1.23,0-1.65-.39-1.7-.62a.35.35,0,0,1,0,.09l-3,.22a3.8,3.8,0,0,0,3.48,3.22V60a1.5,1.5,0,0,0,3,0v-.71a4,4,0,0,0,3.33-4C37.45,52.29,35.32,51.23,33.61,50.38Z"/></g></g></svg>