<svg xmlns="http://www.w3.org/2000/svg" viewBox="0 0 65.21 64.28"><defs><style>.cls-1{fill:#455a64;}</style></defs><title>HomeImprovements</title><g id="Layer_2" data-name="Layer 2"><g id="Layer_8" data-name="Layer 8"><path class="cls-1" d="M46.34,27.06a3.31,3.31,0,0,1,2.86-.79,13.68,13.68,0,0,0,10.56-2.38,13.13,13.13,0,0,0,5.34-9.08,10.34,10.34,0,0,0-.61-5.47,2.8,2.8,0,0,0-1.95-1.61,2.58,2.58,0,0,0-2.28.59c-.75.67-1.47,1.36-2.17,2-.52.5-1,1-1.57,1.5-.28.26-.55.54-.81.82l-.51.53a1.84,1.84,0,0,1-1.55.49,10.25,10.25,0,0,1-2.36-2.28A1.7,1.7,0,0,1,51.72,10h0L53.39,8.3c1-1,1.94-1.91,2.88-2.9a3.08,3.08,0,0,0,1-3.16,3.15,3.15,0,0,0-2.76-2,14,14,0,0,0-7.09.42,13.22,13.22,0,0,0-9,14.29c0,.29.07.57.12.86a3.11,3.11,0,0,1-.77,2.64c-3.7,4-7.11,7.11-8.7,8h0c-1.51-1.53-4.95-5-12.92-13,0-.29,0-.72,0-1.19,0-.77,0-2,0-2.35a4.65,4.65,0,0,0-2-4.32c-1.11-.88-2.2-1.78-3.3-2.69L9,1.37,8.8,1.22A3.43,3.43,0,0,0,7.32.36,3.18,3.18,0,0,0,4.49.78c-.27.25-.56.48-.84.72A11.62,11.62,0,0,0,.52,5,2.81,2.81,0,0,0,.87,8.11L2.12,9.62c1.4,1.69,2.85,3.44,4.45,5.17A3.48,3.48,0,0,0,9,15.89c.68,0,1.38,0,2.11,0,.3,0,.66-.07,1-.13a7,7,0,0,1,1.86-.13c6.77,6.79,11.1,11.13,12.92,13l-9.6,9.68L15.84,38A13.43,13.43,0,0,0,1,46.19a12.16,12.16,0,0,0-.48,8.15,3,3,0,0,0,2,2.16,3,3,0,0,0,2.86-.79c.41-.35.79-.73,1.17-1.11s.47-.48.72-.7c.48-.44.94-.91,1.4-1.39s.84-.87,1.29-1.28a2.36,2.36,0,0,1,2-.6,2.29,2.29,0,0,1,1.94,1.85l0,.15a2.24,2.24,0,0,1-.64,2l-1.9,1.89-.67.67c-.69.68-1.4,1.38-2.07,2.13a2.67,2.67,0,0,0,1.11,4.44,6.65,6.65,0,0,0,1.2.33,15.32,15.32,0,0,0,2.53.21,13.44,13.44,0,0,0,9.49-3.77A13,13,0,0,0,26.72,49.4c-.1-.71-.22-1.42-.35-2.16l-.06-.33c1.62-1.73,3.25-3.42,5.08-5,.48.43.94.85,1.38,1.28l2.77,2.73c7,7.12,15,15,17.07,16.84l.12.13a3.87,3.87,0,0,0,4.57,1,11.69,11.69,0,0,0,7.54-8A3.62,3.62,0,0,0,64,52.36c-.56-.58-1.11-1.16-1.67-1.72L61,49.32l-5.12-5.08C52.24,40.67,47,35.48,42.69,31.19l-.22-.25C43.69,29.65,45,28.32,46.34,27.06ZM13.19,9.62c0,.44,0,1.35,0,2.7,0,.09,0,.18,0,.27-.49,0-1,.11-1.42.17s-.59.09-.82.11c-.59,0-1.22,0-1.84,0a.47.47,0,0,1-.33-.14c-1.54-1.66-3-3.38-4.34-5L3.24,6.27A9.39,9.39,0,0,1,5.58,3.8l.68-.58.31,0,.26.22.25.21L9,5.24c1.11.92,2.22,1.83,3.34,2.72C13.11,8.61,13.24,9.07,13.19,9.62ZM23.62,45.41a1.5,1.5,0,0,0-.38,1.27l.18,1.07c.12.71.24,1.39.33,2.08a10,10,0,0,1-3,8.54,10.62,10.62,0,0,1-9.42,2.75L11,61c.54-.58,1.11-1.14,1.7-1.73l.68-.68,1.89-1.88A5.25,5.25,0,0,0,16.8,52.1l0-.15A5.36,5.36,0,0,0,7.86,49c-.49.45-.95.92-1.4,1.39s-.84.87-1.28,1.27c-.28.26-.54.52-.81.79s-.64.65-1,.94l0,0a9.12,9.12,0,0,1,.41-6.16,10.42,10.42,0,0,1,11.55-6.36l1.7.31.61.11A1.49,1.49,0,0,0,19,40.94l5.73-5.77h0a1.51,1.51,0,0,0,.35-.07c1,1.09,2.52,2.66,4.33,4.53A80,80,0,0,0,23.62,45.41Zm29-.17,6.3,6.23,1.5,1.5a1.5,1.5,0,0,0,.21.2l1.23,1.27A.62.62,0,0,1,62,55a8.72,8.72,0,0,1-5.71,6c-.61.23-.89.18-1.1,0a1.49,1.49,0,0,0-.4-.42l-.05,0c-.28-.3-.58-.58-.88-.86l-.51-.49L48.9,54.86,37.28,43.39c-4.14-4.2-7.9-8.07-9.9-10.22L34,26.7c1.24,1.28,3.41,3.47,6.51,6.55.26.3.53.58.81.87ZM40.34,28.84C38.5,27,37,25.47,36.08,24.54c1.59-1.54,3.06-3.09,3.93-4a6.09,6.09,0,0,0,1.53-5.17c0-.23-.07-.47-.1-.71a10.16,10.16,0,0,1,7-11.11A11.12,11.12,0,0,1,54,3.22l.17,0-.07.08c-.92,1-1.87,1.9-2.82,2.83L49.61,7.83h0a4.69,4.69,0,0,0-1.24,4.25c.3,1.48,3.31,4.27,4.6,4.52a4.83,4.83,0,0,0,4.33-1.27c.2-.2.4-.4.59-.61s.43-.46.67-.67c.55-.51,1.09-1,1.63-1.55s1.12-1.09,1.7-1.62a7.6,7.6,0,0,1,.24,3.55,10.16,10.16,0,0,1-4.13,7,10.54,10.54,0,0,1-8.26,1.85,6.3,6.3,0,0,0-5.42,1.54C42.9,26.15,41.57,27.52,40.34,28.84Z"/></g></g></svg>