<svg xmlns="http://www.w3.org/2000/svg" viewBox="0 0 66.55 53.96"><defs><style>.cls-1{fill:#455a64;}</style></defs><title>Hotel</title><g id="Layer_2" data-name="Layer 2"><g id="Layer_8" data-name="Layer 8"><path class="cls-1" d="M64.18,43A30.47,30.47,0,0,0,38,13.11V8.81a1.5,1.5,0,0,0-1.5-1.5H34.71V3.2a1.48,1.48,0,0,0,0-.2h3.84a1.5,1.5,0,0,0,0-3H28.19a1.5,1.5,0,0,0,0,3h3.54a1.48,1.48,0,0,0,0,.2V7.31H30.12a1.5,1.5,0,0,0-1.5,1.5v4.45A30.48,30.48,0,0,0,3.34,42.6,4.6,4.6,0,0,0,0,47v2.36A4.61,4.61,0,0,0,4.6,54H61.94a4.61,4.61,0,0,0,4.6-4.6V47A4.59,4.59,0,0,0,64.18,43ZM31.62,10.31H35v2.54c-.4,0-.8,0-1.2,0-.72,0-1.43,0-2.13.08Zm-.15,5.61H36A27.46,27.46,0,0,1,61.17,42.4H6.34A27.46,27.46,0,0,1,31.47,15.92ZM63.55,49.36a1.61,1.61,0,0,1-1.6,1.6H4.6A1.61,1.61,0,0,1,3,49.36V47a1.61,1.61,0,0,1,1.6-1.6H61.94a1.61,1.61,0,0,1,1.6,1.6Z"/><path class="cls-1" d="M46.21,25.62A17.9,17.9,0,0,1,53.8,37.2a1.5,1.5,0,0,0,1.47,1.24l.27,0a1.5,1.5,0,0,0,1.21-1.74,20.77,20.77,0,0,0-9-13.63,1.5,1.5,0,0,0-1.53,2.58Z"/></g></g></svg>