<svg xmlns="http://www.w3.org/2000/svg" viewBox="0 0 66.71 65.94"><defs><style>.cls-1{fill:#455a64;}</style></defs><title>HouseTagPercent</title><g id="Layer_2" data-name="Layer 2"><g id="Layer_8" data-name="Layer 8"><path class="cls-1" d="M22,35.2a5.14,5.14,0,1,0,5.14,5.14A5.15,5.15,0,0,0,22,35.2Zm0,7.28a2.14,2.14,0,1,1,2.14-2.14A2.14,2.14,0,0,1,22,42.48Z"/><path class="cls-1" d="M11.14,34.67A5.14,5.14,0,1,0,6,29.53,5.15,5.15,0,0,0,11.14,34.67Zm0-7.28A2.14,2.14,0,1,1,9,29.53,2.14,2.14,0,0,1,11.14,27.39Z"/><path class="cls-1" d="M26.06,25.57a1.5,1.5,0,0,0-2.12,0l-17,16.79a1.5,1.5,0,0,0,2.11,2.13L26,27.69A1.5,1.5,0,0,0,26.06,25.57Z"/><path class="cls-1" d="M66.27,31.81l-8-8V9a1.5,1.5,0,0,0-1.5-1.5H48.64A1.5,1.5,0,0,0,47.14,9v3.65L34.9.44a1.5,1.5,0,0,0-2.12,0L22.45,10.76a1.43,1.43,0,0,0-.15.22L18.86,7.82A4.18,4.18,0,0,0,16,6.64a3.94,3.94,0,0,0-2.81,1.18l-12,11.42L1,19.32A4.08,4.08,0,0,0,0,22V52.27a4,4,0,0,0,4,4H9.45v8.18a1.5,1.5,0,0,0,1.5,1.5H56.72a1.5,1.5,0,0,0,1.5-1.5v-27l2.16,2.16a1.5,1.5,0,0,0,1.06.44h.15a1.5,1.5,0,0,0,1.1-.66l3.77-5.68A1.5,1.5,0,0,0,66.27,31.81ZM50.14,15.3V10.53h5.08V20.77L50.1,15.64A1.5,1.5,0,0,0,50.14,15.3ZM3,52.27V22a1.08,1.08,0,0,1,.25-.69l12-11.41A1,1,0,0,1,16,9.64h0a1.06,1.06,0,0,1,.77.34L29.14,21.37a1.08,1.08,0,0,1,.26.7v30.2a1,1,0,0,1-1,1H4A1,1,0,0,1,3,52.27ZM55.22,34.53V62.94H12.45V56.25h16a4,4,0,0,0,4-4V22.07a4.08,4.08,0,0,0-1.09-2.78l-.08-.08-1.84-1.7,4.45-4.45,21.4,21.4S55.22,34.5,55.22,34.53Zm6,1.67L34.9,9.88a1.5,1.5,0,0,0-2.12,0l-5.59,5.59h0L24.45,13a1.42,1.42,0,0,0,.12-.08l9.26-9.26L63.28,33.07Z"/><circle class="cls-1" cx="16.05" cy="15.77" r="1.56"/></g></g></svg>