<svg xmlns="http://www.w3.org/2000/svg" viewBox="0 0 65.75 65.92"><defs><style>.cls-1{fill:#455a64;}</style></defs><title>House</title><g id="Layer_2" data-name="Layer 2"><g id="Layer_8" data-name="Layer 8"><path class="cls-1" d="M65.31,31.8l-9.6-9.6V9a1.5,1.5,0,0,0-1.5-1.5H46.68A1.5,1.5,0,0,0,45.18,9v2.65L33.93.42a1.54,1.54,0,0,0-2.12,0L.44,31.8a1.5,1.5,0,0,0-.19,1.89L4,39.36a1.5,1.5,0,0,0,1.1.66,1.52,1.52,0,0,0,1.21-.43l2.16-2.16v27a1.5,1.5,0,0,0,1.5,1.5H55.76a1.5,1.5,0,0,0,1.5-1.5v-27l2.16,2.16a1.5,1.5,0,0,0,1.06.44h.15a1.5,1.5,0,0,0,1.1-.66l3.76-5.68A1.5,1.5,0,0,0,65.31,31.8ZM48.18,10.51h4.53V19.2l-4.53-4.53Zm6.08,24V62.92H11.49V34.77a1.5,1.5,0,0,0,0-.3L32.87,13l21.4,21.39S54.26,34.48,54.26,34.5Zm6,1.67L33.93,9.86a1.5,1.5,0,0,0-2.12,0L5.5,36.18,3.43,33.05,32.87,3.6,45.62,16.35h0l7.53,7.53h0l9.17,9.17Z"/></g></g></svg>