<svg xmlns="http://www.w3.org/2000/svg" viewBox="0 0 66.26 64.66"><defs><style>.cls-1{fill:#455a64;}</style></defs><title>HouseArrow</title><g id="Layer_2" data-name="Layer 2"><g id="Layer_8" data-name="Layer 8"><path class="cls-1" d="M28.86,11.75a1.48,1.48,0,0,0-.14-.33V3.2a1.5,1.5,0,0,0-1.5-1.5H22.58a1.5,1.5,0,0,0-1.5,1.5V4L17.55.44a1.5,1.5,0,0,0-2.12,0l-15,15a1.5,1.5,0,0,0,2.12,2.12l1.49-1.49V29.88a1.5,1.5,0,0,0,1.5,1.5H27.43a1.5,1.5,0,0,0,1.5-1.5V16.06l1.49,1.49a1.5,1.5,0,0,0,2.12-2.12Zm-4.77-7h1.63V8.6L24.08,7Zm1.84,23.68H7.05V13.06l9.44-9.44,9.44,9.44Z"/><path class="cls-1" d="M65.82,48.71,62.13,45a1.48,1.48,0,0,0-.14-.33V36.48a1.5,1.5,0,0,0-1.5-1.5H55.86a1.5,1.5,0,0,0-1.5,1.5v.77l-3.53-3.53a1.5,1.5,0,0,0-2.12,0l-15,15a1.5,1.5,0,1,0,2.12,2.12l1.49-1.49V63.16a1.5,1.5,0,0,0,1.5,1.5H60.7a1.5,1.5,0,0,0,1.5-1.5V49.33l1.49,1.49a1.5,1.5,0,0,0,2.12-2.12ZM57.36,38H59v3.9l-1.63-1.63ZM59.2,61.66H40.33V46.33l9.44-9.44,9.44,9.44Z"/><path class="cls-1" d="M37.64,6.73c.07,0,7-1.12,11.64,3.16,3.06,2.84,4.48,7.45,4.26,13.71l-2.41-2.41A1.5,1.5,0,0,0,49,23.31l4.82,4.82a1.5,1.5,0,0,0,2.12,0l4.64-4.64a1.5,1.5,0,0,0-2.12-2.12l-1.91,1.91c.17-7-1.59-12.22-5.26-15.61-5.71-5.28-13.82-4-14.16-3.9a1.5,1.5,0,0,0,.5,3Z"/><path class="cls-1" d="M28.54,57c-.07,0-7,1.12-11.64-3.16-3.06-2.84-4.48-7.45-4.26-13.71l2.41,2.41a1.5,1.5,0,0,0,2.12-2.12l-4.82-4.82a1.5,1.5,0,0,0-2.12,0L5.6,40.23a1.5,1.5,0,0,0,2.12,2.12l1.91-1.91c-.17,7,1.59,12.22,5.26,15.61a16.88,16.88,0,0,0,11.48,4.09A17.1,17.1,0,0,0,29,59.95a1.5,1.5,0,0,0-.5-3Z"/></g></g></svg>