<svg xmlns="http://www.w3.org/2000/svg" viewBox="0 0 67.03 33.21"><defs><style>.cls-1{fill:#455a64;}</style></defs><title>HouseDouble</title><g id="Layer_2" data-name="Layer 2"><g id="Layer_8" data-name="Layer 8"><path class="cls-1" d="M66.59,16.39l-3.94-3.94a1.49,1.49,0,0,0-.16-.38V3.3A1.5,1.5,0,0,0,61,1.8H56.05a1.5,1.5,0,0,0-1.5,1.5V4.35L50.62.42a1.54,1.54,0,0,0-2.12,0l-15,15-3-3a1.49,1.49,0,0,0-.16-.38V3.3a1.5,1.5,0,0,0-1.5-1.5H24a1.5,1.5,0,0,0-1.5,1.5V4.35L18.53.42a1.54,1.54,0,0,0-2.12,0l-16,16a1.5,1.5,0,1,0,2.12,2.12l1.76-1.76v15a1.5,1.5,0,0,0,1.5,1.5h23.3a1.5,1.5,0,0,0,1.5-1.5v-15l1.76,1.76a1.75,1.75,0,0,0,2.28,0l1.76-1.76v15a1.5,1.5,0,0,0,1.5,1.5H61.21a1.5,1.5,0,0,0,1.5-1.5v-15l1.76,1.76a1.5,1.5,0,0,0,2.12-2.12Zm-9-11.59h1.93V9.29L57.55,7.35Zm-32.09,0h1.93V9.29L25.46,7.35Zm2.16,25.41H7.32V13.75L17.47,3.6,27.61,13.75Zm32.09,0H39.41V13.75L49.56,3.6,59.71,13.75Z"/></g></g></svg>