<svg xmlns="http://www.w3.org/2000/svg" viewBox="0 0 65.75 65.94"><defs><style>.cls-1{fill:#455a64;}</style></defs><title>HouseStar</title><g id="Layer_2" data-name="Layer 2"><g id="Layer_8" data-name="Layer 8"><path class="cls-1" d="M65.31,31.81l-8-8V9a1.5,1.5,0,0,0-1.5-1.5H47.68A1.5,1.5,0,0,0,46.18,9v3.65L33.94.44a1.5,1.5,0,0,0-2.12,0L.44,31.81A1.5,1.5,0,0,0,.25,33.7L4,39.38a1.5,1.5,0,0,0,2.31.23l2.16-2.16v27a1.5,1.5,0,0,0,1.5,1.5H55.76a1.5,1.5,0,0,0,1.5-1.5v-27l2.16,2.16a1.5,1.5,0,0,0,1.06.44h.15a1.5,1.5,0,0,0,1.1-.66L65.5,33.7A1.5,1.5,0,0,0,65.31,31.81ZM49.18,15.3V10.53h5.08V20.77l-5.12-5.12A1.49,1.49,0,0,0,49.18,15.3Zm5.08,19.22V62.94H11.49V34.79a1.5,1.5,0,0,0,0-.3L32.88,13.06l21.39,21.4S54.26,34.5,54.26,34.53Zm6,1.67L33.94,9.88a1.5,1.5,0,0,0-2.12,0L5.5,36.2,3.43,33.07,32.88,3.62,62.32,33.07Z"/><path class="cls-1" d="M31.3,27.57l-3.06,6.19-6.83,1a2.34,2.34,0,0,0-1.29,4l4.94,4.82-1.17,6.8a2.34,2.34,0,0,0,3.39,2.46l6.11-3.21,6.11,3.21a2.34,2.34,0,0,0,3.39-2.46l-1.17-6.8,4.94-4.82a2.34,2.34,0,0,0-1.29-4l-6.83-1-3.06-6.19h0a2.32,2.32,0,0,0-2.09-1.3h0A2.32,2.32,0,0,0,31.3,27.57Zm2.1,2.53L36,35.4a2.34,2.34,0,0,0,1.76,1.28l5.85.85-4.23,4.12a2.34,2.34,0,0,0-.67,2.07l1,5.82-5.23-2.75a2.34,2.34,0,0,0-2.17,0l-5.23,2.75,1-5.82a2.33,2.33,0,0,0-.67-2.07l-4.23-4.12L29,36.68a2.34,2.34,0,0,0,1.76-1.28Z"/></g></g></svg>