<svg xmlns="http://www.w3.org/2000/svg" viewBox="0 0 63.67 69.48"><defs><style>.cls-1{fill:#455a64;}</style></defs><title>InsuranceHome</title><g id="Layer_2" data-name="Layer 2"><g id="Layer_8" data-name="Layer 8"><path class="cls-1" d="M38.41,56.39a55.11,55.11,0,0,1-6.58,3.25,53.85,53.85,0,0,1-13.69-8.23,26.49,26.49,0,0,1-7.75-10.2,1.5,1.5,0,1,0-2.79,1.1,29.43,29.43,0,0,0,8.6,11.38,55.79,55.79,0,0,0,15.12,9,1.5,1.5,0,0,0,1,0A54,54,0,0,0,39.91,59a1.5,1.5,0,0,0-1.5-2.6Z"/><path class="cls-1" d="M62.71,5.95C62.08,5.71,47.09,0,31.83,0S1.59,5.71,1,5.95a1.5,1.5,0,0,0-1,1.4V34.74c0,9.5,5.46,18.53,15.78,26.09a70.56,70.56,0,0,0,15.53,8.56,1.5,1.5,0,0,0,1,0,70.56,70.56,0,0,0,15.53-8.56c10.32-7.56,15.78-16.59,15.78-26.09V7.35A1.5,1.5,0,0,0,62.71,5.95Zm-2,28.79c0,19.17-24.89,30-28.83,31.63C27.89,64.77,3,53.94,3,34.74V8.4C6.54,7.15,19.27,3,31.83,3S57.13,7.15,60.67,8.4Z"/><path class="cls-1" d="M13.2,28.3a1.5,1.5,0,0,0,2.12,2.12l2.24-2.24v17a1.5,1.5,0,0,0,1.5,1.5H44.94a1.5,1.5,0,0,0,1.5-1.5v-17l2.24,2.24a1.5,1.5,0,0,0,2.12-2.12l-4.38-4.38a1.5,1.5,0,0,0,0-.23v-10a1.5,1.5,0,0,0-1.5-1.5H39.21a1.5,1.5,0,0,0-1.5,1.5v1.57l-4.65-4.65a1.5,1.5,0,0,0-2.12,0Zm27.5-10.09V15.14h2.73v5.8l-2.73-2.73Zm2.73,7V43.7H20.56V25.19L32,13.75Z"/><path class="cls-1" d="M30.29,31.17l.65.33a1.48,1.48,0,0,0,.23.08l.23.11c2.11,1,2.84,1.49,2.84,2.94,0,.59,0,1.81-2.93,1.81-2.1,0-2.37-.88-2.39-1a1.52,1.52,0,0,0-1.6-1.33,1.5,1.5,0,0,0-1.39,1.6C26,36.87,27,39,30.17,39.37v1a1.5,1.5,0,0,0,3,0V39.28a4.5,4.5,0,0,0,4.06-4.64c0-3.39-2.39-4.58-4.5-5.63L32,28.64a1.5,1.5,0,0,0-.27-.11l-.09,0c-1.92-1-2.37-1.29-2.37-2.4,0-.48,0-1.38,2.36-1.38,1.38,0,1.84.46,1.9.74a.38.38,0,0,1,0-.08l3-.22a3.89,3.89,0,0,0-3.34-3.28V20.08a1.5,1.5,0,1,0-3,0v1.74a4.2,4.2,0,0,0-3.91,4.27C26.26,29.17,28.4,30.23,30.29,31.17Z"/></g></g></svg>