<svg xmlns="http://www.w3.org/2000/svg" viewBox="0 0 63.67 69.48"><defs><style>.cls-1{fill:#455a64;}</style></defs><title>Insurance</title><g id="Layer_2" data-name="Layer 2"><g id="Layer_8" data-name="Layer 8"><path class="cls-1" d="M62.71,5.95C62.08,5.71,47.09,0,31.83,0S1.59,5.71,1,5.95a1.5,1.5,0,0,0-1,1.4V34.74c0,9.5,5.46,18.53,15.78,26.09a70.56,70.56,0,0,0,15.53,8.56,1.5,1.5,0,0,0,1,0,70.56,70.56,0,0,0,15.53-8.56c10.32-7.56,15.78-16.59,15.78-26.09V7.35A1.5,1.5,0,0,0,62.71,5.95Zm-2,28.79c0,19.17-24.89,30-28.83,31.63C27.89,64.77,3,53.94,3,34.74V8.4C6.54,7.15,19.27,3,31.83,3S57.13,7.15,60.67,8.4Z"/><path class="cls-1" d="M7.14,11.14a1.5,1.5,0,0,0-1,1.41V34.74c0,7.68,4.39,15,12.71,21.05a56.63,56.63,0,0,0,12.46,6.86,1.5,1.5,0,0,0,1,0,56.63,56.63,0,0,0,12.46-6.86c8.32-6.09,12.71-13.37,12.71-21.05V12.56a1.5,1.5,0,0,0-1-1.41A88.14,88.14,0,0,0,39.41,7.22a1.5,1.5,0,1,0-.37,3,88,88,0,0,1,15.48,3.44v21.1c0,14.93-19.25,23.49-22.69,24.9-3.44-1.41-22.69-10-22.69-24.9V13.64A82.67,82.67,0,0,1,30.33,9.75V52.29a1.5,1.5,0,0,0,3,0V8.23a1.5,1.5,0,0,0-1.5-1.5C19.62,6.73,7.64,11,7.14,11.14Z"/></g></g></svg>