<svg xmlns="http://www.w3.org/2000/svg" viewBox="0 0 63.67 69.48"><defs><style>.cls-1{fill:#455a64;}</style></defs><title>InsuranceAuto</title><g id="Layer_2" data-name="Layer 2"><g id="Layer_8" data-name="Layer 8"><path class="cls-1" d="M38.41,56.39a55.11,55.11,0,0,1-6.58,3.25,53.85,53.85,0,0,1-13.69-8.23,26.49,26.49,0,0,1-7.75-10.2,1.5,1.5,0,1,0-2.79,1.1,29.43,29.43,0,0,0,8.6,11.38,55.79,55.79,0,0,0,15.12,9,1.5,1.5,0,0,0,1,0A54,54,0,0,0,39.91,59a1.5,1.5,0,0,0-1.5-2.6Z"/><path class="cls-1" d="M62.71,5.95C62.08,5.71,47.09,0,31.83,0S1.59,5.71,1,5.95a1.5,1.5,0,0,0-1,1.4V34.74c0,9.5,5.46,18.53,15.78,26.09a70.56,70.56,0,0,0,15.53,8.56,1.5,1.5,0,0,0,1,0,70.56,70.56,0,0,0,15.53-8.56c10.32-7.56,15.78-16.59,15.78-26.09V7.35A1.5,1.5,0,0,0,62.71,5.95Zm-2,28.79c0,19.17-24.89,30-28.83,31.63C27.89,64.77,3,53.94,3,34.74V8.4C6.54,7.15,19.27,3,31.83,3S57.13,7.15,60.67,8.4Z"/><path class="cls-1" d="M21,15.93l0,.1L18.75,21.3a1.4,1.4,0,0,0-.57-.12H16a1.41,1.41,0,0,0-1.41,1.41v.71a.71.71,0,0,0,.71.71h1.46a4.25,4.25,0,0,0-1.46,3.11v8.52a2.1,2.1,0,0,0,.36,1.17V41A2.44,2.44,0,0,0,18,43.41h4.29a1.81,1.81,0,0,0,1.39-.58,2,2,0,0,0,.43-1.65c0-.06,0-.13,0-.2V38.51L40,38.57V41a2.44,2.44,0,0,0,2.44,2.44h3.66A2.44,2.44,0,0,0,48.51,41V36.92A2.1,2.1,0,0,0,49,35.63V27.11A4.25,4.25,0,0,0,47.5,24h1.61a.71.71,0,0,0,.71-.71v-.71a1.41,1.41,0,0,0-1.41-1.41H46.18a1.4,1.4,0,0,0-.69.19L43.28,16l0-.1A3.54,3.54,0,0,0,40.09,14h-16A3.54,3.54,0,0,0,21,15.93ZM43.82,25.5c1,0,2.14.86,2.14,1.61v7.76l-4.5.71L22.68,35.5l-4.42-.64V27.11c0-.75,1.14-1.61,2.14-1.61ZM18.61,40.41V37.94l2.54.37v2.1Zm24.37,0v-2l2.54-.4v2.43ZM40.53,17.24l2.18,5.27H21.5l2.18-5.27a.52.52,0,0,1,.44-.25h16A.52.52,0,0,1,40.53,17.24Z"/><circle class="cls-1" cx="22.4" cy="29.74" r="2.61"/><circle class="cls-1" cx="41.86" cy="29.74" r="2.61"/></g></g></svg>