<svg xmlns="http://www.w3.org/2000/svg" viewBox="0 0 68.83 67.34"><defs><style>.cls-1{fill:#455a64;}</style></defs><title>Key</title><g id="Layer_2" data-name="Layer 2"><g id="Layer_8" data-name="Layer 8"><path class="cls-1" d="M67.21,21.3,47.78,1.63A6.21,6.21,0,0,0,39.07,2L22.38,18.47A6.23,6.23,0,0,0,22,27.19l3.16,3.18L.44,56.58A1.73,1.73,0,0,0,0,57.68v6.67a3,3,0,0,0,3.45,3L9,66.46a7.57,7.57,0,0,0,5.81-4.55l.35-.84a4.55,4.55,0,0,1,3-2.64l.11,0A7.53,7.53,0,0,0,23.68,53l.07-.26a4.55,4.55,0,0,1,3.06-3.19L28.66,49A7.53,7.53,0,0,0,32,46.89l4.37-4.78.33,0L41.4,46.8a5.59,5.59,0,0,0,4,1.68h.08a6.69,6.69,0,0,0,4.63-1.94L66.82,30a6.66,6.66,0,0,0,2-4.66A5.67,5.67,0,0,0,67.21,21.3Zm-2.5,6.58L48,44.39a3.65,3.65,0,0,1-2.57,1.08,2.63,2.63,0,0,1-1.88-.78l-5.18-5.22A1.52,1.52,0,0,0,37.19,39l-1.61.13a1.5,1.5,0,0,0-1,.48l-4.77,5.22a4.52,4.52,0,0,1-2,1.27l-1.85.56A7.57,7.57,0,0,0,20.85,52l-.07.26a4.53,4.53,0,0,1-3.24,3.24l-.11,0a7.57,7.57,0,0,0-5,4.39l-.35.84a4.56,4.56,0,0,1-3.49,2.73L3,64.35v0a1.48,1.48,0,0,0,.94-.42L29.1,38.76A1.5,1.5,0,0,0,27,36.64l-24,24V58.23L28.3,31.37a1.5,1.5,0,0,0,0-2.08l-4.17-4.2a3.23,3.23,0,0,1,.38-4.49L41.18,4.09a3.22,3.22,0,0,1,4.47-.34L65.07,23.41h0a2.69,2.69,0,0,1,.76,1.93A3.65,3.65,0,0,1,64.71,27.88Z"/><path class="cls-1" d="M48.18,13.75a5.67,5.67,0,1,0,5.67,5.67A5.67,5.67,0,0,0,48.18,13.75Zm0,8.33a2.67,2.67,0,1,1,2.67-2.67A2.67,2.67,0,0,1,48.18,22.08Z"/></g></g></svg>