<svg xmlns="http://www.w3.org/2000/svg" viewBox="0 0 65.34 59.02"><defs><style>.cls-1{fill:#455a64;}</style></defs><title>Leaf</title><g id="Layer_2" data-name="Layer 2"><g id="Layer_8" data-name="Layer 8"><path class="cls-1" d="M64.19,2.19C56.05.24,35.36-3.21,19,6.81,9,12.89,4.07,23.33,6.13,34.12c1.7,7.07,5.72,9.56,8.67,11.37C12.37,53,9.55,56.89,1.7,55.85a1.5,1.5,0,1,0-.4,3,21,21,0,0,0,2.79.2c7.83,0,11-5.15,13.28-11.68A23.08,23.08,0,0,0,27.9,51c.7.06,1.39.09,2.06.09,9.36,0,16-5.67,19.28-16.5a50.48,50.48,0,0,0,1.91-9.15,32.73,32.73,0,0,1,1.3-6.37,23.9,23.9,0,0,1,4-7.48,22.39,22.39,0,0,1,3.41-3.42l.54-.46a17.05,17.05,0,0,1,3.42-2.6h.05a1.5,1.5,0,0,0,.35-3ZM58.4,5.48l-.48.41a25.31,25.31,0,0,0-3.86,3.88,26.89,26.89,0,0,0-4.45,8.4,35.7,35.7,0,0,0-1.43,6.91,47.36,47.36,0,0,1-1.81,8.67C43.27,44,37.15,48.81,28.15,48a20.87,20.87,0,0,1-9.84-3.66c.3-1,.59-2,.88-3.08,1.51-5.39,3.22-11.49,6.69-16.51,3-4.32,7.93-7.77,14.71-10.24a1.5,1.5,0,1,0-1-2.82c-7.37,2.69-12.8,6.51-16.14,11.35-3.76,5.44-5.54,11.8-7.11,17.41q-.29,1-.58,2a13.21,13.21,0,0,1-6.65-9C7.25,24,11.64,14.78,20.52,9.37c13.39-8.17,30-6.78,39.25-5.05Q59.14,4.84,58.4,5.48Z"/></g></g></svg>