<svg xmlns="http://www.w3.org/2000/svg" viewBox="0 0 42.14 65.9"><defs><style>.cls-1{fill:#455a64;}</style></defs><title>LightBulb</title><g id="Layer_2" data-name="Layer 2"><g id="Layer_8" data-name="Layer 8"><path class="cls-1" d="M21.07,0A21.09,21.09,0,0,0,0,21.07,20.86,20.86,0,0,0,3.87,33.22C6.1,37,9.81,43.92,9.81,48.77v.29a2.14,2.14,0,0,0,1,1.81v3.38a1.5,1.5,0,0,0-.8,1.51,1.48,1.48,0,0,0,.8,1.13v2.37A1.49,1.49,0,0,0,11,62a5.51,5.51,0,0,0,5.27,3.92H25.9a5.51,5.51,0,0,0,5.5-5.5v-.83a1.49,1.49,0,0,0,0-2.68V54.58a1.49,1.49,0,0,0,0-2.68V50.82a2.14,2.14,0,0,0,.93-1.76v-.29c0-5.53,4.67-13.36,6.16-15.85A21.06,21.06,0,0,0,21.07,0ZM28.4,57,13.81,58.78v-2L28.4,55Zm0-5L13.81,53.78V51.27H28.4ZM25.9,62.9H16.31a2.49,2.49,0,0,1-2.1-1.15L28.4,60v.37A2.5,2.5,0,0,1,25.9,62.9ZM36,31.3c-2.75,4.61-6.38,11.31-6.62,16.9H12.8C12.57,43,9.23,36.34,6.41,31.63l-.07-.1A17.88,17.88,0,0,1,3,21.07,18.07,18.07,0,1,1,36,31.3Z"/></g></g></svg>