<svg xmlns="http://www.w3.org/2000/svg" viewBox="0 0 60.73 71.38"><defs><style>.cls-1{fill:#455a64;}</style></defs><title>LoanExplorer</title><g id="Layer_2" data-name="Layer 2"><g id="Layer_8" data-name="Layer 8"><path class="cls-1" d="M52.95,31.49A24.56,24.56,0,1,0,54.88,41,24.46,24.46,0,0,0,52.95,31.49Zm-2.76,17.9a21.52,21.52,0,0,1-39.65,0,21.56,21.56,0,0,1,0-16.73A21.6,21.6,0,0,1,22,21.2a21.56,21.56,0,0,1,16.73,0A21.6,21.6,0,0,1,50.19,32.66a21.56,21.56,0,0,1,0,16.73Z"/><path class="cls-1" d="M36.65,11.31a7.65,7.65,0,1,0-13.33.18,30.35,30.35,0,1,0,13.33-.18ZM25.28,7.65a4.65,4.65,0,1,1,8.05,3.15c-1-.1-2-.15-3-.15a30.49,30.49,0,0,0-3.76.24A4.62,4.62,0,0,1,25.28,7.65Zm5.08,60.73A27.36,27.36,0,1,1,57.73,41,27.39,27.39,0,0,1,30.36,68.38Z"/><path class="cls-1" d="M39.87,25.44l-12.7,9.35h0a6.34,6.34,0,1,0,9,6.59,1.46,1.46,0,0,0,.13-.22l5.85-13.93a1.5,1.5,0,0,0-2.27-1.79Zm-10,18.42a3.34,3.34,0,1,1,3.35-3.34A3.35,3.35,0,0,1,29.87,43.86Zm5-7.18a6.38,6.38,0,0,0-2.55-2l4.91-3.61Z"/><path class="cls-1" d="M29.92,29.5a1.5,1.5,0,0,0,1.5-1.5V22.64a1.5,1.5,0,0,0-3,0V28A1.5,1.5,0,0,0,29.92,29.5Z"/><path class="cls-1" d="M29.92,55.07a1.5,1.5,0,0,0-1.5,1.5v2.89a1.5,1.5,0,0,0,3,0V56.57A1.5,1.5,0,0,0,29.92,55.07Z"/><path class="cls-1" d="M48.33,39.55H44.69a1.5,1.5,0,0,0,0,3h3.64a1.5,1.5,0,1,0,0-3Z"/><path class="cls-1" d="M14.4,39.55H11.51a1.5,1.5,0,0,0,0,3H14.4a1.5,1.5,0,1,0,0-3Z"/></g></g></svg>