<svg xmlns="http://www.w3.org/2000/svg" viewBox="0 0 50.44 67.85"><defs><style>.cls-1{fill:#455a64;}</style></defs><title>Lock</title><g id="Layer_2" data-name="Layer 2"><g id="Layer_8" data-name="Layer 8"><path class="cls-1" d="M48.21,29h-4V18.26C44.62,11.28,42,7,39.76,4.6A14.64,14.64,0,0,0,29.19,0H21.4A14.65,14.65,0,0,0,10.83,4.6C8.58,7,6,11.28,6.35,18.18V29H2.22A2.23,2.23,0,0,0,0,31.23V65.62a2.23,2.23,0,0,0,2.22,2.23h46a2.23,2.23,0,0,0,2.23-2.23V31.23A2.23,2.23,0,0,0,48.21,29ZM9.35,18.1C9,12.18,11.17,8.62,13,6.67A11.63,11.63,0,0,1,21.4,3h7.79a11.63,11.63,0,0,1,8.39,3.66c1.85,2,4,5.52,3.66,11.52V29H36.48V19.74c.25-4.59-1.36-7.3-2.75-8.77a8.37,8.37,0,0,0-6.14-2.63H23A8.37,8.37,0,0,0,16.87,11c-1.39,1.47-3,4.18-2.75,8.69V29H9.35ZM17.12,29V19.58C17,16.79,17.63,14.53,19,13a5.4,5.4,0,0,1,4-1.7h4.59a5.4,5.4,0,0,1,4,1.69c1.41,1.49,2.08,3.76,1.93,6.63V29ZM47.44,64.85H3V32H47.44Z"/><path class="cls-1" d="M24,52.72v5.17a1.5,1.5,0,0,0,3,0V52.74a7.32,7.32,0,1,0-3,0Zm1.54-11.46a4.31,4.31,0,1,1-4.31,4.31A4.32,4.32,0,0,1,25.53,41.26Z"/></g></g></svg>