<svg xmlns="http://www.w3.org/2000/svg" viewBox="0 0 49.34 67.46"><defs><style>.cls-1{fill:#455a64;}</style></defs><title>MapPin</title><g id="Layer_2" data-name="Layer 2"><g id="Layer_8" data-name="Layer 8"><path class="cls-1" d="M24.67,0A24.63,24.63,0,0,0,0,24.53,23.22,23.22,0,0,0,2.78,35.81a1.53,1.53,0,0,0,.13.35l.55,1,.06.09a21.33,21.33,0,0,0,1.28,2l18.06,27.2a2.16,2.16,0,0,0,1.81,1h0a2.16,2.16,0,0,0,1.81-1l18-27a16.31,16.31,0,0,0,1-1.58l.38-.66.05-.09.5-1a1.33,1.33,0,0,0,.12-.32,23.11,23.11,0,0,0,2.79-11.26A24.65,24.65,0,0,0,24.67,0ZM43.74,34.68a1.49,1.49,0,0,0-.2.53l-.26.5-.4.68a14.51,14.51,0,0,1-.84,1.35L24.67,63.79,7.25,37.56a19.49,19.49,0,0,1-1.14-1.79l-.31-.58a1.48,1.48,0,0,0-.2-.51A19.86,19.86,0,0,1,3,24.53a21.67,21.67,0,0,1,43.34.06A19.77,19.77,0,0,1,43.74,34.68Z"/><path class="cls-1" d="M24.67,8.81a16,16,0,1,0,16,16A16,16,0,0,0,24.67,8.81Zm0,28.91a13,13,0,1,1,13-13A13,13,0,0,1,24.67,37.72Z"/></g></g></svg>