<svg xmlns="http://www.w3.org/2000/svg" viewBox="0 0 54.49 65.6"><defs><style>.cls-1{fill:#455a64;}</style></defs><title>Medal</title><g id="Layer_2" data-name="Layer 2"><g id="Layer_8" data-name="Layer 8"><path class="cls-1" d="M54.48,1.5A1.5,1.5,0,0,0,53,0h0L1.5,0A1.5,1.5,0,0,0,0,1.53V21.06a1.5,1.5,0,0,0,.88,1.36L25,33.42l-4,8-9.05,1.31a2.58,2.58,0,0,0-1.43,4.4l6.55,6.38-1.55,9a2.58,2.58,0,0,0,3.74,2.72L27.36,61l8.1,4.26a2.58,2.58,0,0,0,3.74-2.72l-1.55-9,6.55-6.38a2.58,2.58,0,0,0-1.43-4.4l-9.05-1.31-4-8.13L53.61,22.4A1.5,1.5,0,0,0,54.49,21ZM27.25,31.16l-8.83-4a1.44,1.44,0,0,0,0-.15l0-24H36.23l0,24.06ZM3,3H15.46l0,22.75L3,20.1ZM33.07,44.4l8.43,1.22-6.1,5.95a2.58,2.58,0,0,0-.74,2.28l1.44,8.39-7.54-4a2.58,2.58,0,0,0-2.4,0l-7.54,4,1.44-8.39a2.58,2.58,0,0,0-.74-2.29l-6.1-5.94,8.43-1.22A2.58,2.58,0,0,0,23.59,43l3.77-7.64L31.13,43A2.58,2.58,0,0,0,33.07,44.4Zm6.14-18.71L39.23,3H51.48V20.07Z"/></g></g></svg>