<svg xmlns="http://www.w3.org/2000/svg" viewBox="0 0 68.85 63.12"><defs><style>.cls-1{fill:#455a64;}</style></defs><title>Medical</title><g id="Layer_2" data-name="Layer 2"><g id="Layer_8" data-name="Layer 8"><path class="cls-1" d="M67.71,11.74C66,11.33,64,9.42,61.9,7.4,58.44,4.1,54.15,0,48.59,0h-.24c-5.78.12-7.49,3.76-8.86,6.68-.94,2-1.75,3.72-3.64,4.53l-.17.1V9.7a3.87,3.87,0,1,0-3,0V11c-1.65-.86-2.43-2.49-3.31-4.36C28,3.76,26.29.12,20.5,0S10.46,4,7,7.39c-2.12,2-4.12,3.94-5.81,4.35A1.5,1.5,0,0,0,0,13.17c-.05,2.89,1.5,4.08,2.43,4.53a7.36,7.36,0,0,0,4.76.21,3.21,3.21,0,0,0,1.35,1.57c1.45.85,3.42.54,4.85.07a3.38,3.38,0,0,0,2.67,1.78A3.08,3.08,0,0,0,19,20a5.3,5.3,0,0,1,.35-.47,7,7,0,0,1,5.12-2.11c2.76.09,8,4.49,8.21,5.71,0,0,0,.06,0,.09v7.7l-2.18-.5a47.28,47.28,0,0,1-6.7-1.84,3.55,3.55,0,0,1-2.25-2.8,3,3,0,0,1,1.13-2.87,2.33,2.33,0,0,1,2-.47c2,.36,4.21,2.72,4.79,3.65A1.5,1.5,0,1,0,32,24.47c-.87-1.39-3.68-4.45-6.8-5a5.36,5.36,0,0,0-4.32,1.05,6,6,0,0,0-2.27,5.69,6.55,6.55,0,0,0,4.16,5.16A45.11,45.11,0,0,0,29,33.14c-.24.18-.48.36-.71.56a7.68,7.68,0,0,0-2.41,6.05,6.52,6.52,0,0,0,2.93,5.68c.35.23.73.43,1.11.64-3.41,1.26-6.39,2.9-6.72,6.35-.39,4.08,2.94,6.43,4.2,7.32l.21.15a1.5,1.5,0,0,0,1.77-2.43l-.24-.17c-1.57-1.11-3.14-2.52-2.94-4.58s2.66-3.12,6.44-4.41V61.62a1.5,1.5,0,0,0,3,0V48.31c3.77,1.26,6.07,2.23,6.26,4.18.23,2.35-1.91,3.86-2.94,4.58l-.24.17a1.5,1.5,0,0,0,1.77,2.43l.21-.15c1.25-.89,4.59-3.24,4.19-7.32-.32-3.37-3.21-4.92-6.48-6.12.27-.13.54-.26.79-.4a6.41,6.41,0,0,0,3-5.75c0-2-.29-4.43-2.51-6.12a12.11,12.11,0,0,0-1.11-.74,38.17,38.17,0,0,0,7.14-1.81,6.4,6.4,0,0,0,4-5.08,6,6,0,0,0-2.3-5.73,5.35,5.35,0,0,0-4.31-1c-3.12.57-5.92,3.62-6.79,5A1.5,1.5,0,1,0,38.89,26c.58-.92,2.77-3.28,4.78-3.65a2.34,2.34,0,0,1,2,.46,3,3,0,0,1,1.15,2.92,3.4,3.4,0,0,1-2.11,2.7,36.84,36.84,0,0,1-6.92,1.71l-2.08.39V23.13s0-.07,0-.1c.08-1.38,5.71-5.55,8.71-5.65a7,7,0,0,1,5.12,2.11,4.93,4.93,0,0,1,.45.62,2.59,2.59,0,0,0,2.19,1.24h0a3.47,3.47,0,0,0,3.27-1.81c1.43.47,3.41.79,4.85-.07a3.2,3.2,0,0,0,1.35-1.57,7.35,7.35,0,0,0,4.76-.21c.93-.45,2.48-1.63,2.43-4.53A1.5,1.5,0,0,0,67.71,11.74ZM34.16,5.27a.87.87,0,1,1-.87.87A.87.87,0,0,1,34.16,5.27Zm-9.61,9.12a10.09,10.09,0,0,0-7.49,3.15c-.19.22-.38.48-.63.81-.34,0-.43-.09-.71-1l-.08-.27a1.51,1.51,0,0,0-.94-.94,1.54,1.54,0,0,0-1.33.17c-.58.37-2.66,1-3.31.57-.16-.1-.17-.52-.14-.88a1.5,1.5,0,0,0-2.36-1.38c-.61.33-2.88.93-3.93.3a1.12,1.12,0,0,1-.52-.73C5.11,13.3,7,11.48,9,9.56,12.25,6.48,15.9,3,20.27,3h.17c3.93.08,4.88,2.13,6.21,5,1,2.23,2.23,4.76,5.18,6a1.49,1.49,0,0,0,.85.1v4.45C30.2,16.33,26.75,14.46,24.55,14.39Zm4.38,25.33a4.69,4.69,0,0,1,1.43-3.8,7.69,7.69,0,0,1,2.31-1.4V44a13.67,13.67,0,0,1-2.17-1.11A3.59,3.59,0,0,1,28.93,39.72Zm8.81,3.37a17.08,17.08,0,0,1-2.07,1V35a10.4,10.4,0,0,1,2.24,1.26c.79.6,1.32,1.46,1.33,3.73A3.52,3.52,0,0,1,37.74,43.08ZM65.22,14.94c-1,.63-3.31,0-3.92-.3A1.5,1.5,0,0,0,58.93,16c0,.36,0,.78-.14.88-.65.4-2.74-.2-3.31-.57a1.5,1.5,0,0,0-2.29.77l-.08.27c-.24.79-.33,1-.72,1a7.67,7.67,0,0,0-.62-.82,10,10,0,0,0-7.48-3.14c-2.25.07-6,1.85-8.63,4.06V13.88A1.5,1.5,0,0,0,37,14c2.95-1.26,4.13-3.79,5.18-6,1.33-2.83,2.28-4.87,6.2-5,4.49-.09,8.15,3.44,11.42,6.56,2,1.91,3.92,3.74,5.91,4.65A1.12,1.12,0,0,1,65.22,14.94Z"/></g></g></svg>