<svg xmlns="http://www.w3.org/2000/svg" viewBox="0 0 68.68 62.31"><defs><style>.cls-1{fill:#455a64;}</style></defs><title>Megaphone</title><g id="Layer_2" data-name="Layer 2"><g id="Layer_8" data-name="Layer 8"><path class="cls-1" d="M68,40.09,47.48,3A5.77,5.77,0,0,0,39.63.72l-.89.49A5.73,5.73,0,0,0,36,7.75a1.43,1.43,0,0,0-.21.15L6.14,40.83c-.11,0-.22-.1-.33-.13a4.16,4.16,0,0,0-3.18.36l-.46.25A4.18,4.18,0,0,0,.52,47l5.17,9.37A4.18,4.18,0,0,0,11.38,58l.46-.25a4.15,4.15,0,0,0,1.59-1.57l5-1.2A12.28,12.28,0,0,0,42,50c0-.22,0-.44,0-.66l3.81-.91a1.45,1.45,0,0,0,1.66-.4l9.38-2.24.19.34a5.73,5.73,0,0,0,3.45,2.76,5.8,5.8,0,0,0,1.61.23,5.74,5.74,0,0,0,2.78-.72l.89-.49A5.77,5.77,0,0,0,68,40.09Zm-57.57,15-.46.25a1.18,1.18,0,0,1-1.61-.46L3.15,45.54a1.18,1.18,0,0,1,.46-1.61l.46-.25a1.17,1.17,0,0,1,.57-.15,1.19,1.19,0,0,1,.33,0,1.17,1.17,0,0,1,.71.57l5.17,9.37A1.19,1.19,0,0,1,10.38,55.13Zm-2-12.3,21-23.31,1.64,3,12.7,23.36L13.84,53a4.19,4.19,0,0,0-.36-.93ZM29.68,59.31a9.28,9.28,0,0,1-8.25-5L39,50.07A9.29,9.29,0,0,1,29.68,59.31ZM46.89,45.09l-13.26-24-.25-.46h0l-1.91-3.45,5.88-6.53L55.27,43.09Zm17.35.21-.89.49a2.77,2.77,0,0,1-3.77-1.09L39.11,7.61A2.78,2.78,0,0,1,40.2,3.84l.89-.49A2.75,2.75,0,0,1,42.42,3a2.8,2.8,0,0,1,.77.11,2.76,2.76,0,0,1,1.66,1.33l20.48,37.1A2.78,2.78,0,0,1,64.24,45.3Z"/><path class="cls-1" d="M14.5,43.18a1.5,1.5,0,0,0,1.11-.49L29,28.1a1.5,1.5,0,0,0-2.21-2L13.4,40.67a1.5,1.5,0,0,0,1.11,2.51Z"/></g></g></svg>