<svg xmlns="http://www.w3.org/2000/svg" viewBox="0 0 55.33 60.21"><defs><style>.cls-1{fill:#455a64;}</style></defs><title>Menu</title><g id="Layer_2" data-name="Layer 2"><g id="Layer_8" data-name="Layer 8"><path class="cls-1" d="M52.33,6H3A3,3,0,0,1,3,0H52.33a3,3,0,0,1,0,6Z"/><path class="cls-1" d="M52.33,22.59H3a3,3,0,0,1,0-6H52.33a3,3,0,0,1,0,6Z"/><path class="cls-1" d="M52.33,39.17H3a3,3,0,0,1,0-6H52.33a3,3,0,0,1,0,6Z"/><path class="cls-1" d="M9.34,54.76c.11.25.22.5.32.76q.15-.4.33-.77t.35-.73l3.38-6.66a1.12,1.12,0,0,1,.18-.27.61.61,0,0,1,.21-.14.73.73,0,0,1,.27,0h2.68V60.07H14.37V52.5q0-.55.05-1.19l-3.49,6.77a1.15,1.15,0,0,1-.44.48,1.21,1.21,0,0,1-.63.16H9.46a1.22,1.22,0,0,1-.63-.16,1.15,1.15,0,0,1-.44-.48L4.88,51.29c0,.21,0,.42.05.63s0,.4,0,.57v7.58H2.26V46.91H4.94a.73.73,0,0,1,.27,0,.61.61,0,0,1,.21.14,1.12,1.12,0,0,1,.19.27L9,54Q9.17,54.39,9.34,54.76Z"/><path class="cls-1" d="M27.71,46.9v2.35H22.31v3.07h4.14v2.26H22.31v3.14h5.41v2.35H19.24V46.9Z"/><path class="cls-1" d="M31.39,46.92a.88.88,0,0,1,.24.07.81.81,0,0,1,.21.14,2.34,2.34,0,0,1,.23.24l6.25,7.91c0-.25,0-.5-.05-.74s0-.46,0-.67v-7h2.69V60.07H39.36a1.46,1.46,0,0,1-.6-.11,1.28,1.28,0,0,1-.47-.4l-6.21-7.85c0,.23,0,.45,0,.67s0,.43,0,.62v7.06H29.45V46.9h1.61Z"/><path class="cls-1" d="M48.59,57.66a2.81,2.81,0,0,0,1.1-.2,2.22,2.22,0,0,0,.82-.58,2.56,2.56,0,0,0,.51-.93,4,4,0,0,0,.18-1.24V46.9h3.05v7.8a6.1,6.1,0,0,1-.39,2.22,5,5,0,0,1-1.13,1.74A5.07,5.07,0,0,1,51,59.81a7.08,7.08,0,0,1-4.73,0,5.08,5.08,0,0,1-1.78-1.14,4.94,4.94,0,0,1-1.12-1.74,6.14,6.14,0,0,1-.39-2.22V46.9H46v7.79a4,4,0,0,0,.18,1.24,2.61,2.61,0,0,0,.51.93,2.2,2.2,0,0,0,.82.59A2.81,2.81,0,0,0,48.59,57.66Z"/></g></g></svg>