<svg xmlns="http://www.w3.org/2000/svg" viewBox="0 0 38.5 65.27"><defs><style>.cls-1{fill:#455a64;}</style></defs><title>Mobile</title><g id="Layer_2" data-name="Layer 2"><g id="Layer_8" data-name="Layer 8"><path class="cls-1" d="M32.64,0H5.86A5.86,5.86,0,0,0,0,5.86V59.42a5.87,5.87,0,0,0,5.86,5.86H32.64a5.87,5.87,0,0,0,5.86-5.86V5.86A5.86,5.86,0,0,0,32.64,0ZM3,13.48H35.5V51H3ZM5.86,3H32.64A2.86,2.86,0,0,1,35.5,5.86v4.62H3V5.86A2.86,2.86,0,0,1,5.86,3ZM32.64,62.27H5.86A2.86,2.86,0,0,1,3,59.42V54H35.5v5.45A2.86,2.86,0,0,1,32.64,62.27Z"/><path class="cls-1" d="M12.54,8.5H25.73a1.5,1.5,0,0,0,0-3H12.54a1.5,1.5,0,0,0,0,3Z"/><path class="cls-1" d="M21.29,56.54H16.1a1.5,1.5,0,1,0,0,3h5.19a1.5,1.5,0,0,0,0-3Z"/></g></g></svg>