<svg xmlns="http://www.w3.org/2000/svg" viewBox="0 0 61.5 60.06"><defs><style>.cls-1{fill:#455a64;}</style></defs><title>MoneyWallet</title><g id="Layer_2" data-name="Layer 2"><g id="Layer_8" data-name="Layer 8"><circle class="cls-1" cx="46.1" cy="37.39" r="1.95"/><path class="cls-1" d="M58,29.62V19.12a5,5,0,0,0-5-4.94h-3.3L47.44,7.11a1.5,1.5,0,0,0-1.74-1L39.64,7.39,35.55.72a1.5,1.5,0,0,0-2-.53L8.51,14l-.06,0-.13.09H5a5,5,0,0,0-5,4.94v36a5,5,0,0,0,5,4.94H53a5,5,0,0,0,5-4.94V44.76a5.22,5.22,0,0,0,3.49-4.91V34.52A5.22,5.22,0,0,0,58,29.62ZM45,9.32l1.57,4.86H22ZM33.74,3.51,36.52,8,18.74,11.81ZM55,55.12a2,2,0,0,1-2,1.94H5a2,2,0,0,1-2-1.94v-36a2,2,0,0,1,2-1.94H53a2,2,0,0,1,2,1.94V29.3H43.46a5.23,5.23,0,0,0-5.22,5.22v5.33a5.23,5.23,0,0,0,5.22,5.22H55ZM58.5,39.85a2.23,2.23,0,0,1-2.22,2.22H43.46a2.23,2.23,0,0,1-2.22-2.22V34.52a2.23,2.23,0,0,1,2.22-2.22H56.28a2.23,2.23,0,0,1,2.22,2.22Z"/></g></g></svg>