<svg xmlns="http://www.w3.org/2000/svg" viewBox="0 0 65.63 56.47"><defs><style>.cls-1{fill:#455a64;}</style></defs><title>MoneyMarket</title><g id="Layer_2" data-name="Layer 2"><g id="Layer_8" data-name="Layer 8"><path class="cls-1" d="M11.17,33.6a1.49,1.49,0,0,0,1.06-.44l11.3-11.23,9.78,9.76a1.5,1.5,0,0,0,2.12,0L52,15.28l.1,2.6a1.5,1.5,0,0,0,1.5,1.44h.06a1.5,1.5,0,0,0,1.44-1.56l-.26-7a1.49,1.49,0,0,0-1.56-1.44l-6.36.24a1.5,1.5,0,0,0,.11,3l3.56-.13L34.37,28.52l-9.78-9.76a1.5,1.5,0,0,0-2.12,0L10.12,31a1.5,1.5,0,0,0,1.06,2.56Z"/><path class="cls-1" d="M62.84,0H2.79A2.79,2.79,0,0,0,0,2.79V43.68a2.79,2.79,0,0,0,2.79,2.79h21v7H17.5a1.5,1.5,0,1,0,0,3H49.27a1.5,1.5,0,0,0,0-3H43.4v-7H62.84a2.79,2.79,0,0,0,2.79-2.79V2.79A2.79,2.79,0,0,0,62.84,0ZM40.4,53.33H26.83V46.47H40.4Zm22.23-9.86H42.19a1.5,1.5,0,0,0-.29,0H25.33a1.5,1.5,0,0,0-.29,0H3V3H62.63Z"/><path class="cls-1" d="M36.62,37.54H30a1.5,1.5,0,0,0,0,3h6.65a1.5,1.5,0,0,0,0-3Z"/></g></g></svg>