<svg xmlns="http://www.w3.org/2000/svg" viewBox="0 0 66.22 50.84"><defs><style>.cls-1{fill:#455a64;}</style></defs><title>MoreCards</title><g id="Layer_2" data-name="Layer 2"><g id="Layer_8" data-name="Layer 8"><path class="cls-1" d="M58.85,35.48H53.91V30.54a1.5,1.5,0,0,0-3,0v4.94H46a1.5,1.5,0,0,0,0,3h4.94v4.94a1.5,1.5,0,0,0,3,0V38.48h4.94a1.5,1.5,0,0,0,0-3Z"/><path class="cls-1" d="M9.5,19.38H22a1.5,1.5,0,0,0,1.5-1.5v-8A1.5,1.5,0,0,0,22,8.38H9.5A1.5,1.5,0,0,0,8,9.88v8A1.5,1.5,0,0,0,9.5,19.38Zm1.5-8h9.5v5H11Z"/><path class="cls-1" d="M57.57,23.8V5.5A5.51,5.51,0,0,0,52.07,0H5.5A5.51,5.51,0,0,0,0,5.5V33.88a5.51,5.51,0,0,0,5.5,5.5H38.21A14.12,14.12,0,1,0,57.57,23.8ZM3,33.88V5.5A2.5,2.5,0,0,1,5.5,3H52.07a2.5,2.5,0,0,1,2.5,2.5V22.93A14.06,14.06,0,0,0,38,36.38H5.5A2.5,2.5,0,0,1,3,33.88Zm49.09,14A11.07,11.07,0,1,1,63.22,36.77,11.11,11.11,0,0,1,52.09,47.84Z"/><path class="cls-1" d="M24.54,28.14H8.74a1.5,1.5,0,1,0,0,3H24.54a1.5,1.5,0,0,0,0-3Z"/></g></g></svg>