<svg xmlns="http://www.w3.org/2000/svg" viewBox="0 0 65.75 65.92"><defs><style>.cls-1{fill:#455a64;}</style></defs><title>Mortgage</title><g id="Layer_2" data-name="Layer 2"><g id="Layer_8" data-name="Layer 8"><path class="cls-1" d="M65.31,31.8l-8-8V9a1.5,1.5,0,0,0-1.5-1.5H47.68A1.5,1.5,0,0,0,46.18,9v3.65L33.94.42a1.54,1.54,0,0,0-2.12,0L.44,31.8a1.5,1.5,0,0,0-.19,1.89L4,39.36a1.5,1.5,0,0,0,2.31.23l2.16-2.16v27a1.5,1.5,0,0,0,1.5,1.5h6.57a1.5,1.5,0,0,0,1.5-1.5v-26H30.12v26a1.5,1.5,0,0,0,1.5,1.5H55.76a1.5,1.5,0,0,0,1.5-1.5v-27l2.16,2.16a1.5,1.5,0,0,0,1.06.44h.15a1.5,1.5,0,0,0,1.1-.66l3.77-5.68A1.5,1.5,0,0,0,65.31,31.8ZM49.18,15.29V10.51h5.08V20.75l-5.12-5.12A1.49,1.49,0,0,0,49.18,15.29Zm5.08,19.22V62.92H33.12v-26a1.5,1.5,0,0,0-1.5-1.5H16.56a1.5,1.5,0,0,0-1.5,1.5v26H11.49V34.77a1.51,1.51,0,0,0,0-.3L32.87,13l21.4,21.4S54.26,34.49,54.26,34.51Zm6,1.67L33.94,9.86a1.5,1.5,0,0,0-2.12,0L5.5,36.18,3.43,33.05,32.87,3.6,62.32,33.05Z"/><path class="cls-1" d="M27.66,48.27h-.11a1.5,1.5,0,0,0,0,3h.11a1.5,1.5,0,0,0,0-3Z"/><path class="cls-1" d="M38.33,51.43H48.76a1.5,1.5,0,0,0,1.5-1.5V37.58a1.5,1.5,0,0,0-1.5-1.5H38.33a1.5,1.5,0,0,0-1.5,1.5V49.93A1.5,1.5,0,0,0,38.33,51.43Zm1.5-12.35h7.43v9.35H39.83Z"/></g></g></svg>