<svg xmlns="http://www.w3.org/2000/svg" viewBox="0 0 66.31 43.5"><defs><style>.cls-1{fill:#455a64;}</style></defs><title>Motorcycle</title><g id="Layer_2" data-name="Layer 2"><g id="Layer_8" data-name="Layer 8"><path class="cls-1" d="M58.28,27.44a8,8,0,0,0-2.5.4l-3.27-4.45,1.23-1.77a1.5,1.5,0,0,0,.1-1.54l-1.46-2.87a4.72,4.72,0,0,0,2.72.87h0a1.5,1.5,0,0,0,1.49-1.51L56.58,10a1.5,1.5,0,0,0-1.5-1.49h0a4.75,4.75,0,0,0-4.71,4.68l-.53-1a1.5,1.5,0,0,0-2.12-.6l-1.42.86v-8A4.49,4.49,0,0,0,41.8,0H36.28a1.5,1.5,0,0,0,0,3H41.8a1.49,1.49,0,0,1,1.49,1.49V14.64a11.46,11.46,0,0,0-17,5.41,66.55,66.55,0,0,1-12-5c-.67-.34-1.21-.61-1.56-.77a2.32,2.32,0,0,0-3.29,1.81l-.78,6.37s0,.09,0,.14A15.09,15.09,0,0,0,0,36.49,1.5,1.5,0,0,0,1.5,38H6.13a8,8,0,0,0,15.19,0h20.3a1.5,1.5,0,0,0,1.23-.65L50.71,26l2.43,3.31a8,8,0,1,0,5.14-1.87Zm-4.69-15,0,1.87a1.77,1.77,0,0,1,0-1.87ZM37,15.74a8.5,8.5,0,0,1,8.4,7.35H28.57A8.5,8.5,0,0,1,37,15.74ZM12.33,17.4l.63.32c2.9,1.47,8,4.07,12.6,5.24l0,.13H20.31a12.72,12.72,0,0,0-8.49-1.43Zm1.39,23a5,5,0,1,1,5-5A5,5,0,0,1,13.72,40.43Zm8-5.44a8,8,0,0,0-16,0H3.08C3.76,29.06,8.4,24.45,14,24.45S24.21,29.06,24.89,35Zm19.1,0H27.92a15.48,15.48,0,0,0-3.84-8.9H46.62a1.48,1.48,0,0,0,.18.28Zm8.11-11.7-2.07-7.68,1-.62,2.88,5.66ZM58.28,40.5a5,5,0,1,1,5-5A5,5,0,0,1,58.28,40.5Z"/></g></g></svg>