<svg xmlns="http://www.w3.org/2000/svg" viewBox="0 0 60.49 58.78"><defs><style>.cls-1{fill:#455a64;}</style></defs><title>Network</title><g id="Layer_2" data-name="Layer 2"><g id="Layer_8" data-name="Layer 8"><path class="cls-1" d="M52.86,40.59V32.13a6.65,6.65,0,0,0-6.65-6.64H31.58V18.2a9.17,9.17,0,1,0-3,0v7.28H14.31a6.65,6.65,0,0,0-6.65,6.64v8.46a9.17,9.17,0,1,0,3,0V32.13a3.65,3.65,0,0,1,3.65-3.64H28.58V40.71a9.15,9.15,0,1,0,3-.21v-12H46.22a3.65,3.65,0,0,1,3.65,3.64v8.45a9.16,9.16,0,1,0,3,0Zm-29-31.43a6.17,6.17,0,1,1,6.17,6.17A6.17,6.17,0,0,1,23.91,9.17ZM15.33,49.62a6.17,6.17,0,1,1-6.17-6.17A6.17,6.17,0,0,1,15.33,49.62Zm21.53,0a6.17,6.17,0,1,1-6.17-6.17A6.17,6.17,0,0,1,36.86,49.62Zm14.46,6.17a6.17,6.17,0,1,1,6.17-6.17A6.17,6.17,0,0,1,51.32,55.78Z"/></g></g></svg>