<svg xmlns="http://www.w3.org/2000/svg" viewBox="0 0 69.17 69.17"><defs><style>.cls-1{fill:#455a64;}</style></defs><title>NoCards</title><g id="Layer_2" data-name="Layer 2"><g id="Layer_8" data-name="Layer 8"><path class="cls-1" d="M59,10.13A34.58,34.58,0,1,0,10.13,59,34.58,34.58,0,1,0,59,10.13ZM56.91,56.92A31.58,31.58,0,1,1,12.25,12.25,31.58,31.58,0,1,1,56.91,56.92Z"/><path class="cls-1" d="M56.19,19.78a1.5,1.5,0,0,0-2.3-.21L29.44,44a1.5,1.5,0,0,0-.45.45L19.57,53.9a1.5,1.5,0,0,0,.21,2.3A26.19,26.19,0,0,0,56.19,19.78ZM50.7,27V41.29a2.5,2.5,0,0,1-2.5,2.5H33.92ZM51,51a23.19,23.19,0,0,1-28,3.7l7.9-7.9H48.2a5.51,5.51,0,0,0,5.5-5.5V26a5.44,5.44,0,0,0-.28-1.74L54.69,23A23.19,23.19,0,0,1,51,51Z"/><path class="cls-1" d="M31.82,33,49.6,15.27a1.5,1.5,0,0,0-.21-2.3A26.19,26.19,0,0,0,13,49.39a1.5,1.5,0,0,0,1.1.64h.14a1.5,1.5,0,0,0,1.06-.44L31,33.9A1.5,1.5,0,0,0,31.82,33Zm-2.89-2h-5V28.89h5Zm1.5-5.11h-8a1.5,1.5,0,0,0-1.5,1.5v5.11a1.5,1.5,0,0,0,1.5,1.5h4.18l-7.75,7.75a2.49,2.49,0,0,1,0-.47V26a2.5,2.5,0,0,1,2.5-2.5H37.08L31.92,28.7V27.39A1.5,1.5,0,0,0,30.42,25.89ZM14.47,46.15A23.2,23.2,0,0,1,46.15,14.47l-6.07,6.07H21.32a5.51,5.51,0,0,0-5.5,5.5V41.29A5.43,5.43,0,0,0,16.58,44Z"/></g></g></svg>