<svg xmlns="http://www.w3.org/2000/svg" viewBox="0 0 65.41 65.41"><defs><style>.cls-1{fill:#455a64;}</style></defs><title>NoFee</title><g id="Layer_2" data-name="Layer 2"><g id="Layer_8" data-name="Layer 8"><path class="cls-1" d="M56.6,10.37a32.71,32.71,0,1,0-25,55l1.12,0a32.71,32.71,0,0,0,23.89-55Zm5.79,23.34a29.74,29.74,0,0,1-29.68,28.7l-1,0A29.7,29.7,0,0,1,32.69,3l1,0A29.69,29.69,0,0,1,62.39,33.71Z"/><path class="cls-1" d="M53.14,16.41a1.47,1.47,0,0,0-1.17.4L35.28,32.4a1.45,1.45,0,0,0-1,.95L15.55,50.85a1.5,1.5,0,0,0,.06,2.24,26.38,26.38,0,0,0,16.2,6.22l.93,0A26.61,26.61,0,0,0,54.21,17,1.5,1.5,0,0,0,53.14,16.41Zm-14.4,24.2c0,2-.69,4.6-6.67,4.6a7,7,0,0,1-4.68-1.32L36,35.81A5.16,5.16,0,0,1,38.74,40.61ZM48.83,50a23.57,23.57,0,0,1-30,1.88l6.31-5.9a9.06,9.06,0,0,0,6.06,2.23v3.07a1.5,1.5,0,0,0,3,0V48.08c6.44-.76,7.49-4.89,7.49-7.46a7.94,7.94,0,0,0-3.46-6.9L52.74,20.2A23.57,23.57,0,0,1,48.83,50Z"/><path class="cls-1" d="M50.35,13.43a1.5,1.5,0,0,0-.53-1.11A26.61,26.61,0,0,0,6.09,31.8h0a26.43,26.43,0,0,0,5.12,16.59,1.5,1.5,0,0,0,1.07.61h.14a1.5,1.5,0,0,0,1-.4l36.43-34A1.5,1.5,0,0,0,50.35,13.43ZM27,24.84c0-1,0-3.82,5.63-3.82,2.08,0,3.56.52,4.31,1.49l-7.15,6.68C28,28.11,27,27,27,24.84Zm12.14-4.39a7.33,7.33,0,0,0-5-2.33,1.5,1.5,0,0,0,0-.26v-4.1a1.5,1.5,0,0,0-3,0v4.1a1.48,1.48,0,0,0,0,.22c-6.5.53-7.24,4.84-7.24,6.76a7.21,7.21,0,0,0,3.53,6.46L12.68,45.21a23.61,23.61,0,0,1,20-36.13h.82a23.37,23.37,0,0,1,13,4.48Z"/></g></g></svg>