<svg xmlns="http://www.w3.org/2000/svg" viewBox="0 0 69.17 69.16"><defs><style>.cls-1{fill:#455a64;}</style></defs><title>NoSign</title><g id="Layer_2" data-name="Layer 2"><g id="Layer_8" data-name="Layer 8"><path class="cls-1" d="M53.11,16.06A26.19,26.19,0,0,0,19.78,13a1.5,1.5,0,0,0-.21,2.3L53.9,49.6A1.5,1.5,0,0,0,55,50h.14a1.5,1.5,0,0,0,1.1-.64,26.18,26.18,0,0,0-3.08-33.33Zm1.58,30.09L23,14.47A23.2,23.2,0,0,1,54.69,46.15Z"/><path class="cls-1" d="M15.27,19.57a1.5,1.5,0,0,0-2.3.21A26.19,26.19,0,0,0,49.39,56.19a1.5,1.5,0,0,0,.21-2.3ZM34.58,57.78A23.2,23.2,0,0,1,14.47,23L46.15,54.69A23,23,0,0,1,34.58,57.78Z"/><path class="cls-1" d="M59,10.13A34.58,34.58,0,1,0,10.13,59,34.58,34.58,0,1,0,59,10.13ZM56.92,56.91A31.58,31.58,0,1,1,12.25,12.25,31.58,31.58,0,1,1,56.92,56.91Z"/></g></g></svg>