<svg xmlns="http://www.w3.org/2000/svg" viewBox="0 0 65.69 60.01"><defs><style>.cls-1{fill:#455a64;}</style></defs><title>OpenBox</title><g id="Layer_2" data-name="Layer 2"><g id="Layer_8" data-name="Layer 8"><path class="cls-1" d="M65.2,29.05,56.69,21.2l8.48-8.48a1.5,1.5,0,0,0-.4-2.41L44.29.32a1.5,1.5,0,0,0-1.68.25L33.61,9,25.13.44A1.5,1.5,0,0,0,23.32.2L1,13a1.5,1.5,0,0,0-.31,2.36l7.77,7.77-8,9a1.5,1.5,0,0,0,.45,2.35l7.9,3.88v11.3a1.5,1.5,0,0,0,1,1.4l22.82,8.88a1.42,1.42,0,0,0,1.06,0,1.48,1.48,0,0,0,.49-.14l22.28-11.5a1.5,1.5,0,0,0,.81-1.33V35.73l7.75-4.25a1.5,1.5,0,0,0,.29-2.42ZM43.9,3.47l17.65,8.62-7.15,7.15-17.79-9ZM31.57,31.62l-18-8.79,18-9.76Zm3-19,17,8.59-17,10.17ZM23.81,3.37,30.45,10h0l.13.13L10.57,21l-6.4-6.4ZM10.82,25a1.35,1.35,0,0,0,.07-.12l19.6,9.58-7.88,7.39L3.94,32.64Zm.92,14.84L22.23,45a1.5,1.5,0,0,0,1.69-.25l7.65-7.18V56.33L11.74,48.61ZM54.16,46,34.57,56.13V36.44l7.79,6.34a1.5,1.5,0,0,0,1.67.15l10.13-5.56Zm-10.69-6.2-7.29-5.94L54.28,23.06l7.35,6.78Z"/></g></g></svg>