<svg xmlns="http://www.w3.org/2000/svg" viewBox="0 0 64.86 64.86"><defs><style>.cls-1{fill:#455a64;}</style></defs><title>Partner</title><g id="Layer_2" data-name="Layer 2"><g id="Layer_8" data-name="Layer 8"><path class="cls-1" d="M51,15.34a7.67,7.67,0,1,0-7.67-7.67A7.68,7.68,0,0,0,51,15.34ZM51,3a4.71,4.71,0,1,1-4.71,4.71A4.72,4.72,0,0,1,51,3Z"/><path class="cls-1" d="M13.86,15.34A7.67,7.67,0,1,0,6.19,7.67,7.68,7.68,0,0,0,13.86,15.34ZM13.86,3A4.71,4.71,0,1,1,9.15,7.67,4.72,4.72,0,0,1,13.86,3Z"/><path class="cls-1" d="M60.82,16.19,57.74,15a1.48,1.48,0,0,0-1.59.33l-5,5L35.48,1.43a1.84,1.84,0,0,0-.27-.29,4,4,0,0,0-5.83.29L13.76,20.33l-5-5A1.48,1.48,0,0,0,7.12,15L4,16.19a6.4,6.4,0,0,0-4,6V37.38a6.45,6.45,0,0,0,5,6.26v18.5a2.72,2.72,0,0,0,2.72,2.72H20a2.72,2.72,0,0,0,2.72-2.72V22.79l9.67-12.4,9.66,12.4V62.15a2.72,2.72,0,0,0,2.72,2.72H57.19a2.72,2.72,0,0,0,2.72-2.72V43.64a6.45,6.45,0,0,0,5-6.26V22.16A6.4,6.4,0,0,0,60.82,16.19ZM33.22,4.57,20.12,21.37a1.49,1.49,0,0,0-.31.91V61.91H15.34V41.1a1.48,1.48,0,0,0-3,0V61.91H7.91V26.24a1.48,1.48,0,1,0-3,0V40.53a3.48,3.48,0,0,1-2-3.14V22.16a3.46,3.46,0,0,1,2.18-3.23l2.17-.87,5.5,5.5a1.57,1.57,0,0,0,1.12.43A1.48,1.48,0,0,0,15,23.47L31.66,3.32a1,1,0,0,1,1.56,1.25ZM61.91,37.38a3.47,3.47,0,0,1-2,3.13V26.24a1.48,1.48,0,1,0-3,0V61.91H52.48V41.1a1.48,1.48,0,1,0-3,0V61.91H45.05V22.28a1.49,1.49,0,0,0-.31-.91L34.31,8l1.25-1.6.08-.11L49.86,23.47a1.48,1.48,0,0,0,1.07.54h0A1.52,1.52,0,0,0,52,23.57l5.5-5.5,2.17.87a3.46,3.46,0,0,1,2.18,3.23Z"/></g></g></svg>