<svg xmlns="http://www.w3.org/2000/svg" viewBox="0 0 63.48 63.68"><defs><style>.cls-1{fill:#455a64;}</style></defs><title>Paw</title><g id="Layer_2" data-name="Layer 2"><g id="Layer_8" data-name="Layer 8"><path class="cls-1" d="M51,41.44a10.16,10.16,0,0,0-1.35-1.35l-9.26-9.43a12.56,12.56,0,0,0-17.86-.17l-9.43,9.26-.34.34-.17.17-.17.17a14.31,14.31,0,0,0-3.71,9.1C8.55,56.94,14.11,63,21,63.17l.86,0c3.71,0,7.06-1,9.25-3.22,2.19,2.36,5.9,3.54,9.94,3.71h.3c6.94,0,12.51-5.83,12.67-13.14a12.46,12.46,0,0,0-3-9.1Zm0,8.8c0,.08,0,.15,0,.23-.13,5.73-4.38,10.21-9.68,10.21h-.2c-3.5-.15-6.35-1.15-7.84-2.75a3,3,0,0,0-2.14-1h-.06a3,3,0,0,0-2.12.88c-1.51,1.51-4,2.34-7.13,2.34l-.73,0h-.05C15.8,60,11.6,55.32,11.71,49.63a11.34,11.34,0,0,1,2.87-7.12l.13-.13.17-.17.32-.32,9.42-9.25a9.56,9.56,0,0,1,13.63.11l9.28,9.45c.22.22.44.42.65.6l.32.28a3,3,0,0,0,.22.29A9.51,9.51,0,0,1,51,50.24Z"/><path class="cls-1" d="M17.64,28.47h0C16.09,22.73,10.4,15.85,5.82,15.85A4.17,4.17,0,0,0,4.67,16C0,17.35-.89,26.78.8,33A6,6,0,0,0,7,37.81,13.27,13.27,0,0,0,13.26,36C15.28,35,18.48,31.67,17.64,28.47Zm-5.85,5A10.33,10.33,0,0,1,7,34.81a3.05,3.05,0,0,1-3.35-2.57,22.06,22.06,0,0,1-.41-9c.42-2.36,1.29-4.05,2.21-4.32a1.17,1.17,0,0,1,.33,0c2.56,0,7.53,5.24,8.92,10.39.34,1.28-1.52,3.48-2.82,4.13Z"/><path class="cls-1" d="M59.08,16.68h0a4.09,4.09,0,0,0-1.17-.16c-4.48,0-10.44,6.57-12.14,12.29-.84,3,2.19,6.57,4.21,7.75a13.52,13.52,0,0,0,6.31,1.83,6,6,0,0,0,6.15-4.69C64.47,27.63,63.63,18,59.08,16.68Zm.52,16.06,0,.09a3,3,0,0,1-3.28,2.55A10.45,10.45,0,0,1,51.47,34c-1.42-.84-3.1-3.2-2.82-4.32,1.51-5,6.65-10.11,9.26-10.11a1.12,1.12,0,0,1,.31,0,2.34,2.34,0,0,1,1.1,1.21C60.76,23.52,60.89,28.89,59.6,32.74Z"/><path class="cls-1" d="M40.32,23.55a13.37,13.37,0,0,0,3.43-.47h0c2.19-.67,5.9-3.37,5.73-6.74C49.31,9.5,45.17,0,40.67,0h-.12C36,0,33,9.77,33.14,16.68,33.27,21.88,36.74,23.55,40.32,23.55Zm-.52-20c.39-.4.66-.51.75-.51h.12c.45,0,1.85,1,3.35,3.95a23.91,23.91,0,0,1,2.46,9.47s0,.05,0,.08c.07,1.49-2.25,3.28-3.57,3.71a10.35,10.35,0,0,1-2.59.35c-3.6,0-4.13-2-4.18-3.94C36,11.67,37.7,5.67,39.8,3.51Z"/><path class="cls-1" d="M20.34,23.08h0a12.05,12.05,0,0,0,3.21.45c3.54,0,7.07-1.71,7.07-6.85,0-6.91-3-16.34-7.41-16.34S14.61,9.6,14.61,16.51C14.61,19.88,18.15,22.57,20.34,23.08ZM23.2,3.34c1,0,4.41,5.68,4.41,13.34,0,1.15,0,3.85-4.07,3.85a9,9,0,0,1-2.4-.34l-.13,0c-1.16-.27-3.4-2-3.4-3.65C17.61,9.74,21.68,3.34,23.2,3.34Z"/></g></g></svg>