<svg xmlns="http://www.w3.org/2000/svg" viewBox="0 0 60.35 66.19"><defs><style>.cls-1{fill:#455a64;}</style></defs><title>Pen</title><g id="Layer_2" data-name="Layer 2"><g id="Layer_8" data-name="Layer 8"><path class="cls-1" d="M59.85,4.14,55.67.38A1.47,1.47,0,0,0,54.58,0a1.5,1.5,0,0,0-1,.5l-5,5.61L47,4.8a1.5,1.5,0,0,0-2.12.11L3.31,51.27l0,.05-.1.13-.07.12L3,51.71,3,51.86l0,.07L0,64.35A1.5,1.5,0,0,0,2,66.1l11.92-4.34,0,0,.13-.06.14-.08.1-.08.14-.13,0,0L50.18,21.64l2.46,2.2L32.52,46.26a1.5,1.5,0,1,0,2.23,2L55.87,24.74a1.5,1.5,0,0,0-.11-2.12l-3.57-3.21,4-4.42A1.5,1.5,0,0,0,56,12.87l-1.12-1,5-5.61A1.5,1.5,0,0,0,59.85,4.14ZM5.31,55.08l5.25,4.72-7,2.54Zm8,3.15L6.55,52.16,46.16,8l6.76,6.07ZM52.76,9.79,50.81,8l4-4.42,1.95,1.75Z"/></g></g></svg>