<svg xmlns="http://www.w3.org/2000/svg" viewBox="0 0 67.05 66.29"><defs><style>.cls-1{fill:#455a64;}</style></defs><title>PercentUp</title><g id="Layer_2" data-name="Layer 2"><g id="Layer_8" data-name="Layer 8"><path class="cls-1" d="M16.22,30.48A15.22,15.22,0,1,0,1,15.26,15.24,15.24,0,0,0,16.22,30.48ZM16.22,3A12.22,12.22,0,1,1,4,15.26,12.24,12.24,0,0,1,16.22,3Z"/><path class="cls-1" d="M51.52,35.55A15.22,15.22,0,1,0,66.74,50.78,15.24,15.24,0,0,0,51.52,35.55Zm0,27.45A12.22,12.22,0,1,1,63.74,50.78,12.24,12.24,0,0,1,51.52,63Z"/><path class="cls-1" d="M67.05,1.51h0A1.49,1.49,0,0,0,67,1v0a1.5,1.5,0,0,0-.32-.48h0a1.5,1.5,0,0,0-.49-.33h0A1.49,1.49,0,0,0,65.57,0H54.73a1.5,1.5,0,0,0,0,3H61.9L.45,63.73a1.5,1.5,0,0,0,2.11,2.13L64.05,5.09v8.29a1.5,1.5,0,1,0,3,0V1.51Z"/></g></g></svg>