<svg xmlns="http://www.w3.org/2000/svg" viewBox="0 0 67.05 66.29"><defs><style>.cls-1{fill:#455a64;}</style></defs><title>Percent</title><g id="Layer_2" data-name="Layer 2"><g id="Layer_8" data-name="Layer 8"><path class="cls-1" d="M50.84,35.81A15.22,15.22,0,1,0,66.06,51,15.24,15.24,0,0,0,50.84,35.81Zm0,27.45A12.22,12.22,0,1,1,63.06,51,12.24,12.24,0,0,1,50.84,63.26Z"/><path class="cls-1" d="M15.54,30.74A15.22,15.22,0,1,0,.31,15.52,15.24,15.24,0,0,0,15.54,30.74Zm0-27.45A12.22,12.22,0,1,1,3.31,15.52,12.24,12.24,0,0,1,15.54,3.29Z"/><path class="cls-1" d="M66.62.45a1.5,1.5,0,0,0-2.12,0L.45,63.73a1.5,1.5,0,0,0,2.11,2.13L66.61,2.57A1.5,1.5,0,0,0,66.62.45Z"/></g></g></svg>