<svg xmlns="http://www.w3.org/2000/svg" viewBox="0 0 55.1 65.51"><defs><style>.cls-1{fill:#455a64;}</style></defs><title>PersonalLoans</title><g id="Layer_2" data-name="Layer 2"><g id="Layer_8" data-name="Layer 8"><path class="cls-1" d="M54.31,55.69c-.73-1.81-1.82-4.55-1.82-11.21,0-10.13-2.36-15.84-8.41-20.38-.59-.44-1.27-.91-2-1.4-2-1.37-4.38-3-5.51-4.71a1.67,1.67,0,0,0,.11-.19,18.26,18.26,0,0,1,5.79-6.31c3.53-2.45,3.93-5,4-5.27A1.5,1.5,0,0,0,46.08,5a1.37,1.37,0,0,0-1.15-.49c-1.4,0-3.54-.39-3.8-1.18A3.52,3.52,0,0,0,38.65,1c-2-.53-4.64.49-7.33,2.82a15.65,15.65,0,0,1-2.44-1.43C27.13,1.19,25.32,0,23.64,0,20,0,18.71,2.82,17.94,4.51c-.1.23-.23.51-.35.73C15.45,4,13.17,3.75,11.73,4.56a2.42,2.42,0,0,0-1.31,2.15c0,1.66,1.32,3,2.84,4.52.33.33.67.68,1,1l.57.58a15,15,0,0,1,3.5,4.86,1.46,1.46,0,0,0,.13.24l-.09.16c-.71,1.43-1.74,2.11-3.79,3.48-1,.64-2.17,1.45-3.58,2.5C5,28.63,2.61,34.35,2.61,44.48c0,6.66-1.1,9.4-1.82,11.21A8,8,0,0,0,0,58.8c0,5.84,17.26,6.71,27.55,6.71S55.1,64.64,55.1,58.8A8,8,0,0,0,54.31,55.69ZM17,10.76l-.54-.55c-.36-.38-.72-.75-1.07-1.09a16.41,16.41,0,0,1-1.8-2A5.13,5.13,0,0,1,16.34,8a2.54,2.54,0,0,0,2.13.36c1.18-.36,1.69-1.49,2.19-2.58C21.45,4,22,3,23.64,3c.78,0,2.4,1.07,3.58,1.85,2.19,1.44,4.25,2.81,5.84,1.38,2.49-2.23,4.2-2.54,4.81-2.38.15,0,.3.11.41.43.64,2,2.69,2.75,4.38,3.05A8.93,8.93,0,0,1,40.78,9a21.77,21.77,0,0,0-6.31,6.61H20.69A18.68,18.68,0,0,0,17,10.76ZM27.55,62.51c-19,0-24.21-2.78-24.55-3.71a5.54,5.54,0,0,1,.57-2c.81-2,2-5.09,2-12.33,0-10.47,2.76-14.64,7.21-18,1.34-1,2.46-1.75,3.44-2.41,2.17-1.45,3.74-2.5,4.81-4.64a1.49,1.49,0,0,0,.15-.83H33.51c1.23,2.61,4.23,4.69,6.89,6.53.67.47,1.32.91,1.88,1.33,4.45,3.34,7.21,7.51,7.21,18,0,7.23,1.23,10.3,2,12.33a5.77,5.77,0,0,1,.57,2C51.76,59.73,46.52,62.51,27.55,62.51Z"/><path class="cls-1" d="M28.75,39.91l-1-.49a1.48,1.48,0,0,0-.31-.12l-.16-.08c-2.41-1.2-3.39-1.76-3.39-3.58,0-.69,0-2.3,3.59-2.3,2.64,0,2.94,1.19,3,1.36a1.5,1.5,0,0,0,3-.26c-.09-1.24-1.15-3.43-4.4-4V27.71a1.5,1.5,0,1,0-3,0v2.71c-4.61.55-5.16,3.76-5.16,5.21,0,3.76,2.68,5.09,5,6.27l.86.43a1.47,1.47,0,0,0,.29.11l.3.15c2.78,1.38,4,2.08,4,4.31,0,.85,0,2.86-4.34,2.86-3.25,0-3.59-1.54-3.63-1.75a1.5,1.5,0,0,0-3,.25c.1,1.44,1.43,4.07,5.6,4.44v1.78a1.5,1.5,0,0,0,3,0V52.61c4.77-.74,5.35-4.14,5.35-5.71C34.42,42.73,31.54,41.29,28.75,39.91Z"/></g></g></svg>