<svg xmlns="http://www.w3.org/2000/svg" viewBox="0 0 62.6 65.59"><defs><style>.cls-1{fill:#455a64;}</style></defs><title>PieChart</title><g id="Layer_2" data-name="Layer 2"><g id="Layer_8" data-name="Layer 8"><path class="cls-1" d="M53.18,10.14A25,25,0,0,0,34.61,3.07a1.5,1.5,0,0,0-1.44,1.35c-1,10.46-2.39,23-2.94,28.2C26.78,30.43,19,25.33,7.09,16.87A1.5,1.5,0,0,0,5,17.18C.82,22.72,0,27.65,0,34.29a31.3,31.3,0,0,0,62.6,0C62.6,24.73,59.17,15.93,53.18,10.14ZM31.3,62.59A28.33,28.33,0,0,1,3,34.29c0-5.65.59-9.7,3.57-14.11,15.69,11.15,24,16.21,24.12,16.26A1.5,1.5,0,0,0,33,35.32c0-.16,1.73-16,3.06-29.26A21.89,21.89,0,0,1,51.1,12.3c5.4,5.23,8.5,13.25,8.5,22A28.33,28.33,0,0,1,31.3,62.59Z"/><path class="cls-1" d="M5.76,13.06c10.93,8,21,14.84,21.08,14.91a1.49,1.49,0,0,0,.84.26,1.5,1.5,0,0,0,1.49-1.36c0-.16,1.51-16.4,1.79-25.28A1.5,1.5,0,0,0,29.55,0a28.76,28.76,0,0,0-24.1,10.9,1.5,1.5,0,0,0,.31,2.12ZM27.91,3c-.28,6.72-1.09,16.47-1.49,21-3.32-2.29-10.17-7-17.61-12.47A25.81,25.81,0,0,1,27.91,3Z"/></g></g></svg>