<svg xmlns="http://www.w3.org/2000/svg" viewBox="0 0 68.16 66.25"><defs><style>.cls-1{fill:#455a64;}</style></defs><title>PiggyBank</title><g id="Layer_2" data-name="Layer 2"><g id="Layer_8" data-name="Layer 8"><path class="cls-1" d="M36.83,19.5a9.75,9.75,0,1,0-9.75-9.75A9.76,9.76,0,0,0,36.83,19.5Zm0-16.5a6.75,6.75,0,1,1-6.75,6.75A6.76,6.76,0,0,1,36.83,3Z"/><circle class="cls-1" cx="15.72" cy="34.19" r="2.18"/><path class="cls-1" d="M56.74,41.07a1.5,1.5,0,0,0-2,.73c-2.09,4.49-5.82,7.24-10.22,7.54a1.5,1.5,0,0,0,.1,3h.1c5.53-.37,10.17-3.75,12.74-9.26A1.5,1.5,0,0,0,56.74,41.07Z"/><path class="cls-1" d="M66.94,30.12a1.5,1.5,0,0,0-1.76,1.19,1.73,1.73,0,0,1-.71,1.3,2.51,2.51,0,0,1-1.73-.08c-.24-.81-.42-1.33-.44-1.39l0-.06c-2.67-6.56-8-11-15.39-12.81A1.5,1.5,0,0,0,45,19.72a2.74,2.74,0,0,1-1.14,2.15H30.63a2.76,2.76,0,0,1-1.15-2.15,1.5,1.5,0,0,0-1.5-1.5,17,17,0,0,0-4.8.44,11.4,11.4,0,0,0-8-4.23,2.84,2.84,0,0,0-2.83,1.1,2,2,0,0,0,.1,2.16,7.57,7.57,0,0,1,1.14,4.12,9.62,9.62,0,0,0,.09,1.1,23.56,23.56,0,0,0-6.93,9.44c-1,2.27-2.07,2.36-3.32,2.46S0,35.1,0,38.31c0,3.48,0,11.46,7.22,12.06,2.75,4.44,8.91,6.9,11,7.63,3.37,8.24,4.83,8.24,5.63,8.24h2.76c.61,0,2.19,0,4.31-5.29h7.8c2.75,5.29,4.26,5.29,4.84,5.29H46c1.86,0,3.12-2.27,4.55-5.94l.11-.28c1.19-2.87,3.3-4.41,5.53-6,3.62-2.64,7.72-5.64,7.72-14.39a21.58,21.58,0,0,0-.4-3.88l.34,0a4.34,4.34,0,0,0,2-.44,4.49,4.49,0,0,0,2.31-3.41A1.5,1.5,0,0,0,66.94,30.12ZM54.42,51.56c-2.47,1.81-5,3.67-6.54,7.33l-.13.32c-1.12,2.88-1.76,3.76-2,4H43.81A19,19,0,0,1,41,58.8,1.5,1.5,0,0,0,39.64,58H29.89a1.5,1.5,0,0,0-1.41,1,17.29,17.29,0,0,1-2.17,4.31H24.24a36.42,36.42,0,0,1-3.5-7,1.5,1.5,0,0,0-1-.88c-.08,0-8-2.48-10.33-7.13a1.5,1.5,0,0,0-1.34-.83C4.88,47.41,3,45.92,3,38.31a2.54,2.54,0,0,1,0-.43c.17,0,.44-.05.65-.07,1.54-.13,4.11-.34,5.82-4.26a20.44,20.44,0,0,1,6.87-8.93,1.5,1.5,0,0,0,.27-2.17,7.57,7.57,0,0,1-.05-.77,10.8,10.8,0,0,0-.85-4.17c1.69.33,4.42,1.46,5.36,3.51a1.5,1.5,0,0,0,1.77.82,12.17,12.17,0,0,1,3.84-.62c.53,1.8,1.95,3.64,3.91,3.64H43.88c1.83,0,3.18-1.59,3.79-3.27A18.08,18.08,0,0,1,59.49,32.17a26,26,0,0,1,1.42,7.42C60.91,46.82,57.9,49,54.42,51.56Z"/></g></g></svg>