<svg xmlns="http://www.w3.org/2000/svg" viewBox="0 0 66.71 66.04"><defs><style>.cls-1{fill:#455a64;}</style></defs><title>PillarBuilding</title><g id="Layer_2" data-name="Layer 2"><g id="Layer_8" data-name="Layer 8"><path class="cls-1" d="M65.21,50H62.06V23.44h2.31a1.5,1.5,0,0,0,1.5-1.5v-7.4a1.5,1.5,0,0,0-1.5-1.5h-.19L34,.12a1.5,1.5,0,0,0-1.18,0L2.62,13.06a1.5,1.5,0,0,0-1.27,1.48v7.4a1.5,1.5,0,0,0,1.5,1.5H4.6V50H1.5A1.5,1.5,0,0,0,0,51.54v13A1.5,1.5,0,0,0,1.5,66H65.21a1.5,1.5,0,0,0,1.5-1.5v-13A1.5,1.5,0,0,0,65.21,50Zm-6.15,0H53.6V23.44h5.46ZM47.94,56.76H19.15V53H47.94ZM19.6,23.44V50H16.06V23.44Zm8.46,0V50H22.6V23.44Zm7.54,0V50H31.06V23.44Zm8.46,0V50H38.6V23.44Zm6.54,0V50H47.06V23.44ZM33.38,3.13,56.55,13H10.29ZM4.35,16H62.87v4.4h-2a1.51,1.51,0,0,0-.6,0H52.4a1.51,1.51,0,0,0-.6,0H45.86a1.51,1.51,0,0,0-.6,0H37.4a1.51,1.51,0,0,0-.6,0H29.86a1.51,1.51,0,0,0-.6,0H21.4a1.51,1.51,0,0,0-.6,0H14.86a1.51,1.51,0,0,0-.6,0H6.4a1.51,1.51,0,0,0-.6,0H4.35Zm3.25,7.4h5.46V50H7.6ZM3,53H16.15V63H3ZM19.15,63V59.76H47.94V63Zm44.56,0H50.94V53H63.71Z"/><path class="cls-1" d="M24.06,10.77a1.5,1.5,0,0,0,2,.79l7.38-3.17,7.41,3.17a1.48,1.48,0,0,0,.59.12A1.5,1.5,0,0,0,42,8.8L34,5.38a1.5,1.5,0,0,0-1.18,0l-8,3.42A1.5,1.5,0,0,0,24.06,10.77Z"/></g></g></svg>