<svg xmlns="http://www.w3.org/2000/svg" viewBox="0 0 64.61 44.07"><defs><style>.cls-1{fill:#455a64;}</style></defs><title>Prepaid</title><g id="Layer_2" data-name="Layer 2"><g id="Layer_8" data-name="Layer 8"><path class="cls-1" d="M59.11,0H5.5A5.51,5.51,0,0,0,0,5.5V38.57a5.51,5.51,0,0,0,5.5,5.5H59.11a5.51,5.51,0,0,0,5.5-5.5V5.5A5.51,5.51,0,0,0,59.11,0Zm2.5,38.57a2.5,2.5,0,0,1-2.5,2.5H5.5A2.5,2.5,0,0,1,3,38.57V5.5A2.5,2.5,0,0,1,5.5,3H59.11a2.5,2.5,0,0,1,2.5,2.5Z"/><path class="cls-1" d="M10.53,21.49H24.64a1.5,1.5,0,0,0,1.5-1.5V11a1.5,1.5,0,0,0-1.5-1.5H10.53A1.5,1.5,0,0,0,9,11v9A1.5,1.5,0,0,0,10.53,21.49Zm1.5-9H23.14v6H12Z"/><path class="cls-1" d="M25.77,30.91H10a1.5,1.5,0,0,0,0,3H25.77a1.5,1.5,0,0,0,0-3Z"/><path class="cls-1" d="M47.32,20.48l-1-.51a1.48,1.48,0,0,0-.31-.12l-.17-.09c-2.51-1.25-3.52-1.83-3.52-3.75,0-.73,0-2.42,3.76-2.42,2.78,0,3.09,1.27,3.12,1.44a1.5,1.5,0,0,0,3-.26c-.09-1.27-1.19-3.52-4.54-4.06V7.83a1.5,1.5,0,0,0-3,0v2.85c-4.76.55-5.33,3.85-5.33,5.34,0,3.85,2.64,5.16,5.19,6.43l.88.45a1.48,1.48,0,0,0,.31.11l.31.15c2.89,1.43,4.16,2.17,4.16,4.49,0,.9,0,3-4.53,3-3.41,0-3.76-1.63-3.8-1.85a1.5,1.5,0,0,0-3,.25c.11,1.48,1.48,4.19,5.79,4.55v1.88a1.5,1.5,0,0,0,3,0v-2c4.93-.75,5.53-4.24,5.53-5.85C53.15,23.37,50.18,21.9,47.32,20.48Z"/></g></g></svg>