<svg xmlns="http://www.w3.org/2000/svg" viewBox="0 0 63.2 69.17"><defs><style>.cls-1{fill:#455a64;}</style></defs><title>Profile</title><g id="Layer_2" data-name="Layer 2"><g id="Layer_8" data-name="Layer 8"><path class="cls-1" d="M59.39,48.52c-3.15-2.93-11.1-6.24-15.36-8L42.86,40c-2.26-1-2.26-1.47-2.26-2.42V35.08a18.11,18.11,0,0,0,1.76-5.82,4.07,4.07,0,0,0,.57-.29A8.08,8.08,0,0,0,46.2,24c.59-2.55-.08-5.17-1.46-6.38,0-.53.07-1.27.12-1.95.12-1.8.26-4,.26-5.42,0-5.81-2.73-7.47-5.33-7.73C38.35.75,36.11,0,32.32,0a15.17,15.17,0,0,0-6,1.39,11.51,11.51,0,0,1-4.55,1.12c-.89,0-2.5.39-3.24,3A17.65,17.65,0,0,0,18,10.22c0,2.23.19,5.1.3,6.81,0,.24,0,.45,0,.64C17,18.89,16.37,21.49,17,24a8.08,8.08,0,0,0,3.27,5,4.07,4.07,0,0,0,.57.29,18.09,18.09,0,0,0,1.76,5.82v2.54c0,1,0,1.49-2.24,2.39l-.24.1C13.63,42.69,5.94,46,3.65,48.64.41,52.36,0,60.76,0,67.67a1.5,1.5,0,0,0,1.5,1.5H61.65a1.5,1.5,0,0,0,1.5-1.5c0-.52,0-1.11,0-1.76C63.26,60.46,63.38,52.24,59.39,48.52Zm.78,17.34c0,.1,0,.21,0,.31H3c0-4.27.34-12.61,2.91-15.56,1.4-1.61,6.54-4.21,15.29-7.72l.24-.09c3.8-1.52,4.12-3.39,4.12-5.2v-3a1.57,1.57,0,0,0-.43-1.05c-.47-.5-1.18-3.19-1.52-5.77a1.5,1.5,0,0,0-1.7-1.29,4.92,4.92,0,0,1-2-3.13,4,4,0,0,1,.5-3.43c1.14-.34,1.09-1.16,1-3.08-.11-1.67-.29-4.48-.3-6.61,0-4.15.72-4.7.72-4.71a14.27,14.27,0,0,0,5.67-1.33A12.33,12.33,0,0,1,32.32,3c3.95,0,4.84.92,5.37,1.79A1.5,1.5,0,0,0,39,5.51c1.52,0,3.13.37,3.13,4.77,0,1.28-.14,3.47-.25,5.23-.23,3.55-.26,4.07.92,4.41a4,4,0,0,1,.5,3.43,4.91,4.91,0,0,1-2,3.13,1.47,1.47,0,0,0-1.05.24,1.5,1.5,0,0,0-.65,1C39.21,30.34,38.5,33,38,33.53a1.5,1.5,0,0,0-.43,1.05v3c0,1.81.31,3.57,4.09,5.16l1.19.5c3.8,1.58,11.71,4.88,14.47,7.45C60.36,53.52,60.24,61.25,60.17,65.86Z"/></g></g></svg>