<svg xmlns="http://www.w3.org/2000/svg" viewBox="0 0 69.38 63.85"><defs><style>.cls-1{fill:#455a64;}</style></defs><title>ProfileGroup</title><g id="Layer_2" data-name="Layer 2"><g id="Layer_8" data-name="Layer 8"><path class="cls-1" d="M67.09,35.35a42.57,42.57,0,0,0-7.83-4.92l-.52-.24a18.59,18.59,0,0,0,5.71-1.89,1.5,1.5,0,0,0-.2-2.73c-2.62-1-3.17-5.35-3.17-8.85,0-5-3.38-8.41-8.41-8.41a10.88,10.88,0,0,0-5.42,1.42c0-.05,0-.1,0-.15,0-5.4-2.53-7-5-7.22C41,.69,38.88,0,35.38,0a14,14,0,0,0-5.57,1.29,10.49,10.49,0,0,1-4.14,1c-.86,0-2.4.37-3.1,2.83a16.28,16.28,0,0,0-.44,4.32,8.54,8.54,0,0,0-5.06-1.17h-.35a15.64,15.64,0,0,0-6.19,1.54,1.5,1.5,0,0,0-.38.27A7.43,7.43,0,0,0,8.3,15.33a20.32,20.32,0,0,0,.23,3.29A4.77,4.77,0,0,0,8,22.41a5.06,5.06,0,0,0,2,3.13l.06,0a9.79,9.79,0,0,0,1,2.67v1.57A7.85,7.85,0,0,1,10,30.5c-.06,0-6.37,3.57-7.68,4.85C.17,37.42,0,46,0,48.52A1.5,1.5,0,0,0,1.5,50H6.74A70.71,70.71,0,0,0,5.53,62.35,1.5,1.5,0,0,0,7,63.85H62.35a1.5,1.5,0,0,0,1.5-1.5A70.71,70.71,0,0,0,62.64,50h5.24a1.5,1.5,0,0,0,1.5-1.5C69.38,46,69.21,37.42,67.09,35.35Zm-43.64-9a5.1,5.1,0,0,0,.74.55,3.89,3.89,0,0,0,.47.25,17.37,17.37,0,0,0,1.5,5.11l-1.26-.8-1.34-.86c-.4-.27-.93-.62-1.19-.82v-1.5C22.7,27.71,23.12,27,23.45,26.31ZM7.3,47H3c.11-5,.76-8.85,1.37-9.53a66.47,66.47,0,0,1,7-4.37c1.59-.88,2.64-1.59,2.64-3.27V27.77a1.39,1.39,0,0,0-.41-1,9.55,9.55,0,0,1-.78-2.61,1.5,1.5,0,0,0-1.36-1.23,2.68,2.68,0,0,1-.57-1.18,2.53,2.53,0,0,1,0-1.28,1.51,1.51,0,0,0,.67-1.75,14.27,14.27,0,0,1-.3-3.37,5,5,0,0,1,.83-2.93,12.45,12.45,0,0,1,4.58-1.1h.38c1.9,0,3.85,0,5.07,3a1.49,1.49,0,0,0,.16.3c0,.44.05.84.08,1.2l0,.53c-1.26,1.17-1.86,3.57-1.31,5.91a8.39,8.39,0,0,0,.41,1.29,1.52,1.52,0,0,0-.38.6,21.19,21.19,0,0,1-1.42,2.65,1.5,1.5,0,0,0-.38,1v2.08c0,1.52.69,2,2.53,3.21l1.4.9c.82.52,1.77,1.12,2.25,1.45a1.49,1.49,0,0,0,.58.23c-.2.37-.69.71-1.83,1.16-2.47,1-13.5,6.1-15.31,7.89A6.79,6.79,0,0,0,7.6,47ZM8.56,60.85c.16-5.29,1.12-12.61,2.55-14C12.28,45.65,22,41,25.41,39.58s3.86-3.19,3.86-4.89V31.92a1.67,1.67,0,0,0-.43-1c-.42-.47-1.06-2.92-1.37-5.24a1.5,1.5,0,0,0-1.66-1.29A4.46,4.46,0,0,1,24,21.56a3.67,3.67,0,0,1,.41-3c1.11-.34,1.05-1.23.94-2.95-.1-1.54-.27-4.11-.27-6.07,0-3.2.47-4,.61-4.21a13.47,13.47,0,0,0,5.19-1.23A11.25,11.25,0,0,1,35.38,3c3.87,0,4.47,1,4.84,1.59a1.5,1.5,0,0,0,1.28.72c1.34,0,2.76.33,2.76,4.26,0,1.17-.13,3.18-.23,4.8-.21,3.28-.24,3.86.9,4.18a3.68,3.68,0,0,1,.4,3,4.45,4.45,0,0,1-1.77,2.78,1.5,1.5,0,0,0-1.66,1.29C41.59,28,41,30.4,40.54,30.87a1.5,1.5,0,0,0-.43,1.05v2.78c0,1.71.29,3.36,3.84,4.86,4,1.71,13.23,6.15,14.33,7.25,1.43,1.42,2.39,8.74,2.55,14ZM44.08,30c.56.08,1.31.14,2.24.22l-.43.26-1,.59L43.35,32A11.22,11.22,0,0,0,44.08,30ZM61.77,47a6.75,6.75,0,0,0-1.37-2.33c-1.93-1.92-14-7.33-15.28-7.88h0c-1.21-.51-1.7-.87-1.88-1.26.67-.42,2.14-1.27,3.13-1.83l1.07-.62c1.7-1,2.59-1.63,2.59-3.25v-.91a1.5,1.5,0,0,0-1.34-1.49l-1.48-.13c-.75-.06-1.78-.14-2.47-.22a3.78,3.78,0,0,0,.46-.24,7.55,7.55,0,0,0,3.06-4.63c.55-2.36-.06-4.77-1.34-5.94,0-.48.07-1.14.11-1.74,0-.34,0-.69.07-1a8.33,8.33,0,0,1,5.58-2.21,5,5,0,0,1,5.41,5.41c0,4.62.88,7.94,2.61,9.92a20.6,20.6,0,0,1-4,.82,1.5,1.5,0,0,0-1.34,1.49v.91c0,1.6.76,2.5,2.79,3.35A42.8,42.8,0,0,1,65,37.49c.61.68,1.27,4.56,1.38,9.53Z"/></g></g></svg>