<svg xmlns="http://www.w3.org/2000/svg" viewBox="0 0 66.89 64.24"><defs><style>.cls-1{fill:#455a64;}</style></defs><title>QuestionBubble</title><g id="Layer_2" data-name="Layer 2"><g id="Layer_8" data-name="Layer 8"><path class="cls-1" d="M56.84,8h0A36.93,36.93,0,0,0,33.91,0h-1a36.59,36.59,0,0,0-23,8C3.5,13.27,0,20.3,0,27.83S3.55,42.41,10,47.71a33.05,33.05,0,0,0,5.16,3.47l.17,10.28a2.77,2.77,0,0,0,4.81,1.88l7.54-8.09a40.14,40.14,0,0,0,5.73.4H34a36.59,36.59,0,0,0,23-8c6.4-5.24,9.92-12.27,9.92-19.8S63.32,13.26,56.84,8ZM55.09,45.3A33.6,33.6,0,0,1,34,52.66h-.59a36.15,36.15,0,0,1-6-.49,1.5,1.5,0,0,0-1.35.46l-7.7,8.27-.17-10.65a1.5,1.5,0,0,0-.82-1.31,30.15,30.15,0,0,1-5.42-3.54C6.16,40.67,3,34.44,3,27.83S6.12,15,11.75,10.36A33.6,33.6,0,0,1,32.87,3h1a33.92,33.92,0,0,1,21,7.29h0c5.77,4.71,8.95,10.94,8.95,17.53S60.76,40.65,55.09,45.3Z"/><path class="cls-1" d="M33.12,12.76c-5.93,0-9.92,3.49-9.92,6.74a1.5,1.5,0,0,0,3,0c0-1.49,2.76-3.74,6.92-3.74,8.11,0,8.11,4.41,8.11,5.85C41.23,26.22,33,27,33,27a1.5,1.5,0,0,0-1.37,1.49v6.68a1.5,1.5,0,0,0,3,0V29.81c3-.52,9.63-2.36,9.63-8.2C44.23,18.3,42.78,12.76,33.12,12.76Z"/><circle class="cls-1" cx="33.14" cy="41.4" r="2.29"/></g></g></svg>