<svg xmlns="http://www.w3.org/2000/svg" viewBox="0 0 65.48 62.93"><defs><style>.cls-1{fill:#455a64;}</style></defs><title>Refinance</title><g id="Layer_2" data-name="Layer 2"><g id="Layer_8" data-name="Layer 8"><path class="cls-1" d="M19.63,48.27H45.51a1.5,1.5,0,0,0,1.5-1.5v-17L49.24,32a1.5,1.5,0,0,0,2.12-2.12L47,25.47a1.49,1.49,0,0,0-.2-.47V15.21a1.5,1.5,0,0,0-1.5-1.5H39.78a1.5,1.5,0,0,0-1.5,1.5v1.57l-4.65-4.65a1.5,1.5,0,0,0-2.12,0L13.78,29.87A1.5,1.5,0,0,0,15.9,32l2.24-2.24v17A1.5,1.5,0,0,0,19.63,48.27ZM41.28,19.78V16.71h2.48v5.55l-2.48-2.48Zm-8.71-4.46L44,26.76V45.27H21.13V26.76Z"/><path class="cls-1" d="M30.78,32.91l.64.32a1.46,1.46,0,0,0,.22.08l.23.12c2.11,1,2.84,1.48,2.84,2.94,0,.59,0,1.81-2.93,1.81-2.1,0-2.37-.88-2.39-1a1.5,1.5,0,0,0-3,.27c.08,1.16,1.11,3.26,4.25,3.67v1a1.5,1.5,0,0,0,3,0V41a4.5,4.5,0,0,0,4.06-4.64c0-3.39-2.39-4.58-4.5-5.63l-.74-.37a1.5,1.5,0,0,0-.27-.11l-.09,0c-1.92-1-2.37-1.29-2.37-2.4,0-.48,0-1.38,2.36-1.38,1.38,0,1.84.46,1.9.74a.38.38,0,0,1,0-.08l3-.22a3.89,3.89,0,0,0-3.34-3.28V21.82a1.5,1.5,0,0,0-3,0v1.74a4.2,4.2,0,0,0-3.91,4.27C26.75,30.9,28.89,32,30.78,32.91Z"/><path class="cls-1" d="M3.6,22.82A1.51,1.51,0,0,0,4,22.77l7.86-2.1a1.5,1.5,0,0,0-.78-2.9L6.67,18.94a28.47,28.47,0,0,1,54,12.52,1.5,1.5,0,0,0,3,0A31.46,31.46,0,0,0,4.1,17.39L2.95,13.07a1.5,1.5,0,1,0-2.9.77l2.1,7.86A1.5,1.5,0,0,0,3.6,22.82Z"/><path class="cls-1" d="M65.42,46.14l-2.29-7.6a1.5,1.5,0,0,0-1.87-1l-7.6,2.29a1.5,1.5,0,1,0,.87,2.87l4.39-1.32A28.46,28.46,0,0,1,3.78,31.46a1.5,1.5,0,0,0-3,0,31.47,31.47,0,0,0,60.64,11.8L62.55,47a1.5,1.5,0,0,0,2.87-.87Z"/></g></g></svg>