<svg xmlns="http://www.w3.org/2000/svg" viewBox="0 0 65.77 65.48"><defs><style>.cls-1{fill:#455a64;}</style></defs><title>RentVsBuy</title><g id="Layer_2" data-name="Layer 2"><g id="Layer_8" data-name="Layer 8"><path class="cls-1" d="M10,55.19a1.5,1.5,0,0,1-1.5-1.5V37.86a1.5,1.5,0,0,1,1.2-1.47,18,18,0,0,1,3.55-.34A6.16,6.16,0,0,1,18,37.88a5.93,5.93,0,0,1,1.54,4.42A5.83,5.83,0,0,1,16,47.37a12.07,12.07,0,0,1-4.51.63v5.69A1.5,1.5,0,0,1,10,55.19Zm1.5-16V45a9.63,9.63,0,0,0,3.38-.41,2.78,2.78,0,0,0,1.71-2.42,2.94,2.94,0,0,0-.74-2.26,3.36,3.36,0,0,0-2.6-.87A16,16,0,0,0,11.46,39.15Z"/><path class="cls-1" d="M29.67,55.19H22.28a1.5,1.5,0,0,1-1.5-1.5v-16a1.5,1.5,0,0,1,1.5-1.5h7.1a1.5,1.5,0,1,1,0,3h-5.6v5.51h3.68a1.5,1.5,0,1,1,0,3H23.78v4.51h5.89a1.5,1.5,0,0,1,0,3Z"/><path class="cls-1" d="M43.68,55.19a1.5,1.5,0,0,1-1.28-.71L35.32,43V53.69a1.5,1.5,0,0,1-3,0v-16a1.5,1.5,0,0,1,2.78-.79L42.18,48.4V37.67a1.5,1.5,0,0,1,3,0v16a1.5,1.5,0,0,1-1.5,1.5Z"/><path class="cls-1" d="M60.27,65.48H5.5A5.51,5.51,0,0,1,0,60V28.89a5.51,5.51,0,0,1,5.5-5.5h5.91L32,2.79a1.5,1.5,0,0,1,2.13,0L54.36,23.39h5.91a5.51,5.51,0,0,1,5.5,5.5V60A5.51,5.51,0,0,1,60.27,65.48ZM5.5,26.39A2.5,2.5,0,0,0,3,28.89V60a2.5,2.5,0,0,0,2.5,2.5H60.27a2.5,2.5,0,0,0,2.5-2.5V28.89a2.5,2.5,0,0,0-2.5-2.5Zm10.15-3H50.16L33.06,6Z"/><path class="cls-1" d="M8,32.54A1.51,1.51,0,0,1,6.53,31,1.49,1.49,0,0,1,8,29.54H8a1.5,1.5,0,0,1,0,3Z"/><path class="cls-1" d="M58,32.54A1.51,1.51,0,0,1,56.53,31,1.49,1.49,0,0,1,58,29.54h0a1.5,1.5,0,0,1,0,3Z"/><path class="cls-1" d="M33.07,7.69a3.85,3.85,0,1,1,3.85-3.85A3.85,3.85,0,0,1,33.07,7.69Zm0-4.69a.85.85,0,1,0,.85.85A.85.85,0,0,0,33.07,3Z"/><path class="cls-1" d="M18.1,55.3a1.5,1.5,0,0,1-1.37-.89l-3-6.9a1.5,1.5,0,1,1,2.74-1.21l3,6.9A1.5,1.5,0,0,1,18.1,55.3Z"/><path class="cls-1" d="M57.51,39.07H47.92a1.5,1.5,0,0,1,0-3h9.59a1.5,1.5,0,0,1,0,3Z"/><path class="cls-1" d="M52.77,55.12a1.5,1.5,0,0,1-1.5-1.5v-16a1.5,1.5,0,0,1,3,0v16A1.5,1.5,0,0,1,52.77,55.12Z"/></g></g></svg>