<svg xmlns="http://www.w3.org/2000/svg" viewBox="0 0 61.41 66.31"><defs><style>.cls-1{fill:#455a64;}</style></defs><title>ReverseMort</title><g id="Layer_2" data-name="Layer 2"><g id="Layer_8" data-name="Layer 8"><path class="cls-1" d="M61,29.64,53.35,22a1.48,1.48,0,0,0,.16-.66V8.51A1.5,1.5,0,0,0,52,7H44.55a1.5,1.5,0,0,0-1.5,1.5v3.22L31.76.44a1.5,1.5,0,0,0-2.12,0L.44,29.64a1.5,1.5,0,0,0-.19,1.89l3.5,5.29A1.5,1.5,0,0,0,6.06,37L7.9,35.21V60.08a1.5,1.5,0,0,0,1.5,1.5h5.22l-.53,3a1.5,1.5,0,0,0,1.48,1.76h0L46.71,66a1.5,1.5,0,0,0,1.46-1.79l-.52-2.68H52a1.5,1.5,0,0,0,1.5-1.5V35.21L55.34,37a1.5,1.5,0,0,0,1.06.44h.15a1.5,1.5,0,0,0,1.1-.66l3.5-5.29A1.5,1.5,0,0,0,61,29.64ZM46.05,14.35V10h4.45v9.17L46,14.69A1.49,1.49,0,0,0,46.05,14.35Zm-27.62,26h-.9a.71.71,0,1,1,0-1.41h1.16Zm3.3-1.41H24.3A7.3,7.3,0,0,0,31,49.24H31a7.3,7.3,0,0,0,6.59-10.32h2.54L43.34,55.2a8.43,8.43,0,0,0-7.15,7.93L26,63.22a8.43,8.43,0,0,0-7.26-7.8Zm12.31,0a4.31,4.31,0,0,1-3,7.32h0a4.31,4.31,0,0,1-3.08-7.32Zm9.18,0H44.7a.71.71,0,1,1,0,1.41H43.49Zm-25,19.48a5.47,5.47,0,0,1,3.19,1.5A5.41,5.41,0,0,1,23,63.25l-5.65,0Zm21,4.71a5.36,5.36,0,0,1,4.7-4.94l1,4.9ZM50.51,32.76V58.58H47.06l-3-15.25h.63a3.71,3.71,0,1,0,0-7.41H17.52a3.71,3.71,0,1,0,0,7.41h.37L15.16,58.58H10.9V32.48a1.49,1.49,0,0,0,0-.24L30.7,12.41,50.59,32.29A1.48,1.48,0,0,0,50.51,32.76Zm5.66.87L31.76,9.23a1.5,1.5,0,0,0-2.12,0L5.24,33.63,3.43,30.9,30.7,3.62,58,30.9Z"/></g></g></svg>