<svg xmlns="http://www.w3.org/2000/svg" viewBox="0 0 50.29 66.18"><defs><style>.cls-1{fill:#455a64;}</style></defs><title>Reviews</title><g id="Layer_2" data-name="Layer 2"><g id="Layer_8" data-name="Layer 8"><path class="cls-1" d="M49.86,23.39,48,20.18a5.38,5.38,0,0,1-.59-2.2v-3.7a3.75,3.75,0,0,0-1.74-3l-3.2-1.85A5.4,5.4,0,0,1,40.86,7.8L39,4.6a3.74,3.74,0,0,0-3-1.74h-3.7a5.37,5.37,0,0,1-2.2-.59L26.88.41a3.87,3.87,0,0,0-3.49,0L20.2,2.27a5.4,5.4,0,0,1-2.2.59H14.3a3.74,3.74,0,0,0-3,1.74L9.43,7.8A5.39,5.39,0,0,1,7.82,9.41L4.61,11.26a3.75,3.75,0,0,0-1.74,3V18a5.39,5.39,0,0,1-.59,2.2L.43,23.39a3.73,3.73,0,0,0,0,3.48l1.85,3.2a5.39,5.39,0,0,1,.59,2.2V36a3.76,3.76,0,0,0,1.74,3l3.2,1.85a5.12,5.12,0,0,1,1,.88,4.35,4.35,0,0,1,.57.73l1.18,2-5,14.69a1.5,1.5,0,0,0,1.78,1.94l7.9-1.95,5,6.41a1.5,1.5,0,0,0,1.18.58l.25,0a1.5,1.5,0,0,0,1.17-1L25,58.88l2.44,6.34A1.5,1.5,0,0,0,30,65.6l5-6.42,7.9,1.95a1.5,1.5,0,0,0,1.76-2L39.36,45l1.5-2.59a4.08,4.08,0,0,1,.57-.73,5,5,0,0,1,1-.88L45.67,39a3.74,3.74,0,0,0,1.75-3v-3.7a5.4,5.4,0,0,1,.59-2.2l1.85-3.2A3.69,3.69,0,0,0,49.86,23.39ZM20.91,61.58l-3.9-5A1.5,1.5,0,0,0,15.46,56L9.29,57.56l3.6-10.49a3.39,3.39,0,0,0,1.4.33H18a5.43,5.43,0,0,1,2.2.59l3.21,1.86a3.41,3.41,0,0,0,1.43.4Zm20-4L34.82,56a1.5,1.5,0,0,0-1.54.53l-4,5.09-2.66-6.9a1.44,1.44,0,0,0-.12-.24l1.94-5.59L30.09,48a5.36,5.36,0,0,1,2.2-.59H36a3.2,3.2,0,0,0,1-.17Zm6.37-32.16-1.85,3.21a8.35,8.35,0,0,0-1,3.7V36a1,1,0,0,1-.25.44L41,38.24a7.85,7.85,0,0,0-1.74,1.43,7.09,7.09,0,0,0-1,1.28l-1.83,3.16,0,0a1,1,0,0,1-.42.25h-3.7a8.32,8.32,0,0,0-3.7,1l-3.16,1.83a1.3,1.3,0,0,1-.53,0l-3.21-1.86a8.39,8.39,0,0,0-3.7-1H14.31a1,1,0,0,1-.44-.24L12,41a7.36,7.36,0,0,0-1-1.29,8,8,0,0,0-1.73-1.42L6.13,36.41A1,1,0,0,1,5.87,36v-3.7a8.35,8.35,0,0,0-1-3.7L3,25.38a.89.89,0,0,1,0-.49l1.85-3.21a8.34,8.34,0,0,0,1-3.7V14.3a1,1,0,0,1,.24-.44L9.32,12A8.34,8.34,0,0,0,12,9.3l1.84-3.19a1,1,0,0,1,.43-.26H18a8.35,8.35,0,0,0,3.7-1L24.86,3a1.3,1.3,0,0,1,.53,0l3.21,1.85a8.32,8.32,0,0,0,3.7,1H36a1,1,0,0,1,.44.24L38.26,9.3A8.35,8.35,0,0,0,41,12l3.19,1.84a1,1,0,0,1,.26.43V18a8.34,8.34,0,0,0,1,3.7l1.84,3.2A.89.89,0,0,1,47.26,25.37Z"/><path class="cls-1" d="M25.15,7.64A17.48,17.48,0,1,0,42.63,25.13,17.51,17.51,0,0,0,25.15,7.64Zm0,32A14.48,14.48,0,1,1,39.63,25.13,14.5,14.5,0,0,1,25.15,39.61Z"/><path class="cls-1" d="M33.12,20.51l-4-.58-1.79-3.64a2.45,2.45,0,0,0-2.17-1.52h0A2.45,2.45,0,0,0,23,16.29l-1.8,3.64-4,.58a2.3,2.3,0,0,0-1.34,4.12l2.91,2.83-.68,4A2.44,2.44,0,0,0,18.9,34a2.14,2.14,0,0,0,1.28.41A3,3,0,0,0,21.55,34l3.59-1.89L28.73,34a2.3,2.3,0,0,0,3.51-2.55l-.69-4,2.9-2.83a2.3,2.3,0,0,0-1.34-4.12ZM28.9,25.87a1.5,1.5,0,0,0-.43,1.33l.62,3.61-3.24-1.7a1.5,1.5,0,0,0-1.4,0L21.2,30.8l.62-3.61a1.5,1.5,0,0,0-.43-1.33l-2.62-2.56,3.62-.52A1.5,1.5,0,0,0,23.52,22l1.62-3.28L26.76,22a1.5,1.5,0,0,0,1.13.82l3.62.53Z"/></g></g></svg>