<svg xmlns="http://www.w3.org/2000/svg" viewBox="0 0 49.72 65.74"><defs><style>.cls-1{fill:#455a64;}</style></defs><title>Ribbon</title><g id="Layer_2" data-name="Layer 2"><g id="Layer_8" data-name="Layer 8"><path class="cls-1" d="M47.05,29.4c1.48-1.48,2.54-2.65,2.66-4.24a3,3,0,0,0,0-.49c-.14-1.57-1.19-2.73-2.65-4.18a7.31,7.31,0,0,1-1.88-2.39,8.3,8.3,0,0,1,.17-3.26c.39-2.25.57-3.82-.34-5.15s-2.77-1.72-4.63-2a7.21,7.21,0,0,1-2.93-.79,7.66,7.66,0,0,1-1.61-2.65c-.89-2-1.58-3.3-2.94-3.94L32.74.26A3.53,3.53,0,0,0,31.42,0,6.64,6.64,0,0,0,28.1,1.23l-.39.23a7.21,7.21,0,0,1-2.84,1.16A7.32,7.32,0,0,1,22,1.44,8,8,0,0,0,18.21,0H18.1a3.27,3.27,0,0,0-1.37.34C15.44,1,14.8,2.26,13.9,4.25a7.67,7.67,0,0,1-1.61,2.66,7,7,0,0,1-2.9.79c-1.89.27-3.67.52-4.68,2C3.8,11,4,12.58,4.37,14.83a8.28,8.28,0,0,1,.17,3.26,7.23,7.23,0,0,1-1.88,2.39C1.18,22,.13,23.14,0,24.72a3,3,0,0,0,0,.49c.14,1.57,1.18,2.72,2.65,4.18a7.31,7.31,0,0,1,1.88,2.39A8.31,8.31,0,0,1,4.37,35c-.39,2.25-.57,3.82.34,5.15s2.77,1.72,4.63,2c.53.08,1.1.16,1.61.27,0,0,0,0,0,.06V64.24a1.5,1.5,0,0,0,2.35,1.24l11.55-7.89,11.57,7.89a1.5,1.5,0,0,0,2.34-1.24V42.45c.5-.11,1-.19,1.56-.26,1.89-.27,3.67-.52,4.68-2,.91-1.3.73-2.88.34-5.13a8.28,8.28,0,0,1-.17-3.26A7.23,7.23,0,0,1,47.05,29.4ZM25.69,54.53a1.5,1.5,0,0,0-1.69,0L14,61.4V45.76c.86,1.89,1.55,3.18,2.88,3.8l.15.07a3.53,3.53,0,0,0,1.32.25,6.64,6.64,0,0,0,3.32-1.23l.39-.23a7.21,7.21,0,0,1,2.84-1.16,7.33,7.33,0,0,1,2.88,1.18,8,8,0,0,0,3.78,1.42h.11A3.27,3.27,0,0,0,33,49.52c1.25-.62,1.9-1.84,2.77-3.77V61.41ZM44.94,27.27a9.27,9.27,0,0,0-2.63,3.63,10.18,10.18,0,0,0,.08,4.66c.32,1.83.36,2.62.14,2.93s-.88.48-2.62.73a9,9,0,0,0-4.3,1.38,9.49,9.49,0,0,0-2.52,3.81C32.35,46,32,46.68,31.65,46.84a.32.32,0,0,1-.14,0,7.25,7.25,0,0,1-2.3-1,9.22,9.22,0,0,0-4.35-1.56,9.21,9.21,0,0,0-4.36,1.57l-.4.24a4.88,4.88,0,0,1-1.79.82.52.52,0,0,1-.2,0,6.42,6.42,0,0,1-1.48-2.46,9.48,9.48,0,0,0-2.51-3.79,9.07,9.07,0,0,0-4.34-1.38c-1.71-.24-2.39-.43-2.59-.72s-.17-1.1.14-2.93a10.21,10.21,0,0,0,.08-4.65,9.32,9.32,0,0,0-2.63-3.63C3.66,26.15,3,25.44,3,24.95s.65-1.2,1.78-2.33A9.26,9.26,0,0,0,7.41,19a10.18,10.18,0,0,0-.08-4.66C7,12.49,7,11.7,7.19,11.4s.88-.48,2.62-.73a9,9,0,0,0,4.3-1.38,9.49,9.49,0,0,0,2.52-3.81C17.36,3.86,17.75,3.2,18.07,3a.32.32,0,0,1,.14,0,7.26,7.26,0,0,1,2.3,1,9.22,9.22,0,0,0,4.35,1.56,9.21,9.21,0,0,0,4.36-1.57l.4-.24A4.88,4.88,0,0,1,31.42,3a.52.52,0,0,1,.2,0A6.42,6.42,0,0,1,33.1,5.5a9.49,9.49,0,0,0,2.51,3.79,9.07,9.07,0,0,0,4.34,1.38c1.71.24,2.39.43,2.59.72s.17,1.1-.14,2.93A10.21,10.21,0,0,0,42.31,19a9.32,9.32,0,0,0,2.63,3.63c1.12,1.12,1.74,1.83,1.78,2.32S46.07,26.14,44.94,27.27Z"/><path class="cls-1" d="M24.86,8.6A16.54,16.54,0,1,0,41.4,25.14,16.56,16.56,0,0,0,24.86,8.6Zm0,30.08A13.54,13.54,0,1,1,38.4,25.14,13.56,13.56,0,0,1,24.86,38.68Z"/></g></g></svg>