<svg xmlns="http://www.w3.org/2000/svg" viewBox="0 0 43.95 67.32"><defs><style>.cls-1{fill:#455a64;}</style></defs><title>Rocket</title><g id="Layer_2" data-name="Layer 2"><g id="Layer_8" data-name="Layer 8"><path class="cls-1" d="M43.57,45.64a1.5,1.5,0,0,0-.42-1L35.6,36.78c.05-.84.09-1.69.09-2.58a68,68,0,0,0-4.16-22.14C29.87,7.56,26.45,0,22.15,0,16.17,0,8.6,21.21,8.6,34.21c0,.82,0,1.61.07,2.39a1.49,1.49,0,0,0-.31.24L.8,44.71a1.5,1.5,0,0,0-.42,1L0,65.79a1.5,1.5,0,0,0,2.66,1L13.56,53.39c.95,1.71,1.91,3.19,2.75,4.49l.21.32a1.5,1.5,0,0,0,1.26.68h2.79v6.25a1.5,1.5,0,0,0,3,0V58.88h2.77a1.5,1.5,0,0,0,1.13-.52l.65-.75a1.64,1.64,0,0,0,.15-.21l.49-.81c.56-.92,1.18-1.94,1.81-3.06L41.29,66.7a1.5,1.5,0,0,0,2.66-1ZM3.08,61.5l.29-15.14L8.54,41a58.45,58.45,0,0,0,2,6.84c.28.77.55,1.48.83,2.17h0l.18.42.19.45ZM22.15,3c1.52,0,3.65,3,5.59,7.63H17.06C19,6.13,21.07,3.11,22.15,3ZM26.2,55l-.43.71-.12.14H23.57v-13a1.5,1.5,0,0,0-3,0v13h-2c-2.87-4.43-7-11-7-21.67,0-7,1.95-14.6,4.22-20.57H28.9a64.44,64.44,0,0,1,3.79,20.58C32.69,44.38,28.94,50.54,26.2,55Zm6-4.22.2-.46.17-.42h0c.28-.69.55-1.4.83-2.18a58.31,58.31,0,0,0,2-6.83l5.17,5.37.29,15.14Z"/><path class="cls-1" d="M22,18.44a6.17,6.17,0,1,0,6.17,6.17A6.18,6.18,0,0,0,22,18.44Zm0,9.34a3.17,3.17,0,1,1,3.17-3.17A3.17,3.17,0,0,1,22,27.78Z"/></g></g></svg>