<svg xmlns="http://www.w3.org/2000/svg" viewBox="0 0 65.3 41.4"><defs><style>.cls-1{fill:#455a64;}</style></defs><title>RV</title><g id="Layer_2" data-name="Layer 2"><g id="Layer_8" data-name="Layer 8"><path class="cls-1" d="M62.68,20.18l-.23,0L56.67,20l-4.38-6H59.8a1.5,1.5,0,0,0,1.5-1.5V9a9,9,0,0,0-9-9h-49A3.2,3.2,0,0,0,0,3.1V31.58a2.3,2.3,0,0,0,2.27,2.3L8.81,34h.33c0,.14,0,.28,0,.42a6.94,6.94,0,0,0,13.88,0c0-.14,0-.28,0-.42l20.2,0c0,.14,0,.27,0,.41a6.94,6.94,0,0,0,13.88,0c0-.14,0-.27,0-.41h6.76a1.5,1.5,0,0,0,1.5-1.5l0-9.18A3.33,3.33,0,0,0,62.68,20.18Zm-9.77-.25H41.29V14h7.18l.17.1ZM16.05,38.4A3.94,3.94,0,1,1,20,34.46,3.94,3.94,0,0,1,16.05,38.4Zm34,0A3.94,3.94,0,1,1,54,34.46,3.94,3.94,0,0,1,50.08,38.4Zm12.19-7.34H56.12a6.93,6.93,0,0,0-12.07,0L22.48,31h0a1.49,1.49,0,0,0-.36,0,6.93,6.93,0,0,0-12.1,0l-.18,0L3,30.9V3.12A.56.56,0,0,1,3.36,3h49a6,6,0,0,1,6,6v2H48.46c-3.37,0-6.09,0-8,0h-.7a1.5,1.5,0,0,0-1.5,1.49,1.64,1.64,0,0,0,0,.22v8.75a1.5,1.5,0,0,0,1.5,1.5H55.65l.2,0,6.31.2a.37.37,0,0,1,.14.24Z"/><path class="cls-1" d="M16.15,7.51H9a2.89,2.89,0,0,0-3,2.74V15a2.89,2.89,0,0,0,3,2.74h7.2a2.89,2.89,0,0,0,3-2.74V10.25A2.89,2.89,0,0,0,16.15,7.51Zm0,7.24H8.94V10.51h7.22Z"/></g></g></svg>