<svg xmlns="http://www.w3.org/2000/svg" viewBox="0 0 59.8 68.13"><defs><style>.cls-1{fill:#455a64;}</style></defs><title>Safe</title><g id="Layer_2" data-name="Layer 2"><g id="Layer_8" data-name="Layer 8"><path class="cls-1" d="M51.59,0H8.21A8.22,8.22,0,0,0,0,8.21V51.59a8.16,8.16,0,0,0,3.75,6.88v8.16a1.5,1.5,0,0,0,1.5,1.5h4.88a1.5,1.5,0,0,0,1.13-.52L18,59.8H42.22L49,67.61a1.5,1.5,0,0,0,1.13.52H55a1.5,1.5,0,0,0,1.5-1.5V58.15a8.25,8.25,0,0,0,3.3-6.56V8.21A8.22,8.22,0,0,0,51.59,0ZM56.8,51.59a5.25,5.25,0,0,1-2.57,4.47,1.5,1.5,0,0,0-.73,1.29v7.77H50.8L44,57.32a1.5,1.5,0,0,0-1.13-.52H17.35a1.5,1.5,0,0,0-1.13.52L9.45,65.13H6.75V57.6a1.5,1.5,0,0,0-.83-1.34A5.19,5.19,0,0,1,3,51.59V8.21A5.21,5.21,0,0,1,8.21,3H51.59A5.22,5.22,0,0,1,56.8,8.21Z"/><path class="cls-1" d="M50.34,6.41H9.46A3.06,3.06,0,0,0,6.41,9.46V50.34A3.06,3.06,0,0,0,9.46,53.4H50.34a3.06,3.06,0,0,0,3.05-3.06V9.46A3.06,3.06,0,0,0,50.34,6.41Zm0,44L9.41,50.34,9.46,9.41H50.34l.05.05Z"/><path class="cls-1" d="M17.51,21.08a1.5,1.5,0,0,0-1.5,1.5V37.22a1.5,1.5,0,0,0,3,0V22.58A1.5,1.5,0,0,0,17.51,21.08Z"/><path class="cls-1" d="M46.63,27.37H42.9a1.5,1.5,0,0,0-1.35.85A6,6,0,0,0,40,25.06a1.44,1.44,0,0,0,1.93-.13l2.64-2.64a1.5,1.5,0,0,0-2.12-2.12l-2.64,2.64a1.48,1.48,0,0,0-.1,2,5.94,5.94,0,0,0-3.47-1.52,1.5,1.5,0,0,0,1.14-1.45V18.07a1.5,1.5,0,0,0-3,0V21.8a1.5,1.5,0,0,0,1.09,1.44,5.93,5.93,0,0,0-3.17,1.06,1.48,1.48,0,0,0-.36-1.49l-2.64-2.64a1.5,1.5,0,0,0-2.12,2.12l2.64,2.64a1.28,1.28,0,0,0,1.36.38,6,6,0,0,0-1.28,2.52,1.49,1.49,0,0,0-1.09-.47H25a1.5,1.5,0,0,0,0,3h3.73a1.49,1.49,0,0,0,1-.38,5.93,5.93,0,0,0,.88,2.41,1.47,1.47,0,0,0-.85.4l-2.64,2.64a1.5,1.5,0,0,0,2.12,2.12l2.64-2.64a1.46,1.46,0,0,0,.39-.8,5.94,5.94,0,0,0,2.32,1,1.49,1.49,0,0,0-.27.86v3.73a1.5,1.5,0,0,0,3,0V35.93A1.49,1.49,0,0,0,37,35a5.94,5.94,0,0,0,2.32-1.11,1.49,1.49,0,0,0,.43,1l2.64,2.64a1.5,1.5,0,0,0,2.12-2.12L41.89,32.8a1.48,1.48,0,0,0-1.18-.42,5.93,5.93,0,0,0,.91-2.75,1.49,1.49,0,0,0,1.28.73h3.73a1.5,1.5,0,0,0,0-3Zm-11,4.8a3,3,0,1,1,3-3A3,3,0,0,1,35.67,32.17Z"/></g></g></svg>