<svg xmlns="http://www.w3.org/2000/svg" viewBox="0 0 66.84 66.64"><defs><style>.cls-1{fill:#455a64;}</style></defs><title>SailBoat</title><g id="Layer_2" data-name="Layer 2"><g id="Layer_8" data-name="Layer 8"><path class="cls-1" d="M66.59,49.42a1.5,1.5,0,0,0-1.25-.68l-24.12-.13h0a1.5,1.5,0,0,0-1.49,1.33.75.75,0,0,1-.7.73h-.47a1.49,1.49,0,0,0,.25-.84l0-3.5,22.93.24h0a1.5,1.5,0,0,0,1.5-1.52C63.1,33.52,50.6,2,37.17,0A1.52,1.52,0,0,0,36,.36a1.5,1.5,0,0,0-.52,1.14V11.66c-8,7.82-19.74,25-19.61,33.21a1.5,1.5,0,0,0,1.5,1.48H35.78l0,3.51a1.49,1.49,0,0,0,.25.82h-.77a.75.75,0,0,1-.7-.73,1.5,1.5,0,0,0-1.49-1.33H1.5a1.5,1.5,0,0,0-1.42,2l5,14.57a1.5,1.5,0,0,0,.61.77c.83.53,5,.69,9.77.69,6.17,0,13.33-.27,15.52-.36,8.86-.36,24.2-1.23,27.32-3,2.7-1.53,5.44-5.6,8.38-12.45A1.5,1.5,0,0,0,66.59,49.42Zm-6.44-5.85-21.38-.22-.2-31.18a1.48,1.48,0,0,0-.12-.55V3.45C48.52,7.39,59.13,31.87,60.15,43.57ZM35.44,15.92V43.35H19C20,37.56,26.8,25.08,35.44,15.92ZM56.86,60.68c-4,2.29-43.37,3.44-49.18,2.74L3.6,51.62H32a3.69,3.69,0,0,0,3.29,2.06H39a3.69,3.69,0,0,0,3.29-2.06L63,51.73C60.06,58.11,57.92,60.07,56.86,60.68Z"/></g></g></svg>