<svg xmlns="http://www.w3.org/2000/svg" viewBox="0 0 66.74 66.33"><defs><style>.cls-1{fill:#455a64;}</style></defs><title>Scale</title><g id="Layer_2" data-name="Layer 2"><g id="Layer_8" data-name="Layer 8"><path class="cls-1" d="M66.74,38.09s0,0,0,0v0s0-.07,0-.11a1.5,1.5,0,0,0,0-.17,2.92,2.92,0,0,0-.25-.87l-9.6-18.35c2.25.32,5,0,6.81-1.84a1.5,1.5,0,0,0-2.12-2.12c-1.23,1.23-3.61,1.26-5.32.77A11.12,11.12,0,0,1,53.33,14c-6.49-4.15-12.18-7.62-16-8h-.16a4.17,4.17,0,0,0-2.3-2.1V1.5a1.5,1.5,0,1,0-3,0V3.9A4.18,4.18,0,0,0,29.59,6h-.14c-3.87.4-9.55,3.87-16,8a11.12,11.12,0,0,1-2.89,1.35c-1,.27-3.34.75-4.85-.77a1.5,1.5,0,0,0-2.12,2.12,7.26,7.26,0,0,0,6.35,1.85L.29,37l0,.06a2.78,2.78,0,0,0-.22.82s0,.09,0,.14,0,.09,0,.13v0s0,0,0,0a1.5,1.5,0,0,0,0,.32v0a12.22,12.22,0,0,0,11.82,9.65,12.29,12.29,0,0,0,11.63-9,2.72,2.72,0,0,0,.16-.59l0-.13h0a1.51,1.51,0,0,0,0-.31s0,0,0,0h0a1.48,1.48,0,0,0-.06-.38,2.76,2.76,0,0,0-.28-.88l-10-19.32a16.08,16.08,0,0,0,1.71-1c5.75-3.68,11.18-7,14.43-7.52a4.17,4.17,0,0,0,2.37,2.53V47.48c-.66,0-1.59.35-11,8.92a1.46,1.46,0,0,0-.42.77h-3a5.3,5.3,0,0,0-5.29,5.29v2.36a1.5,1.5,0,0,0,1.5,1.5H52.24a1.5,1.5,0,0,0,1.5-1.5V62.47a5.3,5.3,0,0,0-5.29-5.29H46.34a1.46,1.46,0,0,0-.42-.75C36.13,47.5,35.5,47.5,34.84,47.5h0V11.65A4.16,4.16,0,0,0,37.33,9c3.26.53,8.66,3.85,14.38,7.52a16.08,16.08,0,0,0,1.71,1l-10,19.32a2.72,2.72,0,0,0-.28.85s0,0,0,.05A1.49,1.49,0,0,0,43,38s0,.07,0,.1,0,0,0,0a1.5,1.5,0,0,0,0,.31h0l0,.13a2.88,2.88,0,0,0,.16.59,12,12,0,0,0,23.44-.69v0A1.49,1.49,0,0,0,66.74,38.09ZM11.86,45.16a9.11,9.11,0,0,1-8.27-5.49H20.12A9.06,9.06,0,0,1,11.86,45.16Zm8-8.49H3.83l8-15.38ZM33.38,8.92a1.16,1.16,0,1,1,1.16-1.16A1.17,1.17,0,0,1,33.38,8.92ZM50.74,62.47v.86H15.09v-.86a2.3,2.3,0,0,1,2.29-2.29H48.45A2.3,2.3,0,0,1,50.74,62.47Zm-8.46-5.29H24.43c3.38-3,6.8-6,7.82-6.69h2.23C35.5,51.19,38.9,54.14,42.28,57.18Zm12.58-36,8,15.38h-16Zm0,23.87a9.06,9.06,0,0,1-8.26-5.49H63.15A9.11,9.11,0,0,1,54.88,45.08Z"/></g></g></svg>