<svg xmlns="http://www.w3.org/2000/svg" viewBox="0 0 63.36 64.42"><defs><style>.cls-1{fill:#455a64;}</style></defs><title>Search</title><g id="Layer_2" data-name="Layer 2"><g id="Layer_8" data-name="Layer 8"><path class="cls-1" d="M61.81,51.48l-.09-.09-14.17-13A25.55,25.55,0,1,0,38,47.8L49.88,62.55l.08.09a5.08,5.08,0,0,0,3.76,1.79c1.83,0,3.88-1,6.14-3.14C64.75,56.72,63.62,53.44,61.81,51.48ZM3,25.53A22.53,22.53,0,1,1,25.53,48.06,22.55,22.55,0,0,1,3,25.53ZM57.81,59.08c-3.7,3.44-5,2.25-5.63,1.54L40.63,46.29a25.52,25.52,0,0,0,2.47-2l11.76,12A1.5,1.5,0,1,0,57,54.17l-11.8-12c.3-.34.59-.68.87-1L59.65,53.57C60.29,54.26,61.47,55.68,57.81,59.08Z"/><path class="cls-1" d="M25.53,6.08A19.45,19.45,0,1,0,45,25.53,19.47,19.47,0,0,0,25.53,6.08Zm0,35.91A16.45,16.45,0,1,1,42,25.53,16.47,16.47,0,0,1,25.53,42Z"/></g></g></svg>