<svg xmlns="http://www.w3.org/2000/svg" viewBox="0 0 52.96 65.97"><defs><style>.cls-1{fill:#455a64;}</style></defs><title>ShoppingBag</title><g id="Layer_2" data-name="Layer 2"><g id="Layer_8" data-name="Layer 8"><path class="cls-1" d="M51,17.37a1.5,1.5,0,0,0-1.5-1.44H3.28a1.5,1.5,0,0,0-1.5,1.44L0,64.41A1.5,1.5,0,0,0,1.5,66h50A1.5,1.5,0,0,0,53,64.41ZM3.06,63l1.67-44H48.07l1.82,44Z"/><path class="cls-1" d="M42.15,25.38l-7.2-4.16a1.73,1.73,0,0,0-1.29-.29,2.15,2.15,0,0,0-1.54,1.19,1.51,1.51,0,0,0-.11.29L29.73,31a1.5,1.5,0,0,0,.08,1l5.35,12.17a1.5,1.5,0,0,0,2,.77l10.22-4.54a1.5,1.5,0,0,0,.77-2L42.77,26.08A1.5,1.5,0,0,0,42.15,25.38ZM37.3,41.56,32.76,31.26l1.8-6.8,5.66,3.27,4.56,10.51Z"/><path class="cls-1" d="M16.05,15.55a1.5,1.5,0,0,0,1.5-1.5V11.79A8.8,8.8,0,0,1,26.35,3h.26a8.8,8.8,0,0,1,8.79,8.79V14a1.5,1.5,0,0,0,3,0V11.79A11.81,11.81,0,0,0,26.61,0h-.26A11.81,11.81,0,0,0,14.55,11.79V14A1.5,1.5,0,0,0,16.05,15.55Z"/></g></g></svg>