<svg xmlns="http://www.w3.org/2000/svg" viewBox="0 0 65.77 49.07"><defs><style>.cls-1{fill:#455a64;}</style></defs><title>SidebySide</title><g id="Layer_2" data-name="Layer 2"><g id="Layer_8" data-name="Layer 8"><path class="cls-1" d="M51.87,30.29H57a7.32,7.32,0,0,1,4.67,1.66,1.5,1.5,0,0,0,2.45-1.17l0-4.29a2.22,2.22,0,0,0-2.22-2.22h-.6c-.22-2.23-.87-4.64-3.7-5.26a117.54,117.54,0,0,0-12.52-1.9,1.45,1.45,0,0,0-.26,0L38.88,2.33c-.19-.79-1-2.33-4.53-2.33H17.27a1.5,1.5,0,0,0-1.5,1.5v17h-5c-2,0-2.81.27-3.58,1.22l-.48.53h-4A2.71,2.71,0,0,0,0,22.9v5.9a1.5,1.5,0,0,0,1.5,1.5H10a9.28,9.28,0,0,1,9,9.31c0,.26,0,.51,0,.76A1.5,1.5,0,0,0,20.49,42h0l26,0A1.5,1.5,0,0,0,48,40.69l1.24-7.27C49.37,32,50,30.29,51.87,30.29ZM34.34,3A4,4,0,0,1,36,3.24l0,.07L42,18.09l-3.71-2.14.48-.86a1.5,1.5,0,1,0-2.62-1.46l-2.61,4.67a1.5,1.5,0,1,0,2.62,1.46l.67-1.19,4.64,2.68a1.49,1.49,0,0,0-.2.82l.19,2.85v6.14H34.93V27.78s0,0,0-.06a3.48,3.48,0,0,0-3.47-3.47l-.33,0H25.95V15.79a3.06,3.06,0,0,0-.75-2.33,3.14,3.14,0,0,0-2.35-.82H18.77V3ZM18.93,20.52a1.43,1.43,0,0,0,0-1V15.64h4V24.1h-4ZM46.22,33l-1,6L22,39A12.28,12.28,0,0,0,10.07,27.29H3V23.24H7.37a1.5,1.5,0,0,0,1.11-.49l1-1.05.07-.08,0,0a6.18,6.18,0,0,1,1.22-.08h5.17v4.1a1.5,1.5,0,0,0,1.5,1.5h5.8a1.48,1.48,0,0,0,.68.17H31.2l.25,0a.47.47,0,0,1,.48.4s0,.08,0,.12v4.79a1.5,1.5,0,0,0,1.5,1.5H42.9a1.5,1.5,0,0,0,1.5-1.5V24.82l-.16-2.46,1.42-2.18a112.53,112.53,0,0,1,11.28,1.75c1,.22,1.27,1,1.45,3.92a1.5,1.5,0,0,0,1.5,1.41h1.22v.87A10.47,10.47,0,0,0,57,27.28H51.87C48.84,27.29,46.67,29.49,46.22,33Z"/><path class="cls-1" d="M8.55,32.63a8.22,8.22,0,1,0,8.22,8.22A8.23,8.23,0,0,0,8.55,32.63Zm0,13.44a5.22,5.22,0,1,1,5.22-5.22A5.23,5.23,0,0,1,8.55,46.07Z"/><path class="cls-1" d="M57.55,32.63a8.22,8.22,0,1,0,8.22,8.22A8.23,8.23,0,0,0,57.55,32.63Zm0,13.44a5.22,5.22,0,1,1,5.22-5.22A5.23,5.23,0,0,1,57.55,46.07Z"/></g></g></svg>