<svg xmlns="http://www.w3.org/2000/svg" viewBox="0 0 66.54 41.94"><defs><style>.cls-1{fill:#455a64;}</style></defs><title>SnowMobile</title><g id="Layer_2" data-name="Layer 2"><g id="Layer_8" data-name="Layer 8"><path class="cls-1" d="M66.1,35.14a1.5,1.5,0,0,0-2.12,0l-3.77,3.8H58.27L51.54,32.1h3.92a6.71,6.71,0,0,0,6.7-6.7V15s0-.06,0-.09a1.47,1.47,0,0,0,0-.17,1.43,1.43,0,0,0,0-.14s0-.09,0-.14L62,14.28l-.07-.13L61.85,14l-.1-.12-.1-.1-.11-.09-.13-.08-.09-.05-14-6.75a3,3,0,0,0-1.45-.37h0V4.86A4.86,4.86,0,0,0,41,0h-5.1a1.5,1.5,0,0,0,0,3H41a1.86,1.86,0,0,1,1.86,1.86V6.48h-1A1.5,1.5,0,0,0,40.3,8v1.5a6,6,0,0,0-5.93,1,5.76,5.76,0,0,0-1.66,1.94H14.79c-9.32,0-10.71,4.2-10.71,6.7v8.23A7.71,7.71,0,0,0,7.71,41.89H25.23a7.69,7.69,0,0,0,7.42-9.79H41l6.78,6.84H41.61a1.5,1.5,0,0,0,0,3H60.21a2.91,2.91,0,0,0,2.07-.86l3.82-3.82A1.5,1.5,0,0,0,66.1,35.14ZM36.19,12.89c1.49-1.14,3-1,4.65.35a1.5,1.5,0,0,0,2.46-1.15V9.49l2.63,0L59.17,15.9v4.68H35c0-.8,0-1.56-.06-2.26C34.87,15.28,34.88,13.9,36.19,12.89Zm-21.4,2.56H32c-.06.94,0,1.93,0,3,0,.67.05,1.39.06,2.15h-25V19.16C7.09,16.09,11.28,15.45,14.79,15.45ZM25.23,38.89H7.71a4.71,4.71,0,0,1,0-9.42H25.23a4.71,4.71,0,0,1,0,9.42Zm0-12.42H7.71c-.21,0-.42,0-.62,0V23.57H59.17V25.4a3.71,3.71,0,0,1-3.7,3.7H31A7.69,7.69,0,0,0,25.23,26.48ZM51.55,38.53,45.18,32.1h2.15l6.73,6.84H51.84A1.48,1.48,0,0,0,51.55,38.53Z"/></g></g></svg>