<svg xmlns="http://www.w3.org/2000/svg" viewBox="0 0 65.39 65.39"><defs><style>.cls-1{fill:#455a64;}</style></defs><title>SteeringWheel</title><g id="Layer_2" data-name="Layer 2"><g id="Layer_8" data-name="Layer 8"><path class="cls-1" d="M32.7,0A32.69,32.69,0,1,0,65.39,32.7,32.73,32.73,0,0,0,32.7,0Zm0,62.39A29.69,29.69,0,1,1,62.39,32.7,29.73,29.73,0,0,1,32.7,62.39Z"/><path class="cls-1" d="M13.31,27.45A59.24,59.24,0,0,1,24.1,25.31a1.5,1.5,0,0,0,.89-.42,11,11,0,0,1,15.42,0,1.5,1.5,0,0,0,.89.42,59.3,59.3,0,0,1,10.78,2.14A4,4,0,0,0,56.89,22,26.45,26.45,0,0,0,8.5,22h0a4,4,0,0,0,4.82,5.44Zm-2.08-4.23a23.45,23.45,0,0,1,42.91,0A1,1,0,0,1,53,24.58a61.76,61.76,0,0,0-10.83-2.2,14,14,0,0,0-18.86,0,61.68,61.68,0,0,0-10.83,2.2,1,1,0,0,1-1.2-1.36Z"/><path class="cls-1" d="M40.44,32.7a7.74,7.74,0,1,0-7.74,7.74A7.75,7.75,0,0,0,40.44,32.7ZM32.7,37.43a4.74,4.74,0,1,1,4.74-4.74A4.74,4.74,0,0,1,32.7,37.43Z"/><path class="cls-1" d="M26.54,42.21a1.51,1.51,0,0,0-.54-.84,10.89,10.89,0,0,1-3.82-5.55,1.5,1.5,0,0,0-.91-1,7.62,7.62,0,0,0-3.07-.51l-5.68.26a5.24,5.24,0,0,0-4.7,7,26.37,26.37,0,0,0,16.06,16,4,4,0,0,0,5.22-4.69Zm-.66,12.37h0a1,1,0,0,1-1,.2A23.38,23.38,0,0,1,10.64,40.59a2.24,2.24,0,0,1,2-3l5.68-.26h.19a4.55,4.55,0,0,1,1,.12,13.86,13.86,0,0,0,4.18,6l2.44,10.21A1,1,0,0,1,25.88,54.58Z"/><path class="cls-1" d="M57,36.91a5.27,5.27,0,0,0-4.12-2.32l-5.68-.26a7.66,7.66,0,0,0-3.08.51,1.5,1.5,0,0,0-.91,1,10.92,10.92,0,0,1-3.82,5.55,1.5,1.5,0,0,0-.54.84l-2.56,10.7a4,4,0,0,0,5.22,4.69h0a26.37,26.37,0,0,0,16.06-16A5.27,5.27,0,0,0,57,36.91Zm-2.24,3.68A23.38,23.38,0,0,1,40.51,54.78a1,1,0,0,1-1.3-1.17l2.44-10.2a13.88,13.88,0,0,0,4.18-6,4.64,4.64,0,0,1,1.23-.12l5.68.26a2.25,2.25,0,0,1,2,3Z"/></g></g></svg>