<svg xmlns="http://www.w3.org/2000/svg" viewBox="0 0 65.48 62.93"><defs><style>.cls-1{fill:#455a64;}</style></defs><title>StudentRefi</title><g id="Layer_2" data-name="Layer 2"><g id="Layer_8" data-name="Layer 8"><path class="cls-1" d="M3.6,22.82A1.51,1.51,0,0,0,4,22.77l7.86-2.1a1.5,1.5,0,0,0-.78-2.9L6.67,18.94a28.47,28.47,0,0,1,54,12.52,1.5,1.5,0,0,0,3,0A31.46,31.46,0,0,0,4.1,17.39L2.95,13.07a1.5,1.5,0,1,0-2.9.77l2.1,7.86A1.5,1.5,0,0,0,3.6,22.82Z"/><path class="cls-1" d="M65.42,46.14l-2.29-7.6a1.5,1.5,0,0,0-1.87-1l-7.6,2.29a1.5,1.5,0,1,0,.87,2.87l4.39-1.32A28.46,28.46,0,0,1,3.78,31.46a1.5,1.5,0,0,0-3,0,31.47,31.47,0,0,0,60.64,11.8L62.55,47a1.5,1.5,0,0,0,2.87-.87Z"/><path class="cls-1" d="M19.25,40.42c.24.22,5.92,5.49,13.1,5.49s12.86-5.26,13.09-5.49a1.5,1.5,0,0,0,.47-1.09V30.84l6.63-3.54a1.5,1.5,0,0,0,0-2.66L33,14.83a1.5,1.5,0,0,0-1.35,0L12.17,24.64a1.5,1.5,0,0,0,0,2.66l1.63.87V38.35a2.12,2.12,0,1,0,3,.14V29.77l2,1.07v8.48A1.5,1.5,0,0,0,19.25,40.42Zm23.66-1.78c-1.39,1.14-5.66,4.27-10.57,4.27s-9.18-3.13-10.57-4.27v-6.2l9.86,5.26a1.5,1.5,0,0,0,1.41,0l9.86-5.26ZM32.34,17.85,48.58,26,32.34,34.68l-16-8.54L16.16,26Z"/></g></g></svg>