<svg xmlns="http://www.w3.org/2000/svg" viewBox="0 0 68.44 50.39"><defs><style>.cls-1{fill:#455a64;}</style></defs><title>Student</title><g id="Layer_2" data-name="Layer 2"><g id="Layer_8" data-name="Layer 8"><path class="cls-1" d="M67.61,16.62,34.89.16a1.5,1.5,0,0,0-1.35,0L.83,16.62a1.5,1.5,0,0,0,0,2.66L4.07,21V38.2a4.62,4.62,0,1,0,3,0V22.64l5.4,2.88V40.37a1.5,1.5,0,0,0,.47,1.09c.39.36,9.63,8.93,21.28,8.93s20.89-8.57,21.28-8.93A1.5,1.5,0,0,0,56,40.37V25.52l11.67-6.23a1.5,1.5,0,0,0,0-2.66Zm-62,27.54a1.62,1.62,0,1,1,1.62-1.62A1.62,1.62,0,0,1,5.57,44.16ZM53,39.69c-2,1.66-9.7,7.7-18.75,7.7s-16.8-6-18.75-7.7V27.12l18,9.63a1.5,1.5,0,0,0,1.41,0l18-9.63Zm-18.75-6-24.33-13L30.67,17A3.92,3.92,0,0,0,34,18.63a3.56,3.56,0,0,0,3.84-3.31A3.56,3.56,0,0,0,34,12a3.86,3.86,0,0,0-3.48,1.91L5.63,18.47,4.76,18,34.22,3.18,63.68,18Zm-1-18.4A1.07,1.07,0,0,1,34,15a1.23,1.23,0,0,1,.84.28,1,1,0,0,1-.84.33A1.07,1.07,0,0,1,33.17,15.32Z"/></g></g></svg>