<svg xmlns="http://www.w3.org/2000/svg" viewBox="0 0 65.92 61.35"><defs><style>.cls-1{fill:#455a64;}</style></defs><title>Suitcase</title><g id="Layer_2" data-name="Layer 2"><g id="Layer_8" data-name="Layer 8"><path class="cls-1" d="M41.84,35a1.5,1.5,0,0,0-1.91-.91L27.28,38.59a1.5,1.5,0,0,0-.92,1.91l3.29,9.32a1.5,1.5,0,0,0,1.91.91l12.64-4.47a1.5,1.5,0,0,0,.92-1.91ZM32,47.41l-2.29-6.49,9.82-3.47,2.29,6.49Z"/><path class="cls-1" d="M60.64,10.13H43.17V5.42A5.43,5.43,0,0,0,37.75,0H29a5.43,5.43,0,0,0-5.42,5.42v4.71H5.29A5.29,5.29,0,0,0,0,15.42V56.06a5.29,5.29,0,0,0,5.29,5.29H60.64a5.29,5.29,0,0,0,5.29-5.29V15.42A5.29,5.29,0,0,0,60.64,10.13Zm-10.33,3h3.35V58.35H50.3ZM26.58,5.42A2.42,2.42,0,0,1,29,3h8.75a2.42,2.42,0,0,1,2.42,2.42v4.71H26.58ZM11.84,13.13h3.35V58.35H11.84ZM3,56.06V15.42a2.29,2.29,0,0,1,2.29-2.29H8.84V58.35H5.29A2.29,2.29,0,0,1,3,56.06ZM18.19,13.13H47.3V58.35H18.19ZM62.92,56.06a2.29,2.29,0,0,1-2.29,2.29h-4V13.13h4a2.29,2.29,0,0,1,2.29,2.29Z"/></g></g></svg>