<svg xmlns="http://www.w3.org/2000/svg" viewBox="0 0 66.93 66.93"><defs><style>.cls-1{fill:#455a64;}</style></defs><title>Sun</title><g id="Layer_2" data-name="Layer 2"><g id="Layer_8" data-name="Layer 8"><path class="cls-1" d="M33.25,14.29a19,19,0,1,0,19,19A19,19,0,0,0,33.25,14.29Zm0,35a16,16,0,1,1,16-16A16,16,0,0,1,33.25,49.29Z"/><path class="cls-1" d="M33.46,11.93a1.5,1.5,0,0,0,1.5-1.5V1.5a1.5,1.5,0,0,0-3,0v8.93A1.5,1.5,0,0,0,33.46,11.93Z"/><path class="cls-1" d="M33.46,55A1.5,1.5,0,0,0,32,56.5v8.93a1.5,1.5,0,1,0,3,0V56.5A1.5,1.5,0,0,0,33.46,55Z"/><path class="cls-1" d="M65.43,32H56.5a1.5,1.5,0,0,0,0,3h8.93a1.5,1.5,0,0,0,0-3Z"/><path class="cls-1" d="M11.93,33.46a1.5,1.5,0,0,0-1.5-1.5H1.5a1.5,1.5,0,0,0,0,3h8.93A1.5,1.5,0,0,0,11.93,33.46Z"/><path class="cls-1" d="M49.75,18.67a1.5,1.5,0,0,0,1.06-.44l6.31-6.31A1.5,1.5,0,0,0,55,9.8l-6.31,6.31a1.5,1.5,0,0,0,1.06,2.56Z"/><path class="cls-1" d="M16.11,48.69,9.8,55a1.5,1.5,0,1,0,2.12,2.12l6.31-6.31a1.5,1.5,0,0,0-2.12-2.12Z"/><path class="cls-1" d="M50.81,48.69a1.5,1.5,0,0,0-2.12,2.12L55,57.13A1.5,1.5,0,0,0,57.13,55Z"/><path class="cls-1" d="M16.11,18.23a1.5,1.5,0,0,0,2.12-2.12L11.92,9.8A1.5,1.5,0,0,0,9.8,11.92Z"/></g></g></svg>