<svg xmlns="http://www.w3.org/2000/svg" viewBox="0 0 66.33 66.1"><defs><style>.cls-1{fill:#455a64;}</style></defs><title>Target</title><g id="Layer_2" data-name="Layer 2"><g id="Layer_8" data-name="Layer 8"><path class="cls-1" d="M66.21,6.24a1.5,1.5,0,0,0-1.33-.92L61,5.2l-.37-3.85A1.5,1.5,0,0,0,58,.52c-.65.75-6.62,7.4-6.68,7.47A1.5,1.5,0,0,0,51,9.23l.59,3.67-1.92,1.88a29.68,29.68,0,1,0,2.1,2.14l1.6-1.56,4.67.32h.1a1.5,1.5,0,0,0,1.11-.49l6.74-7.35A1.5,1.5,0,0,0,66.21,6.24Zm-10,30.27a26.61,26.61,0,1,1-8.69-19.64L44.23,20a22.12,22.12,0,1,0,2.1,2.14L49.57,19A26.46,26.46,0,0,1,56.17,36.51Zm-16.23.08A10.44,10.44,0,1,1,35.8,28.3l-4.63,4.53A3.93,3.93,0,1,0,33.28,35l4.63-4.53A10.33,10.33,0,0,1,39.94,36.59ZM38,26.18a13.5,13.5,0,1,0,2.1,2.14l4.12-4a19.27,19.27,0,1,1-2.11-2.13ZM57.47,12.63l-3-.2-.47-3L58,5.06l.17,1.74a1.5,1.5,0,0,0,1.45,1.36l1.94.06Z"/></g></g></svg>