<svg xmlns="http://www.w3.org/2000/svg" viewBox="0 0 68 58.54"><defs><style>.cls-1{fill:#455a64;}</style></defs><title>Telephone</title><g id="Layer_2" data-name="Layer 2"><g id="Layer_8" data-name="Layer 8"><path class="cls-1" d="M45.62,19.69a1.5,1.5,0,0,0,.61.79,28.81,28.81,0,0,0,14.28,4.18,17.73,17.73,0,0,0,2.28-.14,1.5,1.5,0,0,0,1-.6c1.85-2.5,3.13-6,4.17-11.52a1.5,1.5,0,0,0-.34-1.26C59.61,1.81,43.13.16,34,0H34C24.86.16,8.37,1.81.36,11.15A1.5,1.5,0,0,0,0,12.4c1,5.37,2.33,9,4.16,11.52a1.5,1.5,0,0,0,1,.6c5.6.73,12.57-1.48,16.56-4a1.5,1.5,0,0,0,.61-.79,21.36,21.36,0,0,0,.52-6.74,29.68,29.68,0,0,1,4.33-.86v7.27l-3.51.42a1.5,1.5,0,0,0-.91.46L4.56,39.4a1.5,1.5,0,0,0-.41,1.07l.38,16.61A1.5,1.5,0,0,0,6,58.54H62a1.5,1.5,0,0,0,1.5-1.47l.38-16.61a1.5,1.5,0,0,0-.41-1.07L45.18,20.24a1.5,1.5,0,0,0-.91-.45l-3.06-.37V12.15a28.32,28.32,0,0,1,3.89.8A21.36,21.36,0,0,0,45.62,19.69ZM60.85,41l-.33,14.52h-53L7.16,41,24.6,22.7l4.11-.49H39.28l4.11.49ZM38.21,19.21h-8V11.78c1.26-.09,2.54-.15,3.78-.15s2.82.07,4.22.18ZM34,8.62c-4.38,0-10.36.67-13.34,1.94a1.5,1.5,0,0,0-.88,1.68,20.63,20.63,0,0,1-.13,6A25.23,25.23,0,0,1,6.24,21.61c-1.3-2-2.3-4.91-3.12-9C6.55,8.91,14.9,3.33,34,3c19.08.33,27.44,5.91,30.89,9.57-.83,4.15-1.84,7.06-3.13,9a25.27,25.27,0,0,1-13.41-3.36,20.63,20.63,0,0,1-.13-6,1.5,1.5,0,0,0-.88-1.68C44.36,9.29,38.37,8.62,34,8.62Z"/><path class="cls-1" d="M22.74,39.15A11.25,11.25,0,1,0,34,27.89,11.27,11.27,0,0,0,22.74,39.15Zm19.51,0A8.25,8.25,0,1,1,34,30.89,8.26,8.26,0,0,1,42.25,39.15Z"/></g></g></svg>