<svg xmlns="http://www.w3.org/2000/svg" viewBox="0 0 33 66.46"><defs><style>.cls-1{fill:#455a64;}</style></defs><title>Thermometer</title><g id="Layer_2" data-name="Layer 2"><g id="Layer_8" data-name="Layer 8"><path class="cls-1" d="M24.65,35.63V16.82a1.5,1.5,0,0,0-1.5-1.5H9.85a1.5,1.5,0,0,0-1.5,1.5v18.8A16.49,16.49,0,1,0,33,50,16.39,16.39,0,0,0,24.65,35.63ZM16.5,63.46a13.49,13.49,0,0,1-6-25.58,1.5,1.5,0,0,0,.83-1.34V18.32H21.65v2H16a1.5,1.5,0,0,0,0,3h5.67v2.09H16a1.5,1.5,0,0,0,0,3h5.67v2.09H16a1.5,1.5,0,1,0,0,3h5.67v3a1.5,1.5,0,0,0,.83,1.34,13.49,13.49,0,0,1-6,25.58Z"/><path class="cls-1" d="M9.85,13.27a1.5,1.5,0,0,0,1.5-1.5V8.15a5.15,5.15,0,0,1,10.31,0v4a1.5,1.5,0,1,0,3,0v-4a8.15,8.15,0,0,0-16.31,0v3.62A1.5,1.5,0,0,0,9.85,13.27Z"/><path class="cls-1" d="M19.13,39.37a1.5,1.5,0,0,0-.71,2.91,7.83,7.83,0,0,1,6,7.62,1.5,1.5,0,0,0,3,0A10.82,10.82,0,0,0,19.13,39.37Z"/></g></g></svg>