<svg xmlns="http://www.w3.org/2000/svg" viewBox="0 0 63.67 64.67"><defs><style>.cls-1{fill:#455a64;}</style></defs><title>ThumbsDown</title><g id="Layer_2" data-name="Layer 2"><g id="Layer_8" data-name="Layer 8"><path class="cls-1" d="M62.57,30.34a4,4,0,0,0,.72-2.25l0-3.27a4,4,0,0,0-1.16-2.89A4.08,4.08,0,0,0,61,21.11a7.29,7.29,0,0,0,.19-1.64l0-2.79a4,4,0,0,0-1.2-2.88,4.11,4.11,0,0,0-2.39-1.2,9.27,9.27,0,0,0,0-1.21l0-2.65a4.07,4.07,0,0,0-4-4.11L47.4,4.56H47.3l-.19,0H19.41v-1A3.55,3.55,0,0,0,15.86,0H3.55A3.55,3.55,0,0,0,0,3.55V32a3.55,3.55,0,0,0,3.55,3.55H15.86a3.54,3.54,0,0,0,3.52-3.29c1.88.08,9.37,1.38,14.9,16a31.76,31.76,0,0,1,2.14,11.09c0,2.1.56,3.61,1.63,4.5a3.66,3.66,0,0,0,2.39.82,5.25,5.25,0,0,0,1-.09A7.15,7.15,0,0,0,46.76,60a16.82,16.82,0,0,0,.41-8.61c-.47-2.71-.83-5.25-1.08-7.57A3.42,3.42,0,0,1,49,40a1.49,1.49,0,0,0,.37-.11,1.5,1.5,0,0,0,.32,0l9.88.1h.05a4.07,4.07,0,0,0,4.06-4l0-2.87A4,4,0,0,0,62.57,30.34ZM16.41,32a.55.55,0,0,1-.55.55H3.55A.55.55,0,0,1,3,32V3.55A.55.55,0,0,1,3.55,3H15.86a.55.55,0,0,1,.55.55Zm44.22,4a1,1,0,0,1-.32.74,1,1,0,0,1-.76.3l-9.89-.1a1.53,1.53,0,0,0-.62.12,1.47,1.47,0,0,0-.53,0,6.41,6.41,0,0,0-5.42,7.06c.25,2.39.62,5,1.11,7.77a14.13,14.13,0,0,1-.27,7.07,4.14,4.14,0,0,1-3.07,2.69,1.2,1.2,0,0,1-.9-.08,3.15,3.15,0,0,1-.54-2.2A34.75,34.75,0,0,0,37.09,47.2C31,31,22.09,29.39,19.41,29.29V7.54H47.19l.17,0,6.31.08a1.06,1.06,0,0,1,1,1.08l0,2.7s0,.08,0,.12a7,7,0,0,1,0,1.13,1.5,1.5,0,0,0,.5,2.92h2.08a1.16,1.16,0,0,1,1,1.08l0,2.79c0,.94-.18,1.24-.23,1.27h0a1.5,1.5,0,0,0,0,3h1.33a1.07,1.07,0,0,1,1,1.08l0,3.27a1,1,0,0,1-.32.74,1.07,1.07,0,0,1-.44.26h0l-.44,0a1.5,1.5,0,0,0,.14,3,4.17,4.17,0,0,0,.59,0,1.07,1.07,0,0,1,.9,1.06Z"/></g></g></svg>