<svg xmlns="http://www.w3.org/2000/svg" viewBox="0 0 63.67 64.67"><defs><style>.cls-1{fill:#455a64;}</style></defs><title>ThumbsUp</title><g id="Layer_2" data-name="Layer 2"><g id="Layer_8" data-name="Layer 8"><path class="cls-1" d="M62.57,34.33a4,4,0,0,0,1.1-2.82l0-2.87a4,4,0,0,0-1.23-2.86,4.11,4.11,0,0,0-2.88-1.16l-9.89.09c-.11,0-.21,0-.32,0a1.49,1.49,0,0,0-.36-.11,3.42,3.42,0,0,1-2.87-3.78c.24-2.3.6-4.84,1.08-7.57a16.81,16.81,0,0,0-.41-8.61A7.15,7.15,0,0,0,41.42.09a3.92,3.92,0,0,0-3.36.72c-1.07.89-1.62,2.4-1.63,4.5a31.74,31.74,0,0,1-2.14,11.09c-5.53,14.62-13,15.9-14.9,16a3.54,3.54,0,0,0-3.52-3.29H3.55A3.55,3.55,0,0,0,0,32.65V61.12a3.55,3.55,0,0,0,3.55,3.55H15.86a3.55,3.55,0,0,0,3.55-3.55v-1h27.7l.17,0h.11L53.7,60a4.07,4.07,0,0,0,4-4.11l0-2.6a4,4,0,0,0-.23-1.25A4,4,0,0,0,61.26,48l0-2.79a4,4,0,0,0-.34-1.58,4.07,4.07,0,0,0,2.44-3.77l0-3.27A4,4,0,0,0,62.57,34.33ZM46.16,41.13h0a1.07,1.07,0,0,1-1.06-1h0l0-3.27a1.07,1.07,0,0,1,1-1.07l3.37,0,.25,0h0l9.71-.09a1,1,0,0,1,.81,1l0,3.27a1.06,1.06,0,0,1-1,1.08ZM59.56,27.63h0a1.07,1.07,0,0,1,1.06,1l0,2.87a1.06,1.06,0,0,1-1,1.07,4,4,0,0,0-.42,0h-.05l-9.59.12a1,1,0,0,1-.93-1h0l0-2.87a1.07,1.07,0,0,1,1-1.07ZM16.41,61.12a.55.55,0,0,1-.55.55H3.55A.55.55,0,0,1,3,61.12V32.65a.55.55,0,0,1,.55-.55H15.86a.55.55,0,0,1,.55.55Zm3-25.74c2.68-.1,11.55-1.71,17.68-17.92A34.75,34.75,0,0,0,39.43,5.33,3.15,3.15,0,0,1,40,3.13a1.2,1.2,0,0,1,.9-.09,4.13,4.13,0,0,1,3.07,2.69,13.76,13.76,0,0,1,.27,7.07c-.49,2.79-.86,5.41-1.1,7.77a6.45,6.45,0,0,0,3.07,6.22,4,4,0,0,0-.55,2.05l0,2.87a4,4,0,0,0,.17,1.05A4,4,0,0,0,42,36.85l0,3.27a4,4,0,0,0,.78,2.33,4,4,0,0,0-1.29,3l0,2.79a4,4,0,0,0,2.07,3.47,4,4,0,0,0-.42,1.8l0,2.6h0a4,4,0,0,0,.16,1h-24ZM53.67,57l-6.3.08a1.08,1.08,0,0,1-1.08-1l0-2.6a1.06,1.06,0,0,1,1-1.08l6.3-.08a1,1,0,0,1,1.08,1l0,2.6A1.06,1.06,0,0,1,53.67,57ZM58,48.78a1.06,1.06,0,0,1-.75.32l-11.54.14a1.12,1.12,0,0,1-.75-.3,1,1,0,0,1-.32-.74h0l0-2.79a1.08,1.08,0,0,1,1.05-1.08l11.54-.14h0a1.07,1.07,0,0,1,1.06,1l0,2.79A1.05,1.05,0,0,1,58,48.78Z"/></g></g></svg>