<svg xmlns="http://www.w3.org/2000/svg" viewBox="0 0 65.88 64.3"><defs><style>.cls-1{fill:#455a64;}</style></defs><title>Umbrella</title><g id="Layer_2" data-name="Layer 2"><g id="Layer_8" data-name="Layer 8"><path class="cls-1" d="M34.68,5.55v-4A1.5,1.5,0,0,0,33.17,0h0a1.5,1.5,0,0,0-1.5,1.5v4C15.25,6,0,18.89,0,32.48a1.5,1.5,0,0,0,2.05,1.39l2.06-.82c6.92-3,14.82,3.53,15.7,4.29A1.65,1.65,0,0,0,22.27,37c2.59-3.9,7.52-4.73,9.45-4.91l0,24.88A7.23,7.23,0,0,0,39,64.3a7.4,7.4,0,0,0,7.39-7.39,1.5,1.5,0,0,0-3,0A4.39,4.39,0,0,1,39,61.3,4.26,4.26,0,0,1,34.75,57l0-24.82a12.39,12.39,0,0,1,9,5,1.5,1.5,0,0,0,1.27.71h0a1.5,1.5,0,0,0,1.27-.71C51.3,29,63.76,33.3,63.88,33.34a1.5,1.5,0,0,0,2-1.41C65.88,18.86,51,6.48,34.68,5.55ZM8.05,29.24a12.61,12.61,0,0,0-4.88,1c1.49-10,12.5-19.31,24.77-21.32C23.86,12.63,18.7,20,19.21,33.13,16.61,31.39,12.5,29.24,8.05,29.24ZM32.48,29a17.72,17.72,0,0,0-10.3,3.63c-.5-16.41,8.62-22.65,11.08-24,2.1,1.16,9.56,6.48,10.18,23.89A16.42,16.42,0,0,0,32.48,29Zm14,3.34C46,19.47,41.9,12.56,38.5,9c12.33,2.2,22.94,11.12,24.25,20.89C59.11,29,51.67,28,46.44,32.38Z"/></g></g></svg>