<svg xmlns="http://www.w3.org/2000/svg" viewBox="0 0 59.68 66.34"><defs><style>.cls-1{fill:#455a64;}</style></defs><title>VA</title><g id="Layer_2" data-name="Layer 2"><g id="Layer_8" data-name="Layer 8"><path class="cls-1" d="M29.25,30.34a1.5,1.5,0,0,1-.76-.21L.74,13.8A1.5,1.5,0,0,1,0,12.51V1.5A1.5,1.5,0,0,1,2.27.21L29,16.13,57.44.19A1.5,1.5,0,0,1,59.68,1.5v11a1.5,1.5,0,0,1-.76,1.31L30,30.15A1.5,1.5,0,0,1,29.25,30.34ZM3,11.65,29.27,27.11,56.68,11.63V4.06L29.73,19.17a1.5,1.5,0,0,1-1.5,0L3,4.14Zm55.18.86h0Z"/><path class="cls-1" d="M29.25,48.34a1.5,1.5,0,0,1-.76-.21L.74,31.8A1.5,1.5,0,0,1,0,30.51v-11a1.5,1.5,0,0,1,2.27-1.29L29,34.13,57.44,18.19a1.5,1.5,0,0,1,2.23,1.31v11a1.5,1.5,0,0,1-.76,1.31L30,48.15A1.5,1.5,0,0,1,29.25,48.34ZM3,29.65,29.27,45.11,56.68,29.63V22.06L29.73,37.17a1.5,1.5,0,0,1-1.5,0L3,22.14Z"/><path class="cls-1" d="M29.25,66.34a1.5,1.5,0,0,1-.76-.21L.74,49.8A1.5,1.5,0,0,1,0,48.51v-11a1.5,1.5,0,0,1,2.27-1.29L29,52.13,57.44,36.19a1.5,1.5,0,0,1,2.23,1.31v11a1.5,1.5,0,0,1-.76,1.31L30,66.15A1.5,1.5,0,0,1,29.25,66.34ZM3,47.65,29.27,63.11,56.68,47.63V40.06L29.73,55.17a1.5,1.5,0,0,1-1.5,0L3,40.14Z"/></g></g></svg>