<svg xmlns="http://www.w3.org/2000/svg" viewBox="0 0 61.51 51.33"><defs><style>.cls-1{fill:#455a64;}</style></defs><title>Wallet</title><g id="Layer_2" data-name="Layer 2"><g id="Layer_8" data-name="Layer 8"><path class="cls-1" d="M58,20.88V10.39a5,5,0,0,0-5-4.94H5a5,5,0,0,0-1.43.23C4.41,3.27,6.1,3,7.94,3H49.65a1.5,1.5,0,0,0,0-3H7.94C2.52,0,0,3.17,0,10a1.49,1.49,0,0,0,0,.25c0,.06,0,.11,0,.17v36a5,5,0,0,0,5,4.94H53a5,5,0,0,0,5-4.94V36a5.22,5.22,0,0,0,3.49-4.91V25.79A5.22,5.22,0,0,0,58,20.88ZM53,48.33H5a2,2,0,0,1-2-1.94v-36A2,2,0,0,1,5,8.45H53a2,2,0,0,1,2,1.94V20.57H43.47a5.23,5.23,0,0,0-5.22,5.22v5.33a5.23,5.23,0,0,0,5.22,5.22H55v10A2,2,0,0,1,53,48.33Zm5.48-17.21a2.23,2.23,0,0,1-2.22,2.22H43.47a2.23,2.23,0,0,1-2.22-2.22V25.79a2.23,2.23,0,0,1,2.22-2.22H56.28a2.23,2.23,0,0,1,2.22,2.22Z"/><circle class="cls-1" cx="46.39" cy="28.63" r="1.94"/></g></g></svg>