<svg xmlns="http://www.w3.org/2000/svg" viewBox="0 0 69.84 33.6"><defs><style>.cls-1{fill:#455a64;}</style></defs><title>Watercraft</title><g id="Layer_2" data-name="Layer 2"><g id="Layer_8" data-name="Layer 8"><path class="cls-1" d="M7,22.08h36.1c.05,0,1.65.07,4.06.07,5.74,0,16.08-.39,21-3A1.5,1.5,0,0,0,68.74,17,32.67,32.67,0,0,0,51.8,3.71a13.58,13.58,0,0,0-7.27-.52,1.54,1.54,0,0,0-.34.11L44,3.37l-.49-.7a6.15,6.15,0,0,0-.77-.9A6.67,6.67,0,0,0,36.48.23L33.66,1a1.5,1.5,0,1,0,.75,2.9l2.82-.73a3.67,3.67,0,0,1,3.46.8,3.13,3.13,0,0,1,.4.46l.2.28-.46.22a1.49,1.49,0,0,0-.29.18C38.15,7,36.47,9.62,34.7,12.43l-.08,0L10.17,9.7H10a4.5,4.5,0,0,0-4.5,4.5v6.39A1.5,1.5,0,0,0,7,22.08Zm29.52-7a1.51,1.51,0,0,0,.19-.22l.49-.78c1.61-2.56,3.13-5,5.06-6.56l3-1.43a10.57,10.57,0,0,1,5.53.46A29.61,29.61,0,0,1,65.21,17.17c-5.42,1.85-16,2.18-22,1.91H36.52Zm-28-.9a1.5,1.5,0,0,1,1.43-1.5l23.59,2.66v3.73H8.5Z"/><path class="cls-1" d="M69.23,21.35a1.51,1.51,0,0,0-1.54-.15C62.5,23.66,52.67,24,47.29,24L3.53,23.92H3.4c-1.73,0-3.4.59-3.4,2.32,0,0,.14,2,3.46.68L47.28,27c5.6,0,12.84-.36,18.27-1.87a15.09,15.09,0,0,1-7,5.4A4.28,4.28,0,0,1,57,30a15.38,15.38,0,0,0-13.82.09,4,4,0,0,1-2,.49h-.42A4.25,4.25,0,0,1,38.65,30a14.16,14.16,0,0,0-6.6-1.6h-.52a14.47,14.47,0,0,0-6.75,1.68,4,4,0,0,1-2,.5h-.42A4.24,4.24,0,0,1,20.27,30a14.16,14.16,0,0,0-6.6-1.6h-.36a15,15,0,0,0-6.8,1.64,5.19,5.19,0,0,1-1.43.46A5.25,5.25,0,0,0,1.71,31.7,1.5,1.5,0,0,0,3,33.54,8.88,8.88,0,0,0,4,33.6a8.65,8.65,0,0,0,3.83-.88,11.79,11.79,0,0,1,5.44-1.31h.36a11.12,11.12,0,0,1,5.15,1.23,7.18,7.18,0,0,0,3.56.95h.2a7.06,7.06,0,0,0,3.63-.87,11.26,11.26,0,0,1,5.3-1.3H32a11.12,11.12,0,0,1,5.15,1.23,7.19,7.19,0,0,0,3.56.95H41a6.92,6.92,0,0,0,3.6-.86,12.25,12.25,0,0,1,5.57-1.32,12.09,12.09,0,0,1,5.39,1.23,7.09,7.09,0,0,0,3.12.93,1.5,1.5,0,0,0,.61-.09c6.9-2.53,10.14-7.91,10.57-10.7A1.5,1.5,0,0,0,69.23,21.35Z"/></g></g></svg>