<svg xmlns="http://www.w3.org/2000/svg" viewBox="0 0 49.28 67.78"><defs><style>.cls-1{fill:#455a64;}</style></defs><title>Wedding</title><g id="Layer_2" data-name="Layer 2"><g id="Layer_8" data-name="Layer 8"><path class="cls-1" d="M32.72,19.87,42.06,9.52h0a1.48,1.48,0,0,0,.21-.32l0-.09a1.5,1.5,0,0,0,.1-.32v0a1.5,1.5,0,0,0,0-.38s0-.06,0-.09a1.49,1.49,0,0,0-.09-.33v0h0a1.5,1.5,0,0,0-.16-.28L36.89.6a1.5,1.5,0,0,0-1.2-.6H13.1a1.5,1.5,0,0,0-1.24.66l-4.78,7A1.5,1.5,0,0,0,7,7.89l0,0h0a1.48,1.48,0,0,0-.1.38s0,.06,0,.09a1.5,1.5,0,0,0,0,.35s0,0,0,0A1.5,1.5,0,0,0,7,9.14l0,.08a1.48,1.48,0,0,0,.2.29l0,0,9.59,10.24a24.63,24.63,0,1,0,15.89.09Zm-8-16.09,3,3.24H21.6ZM29.08,10,24.73,21.94,20.22,10Zm-4.44,18.9A14.23,14.23,0,1,1,10.41,43.14,14.25,14.25,0,0,1,24.64,28.91Zm4-9.06L32.28,10h5.3ZM38,7H31.88L28.12,3h6.82ZM13.9,3h7.41L17.42,7H11.16ZM17,10l3.54,9.36L11.79,10Zm7.62,54.77a21.64,21.64,0,0,1-5.53-42.56L22.68,26a17.28,17.28,0,1,0,4.4.07l3.41-3.78a21.63,21.63,0,0,1-5.86,42.46Z"/></g></g></svg>