<svg xmlns="http://www.w3.org/2000/svg" viewBox="0 0 41.49 66.86"><defs><style>.cls-1{fill:#455a64;}</style></defs><title>WineGlass</title><g id="Layer_2" data-name="Layer 2"><g id="Layer_8" data-name="Layer 8"><path class="cls-1" d="M40,0H1.5A1.5,1.5,0,0,0,0,1.5v11a1.49,1.49,0,0,0,0,.18c.21,12,7.38,24.79,18.8,25.9V63.86H6.57a1.5,1.5,0,0,0,0,3H34.06a1.5,1.5,0,0,0,0-3H21.81V38.6c9.53-.88,19.4-10.6,19.66-25.9a1.46,1.46,0,0,0,0-.19V1.5A1.5,1.5,0,0,0,40,0Zm-1.5,3V7.54H3V3Zm0,9.49c-.14,11.19-7.43,23.18-18.06,23.18S3.15,23.64,3,12.49c0,0,0-.09,0-.13V10.54H38.49v1.81S38.48,12.45,38.48,12.49Z"/><path class="cls-1" d="M20.52,30.2C13.47,30.2,9,22.1,8.91,14.59a1.5,1.5,0,0,0-1.5-1.48h0a1.5,1.5,0,0,0-1.5,1.5s0,.07,0,.11c.15,8.91,5.76,18.49,14.61,18.49a1.5,1.5,0,1,0,0-3Z"/></g></g></svg>