<svg xmlns="http://www.w3.org/2000/svg" viewBox="0 0 68.47 61.71"><defs><style>.cls-1{fill:#455a64;}</style></defs><title>ZeroPercent</title><g id="Layer_2" data-name="Layer 2"><g id="Layer_8" data-name="Layer 8"><path class="cls-1" d="M62.08.84a1.5,1.5,0,0,0-2,.55L49.26,20.14a1.5,1.5,0,0,0,2.6,1.49L62.63,2.89A1.5,1.5,0,0,0,62.08.84Z"/><path class="cls-1" d="M52.73,11.71a6.48,6.48,0,0,0,1-2.13,9.9,9.9,0,0,0,.35-2.77A9.9,9.9,0,0,0,53.77,4a6.53,6.53,0,0,0-1-2.13A4.68,4.68,0,0,0,51,.5a4.82,4.82,0,0,0-4.11,0A4.69,4.69,0,0,0,45.2,1.91a6.52,6.52,0,0,0-1,2.13,9.88,9.88,0,0,0-.35,2.77,9.89,9.89,0,0,0,.35,2.77,6.49,6.49,0,0,0,1,2.13,4.65,4.65,0,0,0,1.71,1.4,4.82,4.82,0,0,0,4.1,0A4.64,4.64,0,0,0,52.73,11.71Zm-2-3a3.39,3.39,0,0,1-.51,1.1,1.5,1.5,0,0,1-.55.48,1.61,1.61,0,0,1-1.39,0,1.53,1.53,0,0,1-.56-.48,3.34,3.34,0,0,1-.5-1.1A6.94,6.94,0,0,1,47,6.81a6.94,6.94,0,0,1,.22-1.88,3.36,3.36,0,0,1,.51-1.11,1.51,1.51,0,0,1,2.49,0,3.43,3.43,0,0,1,.51,1.11,6.94,6.94,0,0,1,.22,1.88A6.94,6.94,0,0,1,50.71,8.69Z"/><path class="cls-1" d="M68.11,12.46a6.53,6.53,0,0,0-1-2.13,4.71,4.71,0,0,0-1.71-1.42,4.81,4.81,0,0,0-4.11,0,4.7,4.7,0,0,0-1.71,1.41,6.53,6.53,0,0,0-1,2.13,9.88,9.88,0,0,0-.35,2.77A9.89,9.89,0,0,0,58.51,18a6.5,6.5,0,0,0,1,2.13,4.66,4.66,0,0,0,1.72,1.4,4.83,4.83,0,0,0,4.1,0,4.65,4.65,0,0,0,1.72-1.41,6.48,6.48,0,0,0,1-2.13,9.9,9.9,0,0,0,.35-2.77A9.92,9.92,0,0,0,68.11,12.46Zm-3.06,4.65a3.37,3.37,0,0,1-.51,1.1,1.5,1.5,0,0,1-.55.47,1.6,1.6,0,0,1-1.39,0,1.53,1.53,0,0,1-.56-.48,3.35,3.35,0,0,1-.5-1.1,6.94,6.94,0,0,1-.22-1.88,7,7,0,0,1,.22-1.88,3.39,3.39,0,0,1,.51-1.11,1.54,1.54,0,0,1,.56-.49,1.56,1.56,0,0,1,.69-.16,1.46,1.46,0,0,1,1.24.64,3.42,3.42,0,0,1,.51,1.11,7,7,0,0,1,.22,1.88A6.94,6.94,0,0,1,65.06,17.11Z"/><path class="cls-1" d="M38.73,7.72A19.55,19.55,0,0,0,31.46,1.9a21.48,21.48,0,0,0-9-1.9,21.21,21.21,0,0,0-9,1.91A19.49,19.49,0,0,0,6.32,7.73a28.3,28.3,0,0,0-4.67,9.64A49.28,49.28,0,0,0,0,30.86,49.31,49.31,0,0,0,1.65,44.32,28.29,28.29,0,0,0,6.32,54a19.47,19.47,0,0,0,7.21,5.82,21.21,21.21,0,0,0,9,1.91,21.5,21.5,0,0,0,9-1.9A19.56,19.56,0,0,0,38.73,54a28.34,28.34,0,0,0,4.71-9.67,48.77,48.77,0,0,0,1.67-13.47,48.74,48.74,0,0,0-1.67-13.49A28.36,28.36,0,0,0,38.73,7.72Zm1.83,35.76a25.41,25.41,0,0,1-4.19,8.65,16.59,16.59,0,0,1-6.16,4.94,18.5,18.5,0,0,1-7.74,1.63,18.25,18.25,0,0,1-7.69-1.63,16.51,16.51,0,0,1-6.1-4.94,25.33,25.33,0,0,1-4.15-8.65A46.37,46.37,0,0,1,3,30.86,46.31,46.31,0,0,1,4.53,18.2,25.34,25.34,0,0,1,8.68,9.57a16.51,16.51,0,0,1,6.1-4.94A18.22,18.22,0,0,1,22.47,3a18.51,18.51,0,0,1,7.74,1.63,16.61,16.61,0,0,1,6.16,4.94,25.42,25.42,0,0,1,4.19,8.63,45.78,45.78,0,0,1,1.55,12.65A45.83,45.83,0,0,1,40.56,43.49Z"/><path class="cls-1" d="M31.39,13.21a10.42,10.42,0,0,0-4.12-3.94,10.68,10.68,0,0,0-9.53,0,10.34,10.34,0,0,0-4.08,3.95,22.36,22.36,0,0,0-2.6,7,51.31,51.31,0,0,0-.93,10.65,51.32,51.32,0,0,0,.93,10.65,22.36,22.36,0,0,0,2.6,7,10.33,10.33,0,0,0,4.08,3.95,10.59,10.59,0,0,0,4.74,1.13,10.8,10.8,0,0,0,4.79-1.13,10.4,10.4,0,0,0,4.12-3.94,22.35,22.35,0,0,0,2.64-7A50.25,50.25,0,0,0,35,30.86,50.27,50.27,0,0,0,34,20.2,22.35,22.35,0,0,0,31.39,13.21ZM31.1,40.86a19.45,19.45,0,0,1-2.25,6,7.49,7.49,0,0,1-2.91,2.85,7.56,7.56,0,0,1-6.88,0,7.41,7.41,0,0,1-2.87-2.85,19.47,19.47,0,0,1-2.21-6,48.41,48.41,0,0,1-.86-10,48.44,48.44,0,0,1,.86-10,19.48,19.48,0,0,1,2.21-6A7.43,7.43,0,0,1,19.07,12a7.53,7.53,0,0,1,3.41-.82,7.74,7.74,0,0,1,3.47.82,7.5,7.5,0,0,1,2.91,2.85,19.45,19.45,0,0,1,2.25,6,47.39,47.39,0,0,1,.88,10A47.37,47.37,0,0,1,31.1,40.86Z"/></g></g></svg>