<svg width="32" height="33" viewBox="0 0 32 33" fill="none" xmlns="http://www.w3.org/2000/svg">
<path d="M4.82035 16.7052C4.39519 16.2521 3.68324 16.2295 3.23017 16.6546C2.7771 17.0798 2.75448 17.7918 3.17965 18.2448L4.82035 16.7052ZM12 26L11.1796 26.7698C11.3977 27.0022 11.7042 27.1312 12.0228 27.1248C12.3415 27.1183 12.6424 26.977 12.8509 26.7359L12 26ZM28.8509 8.23592C29.2573 7.76598 29.2059 7.05553 28.7359 6.64909C28.266 6.24265 27.5555 6.29414 27.1491 6.76408L28.8509 8.23592ZM3.17965 18.2448L11.1796 26.7698L12.8204 25.2302L4.82035 16.7052L3.17965 18.2448ZM12.8509 26.7359L28.8509 8.23592L27.1491 6.76408L11.1491 25.2641L12.8509 26.7359Z" fill="black"/>
</svg>
