<svg width="32" height="33" viewBox="0 0 32 33" fill="none" xmlns="http://www.w3.org/2000/svg">
<path d="M4.7292 16.7907C4.35128 16.388 3.71843 16.3679 3.3157 16.7458C2.91298 17.1237 2.89287 17.7566 3.2708 18.1593L4.7292 16.7907ZM12 26L11.2708 26.6843C11.4647 26.8909 11.737 27.0055 12.0203 26.9998C12.3035 26.994 12.571 26.8684 12.7564 26.6542L12 26ZM28.7564 8.15415C29.1176 7.73642 29.0719 7.10491 28.6542 6.74364C28.2364 6.38236 27.6049 6.42812 27.2436 6.84585L28.7564 8.15415ZM3.2708 18.1593L11.2708 26.6843L12.7292 25.3157L4.7292 16.7907L3.2708 18.1593ZM12.7564 26.6542L28.7564 8.15415L27.2436 6.84585L11.2436 25.3458L12.7564 26.6542Z" fill="black"/>
</svg>
