<svg width="32" height="33" viewBox="0 0 32 33" fill="none" xmlns="http://www.w3.org/2000/svg">
<path d="M14.875 28.5C14.875 29.1213 15.3787 29.625 16 29.625C16.6213 29.625 17.125 29.1213 17.125 28.5V17.625H28C28.6213 17.625 29.125 17.1213 29.125 16.5C29.125 15.8787 28.6213 15.375 28 15.375H17.125V4.5C17.125 3.87868 16.6213 3.375 16 3.375C15.3787 3.375 14.875 3.87868 14.875 4.5V15.375H4C3.37868 15.375 2.875 15.8787 2.875 16.5C2.875 17.1213 3.37868 17.625 4 17.625H14.875V28.5Z" fill="black"/>
</svg>
