<svg width="32" height="32" viewBox="0 0 32 32" fill="none" xmlns="http://www.w3.org/2000/svg">
<path d="M3.50857 22.168C3.43924 22.3547 3.3299 22.4933 3.18057 22.584C3.03657 22.6747 2.88724 22.72 2.73257 22.72H2.13257L6.94057 10.744C7.00457 10.5733 7.10057 10.4427 7.22857 10.352C7.3619 10.2613 7.5139 10.216 7.68457 10.216H8.29257L3.50857 22.168Z" fill="black"/>
<path d="M9.50582 22V13.896H10.3618C10.5645 13.896 10.6898 13.9947 10.7378 14.192L10.8418 15.024C11.1405 14.656 11.4765 14.3547 11.8498 14.12C12.2232 13.8853 12.6552 13.768 13.1458 13.768C13.6898 13.768 14.1298 13.92 14.4658 14.224C14.8072 14.528 15.0525 14.9387 15.2018 15.456C15.3192 15.1627 15.4685 14.9093 15.6498 14.696C15.8365 14.4827 16.0445 14.3067 16.2738 14.168C16.5032 14.0293 16.7458 13.928 17.0018 13.864C17.2632 13.8 17.5272 13.768 17.7938 13.768C18.2205 13.768 18.5992 13.8373 18.9298 13.976C19.2658 14.1093 19.5485 14.3067 19.7778 14.568C20.0125 14.8293 20.1912 15.152 20.3138 15.536C20.4365 15.9147 20.4978 16.3493 20.4978 16.84V22H19.0658V16.84C19.0658 16.2053 18.9272 15.7253 18.6498 15.4C18.3725 15.0693 17.9725 14.904 17.4498 14.904C17.2152 14.904 16.9912 14.9467 16.7778 15.032C16.5698 15.112 16.3858 15.232 16.2258 15.392C16.0658 15.552 15.9378 15.7547 15.8418 16C15.7512 16.24 15.7058 16.52 15.7058 16.84V22H14.2738V16.84C14.2738 16.1893 14.1432 15.704 13.8818 15.384C13.6205 15.064 13.2392 14.904 12.7378 14.904C12.3858 14.904 12.0605 15 11.7618 15.192C11.4632 15.3787 11.1885 15.6347 10.9378 15.96V22H9.50582Z" fill="black"/>
<path d="M26.0781 13.768C26.6701 13.768 27.2034 13.8667 27.6781 14.064C28.1527 14.2613 28.5581 14.5413 28.8941 14.904C29.2301 15.2667 29.4861 15.7067 29.6621 16.224C29.8434 16.736 29.9341 17.3093 29.9341 17.944C29.9341 18.584 29.8434 19.16 29.6621 19.672C29.4861 20.184 29.2301 20.6213 28.8941 20.984C28.5581 21.3467 28.1527 21.6267 27.6781 21.824C27.2034 22.016 26.6701 22.112 26.0781 22.112C25.4807 22.112 24.9421 22.016 24.4621 21.824C23.9874 21.6267 23.5821 21.3467 23.2461 20.984C22.9101 20.6213 22.6514 20.184 22.4701 19.672C22.2941 19.16 22.2061 18.584 22.2061 17.944C22.2061 17.3093 22.2941 16.736 22.4701 16.224C22.6514 15.7067 22.9101 15.2667 23.2461 14.904C23.5821 14.5413 23.9874 14.2613 24.4621 14.064C24.9421 13.8667 25.4807 13.768 26.0781 13.768ZM26.0781 21C26.8781 21 27.4754 20.7333 27.8701 20.2C28.2647 19.6613 28.4621 18.912 28.4621 17.952C28.4621 16.9867 28.2647 16.2347 27.8701 15.696C27.4754 15.1573 26.8781 14.888 26.0781 14.888C25.6727 14.888 25.3181 14.9573 25.0141 15.096C24.7154 15.2347 24.4647 15.4347 24.2621 15.696C24.0647 15.9573 23.9154 16.28 23.8141 16.664C23.7181 17.0427 23.6701 17.472 23.6701 17.952C23.6701 18.912 23.8674 19.6613 24.2621 20.2C24.6621 20.7333 25.2674 21 26.0781 21Z" fill="black"/>
</svg>
