<svg width="33" height="32" viewBox="0 0 33 32" fill="none" xmlns="http://www.w3.org/2000/svg">
<path d="M8.09902 22.1679C8.02969 22.3545 7.92036 22.4932 7.77102 22.5839C7.62702 22.6745 7.47769 22.7199 7.32302 22.7199H6.72302L11.531 10.7439C11.595 10.5732 11.691 10.4425 11.819 10.3519C11.9524 10.2612 12.1044 10.2159 12.275 10.2159H12.883L8.09902 22.1679Z" fill="black"/>
<path d="M21.5414 13.8959L17.0214 24.3919C16.9734 24.4985 16.9121 24.5839 16.8374 24.6479C16.7681 24.7119 16.6587 24.7439 16.5094 24.7439H15.4534L16.9334 21.5279L13.5894 13.8959H14.8214C14.9441 13.8959 15.0401 13.9279 15.1094 13.9919C15.1841 14.0505 15.2347 14.1172 15.2614 14.1919L17.4294 19.2959C17.5147 19.5199 17.5867 19.7545 17.6454 19.9999C17.7201 19.7492 17.8001 19.5119 17.8854 19.2879L19.9894 14.1919C20.0214 14.1065 20.0747 14.0372 20.1494 13.9839C20.2294 13.9252 20.3174 13.8959 20.4134 13.8959H21.5414Z" fill="black"/>
<path d="M24.1514 15.5199C24.4074 14.9652 24.7221 14.5332 25.0954 14.2239C25.4687 13.9092 25.9247 13.7519 26.4634 13.7519C26.6341 13.7519 26.7967 13.7705 26.9514 13.8079C27.1114 13.8452 27.2527 13.9039 27.3754 13.9839L27.2714 15.0479C27.2394 15.1812 27.1594 15.2479 27.0314 15.2479C26.9567 15.2479 26.8474 15.2319 26.7034 15.1999C26.5594 15.1679 26.3967 15.1519 26.2154 15.1519C25.9594 15.1519 25.7301 15.1892 25.5274 15.2639C25.3301 15.3385 25.1514 15.4505 24.9914 15.5999C24.8367 15.7439 24.6954 15.9252 24.5674 16.1439C24.4447 16.3572 24.3327 16.6025 24.2314 16.8799V21.9999H22.7994V13.8959H23.6154C23.7701 13.8959 23.8767 13.9252 23.9354 13.9839C23.9941 14.0425 24.0341 14.1439 24.0554 14.2879L24.1514 15.5199Z" fill="black"/>
</svg>
