<svg width="17" height="16" viewBox="0 0 17 16" fill="none" xmlns="http://www.w3.org/2000/svg">
<path fill-rule="evenodd" clip-rule="evenodd" d="M15.468 8C15.468 11.866 12.334 15 8.46802 15C4.60202 15 1.46802 11.866 1.46802 8C1.46802 4.13401 4.60202 1 8.46802 1C12.334 1 15.468 4.13401 15.468 8ZM8.46802 2.96338C8.88223 2.96338 9.21802 3.29917 9.21802 3.71338L9.21802 9.21246C9.21802 9.62667 8.88223 9.96246 8.46802 9.96246C8.0538 9.96246 7.71802 9.62667 7.71802 9.21246L7.71802 3.71338C7.71802 3.29917 8.0538 2.96338 8.46802 2.96338ZM8.46802 13C8.95127 13 9.34302 12.6082 9.34302 12.125C9.34302 11.6418 8.95127 11.25 8.46802 11.25C7.98477 11.25 7.59302 11.6418 7.59302 12.125C7.59302 12.6082 7.98477 13 8.46802 13Z" fill="black"/>
</svg>
