<svg width="17" height="16" viewBox="0 0 17 16" fill="none" xmlns="http://www.w3.org/2000/svg">
<path fill-rule="evenodd" clip-rule="evenodd" d="M8.71802 14C12.0317 14 14.718 11.3137 14.718 8C14.718 4.68629 12.0317 2 8.71802 2C5.40431 2 2.71802 4.68629 2.71802 8C2.71802 11.3137 5.40431 14 8.71802 14ZM8.71802 15C12.584 15 15.718 11.866 15.718 8C15.718 4.13401 12.584 1 8.71802 1C4.85202 1 1.71802 4.13401 1.71802 8C1.71802 11.866 4.85202 15 8.71802 15Z" fill="black"/>
<path fill-rule="evenodd" clip-rule="evenodd" d="M8.71802 2.96338C9.13223 2.96338 9.46802 3.29917 9.46802 3.71338L9.46802 9.21246C9.46802 9.62667 9.13223 9.96246 8.71802 9.96246C8.3038 9.96246 7.96802 9.62667 7.96802 9.21246L7.96802 3.71338C7.96802 3.29917 8.3038 2.96338 8.71802 2.96338Z" fill="black"/>
<circle cx="8.71802" cy="12.125" r="0.875" fill="black"/>
</svg>
