<svg width="17" height="17" viewBox="0 0 17 17" fill="none" xmlns="http://www.w3.org/2000/svg">
<path fill-rule="evenodd" clip-rule="evenodd" d="M7.37774 3.67018C7.855 2.81844 9.08088 2.81844 9.55814 3.67018L14.2861 12.1079C14.7528 12.9409 14.1507 13.9685 13.1959 13.9685H3.74002C2.78514 13.9685 2.18305 12.9409 2.64982 12.1079L7.37774 3.67018ZM8.46808 5.83459C8.81326 5.8346 9.09308 6.11443 9.09307 6.4596L9.09302 9.81109C9.09301 10.1563 8.81319 10.4361 8.46801 10.4361C8.12283 10.4361 7.84301 10.1562 7.84302 9.81107L7.84307 6.45958C7.84308 6.11441 8.12291 5.83459 8.46808 5.83459ZM8.46802 12.8989C8.88223 12.8989 9.21802 12.5631 9.21802 12.1489C9.21802 11.7346 8.88223 11.3989 8.46802 11.3989C8.0538 11.3989 7.71802 11.7346 7.71802 12.1489C7.71802 12.5631 8.0538 12.8989 8.46802 12.8989Z" fill="black"/>
</svg>
