<svg width="17" height="16" viewBox="0 0 17 16" fill="none" xmlns="http://www.w3.org/2000/svg">
<circle cx="8.71802" cy="8" r="6.5" stroke="black"/>
<path d="M5.21526 8.48197C5.01682 8.28994 4.70028 8.29514 4.50825 8.49358C4.31621 8.69202 4.32141 9.00856 4.51985 9.20059L5.21526 8.48197ZM7.43454 11.3254L7.08683 11.6847C7.18263 11.7774 7.31147 11.828 7.44474 11.8253C7.57801 11.8225 7.70468 11.7667 7.79661 11.6702L7.43454 11.3254ZM12.9306 6.27952C13.121 6.07955 13.1133 5.76307 12.9133 5.57262C12.7134 5.38218 12.3969 5.3899 12.2064 5.58986L12.9306 6.27952ZM4.51985 9.20059L7.08683 11.6847L7.78224 10.9661L5.21526 8.48197L4.51985 9.20059ZM7.79661 11.6702L12.9306 6.27952L12.2064 5.58986L7.07247 10.9805L7.79661 11.6702Z" fill="black"/>
</svg>
