<svg width="17" height="16" viewBox="0 0 17 16" fill="none" xmlns="http://www.w3.org/2000/svg">
<path fill-rule="evenodd" clip-rule="evenodd" d="M8.46802 15C12.334 15 15.468 11.866 15.468 8C15.468 4.13401 12.334 1 8.46802 1C4.60202 1 1.46802 4.13401 1.46802 8C1.46802 11.866 4.60202 15 8.46802 15ZM13.021 6.3656C13.259 6.11565 13.2494 5.72004 12.9994 5.48198C12.7495 5.24393 12.3539 5.25358 12.1158 5.50354L7.41631 10.438L5.30206 8.39202C5.05401 8.15199 4.65834 8.15848 4.4183 8.40653C4.17826 8.65458 4.18475 9.05026 4.4328 9.29029L6.99979 11.7744C7.11952 11.8902 7.28057 11.9535 7.44716 11.9501C7.61375 11.9467 7.77209 11.8769 7.887 11.7563L13.021 6.3656Z" fill="black"/>
</svg>
