<svg width="17" height="16" viewBox="0 0 17 16" fill="none" xmlns="http://www.w3.org/2000/svg">
<path fill-rule="evenodd" clip-rule="evenodd" d="M8.46802 15C12.334 15 15.468 11.866 15.468 8C15.468 4.13401 12.334 1 8.46802 1C4.60202 1 1.46802 4.13401 1.46802 8C1.46802 11.866 4.60202 15 8.46802 15ZM9.1277 3.74395C9.1277 3.39877 8.84787 3.11895 8.5027 3.11895C8.15752 3.11895 7.8777 3.39877 7.8777 3.74395V4.15234C7.48689 4.24765 7.11886 4.43363 6.81833 4.68847C6.38103 5.05927 6.05049 5.61132 6.0648 6.27559C6.07447 6.72428 6.19547 7.12225 6.49442 7.46563C6.76741 7.7792 7.14942 7.99886 7.56638 8.19553L7.60465 8.21302L7.60261 8.21763L8.05079 8.41682L8.663 8.69648C8.944 8.83289 9.17165 8.9621 9.3472 9.10578C9.58436 9.29988 9.68139 9.48192 9.68139 9.73234C9.68139 10.0144 9.56906 10.2174 9.37569 10.366C9.16707 10.5263 8.83267 10.643 8.39226 10.643C7.85635 10.643 7.47372 10.3654 7.13759 9.89664C6.93644 9.61613 6.54597 9.55181 6.26546 9.75296C5.98496 9.95411 5.92063 10.3446 6.12178 10.6251C6.51146 11.1685 7.07241 11.6863 7.8777 11.8442V12.256C7.8777 12.6012 8.15752 12.881 8.5027 12.881C8.84787 12.881 9.1277 12.6012 9.1277 12.256V11.8146C9.50002 11.7315 9.84594 11.5811 10.1374 11.3571C10.6297 10.9788 10.9314 10.4139 10.9314 9.73234C10.9314 9.01915 10.5904 8.50803 10.1389 8.13846C9.90127 7.94397 9.62241 7.78003 9.33689 7.63515C9.31538 7.62197 9.29284 7.60995 9.26931 7.5992L9.20873 7.57153C9.03078 7.48499 8.85225 7.40513 8.68141 7.3292L8.56436 7.27717L8.09626 7.06334C7.71302 6.88232 7.53137 6.75303 7.43719 6.64485C7.36869 6.56617 7.31926 6.46936 7.31451 6.24867C7.31002 6.04014 7.41033 5.82537 7.62675 5.64186C7.84651 5.45551 8.14842 5.33812 8.44034 5.33051C8.66737 5.32459 8.8387 5.36386 8.98709 5.43711C9.13982 5.5125 9.30261 5.64096 9.48612 5.86117C9.70709 6.12634 10.1012 6.16217 10.3664 5.9412C10.6315 5.72022 10.6674 5.32612 10.4464 5.06094C10.1842 4.74629 9.89018 4.48889 9.54037 4.31623C9.40612 4.24996 9.2686 4.19861 9.1277 4.16097V3.74395Z" fill="black"/>
</svg>
