<svg width="17" height="16" viewBox="0 0 17 16" fill="none" xmlns="http://www.w3.org/2000/svg">
<path fill-rule="evenodd" clip-rule="evenodd" d="M8.71802 14C12.0317 14 14.718 11.3137 14.718 8C14.718 4.68629 12.0317 2 8.71802 2C5.40431 2 2.71802 4.68629 2.71802 8C2.71802 11.3137 5.40431 14 8.71802 14ZM8.71802 15C12.584 15 15.718 11.866 15.718 8C15.718 4.13401 12.584 1 8.71802 1C4.85202 1 1.71802 4.13401 1.71802 8C1.71802 11.866 4.85202 15 8.71802 15Z" fill="black"/>
<path d="M8.75269 3.11896C9.09787 3.11896 9.37769 3.39878 9.37769 3.74396V4.16098C9.5186 4.19862 9.65612 4.24996 9.79037 4.31623C10.1402 4.4889 10.4342 4.7463 10.6964 5.06095C10.9174 5.32612 10.8815 5.72022 10.6164 5.9412C10.3512 6.16218 9.95709 6.12635 9.73611 5.86118C9.55261 5.64097 9.38982 5.5125 9.23709 5.43712C9.0887 5.36387 8.91737 5.32459 8.69034 5.33051C8.39842 5.33813 8.09651 5.45552 7.87675 5.64186C7.66033 5.82538 7.56002 6.04015 7.56451 6.24868C7.56926 6.46937 7.61868 6.56617 7.68719 6.64486C7.78137 6.75304 7.96302 6.88233 8.34625 7.06335L8.81436 7.27718L8.93141 7.3292C9.10225 7.40513 9.28078 7.48499 9.45873 7.57153L9.51931 7.59921C9.54284 7.60995 9.56538 7.62198 9.58689 7.63516C9.87241 7.78004 10.1513 7.94398 10.3889 8.13847C10.8404 8.50804 11.1814 9.01915 11.1814 9.73235C11.1814 10.4139 10.8797 10.9788 10.3874 11.3571C10.0959 11.5811 9.75001 11.7315 9.37769 11.8146V12.2561C9.37769 12.6012 9.09787 12.8811 8.75269 12.8811C8.40752 12.8811 8.12769 12.6012 8.12769 12.2561V11.8442C7.32241 11.6863 6.76146 11.1685 6.37178 10.6251C6.17063 10.3446 6.23496 9.95412 6.51546 9.75297C6.79597 9.55181 7.18644 9.61614 7.38759 9.89665C7.72372 10.3654 8.10635 10.643 8.64226 10.643C9.08266 10.643 9.41707 10.5264 9.62569 10.366C9.81906 10.2174 9.93139 10.0144 9.93139 9.73235C9.93139 9.48193 9.83435 9.29989 9.5972 9.10578C9.42165 8.96211 9.194 8.8329 8.913 8.69649L8.30079 8.41682L7.85261 8.21763L7.85465 8.21303L7.81637 8.19554C7.39942 7.99887 7.01741 7.7792 6.74441 7.46564C6.44547 7.12226 6.32446 6.72429 6.3148 6.2756C6.30049 5.61133 6.63103 5.05928 7.06833 4.68847C7.36886 4.43364 7.73689 4.24765 8.12769 4.15235V3.74396C8.12769 3.39878 8.40752 3.11896 8.75269 3.11896Z" fill="black"/>
</svg>
