<svg width="17" height="16" viewBox="0 0 17 16" fill="none" xmlns="http://www.w3.org/2000/svg">
<path fill-rule="evenodd" clip-rule="evenodd" d="M8.59302 14C11.9067 14 14.593 11.3137 14.593 8C14.593 4.68629 11.9067 2 8.59302 2C5.27931 2 2.59302 4.68629 2.59302 8C2.59302 11.3137 5.27931 14 8.59302 14ZM8.59302 15C12.459 15 15.593 11.866 15.593 8C15.593 4.13401 12.459 1 8.59302 1C4.72702 1 1.59302 4.13401 1.59302 8C1.59302 11.866 4.72702 15 8.59302 15Z" fill="black"/>
<path fill-rule="evenodd" clip-rule="evenodd" d="M8.59302 12.9551C8.1788 12.9551 7.84302 12.6194 7.84302 12.2051L7.84302 6.58915C7.84302 6.17493 8.1788 5.83915 8.59302 5.83915C9.00723 5.83915 9.34302 6.17493 9.34302 6.58915L9.34302 12.2051C9.34302 12.6194 9.00723 12.9551 8.59302 12.9551Z" fill="black"/>
<ellipse cx="8.59302" cy="3.875" rx="0.875" ry="0.875" transform="rotate(-180 8.59302 3.875)" fill="black"/>
</svg>
