<svg width="17" height="16" viewBox="0 0 17 16" fill="none" xmlns="http://www.w3.org/2000/svg">
<path fill-rule="evenodd" clip-rule="evenodd" d="M15.343 8C15.343 11.866 12.209 15 8.34302 15C4.47702 15 1.34302 11.866 1.34302 8C1.34302 4.13401 4.47702 1 8.34302 1C12.209 1 15.343 4.13401 15.343 8ZM8.34302 12.9551C7.9288 12.9551 7.59302 12.6193 7.59302 12.2051V6.58913C7.59302 6.17492 7.9288 5.83913 8.34302 5.83913C8.75723 5.83913 9.09302 6.17492 9.09302 6.58913V12.2051C9.09302 12.6193 8.75723 12.9551 8.34302 12.9551ZM8.34302 3C7.85977 3 7.46802 3.39175 7.46802 3.875C7.46802 4.35825 7.85977 4.75 8.34302 4.75C8.82627 4.75 9.21802 4.35825 9.21802 3.875C9.21802 3.39175 8.82627 3 8.34302 3Z" fill="black"/>
</svg>
