<svg width="17" height="17" viewBox="0 0 17 17" fill="none" xmlns="http://www.w3.org/2000/svg">
<path fill-rule="evenodd" clip-rule="evenodd" d="M15.343 8.27307C15.343 12.1391 12.209 15.2731 8.34302 15.2731C4.47702 15.2731 1.34302 12.1391 1.34302 8.27307C1.34302 4.40708 4.47702 1.27307 8.34302 1.27307C12.209 1.27307 15.343 4.40708 15.343 8.27307ZM7.46802 12.3175C7.46802 11.8342 7.85977 11.4425 8.34302 11.4425C8.82627 11.4425 9.21802 11.8342 9.21802 12.3175C9.21802 12.8007 8.82627 13.1925 8.34302 13.1925C7.85977 13.1925 7.46802 12.8007 7.46802 12.3175ZM8.31175 5.13631C8.75273 5.11934 9.08744 5.25085 9.30541 5.44708C9.5191 5.63946 9.66597 5.9339 9.66597 6.34147C9.66597 6.68016 9.59002 6.8464 9.48255 6.98699C9.35975 7.14763 9.19108 7.28674 8.90447 7.52313C8.85745 7.5619 8.80718 7.60337 8.7535 7.6479L8.73971 7.65821C8.72111 7.67226 8.69556 7.69191 8.66497 7.71631C8.60428 7.7647 8.52127 7.83376 8.43232 7.91646C8.27859 8.0594 8.01609 8.32425 7.89407 8.64003C7.81764 8.83786 7.76642 9.03052 7.73456 9.16949C7.71837 9.24012 7.70655 9.29963 7.69862 9.34254C7.69464 9.36406 7.69161 9.38155 7.68947 9.39437L7.68691 9.41004L7.68611 9.41512L7.68583 9.41695L7.68567 9.418C7.68566 9.41807 7.68562 9.41828 8.30356 9.51202L7.68567 9.418C7.6339 9.75927 7.86855 10.0782 8.20983 10.1299C8.55098 10.1817 8.86951 9.94718 8.92144 9.60609C8.92142 9.60616 8.92145 9.60602 8.92144 9.60609L8.92237 9.60044C8.92341 9.59421 8.92521 9.58377 8.9278 9.56976C8.933 9.54162 8.94128 9.4997 8.95295 9.44881C8.97681 9.34475 9.01235 9.21405 9.06006 9.09055C9.06074 9.08911 9.07486 9.059 9.12141 9.00171C9.16567 8.94724 9.22232 8.88876 9.28347 8.83191C9.34361 8.77599 9.40144 8.7278 9.44431 8.69361C9.4655 8.67672 9.48241 8.66374 9.49333 8.65549L9.50484 8.64688L9.50591 8.64608L9.52274 8.63391L9.53885 8.62053C9.58434 8.58276 9.63095 8.54458 9.67819 8.5059C9.9569 8.27765 10.2575 8.0315 10.4756 7.74613C10.768 7.36369 10.916 6.92292 10.916 6.34147C10.916 5.60952 10.6402 4.96682 10.1418 4.51809C9.64759 4.07321 8.98066 3.85963 8.26366 3.88724C7.25837 3.92594 6.59421 4.35233 6.20798 4.94547C5.84757 5.49897 5.77582 6.12563 5.77009 6.52173C5.76509 6.86687 6.04082 7.15072 6.38597 7.15572C6.73111 7.16072 7.01495 6.88498 7.01995 6.53984C7.0242 6.24692 7.08097 5.89557 7.25548 5.62756C7.40418 5.3992 7.68138 5.16058 8.31175 5.13631Z" fill="black"/>
</svg>
