<svg width="17" height="17" viewBox="0 0 17 17" fill="none" xmlns="http://www.w3.org/2000/svg">
<path fill-rule="evenodd" clip-rule="evenodd" d="M8.59302 14.2731C11.9067 14.2731 14.593 11.5868 14.593 8.27307C14.593 4.95936 11.9067 2.27307 8.59302 2.27307C5.27931 2.27307 2.59302 4.95936 2.59302 8.27307C2.59302 11.5868 5.27931 14.2731 8.59302 14.2731ZM8.59302 15.2731C12.459 15.2731 15.593 12.1391 15.593 8.27307C15.593 4.40708 12.459 1.27307 8.59302 1.27307C4.72702 1.27307 1.59302 4.40708 1.59302 8.27307C1.59302 12.1391 4.72702 15.2731 8.59302 15.2731Z" fill="black"/>
<ellipse cx="8.59302" cy="12.1249" rx="0.875" ry="0.875" transform="rotate(-180 8.59302 12.1249)" fill="black"/>
<path fill-rule="evenodd" clip-rule="evenodd" d="M9.56725 5.27883C9.34928 5.08259 9.01458 4.95108 8.57359 4.96806C7.94322 4.99233 7.66603 5.23094 7.51733 5.45931C7.34281 5.72731 7.28604 6.07867 7.2818 6.37158C7.2768 6.71672 6.99295 6.99246 6.64781 6.98746C6.30267 6.98246 6.02693 6.69862 6.03193 6.35347C6.03767 5.95738 6.10941 5.33072 6.46983 4.77722C6.85606 4.18408 7.52022 3.75769 8.5255 3.71899C9.24251 3.69138 9.90944 3.90496 10.4036 4.34983C10.902 4.79856 11.1778 5.44126 11.1778 6.17321C11.1778 6.75466 11.0298 7.19544 10.7375 7.57788C10.5193 7.86325 10.2191 8.10908 9.94041 8.33733C9.89305 8.37612 9.84631 8.4144 9.80069 8.45228L9.78458 8.46566L9.76855 8.47724L9.76668 8.47862L9.75517 8.48723C9.74425 8.49549 9.72734 8.50846 9.70615 8.52536C9.66328 8.55955 9.60545 8.60774 9.54531 8.66366C9.48416 8.72051 9.42752 8.77898 9.38326 8.83345C9.3367 8.89074 9.32261 8.9208 9.32193 8.92225C9.32191 8.92229 9.32193 8.92225 9.32193 8.92225C9.27421 9.04574 9.23865 9.1765 9.21479 9.28056C9.20313 9.33144 9.19484 9.37337 9.18964 9.4015C9.18705 9.41552 9.18525 9.42595 9.18421 9.43219L9.18333 9.43749C9.1315 9.77869 8.8129 10.0135 8.47167 9.96169C8.13039 9.90993 7.8957 9.5913 7.94747 9.25003L8.5654 9.34376C7.94747 9.25003 7.94746 9.2501 7.94747 9.25003L7.94767 9.24869L7.94795 9.24687L7.94875 9.24179L7.95131 9.22611C7.95346 9.2133 7.95649 9.1958 7.96046 9.17429C7.9684 9.13137 7.98021 9.07186 7.9964 9.00123C8.02826 8.86226 8.07948 8.66961 8.15591 8.47178C8.27793 8.156 8.54043 7.89114 8.69416 7.74821C8.78312 7.6655 8.86612 7.59645 8.92681 7.54806C8.9574 7.52366 8.98296 7.50401 9.00155 7.48996L9.01534 7.47965C9.06906 7.43509 9.11927 7.39367 9.16631 7.35488C9.45293 7.11849 9.62159 6.97938 9.74439 6.81873C9.85186 6.67815 9.92781 6.51191 9.92781 6.17321C9.92781 5.76565 9.78095 5.47121 9.56725 5.27883Z" fill="black"/>
</svg>
