<svg width="17" height="16" viewBox="0 0 17 16" fill="none" xmlns="http://www.w3.org/2000/svg">
<path fill-rule="evenodd" clip-rule="evenodd" d="M8.46802 15C12.334 15 15.468 11.866 15.468 8C15.468 4.13401 12.334 1 8.46802 1C4.60202 1 1.46802 4.13401 1.46802 8C1.46802 11.866 4.60202 15 8.46802 15ZM5.74554 4.39364C5.50146 4.14956 5.10574 4.14956 4.86166 4.39364C4.61758 4.63772 4.61758 5.03345 4.86166 5.27752L7.58413 8L4.86166 10.7225C4.61758 10.9666 4.61758 11.3623 4.86166 11.6064C5.10574 11.8504 5.50146 11.8504 5.74554 11.6064L8.46802 8.88388L11.1905 11.6064C11.4346 11.8504 11.8303 11.8504 12.0744 11.6064C12.3185 11.3623 12.3185 10.9666 12.0744 10.7225L9.3519 8L12.0744 5.27752C12.3185 5.03345 12.3185 4.63772 12.0744 4.39364C11.8303 4.14956 11.4346 4.14956 11.1905 4.39364L8.46802 7.11612L5.74554 4.39364Z" fill="black"/>
</svg>
