<?xml version="1.0" encoding="utf-8"?>
<!-- Generator: Adobe Illustrator 27.1.1, SVG Export Plug-In . SVG Version: 6.00 Build 0)  -->
<svg version="1.1" id="Layer_1" xmlns="http://www.w3.org/2000/svg" xmlns:xlink="http://www.w3.org/1999/xlink" x="0px" y="0px"
	 viewBox="0 0 16 16" style="enable-background:new 0 0 16 16;" xml:space="preserve">
<style type="text/css">
	.st0{fill-rule:evenodd;clip-rule:evenodd;}
</style>
<path class="st0" d="M13.8,11.6L9.1,3.2c-0.5-0.9-1.7-0.9-2.2,0l-4.7,8.4c-0.5,0.8,0.1,1.9,1.1,1.9h9.5
	C13.7,13.5,14.3,12.4,13.8,11.6z M7.4,6c0-0.3,0.3-0.6,0.6-0.6S8.6,5.6,8.6,6l0,3.4c0,0.3-0.3,0.6-0.6,0.6c-0.3,0-0.6-0.3-0.6-0.6
	L7.4,6z M8,12.4c-0.4,0-0.8-0.3-0.8-0.8c0-0.4,0.3-0.8,0.8-0.8s0.8,0.3,0.8,0.8C8.8,12.1,8.4,12.4,8,12.4z"/>
</svg>
