<svg enable-background="new 0 0 25 24" viewBox="0 0 25 24" xmlns="http://www.w3.org/2000/svg"><path d="m10.7 11.4c0 .3-.2.5-.5.5s-.5-.2-.5-.5.2-.5.5-.5c.2 0 .5.2.5.5z"/><path d="m14.7 11.9c.3 0 .5-.2.5-.5s-.2-.5-.5-.5-.5.2-.5.5c0 .2.2.5.5.5z"/><g clip-rule="evenodd" fill-rule="evenodd"><path d="m16.4 10c.2-.1.3-.4.3-.6 0-.4-.3-.8-.8-.8h-.3l-.1-.4c-.1-.7-.7-1.1-1.4-1.1h-3.5c-.7 0-1.3.5-1.4 1.1v.4h-.4c-.4 0-.8.3-.8.7 0 .3.2.6.4.7-.3.4-.5.9-.5 1.5s.3 1.2.8 1.6v.9c0 .2.2.4.4.4h1.3c.2 0 .4-.2.4-.4v-.4h3.5v.4c0 .2.2.4.4.4h1.3c.2 0 .4-.2.4-.4v-.9c.5-.4.8-1 .8-1.6-.3-.6-.5-1.1-.8-1.5zm-5.7-1.5h3.5l.1.5h-3.7zm4.2 3.6h-4.9c-.3 0-.6-.3-.6-.6 0-.5.4-.9.9-.9h4.2c.5 0 .9.4.9.9 0 .3-.2.6-.5.6z"/><path d="m19.5 4.4c-2.7-.8-4.9-1.2-7.1-1.2s-4.4.4-7.1 1.2c-.6.2-1 .7-1 1.3v2.9c0 2.2.1 4.6 1.2 6.7 1.3 2.7 3.3 4.1 6.5 5.6.4.2.8.2 1.2 0 2.4-1.3 4.1-2.6 5.5-4.9 1.4-2.5 1.7-5.4 1.7-8v-2.3c0-.6-.3-1.1-.9-1.3zm-13.6 4.2v-2.8c2.5-.7 4.5-1.1 6.5-1.1s4 .3 6.5 1.1v2c0 2.6-.3 5.2-1.5 7.3-1.1 2-2.5 3-4.8 4.3-3-1.5-4.6-2.7-5.7-4.9-.8-1.7-1-3.8-1-5.9z"/></g></svg>