<svg width="25" height="25" viewBox="0 0 25 25" fill="none" xmlns="http://www.w3.org/2000/svg">
<path d="M7.05525 14.7446C7.70666 14.7446 8.23473 14.228 8.23473 13.5907C8.23473 12.9535 7.70666 12.4369 7.05525 12.4369C6.40384 12.4369 5.87576 12.9535 5.87576 13.5907C5.87576 14.228 6.40384 14.7446 7.05525 14.7446Z" fill="black"/>
<path d="M18.8502 13.5907C18.8502 14.228 18.3221 14.7446 17.6707 14.7446C17.0193 14.7446 16.4912 14.228 16.4912 13.5907C16.4912 12.9535 17.0193 12.4369 17.6707 12.4369C18.3221 12.4369 18.8502 12.9535 18.8502 13.5907Z" fill="black"/>
<path fill-rule="evenodd" clip-rule="evenodd" d="M8.38879 4.76404C7.15939 4.76404 6.09578 5.61988 5.83272 6.82081L5.53648 8.17322H3.51663C3.10242 8.17322 2.76663 8.509 2.76663 8.92322C2.76663 9.33743 3.10242 9.67322 3.51663 9.67322H4.17764C3.33924 10.1092 2.76663 10.9858 2.76663 11.9962V15.5526C2.76663 16.219 3.05632 16.8177 3.51663 17.2297V20.1408C3.51663 20.347 3.68378 20.5142 3.88997 20.5142H7.86124C8.06742 20.5142 8.23457 20.347 8.23457 20.1408V17.8026H16.4912V20.1408C16.4912 20.347 16.6584 20.5142 16.8646 20.5142H20.8358C21.042 20.5142 21.2092 20.347 21.2092 20.1408V17.2294C21.6693 16.8175 21.9589 16.2188 21.9589 15.5526V11.9962C21.9589 10.9858 21.3863 10.1092 20.5479 9.67322H20.9408C21.3551 9.67322 21.6908 9.33743 21.6908 8.92322C21.6908 8.509 21.3551 8.17322 20.9408 8.17322H19.1894L18.8931 6.82081C18.6301 5.61988 17.5665 4.76404 16.3371 4.76404H8.38879ZM7.29798 7.14177C7.41024 6.62927 7.86414 6.26404 8.38879 6.26404H16.3371C16.8617 6.26404 17.3156 6.62927 17.4279 7.14177L17.918 9.37943H6.80783L7.29798 7.14177ZM4.26663 11.9962C4.26663 11.3795 4.76658 10.8795 5.3833 10.8795H19.3422C19.959 10.8795 20.4589 11.3795 20.4589 11.9962V15.5526C20.4589 15.9668 20.1231 16.3026 19.7089 16.3026H15.9162L15.0022 15.1105C14.8256 14.8801 14.5518 14.745 14.2615 14.745H10.4646C10.1743 14.745 9.90056 14.8801 9.72393 15.1105L8.80996 16.3026H5.01663C4.60242 16.3026 4.26663 15.9668 4.26663 15.5526V11.9962Z" fill="black"/>
</svg>
