<svg width="25" height="25" viewBox="0 0 25 25" fill="none" xmlns="http://www.w3.org/2000/svg">
<path fill-rule="evenodd" clip-rule="evenodd" d="M16.001 4.15905C15.3808 3.65154 14.4495 4.09286 14.4495 4.89431V6.44448H9.89947C9.3748 6.44448 8.94947 6.86981 8.94947 7.39448V10.55C8.94947 11.0747 9.3748 11.5 9.89947 11.5H14.4495V13.0502C14.4495 13.8517 15.3808 14.293 16.001 13.7855L20.9852 9.70752C21.4498 9.32742 21.4498 8.6171 20.9852 8.237L16.001 4.15905ZM15.9495 7.09448V6.05494L19.5151 8.97226L15.9495 11.8896V10.85C15.9495 10.3806 15.5689 10 15.0995 10H10.4495V7.94448H15.0995C15.5689 7.94448 15.9495 7.56392 15.9495 7.09448Z" fill="black"/>
<path fill-rule="evenodd" clip-rule="evenodd" d="M9.39789 22.2855C10.0182 22.793 10.9495 22.3517 10.9495 21.5502V20H15.4995C16.0241 20 16.4495 19.5747 16.4495 19.05L16.4495 15.8945C16.4495 15.3698 16.0241 14.9445 15.4995 14.9445H10.9495L10.9495 13.3943C10.9495 12.5929 10.0182 12.1515 9.39789 12.659L4.41373 16.737C3.94917 17.1171 3.94917 17.8274 4.41373 18.2075L9.39789 22.2855ZM9.44947 19.35V20.3896L5.88386 17.4723L9.44947 14.5549V15.5945C9.44947 16.0639 9.83003 16.4445 10.2995 16.4445H14.9495L14.9495 18.5H10.2995C9.83003 18.5 9.44947 18.8806 9.44947 19.35Z" fill="black"/>
</svg>
