<svg width="25" height="25" viewBox="0 0 25 25" fill="none" xmlns="http://www.w3.org/2000/svg">
<path d="M7.38614 11.5991C7.62289 11.2592 7.53927 10.7918 7.19938 10.555C6.85949 10.3183 6.39204 10.4019 6.15529 10.7418C4.95186 12.4695 5.43993 14.6421 6.57445 16.0597C6.83327 16.3831 7.30525 16.4355 7.62865 16.1767C7.95205 15.9179 8.00441 15.4459 7.74559 15.1225C6.88664 14.0492 6.67662 12.6178 7.38614 11.5991Z" fill="black"/>
<path d="M15.7205 6.86209C15.9116 7.22956 15.7687 7.68242 15.4013 7.87357C14.2984 8.44729 13.8294 9.80441 14.0887 11.1612C14.1664 11.568 13.8996 11.9608 13.4928 12.0386C13.0859 12.1163 12.6931 11.8495 12.6153 11.4427C12.2756 9.66478 12.834 7.51825 14.709 6.54286C15.0765 6.3517 15.5293 6.49463 15.7205 6.86209Z" fill="black"/>
<path fill-rule="evenodd" clip-rule="evenodd" d="M11.1231 8.21161C9.87685 7.49078 8.38831 7.50676 7.3791 7.75851L7.36804 7.76136C4.43679 8.54013 3.0593 11.8657 4.04337 14.9376C4.98338 17.8719 7.90623 20.1117 11.0138 19.6817L11.0949 20.9237C11.1115 21.1773 11.2553 21.4053 11.4772 21.5294C11.699 21.6535 11.9685 21.6568 12.1933 21.5382L14.6053 20.2654C14.8284 20.1476 14.9774 19.9256 15.0018 19.6746C15.0262 19.4235 14.9227 19.177 14.7264 19.0185L13.6048 18.113C13.9183 17.6977 14.1299 17.28 14.2715 16.8838C14.2941 16.8206 14.3148 16.7581 14.3339 16.6964C14.4445 16.7472 14.5478 16.7903 14.6417 16.8264L14.1673 17.753C14.0523 17.9777 14.058 18.2453 14.1826 18.4649C14.3072 18.6845 14.5339 18.8266 14.7858 18.8432L17.492 19.0206C17.7484 19.0374 17.9955 18.9218 18.1469 18.7143C18.2984 18.5067 18.333 18.2361 18.2388 17.9971L17.7637 16.7921C18.5827 16.4555 19.302 15.882 19.8808 15.1844C20.8638 13.9995 21.4992 12.3972 21.604 10.7464C21.8144 7.41289 19.6741 4.3854 16.565 4.22269L16.5551 4.22224C14.5845 4.14518 12.0555 5.43853 11.1231 8.21161ZM10.7909 9.81415C10.7744 9.99284 10.7638 10.1759 10.7593 10.3634L10.7592 10.3649C10.7036 12.8864 11.6169 14.5258 12.659 15.543C12.7714 15.6527 12.8847 15.7546 12.998 15.8494C12.9697 16.0129 12.9269 16.1891 12.8591 16.3788C12.6862 16.8625 12.3391 17.4484 11.5872 18.0112C9.07923 18.854 6.3249 17.1428 5.47186 14.48C4.68048 12.0095 5.85479 9.71924 7.74773 9.21252C8.68342 8.98072 9.95378 9.06828 10.7909 9.81415ZM18.7263 14.2267C17.9643 15.1452 17.0149 15.6509 16.0398 15.616L15.4135 15.5041C15.2677 15.4678 14.4628 15.2076 13.7068 14.4696C12.9565 13.7373 12.2128 12.4965 12.2589 10.3987C12.3397 7.0462 14.8393 5.65923 16.4916 5.72091C18.5467 5.83167 20.2794 7.91734 20.1071 10.6514C20.0216 11.9976 19.4993 13.2949 18.7263 14.2267ZM16.0225 17.421L16.131 17.209L16.3177 17.214L16.4093 17.4464L16.0225 17.421ZM12.4963 19.3643L12.5163 19.6717L12.8981 19.4702L12.6538 19.273L12.4963 19.3643Z" fill="black"/>
</svg>
