<svg enable-background="new 0 0 25 25" viewBox="0 0 25 25" xmlns="http://www.w3.org/2000/svg"><path d="m12.7 8.7c.7 0 1.2-.6 1.2-1.2 0-.7-.6-1.2-1.2-1.2-.7 0-1.2.6-1.2 1.2-.1.7.5 1.2 1.2 1.2z"/><path clip-rule="evenodd" d="m20.7 10.9c.2 0 .4-.1.5-.2s.2-.3.2-.5v-1.5c0-.3-.2-.5-.4-.7l-7.8-4c-.4-.2-.8-.2-1.1 0l-7.8 4c-.2.2-.4.5-.4.8v1.4c0 .4.3.8.8.8h.6v5.9c-.6.1-1.1.6-1.1 1.2v1.8c0 .7.6 1.2 1.2 1.2h14.6c.7 0 1.2-.6 1.2-1.2v-1.8c0-.7-.5-1.2-1.2-1.2v-5.9h.7zm-.9 8.7h-14.1v-1.3h14.1zm-13-8.7h1.6v5.9h-1.6zm3.1 5.9v-5.9h2v5.9zm3.5 0v-5.9h2v5.9zm3.6 0v-5.9h1.6v5.9zm-11.6-7.4v-.2l7.3-3.8 7.3 3.8v.2z" fill-rule="evenodd"/></svg>