<svg width="24" height="24" viewBox="0 0 24 24" fill="none" xmlns="http://www.w3.org/2000/svg">
<path fill-rule="evenodd" clip-rule="evenodd" d="M4.79487 4.23047C3.25372 4.23047 2.00436 5.47982 2.00436 7.02097V16.5357C2.00436 16.554 2.00502 16.5721 2.00632 16.5901V17C2.00632 18.5188 3.23753 19.75 4.75631 19.75H21.2404C21.6546 19.75 21.9904 19.4142 21.9904 19V6.53468C21.9904 6.12047 21.6546 5.78468 21.2404 5.78468L7.29725 5.78467C6.84138 4.86371 5.89208 4.23047 4.79487 4.23047ZM7.58537 7.28467V16.5357C7.58537 16.8874 7.34106 17.1918 6.99777 17.2679C6.65447 17.3441 6.30436 17.1715 6.1557 16.8528C5.67428 15.8209 4.10468 15.7647 3.50632 16.7225V17C3.50632 17.6903 4.06596 18.25 4.75631 18.25H20.4904V7.28468L7.58537 7.28467ZM3.50632 14.8195C4.31622 14.4527 5.27544 14.4448 6.08537 14.8069V7.02097C6.08537 6.30825 5.50759 5.73047 4.79487 5.73047C4.08214 5.73047 3.50436 6.30825 3.50436 7.02097V7.53468H3.50632V14.8195ZM17.2921 13.6519C17.5824 13.9052 18.0233 13.8983 18.3055 13.6258C18.6036 13.3381 18.6119 12.8633 18.3242 12.5653L16.9028 11.093V9.32764C16.9028 8.91342 16.567 8.57764 16.1528 8.57764C15.7386 8.57764 15.4028 8.91342 15.4028 9.32764V9.53917L14.375 8.47454C13.9638 8.04853 13.2818 8.04666 12.8682 8.47039L8.92468 12.5106C8.63536 12.807 8.64111 13.2818 8.93753 13.5712C9.21951 13.8464 9.66296 13.8546 9.95456 13.5996V15.5355C9.95456 16.502 10.7381 17.2855 11.7046 17.2855H15.5421C16.5086 17.2855 17.2921 16.502 17.2921 15.5355V13.6519ZM15.7921 12.1021L15.7921 12.105V15.5355C15.7921 15.6736 15.6802 15.7855 15.5421 15.7855H11.7046C11.5665 15.7855 11.4546 15.6736 11.4546 15.5355V12.105C11.4546 12.0923 11.4542 12.0797 11.4536 12.0671L13.6178 9.84987L15.7921 12.1021Z" fill="black"/>
</svg>
