<svg width="25" height="24" viewBox="0 0 25 24" fill="none" xmlns="http://www.w3.org/2000/svg">
<path fill-rule="evenodd" clip-rule="evenodd" d="M8.44946 4.7V5.75H5.09946C4.46433 5.75 3.94946 6.26487 3.94946 6.9V11.4838C3.94924 11.4942 3.94924 11.5047 3.94946 11.5151V19.1C3.94946 19.7351 4.46433 20.25 5.09946 20.25H20.2995C20.9346 20.25 21.4495 19.7351 21.4495 19.1V11.5173C21.4497 11.5057 21.4497 11.4941 21.4495 11.4825V6.9C21.4495 6.26487 20.9346 5.75 20.2995 5.75H16.9495V4.7C16.9495 4.17533 16.5241 3.75 15.9995 3.75H9.39946C8.87479 3.75 8.44946 4.17533 8.44946 4.7ZM9.94946 5.25V5.75H15.4495V5.25H9.94946ZM19.9495 11.316V7.25H5.44946V11.0308C6.09255 11.3358 6.96595 11.718 7.85826 12.0461C8.62467 12.3278 9.35495 12.5504 9.94946 12.665V11.9C9.94946 11.2649 10.4643 10.75 11.0995 10.75H14.2995C14.9346 10.75 15.4495 11.2649 15.4495 11.9V12.6615C16.2453 12.5573 17.1932 12.3921 18.0417 12.1634C18.6277 12.0054 19.1335 11.8256 19.5015 11.6317C19.6847 11.5353 19.813 11.446 19.8958 11.3702C19.9188 11.3492 19.9362 11.3311 19.9495 11.316ZM13.9495 13.4906C13.9494 13.4963 13.9494 13.502 13.9495 13.5076V14.75H11.4495V12.25H13.9495V13.4906ZM15.4495 14.1735C16.3339 14.0648 17.4351 13.8805 18.4322 13.6116C18.966 13.4677 19.4932 13.2935 19.9495 13.0826V18.75H5.44946V12.6817C6.01684 12.935 6.67252 13.2083 7.34066 13.4539C8.19569 13.7683 9.13371 14.0615 9.94946 14.1865V15.1C9.94946 15.7351 10.4643 16.25 11.0995 16.25H11.9495V17C11.9495 17.4142 12.2852 17.75 12.6995 17.75C13.1137 17.75 13.4495 17.4142 13.4495 17V16.25H14.2995C14.9346 16.25 15.4495 15.7351 15.4495 15.1V14.1735Z" fill="black"/>
</svg>
