<svg enable-background="new 0 0 25 25" viewBox="0 0 25 25" xmlns="http://www.w3.org/2000/svg"><g clip-rule="evenodd" fill-rule="evenodd"><path d="m10.1 16.3c0 .2.1.3.3.3h.2c.2 0 .3-.1.3-.3v-.3c0-.2.1-.3.3-.3h.2.3.1c.1 0 .1 0 .2-.1.1 0 .1-.1.2-.1s.1-.1.2-.2 0-.1.1-.1c.1-.2.1-.4.1-.6s0-.4-.1-.6c0 0 0-.1-.1-.1 0-.1-.1-.1-.2-.2-.1 0-.1-.1-.2-.1s-.1-.1-.2-.1c-.1 0-.2 0-.4 0h-1c-.2 0-.3.1-.3.3zm.9-1.6c0 .2.1.3.3.3h.2.1c.1 0 .1-.1.2-.1v-.1-.1-.1-.1c0-.1-.1-.1-.2-.1 0 0 0 0-.1 0s-.1 0-.2 0c-.2 0-.3.1-.3.3zm2.3 1.6c0 .2.1.3.3.3h1.6c.2 0 .3-.1.3-.3v-.1c0-.2-.1-.3-.3-.3h-.8c-.1 0-.3-.1-.3-.3 0-.1.1-.3.3-.3h.7c.2 0 .3-.1.3-.3 0-.2-.1-.3-.3-.3h-.7c-.1 0-.3-.1-.3-.3s.1-.3.3-.3h.8c.2 0 .3-.1.3-.3v-.1c0-.2-.1-.3-.3-.3h-1.6c-.2 0-.3.1-.3.3zm3 0c0 .2.1.3.3.3h.2c.2 0 .3-.1.3-.3v-1.3l1 1.5c.1.1.1.1.2.1h.2c.2 0 .3-.1.3-.3v-2.5c0-.2-.1-.3-.3-.3h-.2c-.2 0-.3.1-.3.3v1.3l-1-1.5c-.1-.1-.1-.1-.2-.1h-.3c-.2 0-.3.1-.3.3v2.5zm-7.2-.2c-.1.2-.3.3-.4.4-.2.1-.5.2-.8.2s-.5-.1-.8-.2c-.2-.1-.4-.3-.5-.5v-.1c-.1-.2-.1-.5-.1-.8s0-.6.1-.8v-.1c.1-.2.3-.4.5-.5.2-.1.5-.2.8-.2s.5.1.8.2c.2.1.3.2.4.4 0 0 .1.1.1.1v.1c.1.2.1.5.1.8s0 .6-.1.8v.1c-.1 0-.1 0-.1.1zm-.7-1.5c.1.1.1.3.1.5s0 .3-.1.5c0 .1-.1.2-.2.3-.1.1-.2.1-.3.1s-.3 0-.4-.1c-.1-.1-.1-.1-.2-.3 0-.1-.1-.3-.1-.5s0-.3.1-.5c0-.1.1-.2.2-.3.1-.1.2-.1.4-.1s.3 0 .3.1c.1.1.2.2.2.3z" stroke="#000" stroke-width=".2"/><path d="m19.7 8.7h-1.1l-4.7-4.3c0-.7-.5-1.2-1.2-1.2s-1.2.5-1.2 1.2l-4.7 4.3h-1.1c-1 0-1.8.8-1.8 1.8v9c0 1 .8 1.8 1.8 1.8h14c1 0 1.8-.8 1.8-1.8v-9c-.1-1-.8-1.8-1.8-1.8zm-7.3-3h.3s.2 0 .3 0l3.4 3.1h-7.4zm7.5 13.8c0 .1-.1.2-.2.2h-14c-.1 0-.2-.1-.2-.2v-9c0-.1.1-.2.2-.2h14c.1 0 .2.1.2.2z"/></g></svg>