<svg width="25" height="24" viewBox="0 0 25 24" fill="none" xmlns="http://www.w3.org/2000/svg">
<path d="M7.49885 11.3223C7.49885 12.007 8.05391 12.562 8.73862 12.562C9.42332 12.562 9.97837 12.007 9.97837 11.3223C9.97837 10.6376 9.42332 10.0825 8.73862 10.0825C8.05391 10.0825 7.49885 10.6376 7.49885 11.3223Z" fill="black"/>
<path d="M11.4661 11.3223C11.4661 12.007 12.0212 12.562 12.7059 12.562C13.3906 12.562 13.9456 12.007 13.9456 11.3223C13.9456 10.6376 13.3906 10.0825 12.7059 10.0825C12.0212 10.0825 11.4661 10.6376 11.4661 11.3223Z" fill="black"/>
<path d="M12.7059 16.0435C12.0211 16.0435 11.4661 15.4884 11.4661 14.8037C11.4661 14.119 12.0212 13.564 12.7059 13.564C13.3906 13.564 13.9456 14.119 13.9456 14.8037C13.9456 15.4884 13.3906 16.0435 12.7059 16.0435Z" fill="black"/>
<path d="M7.49885 14.8037C7.49885 15.4884 8.05391 16.0435 8.73861 16.0435C9.42332 16.0435 9.97837 15.4884 9.97837 14.8037C9.97837 14.119 9.42332 13.564 8.73861 13.564C8.05391 13.564 7.49885 14.119 7.49885 14.8037Z" fill="black"/>
<path d="M8.73861 19.676C8.05391 19.676 7.49885 19.1209 7.49885 18.4362C7.49885 17.7515 8.05391 17.1965 8.73861 17.1965C9.42332 17.1965 9.97837 17.7515 9.97837 18.4362C9.97837 19.1209 9.42332 19.676 8.73861 19.676Z" fill="black"/>
<path d="M11.4661 18.4362C11.4661 19.1209 12.0211 19.676 12.7059 19.676C13.3906 19.676 13.9456 19.1209 13.9456 18.4362C13.9456 17.7515 13.3906 17.1965 12.7059 17.1965C12.0211 17.1965 11.4661 17.7515 11.4661 18.4362Z" fill="black"/>
<path d="M16.6794 12.562C15.9947 12.562 15.4397 12.007 15.4397 11.3223C15.4397 10.6376 15.9947 10.0825 16.6794 10.0825C17.3641 10.0825 17.9192 10.6376 17.9192 11.3223C17.9192 12.007 17.3641 12.562 16.6794 12.562Z" fill="black"/>
<path d="M15.4397 14.8037C15.4397 15.4884 15.9947 16.0435 16.6794 16.0435C17.3641 16.0435 17.9192 15.4884 17.9192 14.8037C17.9192 14.119 17.3641 13.564 16.6794 13.564C15.9947 13.564 15.4397 14.119 15.4397 14.8037Z" fill="black"/>
<path d="M16.6794 19.676C15.9947 19.676 15.4397 19.1209 15.4397 18.4362C15.4397 17.7515 15.9947 17.1965 16.6794 17.1965C17.3641 17.1965 17.9192 17.7515 17.9192 18.4362C17.9192 19.1209 17.3641 19.676 16.6794 19.676Z" fill="black"/>
<path fill-rule="evenodd" clip-rule="evenodd" d="M7.97095 4.3125C7.55673 4.3125 7.22095 4.64829 7.22095 5.0625V8.22898C7.22095 8.64319 7.55673 8.97898 7.97095 8.97898H17.429C17.8432 8.97898 18.179 8.64319 18.179 8.22898V5.0625C18.179 4.64829 17.8432 4.3125 17.429 4.3125H7.97095ZM8.72095 7.47898V5.8125H16.679V7.47898H8.72095Z" fill="black"/>
<path fill-rule="evenodd" clip-rule="evenodd" d="M5.0979 3.28467C5.0979 2.59431 5.65754 2.03467 6.3479 2.03467H19.0509C19.7413 2.03467 20.3009 2.59431 20.3009 3.28467V20.7181C20.3009 21.4085 19.7413 21.9681 19.0509 21.9681H6.3479C5.65754 21.9681 5.0979 21.4085 5.0979 20.7181V3.28467ZM6.5979 3.53467V20.4681H18.8009V3.53467H6.5979Z" fill="black"/>
</svg>
