<svg width="24" height="25" viewBox="0 0 24 25" fill="none" xmlns="http://www.w3.org/2000/svg">
<path fill-rule="evenodd" clip-rule="evenodd" d="M7.75 4.125C7.75 3.71079 7.41421 3.375 7 3.375C6.58579 3.375 6.25 3.71079 6.25 4.125V5.375H5C4.0335 5.375 3.25 6.1585 3.25 7.125V19.125C3.25 20.0915 4.0335 20.875 5 20.875H19C19.9665 20.875 20.75 20.0915 20.75 19.125V10.2594V8.7594V7.125C20.75 6.1585 19.9665 5.375 19 5.375H17.75V4.125C17.75 3.71079 17.4142 3.375 17 3.375C16.5858 3.375 16.25 3.71079 16.25 4.125V5.375H7.75V4.125ZM19.25 8.7594V7.125C19.25 6.98693 19.1381 6.875 19 6.875H17.75H16.25H7.75H6.25H5C4.86193 6.875 4.75 6.98693 4.75 7.125V8.7594H5H19.25ZM4.75 10.2594V19.125C4.75 19.2631 4.86193 19.375 5 19.375H19C19.1381 19.375 19.25 19.2631 19.25 19.125V10.2594H5H4.75ZM9 13.0323C9 13.7227 8.44036 14.2823 7.75 14.2823C7.05964 14.2823 6.5 13.7227 6.5 13.0323C6.5 12.342 7.05964 11.7823 7.75 11.7823C8.44036 11.7823 9 12.342 9 13.0323ZM7.75 17.8602C8.44036 17.8602 9 17.3006 9 16.6102C9 15.9199 8.44036 15.3602 7.75 15.3602C7.05964 15.3602 6.5 15.9199 6.5 16.6102C6.5 17.3006 7.05964 17.8602 7.75 17.8602ZM13.25 13.0323C13.25 13.7227 12.6904 14.2823 12 14.2823C11.3096 14.2823 10.75 13.7227 10.75 13.0323C10.75 12.342 11.3096 11.7823 12 11.7823C12.6904 11.7823 13.25 12.342 13.25 13.0323ZM12 17.8602C12.6904 17.8602 13.25 17.3006 13.25 16.6102C13.25 15.9199 12.6904 15.3602 12 15.3602C11.3096 15.3602 10.75 15.9199 10.75 16.6102C10.75 17.3006 11.3096 17.8602 12 17.8602ZM17.5 13.0323C17.5 13.7227 16.9404 14.2823 16.25 14.2823C15.5596 14.2823 15 13.7227 15 13.0323C15 12.342 15.5596 11.7823 16.25 11.7823C16.9404 11.7823 17.5 12.342 17.5 13.0323ZM16.25 17.8602C16.9404 17.8602 17.5 17.3006 17.5 16.6102C17.5 15.9199 16.9404 15.3602 16.25 15.3602C15.5596 15.3602 15 15.9199 15 16.6102C15 17.3006 15.5596 17.8602 16.25 17.8602Z" fill="black"/>
</svg>
