<svg width="25" height="25" viewBox="0 0 25 25" fill="none" xmlns="http://www.w3.org/2000/svg">
<path d="M17.067 5.46863C17.2602 5.13914 17.7365 5.13914 17.9297 5.46863L18.1387 5.8252C18.2092 5.94544 18.3267 6.0308 18.4628 6.06069L18.8665 6.14931C19.2396 6.23121 19.3868 6.68423 19.1331 6.96977L18.8586 7.27876C18.766 7.38296 18.7212 7.52108 18.7348 7.65979L18.7753 8.07113C18.8127 8.45124 18.4273 8.73122 18.0774 8.57819L17.6987 8.4126C17.5709 8.35676 17.4257 8.35676 17.298 8.4126L16.9193 8.57819C16.5694 8.73122 16.184 8.45124 16.2214 8.07113L16.2619 7.65979C16.2755 7.52108 16.2306 7.38296 16.1381 7.27876L15.8635 6.96977C15.6099 6.68423 15.7571 6.23121 16.1301 6.14931L16.5338 6.06069C16.67 6.0308 16.7875 5.94544 16.858 5.8252L17.067 5.46863Z" fill="black"/>
<path d="M8.48462 11.3208C8.07041 11.3208 7.73462 11.6566 7.73462 12.0708C7.73462 12.485 8.07041 12.8208 8.48462 12.8208H14.0534C14.4676 12.8208 14.8034 12.485 14.8034 12.0708C14.8034 11.6566 14.4676 11.3208 14.0534 11.3208H8.48462Z" fill="black"/>
<path d="M8.48462 14.1992C8.07041 14.1992 7.73462 14.535 7.73462 14.9492C7.73462 15.3634 8.07041 15.6992 8.48462 15.6992H16.7913C17.2055 15.6992 17.5413 15.3634 17.5413 14.9492C17.5413 14.535 17.2055 14.1992 16.7913 14.1992H8.48462Z" fill="black"/>
<path d="M7.73462 17.9023C7.73462 17.4881 8.07041 17.1523 8.48462 17.1523H16.7913C17.2055 17.1523 17.5413 17.4881 17.5413 17.9023C17.5413 18.3166 17.2055 18.6523 16.7913 18.6523H8.48462C8.07041 18.6523 7.73462 18.3166 7.73462 17.9023Z" fill="black"/>
<path fill-rule="evenodd" clip-rule="evenodd" d="M14.727 3.89844H6.26313C5.68324 3.89844 5.21313 4.36854 5.21313 4.94844V21.6741C5.21313 22.254 5.68324 22.7241 6.26314 22.7241H19.1359C19.7158 22.7241 20.1859 22.254 20.1859 21.6741V10.2678C21.1065 9.49834 21.6921 8.34149 21.6921 7.04785C21.6921 4.73125 19.8142 2.85327 17.4976 2.85327C16.4357 2.85327 15.4659 3.24787 14.727 3.89844ZM14.803 7.04785C14.803 5.55968 16.0094 4.35327 17.4976 4.35327C18.9857 4.35327 20.1921 5.55968 20.1921 7.04785C20.1921 8.53603 18.9857 9.74243 17.4976 9.74243C16.0094 9.74243 14.803 8.53603 14.803 7.04785ZM13.6397 5.39844C13.423 5.90472 13.303 6.46227 13.303 7.04785C13.303 9.36445 15.181 11.2424 17.4976 11.2424C17.9103 11.2424 18.3092 11.1828 18.6859 11.0717V21.2241H6.71313V5.39844H13.6397Z" fill="black"/>
</svg>
