<svg width="25" height="25" viewBox="0 0 25 25" fill="none" xmlns="http://www.w3.org/2000/svg">
<path fill-rule="evenodd" clip-rule="evenodd" d="M20.9199 16.628C20.9199 16.2138 20.5841 15.878 20.1699 15.878H16.5385C16.1243 15.878 15.7885 16.2138 15.7885 16.628V20.1251C15.7885 20.5393 16.1243 20.8751 16.5385 20.8751H20.1699C20.5841 20.8751 20.9199 20.5393 20.9199 20.1251V16.628ZM19.4199 17.378V19.3751H17.2885V17.378H19.4199Z" fill="black"/>
<path d="M7.51214 3.37264C7.79121 3.06654 8.26557 3.04463 8.57167 3.3237L18.665 12.5257L18.5977 11.5265C18.5699 11.1132 18.8824 10.7556 19.2957 10.7278C19.709 10.7 20.0666 11.0125 20.0944 11.4258L20.2508 13.751C20.2992 14.4706 19.7302 15.0817 19.009 15.0849L16.723 15.0948C16.3088 15.0966 15.9715 14.7622 15.9697 14.348C15.9679 13.9338 16.3023 13.5966 16.7165 13.5948L17.6069 13.5909L7.56108 4.43217C7.25499 4.15311 7.23307 3.67874 7.51214 3.37264Z" fill="black"/>
<path fill-rule="evenodd" clip-rule="evenodd" d="M8.71045 6.82475C9.12466 6.82475 9.46045 7.16054 9.46045 7.57475V20.1247C9.46045 20.5389 9.12466 20.8747 8.71045 20.8747H5.18436C4.77015 20.8747 4.43436 20.5389 4.43436 20.1247V7.57475C4.43436 7.16054 4.77015 6.82475 5.18436 6.82475H8.71045ZM7.96045 19.3747V8.32475H5.93436V19.3747H7.96045Z" fill="black"/>
<path fill-rule="evenodd" clip-rule="evenodd" d="M14.3867 11.8633C14.8009 11.8633 15.1367 12.1991 15.1367 12.6133V20.1246C15.1367 20.5388 14.8009 20.8746 14.3867 20.8746H10.8632C10.449 20.8746 10.1132 20.5388 10.1132 20.1246V12.6133C10.1132 12.1991 10.449 11.8633 10.8632 11.8633H14.3867ZM13.6367 19.3746V13.3633H11.6132V19.3746H13.6367Z" fill="black"/>
</svg>
