<svg enable-background="new 0 0 25 25" viewBox="0 0 25 25" xmlns="http://www.w3.org/2000/svg"><path d="m15.3 4c-.4 0-.8.3-.8.8 0 .4.3.8.8.8h.9l-10.4 9.1c-.3.3-.3.7-.1 1.1.3.2.8.3 1.1 0l10.7-9.4v1.3c0 .4.3.8.8.8s.8-.3.8-.8v-3c0-.4-.3-.8-.8-.8h-3z"/><g clip-rule="evenodd" fill-rule="evenodd"><path d="m16 10.3c0-.4.3-.7.8-.7h3.6c.4 0 .8.3.8.7v10.6c0 .4-.3.8-.8.8h-3.6c-.4 0-.8-.3-.8-.8zm1.5.7v9.1h2.1v-9.1z"/><path d="m11 13.7c-.4 0-.8.3-.8.8v6.4c0 .4.3.8.8.8h3.6c.4 0 .8-.3.8-.8v-6.4c0-.4-.3-.8-.8-.8zm.7 6.4v-4.9h2.1v4.9z"/><path d="m5.1 17c-.4 0-.8.3-.8.8v3.1c0 .4.3.8.8.8h3.7c.4 0 .8-.3.8-.8v-3.1c0-.4-.3-.8-.8-.8zm.7 3.1v-1.6h2.2v1.6z"/></g></svg>