<svg width="25" height="24" viewBox="0 0 25 24" fill="none" xmlns="http://www.w3.org/2000/svg">
<path d="M17.4342 3.36304C17.02 3.36304 16.6842 3.69882 16.6842 4.11304C16.6842 4.52725 17.02 4.86304 17.4342 4.86304H18.8117L11.9574 10.9358L9.33277 8.06671C8.87212 7.56316 8.09272 7.52216 7.58178 7.97461L4.11249 11.0467C3.80238 11.3213 3.7736 11.7953 4.04821 12.1054C4.32281 12.4155 4.79681 12.4443 5.10692 12.1697L8.39205 9.26068L11.0167 12.1298C11.4775 12.6334 12.257 12.6744 12.768 12.2217L20.0392 5.77953V7.54273C20.0392 7.95694 20.375 8.29273 20.7892 8.29273C21.2034 8.29273 21.5392 7.95694 21.5392 7.54273V4.11304C21.5392 3.69882 21.2034 3.36304 20.7892 3.36304H17.4342Z" fill="black"/>
<path fill-rule="evenodd" clip-rule="evenodd" d="M19.1842 8.97812C19.4629 9.09495 19.6442 9.36762 19.6442 9.6698V19.8868C19.6442 20.301 19.3084 20.6368 18.8942 20.6368H15.8446C15.4304 20.6368 15.0946 20.301 15.0946 19.8868V12.6679C15.0946 12.4668 15.1754 12.2741 15.3188 12.1331L18.3684 9.13497C18.5839 8.92312 18.9055 8.86129 19.1842 8.97812ZM16.5946 12.9823V19.1368H18.1442V11.4589L16.5946 12.9823Z" fill="black"/>
<path fill-rule="evenodd" clip-rule="evenodd" d="M9.01274 12.1759C9.01274 11.8688 8.82558 11.5928 8.54033 11.4792C8.25508 11.3655 7.92937 11.4372 7.71822 11.6601L4.51695 15.0401C4.38501 15.1794 4.31148 15.3639 4.31148 15.5558V19.8867C4.31148 20.3009 4.64726 20.6367 5.06148 20.6367H8.26274C8.67695 20.6367 9.01274 20.3009 9.01274 19.8867V12.1759ZM5.81148 19.1367V15.8546L7.51274 14.0584V19.1367H5.81148Z" fill="black"/>
<path fill-rule="evenodd" clip-rule="evenodd" d="M14.5221 13.9712C14.5221 13.6897 14.3645 13.4319 14.114 13.3036C13.8634 13.1753 13.5622 13.1981 13.3338 13.3626L11.92 14.381L10.768 13.565C10.5392 13.4029 10.239 13.382 9.98998 13.5108C9.7409 13.6396 9.58449 13.8966 9.58449 14.177V19.8871C9.58449 20.3013 9.92027 20.6371 10.3345 20.6371H13.7721C14.1863 20.6371 14.5221 20.3013 14.5221 19.8871V13.9712ZM12.3621 15.9112L13.0221 15.4357V19.1371H11.0845V15.6273L11.4902 15.9147C11.7517 16.0999 12.102 16.0985 12.3621 15.9112Z" fill="black"/>
</svg>
