<svg enable-background="new 0 0 25 25" viewBox="0 0 25 25" xmlns="http://www.w3.org/2000/svg"><path d="m6.8 12.2c-.4 0-.8.4-.8.8s.3.8.8.8h5.3c.4 0 .8-.3.8-.8 0-.4-.3-.8-.8-.8z"/><path d="m6 14.9c0-.4.3-.8.8-.8h3.8c.4 0 .8.3.8.8s-.3.8-.8.8h-3.8c-.4 0-.8-.4-.8-.8z"/><path clip-rule="evenodd" d="m20.7 8.1.3-1c.2-.5-.1-1-.5-1.2l.4-1.1c0-.1 0-.3-.2-.3l-.9-.3c-.1 0-.3 0-.3.2l-.4 1.1h-.1c-.5-.3-1-.1-1.2.5l-.7 2.1h-12.4c-1 0-1.7.8-1.7 1.7v6.1c0 1 .8 1.7 1.7 1.7h9.5v.1l.5 2c.1.4.5.5.8.3l1.6-1.4s.1-.1.1-.1c.1-.1.1-.2.2-.3l.1-.4h3.1c1 0 1.7-.8 1.7-1.7v-6.3c.1-1-.7-1.7-1.6-1.7zm-16.3 1.7c0-.1.1-.2.2-.2h11.9l-.2.7h-11.9zm10.1 6.3h-9.8c-.1 0-.2-.1-.2-.2v-4.1h11.5zm1.7 1-.4-.1 3.3-10.1.4.1zm4.7-1.2c0 .1-.1.2-.2.2h-2.6l1.4-4.3h1.4zm0-5.6h-.9l.2-.7h.4c.1 0 .2.1.2.2v.5z" fill-rule="evenodd"/></svg>