<svg width="25" height="25" viewBox="0 0 25 25" fill="none" xmlns="http://www.w3.org/2000/svg">
<path d="M13.7756 9.43823C13.7756 9.02402 14.1114 8.68823 14.5256 8.68823H17.2241C17.6383 8.68823 17.9741 9.02402 17.9741 9.43823C17.9741 9.85245 17.6383 10.1882 17.2241 10.1882H14.5256C14.1114 10.1882 13.7756 9.85245 13.7756 9.43823Z" fill="black"/>
<path d="M13.7756 12.8201C13.7756 12.4059 14.1114 12.0701 14.5256 12.0701H17.2241C17.6383 12.0701 17.9741 12.4059 17.9741 12.8201C17.9741 13.2343 17.6383 13.5701 17.2241 13.5701H14.5256C14.1114 13.5701 13.7756 13.2343 13.7756 12.8201Z" fill="black"/>
<path d="M12.4051 8.61784C12.686 8.31348 12.6671 7.83898 12.3627 7.55803C12.0583 7.27708 11.5838 7.29606 11.3029 7.60042L9.37865 9.685L8.70398 9.01139C8.41085 8.71873 7.93598 8.71911 7.64332 9.01223C7.35066 9.30535 7.35103 9.78023 7.64416 10.0729L8.87079 11.2976C9.01516 11.4417 9.21202 11.5208 9.41599 11.5167C9.61996 11.5125 9.81343 11.4255 9.95181 11.2756L12.4051 8.61784Z" fill="black"/>
<path d="M12.3627 11.6064C12.6671 11.8873 12.686 12.3618 12.4051 12.6662L9.95181 15.3239C9.81343 15.4738 9.61996 15.5609 9.41599 15.565C9.21202 15.5692 9.01516 15.4901 8.87079 15.3459L7.64416 14.1212C7.35103 13.8286 7.35066 13.3537 7.64332 13.0606C7.93598 12.7674 8.41085 12.7671 8.70398 13.0597L9.37865 13.7333L11.3029 11.6488C11.5838 11.3444 12.0583 11.3254 12.3627 11.6064Z" fill="black"/>
<path d="M12.4051 16.7145C12.686 16.4102 12.6671 15.9357 12.3627 15.6547C12.0583 15.3738 11.5838 15.3927 11.3029 15.6971L9.37865 17.7817L8.70398 17.1081C8.41085 16.8154 7.93598 16.8158 7.64332 17.1089C7.35066 17.402 7.35103 17.8769 7.64416 18.1696L8.87079 19.3943C9.01516 19.5384 9.21202 19.6175 9.41599 19.6134C9.61996 19.6092 9.81343 19.5221 9.95181 19.3722L12.4051 16.7145Z" fill="black"/>
<path fill-rule="evenodd" clip-rule="evenodd" d="M8.45727 2.50439C8.87148 2.50439 9.20727 2.84018 9.20727 3.25439V3.80903L16.1897 3.81128V3.25439C16.1897 2.84018 16.5255 2.50439 16.9397 2.50439C17.3539 2.50439 17.6897 2.84018 17.6897 3.25439V3.81176L19.6306 3.81238C20.2105 3.81257 20.6805 4.28283 20.6803 4.86272L20.6765 16.6982C20.6764 16.8835 20.6284 17.0575 20.5441 17.2087C20.5142 17.3656 20.4341 17.5143 20.3054 17.6287L15.2287 22.1371C15.1848 22.176 15.1377 22.2089 15.0883 22.2357C14.9082 22.3804 14.6795 22.4668 14.4308 22.4667L5.81953 22.464C5.23963 22.4638 4.76968 21.9935 4.76987 21.4136L4.7752 4.8576C4.77538 4.2777 5.24564 3.80775 5.82554 3.80794L7.70727 3.80855V3.25439C7.70727 2.84018 8.04306 2.50439 8.45727 2.50439ZM15.5157 17.761L17.906 17.7534L15.4956 19.8939L15.5157 17.761ZM16.1897 5.31128V6.18888C16.1897 6.60309 16.5255 6.93888 16.9397 6.93888C17.3539 6.93888 17.6897 6.60309 17.6897 6.18888V5.31176L19.1801 5.31224L19.1766 16.2493L15.0666 16.2624C14.4919 16.2643 14.0254 16.7278 14.02 17.3025L13.9853 20.9666L6.27001 20.9641L6.27505 5.30808L7.70727 5.30855V6.18888C7.70727 6.60309 8.04306 6.93888 8.45727 6.93888C8.87148 6.93888 9.20727 6.60309 9.20727 6.18888V5.30903L16.1897 5.31128Z" fill="black"/>
</svg>
