<svg enable-background="new 0 0 25 25" viewBox="0 0 25 25" xmlns="http://www.w3.org/2000/svg"><path d="m13.3 8.9c0-.4-.3-.8-.8-.8s-.8.3-.8.8v5.5c0 .2.1.4.2.5s.3.2.5.2h3.9c.4 0 .8-.3.8-.8s-.3-.8-.8-.8h-3z"/><path clip-rule="evenodd" d="m21 6.7-2.7-2.4c-.7-.6-1.8-.6-2.5.1l-.8 1c-.8-.2-1.6-.4-2.4-.4s-1.6.1-2.3.3l-.7-.8c-.6-.7-1.7-.8-2.5-.1l-2.7 2.4c-.7.6-.8 1.7-.1 2.4l.7.9c-.4 1-.6 2-.6 3.1 0 2.4 1.1 4.6 2.7 6.1l-1.1 1.2c-.3.3-.3.8 0 1.1s.8.3 1.1 0l1.2-1.3c1.2.8 2.7 1.2 4.3 1.2s3.2-.5 4.5-1.3l1.3 1.4c.3.3.8.3 1.1 0s.3-.8 0-1.1l-1.2-1.3c1.6-1.5 2.6-3.6 2.6-6 0-1.1-.2-2.1-.6-3l.9-1c.6-.7.6-1.8-.2-2.5zm-15.6 1.6c-.1-.1-.1-.3 0-.4l2.7-2.4c.1-.1.3-.1.4 0l.4.5c-1.3.6-2.3 1.6-3.1 2.8zm7.2 11.7c-3.7 0-6.7-3-6.7-6.7s3-6.7 6.7-6.7 6.7 3 6.7 6.7-3 6.7-6.7 6.7zm7.4-11.7-.5.5c-.7-1.2-1.8-2.1-3-2.8l.4-.5c.1-.1.3-.1.4 0l2.7 2.4c.1.1.1.3 0 .4z" fill-rule="evenodd"/></svg>