<svg width="24" height="25" viewBox="0 0 24 25" fill="none" xmlns="http://www.w3.org/2000/svg">
<path fill-rule="evenodd" clip-rule="evenodd" d="M4.90259 9.34814C4.90259 8.93393 5.23837 8.59814 5.65259 8.59814H9.46087C9.87508 8.59814 10.2109 8.93393 10.2109 9.34814V11.887C10.2109 12.3012 9.87508 12.637 9.46087 12.637H5.65259C5.23837 12.637 4.90259 12.3012 4.90259 11.887V9.34814ZM6.40259 10.0981V11.137H8.71087V10.0981H6.40259Z" fill="black"/>
<path d="M5.65259 14.9458C5.23837 14.9458 4.90259 15.2816 4.90259 15.6958C4.90259 16.11 5.23837 16.4458 5.65259 16.4458H11.9997C12.4139 16.4458 12.7497 16.11 12.7497 15.6958C12.7497 15.2816 12.4139 14.9458 11.9997 14.9458H5.65259Z" fill="black"/>
<path fill-rule="evenodd" clip-rule="evenodd" d="M2.36401 7.40957C2.36401 6.66399 2.96843 6.05957 3.71401 6.05957H20.286C21.0316 6.05957 21.636 6.66399 21.636 7.40957V17.6344C21.636 18.38 21.0316 18.9844 20.286 18.9844H3.71401C2.96843 18.9844 2.36401 18.38 2.36401 17.6344V7.40957ZM3.86401 7.55957V17.4844H20.136V7.55957H3.86401Z" fill="black"/>
</svg>
