<svg enable-background="new 0 0 24 24" viewBox="0 0 24 24" xmlns="http://www.w3.org/2000/svg"><path d="m11.5 6.2c.9-1.2 2.5-1.9 3.9-1.5 1.9.5 3.1 2.6 2.6 4.7-.1.4-.2.7-.4 1-.2.4-.1.8.3 1s.8.1 1-.3.4-.9.5-1.4c.7-2.8-.9-5.8-3.7-6.5-2.1-.6-4.3.4-5.5 2.1-.3.6-.6 1.2-.7 1.9-.1.4.1.8.5.9s.8-.1.9-.5c.1-.5.4-1 .6-1.4z"/><path d="m16.1 6.2c.1-.3 0-.5-.3-.6s-.5 0-.6.3l-.1.2c-.5 0-1 .2-1.2.7-.3.7.2 1.4.8 1.6.2.1.2.1.2.2v.1s0 0-.1.1c-.1 0-.2 0-.4 0-.2-.1-.3-.3-.3-.3 0-.3-.3-.5-.6-.4-.3 0-.5.3-.4.6.1.4.3.7.6.9v.1c-.1.3 0 .5.3.6s.5 0 .6-.3l.1-.2c.1 0 .3 0 .4-.1.3-.1.6-.3.8-.7.3-.7-.1-1.4-.8-1.6-.1 0-.2-.1-.2-.2s0-.1 0-.1 0-.1.1-.1h.3c.2.1.3.2.3.3 0 .3.3.5.6.4.3 0 .5-.3.4-.6 0-.3-.2-.6-.4-.8z"/><path clip-rule="evenodd" d="m18.4 18.1-2.3-1.5-.3-1c-.2-.5-.4-.9-.7-1.2l1.4.5c.6.2 1.3-.1 1.6-.7.3-.7 0-1.5-.7-1.8l-8.7-3.4c0-1.5-1.2-2.7-2.7-2.7-1.5-.1-2.8 1.2-2.8 2.7s1.2 2.8 2.8 2.8c.5 0 .9-.1 1.3-.3l3 3-2 .3c-.6.1-1.1.6-1.1 1.2l-.4 4.4c-.1.8.5 1.4 1.3 1.4h.9c.7 0 1.2-.5 1.3-1.2l.4-2.8h2l1.2 1.6c.1.2.3.3.5.4l2.4 1.2c.6.3 1.3.1 1.7-.4l.4-.6c.3-.7.2-1.5-.5-1.9zm-12.4-7.9c-.7 0-1.2-.6-1.2-1.2 0-.7.6-1.2 1.2-1.2s1.2.5 1.2 1.2-.5 1.2-1.2 1.2zm11.2 9.3-2.2-1.1-1.2-1.6c-.2-.3-.6-.5-1.1-.5h-2.2c-.7 0-1.2.5-1.3 1.2l-.4 2.8h-.5l.4-4.1 2.3-.3c1.1-.1 1.5-1.5.8-2.2l-3.1-3.1 3.6 1.4c-.6.1-.9 1-.4 1.5l1.9 1.7c.3.3.5.6.6 1l.3 1c.1.3.3.5.5.7l2.2 1.5z" fill-rule="evenodd"/></svg>