<svg enable-background="new 0 0 25 25" viewBox="0 0 25 25" xmlns="http://www.w3.org/2000/svg"><path d="m8.3 9.8c0-.4.3-.8.8-.8h7.2c.4 0 .8.3.8.8 0 .4-.3.7-.8.7h-7.2c-.4.1-.8-.3-.8-.7z"/><path d="m16.7 13.8c-.1-.1-.3-.1-.3 0l-.4.6s-.1.1-.1.1l-.7.2c-.1 0-.2.2-.1.3l.5.6s.1.1 0 .2l-.1.7c0 .2.1.3.3.2l.7-.3h.2l.7.3c.1.1.3-.1.3-.2l-.1-.7c0-.1 0-.1 0-.2l.5-.6c.1-.1 0-.3-.1-.3l-.7-.2c-.1 0-.1 0-.1-.1z"/><path clip-rule="evenodd" d="m20.7 5.3h-16c-1 0-1.8.8-1.8 1.8v10.5c0 1 .8 1.8 1.8 1.8h9.7v1.6c0 .3.1.5.4.7.2.1.5.1.8 0l1.1-.7 1 .6c.2.1.5.1.8 0 .2-.1.4-.4.4-.7v-1.5h1.9c1 0 1.8-.8 1.8-1.8v-10.6c-.2-.9-1-1.7-1.9-1.7zm-3.4 14.2-.3-.2c-.2-.1-.6-.1-.8 0l-.3.2v-.6c.2 0 .5.1.7.1s.5 0 .7-.1zm-.7-2.2c-1.2 0-2.1-1-2.1-2.1 0-1.2 1-2.1 2.1-2.1 1.2 0 2.1 1 2.1 2.1 0 1.2-1 2.1-2.1 2.1zm4.3.3c0 .1-.1.2-.2.2h-1.5c.6-.6 1-1.5 1-2.5 0-2-1.6-3.6-3.6-3.6-.5 0-1.1.1-1.5.3h-8.9c-.4 0-.8.3-.8.8s.3.8.8.8h7.2c-.2.3-.3.6-.4.9h-6.8c-.4 0-.8.3-.8.8 0 .4.3.8.8.8h6.8c.1.7.5 1.4.9 1.9h-9.2c-.1 0-.2-.1-.2-.2v-10.8c0-.1.1-.2.2-.2h16c.1 0 .2.1.2.2z" fill-rule="evenodd"/></svg>