<svg width="24" height="25" viewBox="0 0 24 25" fill="none" xmlns="http://www.w3.org/2000/svg">
<path d="M7.03516 11.9458C7.03516 11.5316 7.37094 11.1958 7.78516 11.1958H13.354C13.7682 11.1958 14.104 11.5316 14.104 11.9458C14.104 12.36 13.7682 12.6958 13.354 12.6958H7.78516C7.37094 12.6958 7.03516 12.36 7.03516 11.9458Z" fill="black"/>
<path d="M7.03516 14.8242C7.03516 14.41 7.37094 14.0742 7.78516 14.0742H16.0918C16.506 14.0742 16.8418 14.41 16.8418 14.8242C16.8418 15.2384 16.506 15.5742 16.0918 15.5742H7.78516C7.37094 15.5742 7.03516 15.2384 7.03516 14.8242Z" fill="black"/>
<path d="M7.78516 17.0273C7.37094 17.0273 7.03516 17.3631 7.03516 17.7773C7.03516 18.1916 7.37094 18.5273 7.78516 18.5273H16.0918C16.506 18.5273 16.8418 18.1916 16.8418 17.7773C16.8418 17.3631 16.506 17.0273 16.0918 17.0273H7.78516Z" fill="black"/>
<path fill-rule="evenodd" clip-rule="evenodd" d="M4.51367 4.05C4.51367 3.4701 4.98377 3 5.56367 3H13.5786C13.6522 3 13.724 3.00757 13.7934 3.02198C13.9887 3.02133 14.1841 3.09651 14.3316 3.24703L19.2506 8.26646C19.3997 8.41859 19.4708 8.61807 19.4645 8.8154C19.4789 8.88466 19.4865 8.95642 19.4865 9.02994V21.5491C19.4865 22.129 19.0164 22.5991 18.4365 22.5991H5.56367C4.98377 22.5991 4.51367 22.129 4.51367 21.5491V4.05ZM6.01367 4.5V21.0991H17.9865V9.47816L14.2098 9.46319C13.6349 9.46091 13.1687 8.99663 13.164 8.42169L13.1323 4.5H6.01367ZM16.8635 7.9737L14.6421 5.70698L14.6604 7.96496L16.8635 7.9737Z" fill="black"/>
</svg>
