<svg width="25" height="24" viewBox="0 0 25 24" fill="none" xmlns="http://www.w3.org/2000/svg">
<path d="M12.7714 2.37842C13.1856 2.37842 13.5214 2.7142 13.5214 3.12842V4.44361C13.9288 4.5106 14.3172 4.63301 14.6897 4.81691C15.3317 5.13381 15.8865 5.61333 16.3983 6.22743C16.6635 6.54564 16.6205 7.01856 16.3023 7.28374C15.984 7.54891 15.5111 7.50591 15.246 7.1877C14.8286 6.68693 14.4313 6.36213 14.0258 6.16198C13.6255 5.96438 13.1774 5.8685 12.627 5.88286C11.8908 5.90206 11.1408 6.19408 10.588 6.66283C10.0392 7.12818 9.72834 7.72501 9.74205 8.36121C9.75413 8.92206 9.8888 9.25703 10.1335 9.5381C10.4089 9.85441 10.8763 10.1641 11.6914 10.5488L12.6605 10.9915L12.9198 11.1068C13.2811 11.2673 13.6481 11.432 14.0074 11.6068L14.1397 11.6672C14.1737 11.6828 14.2061 11.7006 14.2366 11.7203C14.8166 12.0132 15.3681 12.3364 15.8323 12.7163C16.6787 13.409 17.2815 14.3289 17.2815 15.6108C17.2815 16.8548 16.7363 17.8722 15.8424 18.5592C15.1999 19.0531 14.3985 19.3621 13.5214 19.4916V20.8714C13.5214 21.2857 13.1856 21.6214 12.7714 21.6214C12.3572 21.6214 12.0214 21.2857 12.0214 20.8714V19.5361C10.2841 19.3606 9.09407 18.3154 8.25809 17.1496C8.01671 16.813 8.0939 16.3444 8.43051 16.103C8.76712 15.8617 9.23568 15.9388 9.47707 16.2755C10.2359 17.3337 11.1804 18.0619 12.5416 18.0619C13.5503 18.0619 14.3748 17.7954 14.9283 17.3699C15.4636 16.9586 15.7815 16.3755 15.7815 15.6108C15.7815 14.8842 15.4713 14.3592 14.8822 13.877C14.4742 13.5431 13.9572 13.2506 13.3527 12.9568L12.0443 12.3591L11.6252 12.1729L11.6271 12.1686L11.0555 11.9075C10.2003 11.5041 9.49225 11.086 9.00217 10.523C8.48094 9.92433 8.26037 9.22796 8.24239 8.39352C8.21691 7.21043 8.80408 6.20886 9.61793 5.51876C10.2861 4.95222 11.1362 4.5669 12.0214 4.43354V3.12842C12.0214 2.7142 12.3572 2.37842 12.7714 2.37842Z" fill="black"/>
</svg>
