<svg width="24" height="24" viewBox="0 0 24 24" fill="none" xmlns="http://www.w3.org/2000/svg">
<path fill-rule="evenodd" clip-rule="evenodd" d="M2.03125 11.9888C2.03125 6.4481 6.48879 1.94629 12 1.94629C17.5112 1.94629 21.9688 6.4481 21.9688 11.9888C21.9688 17.5294 17.5112 22.0312 12 22.0312C6.48879 22.0312 2.03125 17.5294 2.03125 11.9888ZM11.9973 3.44629V5.06252C15.8283 5.07119 18.9312 8.17948 18.9312 12.0125C18.9312 15.8509 15.8196 18.9625 11.9812 18.9625C9.60957 18.9625 7.51535 17.7745 6.26118 15.9612L5.03163 16.8449C6.56101 19.0733 9.11362 20.5312 12 20.5312C16.6715 20.5312 20.4688 16.7123 20.4688 11.9888C20.4688 7.26524 16.6715 3.44629 12 3.44629L11.9973 3.44629ZM11.9812 6.5625C8.9713 6.5625 6.53125 9.00255 6.53125 12.0125C6.53125 15.0225 8.9713 17.4625 11.9812 17.4625C14.9912 17.4625 17.4312 15.0225 17.4312 12.0125C17.4312 9.00255 14.9912 6.5625 11.9812 6.5625Z" fill="black"/>
</svg>
