<svg width="25" height="25" viewBox="0 0 25 25" fill="none" xmlns="http://www.w3.org/2000/svg">
<path d="M18.6216 10.2616C18.9026 9.95727 18.8836 9.48278 18.5792 9.20183C18.2749 8.92087 17.8004 8.93985 17.5194 9.24422L10.4385 16.9152L7.18546 13.6673C6.89234 13.3747 6.41746 13.375 6.1248 13.6682C5.83214 13.9613 5.83251 14.4362 6.12564 14.7288L9.93062 18.5278C10.075 18.672 10.2719 18.7511 10.4758 18.7469C10.6798 18.7428 10.8733 18.6557 11.0116 18.5058L18.6216 10.2616Z" fill="black"/>
<path fill-rule="evenodd" clip-rule="evenodd" d="M12.399 2.89893C6.88932 2.89893 2.42285 7.36539 2.42285 12.8751C2.42285 18.3847 6.88932 22.8512 12.399 22.8512C17.9086 22.8512 22.3751 18.3847 22.3751 12.8751C22.3751 7.36539 17.9086 2.89893 12.399 2.89893ZM3.92285 12.8751C3.92285 8.19382 7.71774 4.39893 12.399 4.39893C17.0802 4.39893 20.8751 8.19382 20.8751 12.8751C20.8751 17.5563 17.0802 21.3512 12.399 21.3512C7.71774 21.3512 3.92285 17.5563 3.92285 12.8751Z" fill="black"/>
</svg>
