<svg width="25" height="24" viewBox="0 0 25 24" fill="none" xmlns="http://www.w3.org/2000/svg">
<path d="M20.449 8.5C21.6916 8.5 22.699 7.49264 22.699 6.25C22.699 5.00736 21.6916 4 20.449 4C19.4693 4 18.6359 4.62611 18.327 5.5H3.69946C3.28525 5.5 2.94946 5.83579 2.94946 6.25C2.94946 6.66421 3.28525 7 3.69946 7L18.327 7C18.6359 7.8739 19.4693 8.5 20.449 8.5Z" fill="black"/>
<path d="M14.8214 11.25L21.6995 11.25C22.1137 11.25 22.4495 11.5858 22.4495 12C22.4495 12.4142 22.1137 12.75 21.6995 12.75L14.8214 12.75C14.5126 13.6239 13.6791 14.25 12.6995 14.25C11.7198 14.25 10.8864 13.6239 10.5775 12.75H3.69946C3.28525 12.75 2.94946 12.4142 2.94946 12C2.94946 11.5858 3.28525 11.25 3.69946 11.25L10.5775 11.25C10.8864 10.3761 11.7198 9.75 12.6995 9.75C13.6791 9.75 14.5126 10.3761 14.8214 11.25Z" fill="black"/>
<path d="M4.94946 20C5.92913 20 6.76256 19.3739 7.07143 18.5L21.6995 18.5C22.1137 18.5 22.4495 18.1642 22.4495 17.75C22.4495 17.3358 22.1137 17 21.6995 17L7.07143 17C6.76256 16.1261 5.92913 15.5 4.94946 15.5C3.70682 15.5 2.69946 16.5074 2.69946 17.75C2.69946 18.9926 3.70682 20 4.94946 20Z" fill="black"/>
</svg>
