<svg width="25" height="24" viewBox="0 0 25 24" fill="none" xmlns="http://www.w3.org/2000/svg">
<path d="M9.0391 4.46422C10.064 4.00548 11.2005 3.75 12.3987 3.75C13.5077 3.75 14.5638 3.96889 15.5274 4.36513C15.9105 4.52265 16.3488 4.33979 16.5063 3.9567C16.6638 3.57361 16.4809 3.13536 16.0979 2.97783C14.9564 2.50847 13.7068 2.25 12.3987 2.25C10.9852 2.25 9.64026 2.55176 8.42631 3.0951C8.04824 3.26431 7.87893 3.70798 8.04814 4.08605C8.21736 4.46412 8.66102 4.63343 9.0391 4.46422Z" fill="black"/>
<path d="M18.5182 4.41414C18.1963 4.15353 17.724 4.20326 17.4634 4.52522C17.2028 4.84717 17.2525 5.31943 17.5745 5.58004C19.2101 6.90398 20.3267 8.83965 20.5778 11.0366C20.6249 11.4482 20.9966 11.7436 21.4082 11.6966C21.8197 11.6495 22.1152 11.2778 22.0681 10.8663C21.7707 8.26495 20.4485 5.97666 18.5182 4.41414Z" fill="black"/>
<path d="M7.18008 5.61492C7.50029 5.35216 7.54687 4.87958 7.28412 4.55937C7.02137 4.23916 6.54879 4.19258 6.22858 4.45533C4.32574 6.01672 3.024 8.28771 2.72923 10.8663C2.68218 11.2778 2.97766 11.6495 3.38919 11.6966C3.80072 11.7436 4.17247 11.4482 4.21952 11.0366C4.46848 8.85886 5.56781 6.93788 7.18008 5.61492Z" fill="black"/>
<path d="M4.28819 13.4058C4.21714 12.9977 3.82873 12.7245 3.42065 12.7955C3.01258 12.8666 2.73937 13.255 2.81042 13.6631C3.2357 16.1056 4.57045 18.2337 6.45041 19.6871C6.7781 19.9405 7.24914 19.8802 7.50249 19.5525C7.75584 19.2248 7.69557 18.7538 7.36787 18.5004C5.77496 17.2689 4.64728 15.4682 4.28819 13.4058Z" fill="black"/>
<path d="M21.9869 13.6631C22.058 13.255 21.7848 12.8666 21.3767 12.7955C20.9686 12.7245 20.5802 12.9977 20.5092 13.4058C20.1501 15.4682 19.0224 17.2689 17.4295 18.5004C17.1018 18.7538 17.0415 19.2248 17.2949 19.5525C17.5482 19.8802 18.0192 19.9405 18.3469 19.6871C20.2269 18.2337 21.5616 16.1056 21.9869 13.6631Z" fill="black"/>
<path d="M6.91242 12.2514C6.91242 9.08262 9.48124 6.5138 12.65 6.5138C12.8746 6.5138 13.0958 6.52666 13.313 6.55162C13.7245 6.5989 14.0964 6.30363 14.1437 5.89212C14.191 5.48062 13.8957 5.1087 13.4842 5.06142C13.2103 5.02994 12.9319 5.0138 12.65 5.0138C8.65282 5.0138 5.41242 8.2542 5.41242 12.2514C5.41242 12.5333 5.42856 12.8116 5.46004 13.0856C5.50732 13.4971 5.87924 13.7924 6.29074 13.7451C6.70225 13.6978 6.99752 13.3259 6.95024 12.9144C6.92528 12.6971 6.91242 12.4759 6.91242 12.2514Z" fill="black"/>
<path fill-rule="evenodd" clip-rule="evenodd" d="M9.90455 13.7295C9.90455 12.3507 11.0223 11.2329 12.4012 11.2329C12.774 11.2329 13.1278 11.3146 13.4455 11.4611L17.1115 7.94062C17.4102 7.65371 17.885 7.66333 18.1719 7.96209C18.4588 8.26086 18.4492 8.73563 18.1504 9.02253L14.5585 12.4719C14.7742 12.8412 14.8979 13.271 14.8979 13.7295C14.8979 15.1084 13.7801 16.2262 12.4012 16.2262C11.0223 16.2262 9.90455 15.1084 9.90455 13.7295ZM12.4012 12.7329C11.8508 12.7329 11.4045 13.1791 11.4045 13.7295C11.4045 14.28 11.8508 14.7262 12.4012 14.7262C12.9517 14.7262 13.3979 14.28 13.3979 13.7295C13.3979 13.1791 12.9517 12.7329 12.4012 12.7329Z" fill="black"/>
</svg>
