<svg width="25" height="24" viewBox="0 0 25 24" fill="none" xmlns="http://www.w3.org/2000/svg">
<path d="M16.9451 9.85164C17.2409 9.56179 17.2458 9.08694 16.956 8.79104C16.6661 8.49514 16.1913 8.49025 15.8954 8.78011L11.4901 13.0954L9.69287 11.2199C9.40628 10.9209 8.93151 10.9108 8.63245 11.1974C8.33339 11.4839 8.32327 11.9587 8.60986 12.2578L10.5368 14.2685C11.043 14.7969 11.8833 14.8101 12.406 14.2981L16.9451 9.85164Z" fill="black"/>
<path fill-rule="evenodd" clip-rule="evenodd" d="M19.5109 4.44616C16.8717 3.66453 14.7238 3.27706 12.555 3.28579C10.3882 3.29451 8.24361 3.69857 5.61351 4.44706C5.04876 4.60778 4.66089 5.12455 4.66089 5.70936V8.46319C4.66089 10.6481 4.79831 13.0424 5.8809 15.1488C7.20641 17.7278 9.14838 19.0896 12.1938 20.5819C12.5759 20.7691 13.0287 20.7594 13.403 20.5526C15.7771 19.2416 17.4297 18.0323 18.7602 15.7746C20.2102 13.3141 20.4495 10.4145 20.4495 7.7484V5.70409C20.4495 5.1252 20.0691 4.61147 19.5109 4.44616ZM6.16089 8.46319V5.85104C8.65849 5.14739 10.6203 4.79358 12.561 4.78578C14.4999 4.77798 16.4593 5.11545 18.9495 5.84453V7.7484C18.9495 10.3685 18.7018 12.9193 17.4679 15.013C16.3481 16.9131 14.9834 17.959 12.7651 19.1913C9.87998 17.7695 8.3089 16.5915 7.21501 14.4631C6.30979 12.7018 6.16089 10.6268 6.16089 8.46319Z" fill="black"/>
</svg>
