<svg width="25" height="25" viewBox="0 0 25 25" fill="none" xmlns="http://www.w3.org/2000/svg">
<path fill-rule="evenodd" clip-rule="evenodd" d="M4.64893 7.875C4.64893 5.80393 6.32786 4.125 8.39893 4.125H11.3989C13.47 4.125 15.1489 5.80393 15.1489 7.875V21.625H4.64893V7.875ZM8.39893 5.625C7.15629 5.625 6.14893 6.63236 6.14893 7.875V20.125H13.6489V7.875C13.6489 6.63236 12.6416 5.625 11.3989 5.625H8.39893Z" fill="black"/>
<path fill-rule="evenodd" clip-rule="evenodd" d="M17.767 7.25688C18.1756 7.74789 18.5074 8.41255 18.6135 9.28056L19.1319 9.41016C19.0582 8.94526 18.8826 8.44078 18.554 7.99417C18.3599 7.73048 18.1046 7.47587 17.767 7.25688ZM18.0238 10.6732C17.495 10.4868 17.1818 9.99908 17.1304 9.51315C17.0166 8.43966 16.3964 7.90737 15.9554 7.69304C15.5544 7.49816 15.1489 7.06715 15.1489 6.46364C15.1489 5.72254 15.8127 5.06562 16.6294 5.2297C18.1126 5.52773 19.122 6.23544 19.762 7.10505C20.3909 7.95953 20.6288 8.92227 20.6684 9.70141C20.7076 10.4718 20.1076 10.9411 19.4914 10.982C19.4377 11.2543 19.4227 11.628 19.4601 12.1084C19.5116 12.7717 19.6529 13.5346 19.8265 14.3194C19.9312 14.7928 20.0406 15.2449 20.1467 15.6832C20.22 15.986 20.2917 16.2822 20.3592 16.5743C20.5125 17.2383 20.6489 17.8994 20.6489 18.375C20.6489 19.4675 19.9274 20.3464 19.0525 20.6964C18.6052 20.8753 18.0906 20.9285 17.5835 20.7836C17.0692 20.6367 16.6145 20.3005 16.2749 19.791C15.687 18.9092 15.2953 18.0872 15.0016 17.4709L14.9851 17.4363C14.8332 17.1174 14.7187 16.8797 14.6146 16.7003C14.5214 16.5398 14.4751 16.4939 14.4751 16.4939C14.1362 16.2626 14.0467 15.8013 14.2749 15.459C14.5047 15.1143 14.9703 15.0212 15.315 15.251C15.5925 15.436 15.7808 15.7214 15.9119 15.9474C16.0529 16.1903 16.1951 16.4886 16.3392 16.7909L16.347 16.8072C16.6421 17.4265 16.9952 18.1673 17.523 18.959C17.6833 19.1995 17.8537 19.3008 17.9956 19.3414C18.1448 19.384 18.3177 19.3747 18.4954 19.3036C18.8704 19.1536 19.1489 18.7825 19.1489 18.375C19.1489 18.1006 19.0588 17.6097 18.8976 16.9118C18.8384 16.6552 18.7693 16.3696 18.6967 16.069C18.5861 15.6115 18.4672 15.1195 18.3619 14.6433C18.1838 13.8385 18.0243 12.9941 17.9646 12.2246C17.9242 11.7055 17.9239 11.1651 18.0238 10.6732Z" fill="black"/>
<path fill-rule="evenodd" clip-rule="evenodd" d="M7.25536 8.66015C7.25536 8.08025 7.72547 7.61015 8.30536 7.61015H11.4925C12.0724 7.61015 12.5425 8.08025 12.5425 8.66015V11.0899C12.5425 11.6698 12.0724 12.1398 11.4925 12.1398H8.30536C7.72546 12.1398 7.25536 11.6697 7.25536 11.0898V8.66015ZM8.75536 9.11015V10.6398H11.0425V9.11015H8.75536Z" fill="black"/>
<path fill-rule="evenodd" clip-rule="evenodd" d="M3.64893 20.875C3.64893 20.4608 3.98471 20.125 4.39893 20.125H15.3989C15.8131 20.125 16.1489 20.4608 16.1489 20.875C16.1489 21.2892 15.8131 21.625 15.3989 21.625H4.39893C3.98471 21.625 3.64893 21.2892 3.64893 20.875Z" fill="black"/>
</svg>
