<svg width="25" height="25" viewBox="0 0 25 25" fill="none" xmlns="http://www.w3.org/2000/svg">
<path fill-rule="evenodd" clip-rule="evenodd" d="M12.4887 5.80333C13.6412 3.52025 16.497 2.34242 19.2952 3.18671C19.5597 3.26652 19.7589 3.48527 19.8136 3.75607C19.9186 4.27501 19.8676 4.94881 19.6778 5.62183C19.4845 6.30782 19.1304 7.05365 18.5676 7.70843C17.5273 8.91869 15.8543 9.72645 13.4499 9.41415V10.6375C16.479 11.0054 18.8257 13.5856 18.8257 16.714C18.8257 20.0948 16.085 22.8355 12.7042 22.8355C9.32342 22.8355 6.58274 20.0948 6.58274 16.714C6.58274 13.5886 8.925 11.0102 11.9499 10.6385V10.0991C9.54425 10.4123 7.87049 9.6044 6.82982 8.39373C6.26697 7.73895 5.91295 6.99313 5.71958 6.30713C5.52987 5.63411 5.47884 4.96031 5.58379 4.44137C5.63856 4.17058 5.83777 3.95182 6.10226 3.87202C8.60494 3.11689 11.1536 3.97932 12.4887 5.80333ZM18.2341 5.21486C18.3102 4.94483 18.3487 4.70089 18.3619 4.49815C16.1579 4.06405 14.222 5.20265 13.6388 6.97593C14.2876 6.51205 15.0993 5.93332 15.6074 5.57131C15.9447 5.33096 16.4131 5.40958 16.6534 5.74692C16.8938 6.08427 16.8152 6.55259 16.4778 6.79294C16.0411 7.10407 15.4006 7.56079 14.8281 7.96971C16.0814 7.88155 16.901 7.34612 17.4301 6.73064C17.8309 6.26441 18.0913 5.72162 18.2341 5.21486ZM7.16332 5.90016C7.0872 5.63013 7.04874 5.38619 7.03555 5.18346C9.23905 4.74945 11.1746 5.88743 11.7582 7.66001C11.1097 7.19629 10.2987 6.61812 9.791 6.25637C9.45365 6.01601 8.98533 6.09464 8.74498 6.43198C8.50462 6.76933 8.58324 7.23765 8.92058 7.478C9.35738 7.78922 9.99813 8.24611 10.5708 8.65511C9.31667 8.56727 8.49659 8.03166 7.96733 7.41594C7.56656 6.94972 7.30617 6.40693 7.16332 5.90016ZM8.08274 16.714C8.08274 14.1616 10.1519 12.0925 12.7042 12.0925C15.2566 12.0925 17.3257 14.1616 17.3257 16.714C17.3257 19.2664 15.2566 21.3355 12.7042 21.3355C10.1519 21.3355 8.08274 19.2664 8.08274 16.714ZM13.4847 13.8044C13.4847 13.3902 13.1489 13.0544 12.7347 13.0544C12.3205 13.0544 11.9847 13.3902 11.9847 13.8044V13.9394C11.7741 14.0212 11.578 14.1371 11.4083 14.2809C11.0612 14.5753 10.7816 15.0293 10.7937 15.5893C10.8014 15.9458 10.9003 16.2889 11.1591 16.5863C11.3152 16.7655 11.5075 16.9011 11.7039 17.0115L11.6959 17.0296L12.2703 17.2849L12.7039 17.483C12.8694 17.5638 12.988 17.6323 13.0744 17.7031C13.132 17.7502 13.1519 17.7806 13.1584 17.7927C13.1622 17.7999 13.1693 17.8134 13.1693 17.8516C13.1693 17.8997 13.1596 17.9261 13.1524 17.9404C13.1449 17.9555 13.1309 17.9754 13.1013 17.9982C13.0372 18.0474 12.896 18.1097 12.6627 18.1097C12.4609 18.1097 12.2999 18.0193 12.115 17.7615C11.8737 17.4248 11.4051 17.3477 11.0685 17.589C10.7319 17.8304 10.6547 18.299 10.8961 18.6356C11.1394 18.9749 11.4918 19.3232 11.9847 19.4968V19.6256C11.9847 20.0398 12.3205 20.3756 12.7347 20.3756C13.1489 20.3756 13.4847 20.0398 13.4847 19.6256V19.4737C13.674 19.4061 13.8536 19.3119 14.0154 19.1875C14.4197 18.8767 14.6693 18.4075 14.6693 17.8516C14.6693 17.2576 14.3791 16.8326 14.0245 16.5423C13.8462 16.3964 13.6405 16.2756 13.4391 16.1731C13.4195 16.1619 13.3991 16.1515 13.3782 16.1419L13.3583 16.1328C13.2292 16.0697 13.1038 16.0139 12.9904 15.9635L12.8866 15.9173L12.6101 15.791C12.4972 15.7376 12.4198 15.695 12.3656 15.6597C12.3273 15.6347 12.3069 15.6174 12.2973 15.6083C12.2958 15.5988 12.2939 15.5824 12.2933 15.557C12.2931 15.5439 12.2964 15.4946 12.3784 15.425C12.4645 15.352 12.5885 15.3041 12.7017 15.3011C12.8033 15.2985 12.8599 15.3156 12.9014 15.3361C12.9481 15.3592 13.0193 15.4085 13.1184 15.5274C13.3836 15.8456 13.8565 15.8886 14.1747 15.6234C14.4929 15.3582 14.5359 14.8853 14.2707 14.5671C14.0772 14.3349 13.8485 14.1308 13.5653 13.9911C13.5386 13.9779 13.5117 13.9654 13.4847 13.9537V13.8044Z" fill="black"/>
</svg>
