<svg width="24" height="24" viewBox="0 0 24 24" fill="none" xmlns="http://www.w3.org/2000/svg">
<path fill-rule="evenodd" clip-rule="evenodd" d="M15.5547 7.17183C15.5547 6.75761 15.2189 6.42183 14.8047 6.42183C14.3905 6.42183 14.0547 6.75761 14.0547 7.17183V7.86119C13.4668 7.24447 12.9748 6.72255 12.7069 6.43743C12.2894 5.99325 11.593 6.00164 11.1816 6.43422L6.90335 10.932C6.61787 11.2321 6.62975 11.7068 6.92988 11.9923C7.23 12.2778 7.70473 12.2659 7.9902 11.9658L8.05371 11.899V15.0474C8.05371 15.4616 8.3895 15.7974 8.80371 15.7974H15.1969C15.6111 15.7974 15.9469 15.4616 15.9469 15.0474V11.9483C15.9498 11.9512 15.9527 11.954 15.9556 11.9568C16.2506 12.2476 16.7255 12.244 17.0162 11.949C17.3069 11.6539 17.3034 11.1791 17.0083 10.8883C16.5651 10.4516 16.0612 9.94081 15.5547 9.42015V7.17183ZM14.4469 10.4325C13.484 9.44225 12.5195 8.42538 11.941 7.81218L9.55371 10.322V14.2974H14.4469V10.4325Z" fill="black"/>
<path fill-rule="evenodd" clip-rule="evenodd" d="M19.3115 4.16048C16.4364 3.30681 14.1036 2.8847 11.7498 2.8942C9.39802 2.90369 7.06854 3.34393 4.20254 4.16137C3.63888 4.32213 3.25 4.83825 3.25 5.42377V8.72467C3.25 10.9178 3.4074 13.2878 4.43465 15.4063C5.86766 18.3617 7.98735 19.8727 11.4082 21.5468C11.7902 21.7338 12.243 21.724 12.6172 21.5176C15.3128 20.031 17.1356 18.6765 18.6038 16.0356C19.984 13.553 20.25 10.6852 20.25 8.00988V5.4185C20.25 4.83888 19.8686 4.32586 19.3115 4.16048ZM4.75 8.72467V5.56521C7.48423 4.79244 9.63067 4.40276 11.7558 4.39419C13.8791 4.38562 16.0232 4.75743 18.75 5.55867V8.00988C18.75 10.6208 18.4812 13.1692 17.2928 15.3068C16.0337 17.5716 14.5076 18.7545 11.9794 20.1563C8.72882 18.5572 6.98971 17.2377 5.78435 14.7519C4.91434 12.9576 4.75 10.8801 4.75 8.72467Z" fill="black"/>
</svg>
