<svg width="24" height="25" viewBox="0 0 24 25" fill="none" xmlns="http://www.w3.org/2000/svg">
<path d="M12.4554 11.1376C12.3303 11.0758 12.1824 11.0403 11.9762 11.0457C11.7178 11.0524 11.4479 11.1573 11.253 11.3225C11.0622 11.4843 10.9872 11.6613 10.9906 11.8196C10.9948 12.0139 11.0361 12.0779 11.0796 12.1279C11.154 12.2133 11.3126 12.3317 11.6879 12.509L12.1618 12.7255L12.2645 12.7711C12.431 12.8451 12.6074 12.9239 12.7849 13.0101L12.8476 13.0388C12.8747 13.0511 12.9007 13.0649 12.9255 13.08C13.2115 13.2255 13.4941 13.3919 13.7364 13.5902C14.2057 13.9743 14.5687 14.5146 14.5687 15.2689C14.5687 15.9853 14.2502 16.5822 13.7317 16.9807C13.4538 17.1943 13.1307 17.3427 12.7852 17.4324V17.8635C12.7852 18.2777 12.4494 18.6135 12.0352 18.6135C11.6209 18.6135 11.2852 18.2777 11.2852 17.8635V17.4646C10.5018 17.2773 9.95225 16.7595 9.57172 16.2289C9.33034 15.8923 9.40753 15.4237 9.74414 15.1823C10.0808 14.9409 10.5493 15.0181 10.7907 15.3547C11.1094 15.7991 11.4529 16.0382 11.925 16.0382C12.339 16.0382 12.6395 15.9283 12.8176 15.7914C12.9775 15.6686 13.0686 15.5059 13.0686 15.2689C13.0686 15.0699 12.9983 14.9245 12.7863 14.751C12.6219 14.6164 12.4054 14.4935 12.1298 14.36L11.5456 14.0931L10.9699 13.8372L10.9732 13.8299C10.5861 13.6423 10.2189 13.4236 9.94831 13.1128C9.62828 12.7453 9.50103 12.3198 9.49095 11.8519C9.47576 11.1467 9.82702 10.565 10.2829 10.1785C10.5701 9.93497 10.9159 9.752 11.2852 9.64691V9.18573C11.2852 8.77152 11.6209 8.43573 12.0352 8.43573C12.4494 8.43573 12.7852 8.77152 12.7852 9.18573V9.65839C12.8985 9.69402 13.0099 9.73851 13.1193 9.79254C13.4862 9.97361 13.7909 10.2418 14.0586 10.5631C14.3237 10.8813 14.2807 11.3542 13.9625 11.6194C13.6443 11.8846 13.1714 11.8416 12.9062 11.5234C12.733 11.3154 12.5857 11.2019 12.4554 11.1376Z" fill="black"/>
<path fill-rule="evenodd" clip-rule="evenodd" d="M19.4166 12.598L19.4441 12.6284C19.7222 12.9354 20.1964 12.9589 20.5035 12.6808C20.8105 12.4028 20.834 11.9285 20.5559 11.6215C19.8021 10.7891 18.9471 9.86437 18.0833 8.93991V5.79169C18.0833 5.37747 17.7475 5.04169 17.3333 5.04169C16.919 5.04169 16.5833 5.37747 16.5833 5.79169V7.34329C15.2242 5.9037 13.982 4.60515 13.2439 3.83623C12.5601 3.12378 11.4271 3.13927 10.7566 3.85168L3.45385 11.6109C3.16996 11.9125 3.18435 12.3872 3.48598 12.6711C3.78761 12.955 4.26226 12.9406 4.54615 12.6389L4.58325 12.5995V19.4583C4.58325 20.4248 5.36675 21.2083 6.33325 21.2083H17.6666C18.6331 21.2083 19.4166 20.4248 19.4166 19.4583V12.598ZM12.1618 4.87495C12.0787 4.78838 11.9375 4.78562 11.8489 4.87973L6.07516 11.0144C6.08049 11.0505 6.08325 11.0874 6.08325 11.1249V19.4583C6.08325 19.5963 6.19518 19.7083 6.33325 19.7083H17.6666C17.8047 19.7083 17.9166 19.5963 17.9166 19.4583V11.1249C17.9166 11.0747 17.9215 11.0256 17.9309 10.9782C15.7765 8.65205 13.3362 6.09845 12.1618 4.87495Z" fill="black"/>
</svg>
