<svg width="25" height="24" viewBox="0 0 25 24" fill="none" xmlns="http://www.w3.org/2000/svg">
<path d="M11.4597 12.4926V7.12956C10.4607 7.2851 9.12544 7.51709 8.16602 7.74248V8.44124C8.16602 10.7139 8.23629 12.8381 9.37829 14.4161C10.1016 15.4156 11.1111 16.108 12.7979 16.9252C13.9135 16.3069 14.6037 15.765 15.1532 15.0371C16.6105 13.1063 16.7326 10.4582 16.7328 7.71677L16.5434 7.65833C15.7595 7.4162 15.2477 7.25813 14.5032 7.15453C14.0929 7.09744 13.8066 6.71858 13.8637 6.30832C13.9208 5.89806 14.2997 5.61176 14.7099 5.66885C15.5807 5.79003 16.2072 5.98393 16.9855 6.22482C17.0872 6.2563 17.1915 6.28857 17.2992 6.32159C17.8497 6.49028 18.2328 6.99869 18.2328 7.58176V7.71002C18.2328 10.383 18.1552 13.5496 16.3504 15.9407C15.6088 16.9233 14.6943 17.5981 13.4278 18.2907C13.0576 18.4931 12.6148 18.5014 12.2394 18.3211C10.4318 17.4531 9.12251 16.6212 8.16311 15.2955C6.69127 13.2617 6.66602 10.6271 6.66602 8.44124V7.58694C6.66602 7.00512 7.05347 6.4701 7.64909 6.32396C8.75419 6.05283 10.3802 5.77596 11.457 5.61232C12.2572 5.49073 12.9597 6.11462 12.9597 6.90816V12.4926C12.9597 12.9068 12.6239 13.2426 12.2097 13.2426C11.7955 13.2426 11.4597 12.9068 11.4597 12.4926Z" fill="black"/>
<path fill-rule="evenodd" clip-rule="evenodd" d="M19.6913 4.4626C16.9407 3.64696 14.7055 3.24314 12.4493 3.25223C10.1952 3.26131 7.96333 3.68245 5.22187 4.46349C4.65765 4.62423 4.26929 5.14068 4.26929 5.72584V8.73795C4.26929 10.927 4.41643 13.308 5.47121 15.4207C6.84763 18.1777 8.87416 19.6103 12.0974 21.1888C12.4795 21.3758 12.9323 21.3661 13.3065 21.1595C15.8324 19.7656 17.5659 18.4875 18.9616 16.0501C20.3768 13.5784 20.6298 10.694 20.6298 8.02316V5.72057C20.6298 5.14132 20.2489 4.62794 19.6913 4.4626ZM5.76929 8.73795V5.8674C8.37861 5.13112 10.4276 4.76038 12.4554 4.75221C14.4813 4.74405 16.5279 5.09773 19.1298 5.86088V8.02316C19.1298 10.6386 18.8713 13.1891 17.6598 15.3048C16.4743 17.3753 15.0332 18.4859 12.6687 19.7982C9.61056 18.2924 7.95991 17.0474 6.81325 14.7507C5.92562 12.9728 5.76929 10.8975 5.76929 8.73795Z" fill="black"/>
</svg>
