<svg width="25" height="25" viewBox="0 0 25 25" fill="none" xmlns="http://www.w3.org/2000/svg">
<path fill-rule="evenodd" clip-rule="evenodd" d="M11.4918 7.26592C12.7127 8.47189 12.7249 10.4393 11.5189 11.6602C10.3129 12.8811 8.34554 12.8933 7.12461 11.6873C5.90367 10.4813 5.89154 8.51396 7.0975 7.29303C8.30347 6.07209 10.2709 6.05996 11.4918 7.26592ZM10.4517 10.6061C11.0755 9.97457 11.0692 8.95691 10.4377 8.33311C9.80615 7.7093 8.78849 7.71558 8.16469 8.34712C7.54088 8.97867 7.54716 9.99633 8.17871 10.6201C8.81025 11.2439 9.82791 11.2377 10.4517 10.6061Z" fill="black"/>
<path fill-rule="evenodd" clip-rule="evenodd" d="M14.6617 11.4655C15.0623 10.3871 15.1294 9.20805 14.8467 8.08377C14.5173 6.77383 13.7342 5.62303 12.6367 4.83575C11.5391 4.04846 10.1981 3.67565 8.85164 3.78351C7.50523 3.89137 6.24062 4.47292 5.28239 5.4249C4.32417 6.37687 3.73434 7.63765 3.61767 8.98332C3.501 10.329 3.86503 11.6725 4.64511 12.7752C5.42519 13.8779 6.57084 14.6684 7.8786 15.0064C9.01688 15.3006 10.2139 15.2353 11.3073 14.8266L12.9549 16.4541L13.0907 18.6037C13.1144 18.9775 13.41 19.2765 13.7835 19.3044L15.7171 19.4485L16.0704 21.1931C16.1415 21.5443 16.4511 21.7961 16.8093 21.7942L20.7978 21.774C21.2109 21.7719 21.5445 21.4363 21.544 21.0233L21.5416 18.5737C21.5414 18.3734 21.4611 18.1816 21.3186 18.0408L14.6617 11.4655ZM13.1277 11.2497C13.5337 10.375 13.6276 9.38651 13.392 8.44959C13.1491 7.48369 12.5717 6.63512 11.7624 6.05461C10.9531 5.47409 9.96422 5.19918 8.97142 5.27872C7.97862 5.35825 7.04614 5.78707 6.33958 6.48902C5.63301 7.19098 5.19809 8.12063 5.11206 9.11289C5.02603 10.1051 5.29446 11.0958 5.86966 11.9089C6.44487 12.722 7.28964 13.3049 8.25393 13.5541C9.19102 13.7963 10.1821 13.7081 11.0606 13.3059C11.3499 13.1165 11.7419 13.1475 11.9979 13.4004L14.2125 15.5878C14.3435 15.7172 14.4223 15.8903 14.4339 16.0741L14.5466 17.8571L16.3951 17.9949C16.7302 18.0199 17.0078 18.2646 17.0745 18.5939L17.4182 20.2911L20.0433 20.2778L20.0419 18.8881L13.2423 12.1719C12.9903 11.923 12.9517 11.5398 13.1277 11.2497Z" fill="black"/>
</svg>
