<svg width="25" height="25" viewBox="0 0 25 25" fill="none" xmlns="http://www.w3.org/2000/svg">
<path d="M12.8791 4.74023C10.5136 4.74023 8.53375 6.57538 8.53375 8.91545C8.53375 9.32966 8.86954 9.66545 9.28375 9.66545C9.69797 9.66545 10.0338 9.32966 10.0338 8.91545C10.0338 7.4715 11.2727 6.24023 12.8791 6.24023C13.2933 6.24023 13.6291 5.90445 13.6291 5.49023C13.6291 5.07602 13.2933 4.74023 12.8791 4.74023Z" fill="black"/>
<path fill-rule="evenodd" clip-rule="evenodd" d="M6.21637 8.95271C6.21637 5.39345 9.23326 2.57031 12.8785 2.57031C16.5238 2.57031 19.5407 5.39345 19.5407 8.95271C19.5407 9.69603 19.2317 10.6067 18.9757 11.2516C18.8409 11.5914 18.7065 11.8914 18.606 12.1064C18.4118 12.5215 18.2388 12.9438 18.0657 13.3681C17.8341 13.9356 17.5347 14.6721 17.2624 15.3498C17.0081 15.9827 16.5408 16.5285 15.9968 16.9284C15.9971 16.935 15.9973 16.9416 15.9974 16.9482C15.9975 16.9521 15.9975 16.956 15.9975 16.96V18.7248C15.9975 19.856 15.1627 20.7923 14.0755 20.9511C13.8839 21.4409 13.4072 21.7878 12.8494 21.7878C12.2879 21.7878 11.8086 21.4362 11.6195 20.9412C10.5627 20.7566 9.75934 19.8345 9.75934 18.7248V16.96C9.75934 16.9419 9.75998 16.9241 9.76123 16.9064C9.22632 16.5071 8.76804 15.9656 8.51745 15.3402C8.25431 14.6833 7.96643 13.9727 7.74417 13.426C7.5765 13.0135 7.40973 12.604 7.21478 12.2036C7.10739 11.983 6.96389 11.675 6.81981 11.3256C6.54628 10.6622 6.21637 9.72445 6.21637 8.95271ZM9.90987 14.7823C10.0507 15.1338 10.346 15.4904 10.7374 15.761C11.1292 16.0318 11.5595 16.1767 11.9289 16.1771C12.3588 16.1775 12.7289 16.1778 12.8785 16.1778C13.0313 16.1778 13.3996 16.1812 13.8217 16.1857C14.1946 16.1897 14.6315 16.0469 15.0299 15.7754C15.4279 15.5042 15.7282 15.1449 15.8705 14.7906C16.4217 13.4187 17.0366 12.0712 17.5816 10.6982C17.8376 10.053 18.0407 9.38077 18.0407 8.95271C18.0407 6.28957 15.7648 4.07031 12.8785 4.07031C9.99234 4.07031 7.71637 6.28957 7.71637 8.95271C7.71637 9.3984 7.93327 10.091 8.20654 10.7538C8.7625 12.102 9.36709 13.4275 9.90987 14.7823ZM11.2593 18.7248V17.71H14.4975V18.7248C14.4975 19.139 14.1617 19.4748 13.7475 19.4748H12.0093C11.5951 19.4748 11.2593 19.139 11.2593 18.7248Z" fill="black"/>
</svg>
