<svg width="24" height="24" viewBox="0 0 24 24" fill="none" xmlns="http://www.w3.org/2000/svg">
<path d="M12 17.25C12.8975 17.25 13.625 16.5225 13.625 15.625C13.625 14.7275 12.8975 14 12 14C11.1025 14 10.375 14.7275 10.375 15.625C10.375 16.5225 11.1025 17.25 12 17.25Z" fill="black"/>
<path fill-rule="evenodd" clip-rule="evenodd" d="M7.25 7C7.25 4.37665 9.37665 2.25 12 2.25C14.6234 2.25 16.75 4.37665 16.75 7V10.25H18C18.9665 10.25 19.75 11.0335 19.75 12V20C19.75 20.9665 18.9665 21.75 18 21.75H6C5.0335 21.75 4.25 20.9665 4.25 20V12C4.25 11.0335 5.0335 10.25 6 10.25H7.25V7ZM15.25 7V10.25H8.75V7C8.75 5.20507 10.2051 3.75 12 3.75C13.7949 3.75 15.25 5.20507 15.25 7ZM6 11.75C5.86193 11.75 5.75 11.8619 5.75 12V20C5.75 20.1381 5.86193 20.25 6 20.25H18C18.1381 20.25 18.25 20.1381 18.25 20V12C18.25 11.8619 18.1381 11.75 18 11.75H6Z" fill="black"/>
</svg>
