<svg width="24" height="24" viewBox="0 0 24 24" fill="none" xmlns="http://www.w3.org/2000/svg">
<g clip-path="url(#clip0_30_2641)">
<path d="M23.8951 0.00109189C22.6622 0.187162 14.4708 1.04743 8.44046 2.52615C-0.14829 4.63235 0.00666473 11.6846 0.00666473 14.4719V17.8011C0.004582 17.804 0 23.7471 0 23.8914C0 24.0066 0.109968 24.0385 0.181197 23.9463C6.12572 16.167 12.3173 11.06 12.3173 11.06C12.3173 11.06 12.3489 11.0284 12.2931 11.0411C11.7353 11.1694 8.6654 12.1649 4.91107 14.1629C4.90816 13.4858 4.91441 13.0436 4.91107 12.9649C4.87775 8.16358 7.75025 6.86683 11.1793 5.92951C13.9743 5.16556 19.1832 4.72825 19.1832 4.72825C19.1832 4.72825 18.7566 7.72094 18.2047 13.8145C17.8019 18.2663 14.4775 19.2606 9.84381 19.2606C9.31146 19.2606 8.53211 19.2614 7.22623 19.2618C5.12435 22.216 4.86317 23.993 4.86317 23.993C4.86317 23.993 9.09278 23.9906 9.9821 23.9906C19.7184 23.9906 21.8928 19.7692 22.3568 13.5211C22.9454 5.58319 23.7573 0.978574 23.9968 0.11216C24.0139 0.0494537 23.9605 -0.00874441 23.8951 0.00109189" fill="black"/>
</g>
<defs>
<clipPath id="clip0_30_2641">
<rect width="24" height="24" fill="white"/>
</clipPath>
</defs>
</svg>
