<svg enable-background="new 0 0 25 24" viewBox="0 0 25 24" xmlns="http://www.w3.org/2000/svg"><path d="m13.5 2.9c-1.2 0-2.1 1-2.1 2.1s1 2.1 2.1 2.1 2.1-1 2.1-2.1-.9-2.1-2.1-2.1z"/><path d="m9.2 11.3c-.5 0-.9.4-.9.9s.4.9.9.9.9-.4.9-.9-.4-.9-.9-.9z"/><path d="m15.4 7.7c-1.5-.3-3.1-.3-4.6.1-.4-.5-1-.9-1.6-1.1-.4-.1-.8-.2-1.1-.1-.3 0-.8 0-1.1.4-.3.3-.4.8-.4 1.1s.1.5.2.9c.1.1.2.2.3.3-.5.4-1 1-1.4 1.7-.3.6-.5 1.2-.6 1.6h-.5c-.4 0-.8.4-.8.8v1.9.8c0 .2.1.4.2.6.2.2.4.2.6.2h.8c.4.7 1 1.3 1.8 1.8.6.3 1.1.5 1.5.6l.1 1.1c.1.4.4.7.8.7h1.7c.4 0 .7-.3.8-.7l.1-.7h1.9l.1.7c.1.4.4.6.8.6h1.7c.4 0 .8-.3.8-.8v-.2c0-.1 0-.3 0-.5 0-.1 0-.2 0-.3 1.7-.6 3.4-2.4 3.4-5.5.1-3.5-2.9-5.4-5.5-6zm-6.5 2.2c.1-.2 0-.4-.1-.6v-.2c-.2-.2-.3-.5-.5-.8 0-.1 0-.1-.1-.2.1 0 .2 0 .3.1.5.2.9.5 1.2 1 .2.3.6.4.9.3 1.5-.5 3-.5 4.4-.2 2.7.6 4.4 2.3 4.4 4.5 0 2.8-1.7 4-2.7 4.2-.3.1-.5.2-.6.5 0 .1-.1.2-.1.3v.2c0 .2 0 .3-.1.5h-.3l-.1-.7c-.1-.4-.4-.6-.8-.6h-3.2c-.4 0-.7.3-.8.7l-.1.7h-.3l-.1-.9c0-.4-.3-.6-.7-.7-.4 0-1-.2-1.5-.6-.7-.4-1.1-.9-1.3-1.5-.1-.3-.4-.5-.8-.5h-.5c0-.3 0-.7 0-1.1h.4c.4 0 .7-.3.8-.7 0-.4.2-1.1.5-1.7.3-.7.8-1.2 1.3-1.4.2-.2.4-.4.5-.6z"/></svg>