<?xml version="1.0" encoding="utf-8"?>
<!-- Generator: Adobe Illustrator 27.1.1, SVG Export Plug-In . SVG Version: 6.00 Build 0)  -->
<svg version="1.1" id="Layer_1" xmlns="http://www.w3.org/2000/svg" xmlns:xlink="http://www.w3.org/1999/xlink" x="0px" y="0px"
	 viewBox="0 0 25 25" style="enable-background:new 0 0 25 25;" xml:space="preserve">
<style type="text/css">
	.st0{fill-rule:evenodd;clip-rule:evenodd;}
</style>
<path class="st0" d="M6.6,9.6c-0.4,0-0.8,0.3-0.8,0.7v2.4c0,0.4,0.3,0.8,0.8,0.8h3.7c0.4,0,0.8-0.3,0.8-0.8v-2.4
	c0-0.4-0.3-0.7-0.8-0.7H6.6z M7.3,12v-0.9h2.2V12H7.3z"/>
<path d="M5.8,16.4c0-0.4,0.3-0.8,0.8-0.8h6.1c0.4,0,0.8,0.3,0.8,0.8s-0.3,0.8-0.8,0.8H6.6C6.2,17.2,5.8,16.8,5.8,16.4z"/>
<path d="M19.2,15.9c0.3,0,0.5,0.2,0.5,0.5v0.5h0.5c0.3,0,0.5,0.2,0.5,0.5s-0.2,0.5-0.5,0.5h-0.5v0.5c0,0.3-0.2,0.5-0.5,0.5
	c-0.3,0-0.5-0.2-0.5-0.5v-0.5h-0.5c-0.3,0-0.5-0.2-0.5-0.5s0.2-0.5,0.5-0.5h0.5v-0.5C18.7,16.1,18.9,15.9,19.2,15.9z"/>
<path class="st0" d="M22,15.7V8.5c0-0.7-0.6-1.3-1.3-1.3H4.7C4,7.1,3.4,7.7,3.4,8.5v9.8c0,0.7,0.6,1.3,1.3,1.3h12c0,0,0.1,0,0.1,0
	c0.6,0.6,1.4,1,2.4,1c1.8,0,3.2-1.5,3.2-3.2C22.4,16.8,22.3,16.2,22,15.7z M15.9,17.4c0,0.3,0,0.5,0.1,0.8H4.9V8.6h15.6v5.8
	c-0.4-0.2-0.8-0.3-1.3-0.3C17.4,14.1,15.9,15.6,15.9,17.4z M19.2,19.1c-1,0-1.8-0.8-1.8-1.8s0.8-1.8,1.8-1.8c1,0,1.8,0.8,1.8,1.8
	S20.2,19.1,19.2,19.1z"/>
</svg>
