<svg width="25" height="24" viewBox="0 0 25 24" fill="none" xmlns="http://www.w3.org/2000/svg">
<path fill-rule="evenodd" clip-rule="evenodd" d="M19.8155 12.473C19.8247 12.4832 19.8339 12.4933 19.843 12.5034C20.1211 12.8104 20.5954 12.8339 20.9024 12.5558C21.2094 12.2778 21.2329 11.8035 20.9548 11.4965C20.201 10.6641 19.346 9.73937 18.4822 8.81491V5.66644C18.4822 5.25223 18.1464 4.91644 17.7322 4.91644C17.318 4.91644 16.9822 5.25223 16.9822 5.66644V7.21829C15.6231 5.7787 14.3809 4.48015 13.6429 3.71123C12.959 2.99878 11.8261 3.01427 11.1556 3.72668L3.85278 11.4859C3.56889 11.7875 3.58327 12.2622 3.8849 12.5461C4.18653 12.83 4.66119 12.8156 4.94508 12.5139L4.98218 12.4745V19.3636C4.98218 20.3133 5.75211 21.0833 6.70187 21.0833H7.59893C8.17883 21.0833 8.64893 20.6132 8.64893 20.0333V14.9696C8.64893 14.8483 8.74729 14.7499 8.86862 14.7499H11.4292C11.5506 14.7499 11.6489 14.8483 11.6489 14.9696V20.0333C11.6489 20.6132 12.119 21.0833 12.6989 21.0833H18.0958C19.0456 21.0833 19.8155 20.3133 19.8155 19.3636V12.473ZM12.5607 4.74995C12.4776 4.66338 12.3364 4.66062 12.2479 4.75473L6.47409 10.8894C6.47942 10.9255 6.48218 10.9624 6.48218 10.9999V19.3636C6.48218 19.4849 6.58054 19.5833 6.70187 19.5833H7.14893V14.9696C7.14893 14.0199 7.91886 13.2499 8.86862 13.2499H11.4292C12.379 13.2499 13.1489 14.0199 13.1489 14.9696V19.5833H18.0958C18.2171 19.5833 18.3155 19.4849 18.3155 19.3636V10.9999C18.3155 10.9497 18.3204 10.9006 18.3299 10.8532C16.1754 8.52705 13.7351 5.97345 12.5607 4.74995Z" fill="black"/>
<path d="M14.9851 11.0547C14.4052 11.0547 13.9351 11.5249 13.9351 12.1047V13.4116C13.9351 13.9915 14.4052 14.4616 14.9851 14.4616H16.2919C16.8718 14.4616 17.3419 13.9915 17.3419 13.4116V12.1047C17.3419 11.5248 16.8718 11.0547 16.2919 11.0547H14.9851Z" fill="black"/>
</svg>
