<svg width="25" height="25" viewBox="0 0 25 25" fill="none" xmlns="http://www.w3.org/2000/svg">
<path d="M10.6192 9.32373C11.0137 9.32373 11.3371 9.62838 11.3669 10.0153C11.6184 10.1405 11.8188 10.3209 11.9852 10.5206C12.2504 10.8388 12.2074 11.3117 11.8891 11.5769C11.5709 11.842 11.098 11.799 10.8328 11.4808C10.7598 11.3931 10.7152 11.3664 10.6978 11.3578C10.6856 11.3518 10.661 11.341 10.5961 11.3427C10.5685 11.3434 10.5347 11.3496 10.4991 11.3632C10.4656 11.3761 10.4375 11.393 10.4167 11.4099C10.4533 11.4317 10.5037 11.4584 10.5735 11.4915L10.8198 11.604L10.8864 11.6336C10.9753 11.6731 11.0758 11.7178 11.1808 11.7689L11.2042 11.7796C11.2261 11.7896 11.2473 11.8005 11.2677 11.8123C11.4361 11.8985 11.6107 12.0016 11.7634 12.1266C12.0779 12.384 12.3425 12.7686 12.3425 13.3063C12.3425 13.8061 12.1171 14.2305 11.7527 14.5105C11.6328 14.6027 11.5027 14.676 11.3665 14.7324C11.334 15.1167 11.0118 15.4185 10.6192 15.4185C10.2336 15.4185 9.91597 15.1275 9.8739 14.7532C9.47944 14.5908 9.19485 14.3029 8.99824 14.0287C8.75685 13.6921 8.83405 13.2235 9.17066 12.9822C9.50727 12.7408 9.97582 12.818 10.2172 13.1546C10.2886 13.2542 10.3503 13.311 10.3998 13.3421C10.4412 13.3682 10.4872 13.3853 10.5592 13.3853C10.7292 13.3853 10.8146 13.3397 10.8386 13.3213L10.8419 13.3186L10.8423 13.3137C10.8364 13.3076 10.8272 13.2988 10.8134 13.2874C10.774 13.2552 10.7122 13.2147 10.616 13.1641C10.5897 13.1502 10.5623 13.1364 10.5336 13.1223L10.2036 12.9716L9.5883 12.6981L9.60112 12.6693C9.46684 12.5847 9.33556 12.4823 9.22365 12.3537C8.9862 12.081 8.89725 11.7668 8.89041 11.4493C8.87945 10.9403 9.13387 10.5309 9.44285 10.2689C9.57139 10.1599 9.71686 10.0691 9.87278 9.99965C9.90998 9.62021 10.23 9.32373 10.6192 9.32373Z" fill="black"/>
<path d="M13.9417 10.3872C13.5274 10.3872 13.1917 10.723 13.1917 11.1372C13.1917 11.5514 13.5274 11.8872 13.9417 11.8872H18.7931C19.2074 11.8872 19.5431 11.5514 19.5431 11.1372C19.5431 10.723 19.2074 10.3872 18.7931 10.3872H13.9417Z" fill="black"/>
<path d="M13.9417 12.7837C13.5274 12.7837 13.1917 13.1195 13.1917 13.5337C13.1917 13.9479 13.5274 14.2837 13.9417 14.2837H17.135C17.5492 14.2837 17.885 13.9479 17.885 13.5337C17.885 13.1195 17.5492 12.7837 17.135 12.7837H13.9417Z" fill="black"/>
<path fill-rule="evenodd" clip-rule="evenodd" d="M3.68579 4.25C3.68579 3.83579 4.02158 3.5 4.43579 3.5H18.7932C19.2074 3.5 19.5432 3.83579 19.5432 4.25V7.02686H21.4358C21.85 7.02686 22.1858 7.36264 22.1858 7.77686V16.9653C22.1858 17.3795 21.85 17.7153 21.4358 17.7153H19.5432L19.5432 20.25C19.5432 20.6642 19.2074 21 18.7932 21L4.43579 21C4.02158 21 3.68579 20.6642 3.68579 20.25V13.96C3.68579 13.5457 4.02158 13.21 4.43579 13.21H6.23853V11.8018H4.43579C4.02158 11.8018 3.68579 11.466 3.68579 11.0518V4.25ZM6.23853 14.71H5.18579L5.18579 19.5L18.0432 19.5L18.0432 17.7153H6.98853C6.57431 17.7153 6.23853 17.3795 6.23853 16.9653V14.71ZM18.0432 5V7.02686H6.98853C6.57431 7.02686 6.23853 7.36264 6.23853 7.77686V10.3018H5.18579V5H18.0432ZM7.73853 16.2153V8.52686H20.6858V16.2153H7.73853Z" fill="black"/>
</svg>
