<svg width="24" height="24" viewBox="0 0 24 24" fill="none" xmlns="http://www.w3.org/2000/svg">
<path fill-rule="evenodd" clip-rule="evenodd" d="M3.25 7C3.25 4.92893 4.92893 3.25 7 3.25C9.07107 3.25 10.75 4.92893 10.75 7C10.75 9.07107 9.07107 10.75 7 10.75C4.92893 10.75 3.25 9.07107 3.25 7ZM7 4.75C5.75736 4.75 4.75 5.75736 4.75 7C4.75 8.24264 5.75736 9.25 7 9.25C8.24264 9.25 9.25 8.24264 9.25 7C9.25 5.75736 8.24264 4.75 7 4.75Z" fill="black"/>
<path d="M20.5303 3.46967C20.8232 3.76256 20.8232 4.23744 20.5303 4.53033L4.53033 20.5303C4.23744 20.8232 3.76256 20.8232 3.46967 20.5303C3.17678 20.2374 3.17678 19.7626 3.46967 19.4697L19.4697 3.46967C19.7626 3.17678 20.2374 3.17678 20.5303 3.46967Z" fill="black"/>
<path fill-rule="evenodd" clip-rule="evenodd" d="M17 13.25C14.9289 13.25 13.25 14.9289 13.25 17C13.25 19.0711 14.9289 20.75 17 20.75C19.0711 20.75 20.75 19.0711 20.75 17C20.75 14.9289 19.0711 13.25 17 13.25ZM14.75 17C14.75 15.7574 15.7574 14.75 17 14.75C18.2426 14.75 19.25 15.7574 19.25 17C19.25 18.2426 18.2426 19.25 17 19.25C15.7574 19.25 14.75 18.2426 14.75 17Z" fill="black"/>
</svg>
