<svg width="25" height="24" viewBox="0 0 25 24" fill="none" xmlns="http://www.w3.org/2000/svg">
<path d="M12.675 9.60187C13.0893 9.60187 13.425 9.93766 13.425 10.3519V10.6749C13.4883 10.6985 13.551 10.7256 13.6129 10.7562C13.9312 10.9133 14.1917 11.1442 14.4164 11.4137C14.6815 11.732 14.6385 12.2049 14.3203 12.47C14.0021 12.7352 13.5292 12.6922 13.264 12.374C13.1339 12.2178 13.0308 12.1416 12.949 12.1012C12.8724 12.0634 12.7776 12.0386 12.6321 12.0424C12.4581 12.0469 12.2728 12.1187 12.1412 12.2304C12.0135 12.3386 11.9802 12.4415 11.9817 12.5154C11.9833 12.5894 11.993 12.6247 11.9976 12.6381C12.001 12.6479 12.0049 12.6561 12.0174 12.6704C12.0564 12.7152 12.1605 12.7997 12.458 12.9404L12.8416 13.1156L12.9196 13.1503C13.0522 13.2092 13.1954 13.273 13.3411 13.3438L13.3903 13.3663C13.4158 13.3779 13.4403 13.3908 13.4638 13.4048C13.6985 13.5246 13.934 13.6635 14.1372 13.8298C14.5399 14.1594 14.8606 14.6328 14.8606 15.294C14.8606 15.9172 14.5822 16.44 14.13 16.7875C13.9189 16.9498 13.6793 17.0675 13.425 17.1457V17.3017C13.425 17.716 13.0893 18.0517 12.675 18.0517C12.2608 18.0517 11.925 17.716 11.925 17.3017V17.1732C11.3104 16.9915 10.8751 16.5711 10.5743 16.1518C10.333 15.8152 10.4102 15.3466 10.7468 15.1052C11.0834 14.8638 11.5519 14.941 11.7933 15.2776C12.0343 15.6137 12.2718 15.7664 12.5869 15.7664C12.896 15.7664 13.104 15.6842 13.2159 15.5982C13.3094 15.5263 13.3606 15.4378 13.3606 15.294C13.3606 15.1881 13.3326 15.1097 13.1871 14.9906C13.0661 14.8915 12.9032 14.7987 12.6859 14.6936L12.2254 14.4832L11.625 14.2164L11.6303 14.2045C11.3569 14.0629 11.0916 13.8914 10.8861 13.6554C10.6016 13.3286 10.4908 12.9509 10.4821 12.5477C10.4687 11.9269 10.7783 11.4193 11.1711 11.0863C11.39 10.9007 11.6482 10.7561 11.925 10.6627V10.3519C11.925 9.93766 12.2608 9.60187 12.675 9.60187Z" fill="black"/>
<path fill-rule="evenodd" clip-rule="evenodd" d="M14.6451 4.55096C14.552 4.54924 14.3933 4.59602 14.2356 4.77179C13.8348 5.21829 13.346 5.45602 12.8188 5.50557C12.3154 5.55288 11.8323 5.42408 11.4157 5.24501C11.2331 5.16651 11.0455 5.06769 10.8925 4.98705C10.8546 4.9671 10.8189 4.94827 10.7859 4.93114C10.5961 4.83267 10.466 4.77341 10.3611 4.74387C10.2969 4.72578 10.2672 4.72623 10.2583 4.72722C10.2459 4.73375 10.2011 4.76333 10.1312 4.86348C10.1295 4.86596 10.0911 4.92009 10.1289 5.11144C10.1669 5.30391 10.2658 5.54128 10.4079 5.79537C10.5462 6.04286 10.7056 6.27118 10.8332 6.44033C10.8963 6.52394 10.95 6.59085 10.987 6.63585C11.0054 6.6583 11.0197 6.67516 11.0287 6.68578L11.0382 6.6969L11.0394 6.6983C11.0394 6.6983 11.0392 6.69807 10.4754 7.19268C9.91164 7.68729 9.9114 7.68702 9.9114 7.68702L9.91047 7.68595L9.90872 7.68394L9.90348 7.6779L9.88642 7.658C9.87225 7.64135 9.85258 7.61797 9.82839 7.58856C9.78008 7.52981 9.7133 7.44644 9.63594 7.34392C9.48265 7.14082 9.28091 6.85348 9.09858 6.52734C8.91994 6.20781 8.73857 5.8136 8.65731 5.40196C8.57619 4.99105 8.57853 4.46769 8.90084 4.00549C9.12907 3.67819 9.41924 3.4252 9.78615 3.30337C10.1494 3.18276 10.4927 3.22255 10.7679 3.30008C11.0339 3.375 11.2828 3.49909 11.4767 3.59968C11.5285 3.62656 11.5767 3.65188 11.6221 3.6758C11.7672 3.75208 11.8851 3.8141 12.008 3.86692C12.292 3.989 12.5134 4.02767 12.6785 4.01215C12.8198 3.99887 12.9634 3.94347 13.1192 3.7699C13.518 3.32559 14.0745 3.04016 14.6728 3.05121C15.295 3.0627 15.8565 3.39434 16.2104 3.97683C16.5068 4.46452 16.4994 4.99031 16.3975 5.41914C16.2968 5.84246 16.091 6.23605 15.8902 6.5516C15.6856 6.8731 15.462 7.1508 15.2928 7.34559C15.2074 7.44395 15.1338 7.52348 15.0806 7.57945C15.0539 7.60748 15.0322 7.62973 15.0165 7.64563L14.9976 7.66466L14.9917 7.67049L14.9897 7.67245L14.9889 7.6732C14.9889 7.6732 14.9883 7.67378 14.4634 7.13815C13.9384 6.60251 13.9382 6.60274 13.9382 6.60274L13.9392 6.60173L13.9492 6.59165C13.9588 6.58192 13.9741 6.56632 13.9939 6.54541C14.0338 6.50352 14.0918 6.44088 14.1603 6.36202C14.299 6.20237 14.4725 5.98545 14.6247 5.74622C14.7808 5.50104 14.8916 5.26777 14.9381 5.0722C14.9833 4.88212 14.9536 4.79697 14.9285 4.75572C14.8207 4.57835 14.7145 4.55224 14.6451 4.55096ZM10.2583 4.72722L10.2554 4.72778ZM11.0394 6.6983V6.6983Z" fill="black"/>
<path fill-rule="evenodd" clip-rule="evenodd" d="M10.5899 6.49097L14.7033 6.49099L14.8983 6.62941C16.2464 7.58638 18.1744 9.22568 19.4509 11.1762C20.727 13.1259 21.4539 15.5697 19.9774 17.9198C19.2913 19.0117 18.1529 19.7704 16.877 20.2513C15.595 20.7346 14.116 20.9609 12.6552 20.9486C11.1943 20.9362 9.71724 20.6847 8.43875 20.1828C7.16672 19.6834 6.03406 18.9123 5.35319 17.822C3.88536 15.4713 4.58711 13.0525 5.85269 11.1203C7.11583 9.19186 9.03359 7.57867 10.3964 6.62622L10.5899 6.49097ZM11.0649 7.99097C9.80089 8.89966 8.16887 10.3218 7.10749 11.9422C5.99431 13.6417 5.60237 15.389 6.6255 17.0275C7.08006 17.7554 7.89896 18.3595 8.9869 18.7866C10.0684 19.2111 11.3597 19.4375 12.6679 19.4486C13.9763 19.4597 15.2671 19.2552 16.3479 18.8478C17.4348 18.438 18.2522 17.8461 18.7073 17.1218C19.7301 15.4939 19.3284 13.7281 18.1958 11.9976C17.1197 10.3533 15.4755 8.90618 14.2222 7.99098L11.0649 7.99097Z" fill="black"/>
</svg>
