<svg width="25" height="24" viewBox="0 0 25 24" fill="none" xmlns="http://www.w3.org/2000/svg">
<path fill-rule="evenodd" clip-rule="evenodd" d="M12.4319 3.07425C12.4962 2.52342 12.0557 2.0025 11.4542 2.04299C10.925 2.07861 9.5135 2.22869 8.17572 2.88393C6.87667 3.5202 5.94959 4.38301 5.59902 4.73681C5.18554 5.1541 5.27311 5.81254 5.71393 6.13369L10.2866 9.46509C10.8628 9.88491 11.6779 9.52832 11.7606 8.82018L12.4319 3.07425ZM8.83552 4.23103C9.54279 3.88461 10.2949 3.70847 10.858 3.61955L10.3836 7.67989L7.16373 5.33406C7.56363 4.99622 8.13866 4.57235 8.83552 4.23103Z" fill="black"/>
<path fill-rule="evenodd" clip-rule="evenodd" d="M14.4333 3.2498C13.7804 3.09764 13.1836 3.55579 13.0964 4.17304L12.0822 11.3481C10.5121 10.3528 7.48584 8.42109 6.09342 7.44205C5.57212 7.07551 4.79828 7.20619 4.47458 7.82797C3.83269 9.06091 3.47021 10.4622 3.47021 11.9459C3.47021 16.8772 7.46785 20.8749 12.3992 20.8749C17.3305 20.8749 21.3282 16.8772 21.3282 11.9459C21.3282 7.71356 18.3843 4.17064 14.4333 3.2498ZM13.4835 12.1516L14.5193 4.82362C17.5895 5.73599 19.8282 8.58033 19.8282 11.9459C19.8282 16.0488 16.5021 19.3749 12.3992 19.3749C8.29628 19.3749 4.97021 16.0488 4.97021 11.9459C4.97021 10.8711 5.19801 9.85115 5.60754 8.93034C7.34843 10.1228 10.5898 12.1799 11.7903 12.9385C12.4834 13.3765 13.3722 12.9393 13.4835 12.1516Z" fill="black"/>
</svg>
