<svg width="25" height="25" viewBox="0 0 25 25" fill="none" xmlns="http://www.w3.org/2000/svg">
<path fill-rule="evenodd" clip-rule="evenodd" d="M14.0993 11.5876C12.4438 11.5876 11.1018 12.9297 11.1018 14.5852C11.1018 16.2407 12.4438 17.5827 14.0993 17.5827C15.7548 17.5827 17.0969 16.2407 17.0969 14.5852C17.0969 12.9297 15.7548 11.5876 14.0993 11.5876ZM12.6018 14.5852C12.6018 13.7581 13.2723 13.0876 14.0993 13.0876C14.9264 13.0876 15.5969 13.7581 15.5969 14.5852C15.5969 15.4122 14.9264 16.0827 14.0993 16.0827C13.2723 16.0827 12.6018 15.4122 12.6018 14.5852Z" fill="black"/>
<path fill-rule="evenodd" clip-rule="evenodd" d="M3.36499 6.28094C3.36499 5.61031 3.90864 5.06665 4.57928 5.06665H17.0614C17.732 5.06665 18.2756 5.6103 18.2756 6.28094V8.89819H20.8196C21.4902 8.89819 22.0338 9.44185 22.0338 10.1125V18.7629C22.0338 19.4336 21.4902 19.9772 20.8196 19.9772H7.37957C6.70894 19.9772 6.16528 19.4336 6.16528 18.7629V15.851H4.57928C3.90864 15.851 3.36499 15.3073 3.36499 14.6367V12.0063C3.36499 12.0064 3.36499 12.0063 3.36499 12.0063V6.28094ZM4.86499 12.785V14.351H5.97321C6.07464 13.6102 5.57609 12.9307 4.86499 12.785ZM6.16528 11.7257C5.78656 11.4783 5.34483 11.3163 4.86499 11.27V9.13751C6.34083 9.03494 7.55171 7.97041 7.87493 6.56665H13.7707C14.0579 7.74054 15.0041 8.65585 16.195 8.89819H7.37957C6.70894 8.89819 6.16528 9.44185 6.16528 10.1125V11.7257ZM16.7756 6.56665V7.46067C16.1585 7.44232 15.6268 7.08405 15.3612 6.56665H16.7756ZM6.29941 6.56665C6.04364 7.13481 5.50621 7.54881 4.86499 7.63077V6.56665H6.29941ZM7.69117 14.351V15.6174C9.19961 15.7586 10.3985 16.9653 10.5275 18.4772H17.6717C17.8015 16.9567 19.0133 15.7449 20.5338 15.6151V13.2604C19.0133 13.1306 17.8015 11.9188 17.6717 10.3982H10.5275C10.3977 11.9188 9.1859 13.1307 7.66528 13.2604V14.351H7.69117ZM7.66528 17.1257V18.4772H9.01682C8.9022 17.786 8.35653 17.2403 7.66528 17.1257ZM20.5338 11.7497C19.8426 11.6351 19.297 11.0894 19.1824 10.3982H20.5338V11.7497ZM19.1824 18.4772H20.5338V17.1258C19.8426 17.2404 19.297 17.786 19.1824 18.4772ZM9.01683 10.3982C8.90223 11.0895 8.35655 11.6351 7.66528 11.7497V10.3982H9.01683Z" fill="black"/>
</svg>
