<svg width="24" height="25" viewBox="0 0 24 25" fill="none" xmlns="http://www.w3.org/2000/svg">
<path d="M9.18408 14.5563C8.76987 14.5563 8.43408 14.8921 8.43408 15.3063C8.43408 15.7205 8.76987 16.0563 9.18408 16.0563L14.8343 16.0563C15.2486 16.0563 15.5843 15.7205 15.5843 15.3063C15.5843 14.8921 15.2486 14.5563 14.8343 14.5563L9.18408 14.5563Z" fill="black"/>
<path d="M8.43408 17.9615C8.43408 17.5473 8.76987 17.2115 9.18408 17.2115L14.8343 17.2115C15.2486 17.2115 15.5843 17.5473 15.5843 17.9615C15.5843 18.3758 15.2486 18.7115 14.8343 18.7115L9.18408 18.7115C8.76987 18.7115 8.43408 18.3758 8.43408 17.9615Z" fill="black"/>
<path fill-rule="evenodd" clip-rule="evenodd" d="M5.94629 4.45508C5.94629 4.04086 6.28208 3.70508 6.69629 3.70508H17.321C17.7352 3.70508 18.071 4.04086 18.071 4.45508V8.18915H20.2423C20.6566 8.18915 20.9923 8.52493 20.9923 8.93915V16.8757C20.9923 17.29 20.6566 17.6257 20.2423 17.6257H18.071V20.4561C18.071 21.1464 17.5113 21.7061 16.821 21.7061H7.19629C6.50593 21.7061 5.94629 21.1464 5.94629 20.4561V17.6257H3.77588C3.36167 17.6257 3.02588 17.29 3.02588 16.8757V8.93915C3.02588 8.52493 3.36167 8.18915 3.77588 8.18915H5.94629V4.45508ZM5.94629 16.1257V11.6758H18.071V16.1257H19.4923V9.68915H4.52588V16.1257H5.94629ZM7.44629 5.20508V8.18915H16.571V5.20508H7.44629ZM7.44629 13.1758V20.2061H16.571V13.1758H7.44629Z" fill="black"/>
</svg>
