<svg width="25" height="25" viewBox="0 0 25 25" fill="none" xmlns="http://www.w3.org/2000/svg">
<path d="M11.8049 9.95184C11.8075 9.77059 11.8719 9.52463 12.0152 9.34168C12.1344 9.18938 12.3388 9.03637 12.7559 9.03638C13.1361 9.03639 13.4016 9.14875 13.5615 9.29021C13.7112 9.42274 13.8227 9.62704 13.8227 9.94574C13.8227 10.1903 13.7637 10.303 13.6781 10.4104C13.622 10.4808 13.5455 10.5575 13.4305 10.6611C13.3978 10.6905 13.3498 10.7326 13.2955 10.7802C13.2073 10.8577 13.1027 10.9494 13.0216 11.0239L13.0142 11.0306L13.007 11.0376C12.7788 11.2584 12.5545 11.4871 12.3811 11.7549C12.1949 12.0424 12.0837 12.3469 12.0288 12.7087C11.9667 13.1182 12.2483 13.5005 12.6579 13.5627C13.0674 13.6248 13.4497 13.3432 13.5119 12.9336C13.5378 12.7622 13.5802 12.6628 13.64 12.5704C13.7118 12.4595 13.8245 12.3342 14.0426 12.1228C14.0926 12.0771 14.1504 12.0266 14.2126 11.9722C14.4175 11.793 14.6704 11.5719 14.851 11.3455C15.1448 10.9769 15.3227 10.5357 15.3227 9.94574C15.3227 9.23101 15.0513 8.60563 14.5555 8.16686C14.0697 7.73699 13.4268 7.53639 12.756 7.53638C11.8818 7.53636 11.2402 7.89822 10.8341 8.41701C10.4519 8.90515 10.3115 9.4865 10.3051 9.93012C10.2991 10.3443 10.6299 10.6849 11.0441 10.6909C11.4583 10.6969 11.7989 10.366 11.8049 9.95184Z" fill="black"/>
<path d="M12.8134 14.2191C12.378 14.2191 12.025 14.5721 12.025 15.0075C12.025 15.4429 12.378 15.7959 12.8134 15.7959C13.2488 15.7959 13.6018 15.4429 13.6018 15.0075C13.6018 14.5721 13.2488 14.2191 12.8134 14.2191Z" fill="black"/>
<path fill-rule="evenodd" clip-rule="evenodd" d="M11.7234 3.9831C13.8631 3.74704 16.0403 4.17646 17.8451 5.2047C19.651 6.23357 20.9782 7.80407 21.5293 9.64398C22.0823 11.4899 21.8022 13.4381 20.762 15.1056C19.7258 16.7668 18.0182 18.0207 15.9919 18.6624C14.0679 19.2716 11.958 19.2978 10.0186 18.7418L5.43092 21.1505C5.15176 21.2971 4.81074 21.2534 4.57754 21.0412C4.34433 20.829 4.26873 20.4936 4.38836 20.2019L5.96456 16.3583C4.70186 15.0465 3.97347 13.3929 3.94084 11.6517C3.90507 9.74225 4.70958 7.91391 6.15602 6.5093C7.59904 5.10802 9.58388 4.21914 11.7234 3.9831ZM7.30117 15.5697C7.56889 15.7695 7.67863 16.1319 7.54603 16.4552L6.55799 18.8646L9.59792 17.2685C9.80541 17.1596 10.0406 17.1575 10.2407 17.2426C11.9479 17.7756 13.8331 17.7725 15.5391 17.2323C17.269 16.6846 18.665 15.6332 19.4893 14.3117C20.3097 12.9966 20.5174 11.4929 20.0924 10.0744C19.6657 8.6499 18.6176 7.37116 17.1026 6.50802C15.5865 5.64425 13.7291 5.27092 11.8878 5.47406C10.0464 5.67722 8.38172 6.43885 7.201 7.58541C6.02371 8.72865 5.4133 10.1677 5.44058 11.6236C5.46746 13.0586 6.11302 14.463 7.30117 15.5697Z" fill="black"/>
</svg>
