<svg width="24" height="25" viewBox="0 0 24 25" fill="none" xmlns="http://www.w3.org/2000/svg">
<path d="M17.8039 7.00344C15.6836 4.84946 12.4448 3.96525 9.39003 4.99318C5.31607 6.36408 3.03952 10.6414 4.09295 14.7387C4.75297 16.7884 7.26016 20.744 12.0164 20.744C16.5294 20.744 20.1873 16.6997 19.9382 11.8255C19.9171 11.4119 20.2353 11.0594 20.649 11.0382C21.0627 11.0171 21.4151 11.3353 21.4363 11.749C21.7244 17.3872 17.4786 22.244 12.0164 22.244C6.2904 22.244 3.396 17.4951 2.65747 15.1745L2.65133 15.1552L2.64624 15.1356C1.38381 10.2756 4.07949 5.19754 8.91164 3.57152C12.4406 2.38401 16.1739 3.35247 18.6833 5.76388L18.5941 5.06685C18.5416 4.65599 18.8321 4.28031 19.2429 4.22777C19.6538 4.17522 20.0295 4.4657 20.082 4.87656L20.4515 7.76601C20.4798 7.98703 20.4083 8.20918 20.2565 8.37225C20.1047 8.53532 19.8882 8.62244 19.6657 8.60999L16.5941 8.43808C16.1805 8.41493 15.864 8.06091 15.8871 7.64734C15.9103 7.23377 16.2643 6.91727 16.6779 6.94042L17.8039 7.00344Z" fill="black"/>
</svg>
