<svg enable-background="new 0 0 25 25" viewBox="0 0 25 25" xmlns="http://www.w3.org/2000/svg"><path d="m15.2 10.2c.6.6 1.6.6 2.2 0s.6-1.6 0-2.2-1.6-.6-2.2 0-.6 1.6 0 2.2z"/><path clip-rule="evenodd" d="m22 5c0-.4-.2-.8-.5-1.1s-.8-.5-1.1-.5c-.4 0-.8 0-1.2.1-.8.2-1.8.6-2.8 1-1.9.9-4 2.2-5 3.2-.2.2-.3.3-.5.5h-.1-2.8c-.3 0-.7.1-.9.4l-3.2 3.1c-.8.8-.2 2.2 1 2.1l3.4-.3c-.2.3-.3.6-.3.8l-.1.4.8.8-1.1 1.1c-.3.3-.3.8 0 1.1s.8.3 1.1 0l1.1-1.1.7.7.4-.1c.3-.1.6-.1 1-.2l-.4 3.5c-.1 1.2 1.3 1.9 2.1 1l3.2-3.1c.2-.2.4-.5.4-.9v-3.2c.1-.1.2-.2.3-.3 1.3-1.2 2.7-3.2 3.6-5.1.5-.9.8-1.8 1-2.6-.1-.5-.1-.9-.1-1.3zm-13.2 7-3.4.3 2.6-2.6h1.8c-.2.4-.5.9-.7 1.3 0 .4-.2.7-.3 1zm6.7 5.4-2.6 2.6.4-3.3v-.1c.7-.3 1.5-.7 2.3-1.1zm.8-4.5c-1.6 1.6-4.1 2.5-5.5 2.8l-.1-.1 2.9-2.8c.3-.3.3-.8 0-1.1s-.8-.3-1.1 0l-2.9 2.8-.2-.2c.2-.7.6-1.7 1-2.6.5-1.2 1.2-2.3 1.8-2.9.8-.8 2.7-2 4.6-2.9.1 0 .1-.1.2-.1l2.4 2.5c-.7 1.7-2 3.5-3.1 4.6zm4.1-7c-.1.3-.1.6-.3.9l-1.6-1.6c.3-.1.6-.2.8-.2.3-.1.6-.1.8-.1h.2s0 .1.1.2c.1.3.1.5 0 .8z" fill-rule="evenodd"/></svg>