<?xml version="1.0" encoding="utf-8"?>
<!-- Generator: Adobe Illustrator 27.1.1, SVG Export Plug-In . SVG Version: 6.00 Build 0)  -->
<svg version="1.1" id="Layer_1" xmlns="http://www.w3.org/2000/svg" xmlns:xlink="http://www.w3.org/1999/xlink" x="0px" y="0px"
	 viewBox="0 0 24 25" style="enable-background:new 0 0 24 25;" xml:space="preserve">
<style type="text/css">
	.st0{fill-rule:evenodd;clip-rule:evenodd;}
</style>
<path class="st0" d="M21,12.9l-2.2-5.3h1.5c0.4,0,0.8-0.3,0.8-0.8c0-0.4-0.3-0.8-0.8-0.8h-6.7c0.1-0.2,0.1-0.5,0.1-0.7
	c0-1-0.8-1.9-1.9-1.9s-1.9,0.8-1.9,1.9c0,0.2,0,0.5,0.1,0.7H3.9c-0.4,0-0.8,0.3-0.8,0.8c0,0.4,0.3,0.8,0.8,0.8h1.4L3,12.8
	C3,12.9,2.9,13,2.9,13.2c0,1.8,1.5,3.3,3.3,3.3c1.8,0,3.3-1.5,3.3-3.3c0-0.1,0-0.2-0.1-0.3l0,0L7.3,7.6h3.9v10.3H9.2
	c-1.5,0-2.8,1.2-2.8,2.8v0.1c0,0.4,0.3,0.8,0.8,0.8H17c0.4,0,0.8-0.3,0.8-0.8v-0.1c0-1.5-1.2-2.8-2.8-2.8h-2.2V7.6h4l-2.3,5.2
	c-0.1,0.1-0.1,0.2-0.1,0.4c0,1.8,1.5,3.3,3.3,3.3c1.8,0,3.3-1.5,3.3-3.3C21.1,13,21.1,12.9,21,12.9L21,12.9z M6.3,15
	c-0.8,0-1.4-0.5-1.7-1.1h3.4C7.7,14.6,7,15,6.3,15z M7.7,12.4H4.8L6.3,9L7.7,12.4z M12,5c0.2,0,0.4,0.2,0.4,0.4
	c0,0.2-0.2,0.4-0.4,0.4s-0.4-0.2-0.4-0.4C11.6,5.2,11.8,5,12,5z M15,19.4c0.4,0,0.8,0.2,1.1,0.6H8.1c0.2-0.3,0.6-0.6,1.1-0.6H15z
	 M17.8,9l1.4,3.4h-2.9L17.8,9z M17.7,15c-0.8,0-1.4-0.5-1.7-1.1h3.4C19.2,14.6,18.5,15,17.7,15z"/>
</svg>
