<?xml version="1.0" encoding="utf-8"?>
<!-- Generator: Adobe Illustrator 27.1.1, SVG Export Plug-In . SVG Version: 6.00 Build 0)  -->
<svg version="1.1" id="Layer_1" xmlns="http://www.w3.org/2000/svg" xmlns:xlink="http://www.w3.org/1999/xlink" x="0px" y="0px"
	 viewBox="0 0 25 25" style="enable-background:new 0 0 25 25;" xml:space="preserve">
<style type="text/css">
	.st0{fill-rule:evenodd;clip-rule:evenodd;}
</style>
<path class="st0" d="M20.9,20l-5.3-5.3c1.7-2.1,2-5.1,0.6-7.6c0,0,0,0,0,0c-1.9-3.2-6-4.3-9.2-2.4c-3.2,1.9-4.3,6-2.5,9.2
	c1.9,3.2,6,4.3,9.2,2.5c0.3-0.2,0.6-0.4,0.8-0.6l5.3,5.3c0.3,0.3,0.8,0.3,1.1,0S21.2,20.2,20.9,20z M10.4,15.8
	c-2.9,0-5.3-2.4-5.3-5.3s2.4-5.3,5.3-5.3s5.3,2.4,5.3,5.3S13.3,15.8,10.4,15.8z"/>
</svg>
