<?xml version="1.0" encoding="utf-8"?>
<!-- Generator: Adobe Illustrator 27.1.1, SVG Export Plug-In . SVG Version: 6.00 Build 0)  -->
<svg version="1.1" id="Layer_1" xmlns="http://www.w3.org/2000/svg" xmlns:xlink="http://www.w3.org/1999/xlink" x="0px" y="0px"
	 viewBox="0 0 25 25" style="enable-background:new 0 0 25 25;" xml:space="preserve">
<style type="text/css">
	.st0{fill-rule:evenodd;clip-rule:evenodd;}
</style>
<path d="M13.4,14.4c0,0.4-0.3,0.7-0.7,0.7c-0.4,0-0.7-0.3-0.7-0.7c0-0.4,0.3-0.7,0.7-0.7C13.1,13.6,13.4,14,13.4,14.4z"/>
<path class="st0" d="M19.8,4.9c-2.8-0.8-5-1.2-7.3-1.2c-2.3,0-4.5,0.4-7.3,1.2c-0.6,0.2-1,0.7-1,1.3v3c0,2.2,0.1,4.6,1.2,6.7
	c1.4,2.8,3.4,4.2,6.7,5.8c0.4,0.2,0.8,0.2,1.2,0c2.5-1.4,4.3-2.7,5.7-5.1c1.4-2.5,1.7-5.4,1.7-8V6.2C20.7,5.6,20.3,5.1,19.8,4.9z
	 M5.8,9.2V6.3c2.6-0.7,4.7-1.1,6.7-1.1c2,0,4.1,0.3,6.7,1.1v2.2c0,2.6-0.3,5.2-1.5,7.3c-1.2,2.1-2.6,3.2-5,4.5
	c-3.1-1.5-4.7-2.8-5.9-5.1C5.9,13.5,5.8,11.4,5.8,9.2z"/>
<path class="st0" d="M15.2,11.7v-1.3c0-1.4-1.1-2.5-2.5-2.5s-2.5,1.1-2.5,2.5v1.3c-0.6,0.3-1.1,1-1.1,1.8v1.8c0,1.1,0.9,2,2,2h3.2
	c1.1,0,2-0.9,2-2v-1.8C16.3,12.7,15.9,12,15.2,11.7z M11.7,10.4c0-0.6,0.5-1,1-1c0.6,0,1,0.5,1,1v1h-2.1V10.4z M14.8,15.3
	c0,0.3-0.2,0.5-0.5,0.5h-3.2c-0.3,0-0.5-0.2-0.5-0.5v-1.8c0-0.3,0.2-0.5,0.5-0.5h3.2c0.3,0,0.5,0.2,0.5,0.5V15.3z"/>
</svg>
