<svg width="24" height="25" viewBox="0 0 24 25" fill="none" xmlns="http://www.w3.org/2000/svg">
<path fill-rule="evenodd" clip-rule="evenodd" d="M7.19727 12.2313C7.19727 9.56495 9.3588 7.40341 12.0252 7.40341C14.6916 7.40341 16.8531 9.56495 16.8531 12.2313C16.8531 14.8977 14.6916 17.0593 12.0252 17.0593C9.3588 17.0593 7.19727 14.8977 7.19727 12.2313ZM12.0252 8.90341C10.1872 8.90341 8.69727 10.3934 8.69727 12.2313C8.69727 14.0693 10.1872 15.5593 12.0252 15.5593C13.8631 15.5593 15.3531 14.0693 15.3531 12.2313C15.3531 10.3934 13.8631 8.90341 12.0252 8.90341Z" fill="black"/>
<path fill-rule="evenodd" clip-rule="evenodd" d="M9.95605 2.9805C10.0228 2.62446 10.3344 2.36699 10.6967 2.36866L13.246 2.3804C13.604 2.38205 13.911 2.63648 13.9789 2.98797L14.4048 5.18986C14.572 5.24106 14.734 5.29905 14.8859 5.35997C15.0136 5.41124 15.1449 5.46888 15.276 5.5324L17.1145 4.27423C17.4134 4.06966 17.8158 4.10797 18.0708 4.36529L19.8652 6.17628C20.1172 6.43058 20.1543 6.82752 19.9538 7.12413L18.7536 8.89997C18.8445 9.07978 18.924 9.2614 18.9914 9.43503C19.0432 9.56845 19.0925 9.70882 19.1369 9.85285L21.2617 10.251C21.6177 10.3178 21.8752 10.6294 21.8735 10.9917L21.8618 13.541C21.8601 13.899 21.6057 14.2059 21.2542 14.2739L19.1198 14.6868C19.0716 14.8481 19.0172 15.0044 18.96 15.1514C18.8991 15.3079 18.8287 15.4697 18.7498 15.6301L19.9676 17.4096C20.1722 17.7086 20.1339 18.111 19.8766 18.366L18.0656 20.1604C17.8113 20.4123 17.4143 20.4494 17.1177 20.249L15.3485 19.0532C15.186 19.1354 15.0226 19.2082 14.8658 19.271C14.7138 19.3318 14.5527 19.3894 14.3873 19.4403L13.9907 21.5567C13.924 21.9128 13.6123 22.1702 13.2501 22.1686L10.7007 22.1568C10.3427 22.1552 10.0358 21.9007 9.96783 21.5493L9.54775 19.3773C9.38004 19.326 9.21758 19.2679 9.06531 19.2068C8.92846 19.1519 8.78761 19.0897 8.64732 19.0208L6.83231 20.2629C6.53337 20.4675 6.13093 20.4291 5.87597 20.1718L4.08159 18.3608C3.82961 18.1065 3.7925 17.7096 3.99297 17.413L5.18716 15.6461C5.10058 15.473 5.02462 15.2987 4.95976 15.1317C4.90427 14.9889 4.85175 14.8381 4.80487 14.6833L2.68509 14.2861C2.32905 14.2194 2.07158 13.9077 2.07325 13.5455L2.08499 10.9961C2.08664 10.6381 2.34107 10.3312 2.69256 10.2632L4.82391 9.85094C4.87882 9.68623 4.94133 9.52247 5.00918 9.3635C5.07171 9.217 5.14004 9.07159 5.21304 8.93048L3.97916 7.12747C3.77458 6.82853 3.8129 6.4261 4.07022 6.17114L5.8812 4.37675C6.13551 4.12478 6.53245 4.08767 6.82906 4.28813L8.6354 5.50898C8.78291 5.44041 8.93417 5.3773 9.08562 5.32046C9.23695 5.26367 9.3916 5.21198 9.54633 5.16684L9.95605 2.9805ZM15.5149 17.3553L15.3461 17.233C15.229 17.3947 14.8544 17.6598 14.3082 17.8784C13.7661 18.0955 13.2998 18.1691 13.1034 18.1418L13.1001 18.1656L12.6316 20.6657L11.3236 20.6597L10.8756 18.3434L10.831 18.0682C10.6226 18.102 10.1616 18.0304 9.62385 17.8147C9.08415 17.5981 8.71075 17.3344 8.59693 17.1845L7.88814 17.7227L6.5013 18.6718L5.58065 17.7426L6.99379 15.6517L6.98388 15.645L6.99271 15.6331C6.83224 15.5143 6.57101 15.137 6.35798 14.5886C6.14651 14.0442 6.07773 13.5772 6.10705 13.3811L5.57593 13.3017L3.57611 12.9269L3.58214 11.6189L4.93294 11.3577L6.09373 11.1888C6.08209 11.1088 6.08681 10.9472 6.14053 10.7048C6.19185 10.4733 6.27803 10.2118 6.38878 9.95233C6.4995 9.69293 6.62835 9.45055 6.75788 9.25467C6.89419 9.04854 7.00324 8.93661 7.06076 8.89439L6.25169 7.79221L5.57026 6.79647L6.49943 5.87581L7.33419 6.44L7.33331 6.44113L8.51468 7.36544C8.53128 7.34423 8.55568 7.31808 8.5887 7.28788L8.5903 7.28896L8.59475 7.28238C8.66086 7.22281 8.75963 7.14818 8.89699 7.06503C9.09988 6.94223 9.34849 6.82396 9.61264 6.72483C9.8767 6.62574 10.141 6.55152 10.3721 6.5099C10.6153 6.46611 10.7716 6.46767 10.8418 6.4801L11.1032 5.00305L11.3152 3.87152L12.6232 3.87755L13.0688 6.18126L13.1202 6.49854C13.3286 6.46475 13.7896 6.53637 14.3273 6.7521C14.867 6.96864 15.2404 7.2324 15.3542 7.38229L16.4986 6.51331L17.4455 5.86533L18.3661 6.7945L16.953 8.88538L16.9805 8.90395L16.9585 8.93368C17.1189 9.05246 17.3802 9.42976 17.5932 9.97817C17.8047 10.5226 17.8734 10.9896 17.8441 11.1856L19.137 11.379L20.3707 11.6102L20.3646 12.9182L18.5749 13.2644L17.8033 13.3976C17.8392 13.6057 17.7723 14.0674 17.5622 14.6073C17.3701 15.1006 17.1375 15.4565 16.9852 15.6034L16.9366 15.6366L18.3765 17.7406L17.4473 18.6613L15.5149 17.3553Z" fill="black"/>
</svg>
