<svg width="24" height="25" viewBox="0 0 24 25" fill="none" xmlns="http://www.w3.org/2000/svg">
<path fill-rule="evenodd" clip-rule="evenodd" d="M3.32547 10.329L3.13968 10.2307C2.37476 9.8257 2.40074 8.72117 3.18388 8.35263L11.5565 4.41256C11.8325 4.28269 12.1513 4.27924 12.4301 4.40312L21.2956 8.34336C22.1065 8.70376 22.1324 9.84516 21.3387 10.242L18.5994 11.6116V16.6959C18.5994 17.3097 18.2761 17.8894 17.7314 18.2013C15.6912 19.3695 13.9552 20.0296 12.1862 20.0386C10.4094 20.0478 8.71284 19.4002 6.75091 18.1932C6.23281 17.8745 5.93229 17.3102 5.93229 16.7186V11.7091L4.77344 11.0956V14.6043C4.77344 14.665 4.76623 14.724 4.75263 14.7805C5.26702 15.0453 5.61884 15.5815 5.61884 16.1998C5.61884 17.0809 4.9046 17.7951 4.02353 17.7951C3.14247 17.7951 2.42822 17.0809 2.42822 16.1998C2.42822 15.5815 2.77996 15.0454 3.29426 14.7806C3.28065 14.7241 3.27344 14.665 3.27344 14.6043V10.754C3.27344 10.6076 3.29146 10.4652 3.32547 10.329ZM5.38158 8.97621L12.009 5.85744L19.815 9.32681L12.0098 13.2294L6.65528 10.3946L11.2975 10.0851C11.4848 10.2502 11.7308 10.3503 12.0001 10.3503C12.5874 10.3503 13.0636 9.87409 13.0636 9.28671C13.0636 8.69933 12.5874 8.22317 12.0001 8.22317C11.6799 8.22317 11.3928 8.36463 11.1978 8.58846L5.38158 8.97621ZM7.43229 12.5032V16.7186C7.43229 16.8061 7.47664 16.8785 7.53688 16.9156C9.38422 18.0521 10.7985 18.5457 12.1785 18.5387C13.5664 18.5315 15.0331 18.0179 16.986 16.8996C17.052 16.8618 17.0994 16.7858 17.0994 16.6959V12.3616L12.4735 14.6746C12.1702 14.8263 11.8124 14.8221 11.5127 14.6634L7.43229 12.5032Z" fill="black"/>
</svg>
