<svg width="25" height="25" viewBox="0 0 25 25" fill="none" xmlns="http://www.w3.org/2000/svg">
<path fill-rule="evenodd" clip-rule="evenodd" d="M8.21931 20.5892C9.24311 21.229 10.3857 21.7071 11.895 21.722L11.9024 21.7221H18.388C19.4465 21.7221 20.1663 20.7877 20.1663 19.8208C20.1663 19.5346 20.1032 19.2513 19.987 18.9942C20.0097 18.9773 20.0321 18.9599 20.0542 18.9419C20.4887 18.5896 20.7842 18.052 20.7842 17.3721C20.7842 17.3576 20.7838 17.3432 20.7829 17.3289C20.7634 16.9906 20.6719 16.6675 20.5207 16.384C20.9778 16.0334 21.2949 15.4879 21.315 14.7679L21.3153 14.7476C21.3157 14.334 21.2189 13.9503 21.0439 13.627C21.4204 13.2675 21.6515 12.7558 21.6515 12.2038C21.6515 11.1602 20.8256 10.2608 19.7528 10.2608H16.5008C17.0694 8.98266 17.1986 7.68403 17.1822 6.67461L17.1822 6.67235C17.1711 6.09866 17.076 5.46724 16.7601 4.95723C16.4093 4.39088 15.8307 4.04895 15.0716 4.04895C14.6115 4.04895 14.247 4.26554 13.9791 4.51061C13.7178 4.74968 13.4975 5.06089 13.3062 5.37041C13.1119 5.68484 12.9187 6.04598 12.7264 6.40672L12.7005 6.4553C12.5127 6.80781 12.3209 7.16768 12.1102 7.52787C11.2392 9.01672 10.1748 10.279 8.3879 10.4279C7.90284 9.87193 7.18911 9.52063 6.39333 9.52063C4.93198 9.52063 3.74731 10.7053 3.74731 12.1666V18.6742C3.74731 20.1355 4.93197 21.3202 6.39333 21.3202C7.10137 21.3202 7.74445 21.0421 8.21931 20.5892ZM9.02142 11.857C9.03326 11.9586 9.03934 12.0619 9.03934 12.1666V18.6742C9.03934 18.8855 9.01458 19.091 8.9678 19.2879C9.8461 19.8439 10.7306 20.2097 11.9063 20.2221H18.388C18.4341 20.2221 18.4948 20.2026 18.5553 20.1348C18.6169 20.0659 18.6663 19.9566 18.6663 19.8208C18.6663 19.685 18.6169 19.5758 18.5553 19.5068C18.4948 19.4391 18.4341 19.4196 18.388 19.4196C17.9738 19.4196 17.638 19.0838 17.638 18.6696C17.638 18.2553 17.9738 17.9196 18.388 17.9196C18.4578 17.9196 18.526 17.9236 18.5927 17.9315C18.6134 17.9298 18.6344 17.9289 18.6555 17.9289C18.8201 17.9289 18.9926 17.8716 19.1095 17.7768C19.2031 17.7009 19.2789 17.5902 19.2839 17.393C19.2518 16.9826 19.0001 16.8478 18.8419 16.8478C18.4277 16.8478 18.0919 16.512 18.0919 16.0978C18.0919 15.6836 18.4277 15.3478 18.8419 15.3478C18.9108 15.3478 18.9785 15.3514 19.0448 15.3583C19.054 15.358 19.0632 15.3578 19.0725 15.3578C19.2632 15.3578 19.4636 15.3006 19.5995 15.2001C19.7067 15.1207 19.8057 14.9957 19.8153 14.736C19.8135 14.4798 19.7354 14.3321 19.669 14.2579C19.604 14.1851 19.5206 14.1466 19.4167 14.1466C19.0025 14.1466 18.6667 13.8108 18.6667 13.3966C18.6667 12.9824 19.0025 12.6466 19.4167 12.6466C19.4876 12.6466 19.5572 12.6503 19.6252 12.6576C19.6667 12.6505 19.7093 12.6468 19.7528 12.6468C19.9441 12.6468 20.1515 12.473 20.1515 12.2038C20.1515 11.9345 19.9441 11.7608 19.7528 11.7608H15.2285C14.8143 11.7608 14.4785 11.425 14.4785 11.0108V10.9951C14.4785 10.841 14.5259 10.6907 14.6144 10.5645C15.497 9.30577 15.7009 7.84927 15.6824 6.70011C15.6733 6.2325 15.5922 5.92036 15.4849 5.74707C15.4375 5.67062 15.3904 5.62949 15.3444 5.6041C15.2992 5.57918 15.2209 5.5506 15.0836 5.54902C15.0704 5.55512 15.0405 5.57258 14.9916 5.61738C14.8838 5.71598 14.7499 5.88765 14.5822 6.15903C14.4175 6.42549 14.2468 6.74326 14.0502 7.11221L14.0207 7.16743C13.8357 7.51477 13.6311 7.89867 13.4049 8.28532C12.548 9.74997 11.2647 11.4592 9.02142 11.857ZM5.24731 12.1666C5.24731 11.5337 5.7604 11.0206 6.39333 11.0206C7.02625 11.0206 7.53934 11.5337 7.53934 12.1666V18.6742C7.53934 19.3071 7.02625 19.8202 6.39333 19.8202C5.7604 19.8202 5.24731 19.3071 5.24731 18.6742V12.1666Z" fill="black"/>
</svg>
