<?xml version="1.0" encoding="utf-8"?>
<!-- Generator: Adobe Illustrator 27.1.1, SVG Export Plug-In . SVG Version: 6.00 Build 0)  -->
<svg version="1.1" id="Layer_1" xmlns="http://www.w3.org/2000/svg" xmlns:xlink="http://www.w3.org/1999/xlink" x="0px" y="0px"
	 viewBox="0 0 25 25" style="enable-background:new 0 0 25 25;" xml:space="preserve">
<style type="text/css">
	.st0{fill-rule:evenodd;clip-rule:evenodd;}
</style>
<path class="st0" d="M19,4.4c-0.7,0-1.4,0.3-1.8,0.7C16.2,4.4,15,4,13.5,4l0,0H7C5.9,4,5.2,4.9,5.2,5.9c0,0.3,0.1,0.6,0.2,0.8
	c0,0,0,0-0.1,0.1C4.9,7.1,4.6,7.6,4.6,8.3c0,0,0,0,0,0c0,0.3,0.1,0.7,0.3,0.9C4.4,9.7,4.1,10.2,4,10.9l0,0c0,0.4,0.1,0.8,0.3,1.1
	c-0.4,0.4-0.6,0.9-0.6,1.4c0,1,0.8,1.9,1.9,1.9h3.3C8.3,16.7,8.2,18,8.2,19l0,0c0,0.6,0.1,1.2,0.4,1.7c0.4,0.6,0.9,0.9,1.7,0.9
	c0.5,0,0.8-0.2,1.1-0.5c0.3-0.2,0.5-0.6,0.7-0.9c0.2-0.3,0.4-0.7,0.6-1l0,0c0.2-0.4,0.4-0.7,0.6-1.1c0.9-1.5,1.9-2.8,3.7-2.9
	c0.5,0.6,1.2,0.9,2,0.9c1.5,0,2.7-1.2,2.7-2.7V7C21.7,5.5,20.5,4.4,19,4.4z M16.4,13.8c-2.3,0.4-3.5,2.1-4.4,3.6
	c-0.2,0.4-0.4,0.8-0.6,1.1l0,0.1c-0.2,0.4-0.4,0.7-0.5,1c-0.2,0.3-0.3,0.4-0.4,0.5c0,0-0.1,0.1-0.1,0.1c-0.1,0-0.2,0-0.3-0.1
	c0,0-0.1-0.1-0.1-0.1c-0.1-0.2-0.2-0.5-0.2-1c0-1.2,0.2-2.6,1.1-3.9c0.1-0.1,0.1-0.3,0.1-0.4v0c0-0.4-0.3-0.8-0.8-0.8H5.6
	c-0.2,0-0.4-0.2-0.4-0.4c0-0.3,0.2-0.4,0.4-0.4c0,0,0.1,0,0.1,0c0.1,0,0.1,0,0.2,0c0.4,0,0.8-0.3,0.8-0.8S6.4,11.6,6,11.6
	c-0.1,0-0.2,0-0.3-0.1c-0.1-0.1-0.1-0.2-0.1-0.5c0-0.3,0.1-0.4,0.2-0.5c0.1-0.1,0.3-0.2,0.5-0.2c0,0,0,0,0,0c0.1,0,0.1,0,0.2,0
	c0.4,0,0.8-0.3,0.8-0.8c0-0.4-0.3-0.8-0.8-0.8c-0.2,0-0.4-0.1-0.4-0.5c0-0.2,0.1-0.3,0.2-0.4c0.1-0.1,0.3-0.2,0.5-0.2c0,0,0,0,0.1,0
	c0.1,0,0.1,0,0.2,0c0.4,0,0.8-0.3,0.8-0.8c0-0.4-0.3-0.8-0.8-0.8c0,0-0.1,0-0.2-0.1C6.8,6.1,6.7,6,6.7,5.9s0-0.2,0.1-0.3
	C6.9,5.5,6.9,5.5,7,5.5h6.5c1.2,0,2.1,0.4,3,0.9c0,0.2-0.1,0.4-0.1,0.6v6.5C16.4,13.6,16.4,13.7,16.4,13.8z M20.2,13.5
	c0,0.6-0.5,1.2-1.2,1.2c-0.6,0-1.2-0.5-1.2-1.2V7c0-0.6,0.5-1.2,1.2-1.2c0.6,0,1.2,0.5,1.2,1.2V13.5z"/>
</svg>
