<?xml version="1.0" encoding="utf-8"?>
<!-- Generator: Adobe Illustrator 27.1.1, SVG Export Plug-In . SVG Version: 6.00 Build 0)  -->
<svg version="1.1" id="Layer_1" xmlns="http://www.w3.org/2000/svg" xmlns:xlink="http://www.w3.org/1999/xlink" x="0px" y="0px"
	 viewBox="0 0 16 17" style="enable-background:new 0 0 16 17;" xml:space="preserve">
<style type="text/css">
	.st0{fill-rule:evenodd;clip-rule:evenodd;}
</style>
<path class="st0" d="M8,2C4.1,2,1,5.1,1,9s3.1,7,7,7c3.9,0,7-3.1,7-7S11.9,2,8,2z M8.8,13.2c0,0.4-0.3,0.8-0.8,0.8s-0.8-0.3-0.8-0.8
	V7.5c0-0.4,0.3-0.8,0.8-0.8s0.8,0.3,0.8,0.8V13.2z M8,5.7c-0.5,0-0.9-0.4-0.9-0.9S7.5,4,8,4s0.9,0.4,0.9,0.9S8.5,5.7,8,5.7z"/>
</svg>
