<svg width="25" height="25" viewBox="0 0 25 25" fill="none" xmlns="http://www.w3.org/2000/svg">
<path fill-rule="evenodd" clip-rule="evenodd" d="M16.4439 4.67023C14.13 4.60356 12.2002 6.42531 12.1335 8.73922C12.1215 9.15416 12.1703 9.55674 12.2718 9.93845L11.3881 10.7937L8.76095 8.16658L9.04935 7.87818C9.45761 7.46992 9.4103 6.79489 8.94909 6.44756L7.33308 5.23056C6.95486 4.94573 6.42463 4.98288 6.08983 5.31768L4.89454 6.51297C4.57021 6.83731 4.52393 7.34706 4.78454 7.72451L5.94169 9.40037C6.27873 9.8885 6.97574 9.95179 7.39519 9.53234L7.70029 9.22724L10.3101 11.837L4.47426 17.4853C3.56116 18.369 3.53736 19.8256 4.42111 20.7387C5.30485 21.6518 6.76147 21.6756 7.67457 20.7919L13.5646 15.0912L13.7004 15.227L13.2907 15.6367C13.0248 15.9027 12.9918 16.3226 13.2132 16.6268L15.7228 20.0756C16.7124 21.4354 18.6826 21.5897 19.8718 20.4005C21.0452 19.227 20.913 17.2877 19.591 16.2844L16.1721 13.6897C15.8677 13.4587 15.4395 13.4879 15.1693 13.7581L14.7611 14.1663L14.6426 14.0478L15.7173 13.0077C15.8762 13.0307 16.0381 13.0449 16.2025 13.0496C18.5164 13.1163 20.4462 11.2945 20.5129 8.98064C20.5258 8.53445 20.4682 8.10114 20.3497 7.6922C20.2987 7.51626 20.2364 7.34501 20.1638 7.17933C19.9 6.57719 19.1413 6.49601 18.7263 6.91726L16.8175 8.85484L16.3149 8.33579L18.2401 6.44745C18.6647 6.03105 18.5813 5.26633 17.9727 5.00571C17.7677 4.91792 17.5541 4.84594 17.3336 4.79135C17.0471 4.72046 16.7494 4.67903 16.4439 4.67023ZM13.6329 8.78242C13.6755 7.30291 14.9044 6.13675 16.3818 6.16913L14.8304 7.69082C14.4819 8.0326 14.4747 8.59157 14.8142 8.94222L16.1759 10.3486C16.5227 10.7067 17.0963 10.7092 17.4462 10.3541L19.013 8.76359C19.015 8.82106 19.0152 8.87903 19.0135 8.93744C18.9707 10.4233 17.7315 11.5931 16.2457 11.5502C14.7599 11.5074 13.5901 10.2682 13.6329 8.78242ZM15.28 15.7688C15.2839 15.765 15.2877 15.7613 15.2916 15.7574C15.2954 15.7536 15.2992 15.7497 15.3029 15.7458L15.7763 15.2724L18.6842 17.4793C19.2817 17.9328 19.3415 18.8094 18.8111 19.3399C18.2736 19.8774 17.383 19.8076 16.9357 19.193L14.7961 16.2527L15.28 15.7688ZM5.51745 18.5631L12.9176 11.4009L14.0315 12.5518L6.63138 19.714C6.31356 20.0216 5.80655 20.0133 5.49895 19.6955C5.19135 19.3777 5.19963 18.8707 5.51745 18.5631ZM6.27937 7.24947L6.80111 8.0051L7.54116 7.26505L6.81252 6.71631L6.27937 7.24947Z" fill="black"/>
</svg>
