<svg width="25" height="25" viewBox="0 0 25 25" fill="none" xmlns="http://www.w3.org/2000/svg">
<path fill-rule="evenodd" clip-rule="evenodd" d="M12.6995 5.23633C10.9045 5.23633 9.44946 6.6914 9.44946 8.48633C9.44946 10.2813 10.9045 11.7363 12.6995 11.7363C14.4944 11.7363 15.9495 10.2813 15.9495 8.48633C15.9495 6.6914 14.4944 5.23633 12.6995 5.23633ZM7.94946 8.48633C7.94946 5.86298 10.0761 3.73633 12.6995 3.73633C15.3228 3.73633 17.4495 5.86298 17.4495 8.48633C17.4495 11.1097 15.3228 13.2363 12.6995 13.2363C10.0761 13.2363 7.94946 11.1097 7.94946 8.48633Z" fill="black"/>
<path fill-rule="evenodd" clip-rule="evenodd" d="M7.34671 17.1531C6.00634 17.7477 5.44946 18.4967 5.44946 19.2674V19.7363H19.9495V19.2674C19.9495 18.5302 19.3366 17.7702 17.9043 17.157C16.5221 16.5653 14.6285 16.2363 12.6995 16.2363C10.5528 16.2363 8.66636 16.5678 7.34671 17.1531ZM6.73851 15.782C8.31429 15.083 10.4279 14.7363 12.6995 14.7363C14.7704 14.7363 16.8769 15.0855 18.4946 15.7781C20.0623 16.4492 21.4495 17.5797 21.4495 19.2674V20.4863C21.4495 20.9005 21.1137 21.2363 20.6995 21.2363H4.69946C4.28525 21.2363 3.94946 20.9005 3.94946 20.4863V19.2674C3.94946 17.6132 5.18345 16.4717 6.73851 15.782Z" fill="black"/>
</svg>
