<?xml version="1.0" encoding="utf-8"?>
<!-- Generator: Adobe Illustrator 27.1.1, SVG Export Plug-In . SVG Version: 6.00 Build 0)  -->
<svg version="1.1" id="Layer_1" xmlns="http://www.w3.org/2000/svg" xmlns:xlink="http://www.w3.org/1999/xlink" x="0px" y="0px"
	 viewBox="0 0 25 24" style="enable-background:new 0 0 25 24;" xml:space="preserve">
<style type="text/css">
	.st0{fill-rule:evenodd;clip-rule:evenodd;}
</style>
<path d="M17.2,14.6c0.4,0,0.7-0.3,0.7-0.7s-0.3-0.7-0.7-0.7s-0.7,0.3-0.7,0.7S16.8,14.6,17.2,14.6z"/>
<path class="st0" d="M21,11h-0.3V8.2c0-0.7-0.6-1.2-1.2-1.2h-0.4l-0.5-1.5c-0.2-0.6-0.9-1-1.5-0.8l-1,0.3l-0.9-1.4
	c-0.4-0.6-1.1-0.7-1.7-0.4L6.8,7H5C4.3,7,3.7,7.5,3.7,8.2v10.5C3.7,19.4,4.3,20,5,20h14.5c0.7,0,1.2-0.6,1.2-1.2v-2.2H21
	c0.7,0,1.2-0.6,1.2-1.2v-3C22.2,11.5,21.7,11,21,11z M17.2,6.1L17.5,7h-3.7L17.2,6.1z M14,4.5l0.5,0.8l-3.2,0.8L14,4.5z M19.2,18.5
	h-14v-10h14V11H16c-0.7,0-1.2,0.6-1.2,1.2v3c0,0.7,0.6,1.2,1.2,1.2h3.2V18.5z M20.7,15h-4.5v-2.5h4.5V15z"/>
</svg>
