<?xml version="1.0" encoding="utf-8"?>
<!-- Generator: Adobe Illustrator 27.1.1, SVG Export Plug-In . SVG Version: 6.00 Build 0)  -->
<svg version="1.1" id="Layer_1" xmlns="http://www.w3.org/2000/svg" xmlns:xlink="http://www.w3.org/1999/xlink" x="0px" y="0px"
	 viewBox="0 0 24 24" style="enable-background:new 0 0 24 24;" xml:space="preserve">
<path d="M19,19.8c-0.2,0-0.4-0.1-0.5-0.2L12,13.1l-6.5,6.5c-0.3,0.3-0.8,0.3-1.1,0s-0.3-0.8,0-1.1l6.5-6.5L4.5,5.5
	c-0.3-0.3-0.3-0.8,0-1.1s0.8-0.3,1.1,0l6.5,6.5l6.5-6.5c0.3-0.3,0.8-0.3,1.1,0s0.3,0.8,0,1.1L13.1,12l6.5,6.5c0.3,0.3,0.3,0.8,0,1.1
	C19.4,19.7,19.2,19.8,19,19.8z"/>
</svg>
