<svg width="24" height="25" viewBox="0 0 24 25" fill="none" xmlns="http://www.w3.org/2000/svg">
<path d="M3.61823 12.8903C3.27625 12.5488 2.72223 12.5493 2.38079 12.8912C2.03935 13.2332 2.03979 13.7872 2.38177 14.1287L3.61823 12.8903ZM9 19.5L8.38177 20.1192C8.5502 20.2874 8.77987 20.3797 9.01783 20.3748C9.2558 20.37 9.48151 20.2684 9.64295 20.0935L9 19.5ZM21.643 7.0935C21.9707 6.7384 21.9486 6.18483 21.5935 5.85705C21.2384 5.52927 20.6848 5.55141 20.357 5.9065L21.643 7.0935ZM2.38177 14.1287L8.38177 20.1192L9.61823 18.8808L3.61823 12.8903L2.38177 14.1287ZM9.64295 20.0935L21.643 7.0935L20.357 5.9065L8.35705 18.9065L9.64295 20.0935Z" fill="black"/>
</svg>
