<svg width="24" height="24" viewBox="0 0 24 24" fill="none" xmlns="http://www.w3.org/2000/svg">
<path d="M5.2759 16.1564C4.98271 16.449 4.50784 16.4485 4.21524 16.1553C3.92264 15.8621 3.92311 15.3873 4.21629 15.0947L5.2759 16.1564ZM19.8014 15.0953C20.0944 15.3881 20.0947 15.8629 19.8019 16.156C19.5092 16.449 19.0343 16.4493 18.7413 16.1565L19.8014 15.0953ZM12.0048 8.38117L11.475 7.85031L12.0048 8.38117ZM12.0189 8.38117L12.549 7.85056L12.0189 8.38117ZM4.21629 15.0947L11.475 7.85031L12.5346 8.91202L5.2759 16.1564L4.21629 15.0947ZM12.549 7.85056L19.8014 15.0953L18.7413 16.1565L11.4889 8.91178L12.549 7.85056ZM11.475 7.85031C11.7718 7.55413 12.2524 7.55424 12.549 7.85056L11.4889 8.91178C11.7777 9.20031 12.2457 9.20042 12.5346 8.91202L11.475 7.85031Z" fill="black"/>
</svg>
