<svg width="24" height="24" viewBox="0 0 24 24" fill="none" xmlns="http://www.w3.org/2000/svg">
<path d="M5.2759 8.48944C4.98271 8.19684 4.50784 8.19731 4.21524 8.4905C3.92264 8.78368 3.92311 9.25855 4.21629 9.55116L5.2759 8.48944ZM19.8014 9.55049C20.0944 9.25775 20.0947 8.78288 19.8019 8.48983C19.5092 8.19678 19.0343 8.19653 18.7413 8.48927L19.8014 9.55049ZM12.0048 16.2646L11.475 16.7955L12.0048 16.2646ZM12.0189 16.2646L12.549 16.7952L12.0189 16.2646ZM4.21629 9.55116L11.475 16.7955L12.5346 15.7338L5.2759 8.48944L4.21629 9.55116ZM12.549 16.7952L19.8014 9.55049L18.7413 8.48927L11.4889 15.734L12.549 16.7952ZM11.475 16.7955C11.7718 17.0917 12.2524 17.0916 12.549 16.7952L11.4889 15.734C11.7777 15.4455 12.2457 15.4454 12.5346 15.7338L11.475 16.7955Z" fill="black"/>
</svg>
