<svg width="25" height="24" viewBox="0 0 25 24" fill="none" xmlns="http://www.w3.org/2000/svg">
<path d="M8.51667 5.62937C8.16906 5.29367 8.15941 4.73973 8.49512 4.39212C8.83082 4.04451 9.38476 4.03486 9.73237 4.37057L8.51667 5.62937ZM9.73165 19.6297C9.38389 19.9652 8.82996 19.9553 8.49441 19.6075C8.15887 19.2598 8.16878 18.7058 8.51655 18.3703L9.73165 19.6297ZM16.3685 11.9958L16.9763 11.3664L16.3685 11.9958ZM16.3685 12.0102L15.7609 11.3805L16.3685 12.0102ZM9.73237 4.37057L16.9763 11.3664L15.7606 12.6252L8.51667 5.62937L9.73237 4.37057ZM16.976 12.6399L9.73165 19.6297L8.51655 18.3703L15.7609 11.3805L16.976 12.6399ZM16.9763 11.3664C17.3367 11.7145 17.3366 12.292 16.976 12.6399L15.7609 11.3805C15.4085 11.7206 15.4084 12.2851 15.7606 12.6252L16.9763 11.3664Z" fill="black"/>
</svg>
