<svg width="25" height="24" viewBox="0 0 25 24" fill="none" xmlns="http://www.w3.org/2000/svg">
<path d="M16.9058 18.7197C17.1987 19.0127 17.1986 19.4875 16.9057 19.7804C16.6128 20.0733 16.1379 20.0732 15.8451 19.7803L16.9058 18.7197ZM15.8457 4.21949C16.1387 3.92669 16.6136 3.92686 16.9064 4.21985C17.1992 4.51285 17.199 4.98772 16.906 5.28051L15.8457 4.21949ZM9.13113 12.0039L8.60073 12.5342L9.13113 12.0039ZM9.13113 11.9898L9.66128 12.5203L9.13113 11.9898ZM15.8451 19.7803L8.60073 12.5342L9.66152 11.4736L16.9058 18.7197L15.8451 19.7803ZM8.60098 11.4592L15.8457 4.21949L16.906 5.28051L9.66128 12.5203L8.60098 11.4592ZM8.60073 12.5342C8.3039 12.2373 8.30406 11.756 8.60098 11.4592L9.66128 12.5203C9.95038 12.2314 9.95054 11.7627 9.66152 11.4736L8.60073 12.5342Z" fill="black"/>
</svg>
