<svg width="24" height="24" viewBox="0 0 24 24" fill="none" xmlns="http://www.w3.org/2000/svg">
<path d="M5.63339 8.41254C5.29774 8.06488 4.7438 8.05516 4.39615 8.39081C4.04849 8.72647 4.03876 9.2804 4.37442 9.62806L5.63339 8.41254ZM19.6298 9.62735C19.9653 9.27954 19.9553 8.72561 19.6075 8.39011C19.2597 8.05462 18.7057 8.0646 18.3702 8.41242L19.6298 9.62735ZM11.9978 16.2642L12.6273 15.6565L11.9978 16.2642ZM12.0122 16.2642L12.642 16.8717L12.0122 16.2642ZM4.37442 9.62806L11.3683 16.872L12.6273 15.6565L5.63339 8.41254L4.37442 9.62806ZM12.642 16.8717L19.6298 9.62735L18.3702 8.41242L11.3824 15.6568L12.642 16.8717ZM11.3683 16.872C11.7164 17.2325 12.2941 17.2324 12.642 16.8717L11.3824 15.6568C11.7225 15.3042 12.2871 15.3041 12.6273 15.6565L11.3683 16.872Z" fill="black"/>
</svg>
