<svg width="25" height="24" viewBox="0 0 25 24" fill="none" xmlns="http://www.w3.org/2000/svg">
<path d="M8.59362 18.7328C8.30101 19.026 8.30148 19.5009 8.59467 19.7935C8.88785 20.0861 9.36273 20.0856 9.65533 19.7924L8.59362 18.7328ZM9.65466 4.20737C9.36192 3.91432 8.88705 3.91407 8.594 4.20681C8.30095 4.49955 8.30071 4.97443 8.59345 5.26747L9.65466 4.20737ZM16.3688 12.0039L16.8997 12.5337L16.3688 12.0039ZM16.3688 11.9898L16.8994 11.4597L16.3688 11.9898ZM9.65533 19.7924L16.8997 12.5337L15.838 11.4741L8.59362 18.7328L9.65533 19.7924ZM16.8994 11.4597L9.65466 4.20737L8.59345 5.26747L15.8382 12.5198L16.8994 11.4597ZM16.8997 12.5337C17.1959 12.2369 17.1957 11.7564 16.8994 11.4597L15.8382 12.5198C15.5497 12.231 15.5496 11.7631 15.838 11.4741L16.8997 12.5337Z" fill="black"/>
</svg>
