<svg width="25" height="24" viewBox="0 0 25 24" fill="none" xmlns="http://www.w3.org/2000/svg">
<path d="M12.1456 2.25342C12.6288 2.25342 13.0206 2.64517 13.0206 3.12842V4.33875C13.4014 4.41063 13.767 4.53094 14.1192 4.70483C14.7809 5.03145 15.3489 5.52386 15.8685 6.14741C16.1779 6.51865 16.1277 7.0704 15.7565 7.37976C15.3852 7.68913 14.8335 7.63897 14.5241 7.26773C14.1147 6.7764 13.7304 6.46449 13.3446 6.27406C12.9649 6.08663 12.5374 5.99391 12.0045 6.00781C11.2971 6.02626 10.5745 6.30758 10.0431 6.75817C9.51636 7.20479 9.22848 7.76789 9.2412 8.35852C9.25279 8.89656 9.38031 9.20142 9.60196 9.45602C9.85945 9.75178 10.3068 10.0524 11.1182 10.4354L12.0861 10.8776L12.3447 10.9925C12.7052 11.1527 13.0739 11.318 13.4362 11.4943L13.5658 11.5535C13.6033 11.5707 13.639 11.5901 13.6729 11.6116C14.2561 11.9065 14.8144 12.2339 15.2856 12.6195C16.1535 13.3298 16.7807 14.2826 16.7807 15.6108C16.7807 16.8948 16.2165 17.9484 15.2928 18.6583C14.657 19.147 13.8739 19.4577 13.0206 19.5986V20.8714C13.0206 21.3547 12.6288 21.7464 12.1456 21.7464C11.6623 21.7464 11.2706 21.3547 11.2706 20.8714V19.6479C9.54673 19.4349 8.361 18.3803 7.5307 17.2224C7.24908 16.8297 7.33914 16.2831 7.73185 16.0015C8.12457 15.7198 8.67122 15.8099 8.95283 16.2026C9.69855 17.2425 10.6098 17.9369 11.9158 17.9369C12.904 17.9369 13.6997 17.6757 14.2264 17.2708C14.7317 16.8824 15.0307 16.3355 15.0307 15.6108C15.0307 14.9305 14.7449 14.4384 14.1772 13.9738C13.779 13.6478 13.272 13.3608 12.6723 13.0693L11.3671 12.4731L10.8344 12.2363L10.8368 12.2309L10.3764 12.0205C9.51801 11.6156 8.79002 11.1885 8.28208 10.6051C7.7378 9.97994 7.51007 9.25345 7.49161 8.39621C7.46514 7.16754 8.07534 6.13225 8.91127 5.42342C9.57017 4.86472 10.4008 4.47797 11.2706 4.32717V3.12842C11.2706 2.64517 11.6623 2.25342 12.1456 2.25342Z" fill="black"/>
</svg>
