<svg width="25" height="24" viewBox="0 0 25 24" fill="none" xmlns="http://www.w3.org/2000/svg">
<path d="M12.0737 3.125C12.557 3.125 12.9487 3.51675 12.9487 4L12.9487 14.8891L16.4549 11.3814C16.7965 11.0396 17.3505 11.0395 17.6923 11.3811C18.0341 11.7228 18.0342 12.2768 17.6926 12.6186L12.7019 17.6115C12.3563 17.9572 11.796 17.9573 11.4503 17.6118L6.45515 12.6189C6.11336 12.2772 6.11324 11.7232 6.45487 11.3814C6.79651 11.0396 7.35053 11.0395 7.69231 11.3811L11.1987 14.886L11.1987 4C11.1987 3.51675 11.5905 3.125 12.0737 3.125Z" fill="black"/>
<path d="M20.9487 15C20.9487 14.5168 20.557 14.125 20.0737 14.125C19.5905 14.125 19.1987 14.5168 19.1987 15V19C19.1987 19.069 19.1428 19.125 19.0737 19.125H5.07373C5.00469 19.125 4.94873 19.069 4.94873 19V15.0747C4.94873 14.5914 4.55698 14.1997 4.07373 14.1997C3.59048 14.1997 3.19873 14.5914 3.19873 15.0747V19C3.19873 20.0355 4.0382 20.875 5.07373 20.875H19.0737C20.1093 20.875 20.9487 20.0355 20.9487 19V15Z" fill="black"/>
</svg>
