<svg width="24" height="25" viewBox="0 0 24 25" fill="none" xmlns="http://www.w3.org/2000/svg">
<path d="M11.125 20.75C11.125 21.2332 11.5168 21.625 12 21.625C12.4832 21.625 12.875 21.2332 12.875 20.75V13.625H20C20.4832 13.625 20.875 13.2332 20.875 12.75C20.875 12.2668 20.4832 11.875 20 11.875H12.875V4.75C12.875 4.26675 12.4832 3.875 12 3.875C11.5168 3.875 11.125 4.26675 11.125 4.75V11.875H4C3.51675 11.875 3.125 12.2668 3.125 12.75C3.125 13.2332 3.51675 13.625 4 13.625H11.125V20.75Z" fill="black"/>
</svg>
