<svg width="25" height="24" viewBox="0 0 25 24" fill="none" xmlns="http://www.w3.org/2000/svg">
<path d="M13.0597 3.99998C13.0597 3.51673 13.4514 3.12498 13.9347 3.12498L20.1503 3.12503C20.639 3.12503 21.0353 3.52123 21.0353 4.01002L21.0353 10.0524C21.0353 10.5357 20.6436 10.9274 20.1603 10.9274C19.6771 10.9275 19.2853 10.5357 19.2853 10.0525L19.2853 5.69148L8.12958 16.847C7.78787 17.1887 7.23385 17.1887 6.89215 16.847C6.55044 16.5053 6.55045 15.9512 6.89217 15.6095L17.6269 4.87501L13.9347 4.87498C13.4514 4.87498 13.0597 4.48323 13.0597 3.99998Z" fill="black"/>
<path d="M5.07373 4.875C5.00469 4.875 4.94873 4.93096 4.94873 5V19C4.94873 19.069 5.00469 19.125 5.07373 19.125H19.0737C19.1428 19.125 19.1987 19.069 19.1987 19V13.769C19.1987 13.2857 19.5905 12.894 20.0737 12.894C20.557 12.894 20.9487 13.2857 20.9487 13.769V19C20.9487 20.0355 20.1093 20.875 19.0737 20.875H5.07373C4.0382 20.875 3.19873 20.0355 3.19873 19V5C3.19873 3.96446 4.0382 3.125 5.07373 3.125H10.2848C10.7681 3.125 11.1598 3.51675 11.1598 4C11.1598 4.48325 10.7681 4.875 10.2848 4.875H5.07373Z" fill="black"/>
</svg>
