<svg width="25" height="24" viewBox="0 0 25 24" fill="none" xmlns="http://www.w3.org/2000/svg">
<path d="M5.07373 4.75C4.93566 4.75 4.82373 4.86193 4.82373 5V19C4.82373 19.1381 4.93566 19.25 5.07373 19.25H19.0737C19.2118 19.25 19.3237 19.1381 19.3237 19V13.769C19.3237 13.3547 19.6595 13.019 20.0737 13.019C20.4879 13.019 20.8237 13.3547 20.8237 13.769V19C20.8237 19.9665 20.0402 20.75 19.0737 20.75H5.07373C4.10723 20.75 3.32373 19.9665 3.32373 19V5C3.32373 4.0335 4.10723 3.25 5.07373 3.25H10.2848C10.6991 3.25 11.0348 3.58579 11.0348 4C11.0348 4.41421 10.6991 4.75 10.2848 4.75H5.07373Z" fill="black"/>
<path d="M13.1847 4C13.1847 3.58579 13.5205 3.25 13.9347 3.25001L20.1503 3.25005C20.57 3.25005 20.9103 3.59029 20.9103 4.01004L20.9103 10.0525C20.9103 10.4667 20.5745 10.8025 20.1603 10.8025C19.7461 10.8025 19.4103 10.4667 19.4103 10.0525L19.4103 5.3892L8.04069 16.7586C7.74779 17.0515 7.27292 17.0515 6.98003 16.7586C6.68714 16.4657 6.68715 15.9908 6.98005 15.6979L17.9281 4.75003L13.9347 4.75001C13.5205 4.75 13.1847 4.41421 13.1847 4Z" fill="black"/>
</svg>
