<svg width="25" height="24" viewBox="0 0 25 24" fill="none" xmlns="http://www.w3.org/2000/svg">
<path d="M19.8232 8.5C21.0659 8.5 22.0732 7.49264 22.0732 6.25C22.0732 5.00736 21.0659 4 19.8232 4C18.8436 4 18.0101 4.62611 17.7013 5.5H3.07373C2.65952 5.5 2.32373 5.83579 2.32373 6.25C2.32373 6.66421 2.65952 7 3.07373 7L17.7013 7C18.0101 7.8739 18.8436 8.5 19.8232 8.5Z" fill="black"/>
<path d="M14.1957 11.25L21.0737 11.25C21.4879 11.25 21.8237 11.5858 21.8237 12C21.8237 12.4142 21.4879 12.75 21.0737 12.75L14.1957 12.75C13.8868 13.6239 13.0534 14.25 12.0737 14.25C11.0941 14.25 10.2606 13.6239 9.95176 12.75H3.07373C2.65952 12.75 2.32373 12.4142 2.32373 12C2.32373 11.5858 2.65952 11.25 3.07373 11.25L9.95176 11.25C10.2606 10.3761 11.0941 9.75 12.0737 9.75C13.0534 9.75 13.8868 10.3761 14.1957 11.25Z" fill="black"/>
<path d="M4.32373 20C5.30339 20 6.13682 19.3739 6.4457 18.5L21.0737 18.5C21.4879 18.5 21.8237 18.1642 21.8237 17.75C21.8237 17.3358 21.4879 17 21.0737 17L6.4457 17C6.13682 16.1261 5.30339 15.5 4.32373 15.5C3.08109 15.5 2.07373 16.5074 2.07373 17.75C2.07373 18.9926 3.08109 20 4.32373 20Z" fill="black"/>
</svg>
