<svg width="24" height="24" viewBox="0 0 24 24" fill="none" xmlns="http://www.w3.org/2000/svg">
<path fill-rule="evenodd" clip-rule="evenodd" d="M6.60553 6.63093C6.23793 6.89348 5.89495 7.17125 5.57694 7.45484C4.01984 8.8434 3.01399 10.4115 2.58126 11.1611C2.29698 11.6536 2.29249 12.2539 2.56869 12.7505C2.99314 13.5136 3.98763 15.1205 5.54209 16.5449C7.09899 17.9716 9.26686 19.2579 12.014 19.2579C14.1758 19.2579 15.974 18.4604 17.3973 17.4228L14.8117 14.8372C14.0899 15.5526 13.0965 15.9944 11.9999 15.9944C9.79378 15.9944 8.00537 14.206 8.00537 11.9999C8.00537 10.9033 8.44725 9.90992 9.16266 9.18808L6.60553 6.63093ZM10.2233 10.2488C9.77936 10.6991 9.50537 11.3175 9.50537 11.9999C9.50537 13.3776 10.6222 14.4944 11.9999 14.4944C12.6823 14.4944 13.3007 14.2204 13.751 13.7765L10.2233 10.2488ZM14.467 12.3711L11.6287 9.5328C11.7498 9.51473 11.8738 9.50537 11.9999 9.50537C13.3776 9.50537 14.4944 10.6222 14.4944 11.9999C14.4944 12.1261 14.4851 12.25 14.467 12.3711ZM15.6716 13.5757C15.8794 13.0922 15.9944 12.5595 15.9944 11.9999C15.9944 9.79378 14.206 8.00537 11.9999 8.00537C11.4403 8.00537 10.9076 8.12044 10.4241 8.32821L7.9212 5.82529C9.09931 5.21903 10.4662 4.81324 12.0139 4.81323C14.7444 4.81322 16.9025 6.05589 18.4562 7.43996C20.0069 8.82129 21 10.3807 21.4255 11.1246C21.7037 11.6108 21.7103 12.2014 21.442 12.694C21.0317 13.4471 20.0689 15.0354 18.5552 16.4594L15.6716 13.5757Z" fill="black"/>
<path fill-rule="evenodd" clip-rule="evenodd" d="M3.26654 4.35249C3.55943 4.05959 4.0343 4.05959 4.3272 4.35248L19.6464 19.6713C19.9393 19.9642 19.9393 20.4391 19.6464 20.732C19.3535 21.0249 18.8786 21.0249 18.5857 20.732L3.26655 5.41315C2.97365 5.12026 2.97365 4.64538 3.26654 4.35249Z" fill="black"/>
</svg>
