<svg width="25" height="25" viewBox="0 0 25 25" fill="none" xmlns="http://www.w3.org/2000/svg">
<path fill-rule="evenodd" clip-rule="evenodd" d="M5.07373 3.625C4.0382 3.625 3.19873 4.46447 3.19873 5.5V19.5C3.19873 20.5355 4.0382 21.375 5.07373 21.375H19.0737C20.1093 21.375 20.9487 20.5355 20.9487 19.5V5.5C20.9487 4.46447 20.1093 3.625 19.0737 3.625H5.07373ZM4.94873 5.5C4.94873 5.43096 5.00469 5.375 5.07373 5.375H19.0737C19.1428 5.375 19.1987 5.43096 19.1987 5.5V12.8031H15.3717C14.8885 12.8032 14.4967 13.1949 14.4967 13.6781C14.4967 15.0162 13.4119 16.101 12.0738 16.101C10.7357 16.101 9.65088 15.0162 9.65088 13.6781C9.65088 13.1949 9.25913 12.8031 8.77588 12.8031H4.94873V5.5Z" fill="black"/>
</svg>
