<svg width="25" height="24" viewBox="0 0 25 24" fill="none" xmlns="http://www.w3.org/2000/svg">
<path d="M3.92432 5C3.92432 4.0335 4.70782 3.25 5.67432 3.25H13.6743C14.6408 3.25 15.4243 4.0335 15.4243 5V7.6C15.4243 8.01421 15.0885 8.35 14.6743 8.35C14.2601 8.35 13.9243 8.01421 13.9243 7.6V5C13.9243 4.86193 13.8124 4.75 13.6743 4.75H5.67432C5.53625 4.75 5.42432 4.86193 5.42432 5V19C5.42432 19.1381 5.53625 19.25 5.67432 19.25H13.6743C13.8124 19.25 13.9243 19.1381 13.9243 19V16.8C13.9243 16.3858 14.2601 16.05 14.6743 16.05C15.0885 16.05 15.4243 16.3858 15.4243 16.8V19C15.4243 19.9665 14.6408 20.75 13.6743 20.75H5.67432C4.70782 20.75 3.92432 19.9665 3.92432 19V5Z" fill="black"/>
<path d="M17.1441 15.5304C16.8511 15.2376 16.851 14.7627 17.1439 14.4698L18.863 12.75H8.67432C8.2601 12.75 7.92432 12.4142 7.92432 12C7.92432 11.5858 8.2601 11.25 8.67432 11.25H18.8643L17.1441 9.53043C16.8511 9.2376 16.851 8.76272 17.1439 8.46977C17.4367 8.17682 17.9116 8.17673 18.2045 8.46957L21.1975 11.4613C21.4943 11.7581 21.4944 12.2393 21.1977 12.5361L18.2048 15.5302C17.9119 15.8232 17.437 15.8233 17.1441 15.5304Z" fill="black"/>
</svg>
