<svg width="25" height="24" viewBox="0 0 25 24" fill="none" xmlns="http://www.w3.org/2000/svg">
<path d="M12.0737 13C13.7306 13 15.0737 11.6569 15.0737 10C15.0737 8.34315 13.7306 7 12.0737 7C10.4169 7 9.07373 8.34315 9.07373 10C9.07373 11.6569 10.4169 13 12.0737 13Z" fill="black"/>
<path fill-rule="evenodd" clip-rule="evenodd" d="M12.0737 2.25C7.79221 2.25 4.32373 5.72692 4.32373 10.013C4.32373 10.9551 4.66052 11.9841 5.13188 12.9809C5.60923 13.9902 6.25678 15.0326 6.94796 16.0189C8.33071 17.9923 9.93245 19.8039 10.8269 20.7729C11.5027 21.505 12.6447 21.505 13.3206 20.7729C14.215 19.8039 15.8168 17.9923 17.1995 16.0189C17.8907 15.0326 18.5382 13.9902 19.0156 12.9809C19.4869 11.9841 19.8237 10.9551 19.8237 10.013C19.8237 5.72692 16.3552 2.25 12.0737 2.25ZM5.82373 10.013C5.82373 6.55272 8.62326 3.75 12.0737 3.75C15.5242 3.75 18.3237 6.55272 18.3237 10.013C18.3237 10.6295 18.0937 11.4215 17.6596 12.3396C17.2314 13.245 16.6347 14.2111 15.9711 15.1582C14.6442 17.0518 13.0938 18.8071 12.2184 19.7554C12.1365 19.8442 12.011 19.8442 11.9291 19.7554C11.0537 18.8071 9.5033 17.0518 8.17638 15.1582C7.51272 14.2111 6.91606 13.245 6.48789 12.3396C6.05374 11.4215 5.82373 10.6295 5.82373 10.013Z" fill="black"/>
</svg>
