<svg width="25" height="24" viewBox="0 0 25 24" fill="none" xmlns="http://www.w3.org/2000/svg">
<path d="M2.32373 5C2.32373 4.58579 2.65952 4.25 3.07373 4.25H21.0737C21.4879 4.25 21.8237 4.58579 21.8237 5C21.8237 5.41421 21.4879 5.75 21.0737 5.75H3.07373C2.65952 5.75 2.32373 5.41421 2.32373 5Z" fill="black"/>
<path d="M2.32373 12C2.32373 11.5858 2.65952 11.25 3.07373 11.25H21.0737C21.4879 11.25 21.8237 11.5858 21.8237 12C21.8237 12.4142 21.4879 12.75 21.0737 12.75H3.07373C2.65952 12.75 2.32373 12.4142 2.32373 12Z" fill="black"/>
<path d="M3.07373 18.25C2.65952 18.25 2.32373 18.5858 2.32373 19C2.32373 19.4142 2.65952 19.75 3.07373 19.75H21.0737C21.4879 19.75 21.8237 19.4142 21.8237 19C21.8237 18.5858 21.4879 18.25 21.0737 18.25H3.07373Z" fill="black"/>
</svg>
