<svg width="25" height="24" viewBox="0 0 25 24" fill="none" xmlns="http://www.w3.org/2000/svg">
<path fill-rule="evenodd" clip-rule="evenodd" d="M3.32373 7C3.32373 4.92893 5.00266 3.25 7.07373 3.25C9.1448 3.25 10.8237 4.92893 10.8237 7C10.8237 9.07107 9.1448 10.75 7.07373 10.75C5.00266 10.75 3.32373 9.07107 3.32373 7ZM7.07373 4.75C5.83109 4.75 4.82373 5.75736 4.82373 7C4.82373 8.24264 5.83109 9.25 7.07373 9.25C8.31637 9.25 9.32373 8.24264 9.32373 7C9.32373 5.75736 8.31637 4.75 7.07373 4.75Z" fill="black"/>
<path d="M20.6041 3.46967C20.897 3.76256 20.897 4.23744 20.6041 4.53033L4.60406 20.5303C4.31117 20.8232 3.83629 20.8232 3.5434 20.5303C3.25051 20.2374 3.25051 19.7626 3.5434 19.4697L19.5434 3.46967C19.8363 3.17678 20.3112 3.17678 20.6041 3.46967Z" fill="black"/>
<path fill-rule="evenodd" clip-rule="evenodd" d="M17.0737 13.25C15.0027 13.25 13.3237 14.9289 13.3237 17C13.3237 19.0711 15.0027 20.75 17.0737 20.75C19.1448 20.75 20.8237 19.0711 20.8237 17C20.8237 14.9289 19.1448 13.25 17.0737 13.25ZM14.8237 17C14.8237 15.7574 15.8311 14.75 17.0737 14.75C18.3164 14.75 19.3237 15.7574 19.3237 17C19.3237 18.2426 18.3164 19.25 17.0737 19.25C15.8311 19.25 14.8237 18.2426 14.8237 17Z" fill="black"/>
</svg>
