<svg width="25" height="24" viewBox="0 0 25 24" fill="none" xmlns="http://www.w3.org/2000/svg">
<path d="M12.9094 8.40958C12.0808 6.97413 10.2472 6.48373 8.81209 7.31128C7.37695 8.14011 6.88665 9.974 7.71403 11.4094C8.54268 12.8436 10.3762 13.3353 11.8113 12.5065C13.2465 11.6789 13.7381 9.84374 12.9094 8.4083V8.40958Z" fill="black"/>
<path fill-rule="evenodd" clip-rule="evenodd" d="M16.2379 6.5173C14.3263 3.2631 10.1481 2.15896 6.87521 4.0462C3.58602 5.94578 2.46253 10.1489 4.35808 13.4375C6.257 16.724 10.4595 17.8517 13.7484 15.9523C14.0186 15.7965 14.2741 15.6251 14.5146 15.4399L19.6934 20.6187C20.0351 20.9604 20.5891 20.9604 20.9309 20.6187C21.2726 20.277 21.2726 19.723 20.9309 19.3813L15.7531 14.2035C17.4064 12.0625 17.7013 9.04926 16.2647 6.56078C16.2562 6.54596 16.2472 6.53146 16.2379 6.5173ZM14.7719 7.47546C14.764 7.4633 14.7565 7.4509 14.7492 7.43826C13.3337 4.98636 10.202 4.14819 7.74966 5.56207C5.29861 6.97777 4.46044 10.1101 5.87397 12.5631C7.28977 15.013 10.4217 15.8527 12.8732 14.4369C15.311 13.0311 16.1559 9.92217 14.7719 7.47546Z" fill="black"/>
</svg>
