<svg width="25" height="24" viewBox="0 0 25 24" fill="none" xmlns="http://www.w3.org/2000/svg">
<path fill-rule="evenodd" clip-rule="evenodd" d="M6.93739 4.15453C10.1518 2.30102 14.2555 3.38631 16.1316 6.58349C16.1401 6.59644 16.1484 6.60972 16.1562 6.62332C17.5861 9.10027 17.2688 12.1067 15.586 14.2135L20.8422 19.4697C21.1351 19.7626 21.1351 20.2375 20.8422 20.5304C20.5493 20.8233 20.0744 20.8233 19.7815 20.5304L14.5244 15.2733C14.2632 15.4813 13.9833 15.6725 13.6852 15.8443C10.4561 17.7089 6.33083 16.6024 4.46651 13.3758C2.60536 10.1468 3.70804 6.01955 6.93739 4.15453ZM7.68712 5.45373C10.1991 4.00555 13.4072 4.86412 14.8571 7.37581C14.864 7.38766 14.8711 7.39928 14.8785 7.41064L7.68712 5.45373ZM12.9359 14.5449C15.4344 13.1042 16.299 9.91745 14.8785 7.41064L7.68712 5.45373C5.17611 6.90401 4.31742 10.1131 5.76553 12.6258C7.21587 15.1354 10.4246 15.9952 12.9359 14.5449Z" fill="black"/>
</svg>
