<svg width="25" height="24" viewBox="0 0 25 24" fill="none" xmlns="http://www.w3.org/2000/svg">
<path d="M18.2048 9.53022C17.9119 9.82318 17.4371 9.82328 17.1441 9.53046L13.4243 5.81233L13.4243 17C13.4243 17.4142 13.0885 17.75 12.6743 17.75C12.2601 17.75 11.9243 17.4142 11.9243 17L11.9243 5.80901L8.20476 9.53022C7.91194 9.82318 7.43706 9.82329 7.1441 9.53046C6.85115 9.23763 6.85104 8.76276 7.14387 8.4698L12.1346 3.47687C12.4313 3.17998 12.9125 3.17992 13.2094 3.47663L18.2045 8.46956C18.4975 8.76239 18.4976 9.23726 18.2048 9.53022Z" fill="black"/>
<path d="M21.4243 15C21.4243 14.5858 21.0885 14.25 20.6743 14.25C20.2601 14.25 19.9243 14.5858 19.9243 15V19C19.9243 19.1381 19.8124 19.25 19.6743 19.25H5.67432C5.53624 19.25 5.42432 19.1381 5.42432 19V15.0747C5.42432 14.6605 5.08853 14.3247 4.67432 14.3247C4.2601 14.3247 3.92432 14.6605 3.92432 15.0747V19C3.92432 19.9665 4.70782 20.75 5.67432 20.75H19.6743C20.6408 20.75 21.4243 19.9665 21.4243 19V15Z" fill="black"/>
</svg>
