<svg width="25" height="24" viewBox="0 0 25 24" fill="none" xmlns="http://www.w3.org/2000/svg">
<path fill-rule="evenodd" clip-rule="evenodd" d="M12.0737 4.75C10.2788 4.75 8.82373 6.20507 8.82373 8C8.82373 9.79493 10.2788 11.25 12.0737 11.25C13.8687 11.25 15.3237 9.79493 15.3237 8C15.3237 6.20507 13.8687 4.75 12.0737 4.75ZM7.32373 8C7.32373 5.37665 9.45038 3.25 12.0737 3.25C14.6971 3.25 16.8237 5.37665 16.8237 8C16.8237 10.6234 14.6971 12.75 12.0737 12.75C9.45038 12.75 7.32373 10.6234 7.32373 8Z" fill="black"/>
<path fill-rule="evenodd" clip-rule="evenodd" d="M6.72098 16.6668C5.3806 17.2613 4.82373 18.0103 4.82373 18.781V19.25H19.3237V18.781C19.3237 18.0439 18.7109 17.2839 17.2786 16.6707C15.8963 16.0789 14.0028 15.75 12.0737 15.75C9.92703 15.75 8.04063 16.0814 6.72098 16.6668ZM6.11278 15.2956C7.68856 14.5967 9.80215 14.25 12.0737 14.25C14.1447 14.25 16.2511 14.5992 17.8689 15.2917C19.4366 15.9629 20.8237 17.0934 20.8237 18.781V20C20.8237 20.4142 20.4879 20.75 20.0737 20.75H4.07373C3.65952 20.75 3.32373 20.4142 3.32373 20V18.781C3.32373 17.1269 4.55772 15.9854 6.11278 15.2956Z" fill="black"/>
</svg>
