<svg width="25" height="24" viewBox="0 0 25 24" fill="none" xmlns="http://www.w3.org/2000/svg">
<path d="M12.0737 3.25C9.45038 3.25 7.32373 5.37665 7.32373 8C7.32373 10.6234 9.45038 12.75 12.0737 12.75C14.6971 12.75 16.8237 10.6234 16.8237 8C16.8237 5.37665 14.6971 3.25 12.0737 3.25Z" fill="black"/>
<path d="M12.0737 14.25C9.80215 14.25 7.68856 14.5967 6.11278 15.2956C4.55772 15.9854 3.32373 17.1269 3.32373 18.781V20C3.32373 20.4142 3.65952 20.75 4.07373 20.75H20.0737C20.4879 20.75 20.8237 20.4142 20.8237 20V18.781C20.8237 17.0934 19.4366 15.9629 17.8689 15.2917C16.2511 14.5992 14.1447 14.25 12.0737 14.25Z" fill="black"/>
</svg>
