<svg width="25" height="24" viewBox="0 0 25 24" fill="none" xmlns="http://www.w3.org/2000/svg">
<path fill-rule="evenodd" clip-rule="evenodd" d="M12.6883 4.81323C9.97075 4.81324 7.81064 6.06424 6.25126 7.45484C4.69416 8.8434 3.68831 10.4115 3.25558 11.1611C2.97129 11.6536 2.96681 12.2539 3.24301 12.7505C3.66745 13.5136 4.66195 15.1205 6.2164 16.5449C7.7733 17.9716 9.94118 19.2579 12.6883 19.2579C15.4496 19.2579 17.6177 17.9568 19.1689 16.5161C20.7175 15.0777 21.7005 13.4571 22.1163 12.694C22.3847 12.2014 22.378 11.6108 22.0998 11.1246C21.6743 10.3807 20.6812 8.82129 19.1305 7.43996C17.5768 6.05589 15.4187 4.81322 12.6883 4.81323ZM10.1797 11.9999C10.1797 10.6222 11.2965 9.50537 12.6742 9.50537C14.0519 9.50537 15.1688 10.6222 15.1688 11.9999C15.1688 13.3776 14.0519 14.4944 12.6742 14.4944C11.2965 14.4944 10.1797 13.3776 10.1797 11.9999ZM12.6742 8.00537C10.4681 8.00537 8.67969 9.79378 8.67969 11.9999C8.67969 14.206 10.4681 15.9944 12.6742 15.9944C14.8803 15.9944 16.6688 14.206 16.6688 11.9999C16.6688 9.79378 14.8803 8.00537 12.6742 8.00537Z" fill="black"/>
</svg>
