<svg width="25" height="24" viewBox="0 0 25 24" fill="none" xmlns="http://www.w3.org/2000/svg">
<path fill-rule="evenodd" clip-rule="evenodd" d="M4.45501 4.38128C4.79672 4.03957 5.35074 4.03957 5.69245 4.38128L12.0737 10.7626L18.455 4.38128C18.7967 4.03957 19.3507 4.03957 19.6924 4.38128C20.0342 4.72299 20.0342 5.27701 19.6924 5.61872L13.3112 12L19.6924 18.3813C20.0342 18.723 20.0342 19.277 19.6924 19.6187C19.3507 19.9604 18.7967 19.9604 18.455 19.6187L12.0737 13.2374L5.69245 19.6187C5.35074 19.9604 4.79672 19.9604 4.45501 19.6187C4.1133 19.277 4.1133 18.723 4.45501 18.3813L10.8363 12L4.45501 5.61872C4.1133 5.27701 4.1133 4.72299 4.45501 4.38128Z" fill="black"/>
</svg>
