<svg width="25" height="24" viewBox="0 0 25 24" fill="none" xmlns="http://www.w3.org/2000/svg">
<path fill-rule="evenodd" clip-rule="evenodd" d="M4.5434 4.46967C4.83629 4.17678 5.31117 4.17678 5.60406 4.46967L12.0737 10.9393L18.5434 4.46967C18.8363 4.17678 19.3112 4.17678 19.6041 4.46967C19.897 4.76256 19.897 5.23744 19.6041 5.53033L13.1344 12L19.6041 18.4697C19.897 18.7626 19.897 19.2374 19.6041 19.5303C19.3112 19.8232 18.8363 19.8232 18.5434 19.5303L12.0737 13.0607L5.60406 19.5303C5.31117 19.8232 4.83629 19.8232 4.5434 19.5303C4.25051 19.2374 4.25051 18.7626 4.5434 18.4697L11.0131 12L4.5434 5.53033C4.25051 5.23744 4.25051 4.76256 4.5434 4.46967Z" fill="black"/>
</svg>
