<svg width="49" height="49" viewBox="0 0 49 49" fill="none" xmlns="http://www.w3.org/2000/svg">
<path fill-rule="evenodd" clip-rule="evenodd" d="M28.6303 37.8663C28.1423 38.3545 28.1424 39.146 28.6307 39.6341C29.1189 40.1221 29.9104 40.122 30.3985 39.6337L44.3261 25.7006C44.5944 25.4713 44.7644 25.1305 44.7644 24.75C44.7644 24.542 44.7136 24.3459 44.6237 24.1733C44.5651 24.058 44.4875 23.9498 44.391 23.8534L30.3981 9.86594C29.9099 9.37788 29.1184 9.37804 28.6303 9.86629C28.1423 10.3545 28.1424 11.146 28.6307 11.6341L40.5013 23.5H6.5144C5.82405 23.5 5.2644 24.0596 5.2644 24.75C5.2644 25.4404 5.82405 26 6.5144 26H40.492L28.6303 37.8663Z" fill="black"/>
</svg>
