<svg width="49" height="49" viewBox="0 0 49 49" fill="none" xmlns="http://www.w3.org/2000/svg">
<path fill-rule="evenodd" clip-rule="evenodd" d="M28.5419 37.7779C28.0051 38.315 28.0052 39.1856 28.5423 39.7225C29.0794 40.2593 29.95 40.2592 30.4869 39.7221L44.4112 25.7924C44.704 25.5402 44.8894 25.1668 44.8894 24.75C44.8894 24.5228 44.8343 24.3086 44.7368 24.1198C44.6721 23.9918 44.5863 23.8719 44.4794 23.765L30.4865 9.77754C29.9494 9.24067 29.0788 9.24084 28.5419 9.77792C28.0051 10.315 28.0052 11.1856 28.5423 11.7225L40.1994 23.375H6.5144C5.75501 23.375 5.1394 23.9906 5.1394 24.75C5.1394 25.5094 5.75501 26.125 6.5144 26.125H40.1903L28.5419 37.7779Z" fill="black"/>
</svg>
