<svg width="49" height="49" viewBox="0 0 49 49" fill="none" xmlns="http://www.w3.org/2000/svg">
<path d="M5.92162 26.2766C5.44671 25.7755 4.65554 25.7543 4.15449 26.2293C3.65345 26.7042 3.63227 27.4954 4.10718 27.9964L5.92162 26.2766ZM17.6811 40.5L16.7739 41.3599C17.016 41.6154 17.3546 41.7569 17.7065 41.7497C18.0583 41.7426 18.3909 41.5874 18.6225 41.3224L17.6811 40.5ZM43.9558 12.3224C44.41 11.8024 44.3567 11.0128 43.8368 10.5586C43.3169 10.1044 42.5272 10.1577 42.073 10.6776L43.9558 12.3224ZM4.10718 27.9964L16.7739 41.3599L18.5883 39.6401L5.92162 26.2766L4.10718 27.9964ZM18.6225 41.3224L43.9558 12.3224L42.073 10.6776L16.7397 39.6776L18.6225 41.3224Z" fill="black"/>
</svg>
