<svg width="49" height="49" viewBox="0 0 49 49" fill="none" xmlns="http://www.w3.org/2000/svg">
<path d="M6.01235 26.1906C5.48994 25.6394 4.61965 25.6161 4.0685 26.1385C3.51735 26.661 3.49405 27.5312 4.01646 28.0824L6.01235 26.1906ZM17.6811 40.5L16.6831 41.4459C16.9495 41.7269 17.3219 41.8826 17.709 41.8747C18.0961 41.8669 18.4619 41.6962 18.7166 41.4046L17.6811 40.5ZM44.0499 12.4046C44.5495 11.8327 44.4909 10.9641 43.919 10.4645C43.3471 9.96487 42.4785 10.0235 41.9789 10.5954L44.0499 12.4046ZM4.01646 28.0824L16.6831 41.4459L18.679 39.5541L6.01235 26.1906L4.01646 28.0824ZM18.7166 41.4046L44.0499 12.4046L41.9789 10.5954L16.6455 39.5954L18.7166 41.4046Z" fill="black"/>
</svg>
