<svg width="49" height="49" viewBox="0 0 49 49" fill="none" xmlns="http://www.w3.org/2000/svg">
<path d="M22.6394 41.5C22.6394 42.2594 23.255 42.875 24.0144 42.875C24.7738 42.875 25.3894 42.2594 25.3894 41.5V25.875H41.0144C41.7738 25.875 42.3894 25.2594 42.3894 24.5C42.3894 23.7406 41.7738 23.125 41.0144 23.125H25.3894V7.5C25.3894 6.74061 24.7738 6.125 24.0144 6.125C23.255 6.125 22.6394 6.74061 22.6394 7.5V23.125H7.0144C6.25501 23.125 5.6394 23.7406 5.6394 24.5C5.6394 25.2594 6.25501 25.875 7.0144 25.875H22.6394V41.5Z" fill="black"/>
</svg>
