<svg width="49" height="49" viewBox="0 0 49 49" fill="none" xmlns="http://www.w3.org/2000/svg">
<path d="M22.7644 41.5C22.7644 42.1904 23.324 42.75 24.0144 42.75C24.7048 42.75 25.2644 42.1904 25.2644 41.5V25.75H41.0144C41.7048 25.75 42.2644 25.1904 42.2644 24.5C42.2644 23.8096 41.7048 23.25 41.0144 23.25H25.2644V7.5C25.2644 6.80964 24.7048 6.25 24.0144 6.25C23.324 6.25 22.7644 6.80964 22.7644 7.5V23.25H7.0144C6.32405 23.25 5.7644 23.8096 5.7644 24.5C5.7644 25.1904 6.32405 25.75 7.0144 25.75H22.7644V41.5Z" fill="black"/>
</svg>
