<svg width="24" height="24" viewBox="0 0 24 24" fill="none" xmlns="http://www.w3.org/2000/svg">
<path fill-rule="evenodd" clip-rule="evenodd" d="M19.8953 5.68578C20.221 4.70858 19.2913 3.7789 18.3141 4.10464L16.3748 4.75108C16.1907 4.81245 16.0234 4.91584 15.8862 5.05305L13.7397 7.19953L4.86843 5.79881C4.4734 5.73644 4.07238 5.86684 3.7896 6.14963L3.46016 6.47906C2.85686 7.08237 3.02191 8.09942 3.78503 8.48098L9.56717 11.3721L7.54998 13.3892L4.80821 13.3032C4.47685 13.2928 4.15493 13.4144 3.91327 13.6414L3.25231 14.2621C2.49895 14.9696 2.88078 16.2337 3.89983 16.4058L5.85313 16.7357C5.94234 16.9399 6.07045 17.1311 6.23748 17.2981C6.39546 17.4561 6.57538 17.5794 6.76762 17.6679L7.10044 19.6648C7.26759 20.6677 8.49839 21.0622 9.21732 20.3432L9.88385 19.6767C10.1183 19.4423 10.25 19.1243 10.25 18.7928V16.0135L12.5871 13.8888L15.5185 20.1702C15.8853 20.9563 16.9217 21.1389 17.5351 20.5255L17.8503 20.2103C18.133 19.9275 18.2635 19.5265 18.2011 19.1315L16.7725 10.0839L18.982 8.07529C19.0918 7.97546 19.1741 7.8491 19.2211 7.70831L19.8953 5.68578ZM16.9051 6.15545L18.3141 5.68578L17.8504 7.07681L7.76161 16.2485C7.62894 16.3691 7.42493 16.3642 7.29814 16.2374C7.16696 16.1063 7.16697 15.8936 7.29814 15.7624L16.9051 6.15545ZM5.87403 15.218C5.93579 15.0868 6.01397 14.9613 6.10856 14.8447L4.86464 14.8057L4.64637 15.0107L5.87403 15.218ZM8.50017 18.9391L8.28939 17.6744C8.45325 17.6006 8.60872 17.5015 8.74996 17.3769V18.6893L8.50017 18.9391ZM15.4446 11.2912L13.7494 12.8322L16.6792 19.1104L15.4446 11.2912ZM4.78589 7.30436L12.4282 8.51104L10.6852 10.254L4.78589 7.30436Z" fill="black"/>
</svg>
