<svg width="24" height="25" viewBox="0 0 24 25" fill="none" xmlns="http://www.w3.org/2000/svg">
<path fill-rule="evenodd" clip-rule="evenodd" d="M16.5845 5.24251C16.7907 4.82348 16.7272 4.35341 16.4549 4.0182C16.1871 3.68865 15.7536 3.53157 15.3157 3.62052C12.3373 4.22548 10.9737 6.43189 10.9541 7.92314C10.9443 8.67244 11.6228 9.11184 12.2372 9.01789C13.2888 8.85711 14.2192 8.2079 14.9335 7.50426C15.6577 6.79096 16.2393 5.94383 16.5845 5.24251ZM12.5792 7.3648C12.8336 6.691 13.5003 5.80772 14.8036 5.32057C14.5497 5.69582 14.2357 6.0861 13.8809 6.43563C13.4576 6.85253 13.0135 7.17518 12.5792 7.3648Z" fill="black"/>
<path fill-rule="evenodd" clip-rule="evenodd" d="M18.9322 9.95677C17.8616 8.90875 16.7725 8.42387 15.5568 8.47646C14.4402 8.52475 13.3205 9.02681 12.144 9.69095C12.0627 9.65409 11.9719 9.6122 11.8741 9.56705C11.5413 9.41343 11.1268 9.22212 10.7261 9.06292C10.1384 8.82941 9.42531 8.59704 8.77157 8.59702C7.71236 8.59698 6.38513 9.06233 5.43773 10.1004C4.45808 11.1737 3.95098 12.7842 4.43727 14.9167C5.17374 18.1462 7.11933 20.0564 7.8498 20.6076C8.44544 21.1581 9.82123 21.814 11.5867 21.3331C11.8712 21.2556 12.1044 21.2097 12.3179 21.2097C12.5003 21.2097 12.6992 21.2414 12.9313 21.2967C13.4788 21.4271 14.2205 21.5304 14.971 21.4714C15.7135 21.413 16.5556 21.1875 17.1898 20.5694C18.0219 19.7586 18.7196 18.7526 19.1499 18.047C19.3906 17.6524 19.361 17.2218 19.2201 16.8941C19.0836 16.5766 18.8312 16.3145 18.5268 16.1595C17.9481 15.8649 17.451 15.146 17.3775 14.3071C17.3085 13.5197 17.6162 12.615 18.69 11.9234C19.276 11.5459 19.5901 10.6009 18.9322 9.95677ZM12.7743 11.058C13.9719 10.3738 14.8565 10.0081 15.6216 9.97505C16.2596 9.94746 16.9007 10.15 17.6533 10.8148C16.2843 11.7968 15.7711 13.1584 15.8832 14.4381C15.9936 15.6979 16.7148 16.8742 17.756 17.4484C17.3588 18.0763 16.7858 18.8687 16.143 19.4951C15.8586 19.7723 15.4146 19.9319 14.8534 19.9761C14.3002 20.0196 13.7205 19.9427 13.2789 19.8375C12.9941 19.7696 12.6669 19.7097 12.3179 19.7097C11.9021 19.7097 11.5152 19.7979 11.1925 19.8858C9.94546 20.2255 9.08433 19.7173 8.8564 19.4951L8.81837 19.4581L8.77551 19.4268C8.302 19.0807 6.55267 17.4465 5.89972 14.5832C5.50881 12.869 5.9374 11.778 6.54566 11.1116C7.18616 10.4098 8.09905 10.097 8.77152 10.097C9.12265 10.097 9.61088 10.2339 10.1722 10.4569C10.5391 10.6027 10.8714 10.7564 11.1824 10.9003C11.3501 10.9779 11.5115 11.0525 11.6688 11.1215C12.0431 11.2858 12.4526 11.2418 12.7743 11.058Z" fill="black"/>
</svg>
