<svg width="25" height="25" viewBox="0 0 25 25" fill="none" xmlns="http://www.w3.org/2000/svg">
<path fill-rule="evenodd" clip-rule="evenodd" d="M8.38338 3.58522C7.9708 3.62191 7.66608 3.98613 7.70277 4.39871L7.86645 6.23894C7.95208 7.20164 8.80191 7.91265 9.76461 7.82702L11.3751 7.68378C11.3347 8.00135 11.3283 8.34656 11.3633 8.72096C11.1816 8.6231 10.9876 8.53182 10.7838 8.45016C9.88559 8.09025 8.72758 7.89015 7.56189 8.21956C6.14415 8.62019 5.20888 9.4712 4.65958 10.5749C4.12711 11.6448 3.97723 12.9086 4.0103 14.1501C4.01288 14.9129 4.28914 15.9712 4.73351 17.0129C5.18608 18.0738 5.85091 19.2072 6.70009 20.0957C7.30017 20.7236 8.3017 21.2196 9.38455 21.3037C10.2918 21.3741 11.2758 21.1555 12.1344 20.4751C12.9929 21.1555 13.977 21.3741 14.8842 21.3037C15.9671 21.2196 16.9686 20.7236 17.5687 20.0957C19.2084 18.38 20.2546 16.0221 20.2585 14.1499C20.2915 12.9084 20.1416 11.6447 19.6092 10.5749C19.0599 9.4712 18.1246 8.62019 16.7069 8.21956C15.5412 7.89015 14.3832 8.09025 13.485 8.45016C13.2694 8.53658 13.0646 8.63376 12.8739 8.73812C12.873 8.72873 12.872 8.71932 12.8709 8.7099C12.7597 7.82022 12.9704 7.27322 13.2185 6.9253C13.4799 6.55882 13.8343 6.34229 14.1068 6.21357C14.4814 6.03669 14.6416 5.58967 14.4647 5.21512C14.2878 4.84057 13.8408 4.68033 13.4663 4.85722C13.1272 5.01735 12.6255 5.30473 12.1926 5.80587L12.1218 5.00962C12.0361 4.04692 11.1863 3.33591 10.2236 3.42154L8.38338 3.58522ZM12.1344 11.0415C11.8532 11.0585 11.5741 10.9155 11.4304 10.6518C11.4077 10.6103 11.3066 10.4801 11.0739 10.3075C10.8554 10.1453 10.5648 9.97837 10.2258 9.84253C9.54118 9.56819 8.73139 9.44781 7.96979 9.66303C6.96697 9.94641 6.36701 10.5107 6.00245 11.2432C5.62245 12.0068 5.47923 12.9962 5.51 14.1188L5.51028 14.1394C5.51028 14.6155 5.70396 15.4649 6.11322 16.4243C6.51638 17.3694 7.09256 18.3353 7.7845 19.0593C8.11526 19.4054 8.76522 19.7511 9.50064 19.8082C10.1677 19.8599 10.8802 19.6744 11.4866 19.0398C11.5251 18.9771 11.5737 18.9191 11.632 18.8681C11.7767 18.7416 11.9563 18.6807 12.1344 18.6828C12.3125 18.6807 12.4921 18.7416 12.6368 18.8681C12.6951 18.9191 12.7437 18.9771 12.7822 19.0398C13.3886 19.6744 14.1011 19.8599 14.7682 19.8082C15.5036 19.7511 16.1535 19.4054 16.4843 19.0593C17.9238 17.5531 18.7585 15.5442 18.7585 14.1394L18.7588 14.1188C18.7896 12.9962 18.6463 12.0068 18.2663 11.2432C17.9018 10.5107 17.3018 9.94641 16.299 9.66303C15.5374 9.44781 14.7276 9.56819 14.043 9.84253C13.704 9.97837 13.4134 10.1453 13.1949 10.3075C12.9622 10.4801 12.8611 10.6103 12.8384 10.6518C12.6946 10.9155 12.4156 11.0585 12.1344 11.0415ZM9.36055 6.10605L9.26332 5.01287L10.3565 4.91564C10.494 4.90341 10.6154 5.00498 10.6277 5.14251L10.7249 6.23569L9.63172 6.33292C9.49419 6.34515 9.37279 6.24358 9.36055 6.10605Z" fill="black"/>
</svg>
