<svg width="24" height="24" viewBox="0 0 24 24" fill="none" xmlns="http://www.w3.org/2000/svg">
<path fill-rule="evenodd" clip-rule="evenodd" d="M10.3966 4.45368C9.98654 4.3951 9.60664 4.68002 9.54807 5.09007C9.48949 5.50012 9.77441 5.88002 10.1845 5.9386C10.7815 6.0239 11.5136 6.27457 11.9254 6.66596C12.1141 6.84525 12.2106 7.02894 12.2328 7.22905C12.2539 7.41925 12.217 7.70935 11.9879 8.12472L11.2459 7.93922C10.7197 7.80766 10.1903 8.14266 10.0839 8.67454L9.80791 10.0546L3.37157 7.98575C2.75832 7.78864 2.13086 8.24605 2.13086 8.89018V10.2187C2.13086 10.5363 2.28961 10.8329 2.55389 11.0091L5.5506 13.0069V13.5901C5.42295 13.5737 5.2928 13.5653 5.16069 13.5653C3.48736 13.5653 2.13086 14.9218 2.13086 16.5951C2.13086 18.2684 3.48736 19.6249 5.16069 19.6249C6.62415 19.6249 7.84528 18.5873 8.12855 17.2077C8.49182 17.3828 8.92682 17.3095 9.21269 17.0236L10.031 16.2053H12.2595L13.1211 17.067C13.2993 17.2451 13.5409 17.3452 13.7929 17.3452H15.3475C15.5332 17.3452 15.7139 17.2908 15.8679 17.19C16.1444 18.5785 17.3697 19.6249 18.8394 19.6249C20.5127 19.6249 21.8692 18.2684 21.8692 16.5951C21.8692 15.0985 20.7841 13.8553 19.3576 13.6094C19.3097 13.4026 19.194 13.2113 19.018 13.0748C18.9963 12.4999 18.7919 11.9392 18.5215 11.4336C18.2321 10.8926 17.8412 10.3667 17.4221 9.88465C16.5847 8.92149 15.5773 8.0683 14.8619 7.54141C14.5146 7.28569 14.0536 7.30316 13.7278 7.55023C13.7427 7.38618 13.7414 7.22398 13.7237 7.06387C13.6544 6.43873 13.3448 5.94559 12.9588 5.57868C12.2212 4.87765 11.1294 4.55837 10.3966 4.45368ZM14.3493 9.03757C14.9505 9.5137 15.6779 10.1647 16.2901 10.8688C16.6634 11.2982 16.9793 11.7308 17.1988 12.1411C17.2627 12.2605 17.3164 12.3743 17.3604 12.4822L11.2452 10.5166L11.4417 9.53433L12.8486 9.88605C13.1723 9.96698 13.5148 9.87213 13.7507 9.63617L14.3493 9.03757ZM17.2424 14.0198C16.9106 14.226 16.6215 14.4946 16.3917 14.8091L15.1484 15.8452H14.0207L13.159 14.9835C12.9809 14.8054 12.7392 14.7053 12.4873 14.7053H9.80318C9.55123 14.7053 9.30959 14.8054 9.13143 14.9835L8.43234 15.6826L7.99953 15.4662L7.0506 13.5684V12.7126C7.0506 12.3949 6.89185 12.0983 6.62757 11.9221L3.63086 9.9243V9.64468L17.2424 14.0198ZM17.5187 15.8225C17.3858 16.0492 17.3096 16.3133 17.3096 16.5951C17.3096 17.44 17.9945 18.1249 18.8394 18.1249C19.6843 18.1249 20.3692 17.44 20.3692 16.5951C20.3692 15.7502 19.6843 15.0653 18.8394 15.0653C18.6563 15.0653 18.4807 15.0974 18.318 15.1564L17.5187 15.8225ZM5.16069 15.0653C4.31579 15.0653 3.63086 15.7502 3.63086 16.5951C3.63086 17.44 4.31579 18.1249 5.16069 18.1249C6.00559 18.1249 6.69051 17.44 6.69051 16.5951C6.69051 15.7502 6.00559 15.0653 5.16069 15.0653Z" fill="black"/>
</svg>
