<svg width="24" height="25" viewBox="0 0 24 25" fill="none" xmlns="http://www.w3.org/2000/svg">
<path d="M4.8432 8.43516C6.27569 5.93378 8.97075 4.25 12.0577 4.25C16.446 4.25 20.0403 7.65299 20.3445 11.9635C20.3736 12.3767 20.7322 12.688 21.1454 12.6588C21.5586 12.6297 21.8699 12.2711 21.8408 11.8579C21.4815 6.76749 17.2391 2.75 12.0577 2.75C8.42754 2.75 5.25939 4.72209 3.56379 7.65125L3.49029 7.28378C3.43613 7.013 3.17272 6.83739 2.90194 6.89155C2.63116 6.9457 2.45555 7.20911 2.50971 7.47989L2.90959 9.47931C2.98725 9.86759 3.39818 10.0902 3.76584 9.94313L5.77361 9.14003C6.03 9.03747 6.1547 8.74649 6.05215 8.4901C5.94959 8.2337 5.65861 8.109 5.40221 8.21155L4.8432 8.43516Z" fill="black"/>
<path d="M3.75 12.5577C3.75 12.1435 3.41421 11.8077 3 11.8077C2.58579 11.8077 2.25 12.1435 2.25 12.5577C2.25 17.9743 6.64105 22.3654 12.0577 22.3654C15.7876 22.3654 19.0298 20.2832 20.6879 17.2207L20.8428 17.8356C20.917 18.1301 21.216 18.3088 21.5106 18.2346C21.8052 18.1603 21.9838 17.8614 21.9096 17.5668L21.3616 15.3916C21.2551 14.9692 20.7915 14.7469 20.3955 14.9285L18.2331 15.92C17.957 16.0467 17.8357 16.3732 17.9624 16.6493C18.089 16.9254 18.4155 17.0467 18.6916 16.92L19.2924 16.6446C17.865 19.1658 15.1592 20.8654 12.0577 20.8654C7.46948 20.8654 3.75 17.1459 3.75 12.5577Z" fill="black"/>
<path d="M10.0852 13.4835C10.0852 13.7948 9.83286 14.0471 9.5216 14.0471C9.21034 14.0471 8.95801 13.7948 8.95801 13.4835C8.95801 13.1722 9.21034 12.9199 9.5216 12.9199C9.83286 12.9199 10.0852 13.1722 10.0852 13.4835Z" fill="black"/>
<path d="M14.5939 14.0471C14.9051 14.0471 15.1575 13.7948 15.1575 13.4835C15.1575 13.1722 14.9051 12.9199 14.5939 12.9199C14.2826 12.9199 14.0303 13.1722 14.0303 13.4835C14.0303 13.7948 14.2826 14.0471 14.5939 14.0471Z" fill="black"/>
<path fill-rule="evenodd" clip-rule="evenodd" d="M15.642 10.4742H16.0472C16.4614 10.4742 16.7972 10.81 16.7972 11.2242C16.7972 11.5278 16.6168 11.7893 16.3573 11.9073C16.7786 12.3742 17.0346 12.9927 17.0346 13.6676C17.0346 14.3325 16.7455 14.934 16.2846 15.3485V16.4918C16.2846 16.6979 16.1175 16.8651 15.9113 16.8651H14.4036C14.1974 16.8651 14.0303 16.6979 14.0303 16.4918V15.9243H10.0852V16.4918C10.0852 16.6979 9.91802 16.8651 9.71183 16.8651H8.20414C7.99796 16.8651 7.83081 16.6979 7.83081 16.4918V15.3484C7.36998 14.934 7.08081 14.3325 7.08081 13.6676C7.08081 13.0085 7.32509 12.4031 7.72891 11.9402C7.42409 11.8449 7.20288 11.5604 7.20288 11.2242C7.20288 10.81 7.53867 10.4742 7.95288 10.4742H8.47351L8.58916 9.93451C8.73242 9.26596 9.32325 8.78833 10.007 8.78833H14.1085C14.7922 8.78833 15.3831 9.26596 15.5263 9.93451L15.642 10.4742ZM8.58081 13.6676C8.58081 13.0466 9.08505 12.5427 9.69748 12.5427H14.418C15.0304 12.5427 15.5346 13.0466 15.5346 13.6676C15.5346 14.0862 15.1946 14.4243 14.7846 14.4243H9.33081C8.92089 14.4243 8.58081 14.0862 8.58081 13.6676ZM10.0474 10.2883L9.88575 11.0427H14.2297L14.0681 10.2883H10.0474Z" fill="black"/>
</svg>
