<svg width="24" height="24" viewBox="0 0 24 24" fill="none" xmlns="http://www.w3.org/2000/svg">
<path d="M9.97019 11.3558C9.97019 11.6335 9.74513 11.8585 9.46752 11.8585C9.1899 11.8585 8.96484 11.6335 8.96484 11.3558C8.96484 11.0782 9.1899 10.8532 9.46752 10.8532C9.74513 10.8532 9.97019 11.0782 9.97019 11.3558Z" fill="black"/>
<path d="M13.9914 11.8585C14.2691 11.8585 14.4941 11.6335 14.4941 11.3558C14.4941 11.0782 14.2691 10.8532 13.9914 10.8532C13.7138 10.8532 13.4888 11.0782 13.4888 11.3558C13.4888 11.6335 13.7138 11.8585 13.9914 11.8585Z" fill="black"/>
<path fill-rule="evenodd" clip-rule="evenodd" d="M14.9919 8.59071H15.288C15.7022 8.59071 16.038 8.9265 16.038 9.34071C16.038 9.60638 15.8999 9.83979 15.6915 9.97303C16.0401 10.3926 16.2498 10.9319 16.2498 11.5201C16.2498 12.1651 15.9581 12.742 15.4995 13.1261V13.9985C15.4995 14.2047 15.3323 14.3719 15.1261 14.3719H13.8621C13.6559 14.3719 13.4888 14.2047 13.4888 13.9985V13.6138H9.9704V13.9985C9.9704 14.2047 9.80326 14.3719 9.59707 14.3719H8.33305C8.12686 14.3719 7.95972 14.2047 7.95972 13.9985V13.1258C7.50125 12.7417 7.20972 12.1649 7.20972 11.5201C7.20972 10.9503 7.4064 10.4266 7.73558 10.0129C7.48846 9.89024 7.3186 9.63532 7.3186 9.34071C7.3186 8.9265 7.65439 8.59071 8.0686 8.59071H8.46718L8.54378 8.23324C8.68704 7.56468 9.27787 7.08705 9.9616 7.08705H13.4975C14.1812 7.08705 14.772 7.56468 14.9153 8.23324L14.9919 8.59071ZM8.70972 11.5201C8.70972 11.0107 9.12262 10.5978 9.63197 10.5978H13.8275C14.3369 10.5978 14.7498 11.0107 14.7498 11.5201C14.7498 11.848 14.484 12.1138 14.156 12.1138H9.30349C8.97556 12.1138 8.70972 11.848 8.70972 11.5201ZM10.002 8.58705L9.89258 9.09774H13.5665L13.4571 8.58705H10.002Z" fill="black"/>
<path fill-rule="evenodd" clip-rule="evenodd" d="M18.8115 4.43255C16.1232 3.63593 13.9369 3.24126 11.7295 3.25015C9.52431 3.25902 7.34124 3.67062 4.66208 4.43344C4.09757 4.59417 3.70947 5.1108 3.70947 5.69577V8.56341C3.70947 10.7502 3.85132 13.1385 4.92131 15.2478C6.26929 17.9051 8.24866 19.2982 11.3725 20.8284C11.7546 21.0156 12.2073 21.0059 12.5817 20.7992C15.0226 19.4517 16.711 18.212 18.0702 15.8754C19.5045 13.4097 19.7501 10.5169 19.7501 7.84862V5.6905C19.7501 5.11145 19.3695 4.59788 18.8115 4.43255ZM5.20947 8.56341V5.83739C7.75631 5.11937 9.75652 4.7581 11.7356 4.75013C13.7129 4.74217 15.7106 5.08679 18.2501 5.83088V7.84862C18.2501 10.4665 17.9974 13.0174 16.7736 15.1211C15.6249 17.0959 14.2265 18.1703 11.9437 19.4378C8.98239 17.979 7.37621 16.7715 6.25904 14.5692C5.36175 12.8004 5.20947 10.7252 5.20947 8.56341Z" fill="black"/>
</svg>
