<svg width="25" height="24" viewBox="0 0 25 24" fill="none" xmlns="http://www.w3.org/2000/svg">
<path d="M7.40678 14.2305C8.05819 14.2305 8.58626 13.714 8.58626 13.0767C8.58626 12.4394 8.05819 11.9229 7.40678 11.9229C6.75537 11.9229 6.22729 12.4394 6.22729 13.0767C6.22729 13.714 6.75537 14.2305 7.40678 14.2305Z" fill="black"/>
<path d="M19.2017 13.0767C19.2017 13.714 18.6737 14.2305 18.0223 14.2305C17.3708 14.2305 16.8428 13.714 16.8428 13.0767C16.8428 12.4394 17.3708 11.9229 18.0223 11.9229C18.6737 11.9229 19.2017 12.4394 19.2017 13.0767Z" fill="black"/>
<path fill-rule="evenodd" clip-rule="evenodd" d="M8.74032 4.25C7.51092 4.25 6.44731 5.10585 6.18426 6.30677L5.88801 7.65918H3.86816C3.45395 7.65918 3.11816 7.99497 3.11816 8.40918C3.11816 8.82339 3.45395 9.15918 3.86816 9.15918H4.52917C3.69078 9.59521 3.11816 10.4718 3.11816 11.4821V15.0386C3.11816 15.7049 3.40785 16.3037 3.86816 16.7156V19.6268C3.86816 19.833 4.03531 20.0001 4.2415 20.0001H8.21277C8.41896 20.0001 8.5861 19.833 8.5861 19.6268V17.2886H16.8428V19.6268C16.8428 19.833 17.0099 20.0001 17.2161 20.0001H21.1874C21.3936 20.0001 21.5607 19.833 21.5607 19.6268V16.7154C22.0209 16.3034 22.3104 15.7048 22.3104 15.0386V11.4821C22.3104 10.4718 21.7378 9.59521 20.8994 9.15918H21.2924C21.7066 9.15918 22.0424 8.82339 22.0424 8.40918C22.0424 7.99497 21.7066 7.65918 21.2924 7.65918H19.5409L19.2447 6.30677C18.9816 5.10585 17.918 4.25 16.6886 4.25H8.74032ZM7.64952 6.62773C7.76178 6.11523 8.21567 5.75 8.74032 5.75H16.6886C17.2132 5.75 17.6671 6.11523 17.7794 6.62773L18.2696 8.86539H7.15936L7.64952 6.62773ZM4.61816 11.4821C4.61816 10.8654 5.11811 10.3655 5.73483 10.3655H19.6938C20.3105 10.3655 20.8104 10.8654 20.8104 11.4821V15.0386C20.8104 15.4528 20.4746 15.7886 20.0604 15.7886H16.2678L15.3538 14.5964C15.1772 14.366 14.9034 14.231 14.6131 14.231H10.8162C10.5259 14.231 10.2521 14.366 10.0755 14.5964L9.16149 15.7886H5.36817C4.95395 15.7886 4.61816 15.4528 4.61816 15.0386V11.4821Z" fill="black"/>
</svg>
