<svg width="24" height="25" viewBox="0 0 24 25" fill="none" xmlns="http://www.w3.org/2000/svg">
<path fill-rule="evenodd" clip-rule="evenodd" d="M15.3016 3.68676C14.6813 3.17925 13.75 3.62057 13.75 4.42202V5.97219H9.20001C8.67533 5.97219 8.25001 6.39752 8.25001 6.92219V10.0777C8.25001 10.6024 8.67534 11.0277 9.20001 11.0277H13.75V12.5779C13.75 13.3794 14.6813 13.8207 15.3016 13.3132L20.2857 9.23523C20.7503 8.85513 20.7503 8.14481 20.2857 7.76471L15.3016 3.68676ZM15.25 6.62219V5.58265L18.8156 8.49997L15.25 11.4173V10.3777C15.25 9.9083 14.8694 9.52775 14.4 9.52775H9.75001V7.47219H14.4C14.8694 7.47219 15.25 7.09163 15.25 6.62219Z" fill="black"/>
<path fill-rule="evenodd" clip-rule="evenodd" d="M8.69843 21.8132C9.31872 22.3207 10.25 21.8794 10.25 21.0779V19.5277H14.8C15.3247 19.5277 15.75 19.1024 15.75 18.5777L15.75 15.4222C15.75 14.8975 15.3247 14.4722 14.8 14.4722H10.25L10.25 12.922C10.25 12.1206 9.31872 11.6792 8.69843 12.1868L3.71427 16.2647C3.2497 16.6448 3.2497 17.3551 3.71427 17.7352L8.69843 21.8132ZM8.75001 18.8777V19.9173L5.1844 17L8.75001 14.0826V15.1222C8.75001 15.5916 9.13056 15.9722 9.60001 15.9722H14.25L14.25 18.0277H9.60001C9.13057 18.0277 8.75001 18.4083 8.75001 18.8777Z" fill="black"/>
</svg>
