<svg width="25" height="25" viewBox="0 0 25 25" fill="none" xmlns="http://www.w3.org/2000/svg">
<path d="M6.8572 11.1389C7.09395 10.799 7.01033 10.3316 6.67044 10.0948C6.33055 9.85809 5.8631 9.9417 5.62635 10.2816C4.42292 12.0093 4.91099 14.1819 6.04552 15.5995C6.30433 15.9229 6.77631 15.9753 7.09971 15.7165C7.42311 15.4577 7.47547 14.9857 7.21665 14.6623C6.3577 13.589 6.14768 12.1576 6.8572 11.1389Z" fill="black"/>
<path d="M15.1915 6.40189C15.3827 6.76936 15.2398 7.22221 14.8723 7.41337C13.7695 7.98708 13.3005 9.34421 13.5597 10.7009C13.6375 11.1078 13.3707 11.5006 12.9638 11.5784C12.557 11.6561 12.1641 11.3893 12.0864 10.9825C11.7466 9.20458 12.3051 7.05805 14.1801 6.08266C14.5475 5.8915 15.0004 6.03442 15.1915 6.40189Z" fill="black"/>
<path fill-rule="evenodd" clip-rule="evenodd" d="M10.5941 7.75141C9.34792 7.03057 7.85937 7.04655 6.85016 7.2983L6.8391 7.30115C3.90786 8.07993 2.53037 11.4054 3.51443 14.4774C4.45444 17.4117 7.3773 19.6515 10.4849 19.2215L10.566 20.4635C10.5825 20.7171 10.7264 20.9451 10.9482 21.0692C11.17 21.1933 11.4396 21.1966 11.6644 21.078L14.0764 19.8052C14.2995 19.6874 14.4485 19.4654 14.4728 19.2144C14.4972 18.9633 14.3938 18.7168 14.1975 18.5583L13.0759 17.6528C13.3894 17.2375 13.601 16.8198 13.7426 16.4236C13.7652 16.3604 13.7859 16.2979 13.8049 16.2362C13.9155 16.287 14.0188 16.3301 14.1128 16.3662L13.6384 17.2928C13.5233 17.5175 13.5291 17.785 13.6536 18.0047C13.7782 18.2243 14.005 18.3664 14.2569 18.383L16.9631 18.5604C17.2194 18.5772 17.4666 18.4616 17.618 18.2541C17.7694 18.0465 17.8041 17.7759 17.7099 17.5369L17.2347 16.3318C18.0538 15.9953 18.7731 15.4218 19.3519 14.7242C20.3349 13.5393 20.9703 11.937 21.0751 10.2862C21.2855 6.95269 19.1451 3.92519 16.036 3.76249L16.0262 3.76204C14.0556 3.68498 11.5265 4.97832 10.5941 7.75141ZM10.2619 9.35395C10.2455 9.53263 10.2348 9.71572 10.2303 9.90322L10.2303 9.90467C10.1747 12.4262 11.088 14.0656 12.1301 15.0828C12.2424 15.1924 12.3558 15.2944 12.469 15.3892C12.4408 15.5527 12.398 15.7289 12.3302 15.9186C12.1572 16.4023 11.8101 16.9881 11.0583 17.551C8.55029 18.3938 5.79597 16.6826 4.94293 14.0197C4.15154 11.5493 5.32585 9.25904 7.2188 8.75232C8.15449 8.52051 9.42484 8.60808 10.2619 9.35395ZM18.1974 13.7665C17.4354 14.685 16.486 15.1907 15.5109 15.1558L14.8845 15.0439C14.7388 15.0076 13.9339 14.7474 13.1778 14.0094C12.4276 13.277 11.6838 12.0363 11.7299 9.93847C11.8107 6.58599 14.3104 5.19903 15.9626 5.2607C18.0178 5.37147 19.7505 7.45713 19.5781 10.1912C19.4927 11.5374 18.9704 12.8347 18.1974 13.7665ZM15.4935 16.9608L15.6021 16.7488L15.7887 16.7538L15.8803 16.9862L15.4935 16.9608ZM11.9673 18.9041L11.9874 19.2115L12.3691 19.01L12.1248 18.8128L11.9673 18.9041Z" fill="black"/>
</svg>
