<svg width="25" height="25" viewBox="0 0 25 25" fill="none" xmlns="http://www.w3.org/2000/svg">
<path d="M12.0045 8.71718C12.6949 8.71718 13.2545 8.15753 13.2545 7.46718C13.2545 6.77682 12.6949 6.21718 12.0045 6.21718C11.3142 6.21718 10.7545 6.77682 10.7545 7.46718C10.7545 8.15753 11.3142 8.71718 12.0045 8.71718Z" fill="black"/>
<path fill-rule="evenodd" clip-rule="evenodd" d="M12.5086 3.91542C12.1494 3.7325 11.7241 3.73401 11.3662 3.91947L3.59205 7.94829C3.34329 8.0772 3.18713 8.33401 3.18713 8.61418V10.0194C3.18713 10.4337 3.52292 10.7694 3.93713 10.7694H4.52419L4.53472 16.6965C3.93213 16.7859 3.46979 17.3054 3.46979 17.9329V19.6892C3.46979 20.3796 4.02943 20.9392 4.71979 20.9392H19.2777C19.9681 20.9392 20.5277 20.3796 20.5277 19.6892V17.9329C20.5277 17.2743 20.0184 16.7346 19.3721 16.6864V10.7694H20.0044C20.2053 10.7694 20.3979 10.6888 20.5388 10.5456C20.6798 10.4024 20.7574 10.2087 20.7543 10.0078L20.7316 8.55114C20.7273 8.27328 20.5697 8.02059 20.3221 7.89448L12.5086 3.91542ZM4.68713 9.07023L11.9423 5.31036L19.2389 9.02615L19.2426 9.26945H4.68713V9.07023ZM17.8721 16.6829V10.7694H16.2347V16.6829H17.8721ZM14.7347 16.6829V10.7694H12.715V16.6829H14.7347ZM11.215 16.6829V10.7694H9.17291L9.17291 16.6829H11.215ZM7.67291 16.6829L7.67291 10.7694H6.0242L6.0347 16.6829H7.67291ZM4.96979 18.1835L5.32533 18.1829H19.0277V19.4392H4.96979V18.1835Z" fill="black"/>
</svg>
