<svg width="25" height="25" viewBox="0 0 25 25" fill="none" xmlns="http://www.w3.org/2000/svg">
<path fill-rule="evenodd" clip-rule="evenodd" d="M9.4219 8.40507L9.5368 9.56709L10.2145 9.76231C10.3089 9.62712 10.4373 9.49497 10.6021 9.37041C11.0177 9.05634 11.5956 8.8521 12.1718 8.8387C12.989 8.81971 13.5692 9.07156 14.1794 9.72426C14.4623 10.0268 14.9369 10.0428 15.2395 9.75988C15.542 9.47699 15.558 9.00238 15.2751 8.69982C14.6153 7.99412 13.8965 7.56318 13.0357 7.40574V6.66039C13.0357 6.24617 12.6999 5.91039 12.2857 5.91039C11.8715 5.91039 11.5357 6.24617 11.5357 6.66039V7.39662C10.8639 7.50925 10.2185 7.78014 9.69772 8.17372C9.60261 8.2456 9.51028 8.3228 9.4219 8.40507ZM14.6534 13.2767L15.1332 16.0276L15.7378 16.2965C15.7953 16.0623 15.8248 15.8148 15.8248 15.5564C15.8248 14.5717 15.3768 13.8565 14.7147 13.3249C14.6945 13.3087 14.674 13.2926 14.6534 13.2767ZM19.0631 17.7755L20.4616 18.3975C21.5678 16.79 22.2152 14.8423 22.2152 12.7434C22.2152 7.2278 17.7439 2.75652 12.2283 2.75652C11.0684 2.75652 9.95462 2.95427 8.91892 3.31791L9.07169 4.86298C10.0475 4.47176 11.1128 4.25652 12.2283 4.25652C16.9155 4.25652 20.7152 8.05622 20.7152 12.7434C20.7152 14.6271 20.1015 16.3675 19.0631 17.7755ZM19.485 19.6048L13.7929 17.0731L12.9263 12.1044L8.14416 10.7269L7.47491 3.95813C4.35796 5.64817 2.24146 8.94862 2.24146 12.7434C2.24146 18.259 6.71274 22.7303 12.2283 22.7303C15.0867 22.7303 17.6645 21.5295 19.485 19.6048ZM11.1872 13.2618L11.1895 13.2558L10.8777 13.1289C10.6053 13.0143 10.3475 12.8966 10.1094 12.7694L6.82073 11.7112L6.32561 6.64544C4.73206 8.18829 3.74146 10.3502 3.74146 12.7434C3.74146 17.4306 7.54116 21.2303 12.2283 21.2303C13.9026 21.2303 15.4637 20.7455 16.7788 19.9085L13.3574 18.4594C13.2522 18.4845 13.1449 18.5061 13.0357 18.5243V19.3167C13.0357 19.7309 12.6999 20.0667 12.2857 20.0667C11.8715 20.0667 11.5357 19.7309 11.5357 19.3167V18.5643C10.1939 18.3997 9.25113 17.6587 8.57692 16.8208C8.31726 16.4981 8.36839 16.0259 8.69111 15.7663C9.01383 15.5066 9.48595 15.5578 9.74561 15.8805C10.3215 16.5963 11.0408 17.0982 12.1018 17.0982C12.1878 17.0982 12.2712 17.096 12.3518 17.0917L11.7567 13.4873L11.1872 13.2618Z" fill="black"/>
</svg>
