<svg width="25" height="25" viewBox="0 0 25 25" fill="none" xmlns="http://www.w3.org/2000/svg">
<path fill-rule="evenodd" clip-rule="evenodd" d="M16.5831 4.19824C16.1689 4.19824 15.8331 4.53403 15.8331 4.94824V20.9482C15.8331 21.3624 16.1689 21.6982 16.5831 21.6982H20.005C20.4192 21.6982 20.755 21.3624 20.755 20.9482V4.94824C20.755 4.53403 20.4192 4.19824 20.005 4.19824H16.5831ZM17.3331 20.1982V5.69824H19.255V20.1982H17.3331Z" fill="black"/>
<path fill-rule="evenodd" clip-rule="evenodd" d="M9.67346 10.0828C9.67346 9.66855 10.0092 9.33276 10.4235 9.33276H13.8454C14.2596 9.33276 14.5954 9.66855 14.5954 10.0828V20.948C14.5954 21.3622 14.2596 21.698 13.8454 21.698H10.4235C10.0092 21.698 9.67346 21.3622 9.67346 20.948V10.0828ZM11.1735 10.8328V20.198H13.0954V10.8328H11.1735Z" fill="black"/>
<path fill-rule="evenodd" clip-rule="evenodd" d="M3.51428 14.99C3.51428 14.5758 3.85007 14.24 4.26428 14.24H7.68617C8.10038 14.24 8.43617 14.5758 8.43617 14.99V20.9483C8.43617 21.3625 8.10038 21.6983 7.68617 21.6983H4.26428C3.85007 21.6983 3.51428 21.3625 3.51428 20.9483V14.99ZM5.01428 15.74V20.1983H6.93617V15.74H5.01428Z" fill="black"/>
</svg>
