<svg width="25" height="24" viewBox="0 0 25 24" fill="none" xmlns="http://www.w3.org/2000/svg">
<path fill-rule="evenodd" clip-rule="evenodd" d="M8.83661 13.4273C8.83661 14.6546 7.8417 15.6495 6.61441 15.6495C5.38713 15.6495 4.39221 14.6546 4.39221 13.4273C4.39221 12.2 5.38713 11.2051 6.61441 11.2051C7.8417 11.2051 8.83661 12.2 8.83661 13.4273ZM7.33661 13.4273C7.33661 13.8261 7.01327 14.1495 6.61441 14.1495C6.21555 14.1495 5.89221 13.8261 5.89221 13.4273C5.89221 13.0284 6.21555 12.7051 6.61441 12.7051C7.01327 12.7051 7.33661 13.0284 7.33661 13.4273Z" fill="black"/>
<path fill-rule="evenodd" clip-rule="evenodd" d="M17.7257 15.6495C18.953 15.6495 19.9479 14.6546 19.9479 13.4273C19.9479 12.2 18.953 11.2051 17.7257 11.2051C16.4985 11.2051 15.5035 12.2 15.5035 13.4273C15.5035 14.6546 16.4985 15.6495 17.7257 15.6495ZM17.7257 14.1495C18.1246 14.1495 18.4479 13.8261 18.4479 13.4273C18.4479 13.0284 18.1246 12.7051 17.7257 12.7051C17.3269 12.7051 17.0035 13.0284 17.0035 13.4273C17.0035 13.8261 17.3269 14.1495 17.7257 14.1495Z" fill="black"/>
<path fill-rule="evenodd" clip-rule="evenodd" d="M9.42886 6.64977C10.2659 7.03977 10.9079 7.84159 11.1878 9.12388L11.6822 8.92611C11.9956 8.80073 12.3453 8.80073 12.6587 8.92611L13.6678 9.32974C13.8908 8.09806 14.4307 7.27207 15.1752 6.80825C15.9158 6.34689 16.7347 6.32203 17.3557 6.43503C17.9745 6.54765 18.3966 6.97612 18.6395 7.38102L19.9619 9.5848C21.2829 10.3552 22.1707 11.7873 22.1707 13.4268C22.1707 15.8814 20.1808 17.8712 17.7263 17.8712C15.5274 17.8712 13.7016 16.2745 13.3449 14.1772H10.9963C10.6396 16.2745 8.81375 17.8712 6.61493 17.8712C4.16036 17.8712 2.17053 15.8814 2.17053 13.4268C2.17053 11.7751 3.07151 10.3339 4.40881 9.56775L6.49193 6.96401C6.62794 6.794 6.82208 6.63684 7.07476 6.5534C7.67597 6.35486 8.57775 6.25321 9.42886 6.64977ZM7.62038 7.95461C7.9784 7.85257 8.4244 7.83659 8.79535 8.00943C9.14519 8.17242 9.58304 8.57563 9.76407 9.66181C9.76572 9.67167 9.76755 9.68145 9.76956 9.69116L9.2949 9.88102C8.59452 9.35084 7.73218 9.02339 6.79521 8.98601L7.62038 7.95461ZM17.8522 8.98417L17.3533 8.1528C17.2455 7.97304 17.1392 7.92027 17.0871 7.9108C16.7062 7.84147 16.298 7.87607 15.9683 8.08142C15.6598 8.27365 15.2938 8.69417 15.1325 9.66181C15.1205 9.73382 15.0986 9.80172 15.0685 9.86434C15.8098 9.31042 16.7297 8.98242 17.7263 8.98242C17.7684 8.98242 17.8103 8.98301 17.8522 8.98417ZM13.962 11.063L12.1705 10.3464L10.3792 11.0629C10.6834 11.5462 10.897 12.0923 10.9964 12.6772H13.3448C13.4442 12.0923 13.6578 11.5463 13.962 11.063ZM9.55934 13.4268C9.55934 15.053 8.24108 16.3712 6.61493 16.3712C4.98879 16.3712 3.67053 15.053 3.67053 13.4268C3.67053 11.8007 4.98879 10.4824 6.61493 10.4824C8.24108 10.4824 9.55934 11.8007 9.55934 13.4268ZM20.6707 13.4268C20.6707 15.053 19.3524 16.3712 17.7263 16.3712C16.1001 16.3712 14.7819 15.053 14.7819 13.4268C14.7819 11.8007 16.1001 10.4824 17.7263 10.4824C19.3524 10.4824 20.6707 11.8007 20.6707 13.4268Z" fill="black"/>
</svg>
