<svg width="25" height="24" viewBox="0 0 25 24" fill="none" xmlns="http://www.w3.org/2000/svg">
<path fill-rule="evenodd" clip-rule="evenodd" d="M7.03148 5.41438C7.35493 5.15562 7.8269 5.20806 8.08566 5.53151L9.7069 7.55806L12.9261 5.94846C13.4926 5.66523 14.1723 6.00511 14.2856 6.62823L14.7703 9.29417L15.4532 9.25149C15.8666 9.22565 16.2227 9.53984 16.2485 9.95324C16.2744 10.3667 15.9602 10.7227 15.5468 10.7486L15.0405 10.7802L15.1622 11.4497C16.116 11.3171 17.0801 11.25 18.0478 11.25H20.8C21.3126 11.25 21.7764 11.6742 21.7428 12.2442C21.6553 13.725 20.7917 15.0722 19.8772 16.1152C18.9475 17.1755 17.8728 18.0254 17.1876 18.5176C16.9732 18.6716 16.7189 18.75 16.463 18.75H5.13981C4.70653 18.75 4.32814 18.4569 4.21992 18.0373L3.33825 14.6191C3.18315 14.0178 3.63717 13.4318 4.25814 13.4318H4.81152L3.34882 10.8721C3.14332 10.5125 3.26826 10.0544 3.6279 9.84885C3.98754 9.64334 4.44568 9.76829 4.65119 10.1279L6.53914 13.4318H6.90857L7.70611 11.2386L7.54679 11.2486C7.13338 11.2744 6.7773 10.9602 6.75147 10.5468C6.72563 10.1334 7.03982 9.77733 7.45322 9.75149L8.26534 9.70073L8.6512 8.63961L6.91435 6.46855C6.6556 6.1451 6.70804 5.67313 7.03148 5.41438ZM13.5331 10.8744L13.6849 11.7094C12.2322 12.0186 10.8126 12.4824 9.45061 13.0953L8.70267 13.4318H8.50467L9.33932 11.1365L13.5331 10.8744ZM9.89855 9.59866L10.1027 9.0372L12.941 7.61806L13.2629 9.38839L9.89855 9.59866ZM18.0478 12.75C15.296 12.75 12.5755 13.3339 10.0662 14.4632L9.21056 14.8482C9.088 14.9033 8.95512 14.9318 8.82072 14.9318H4.96801L5.56595 17.25H16.3807C17.0173 16.7875 17.9527 16.0347 18.7493 15.1263C19.4215 14.3596 19.9382 13.546 20.1479 12.75H18.0478Z" fill="black"/>
</svg>
