<svg width="25" height="25" viewBox="0 0 25 25" fill="none" xmlns="http://www.w3.org/2000/svg">
<path fill-rule="evenodd" clip-rule="evenodd" d="M6.26257 3.15869C6.26257 2.74448 6.59836 2.40869 7.01257 2.40869H18.4954C18.9096 2.40869 19.2454 2.74448 19.2454 3.15869V20.974C19.2454 21.2613 19.0813 21.5233 18.8228 21.6488C18.5644 21.7742 18.257 21.741 18.0313 21.5632L12.754 17.4067L7.47663 21.5632C7.25095 21.741 6.94356 21.7742 6.68511 21.6488C6.42667 21.5233 6.26257 21.2613 6.26257 20.974V3.15869ZM7.76257 3.90869V19.4286L12.2899 15.8629C12.5621 15.6485 12.9458 15.6485 13.218 15.8629L17.7454 19.4286V3.90869H7.76257Z" fill="black"/>
</svg>
