<svg width="24" height="25" viewBox="0 0 24 25" fill="none" xmlns="http://www.w3.org/2000/svg">
<path fill-rule="evenodd" clip-rule="evenodd" d="M7.74998 5.2V6.25H4.39998C3.76485 6.25 3.24998 6.76487 3.24998 7.4V11.9838C3.24976 11.9942 3.24976 12.0047 3.24998 12.0151V19.6C3.24998 20.2351 3.76485 20.75 4.39998 20.75H19.6C20.2351 20.75 20.75 20.2351 20.75 19.6V12.0173C20.7503 12.0057 20.7503 11.9941 20.75 11.9825V7.4C20.75 6.76487 20.2351 6.25 19.6 6.25H16.25V5.2C16.25 4.67533 15.8247 4.25 15.3 4.25H8.69998C8.17531 4.25 7.74998 4.67533 7.74998 5.2ZM9.24998 5.75V6.25H14.75V5.75H9.24998ZM19.25 11.816V7.75H4.74998V11.5308C5.39307 11.8358 6.26647 12.218 7.15878 12.5461C7.92519 12.8278 8.65547 13.0504 9.24998 13.165V12.4C9.24998 11.7649 9.76485 11.25 10.4 11.25H13.6C14.2351 11.25 14.75 11.7649 14.75 12.4V13.1615C15.5458 13.0573 16.4937 12.8921 17.3422 12.6634C17.9283 12.5054 18.434 12.3256 18.802 12.1317C18.9852 12.0353 19.1135 11.946 19.1963 11.8702C19.2193 11.8492 19.2367 11.8311 19.25 11.816ZM13.25 13.9906C13.2499 13.9963 13.2499 14.002 13.25 14.0076V15.25H10.75V12.75H13.25V13.9906ZM14.75 14.6735C15.6345 14.5648 16.7357 14.3805 17.7327 14.1116C18.2665 13.9677 18.7937 13.7935 19.25 13.5826V19.25H4.74998V13.1817C5.31736 13.435 5.97305 13.7083 6.64118 13.9539C7.49622 14.2683 8.43423 14.5615 9.24998 14.6865V15.6C9.24998 16.2351 9.76485 16.75 10.4 16.75H11.25V17.5C11.25 17.9142 11.5858 18.25 12 18.25C12.4142 18.25 12.75 17.9142 12.75 17.5V16.75H13.6C14.2351 16.75 14.75 16.2351 14.75 15.6V14.6735Z" fill="black"/>
</svg>
