<svg width="24" height="24" viewBox="0 0 24 24" fill="none" xmlns="http://www.w3.org/2000/svg">
<path fill-rule="evenodd" clip-rule="evenodd" d="M13.2142 3.99498L17.9382 8.24994H19C19.9665 8.24994 20.75 9.03344 20.75 9.99994V18.9999C20.75 19.9664 19.9665 20.7499 19 20.7499H5C4.0335 20.7499 3.25 19.9664 3.25 18.9999V9.99994C3.25 9.03344 4.0335 8.24994 5 8.24994H6.06152L10.7857 3.99487C10.7884 3.32656 11.331 2.78564 11.9999 2.78564C12.6689 2.78564 13.2115 3.32663 13.2142 3.99498ZM11.9999 5.21422C12.0993 5.21422 12.1959 5.20228 12.2883 5.17977L15.6969 8.24994H8.30281L11.7115 5.17974C11.8039 5.20227 11.9005 5.21422 11.9999 5.21422ZM5 9.74994C4.86193 9.74994 4.75 9.86187 4.75 9.99994V18.9999C4.75 19.138 4.86193 19.2499 5 19.2499H19C19.1381 19.2499 19.25 19.138 19.25 18.9999V9.99994C19.25 9.86187 19.1381 9.74994 19 9.74994H5Z" fill="black"/>
<path fill-rule="evenodd" clip-rule="evenodd" d="M9.42276 15.8199C9.42276 15.9856 9.55708 16.1199 9.72276 16.1199H9.95834C10.124 16.1199 10.2583 15.9856 10.2583 15.8199V15.5062C10.2583 15.3405 10.3927 15.2062 10.5583 15.2062H10.7212C10.814 15.2062 10.9022 15.1993 10.9857 15.1857C11.0333 15.1779 11.0795 15.1679 11.1241 15.1557C11.1255 15.1553 11.1268 15.1549 11.1282 15.1545C11.1942 15.1362 11.2569 15.113 11.3163 15.0849C11.3229 15.0818 11.3294 15.0786 11.3359 15.0754C11.4042 15.0417 11.4665 15.0024 11.5229 14.9575C11.5856 14.9076 11.641 14.8508 11.6891 14.7872C11.6911 14.7846 11.693 14.7819 11.695 14.7793C11.7131 14.7548 11.7302 14.7292 11.7462 14.7027C11.8443 14.5414 11.8934 14.3506 11.8934 14.1301C11.8934 13.9117 11.8458 13.7209 11.7507 13.5576C11.7339 13.5288 11.716 13.5012 11.6969 13.4747C11.6937 13.4704 11.6906 13.4661 11.6874 13.4618C11.6396 13.3978 11.5848 13.3407 11.5229 13.2904C11.4706 13.2478 11.4133 13.2102 11.3509 13.1773C11.283 13.1416 11.2105 13.1129 11.1336 13.0913C11.1294 13.0901 11.1252 13.089 11.1209 13.0879C11.0074 13.0573 10.8842 13.0421 10.7513 13.0421H9.72276C9.55708 13.0421 9.42276 13.1764 9.42276 13.3421V15.8199ZM10.2583 14.2624C10.2583 14.4251 10.3902 14.5569 10.5529 14.5569C10.6148 14.5569 10.6709 14.5502 10.7212 14.5367C10.7508 14.5287 10.7783 14.5184 10.8039 14.5058C10.874 14.4708 10.9276 14.4212 10.9647 14.3571C10.9673 14.3527 10.9698 14.3483 10.9722 14.3438C10.9725 14.3432 10.9729 14.3425 10.9733 14.3418C10.9873 14.3154 10.9983 14.2871 11.0063 14.257C11.0066 14.2556 11.007 14.2543 11.0073 14.253C11.017 14.215 11.0218 14.174 11.0218 14.1301C11.0218 14.0803 11.0157 14.0346 11.0035 13.993C10.9945 13.9623 10.9822 13.9339 10.9665 13.9077C10.9659 13.9067 10.9653 13.9057 10.9647 13.9047C10.9276 13.8416 10.874 13.7935 10.8039 13.7604C10.7872 13.7522 10.7697 13.745 10.7513 13.7387C10.6935 13.7191 10.6274 13.7093 10.5529 13.7093C10.3902 13.7093 10.2583 13.8412 10.2583 14.0039V14.2624ZM12.5809 15.8199C12.5809 15.9856 12.7152 16.1199 12.8809 16.1199H14.4931C14.6588 16.1199 14.7931 15.9856 14.7931 15.8199V15.7466C14.7931 15.5809 14.6588 15.4466 14.4931 15.4466H13.681C13.5349 15.4466 13.4165 15.3282 13.4165 15.1821C13.4165 15.036 13.5349 14.9176 13.681 14.9176H14.3849C14.5506 14.9176 14.6849 14.7833 14.6849 14.6176V14.5444C14.6849 14.3787 14.5506 14.2444 14.3849 14.2444H13.681C13.5349 14.2444 13.4165 14.1259 13.4165 13.9799C13.4165 13.8338 13.5349 13.7154 13.681 13.7154H14.4991C14.6648 13.7154 14.7991 13.581 14.7991 13.4154V13.3421C14.7991 13.1764 14.6648 13.0421 14.4991 13.0421H12.8809C12.7152 13.0421 12.5809 13.1764 12.5809 13.3421V15.8199ZM15.5944 15.8199C15.5944 15.9856 15.7287 16.1199 15.8944 16.1199H16.13C16.2956 16.1199 16.43 15.9856 16.43 15.8199V14.5147C16.43 14.5081 16.4352 14.5028 16.4418 14.5028C16.4457 14.5028 16.4493 14.5048 16.4515 14.508L17.4707 15.9899C17.5267 16.0713 17.6191 16.1199 17.7179 16.1199H17.9574C18.1231 16.1199 18.2574 15.9856 18.2574 15.8199V13.3421C18.2574 13.1764 18.1231 13.0421 17.9574 13.0421H17.7218C17.5561 13.0421 17.4218 13.1764 17.4218 13.3421V14.6374C17.4218 14.6461 17.4148 14.6531 17.4061 14.6531C17.4009 14.6531 17.396 14.6505 17.3931 14.6462L16.393 13.1735C16.3371 13.0913 16.2442 13.0421 16.1448 13.0421H15.8944C15.7287 13.0421 15.5944 13.1764 15.5944 13.3421V15.8199ZM8.36476 15.5891C8.25056 15.7463 8.11037 15.872 7.94419 15.966C7.9437 15.9663 7.94321 15.9666 7.94272 15.9669C7.93385 15.9719 7.9249 15.9768 7.91588 15.9816C7.68945 16.1019 7.43698 16.162 7.15845 16.162C6.87792 16.162 6.62444 16.1014 6.39801 15.9801C6.39076 15.9762 6.38355 15.9722 6.37639 15.9682C6.37369 15.9666 6.371 15.9651 6.36831 15.9636C6.15678 15.842 5.98734 15.6692 5.86 15.4451C5.84306 15.415 5.82721 15.384 5.81244 15.3521C5.81132 15.3497 5.8102 15.3472 5.80909 15.3448C5.71078 15.1293 5.66162 14.8747 5.66162 14.581C5.66162 14.2859 5.71065 14.031 5.80871 13.8162C5.80921 13.8151 5.8097 13.814 5.8102 13.8129C5.8256 13.7794 5.8422 13.7469 5.86 13.7154C5.98783 13.4895 6.15809 13.3166 6.37076 13.1968C6.37125 13.1965 6.37174 13.1962 6.37223 13.196C6.38076 13.1912 6.38935 13.1865 6.39801 13.1818C6.62444 13.0606 6.87792 13 7.15845 13C7.43698 13 7.68945 13.0606 7.91588 13.1818C7.9238 13.186 7.93166 13.1903 7.93946 13.1947C7.94217 13.1962 7.94488 13.1977 7.94758 13.1992C8.11227 13.2924 8.25133 13.4173 8.36476 13.5739C8.39705 13.6185 8.42727 13.6656 8.4554 13.7154C8.47295 13.7462 8.48934 13.778 8.50457 13.8108C8.5057 13.8132 8.50682 13.8156 8.50794 13.8181C8.60617 14.0325 8.65528 14.2868 8.65528 14.581C8.65528 14.8762 8.60581 15.1317 8.50687 15.3474C8.50637 15.3484 8.50587 15.3495 8.50537 15.3506C8.48991 15.3841 8.47325 15.4166 8.4554 15.4481C8.42727 15.4976 8.39705 15.5446 8.36476 15.5891ZM7.72202 14.1151C7.72364 14.1193 7.72523 14.1235 7.7268 14.1277C7.72698 14.1282 7.72716 14.1287 7.72734 14.1292C7.77288 14.2528 7.79565 14.4034 7.79565 14.581C7.79565 14.7586 7.77287 14.9097 7.7273 15.0343C7.72713 15.0348 7.72695 15.0353 7.72677 15.0358C7.72521 15.04 7.72363 15.0442 7.72202 15.0484C7.68218 15.1529 7.6262 15.2369 7.55406 15.3002C7.55337 15.3008 7.55269 15.3014 7.552 15.302C7.53767 15.3144 7.52271 15.3261 7.50711 15.3369C7.41293 15.402 7.29671 15.4346 7.15845 15.4346C7.02019 15.4346 6.90347 15.402 6.80829 15.3369C6.79332 15.3264 6.77893 15.3151 6.7651 15.3031C6.76405 15.3022 6.763 15.3013 6.76196 15.3004C6.69027 15.237 6.63408 15.153 6.59338 15.0484C6.59181 15.0442 6.59026 15.04 6.58874 15.0358C6.58825 15.0344 6.58777 15.0331 6.58729 15.0317C6.54326 14.9076 6.52125 14.7574 6.52125 14.581C6.52125 14.4027 6.54372 14.2517 6.58868 14.1278C6.58882 14.1274 6.58895 14.127 6.58909 14.1266C6.5905 14.1228 6.59193 14.1189 6.59338 14.1151C6.63397 14.0099 6.68998 13.9259 6.76139 13.8632C6.76171 13.8629 6.76203 13.8626 6.76235 13.8623C6.77702 13.8495 6.79233 13.8376 6.80829 13.8266C6.90347 13.7604 7.02019 13.7274 7.15845 13.7274C7.29671 13.7274 7.41293 13.7604 7.50711 13.8266C7.52276 13.8373 7.53777 13.8488 7.55215 13.8612C7.55284 13.8618 7.55353 13.8624 7.55421 13.863C7.62628 13.9258 7.68221 14.0098 7.72202 14.1151Z" fill="black" stroke="black" stroke-width="0.2"/>
</svg>
