<svg width="25" height="25" viewBox="0 0 25 25" fill="none" xmlns="http://www.w3.org/2000/svg">
<path d="M6.96992 11.7373C6.96992 12.422 7.52498 12.9771 8.20968 12.9771C8.89439 12.9771 9.44944 12.422 9.44944 11.7373C9.44944 11.0526 8.89439 10.4976 8.20968 10.4976C7.52498 10.4976 6.96992 11.0526 6.96992 11.7373Z" fill="black"/>
<path d="M10.9372 11.7373C10.9372 12.422 11.4922 12.9771 12.1769 12.9771C12.8616 12.9771 13.4167 12.422 13.4167 11.7373C13.4167 11.0526 12.8616 10.4976 12.1769 10.4976C11.4922 10.4976 10.9372 11.0526 10.9372 11.7373Z" fill="black"/>
<path d="M12.1769 16.4585C11.4922 16.4585 10.9372 15.9035 10.9372 15.2188C10.9372 14.5341 11.4922 13.979 12.1769 13.979C12.8616 13.979 13.4167 14.5341 13.4167 15.2188C13.4167 15.9035 12.8616 16.4585 12.1769 16.4585Z" fill="black"/>
<path d="M6.96992 15.2188C6.96992 15.9035 7.52498 16.4585 8.20968 16.4585C8.89439 16.4585 9.44944 15.9035 9.44944 15.2188C9.44944 14.5341 8.89439 13.979 8.20968 13.979C7.52498 13.979 6.96992 14.5341 6.96992 15.2188Z" fill="black"/>
<path d="M8.20968 20.091C7.52498 20.091 6.96992 19.536 6.96992 18.8513C6.96992 18.1666 7.52498 17.6115 8.20968 17.6115C8.89439 17.6115 9.44944 18.1666 9.44944 18.8513C9.44944 19.536 8.89439 20.091 8.20968 20.091Z" fill="black"/>
<path d="M10.9372 18.8513C10.9372 19.536 11.4922 20.091 12.1769 20.091C12.8616 20.091 13.4167 19.536 13.4167 18.8513C13.4167 18.1666 12.8616 17.6115 12.1769 17.6115C11.4922 17.6115 10.9372 18.1666 10.9372 18.8513Z" fill="black"/>
<path d="M16.1505 12.9771C15.4658 12.9771 14.9107 12.422 14.9107 11.7373C14.9107 11.0526 15.4658 10.4976 16.1505 10.4976C16.8352 10.4976 17.3903 11.0526 17.3903 11.7373C17.3903 12.422 16.8352 12.9771 16.1505 12.9771Z" fill="black"/>
<path d="M14.9107 15.2188C14.9107 15.9035 15.4658 16.4585 16.1505 16.4585C16.8352 16.4585 17.3903 15.9035 17.3903 15.2188C17.3903 14.5341 16.8352 13.979 16.1505 13.979C15.4658 13.979 14.9107 14.5341 14.9107 15.2188Z" fill="black"/>
<path d="M16.1505 20.091C15.4658 20.091 14.9107 19.536 14.9107 18.8513C14.9107 18.1666 15.4658 17.6115 16.1505 17.6115C16.8352 17.6115 17.3903 18.1666 17.3903 18.8513C17.3903 19.536 16.8352 20.091 16.1505 20.091Z" fill="black"/>
<path fill-rule="evenodd" clip-rule="evenodd" d="M7.44202 4.72754C7.0278 4.72754 6.69202 5.06333 6.69202 5.47754V8.64402C6.69202 9.05823 7.0278 9.39402 7.44202 9.39402H16.9C17.3143 9.39402 17.65 9.05823 17.65 8.64402V5.47754C17.65 5.06333 17.3143 4.72754 16.9 4.72754H7.44202ZM8.19202 7.89402V6.22754H16.15V7.89402H8.19202Z" fill="black"/>
<path fill-rule="evenodd" clip-rule="evenodd" d="M4.56897 3.69971C4.56897 3.00935 5.12861 2.44971 5.81897 2.44971H18.522C19.2123 2.44971 19.772 3.00935 19.772 3.69971V21.1332C19.772 21.8235 19.2123 22.3832 18.522 22.3832H5.81897C5.12861 22.3832 4.56897 21.8235 4.56897 21.1332V3.69971ZM6.06897 3.94971V20.8832H18.272V3.94971H6.06897Z" fill="black"/>
</svg>
