<svg width="24" height="24" viewBox="0 0 24 24" fill="none" xmlns="http://www.w3.org/2000/svg">
<path fill-rule="evenodd" clip-rule="evenodd" d="M7 3.25C7.41421 3.25 7.75 3.58579 7.75 4V5.23741L6.25 5.23741V4C6.25 3.58579 6.58579 3.25 7 3.25ZM5 5.25C4.0335 5.25 3.25 6.0335 3.25 7V8.6344L20 8.6344H20.75V7C20.75 6.0335 19.9665 5.25 19 5.25H5ZM20.75 10.1344H20L3.25 10.1344V19C3.25 19.9665 4.0335 20.75 5 20.75H19C19.9665 20.75 20.75 19.9665 20.75 19V10.1344ZM9 12.9074C9 13.5978 8.44036 14.1574 7.75 14.1574C7.05964 14.1574 6.5 13.5978 6.5 12.9074C6.5 12.2171 7.05964 11.6574 7.75 11.6574C8.44036 11.6574 9 12.2171 9 12.9074ZM7.75 17.7352C8.44036 17.7352 9 17.1756 9 16.4852C9 15.7949 8.44036 15.2352 7.75 15.2352C7.05964 15.2352 6.5 15.7949 6.5 16.4852C6.5 17.1756 7.05964 17.7352 7.75 17.7352ZM13.25 12.9074C13.25 13.5978 12.6904 14.1574 12 14.1574C11.3096 14.1574 10.75 13.5978 10.75 12.9074C10.75 12.2171 11.3096 11.6574 12 11.6574C12.6904 11.6574 13.25 12.2171 13.25 12.9074ZM12 17.7352C12.6904 17.7352 13.25 17.1756 13.25 16.4852C13.25 15.7949 12.6904 15.2352 12 15.2352C11.3096 15.2352 10.75 15.7949 10.75 16.4852C10.75 17.1756 11.3096 17.7352 12 17.7352ZM17.5 12.9074C17.5 13.5978 16.9404 14.1574 16.25 14.1574C15.5596 14.1574 15 13.5978 15 12.9074C15 12.2171 15.5596 11.6574 16.25 11.6574C16.9404 11.6574 17.5 12.2171 17.5 12.9074ZM16.25 17.7352C16.9404 17.7352 17.5 17.1756 17.5 16.4852C17.5 15.7949 16.9404 15.2352 16.25 15.2352C15.5596 15.2352 15 15.7949 15 16.4852C15 17.1756 15.5596 17.7352 16.25 17.7352ZM17.75 4C17.75 3.58579 17.4142 3.25 17 3.25C16.5858 3.25 16.25 3.58579 16.25 4V5.23743L17.75 5.23743V4Z" fill="black"/>
</svg>
