<svg width="25" height="25" viewBox="0 0 25 25" fill="none" xmlns="http://www.w3.org/2000/svg">
<rect x="4.17053" y="6.43848" width="16" height="14" rx="1" stroke="black" stroke-width="1.5" stroke-linejoin="round"/>
<path d="M7.92053 4.43848C7.92053 4.02426 7.58475 3.68848 7.17053 3.68848C6.75632 3.68848 6.42053 4.02426 6.42053 4.43848L7.92053 4.43848ZM6.42053 6.43848L6.42053 7.18848L7.92053 7.18848L7.92053 6.43848L6.42053 6.43848ZM6.42053 4.43848L6.42053 6.43848L7.92053 6.43848L7.92053 4.43848L6.42053 4.43848Z" fill="black"/>
<path d="M17.9205 4.43848C17.9205 4.02426 17.5847 3.68848 17.1705 3.68848C16.7563 3.68848 16.4205 4.02426 16.4205 4.43848L17.9205 4.43848ZM16.4205 6.43848L16.4205 7.18848L17.9205 7.18848L17.9205 6.43848L16.4205 6.43848ZM16.4205 4.43848L16.4205 6.43848L17.9205 6.43848L17.9205 4.43848L16.4205 4.43848Z" fill="black"/>
<path d="M5.17053 9.82275H20.1705" stroke="black" stroke-width="1.5" stroke-linecap="square" stroke-linejoin="round"/>
<circle cx="7.92053" cy="13.3457" r="1.25" fill="black"/>
<circle cx="7.92053" cy="16.9238" r="1.25" fill="black"/>
<circle cx="12.1705" cy="13.3457" r="1.25" fill="black"/>
<circle cx="12.1705" cy="16.9238" r="1.25" fill="black"/>
<circle cx="16.4205" cy="13.3457" r="1.25" fill="black"/>
<circle cx="16.4205" cy="16.9238" r="1.25" fill="black"/>
</svg>
