<svg width="24" height="24" viewBox="0 0 24 24" fill="none" xmlns="http://www.w3.org/2000/svg">
<path fill-rule="evenodd" clip-rule="evenodd" d="M7.75 4C7.75 3.58579 7.41421 3.25 7 3.25C6.58579 3.25 6.25 3.58579 6.25 4V5.25H5C4.0335 5.25 3.25 6.0335 3.25 7V19C3.25 19.9665 4.0335 20.75 5 20.75H19C19.9665 20.75 20.75 19.9665 20.75 19V10.1344V8.6344V7C20.75 6.0335 19.9665 5.25 19 5.25H17.75V4C17.75 3.58579 17.4142 3.25 17 3.25C16.5858 3.25 16.25 3.58579 16.25 4V5.25H7.75V4ZM19.25 8.6344V7C19.25 6.86193 19.1381 6.75 19 6.75H17.75H16.25H7.75H6.25H5C4.86193 6.75 4.75 6.86193 4.75 7V8.6344H5H19.25ZM4.75 10.1344V19C4.75 19.1381 4.86193 19.25 5 19.25H19C19.1381 19.25 19.25 19.1381 19.25 19V10.1344H5H4.75ZM9 12.9073C9 13.5977 8.44036 14.1573 7.75 14.1573C7.05964 14.1573 6.5 13.5977 6.5 12.9073C6.5 12.217 7.05964 11.6573 7.75 11.6573C8.44036 11.6573 9 12.217 9 12.9073ZM7.75 17.7352C8.44036 17.7352 9 17.1756 9 16.4852C9 15.7949 8.44036 15.2352 7.75 15.2352C7.05964 15.2352 6.5 15.7949 6.5 16.4852C6.5 17.1756 7.05964 17.7352 7.75 17.7352ZM13.25 12.9073C13.25 13.5977 12.6904 14.1573 12 14.1573C11.3096 14.1573 10.75 13.5977 10.75 12.9073C10.75 12.217 11.3096 11.6573 12 11.6573C12.6904 11.6573 13.25 12.217 13.25 12.9073ZM12 17.7352C12.6904 17.7352 13.25 17.1756 13.25 16.4852C13.25 15.7949 12.6904 15.2352 12 15.2352C11.3096 15.2352 10.75 15.7949 10.75 16.4852C10.75 17.1756 11.3096 17.7352 12 17.7352ZM17.5 12.9073C17.5 13.5977 16.9404 14.1573 16.25 14.1573C15.5596 14.1573 15 13.5977 15 12.9073C15 12.217 15.5596 11.6573 16.25 11.6573C16.9404 11.6573 17.5 12.217 17.5 12.9073ZM16.25 17.7352C16.9404 17.7352 17.5 17.1756 17.5 16.4852C17.5 15.7949 16.9404 15.2352 16.25 15.2352C15.5596 15.2352 15 15.7949 15 16.4852C15 17.1756 15.5596 17.7352 16.25 17.7352Z" fill="black"/>
</svg>
