<svg width="25" height="25" viewBox="0 0 25 25" fill="none" xmlns="http://www.w3.org/2000/svg">
<path fill-rule="evenodd" clip-rule="evenodd" d="M12.1513 8.84521C9.6826 8.84521 7.68127 10.8465 7.68127 13.3153C7.68127 15.784 9.6826 17.7854 12.1513 17.7854C14.6201 17.7854 16.6214 15.784 16.6214 13.3153C16.6214 10.8465 14.6201 8.84521 12.1513 8.84521ZM9.18127 13.3153C9.18127 11.675 10.511 10.3452 12.1513 10.3452C13.7917 10.3452 15.1214 11.675 15.1214 13.3153C15.1214 14.9556 13.7917 16.2854 12.1513 16.2854C10.511 16.2854 9.18127 14.9556 9.18127 13.3153Z" fill="black"/>
<path d="M17.1324 8.66919C16.7182 8.66919 16.3824 9.00498 16.3824 9.41919C16.3824 9.8334 16.7182 10.1692 17.1324 10.1692H19.1082C19.5225 10.1692 19.8582 9.8334 19.8582 9.41919C19.8582 9.00498 19.5225 8.66919 19.1082 8.66919H17.1324Z" fill="black"/>
<path fill-rule="evenodd" clip-rule="evenodd" d="M4.43713 4.91504C4.43713 4.22468 4.99678 3.66504 5.68713 3.66504H8.57551C9.26586 3.66504 9.82551 4.22468 9.82551 4.91504V6.18335H20.3476C21.3141 6.18335 22.0976 6.96685 22.0976 7.93335V18.6958C22.0976 19.6623 21.3141 20.4458 20.3476 20.4458H3.94006C2.97356 20.4458 2.19006 19.6623 2.19006 18.6958V7.93335C2.19006 6.96685 2.97356 6.18335 3.94006 6.18335H4.43713V4.91504ZM8.32551 5.16504V6.18335H5.93713V5.16504H8.32551ZM3.69006 7.93335C3.69006 7.79528 3.80199 7.68335 3.94006 7.68335H20.3476C20.4856 7.68335 20.5976 7.79528 20.5976 7.93335V18.6958C20.5976 18.8339 20.4856 18.9458 20.3476 18.9458H3.94006C3.80199 18.9458 3.69006 18.8339 3.69006 18.6958V7.93335Z" fill="black"/>
</svg>
