<svg width="25" height="25" viewBox="0 0 25 25" fill="none" xmlns="http://www.w3.org/2000/svg">
<path fill-rule="evenodd" clip-rule="evenodd" d="M13.6322 4.06579C14.4537 3.54859 15.5922 3.18384 16.5326 3.61798C17.0733 3.86759 17.5055 4.19802 17.7988 4.62142C18.0967 5.05144 18.2178 5.52947 18.2094 6.00994C18.1932 6.92734 17.707 7.84905 17.1401 8.63482C15.9868 10.2333 14.152 11.7368 13.2187 12.3723C12.964 12.5458 12.6291 12.5458 12.3744 12.3723C11.423 11.7245 9.57173 10.3687 8.4016 8.85538C7.82238 8.10628 7.32909 7.21708 7.29805 6.28628C7.26427 5.27318 7.77885 4.38867 8.83128 3.72978C9.74736 3.15624 10.9978 3.53507 11.8472 4.03584C12.1737 4.22832 12.4791 4.45246 12.7866 4.6733C13.0642 4.46454 13.3379 4.25107 13.6322 4.06579ZM13.3763 6.08782C13.2915 6.13888 13.0694 6.27052 12.7939 6.27052C12.5204 6.27052 12.2945 6.13837 12.2123 6.09034L12.2113 6.08976C11.82 5.86091 11.4766 5.55858 11.0855 5.32801C10.5282 4.99949 10.0329 4.8618 9.57496 5.03455C8.9259 5.4573 8.785 5.86994 8.79722 6.23628C8.8125 6.69456 9.07518 7.27429 9.58825 7.93784C10.4621 9.068 11.8288 10.148 12.79 10.8337C13.6966 10.1523 15.0547 8.96154 15.9236 7.75718C16.3153 7.21424 17.0468 6.16995 16.5658 5.47557C16.4652 5.33044 16.2812 5.16051 15.9434 4.99847C15.4394 4.84609 14.946 5.0112 14.4314 5.33517C14.0654 5.56558 13.7466 5.86509 13.3763 6.08782Z" fill="black"/>
<path fill-rule="evenodd" clip-rule="evenodd" d="M12.2486 18.3006C12.2486 17.7801 12.2805 17.2499 12.2458 16.7305C12.2349 16.5674 12.2049 16.3486 12.132 16.0897C11.9854 15.5685 11.6704 14.9032 11.0203 14.2146L11.0109 14.2043L10.974 14.1647C10.9424 14.1308 10.8968 14.0826 10.8394 14.0229C10.7246 13.9038 10.5617 13.7384 10.367 13.5515C10.2165 13.4069 10.0435 13.2462 9.85648 13.0822C9.87645 12.7234 9.89945 12.1476 9.78498 11.6394C9.7091 11.3024 9.55899 10.9142 9.2462 10.6039C8.9018 10.2623 8.38416 10.0656 7.89773 10.0983C7.86222 10.0364 7.82351 9.97585 7.78128 9.91724C7.48288 9.50304 7.03096 9.21967 6.44104 9.1925C6.24168 8.67599 5.92425 8.28957 5.54625 8.05604C5.265 7.88227 4.89933 7.76771 4.52716 7.84515C4.3338 7.88538 4.13068 7.9813 3.96843 8.15718C3.80346 8.33602 3.71913 8.55621 3.70053 8.77583C3.62089 9.7163 3.6205 11.8203 3.62952 13.1923C3.63648 14.2513 4.00522 15.2706 4.66303 16.0929L6.42127 18.2907C6.04113 18.618 5.80044 19.1028 5.80044 19.6439C5.80044 20.6297 6.59964 21.4289 7.58549 21.4289H11.0729C12.0588 21.4289 12.858 20.6297 12.858 19.6439C12.858 19.1083 12.6221 18.6278 12.2486 18.3006ZM5.15811 10.2793C5.15415 10.2291 5.14895 10.1813 5.14268 10.1359C5.1224 11.0841 5.12347 12.2667 5.12949 13.1824C5.13419 13.8982 5.38337 14.5921 5.83434 15.1558L7.93641 17.7834H10.7486C10.7486 17.3628 10.8032 16.9049 10.6881 16.496C10.5296 15.9326 10.1575 15.4773 9.75887 15.0634C9.65492 14.9554 9.50603 14.8043 9.32817 14.6335C9.00188 14.3202 8.59619 13.9585 8.20085 13.6746C8.18675 13.7572 8.18431 13.8526 8.19898 13.9461C8.22426 14.1074 8.31245 14.1779 8.39418 14.3051L9.23475 15.0667C9.54171 15.3448 9.56509 15.8191 9.28697 16.126C9.00886 16.433 8.53456 16.4564 8.2276 16.1783L5.3919 13.609C5.2341 13.466 5.14451 13.2627 5.14548 13.0498L5.15811 10.2793ZM8.31021 11.922C8.31191 11.9785 8.31305 12.0345 8.31372 12.0897C8.32428 12.0916 8.33483 12.0937 8.34535 12.0959C8.33884 12.0529 8.33101 12.0105 8.32164 11.9689C8.31794 11.9525 8.31412 11.9369 8.31021 11.922ZM6.79865 12.76L6.79438 12.8556L6.64699 12.722L6.65499 10.9684C6.6998 11.0827 6.73957 11.2345 6.76796 11.4274C6.83747 11.8999 6.81632 12.3684 6.79865 12.76ZM7.30044 19.6439C7.30044 19.4864 7.42806 19.3588 7.58549 19.3588H11.0729C11.2304 19.3588 11.358 19.4864 11.358 19.6439C11.358 19.8013 11.2304 19.9289 11.0729 19.9289H7.58549C7.42806 19.9289 7.30044 19.8013 7.30044 19.6439Z" fill="black"/>
<path fill-rule="evenodd" clip-rule="evenodd" d="M13.6969 18.2998C13.3228 18.627 13.0865 19.1078 13.0865 19.6439C13.0865 20.6297 13.8857 21.4289 14.8716 21.4289H18.359C19.3449 21.4289 20.1441 20.6297 20.1441 19.6439C20.1441 19.1031 19.9036 18.6185 19.5238 18.2912L21.2825 16.0929C21.9403 15.2706 22.309 14.2513 22.316 13.1923C22.325 11.8203 22.3246 9.7163 22.245 8.77583C22.2264 8.55621 22.142 8.33602 21.9771 8.15718C21.8148 7.9813 21.6117 7.88538 21.4183 7.84515C21.0462 7.76771 20.6805 7.88227 20.3992 8.05604C20.0212 8.28958 19.7038 8.67602 19.5044 9.19255C18.915 9.21999 18.4634 9.50328 18.1652 9.91724C18.123 9.97587 18.0842 10.0364 18.0487 10.0984C18.0272 10.0969 18.0054 10.0963 17.9834 10.0967C17.4699 10.1058 17.0294 10.2765 16.6993 10.6039C16.3865 10.9142 16.2364 11.3024 16.1605 11.6394C16.0461 12.1476 16.0691 12.7234 16.089 13.0822C15.902 13.2462 15.729 13.4069 15.5785 13.5515C15.3547 13.7663 15.1353 13.9863 14.9252 14.2146C14.2751 14.9032 13.9601 15.5685 13.8135 16.0897C13.7406 16.3486 13.7106 16.5674 13.6997 16.7305C13.665 17.2501 13.6969 17.7793 13.6969 18.2998ZM20.8028 10.1359C20.7966 10.1813 20.7914 10.2291 20.7874 10.2793L20.8 13.0498C20.801 13.2627 20.7114 13.466 20.5536 13.609L17.7179 16.1783C17.4109 16.4564 16.9366 16.433 16.6585 16.126C16.3804 15.8191 16.4038 15.3448 16.7108 15.0667L17.5513 14.3051C17.633 14.1779 17.7212 14.1074 17.7465 13.9461C17.7612 13.8526 17.7587 13.7572 17.7446 13.6746C17.3493 13.9585 16.9436 14.3202 16.6173 14.6335C16.4162 14.8266 16.2187 15.0241 16.0299 15.2293C15.6933 15.5969 15.3941 16.01 15.2574 16.496C15.2136 16.6516 15.1969 16.8013 15.1969 16.9612V17.7834H18.0091L20.1112 15.1558C20.5621 14.5921 20.8113 13.8982 20.816 13.1824C20.822 12.2667 20.8231 11.0841 20.8028 10.1359ZM17.6328 12.0895C17.6219 12.0915 17.611 12.0936 17.6002 12.0959C17.6067 12.0529 17.6145 12.0105 17.6239 11.9689C17.6279 11.951 17.6321 11.934 17.6364 11.9179C17.6346 11.9757 17.6334 12.033 17.6328 12.0895ZM19.1521 12.8547L19.2985 12.722L19.2905 10.9709C19.2461 11.0848 19.2067 11.2358 19.1785 11.4274C19.109 11.8999 19.1302 12.3684 19.1478 12.76L19.1521 12.8547ZM17.6878 13.5041L17.686 13.5019C17.686 13.5019 17.6865 13.5022 17.6878 13.5041ZM18.359 19.3588C18.5165 19.3588 18.6441 19.4864 18.6441 19.6439C18.6441 19.8013 18.5165 19.9289 18.359 19.9289H14.8716C14.7142 19.9289 14.5865 19.8013 14.5865 19.6439C14.5865 19.4864 14.7142 19.3588 14.8716 19.3588H18.359Z" fill="black"/>
</svg>
