<svg width="25" height="25" viewBox="0 0 25 25" fill="none" xmlns="http://www.w3.org/2000/svg">
<path d="M7.46186 16.0893C7.9318 16.0893 8.31276 15.7083 8.31276 15.2384C8.31276 14.7684 7.9318 14.3875 7.46186 14.3875C6.99192 14.3875 6.61096 14.7684 6.61096 15.2384C6.61096 15.7083 6.99192 16.0893 7.46186 16.0893Z" fill="black"/>
<path d="M11.4924 15.2384C11.4924 15.7083 11.1115 16.0893 10.6415 16.0893C10.1716 16.0893 9.79065 15.7083 9.79065 15.2384C9.79065 14.7684 10.1716 14.3875 10.6415 14.3875C11.1115 14.3875 11.4924 14.7684 11.4924 15.2384Z" fill="black"/>
<path d="M13.8212 16.0893C14.2912 16.0893 14.6721 15.7083 14.6721 15.2384C14.6721 14.7684 14.2912 14.3875 13.8212 14.3875C13.3513 14.3875 12.9703 14.7684 12.9703 15.2384C12.9703 15.7083 13.3513 16.0893 13.8212 16.0893Z" fill="black"/>
<path d="M17.8518 15.2384C17.8518 15.7083 17.4709 16.0893 17.0009 16.0893C16.531 16.0893 16.15 15.7083 16.15 15.2384C16.15 14.7684 16.531 14.3875 17.0009 14.3875C17.4709 14.3875 17.8518 14.7684 17.8518 15.2384Z" fill="black"/>
<path d="M16.7636 13.2543C17.2336 13.2543 17.6145 12.8733 17.6145 12.4034C17.6145 11.9335 17.2336 11.5525 16.7636 11.5525C16.2937 11.5525 15.9127 11.9335 15.9127 12.4034C15.9127 12.8733 16.2937 13.2543 16.7636 13.2543Z" fill="black"/>
<path d="M14.6721 12.4034C14.6721 12.8733 14.2912 13.2543 13.8212 13.2543C13.3513 13.2543 12.9703 12.8733 12.9703 12.4034C12.9703 11.9335 13.3513 11.5525 13.8212 11.5525C14.2912 11.5525 14.6721 11.9335 14.6721 12.4034Z" fill="black"/>
<path fill-rule="evenodd" clip-rule="evenodd" d="M12.6129 4.15674C12.6129 3.74252 12.9487 3.40674 13.3629 3.40674H18.4618C18.876 3.40674 19.2118 3.74252 19.2118 4.15674V6.58105C19.2118 6.99527 18.876 7.33105 18.4618 7.33105H16.6871V8.2233L17.716 8.22198C18.5444 8.22093 19.26 8.80087 19.4307 9.61151L21.1806 17.9247C21.2017 17.9939 21.213 18.0673 21.213 18.1433V19.0754C21.213 20.318 20.2056 21.3254 18.963 21.3254H5.50061C4.25797 21.3254 3.25061 20.318 3.25061 19.0754V18.1433C3.25061 18.1069 3.2532 18.0712 3.25821 18.0362L3.25649 18.0358L4.94183 9.64013C5.10551 8.82476 5.82042 8.2372 6.65205 8.23456L7.18518 8.23287V7.11083C7.18518 6.69713 7.52016 6.36156 7.93386 6.36083L10.9685 6.35547C11.1677 6.35512 11.3588 6.43398 11.4997 6.57467C11.6406 6.71536 11.7198 6.90633 11.7198 7.10547V8.22904L12.1832 8.22905L15.1871 8.22521V7.33105H13.3629C12.9487 7.33105 12.6129 6.99527 12.6129 6.58105V4.15674ZM15.1871 10.0936V9.72521L12.1846 9.72905L11.7198 9.72904V11.7328C11.9809 11.8502 12.1627 12.1125 12.1627 12.4172C12.1627 12.8314 11.8269 13.1672 11.4127 13.1672H7.30519C6.89098 13.1672 6.55519 12.8314 6.55519 12.4172C6.55519 12.0439 6.82801 11.7342 7.18518 11.6768V9.73287L6.65681 9.73455C6.53801 9.73493 6.43588 9.81887 6.4125 9.93535L4.91539 17.3933H19.5359L17.9628 9.92049C17.9385 9.80468 17.8362 9.72183 17.7179 9.72198L16.6871 9.7233V10.0936C16.6871 10.5078 16.3513 10.8436 15.9371 10.8436C15.5229 10.8436 15.1871 10.5078 15.1871 10.0936ZM8.68518 11.6672V7.8595L10.2198 7.85679V11.6672H8.68518ZM17.7118 5.83105H14.1129V4.90674H17.7118V5.83105ZM4.75061 19.0754V18.8933H19.713V19.0754C19.713 19.4896 19.3772 19.8254 18.963 19.8254H5.50061C5.0864 19.8254 4.75061 19.4896 4.75061 19.0754Z" fill="black"/>
</svg>
