<svg width="25" height="25" viewBox="0 0 25 25" fill="none" xmlns="http://www.w3.org/2000/svg">
<path d="M12.9703 6.04541C12.9703 5.6312 12.6345 5.29541 12.2203 5.29541C11.806 5.29541 11.4703 5.6312 11.4703 6.04541V6.75471C10.8871 6.87668 10.3346 7.14497 9.88973 7.52215C9.286 8.03408 8.83731 8.78917 8.85676 9.69173C8.8701 10.311 9.03589 10.8484 9.43901 11.3114C9.81099 11.7387 10.3376 12.0444 10.9349 12.3261L10.9432 12.33L11.1245 12.4128L11.1223 12.4179L11.6155 12.6371L12.5242 13.0522C12.932 13.2505 13.2701 13.4424 13.5336 13.6581C13.9014 13.9591 14.0707 14.2612 14.0707 14.6782C14.0707 15.1331 13.8859 15.4694 13.571 15.7114C13.2379 15.9674 12.721 16.142 12.0613 16.142C11.2221 16.142 10.6303 15.7009 10.1299 15.003C9.88848 14.6664 9.41992 14.5892 9.08331 14.8306C8.74671 15.072 8.66951 15.5405 8.9109 15.8771C9.47884 16.6691 10.2935 17.4078 11.4703 17.596V18.3165C11.4703 18.7307 11.806 19.0665 12.2203 19.0665C12.6345 19.0665 12.9703 18.7307 12.9703 18.3165V17.5572C13.5338 17.448 14.0544 17.2318 14.4851 16.9007C15.1586 16.383 15.5707 15.6124 15.5707 14.6782C15.5707 13.7059 15.1087 13.0089 14.4836 12.4973C14.1492 12.2236 13.7549 11.9921 13.3471 11.7857C13.3203 11.769 13.2921 11.7539 13.2627 11.7404L13.1789 11.7022C12.9239 11.578 12.6662 11.4626 12.4168 11.3518L12.2318 11.2695L11.5707 10.9676C11.0138 10.7046 10.7277 10.5072 10.5703 10.3265C10.4437 10.1811 10.3639 10.0051 10.3564 9.65942C10.3487 9.30376 10.5212 8.9534 10.8598 8.66622C11.2025 8.37564 11.6707 8.19348 12.1264 8.1816C12.4748 8.17251 12.7466 8.23296 12.9854 8.35082C13.2294 8.47125 13.4799 8.67202 13.754 9.00088C14.0191 9.31909 14.4921 9.36209 14.8103 9.09691C15.1285 8.83174 15.1715 8.35882 14.9063 8.04061C14.5378 7.59842 14.1298 7.24293 13.6493 7.00576C13.4299 6.89744 13.2037 6.81795 12.9703 6.76471V6.04541Z" fill="black"/>
<path fill-rule="evenodd" clip-rule="evenodd" d="M12.1706 2.09033C6.66092 2.09033 2.19446 6.5568 2.19446 12.0665C2.19446 17.5761 6.66092 22.0426 12.1706 22.0426C17.6802 22.0426 22.1467 17.5761 22.1467 12.0665C22.1467 6.5568 17.6802 2.09033 12.1706 2.09033ZM3.69446 12.0665C3.69446 7.38522 7.48935 3.59033 12.1706 3.59033C16.8518 3.59033 20.6467 7.38522 20.6467 12.0665C20.6467 16.7477 16.8518 20.5426 12.1706 20.5426C7.48935 20.5426 3.69446 16.7477 3.69446 12.0665Z" fill="black"/>
</svg>
