<svg width="24" height="25" viewBox="0 0 24 25" fill="none" xmlns="http://www.w3.org/2000/svg">
<path d="M17.032 13.7369C16.9016 13.8634 16.7129 13.9092 16.539 13.8565C16.3427 13.7971 16.1114 13.7079 15.8461 13.5804C14.8548 13.1038 13.6327 12.2097 12.4509 10.9912C11.2692 9.77273 10.4129 8.52381 9.96695 7.51835C9.84761 7.24929 9.76554 7.01533 9.71214 6.81728C9.68614 6.72085 9.69002 6.62084 9.72046 6.52931C9.65174 6.43175 9.61759 6.30948 9.63285 6.18205L9.63333 6.17801C9.63487 6.16517 9.6369 6.15239 9.63943 6.13971C9.63953 6.13918 9.63964 6.13866 9.63975 6.13813C9.63917 6.14104 9.63844 6.14487 9.63766 6.1493L9.6376 6.14963C9.63718 6.15196 9.63524 6.16285 9.63348 6.17803C9.63333 6.17934 9.63318 6.18069 9.63303 6.18207C9.63251 6.1868 9.63203 6.19189 9.63162 6.1972C9.63122 6.20245 9.63065 6.21075 9.63035 6.22118M17.032 13.7369L9.63035 6.22118M17.032 13.7369C17.1624 13.6104 17.214 13.4232 17.1667 13.2478C17.1133 13.0498 17.0312 12.8158 16.9119 12.5467C16.4659 11.5413 15.6097 10.2924 14.4279 9.07387C13.2462 7.85536 12.0241 6.96129 11.0327 6.48473C10.8865 6.41442 10.7505 6.35576 10.6251 6.30731M17.032 13.7369L10.6251 6.30731M9.63035 6.22118C9.63021 6.22595 9.63013 6.23117 9.63014 6.23675L9.63014 6.23713C9.63014 6.23885 9.63015 6.24133 9.6302 6.2445C9.63027 6.24883 9.63042 6.25443 9.63076 6.26104C9.63182 6.2814 9.63469 6.31175 9.64253 6.34632C9.64822 6.37141 9.66422 6.43516 9.70884 6.50497C9.71278 6.51113 9.71719 6.51769 9.72208 6.52453C9.74721 6.45143 9.78935 6.38392 9.84681 6.3282C9.89223 6.28414 9.94474 6.24987 10.0012 6.22615C10.0038 6.22507 10.0064 6.22401 10.009 6.22298C10.0114 6.222 10.0139 6.22104 10.0163 6.22009L9.63803 6.14849C9.63707 6.15354 9.63567 6.16146 9.63433 6.17161C9.63413 6.17309 9.63385 6.17528 9.63352 6.17803C9.63338 6.17927 9.63322 6.18062 9.63306 6.18207C9.63257 6.18659 9.63202 6.19211 9.63155 6.19834C9.63129 6.20174 9.63068 6.21 9.63035 6.22118ZM10.1286 6.2373L10.1287 6.23722L10.1286 6.2373ZM10.1286 6.2373L10.1253 6.24072M10.1286 6.2373L10.1253 6.24072L10.1253 6.24072M10.1253 6.24072L10.1293 6.24148M10.1253 6.24072L10.1298 6.23744L10.1293 6.24148M9.77973 6.59202C9.83794 6.64941 9.92414 6.70738 10.043 6.72808C10.0525 6.72973 10.0621 6.73114 10.072 6.7323C10.1108 6.73684 10.1472 6.7367 10.1809 6.73329M9.77973 6.59202L10.2083 6.73531C10.1987 6.73686 10.189 6.73812 10.1792 6.73909L10.1809 6.73329M9.77973 6.59202L9.77948 6.59227C9.7792 6.59199 9.77892 6.59171 9.77863 6.59143L9.77888 6.59118L9.77973 6.59202ZM10.1809 6.73329C10.1897 6.7324 10.1984 6.73128 10.2068 6.72997C10.2026 6.71542 10.1987 6.70114 10.1949 6.68712M10.1809 6.73329L10.1949 6.68712M10.1949 6.68712C10.2215 6.69519 10.2492 6.70396 10.2777 6.71348C10.3532 6.68996 10.407 6.65344 10.4344 6.63242C10.4409 6.62748 10.447 6.62251 10.4529 6.61757M10.1949 6.68712L10.4529 6.61757M10.4529 6.61757L10.4614 6.61527M10.4529 6.61757C10.4954 6.58159 10.522 6.54693 10.5338 6.53067C10.5626 6.49126 10.5788 6.45656 10.5835 6.44663C10.5904 6.43164 10.5953 6.41927 10.598 6.41212C10.6034 6.39762 10.6071 6.38587 10.6089 6.37982C10.6131 6.36586 10.6167 6.35165 10.6197 6.3372M10.4614 6.61527L10.6198 6.33674C10.6198 6.3369 10.6198 6.33706 10.6197 6.3372L10.6197 6.3372M10.4614 6.61527C10.5414 6.54431 10.5992 6.44732 10.6206 6.33447C10.622 6.32683 10.6236 6.31762 10.6251 6.30731M10.4614 6.61527L10.6062 6.08277M10.6197 6.3372C10.6197 6.33705 10.6198 6.33689 10.6198 6.33674L10.3194 6.27587L10.4388 6.30007L10.5116 6.31482L10.6197 6.3372ZM10.1293 6.24148C10.1296 6.23976 10.1298 6.23842 10.13 6.23748L10.1293 6.24148ZM10.4816 5.8802L10.4815 5.8803C10.4984 5.89706 10.5129 5.91376 10.5252 5.92944M10.4816 5.8802C10.4981 5.89647 10.5125 5.91306 10.5252 5.92944M10.4816 5.8802C10.5008 5.89916 10.5173 5.91858 10.5317 5.93789M10.4816 5.8802C10.4813 5.87992 10.481 5.87964 10.4807 5.87936L10.4807 5.87946L10.5317 5.93789M10.5252 5.92944C10.5274 5.93229 10.5296 5.93511 10.5317 5.93789M10.5252 5.92944C10.5449 5.95496 10.5604 5.98 10.5724 6.00264C10.5614 5.98179 10.548 5.95992 10.5317 5.93789M10.5317 5.93789C10.5392 5.948 10.5458 5.9576 10.5514 5.96641C10.5666 5.99015 10.5785 6.01319 10.5877 6.03425M10.5317 5.93789L10.5877 6.03425M10.5877 6.03425C10.5963 6.0535 10.602 6.06959 10.6055 6.08073M10.5877 6.03425L10.6055 6.08073M10.6055 6.08073C10.6058 6.08143 10.606 6.08211 10.6062 6.08277M10.6055 6.08073L10.6062 6.08277M10.6062 6.08277C10.6076 6.08728 10.6087 6.09086 10.6094 6.09337L10.6097 6.09454C10.6148 6.11173 10.6184 6.12742 10.621 6.14064M10.621 6.14064C10.6238 6.1552 10.6254 6.16675 10.6263 6.17399C10.6299 6.20314 10.6301 6.22614 10.6301 6.23424C10.6301 6.24009 10.6301 6.24556 10.6299 6.25049M10.621 6.14064C10.6211 6.14139 10.6212 6.14209 10.6214 6.14273L10.6214 6.14303C10.6299 6.18813 10.6303 6.22441 10.6301 6.2409C10.6298 6.27049 10.6268 6.29447 10.625 6.30728L10.621 6.14064ZM10.6299 6.25049C10.6296 6.26079 10.6291 6.26899 10.6287 6.27419C10.6277 6.28716 10.6262 6.29873 10.625 6.30728C10.625 6.30729 10.625 6.3073 10.6251 6.30731M10.6299 6.25049C10.6296 6.26196 10.629 6.2705 10.6287 6.27411C10.6277 6.28732 10.6263 6.29785 10.6257 6.30302C10.6255 6.30447 10.6253 6.3059 10.6251 6.30731M10.6299 6.25049L10.6251 6.30731M20.1303 7.92661L20.1304 7.9266C20.2683 7.91947 20.3858 8.02547 20.393 8.16336C20.4001 8.30124 20.2941 8.4188 20.1562 8.42593C19.4669 8.46157 18.4414 8.51658 17.6063 9.45081C17.5143 9.55375 17.3562 9.5626 17.2533 9.47058C17.1504 9.37856 17.1415 9.22052 17.2335 9.11758L16.8608 8.78436L17.2335 9.11758C18.2024 8.03367 19.4021 7.96397 20.0988 7.92822L20.0989 7.92822L20.1303 7.92661ZM3.88849 19.3238L9.10868 6.06082C9.13907 6.02123 9.16363 5.97695 9.18121 5.92923C9.20971 5.85184 9.24717 5.79624 9.29031 5.75439C9.38368 5.66385 9.5664 5.58411 9.91751 5.61393C10.267 5.64361 10.719 5.77913 11.2494 6.0341C12.3063 6.54221 13.575 7.47627 14.7868 8.72577C15.9986 9.97526 16.8934 11.272 17.3689 12.344C17.6075 12.882 17.7291 13.3378 17.7481 13.6881C17.7672 14.04 17.6819 14.2202 17.5885 14.3107C17.5359 14.3617 17.4613 14.4052 17.3491 14.4317C17.3254 14.4373 17.302 14.4447 17.2793 14.4537L4.21347 19.6477C4.12086 19.6845 4.01523 19.6628 3.94464 19.5925C3.87405 19.5221 3.85199 19.4166 3.88849 19.3238ZM15.426 3.1875L15.426 3.18764L15.4291 3.21894L15.4291 3.21899C15.4977 3.91324 15.6077 5.10987 14.6804 6.22958C14.5923 6.33592 14.4347 6.35074 14.3284 6.26267C14.222 6.17461 14.2072 6.01701 14.2953 5.91067C15.0945 4.94559 14.996 3.92336 14.9284 3.23644C14.9149 3.09903 15.0153 2.97668 15.1528 2.96317C15.2902 2.94966 15.4125 3.05009 15.426 3.1875ZM15.2009 14.7419C15.3808 14.6704 15.5033 14.5014 15.5152 14.3081C15.5272 14.1148 15.4264 13.932 15.2567 13.8389C14.2792 13.3026 13.1624 12.4431 12.092 11.3393C11.0392 10.2538 10.2236 9.13037 9.71545 8.14817C9.62532 7.97395 9.44165 7.86853 9.24575 7.87858C9.04986 7.88862 8.87794 8.01228 8.8061 8.1948L8.11849 9.94181C8.07074 10.0631 8.07227 10.1983 8.12274 10.3185C8.7059 11.7074 10.209 14.0574 13.1164 15.4028C13.2409 15.4604 13.3836 15.4643 13.5111 15.4136L15.2009 14.7419ZM8.28233 11.7181C8.18383 11.5555 8.00169 11.4629 7.81231 11.479C7.62293 11.4951 7.45907 11.6172 7.38946 11.7941L6.55421 13.9162C6.50534 14.0404 6.50813 14.1789 6.56196 14.301C6.83435 14.9189 7.15536 15.4313 7.55835 15.87C7.9541 16.3008 8.43693 16.6692 9.04739 16.9967C9.17733 17.0664 9.3314 17.0751 9.46842 17.0207L11.6935 16.1362C11.869 16.0664 11.9902 15.9036 12.0068 15.7155C12.0234 15.5273 11.9326 15.3459 11.772 15.2464C10.1064 14.215 8.98374 12.8756 8.28233 11.7181ZM4.98794 17.8956C4.91494 18.0811 4.95907 18.2922 5.10025 18.4329C5.24143 18.5736 5.45268 18.617 5.6379 18.5434L7.75916 17.7001C7.92611 17.6338 8.04462 17.4829 8.0696 17.305C8.09458 17.1271 8.02219 16.9495 7.87997 16.8397C7.62854 16.6456 7.39958 16.4362 7.19013 16.2082C7.01955 16.0225 6.86382 15.8265 6.72052 15.6193C6.61549 15.4675 6.43531 15.3858 6.25188 15.407C6.06846 15.4282 5.91164 15.5488 5.84401 15.7206L4.98794 17.8956ZM10.03 6.21509C10.0297 6.21518 10.0295 6.21528 10.0292 6.21537L9.64007 6.13651C9.64023 6.13572 9.64038 6.13503 9.6405 6.13443L10.03 6.21509ZM10.6083 6.08963C10.6136 6.10687 10.617 6.12116 10.6191 6.13132C10.6187 6.12925 10.6182 6.12716 10.6177 6.12506C10.6159 6.11693 10.613 6.10476 10.6083 6.08963ZM9.66991 6.4313C9.68211 6.45992 9.6989 6.49201 9.72202 6.5247C9.72202 6.5247 9.72202 6.5247 9.72202 6.5247C9.70307 6.49794 9.69013 6.4741 9.68168 6.45697C9.67728 6.44805 9.67338 6.43946 9.66991 6.4313ZM19.5705 3.71759L19.2285 3.35284L19.5705 3.71759C19.6712 3.62315 19.8294 3.62824 19.9238 3.72896C20.0183 3.82968 20.0132 3.98789 19.9125 4.08233L16.1281 7.63076C16.0273 7.7252 15.8691 7.72011 15.7747 7.61939C15.6802 7.51867 15.6853 7.36046 15.7861 7.26602L19.5705 3.71759ZM11.835 3.64431C11.835 3.8312 11.6835 3.98271 11.4966 3.98271C11.3097 3.98271 11.1582 3.8312 11.1582 3.64431C11.1582 3.45742 11.3097 3.30591 11.4966 3.30591C11.6835 3.30591 11.835 3.45742 11.835 3.64431ZM6.01762 7.4573C6.01762 7.64419 5.86612 7.7957 5.67922 7.7957C5.49233 7.7957 5.34082 7.64419 5.34082 7.4573C5.34082 7.2704 5.49233 7.1189 5.67922 7.1189C5.86612 7.1189 6.01762 7.2704 6.01762 7.4573ZM16.9541 18.1844C16.7672 18.1844 16.6157 18.0329 16.6157 17.846C16.6157 17.6591 16.7672 17.5076 16.9541 17.5076C17.141 17.5076 17.2925 17.6591 17.2925 17.846C17.2925 18.0329 17.141 18.1844 16.9541 18.1844ZM20.0113 11.1336C20.0113 11.3205 19.8598 11.472 19.6729 11.472C19.486 11.472 19.3345 11.3205 19.3345 11.1336C19.3345 10.9467 19.486 10.7952 19.6729 10.7952C19.8598 10.7952 20.0113 10.9467 20.0113 11.1336ZM6.70749 3.89304L7.18416 4.16186L6.91534 4.63854L6.43867 4.36972L6.70749 3.89304ZM19.4551 15.4408L19.9364 15.1804L20.1968 15.6617L19.7155 15.9221L19.4551 15.4408Z" fill="black" stroke="black" stroke-linejoin="round"/>
</svg>
