<svg width="25" height="25" viewBox="0 0 25 25" fill="none" xmlns="http://www.w3.org/2000/svg">
<path fill-rule="evenodd" clip-rule="evenodd" d="M13.2486 5.77974C12.7657 4.95601 11.5749 4.95602 11.0919 5.77974L9.52211 8.45739L6.49041 9.12296C5.55776 9.3277 5.18978 10.4602 5.82396 11.1741L7.88545 13.4945L7.58159 16.5835C7.48811 17.5338 8.45151 18.2337 9.32638 17.8512L12.1703 16.6076L15.0142 17.8512C15.8891 18.2337 16.8525 17.5338 16.759 16.5835L16.4551 13.4945L18.5166 11.1741C19.1508 10.4602 18.7828 9.3277 17.8502 9.12296L14.8185 8.45739L13.2486 5.77974ZM10.7608 9.31034L12.1703 6.90625L13.5797 9.31034C13.756 9.61094 14.0497 9.82434 14.39 9.89906L17.112 10.4966L15.2611 12.58C15.0297 12.8405 14.9175 13.1858 14.9516 13.5326L15.2244 16.306L12.6711 15.1895C12.3518 15.0499 11.9888 15.0499 11.6695 15.1895L9.11613 16.306L9.38894 13.5326C9.42306 13.1858 9.31087 12.8405 9.07943 12.58L7.22855 10.4966L9.95053 9.89906C10.2909 9.82434 10.5846 9.61094 10.7608 9.31034Z" fill="black"/>
<path fill-rule="evenodd" clip-rule="evenodd" d="M12.1706 2.09033C6.66092 2.09033 2.19446 6.5568 2.19446 12.0665C2.19446 17.5761 6.66092 22.0426 12.1706 22.0426C17.6802 22.0426 22.1467 17.5761 22.1467 12.0665C22.1467 6.5568 17.6802 2.09033 12.1706 2.09033ZM3.69446 12.0665C3.69446 7.38522 7.48935 3.59033 12.1706 3.59033C16.8518 3.59033 20.6467 7.38522 20.6467 12.0665C20.6467 16.7477 16.8518 20.5426 12.1706 20.5426C7.48935 20.5426 3.69446 16.7477 3.69446 12.0665Z" fill="black"/>
</svg>
