<svg width="25" height="25" viewBox="0 0 25 25" fill="none" xmlns="http://www.w3.org/2000/svg">
<path d="M17.0942 5.08021C17.2874 4.75072 17.7637 4.75072 17.9569 5.08021L18.1659 5.43677C18.2364 5.55701 18.3539 5.64237 18.4901 5.67226L18.8938 5.76089C19.2668 5.84279 19.414 6.2958 19.1603 6.58134L18.8858 6.89033C18.7933 6.99454 18.7484 7.13265 18.762 7.27136L18.8025 7.6827C18.8399 8.06281 18.4545 8.34279 18.1046 8.18977L17.7259 8.02417C17.5982 7.96833 17.4529 7.96833 17.3252 8.02417L16.9465 8.18977C16.5966 8.34279 16.2112 8.06281 16.2486 7.6827L16.2891 7.27136C16.3027 7.13265 16.2579 6.99454 16.1653 6.89033L15.8908 6.58134C15.6371 6.2958 15.7843 5.84279 16.1573 5.76089L16.5611 5.67226C16.6972 5.64237 16.8147 5.55701 16.8852 5.43677L17.0942 5.08021Z" fill="black"/>
<path d="M8.51184 10.9324C8.09763 10.9324 7.76184 11.2682 7.76184 11.6824C7.76184 12.0966 8.09763 12.4324 8.51184 12.4324H14.0806C14.4949 12.4324 14.8306 12.0966 14.8306 11.6824C14.8306 11.2682 14.4949 10.9324 14.0806 10.9324H8.51184Z" fill="black"/>
<path d="M8.51184 13.8108C8.09763 13.8108 7.76184 14.1466 7.76184 14.5608C7.76184 14.975 8.09763 15.3108 8.51184 15.3108H16.8185C17.2327 15.3108 17.5685 14.975 17.5685 14.5608C17.5685 14.1466 17.2327 13.8108 16.8185 13.8108H8.51184Z" fill="black"/>
<path d="M7.76184 17.5139C7.76184 17.0997 8.09763 16.7639 8.51184 16.7639H16.8185C17.2327 16.7639 17.5685 17.0997 17.5685 17.5139C17.5685 17.9281 17.2327 18.2639 16.8185 18.2639H8.51184C8.09763 18.2639 7.76184 17.9281 7.76184 17.5139Z" fill="black"/>
<path fill-rule="evenodd" clip-rule="evenodd" d="M14.7542 3.51001H6.29036C5.71046 3.51001 5.24036 3.98011 5.24036 4.56001V21.2857C5.24036 21.8656 5.71046 22.3357 6.29036 22.3357H19.1632C19.7431 22.3357 20.2132 21.8656 20.2132 21.2857V9.87936C21.1337 9.10992 21.7194 7.95306 21.7194 6.65942C21.7194 4.34282 19.8414 2.46484 17.5248 2.46484C16.4629 2.46484 15.4931 2.85944 14.7542 3.51001ZM14.8302 6.65942C14.8302 5.17125 16.0366 3.96484 17.5248 3.96484C19.013 3.96484 20.2194 5.17125 20.2194 6.65942C20.2194 8.1476 19.013 9.354 17.5248 9.354C16.0366 9.354 14.8302 8.1476 14.8302 6.65942ZM13.6669 5.01001C13.4502 5.51629 13.3302 6.07384 13.3302 6.65942C13.3302 8.97603 15.2082 10.854 17.5248 10.854C17.9375 10.854 18.3364 10.7944 18.7132 10.6833V20.8357H6.74036V5.01001H13.6669Z" fill="black"/>
</svg>
