<svg width="25" height="25" viewBox="0 0 25 25" fill="none" xmlns="http://www.w3.org/2000/svg">
<path fill-rule="evenodd" clip-rule="evenodd" d="M20.391 17.4512C20.391 17.037 20.0552 16.7012 19.641 16.7012H16.0096C15.5954 16.7012 15.2596 17.037 15.2596 17.4512V20.9484C15.2596 21.3626 15.5954 21.6984 16.0096 21.6984H19.641C20.0552 21.6984 20.391 21.3626 20.391 20.9484V17.4512ZM18.891 18.2012V20.1984H16.7596V18.2012H18.891Z" fill="black"/>
<path d="M6.98324 4.19588C7.2623 3.88979 7.73667 3.86787 8.04277 4.14694L18.136 13.3489L18.0688 12.3497C18.041 11.9364 18.3535 11.5789 18.7668 11.5511C19.1801 11.5233 19.5376 11.8358 19.5655 12.249L19.7219 14.5742C19.7703 15.2938 19.2013 15.905 18.4801 15.9081L16.1941 15.918C15.7799 15.9198 15.4426 15.5855 15.4408 15.1713C15.439 14.7571 15.7734 14.4198 16.1876 14.418L17.078 14.4142L7.03218 5.25541C6.72608 4.97635 6.70417 4.50198 6.98324 4.19588Z" fill="black"/>
<path fill-rule="evenodd" clip-rule="evenodd" d="M8.18155 7.64799C8.59576 7.64799 8.93155 7.98378 8.93155 8.39799V20.9479C8.93155 21.3622 8.59576 21.6979 8.18155 21.6979H4.65546C4.24124 21.6979 3.90546 21.3622 3.90546 20.9479V8.39799C3.90546 7.98378 4.24124 7.64799 4.65546 7.64799H8.18155ZM7.43155 20.1979V9.14799H5.40546V20.1979H7.43155Z" fill="black"/>
<path fill-rule="evenodd" clip-rule="evenodd" d="M13.8578 12.6866C14.272 12.6866 14.6078 13.0224 14.6078 13.4366V20.9479C14.6078 21.3621 14.272 21.6979 13.8578 21.6979H10.3343C9.9201 21.6979 9.58431 21.3621 9.58431 20.9479V13.4366C9.58431 13.0224 9.9201 12.6866 10.3343 12.6866H13.8578ZM13.1078 20.1979V14.1866H11.0843V20.1979H13.1078Z" fill="black"/>
</svg>
