<svg width="25" height="25" viewBox="0 0 25 25" fill="none" xmlns="http://www.w3.org/2000/svg">
<path d="M16.9053 4.31104C16.4911 4.31104 16.1553 4.64682 16.1553 5.06104C16.1553 5.47525 16.4911 5.81104 16.9053 5.81104H18.2828L11.4285 11.8838L8.80388 9.01471C8.34323 8.51116 7.56384 8.47016 7.05289 8.9226L3.5836 11.9947C3.2735 12.2693 3.24472 12.7433 3.51932 13.0534C3.79393 13.3635 4.26793 13.3923 4.57803 13.1177L7.86316 10.2087L10.4878 13.0778C10.9486 13.5814 11.7282 13.6224 12.2391 13.1697L19.5103 6.72753V8.49073C19.5103 8.90494 19.8461 9.24073 20.2603 9.24073C20.6746 9.24073 21.0103 8.90494 21.0103 8.49073V5.06104C21.0103 4.64682 20.6746 4.31104 20.2603 4.31104H16.9053Z" fill="black"/>
<path fill-rule="evenodd" clip-rule="evenodd" d="M18.6553 9.92612C18.934 10.0429 19.1153 10.3156 19.1153 10.6178V20.8348C19.1153 21.249 18.7795 21.5848 18.3653 21.5848H15.3157C14.9015 21.5848 14.5657 21.249 14.5657 20.8348V13.6159C14.5657 13.4148 14.6465 13.2221 14.7899 13.0811L17.8395 10.083C18.055 9.87112 18.3766 9.80929 18.6553 9.92612ZM16.0657 13.9303V20.0848H17.6153V12.4069L16.0657 13.9303Z" fill="black"/>
<path fill-rule="evenodd" clip-rule="evenodd" d="M8.48386 13.1239C8.48386 12.8168 8.29669 12.5408 8.01144 12.4271C7.72619 12.3135 7.40048 12.3852 7.18933 12.6081L3.98807 15.9881C3.85613 16.1274 3.78259 16.3119 3.78259 16.5038V20.8346C3.78259 21.2489 4.11838 21.5846 4.53259 21.5846H7.73386C8.14807 21.5846 8.48386 21.2489 8.48386 20.8346V13.1239ZM5.28259 20.0846V16.8026L6.98386 15.0064V20.0846H5.28259Z" fill="black"/>
<path fill-rule="evenodd" clip-rule="evenodd" d="M13.9932 14.9192C13.9932 14.6377 13.8356 14.3799 13.5851 14.2516C13.3346 14.1233 13.0333 14.1461 12.8049 14.3106L11.3911 15.329L10.2391 14.513C10.0103 14.3509 9.71016 14.33 9.46109 14.4588C9.21202 14.5876 9.0556 14.8446 9.0556 15.125V20.8351C9.0556 21.2493 9.39139 21.5851 9.8056 21.5851H13.2432C13.6575 21.5851 13.9932 21.2493 13.9932 20.8351V14.9192ZM11.8332 16.8592L12.4932 16.3837V20.0851H10.5556V16.5753L10.9613 16.8627C11.2228 17.0479 11.5731 17.0465 11.8332 16.8592Z" fill="black"/>
</svg>
