<svg width="25" height="25" viewBox="0 0 25 25" fill="none" xmlns="http://www.w3.org/2000/svg">
<path d="M15.2968 4.1626C14.8826 4.1626 14.5468 4.49838 14.5468 4.9126C14.5468 5.32681 14.8826 5.6626 15.2968 5.6626H16.1819L5.75856 14.8504C5.44783 15.1243 5.41797 15.5983 5.69187 15.909C5.96577 16.2197 6.4397 16.2496 6.75043 15.9757L17.4169 6.57348V7.86296C17.4169 8.27717 17.7527 8.61296 18.1669 8.61296C18.5812 8.61296 18.9169 8.27717 18.9169 7.86296V4.9126C18.9169 4.49838 18.5812 4.1626 18.1669 4.1626H15.2968Z" fill="black"/>
<path fill-rule="evenodd" clip-rule="evenodd" d="M15.9774 10.49C15.9774 10.0758 16.3132 9.73999 16.7274 9.73999H20.319C20.7332 9.73999 21.069 10.0758 21.069 10.49V21.0556C21.069 21.4699 20.7332 21.8056 20.319 21.8056H16.7274C16.3132 21.8056 15.9774 21.4699 15.9774 21.0556V10.49ZM17.4774 11.24V20.3056H19.569V11.24H17.4774Z" fill="black"/>
<path fill-rule="evenodd" clip-rule="evenodd" d="M10.9467 13.9316C10.5324 13.9316 10.1967 14.2674 10.1967 14.6816V21.0555C10.1967 21.4697 10.5324 21.8055 10.9467 21.8055H14.5356C14.9498 21.8055 15.2856 21.4697 15.2856 21.0555V14.6816C15.2856 14.2674 14.9498 13.9316 14.5356 13.9316H10.9467ZM11.6967 20.3055V15.4316H13.7856V20.3055H11.6967Z" fill="black"/>
<path fill-rule="evenodd" clip-rule="evenodd" d="M5.0553 17.1989C4.64108 17.1989 4.3053 17.5346 4.3053 17.9489V21.056C4.3053 21.4702 4.64108 21.806 5.0553 21.806H8.75416C9.16837 21.806 9.50416 21.4702 9.50416 21.056V17.9489C9.50416 17.5346 9.16837 17.1989 8.75416 17.1989H5.0553ZM5.8053 20.306V18.6989H8.00416V20.306H5.8053Z" fill="black"/>
</svg>
