<svg width="25" height="25" viewBox="0 0 25 25" fill="none" xmlns="http://www.w3.org/2000/svg">
<path d="M6.08167 11.8115C5.66745 11.8115 5.33167 12.1473 5.33167 12.5615C5.33167 12.9757 5.66745 13.3115 6.08167 13.3115H11.3944C11.8086 13.3115 12.1444 12.9757 12.1444 12.5615C12.1444 12.1473 11.8086 11.8115 11.3944 11.8115H6.08167Z" fill="black"/>
<path d="M5.33167 14.5146C5.33167 14.1004 5.66745 13.7646 6.08167 13.7646H9.92883C10.343 13.7646 10.6788 14.1004 10.6788 14.5146C10.6788 14.9288 10.343 15.2646 9.92883 15.2646H6.08167C5.66745 15.2646 5.33167 14.9288 5.33167 14.5146Z" fill="black"/>
<path fill-rule="evenodd" clip-rule="evenodd" d="M18.8563 3.88324C18.8983 3.75502 19.0362 3.68507 19.1644 3.72701L20.035 4.01177C20.1632 4.05371 20.2332 4.19165 20.1912 4.31987L19.834 5.41198C20.2833 5.62163 20.5154 6.13857 20.3574 6.62161L20.0205 7.65166C20.9494 7.68009 21.6937 8.44207 21.6937 9.37789V15.4649C21.6937 16.4188 20.9205 17.192 19.9667 17.192H16.9L16.7533 17.6406C16.7119 17.7671 16.6475 17.8797 16.5663 17.9753L16.573 17.9775L16.5317 18.0139C16.4907 18.0574 16.4459 18.0969 16.3982 18.132L14.8014 19.5437C14.5248 19.7882 14.0873 19.6494 14.0024 19.2901L13.5216 17.2556C13.5132 17.2347 13.5054 17.2135 13.4985 17.192H3.98158C3.02775 17.192 2.25452 16.4188 2.25452 15.4649V9.37789C2.25452 8.42406 3.02775 7.65083 3.98158 7.65083H16.4187L17.1034 5.55731C17.2741 5.0354 17.8356 4.75069 18.3575 4.9214L18.5014 4.96845L18.8563 3.88324ZM19.5301 9.15083L19.3032 9.84468H20.1937V9.37789C20.1937 9.25249 20.0921 9.15083 19.9667 9.15083H19.5301ZM18.8126 11.3447L17.3906 15.692H19.9667C20.0921 15.692 20.1937 15.5903 20.1937 15.4649V11.3447H18.8126ZM13.7886 15.692L15.2105 11.3447L3.75452 11.3447V15.4649C3.75452 15.5903 3.85617 15.692 3.98158 15.692H13.7886ZM15.7011 9.84468L15.9281 9.15083H3.98158C3.85617 9.15083 3.75452 9.25249 3.75452 9.37789V9.84468L15.7011 9.84468ZM15.0822 16.5619L18.3719 6.5043L18.7745 6.63598L15.4848 16.6936L15.0822 16.5619Z" fill="black"/>
</svg>
