<svg width="24" height="25" viewBox="0 0 24 25" fill="none" xmlns="http://www.w3.org/2000/svg">
<path d="M3.52991 12.9787C3.23679 12.686 2.76191 12.6864 2.46925 12.9795C2.17659 13.2727 2.17696 13.7475 2.47009 14.0402L3.52991 12.9787ZM9 19.5L8.47009 20.0307C8.61446 20.1749 8.81132 20.254 9.01529 20.2498C9.21925 20.2457 9.41273 20.1586 9.5511 20.0087L9 19.5ZM21.5511 7.00871C21.8321 6.70434 21.8131 6.22985 21.5087 5.9489C21.2043 5.66794 20.7299 5.68692 20.4489 5.99129L21.5511 7.00871ZM2.47009 14.0402L8.47009 20.0307L9.52991 18.9693L3.52991 12.9787L2.47009 14.0402ZM9.5511 20.0087L21.5511 7.00871L20.4489 5.99129L8.4489 18.9913L9.5511 20.0087Z" fill="black"/>
</svg>
