<svg width="25" height="25" viewBox="0 0 25 25" fill="none" xmlns="http://www.w3.org/2000/svg">
<path d="M13.8029 9.43823C13.8029 9.02402 14.1387 8.68823 14.5529 8.68823H17.2514C17.6656 8.68823 18.0014 9.02402 18.0014 9.43823C18.0014 9.85245 17.6656 10.1882 17.2514 10.1882H14.5529C14.1387 10.1882 13.8029 9.85245 13.8029 9.43823Z" fill="black"/>
<path d="M13.8029 12.8201C13.8029 12.4059 14.1387 12.0701 14.5529 12.0701H17.2514C17.6656 12.0701 18.0014 12.4059 18.0014 12.8201C18.0014 13.2343 17.6656 13.5701 17.2514 13.5701H14.5529C14.1387 13.5701 13.8029 13.2343 13.8029 12.8201Z" fill="black"/>
<path d="M12.4323 8.61784C12.7133 8.31348 12.6943 7.83898 12.3899 7.55803C12.0856 7.27708 11.6111 7.29606 11.3301 7.60042L9.4059 9.685L8.73123 9.01139C8.43811 8.71873 7.96323 8.71911 7.67057 9.01223C7.37791 9.30535 7.37828 9.78023 7.67141 10.0729L8.89805 11.2976C9.04242 11.4417 9.23928 11.5208 9.44324 11.5167C9.64721 11.5125 9.84068 11.4255 9.97906 11.2756L12.4323 8.61784Z" fill="black"/>
<path d="M12.3899 11.6064C12.6943 11.8873 12.7133 12.3618 12.4323 12.6662L9.97906 15.3239C9.84068 15.4738 9.64721 15.5609 9.44324 15.565C9.23928 15.5692 9.04242 15.4901 8.89805 15.3459L7.67141 14.1212C7.37828 13.8286 7.37791 13.3537 7.67057 13.0606C7.96323 12.7674 8.43811 12.7671 8.73123 13.0597L9.4059 13.7333L11.3301 11.6488C11.6111 11.3444 12.0856 11.3254 12.3899 11.6064Z" fill="black"/>
<path d="M12.4323 16.7145C12.7133 16.4102 12.6943 15.9357 12.3899 15.6547C12.0856 15.3738 11.6111 15.3927 11.3301 15.6971L9.4059 17.7817L8.73123 17.1081C8.43811 16.8154 7.96323 16.8158 7.67057 17.1089C7.37791 17.402 7.37828 17.8769 7.67141 18.1696L8.89805 19.3943C9.04242 19.5384 9.23928 19.6175 9.44324 19.6134C9.64721 19.6092 9.84068 19.5221 9.97906 19.3722L12.4323 16.7145Z" fill="black"/>
<path fill-rule="evenodd" clip-rule="evenodd" d="M8.48452 2.50439C8.89874 2.50439 9.23452 2.84018 9.23452 3.25439V3.80903L16.2169 3.81128V3.25439C16.2169 2.84018 16.5527 2.50439 16.9669 2.50439C17.3812 2.50439 17.7169 2.84018 17.7169 3.25439V3.81176L19.6579 3.81238C20.2378 3.81257 20.7077 4.28283 20.7075 4.86272L20.7037 16.6982C20.7037 16.8835 20.6556 17.0575 20.5713 17.2087C20.5414 17.3656 20.4614 17.5143 20.3326 17.6287L15.2559 22.1371C15.2121 22.176 15.1649 22.2089 15.1155 22.2357C14.9355 22.3804 14.7068 22.4668 14.458 22.4667L5.84678 22.464C5.26688 22.4638 4.79693 21.9935 4.79712 21.4136L4.80245 4.8576C4.80264 4.2777 5.27289 3.80775 5.85279 3.80794L7.73452 3.80855V3.25439C7.73452 2.84018 8.07031 2.50439 8.48452 2.50439ZM15.543 17.761L17.9332 17.7534L15.5228 19.8939L15.543 17.761ZM16.2169 5.31128V6.18888C16.2169 6.60309 16.5527 6.93888 16.9669 6.93888C17.3812 6.93888 17.7169 6.60309 17.7169 6.18888V5.31176L19.2074 5.31224L19.2039 16.2493L15.0938 16.2624C14.5191 16.2643 14.0527 16.7278 14.0472 17.3025L14.0126 20.9666L6.29726 20.9641L6.3023 5.30808L7.73452 5.30855V6.18888C7.73452 6.60309 8.07031 6.93888 8.48452 6.93888C8.89874 6.93888 9.23452 6.60309 9.23452 6.18888V5.30903L16.2169 5.31128Z" fill="black"/>
</svg>
