<svg width="24" height="24" viewBox="0 0 24 24" fill="none" xmlns="http://www.w3.org/2000/svg">
<path d="M5.62937 16.2333C5.29367 16.5809 4.73973 16.5906 4.39212 16.2549C4.04451 15.9192 4.03486 15.3652 4.37057 15.0176L5.62937 16.2333ZM19.6297 15.0183C19.9652 15.3661 19.9553 15.92 19.6075 16.2556C19.2598 16.5911 18.7058 16.5812 18.3703 16.2335L19.6297 15.0183ZM11.9958 8.38154L11.3664 7.77369L11.9958 8.38154ZM12.0102 8.38154L11.3805 8.98909L12.0102 8.38154ZM4.37057 15.0176L11.3664 7.77369L12.6252 8.98938L5.62937 16.2333L4.37057 15.0176ZM12.6399 7.77399L19.6297 15.0183L18.3703 16.2335L11.3805 8.98909L12.6399 7.77399ZM11.3664 7.77369C11.7145 7.41331 12.292 7.41342 12.6399 7.77399L11.3805 8.98909C11.7206 9.34151 12.2851 9.34161 12.6252 8.98938L11.3664 7.77369Z" fill="black"/>
</svg>
