<svg width="25" height="24" viewBox="0 0 25 24" fill="none" xmlns="http://www.w3.org/2000/svg">
<path d="M16.9833 5.6294C17.3309 5.2937 17.3406 4.73976 17.0049 4.39215C16.6691 4.04454 16.1152 4.03489 15.7676 4.3706L16.9833 5.6294ZM15.7683 19.6297C16.1161 19.9652 16.67 19.9553 17.0056 19.6076C17.3411 19.2598 17.3312 18.7059 16.9834 18.3703L15.7683 19.6297ZM9.13151 11.9959L8.52366 11.3665L9.13151 11.9959ZM9.13151 12.0103L9.73906 11.3806L9.13151 12.0103ZM15.7676 4.3706L8.52366 11.3665L9.73935 12.6253L16.9833 5.6294L15.7676 4.3706ZM8.52396 12.6399L15.7683 19.6297L16.9834 18.3703L9.73906 11.3806L8.52396 12.6399ZM8.52366 11.3665C8.16328 11.7145 8.16339 12.2921 8.52396 12.6399L9.73906 11.3806C10.0915 11.7206 10.0916 12.2851 9.73935 12.6253L8.52366 11.3665Z" fill="black"/>
</svg>
