<svg width="25" height="25" viewBox="0 0 25 25" fill="none" xmlns="http://www.w3.org/2000/svg">
<path d="M12.9543 8.50372C12.9543 8.08951 12.6186 7.75372 12.2043 7.75372C11.7901 7.75372 11.4543 8.08951 11.4543 8.50372L11.4543 13.9993C11.4543 14.1982 11.5334 14.389 11.674 14.5296C11.8147 14.6703 12.0054 14.7493 12.2043 14.7493H16.1356C16.5498 14.7493 16.8856 14.4135 16.8856 13.9993C16.8856 13.5851 16.5498 13.2493 16.1356 13.2493H12.9543V8.50372Z" fill="black"/>
<path fill-rule="evenodd" clip-rule="evenodd" d="M3.90784 8.8501L4.68414 9.74337C4.28433 10.71 4.06372 11.7695 4.06372 12.8805C4.06372 15.307 5.1159 17.4876 6.78889 18.9912L5.68404 20.1541C5.39874 20.4544 5.41091 20.9292 5.71121 21.2144C6.0115 21.4997 6.48622 21.4876 6.77152 21.1873L8.00029 19.8939C9.24597 20.6551 10.7102 21.0938 12.277 21.0938C13.9241 21.0938 15.4581 20.6089 16.7438 19.7741L18.0864 21.1873C18.3717 21.4876 18.8464 21.4997 19.1467 21.2144C19.447 20.9292 19.4592 20.4544 19.1739 20.1541L17.927 18.8417C19.5056 17.3449 20.4902 15.2277 20.4902 12.8805C20.4902 11.8114 20.2859 10.79 19.9143 9.85317L20.786 8.8501C21.4146 8.12678 21.3445 7.03242 20.6288 6.39517L17.9192 3.98257C17.1951 3.3378 16.0847 3.40472 15.4432 4.1318L14.6608 5.01859C13.9064 4.79013 13.106 4.6673 12.277 4.6673C11.4885 4.6673 10.7259 4.77841 10.0041 4.98583L9.25063 4.1318C8.60915 3.40472 7.49878 3.3378 6.77463 3.98257L4.06501 6.39517C3.3493 7.03242 3.27924 8.12678 3.90784 8.8501ZM8.12582 5.12417C8.03418 5.02031 7.87556 5.01075 7.77211 5.10286L5.06249 7.51545C4.96025 7.60649 4.95024 7.76283 5.04004 7.86616L5.44052 8.32699C6.2145 7.1673 7.2757 6.21566 8.52246 5.57374L8.12582 5.12417ZM16.1272 5.62382C17.365 6.28194 18.4144 7.24748 19.1737 8.41862L19.6538 7.86616C19.7436 7.76283 19.7336 7.60649 19.6313 7.51545L16.9217 5.10286C16.8183 5.01075 16.6597 5.02031 16.568 5.12417L16.1272 5.62382ZM5.56371 12.8805C5.56371 9.17292 8.56934 6.1673 12.277 6.1673C15.9846 6.1673 18.9902 9.17292 18.9902 12.8805C18.9902 16.5882 15.9846 19.5938 12.277 19.5938C8.56934 19.5938 5.56371 16.5882 5.56371 12.8805Z" fill="black"/>
</svg>
