<svg width="25" height="24" viewBox="0 0 25 24" fill="none" xmlns="http://www.w3.org/2000/svg">
<path d="M15.4225 8.10685C15.4225 6.83021 14.1731 5.60645 12.3804 5.60645C10.613 5.60645 9.37379 6.79572 9.33897 8.05252C9.7849 8.37787 10.1843 8.84865 10.3882 9.51108C10.51 9.90698 10.2878 10.3267 9.8919 10.4485C9.496 10.5703 9.07631 10.3481 8.9545 9.95221C8.83046 9.54908 8.5484 9.28208 8.18806 9.10344C7.81475 8.91837 7.40665 8.85645 7.17103 8.85645C5.33752 8.85645 3.92053 10.2557 3.92053 11.8986C3.92053 12.8331 4.15405 13.6012 4.5581 14.1181C4.94272 14.6102 5.53088 14.9407 6.42093 14.9407C6.83515 14.9407 7.17093 15.2765 7.17093 15.6907C7.17093 16.1049 6.83515 16.4407 6.42093 16.4407C5.10158 16.4407 4.06454 15.9224 3.37631 15.0419C2.70751 14.1863 2.42053 13.0584 2.42053 11.8986C2.42053 9.35273 4.58571 7.35645 7.17103 7.35645C7.37535 7.35645 7.62704 7.37904 7.90026 7.43501C8.26836 5.47382 10.2231 4.10645 12.3804 4.10645C14.2364 4.10645 15.9425 5.11865 16.6172 6.65038C19.1354 6.41601 21.4638 8.09692 21.8197 10.5868C22.1873 13.1586 20.2931 15.4913 17.6813 15.8647C17.2713 15.9233 16.8913 15.6384 16.8327 15.2284C16.7741 14.8183 17.059 14.4384 17.4691 14.3798C19.3334 14.1133 20.575 12.48 20.3348 10.7991C20.1093 9.22162 18.6426 8.05003 16.9221 8.13209C16.9088 8.53462 16.5783 8.85685 16.1725 8.85685C15.7583 8.85685 15.4225 8.52106 15.4225 8.10685Z" fill="black"/>
<path d="M13.1117 17.0231C13.1117 17.433 12.7794 17.7653 12.3695 17.7653C11.9596 17.7653 11.6273 17.433 11.6273 17.0231C11.6273 16.6132 11.9596 16.2809 12.3695 16.2809C12.7794 16.2809 13.1117 16.6132 13.1117 17.0231Z" fill="black"/>
<path fill-rule="evenodd" clip-rule="evenodd" d="M12.3691 10.3359C10.9302 10.3359 9.76366 11.5024 9.76366 12.9414V14.2539C9.10401 14.5808 8.65051 15.261 8.65051 16.0471V18.0002C8.65051 19.1048 9.54594 20.0002 10.6505 20.0002H14.088C15.1926 20.0002 16.088 19.1048 16.088 18.0002V16.0471C16.088 15.2609 15.6344 14.5806 14.9746 14.2538V12.9414C14.9746 11.5025 13.8081 10.3359 12.3691 10.3359ZM13.4746 14.0471V12.9414C13.4746 12.3309 12.9797 11.8359 12.3691 11.8359C11.7586 11.8359 11.2637 12.3309 11.2637 12.9414V14.0471H13.4746ZM10.1505 16.0471C10.1505 15.7709 10.3744 15.5471 10.6505 15.5471H14.088C14.3642 15.5471 14.588 15.7709 14.588 16.0471V18.0002C14.588 18.2764 14.3642 18.5002 14.088 18.5002H10.6505C10.3744 18.5002 10.1505 18.2764 10.1505 18.0002V16.0471Z" fill="black"/>
</svg>
