<svg width="25" height="25" viewBox="0 0 25 25" fill="none" xmlns="http://www.w3.org/2000/svg">
<path fill-rule="evenodd" clip-rule="evenodd" d="M16.2607 10.1706C16.4742 10.3872 16.5357 10.7112 16.4166 10.991L14.4812 15.5346C14.4053 15.7129 14.2633 15.8548 14.085 15.9307L9.4971 17.884C9.21596 18.0037 8.89031 17.9409 8.67388 17.7252C8.45745 17.5095 8.39352 17.184 8.51226 16.9025L10.4642 12.2743C10.5414 12.0914 10.6878 11.9466 10.8715 11.8715L15.4428 10.0028C15.7242 9.88776 16.0473 9.95404 16.2607 10.1706ZM11.4157 13.8782L10.6145 15.778L12.5042 14.9735L11.4157 13.8782ZM12.4893 12.8306L13.5486 13.8965L14.3216 12.0816L12.4893 12.8306Z" fill="black"/>
<path fill-rule="evenodd" clip-rule="evenodd" d="M12.3466 2.53906C11.1694 2.53906 10.2151 3.49336 10.2151 4.67055C10.2151 5.09264 10.3378 5.48607 10.5494 5.81714C6.7713 6.64023 3.94214 10.0043 3.94214 14.0292C3.94214 18.6709 7.70504 22.4338 12.3468 22.4338C16.9886 22.4338 20.7515 18.6709 20.7515 14.0292C20.7515 10.0042 17.9221 6.63999 14.1438 5.81705C14.3554 5.486 14.4781 5.0926 14.4781 4.67055C14.4781 3.49336 13.5238 2.53906 12.3466 2.53906ZM11.7151 4.67055C11.7151 4.32179 11.9978 4.03906 12.3466 4.03906C12.6953 4.03906 12.9781 4.32179 12.9781 4.67055C12.9781 5.01931 12.6953 5.30203 12.3466 5.30203C11.9978 5.30203 11.7151 5.01931 11.7151 4.67055ZM11.6086 7.16351C8.3693 7.50778 5.79896 10.0921 5.47631 13.3379H6.60815C7.02237 13.3379 7.35815 13.6737 7.35815 14.0879C7.35815 14.5021 7.02237 14.8379 6.60815 14.8379H5.489C5.8612 18.0284 8.40846 20.5547 11.6086 20.8949V19.8374C11.6086 19.4232 11.9444 19.0874 12.3586 19.0874C12.7729 19.0874 13.1086 19.4232 13.1086 19.8374V20.8923C16.2977 20.5423 18.8333 18.0205 19.2046 14.8379H18.1082C17.694 14.8379 17.3582 14.5021 17.3582 14.0879C17.3582 13.6737 17.694 13.3379 18.1082 13.3379H19.2173C18.8954 10.1 16.3368 7.52038 13.1086 7.16606V8.33883C13.1086 8.75304 12.7729 9.08883 12.3586 9.08883C11.9444 9.08883 11.6086 8.75304 11.6086 8.33883V7.16351Z" fill="black"/>
</svg>
