<svg width="25" height="25" viewBox="0 0 25 25" fill="none" xmlns="http://www.w3.org/2000/svg">
<path d="M10.3496 8.25C10.3496 8.80228 9.90189 9.25 9.34961 9.25C8.79732 9.25 8.34961 8.80228 8.34961 8.25C8.34961 7.69772 8.79732 7.25 9.34961 7.25C9.90189 7.25 10.3496 7.69772 10.3496 8.25Z" fill="black"/>
<path d="M12.25 9.25C12.8023 9.25 13.25 8.80228 13.25 8.25C13.25 7.69772 12.8023 7.25 12.25 7.25C11.6977 7.25 11.25 7.69772 11.25 8.25C11.25 8.80228 11.6977 9.25 12.25 9.25Z" fill="black"/>
<path d="M16.1504 8.25C16.1504 8.80228 15.7027 9.25 15.1504 9.25C14.5981 9.25 14.1504 8.80228 14.1504 8.25C14.1504 7.69772 14.5981 7.25 15.1504 7.25C15.7027 7.25 16.1504 7.69772 16.1504 8.25Z" fill="black"/>
<path d="M9.34961 12.25C9.90189 12.25 10.3496 11.8023 10.3496 11.25C10.3496 10.6977 9.90189 10.25 9.34961 10.25C8.79732 10.25 8.34961 10.6977 8.34961 11.25C8.34961 11.8023 8.79732 12.25 9.34961 12.25Z" fill="black"/>
<path d="M13.25 11.25C13.25 11.8023 12.8023 12.25 12.25 12.25C11.6977 12.25 11.25 11.8023 11.25 11.25C11.25 10.6977 11.6977 10.25 12.25 10.25C12.8023 10.25 13.25 10.6977 13.25 11.25Z" fill="black"/>
<path d="M15.1504 12.25C15.7027 12.25 16.1504 11.8023 16.1504 11.25C16.1504 10.6977 15.7027 10.25 15.1504 10.25C14.5981 10.25 14.1504 10.6977 14.1504 11.25C14.1504 11.8023 14.5981 12.25 15.1504 12.25Z" fill="black"/>
<path d="M10.3496 14.25C10.3496 14.8023 9.90189 15.25 9.34961 15.25C8.79732 15.25 8.34961 14.8023 8.34961 14.25C8.34961 13.6977 8.79732 13.25 9.34961 13.25C9.90189 13.25 10.3496 13.6977 10.3496 14.25Z" fill="black"/>
<path d="M12.25 15.25C12.8023 15.25 13.25 14.8023 13.25 14.25C13.25 13.6977 12.8023 13.25 12.25 13.25C11.6977 13.25 11.25 13.6977 11.25 14.25C11.25 14.8023 11.6977 15.25 12.25 15.25Z" fill="black"/>
<path d="M16.1504 14.25C16.1504 14.8023 15.7027 15.25 15.1504 15.25C14.5981 15.25 14.1504 14.8023 14.1504 14.25C14.1504 13.6977 14.5981 13.25 15.1504 13.25C15.7027 13.25 16.1504 13.6977 16.1504 14.25Z" fill="black"/>
<path d="M9.34961 18.25C9.90189 18.25 10.3496 17.8023 10.3496 17.25C10.3496 16.6977 9.90189 16.25 9.34961 16.25C8.79732 16.25 8.34961 16.6977 8.34961 17.25C8.34961 17.8023 8.79732 18.25 9.34961 18.25Z" fill="black"/>
<path d="M13.25 17.25C13.25 17.8023 12.8023 18.25 12.25 18.25C11.6977 18.25 11.25 17.8023 11.25 17.25C11.25 16.6977 11.6977 16.25 12.25 16.25C12.8023 16.25 13.25 16.6977 13.25 17.25Z" fill="black"/>
<path d="M15.1504 18.25C15.7027 18.25 16.1504 17.8023 16.1504 17.25C16.1504 16.6977 15.7027 16.25 15.1504 16.25C14.5981 16.25 14.1504 16.6977 14.1504 17.25C14.1504 17.8023 14.5981 18.25 15.1504 18.25Z" fill="black"/>
<path fill-rule="evenodd" clip-rule="evenodd" d="M8.25 3.75C7.83579 3.75 7.5 4.08579 7.5 4.5V4.75L5.25 4.75C4.83579 4.75 4.5 5.08579 4.5 5.5C4.5 5.91421 4.83579 6.25 5.25 6.25H5.5V20H4.25C3.83579 20 3.5 20.3358 3.5 20.75C3.5 21.1642 3.83579 21.5 4.25 21.5L20.25 21.5C20.6642 21.5 21 21.1642 21 20.75C21 20.3358 20.6642 20 20.25 20H19V6.25H19.25C19.6642 6.25 20 5.91421 20 5.5C20 5.08579 19.6642 4.75 19.25 4.75L12 4.75V4.5C12 4.08579 11.6642 3.75 11.25 3.75H8.25ZM7 19.75V6.25H17.5V19.75H7Z" fill="black"/>
</svg>
