<svg width="24" height="25" viewBox="0 0 24 25" fill="none" xmlns="http://www.w3.org/2000/svg">
<path fill-rule="evenodd" clip-rule="evenodd" d="M4.90259 9.36182C4.90259 8.9476 5.23837 8.61182 5.65259 8.61182H9.46087C9.87508 8.61182 10.2109 8.9476 10.2109 9.36182V11.9007C10.2109 12.3149 9.87508 12.6507 9.46087 12.6507H5.65259C5.23837 12.6507 4.90259 12.3149 4.90259 11.9007V9.36182ZM6.40259 10.1118V11.1507H8.71087V10.1118H6.40259Z" fill="black"/>
<path d="M5.65259 14.9595C5.23837 14.9595 4.90259 15.2953 4.90259 15.7095C4.90259 16.1237 5.23837 16.4595 5.65259 16.4595H11.9997C12.4139 16.4595 12.7497 16.1237 12.7497 15.7095C12.7497 15.2953 12.4139 14.9595 11.9997 14.9595H5.65259Z" fill="black"/>
<path fill-rule="evenodd" clip-rule="evenodd" d="M2.36401 7.42324C2.36401 6.67766 2.96843 6.07324 3.71401 6.07324H20.286C21.0316 6.07324 21.636 6.67766 21.636 7.42324V17.6481C21.636 18.3937 21.0316 18.9981 20.286 18.9981H3.71401C2.96843 18.9981 2.36401 18.3937 2.36401 17.6481V7.42324ZM3.86401 7.57324V17.4981H20.136V7.57324H3.86401Z" fill="black"/>
</svg>
