<svg width="24" height="25" viewBox="0 0 24 25" fill="none" xmlns="http://www.w3.org/2000/svg">
<path fill-rule="evenodd" clip-rule="evenodd" d="M6 11.7501C5.58579 11.7501 5.25 12.0859 5.25 12.5001V14.5001C5.25 14.9143 5.58579 15.2501 6 15.2501H9C9.41421 15.2501 9.75 14.9143 9.75 14.5001V12.5001C9.75 12.0859 9.41421 11.7501 9 11.7501H6ZM6.75 13.7501V13.2501H8.25V13.7501H6.75Z" fill="black"/>
<path d="M5.25 17.5001C5.25 17.0859 5.58579 16.7501 6 16.7501H11C11.4142 16.7501 11.75 17.0859 11.75 17.5001C11.75 17.9143 11.4142 18.2501 11 18.2501H6C5.58579 18.2501 5.25 17.9143 5.25 17.5001Z" fill="black"/>
<path fill-rule="evenodd" clip-rule="evenodd" d="M7.23713 4.71423C7.52617 4.06025 8.27498 3.74505 8.94471 3.99545L20.0856 8.16101C20.7976 8.4272 21.1495 9.22841 20.8639 9.93279L18.75 15.1461V18.9001C18.75 19.6457 18.1456 20.2501 17.4 20.2501H4.6C3.85442 20.2501 3.25 19.6457 3.25 18.9001V11.1001C3.25 10.3545 3.85441 9.75008 4.6 9.75008H5.01149L7.23713 4.71423ZM17.25 15.014C17.2498 15.0044 17.2498 14.9946 17.25 14.9849V11.2501H16.5172C16.5056 11.2504 16.4941 11.2504 16.4825 11.2501H5.51635C5.5052 11.2503 5.49403 11.2503 5.48284 11.2501H4.75V18.7501H17.25V15.014ZM16.6407 9.75008H17.4C18.1456 9.75008 18.75 10.3545 18.75 11.1001V11.1542L19.4159 9.51202L8.55191 5.45001L8.11653 6.43513L16.6407 9.75008ZM7.50955 7.80851L12.5022 9.75008H6.65145L7.50955 7.80851Z" fill="black"/>
</svg>
