<svg width="24" height="24" viewBox="0 0 24 24" fill="none" xmlns="http://www.w3.org/2000/svg">
<path d="M6.75 13.5C6.33579 13.5 6 13.8358 6 14.25C6 14.6642 6.33579 15 6.75 15H10.25C10.6642 15 11 14.6642 11 14.25C11 13.8358 10.6642 13.5 10.25 13.5H6.75Z" fill="black"/>
<path d="M6 11.25C6 10.8358 6.33579 10.5 6.75 10.5H8.25C8.66421 10.5 9 10.8358 9 11.25C9 11.6642 8.66421 12 8.25 12H6.75C6.33579 12 6 11.6642 6 11.25Z" fill="black"/>
<path fill-rule="evenodd" clip-rule="evenodd" d="M9 3.25C8.58579 3.25 8.25 3.58579 8.25 4V6.25H4.60714C3.85761 6.25 3.25 6.85761 3.25 7.60714V16.3929C3.25 17.1424 3.85761 17.75 4.60714 17.75H13.25V19.6245C13.25 20.3741 13.8576 20.9817 14.6071 20.9817H15.3929C16.1424 20.9817 16.75 20.3741 16.75 19.6245V8.25H20.5C20.7411 8.25 20.9675 8.13411 21.1084 7.93853C21.2494 7.74296 21.2878 7.49154 21.2115 7.26283C21.01 6.6584 20.5479 5.79926 19.7914 5.08108C19.0222 4.3508 17.9281 3.75 16.5 3.75H12.2247C11.9091 3.4407 11.4768 3.25 11 3.25H9ZM12.75 6.75V5.25H16.5C17.4719 5.25 18.2112 5.6492 18.7586 6.16892C18.954 6.35436 19.1222 6.55306 19.2642 6.75H12.75ZM10.75 4.75H9.75V7.25H10.75V4.75ZM8.25 7.75H4.75V16.25H13.25V8.25H12.6771L11.9636 8.60672C11.7752 8.70095 11.5674 8.75 11.3567 8.75H9C8.58579 8.75 8.25 8.41421 8.25 8V7.75ZM14.75 19.4817V8.75H15.25V19.4817H14.75Z" fill="black"/>
</svg>
