<svg width="25" height="24" viewBox="0 0 25 24" fill="none" xmlns="http://www.w3.org/2000/svg">
<path d="M6.7348 15.9786C8.43851 15.9354 9.61614 16.1265 11.2148 16.6608C11.4982 16.7555 11.4726 17.1555 11.1809 17.2203L8.3004 17.8604C7.91696 17.9456 7.51915 17.7985 7.28347 17.4842L6.509 16.4516C6.36482 16.2593 6.49457 15.9848 6.7348 15.9786Z" fill="black"/>
<path d="M13.1578 16.664C14.6445 16.1864 15.8057 15.9766 17.592 15.9892C17.835 15.991 17.9697 16.2683 17.8238 16.4627L17.0577 17.4842C16.822 17.7984 16.4242 17.9456 16.0408 17.8604L13.1886 17.2266C12.8946 17.1612 12.8711 16.7562 13.1578 16.664Z" fill="black"/>
<path fill-rule="evenodd" clip-rule="evenodd" d="M5.65353 9.47597L6.76816 5.01746C6.9259 4.38649 7.31315 3.83698 7.8543 3.47621C8.63494 2.95578 9.63458 2.89355 10.4737 3.31313L12.1706 4.16155L13.8551 3.3193C14.7019 2.8959 15.7106 2.95871 16.4983 3.48386C17.0283 3.83718 17.4126 4.37032 17.5802 4.98483L18.7827 9.39411C19.907 9.23321 21.0596 9.88165 21.3961 11.0593L21.7432 12.2742C21.9366 12.951 21.5626 13.66 20.8948 13.8826L20.6263 13.9721C20.9921 15.232 20.9468 16.3295 20.6162 17.2666C20.2709 18.2455 19.6366 18.9865 18.965 19.5327C17.6032 20.64 15.7917 20.4303 14.4374 19.8284L12.155 18.814L8.88283 20.1229C7.88607 20.5216 6.50191 20.8031 5.33951 20.0533C4.18626 19.3094 3.5998 18.1862 3.34233 17.0722C3.0869 15.9669 3.14274 14.8289 3.30266 13.9442C3.30485 13.9321 3.30719 13.9201 3.30967 13.9081L3.19922 13.8529C2.69308 13.5998 2.40565 13.0513 2.48568 12.4911L2.64571 11.3709C2.85239 9.9241 4.30868 9.06974 5.65353 9.47597ZM8.68635 4.72428C9.01911 4.50245 9.44522 4.47592 9.80292 4.65477L11.7233 5.61496C12.0049 5.75574 12.3363 5.75574 12.6179 5.61496L14.5259 4.66094C14.8912 4.47827 15.3264 4.50537 15.6663 4.73194C15.8949 4.88437 16.0607 5.11438 16.133 5.37951L17.3617 9.88459C15.384 10.6247 13.7306 10.9503 12.083 10.9311C10.5376 10.9131 8.95739 10.5914 7.07561 9.97231L8.22337 5.38126C8.29061 5.1123 8.45568 4.87807 8.68635 4.72428ZM5.70202 11.0859C5.78372 11.1514 5.88049 11.2006 5.98868 11.2277C6.04939 11.2429 6.11023 11.2502 6.1701 11.2503C8.32359 11.9907 10.1907 12.4091 12.0655 12.431C14.204 12.456 16.2933 11.9646 18.7779 10.9385C19.2787 10.7317 19.82 11.003 19.9538 11.4714L20.2522 12.5156L19.4334 12.7886C19.3641 12.8117 19.3003 12.8439 19.2431 12.8836C19.1452 12.8902 19.0475 12.9077 18.9523 12.9366C16.1756 13.7783 14.009 14.1898 11.8867 14.1955C9.76624 14.2012 7.64442 13.8019 4.95823 12.9639C4.85069 12.9303 4.73997 12.9114 4.62913 12.9064C4.59136 12.8773 4.55025 12.8514 4.50599 12.8293L3.98949 12.571L4.13063 11.5831C4.2038 11.0709 4.74987 10.7364 5.27167 10.9293C5.41647 10.9828 5.55989 11.035 5.70202 11.0859ZM19.197 14.4294C16.4322 15.2565 14.1623 15.6894 11.8907 15.6955C9.62877 15.7016 7.40833 15.2844 4.73761 14.4657C4.63867 15.16 4.62819 15.9745 4.80381 16.7344C4.99936 17.5805 5.41281 18.3156 6.1526 18.7928C6.68123 19.1338 7.4541 19.0788 8.32574 18.7301L11.6705 17.3922C11.9999 17.2605 12.3686 17.2674 12.6927 17.4115L15.0466 18.4577C16.1581 18.9517 17.2868 18.9639 18.0187 18.3688C18.538 17.9466 18.9716 17.4197 19.2017 16.7675C19.4137 16.1664 19.4727 15.4038 19.197 14.4294Z" fill="black"/>
</svg>
