<svg width="25" height="24" viewBox="0 0 25 24" fill="none" xmlns="http://www.w3.org/2000/svg">
<path fill-rule="evenodd" clip-rule="evenodd" d="M13.1905 2.38829C12.6586 2.19542 12.071 2.47031 11.8781 3.00228L10.2806 7.40822C10.0878 7.94019 10.3627 8.52779 10.8946 8.72066L18.0351 11.3096C18.5671 11.5024 19.1547 11.2275 19.3476 10.6956L20.945 6.28963C21.1379 5.75766 20.863 5.17006 20.331 4.97719L13.1905 2.38829ZM12.8651 4.68059L13.1262 3.96052L19.3728 6.22531L19.0971 6.98562L12.8651 4.68059ZM12.5243 5.62072L11.8529 7.47254L18.0994 9.73733L18.7562 7.92576L12.5243 5.62072Z" fill="black"/>
<path fill-rule="evenodd" clip-rule="evenodd" d="M9.24994 8.98113C9.2399 7.47094 8.01256 6.24979 6.5 6.24979C4.98122 6.24979 3.75 7.48101 3.75 8.99979C3.75 10.5186 4.98122 11.7498 6.5 11.7498C6.98687 11.7498 7.44418 11.6233 7.84086 11.4013L10.5684 14.1288L8.66258 14.6733C8.1445 14.8214 7.76919 15.2705 7.71558 15.8066L7.31581 19.8043C7.23842 20.5782 7.84618 21.2498 8.62399 21.2498H9.51023C10.1645 21.2498 10.7192 20.7687 10.8117 20.121L11.1505 17.7498H13.125L14.32 19.3431C14.4425 19.5064 14.6013 19.639 14.7838 19.7302L17.2187 20.9477C17.8117 21.2442 18.5328 21.0527 18.9006 20.501L19.3108 19.8857C19.7136 19.2815 19.5503 18.4653 18.9462 18.0625L16.5817 16.4862L15.7118 14.7463C15.6486 14.62 15.5655 14.5046 15.4655 14.4047L15.2322 14.1713L17.4013 14.8726C18.0211 15.073 18.6944 14.7905 18.9857 14.2078C19.3352 13.5088 19.0033 12.661 18.2721 12.3851L9.24994 8.98113ZM9.08176 10.5209L11.8517 13.2908C12.5605 13.9997 12.2471 15.2092 11.2832 15.4846L9.19561 16.0811L8.82874 19.7498H9.34953L9.68827 17.3786C9.7808 16.7309 10.3355 16.2498 10.9898 16.2498H13.2176C13.6315 16.2498 14.0211 16.4446 14.2694 16.7757L15.4938 18.4082L17.7432 19.5329L17.9599 19.2078L15.7088 17.707C15.5184 17.5801 15.3644 17.4057 15.2621 17.2011L14.3836 15.4441L12.2632 13.3237C11.7451 12.8056 12.0863 12.0032 12.6949 11.8841L9.08176 10.5209ZM5.25 8.99979C5.25 8.30944 5.80964 7.74979 6.5 7.74979C7.19036 7.74979 7.75 8.30944 7.75 8.99979C7.75 9.69015 7.19036 10.2498 6.5 10.2498C5.80964 10.2498 5.25 9.69015 5.25 8.99979Z" fill="black"/>
</svg>
