<svg width="24" height="24" viewBox="0 0 24 24" fill="none" xmlns="http://www.w3.org/2000/svg">
<path d="M12.2891 10.1051C12.2049 10.0635 12.1018 10.037 11.9469 10.0411C11.7598 10.0459 11.5614 10.1229 11.4199 10.2429C11.2824 10.3595 11.2426 10.4738 11.2445 10.5609C11.2462 10.6399 11.2565 10.6795 11.2625 10.6969C11.2673 10.7106 11.2732 10.7222 11.2884 10.7397C11.3329 10.7908 11.4455 10.8806 11.7551 11.027L12.1651 11.2142L12.2346 11.2452C12.3708 11.3057 12.5173 11.371 12.6661 11.4431L12.7227 11.469C12.7491 11.481 12.7744 11.4944 12.7986 11.5089C13.0407 11.6325 13.2829 11.7755 13.4917 11.9464C13.9048 12.2845 14.2321 12.7682 14.2321 13.4439C14.2321 14.0816 13.9474 14.6159 13.4849 14.9713C13.2636 15.1414 13.0115 15.264 12.7435 15.3441V15.6106C12.7435 16.0248 12.4077 16.3606 11.9935 16.3606C11.5793 16.3606 11.2435 16.0248 11.2435 15.6106V15.3731C10.6021 15.1903 10.1486 14.7544 9.83534 14.3176C9.59396 13.981 9.67115 13.5124 10.0078 13.271C10.3444 13.0296 10.8129 13.1068 11.0543 13.4434C11.3074 13.7963 11.5614 13.9625 11.9008 13.9625C12.2263 13.9625 12.4487 13.8759 12.5708 13.782C12.6747 13.7022 12.7321 13.6022 12.7321 13.4439C12.7321 13.3235 12.6975 13.2347 12.5417 13.1072C12.4128 13.0017 12.2398 12.9035 12.0107 12.7928L11.5489 12.5818L10.9401 12.3113L10.945 12.3002C10.6543 12.1517 10.373 11.9727 10.1571 11.7247C9.86705 11.3915 9.75371 11.0065 9.74481 10.5932C9.73115 9.95924 10.0472 9.44015 10.4498 9.09882C10.6797 8.90389 10.9519 8.75306 11.2435 8.65764V8.36462C11.2435 7.95041 11.5793 7.61462 11.9935 7.61462C12.4077 7.61462 12.7435 7.95041 12.7435 8.36462V8.67047C12.8141 8.69617 12.884 8.72594 12.953 8.76C13.2788 8.92083 13.5462 9.15757 13.7775 9.43515C14.0427 9.75336 13.9997 10.2263 13.6815 10.4915C13.3633 10.7566 12.8904 10.7136 12.6252 10.3954C12.4883 10.2312 12.3784 10.1492 12.2891 10.1051Z" fill="black"/>
<path fill-rule="evenodd" clip-rule="evenodd" d="M7.60516 4.78662C7.60516 3.82012 8.38866 3.03662 9.35516 3.03662H14.6449C15.6114 3.03662 16.3949 3.82012 16.3949 4.78662V9.47578C16.3949 9.61385 16.5068 9.72578 16.6449 9.72578H18.1789C19.6281 9.72578 20.4493 11.3863 19.5697 12.538L13.3908 20.6283C12.6904 21.5454 11.3097 21.5454 10.6093 20.6283L4.43034 12.538C3.55076 11.3863 4.37198 9.72578 5.82111 9.72578H7.35516C7.49323 9.72578 7.60516 9.61385 7.60516 9.47578V4.78662ZM9.35516 4.53662C9.21709 4.53662 9.10516 4.64855 9.10516 4.78662V9.47578C9.10516 10.4423 8.32166 11.2258 7.35516 11.2258H5.82111C5.61409 11.2258 5.49678 11.463 5.62243 11.6275L11.8013 19.7178C11.9014 19.8489 12.0986 19.8489 12.1987 19.7178L18.3776 11.6275C18.5033 11.463 18.386 11.2258 18.1789 11.2258H16.6449C15.6784 11.2258 14.8949 10.4423 14.8949 9.47578V4.78662C14.8949 4.64855 14.783 4.53662 14.6449 4.53662H9.35516Z" fill="black"/>
</svg>
