<svg width="24" height="24" viewBox="0 0 24 24" fill="none" xmlns="http://www.w3.org/2000/svg">
<path d="M11.5218 6.23806C12.4097 4.9655 13.9521 4.33238 15.4332 4.71437C17.3593 5.21113 18.5532 7.27425 18.011 9.37631C17.9185 9.73498 17.7819 10.0684 17.6095 10.3722C17.4051 10.7325 17.5314 11.1902 17.8917 11.3947C18.252 11.5991 18.7097 11.4727 18.9141 11.1125C19.1513 10.6945 19.3378 10.2383 19.4635 9.75092C20.1959 6.9111 18.599 3.98178 15.8078 3.2619C13.6674 2.70988 11.5058 3.63968 10.2916 5.3797C9.92294 5.90808 9.64031 6.51197 9.46972 7.17341C9.36627 7.5745 9.60756 7.9835 10.0086 8.08695C10.4097 8.19039 10.8187 7.94911 10.9222 7.54802C11.0477 7.06152 11.2544 6.6212 11.5218 6.23806Z" fill="black"/>
<path d="M16.0682 6.22975C16.1695 5.97285 16.0433 5.68249 15.7864 5.5812C15.5295 5.47992 15.2392 5.60607 15.1379 5.86296L15.0564 6.06973C14.5486 6.04367 14.027 6.27088 13.8175 6.80221C13.5412 7.50313 14.023 8.18788 14.6364 8.43113L14.6391 8.43222C14.7917 8.4924 14.8608 8.57202 14.8881 8.62431C14.9138 8.67351 14.9153 8.71905 14.8971 8.76509C14.8957 8.7686 14.8793 8.80769 14.7845 8.83349C14.6896 8.85932 14.5479 8.85857 14.3923 8.79719C14.1539 8.70321 14.0575 8.54244 14.044 8.4681C13.9944 8.19643 13.7341 8.01636 13.4624 8.06589C13.1907 8.11542 13.0107 8.3758 13.0602 8.64746C13.1281 9.02002 13.3717 9.33887 13.6934 9.55377L13.6601 9.63804C13.5589 9.89493 13.685 10.1853 13.9419 10.2866C14.1988 10.3879 14.4892 10.2617 14.5904 10.0048L14.6516 9.84959C14.787 9.84987 14.9201 9.83295 15.0471 9.7984C15.3697 9.71061 15.6839 9.49574 15.8274 9.13187C16.0971 8.44796 15.691 7.77334 15.0085 7.50295L15.0058 7.50186C14.8869 7.45498 14.8087 7.3777 14.7702 7.30764C14.7324 7.2388 14.7384 7.19284 14.7478 7.169C14.7572 7.14516 14.7842 7.10744 14.8588 7.08296C14.9348 7.05805 15.0446 7.05488 15.1635 7.10176C15.3465 7.1739 15.4193 7.30744 15.4277 7.37896C15.4599 7.65322 15.7083 7.84943 15.9826 7.81722C16.2569 7.785 16.4531 7.53655 16.4209 7.2623C16.3835 6.94472 16.2198 6.66027 15.9819 6.44851L16.0682 6.22975Z" fill="black"/>
<path fill-rule="evenodd" clip-rule="evenodd" d="M6 6.24997C7.51338 6.24997 8.74123 7.47244 8.74995 8.98376L17.3965 12.2898C18.1244 12.5681 18.4534 13.4137 18.1049 14.1107C17.8124 14.6957 17.1353 14.9778 16.514 14.7735L15.1012 14.309C15.412 14.673 15.6514 15.0943 15.8047 15.5509L16.1294 16.5182L18.4462 18.0627C19.0503 18.4655 19.2136 19.2817 18.8108 19.8859L18.4006 20.5012C18.0328 21.0529 17.3117 21.2444 16.7187 20.9478L14.2838 19.7304C14.1013 19.6391 13.9425 19.5066 13.82 19.3433L12.625 17.75H10.6621L10.306 20.5983C10.2238 21.2563 9.66452 21.75 9.00149 21.75H8.11837C7.34528 21.75 6.73907 21.0861 6.80906 20.3162L7.21191 15.8849C7.26787 15.2694 7.74492 14.776 8.35815 14.6994L10.3853 14.446L7.34086 11.4015C6.94418 11.6234 6.48687 11.75 6 11.75C4.48122 11.75 3.25 10.5188 3.25 8.99997C3.25 7.48119 4.48122 6.24997 6 6.24997ZM11.7139 13.6532L8.5887 10.528L12.2145 11.9143C11.6149 12.0635 11.3043 12.8843 11.8583 13.3788L13.7481 15.066C14.0396 15.3262 14.2583 15.6579 14.3827 16.0283L14.7275 17.0556C14.8203 17.3319 15.0022 17.5695 15.2446 17.7311L17.4599 19.208L17.2432 19.5331L14.9938 18.4083L13.7694 16.7759C13.5211 16.4448 13.1315 16.25 12.7176 16.25H10.4985C9.83548 16.25 9.2762 16.7437 9.19396 17.4016L8.83791 20.25H8.32127L8.69225 16.1693L10.9473 15.8874C12.0329 15.7517 12.4875 14.4268 11.7139 13.6532ZM6 7.74997C5.30964 7.74997 4.75 8.30961 4.75 8.99997C4.75 9.69032 5.30964 10.25 6 10.25C6.69036 10.25 7.25 9.69032 7.25 8.99997C7.25 8.30961 6.69036 7.74997 6 7.74997Z" fill="black"/>
</svg>
