<svg width="25" height="25" viewBox="0 0 25 25" fill="none" xmlns="http://www.w3.org/2000/svg">
<path d="M7.64593 9.396C7.64593 8.98178 7.98171 8.646 8.39593 8.646L15.5569 8.646C15.9711 8.646 16.3069 8.98178 16.3069 9.396C16.3069 9.81021 15.9711 10.146 15.5569 10.146L8.39593 10.146C7.98172 10.146 7.64593 9.81021 7.64593 9.396Z" fill="black"/>
<path d="M16.0515 13.3944C15.9742 13.2626 15.7837 13.2626 15.7064 13.3944L15.333 14.0312C15.3049 14.0793 15.2579 14.1134 15.2034 14.1254L14.4824 14.2837C14.3332 14.3164 14.2743 14.4976 14.3758 14.6118L14.866 15.1637C14.9031 15.2054 14.921 15.2606 14.9156 15.3161L14.8433 16.0507C14.8283 16.2028 14.9825 16.3148 15.1225 16.2536L15.7988 15.9578C15.8499 15.9355 15.908 15.9355 15.9591 15.9578L16.6354 16.2536C16.7754 16.3148 16.9295 16.2028 16.9146 16.0507L16.8423 15.3161C16.8368 15.2606 16.8548 15.2054 16.8918 15.1637L17.3821 14.6118C17.4835 14.4976 17.4247 14.3164 17.2754 14.2837L16.5544 14.1254C16.5 14.1134 16.453 14.0793 16.4248 14.0312L16.0515 13.3944Z" fill="black"/>
<path fill-rule="evenodd" clip-rule="evenodd" d="M2.21838 6.62744C2.21838 5.66094 3.00189 4.87744 3.96838 4.87744H19.9684C20.9349 4.87744 21.7184 5.66094 21.7184 6.62744V17.1571C21.7184 18.1236 20.9349 18.9071 19.9684 18.9071H18.0641V20.4084C18.0641 20.6794 17.9179 20.9293 17.6818 21.0621C17.4456 21.195 17.1562 21.1901 16.9246 21.0494L15.9028 20.4285L14.8452 21.1004C14.6142 21.2471 14.3217 21.2564 14.0819 21.1246C13.8421 20.9928 13.6931 20.7409 13.6931 20.4673V18.9071H3.96838C3.00189 18.9071 2.21838 18.1236 2.21838 17.1571V6.62744ZM15.8788 18.5431C16.1131 18.5431 16.3422 18.5208 16.5641 18.4784V19.0751L16.2835 18.9046C16.0396 18.7564 15.7328 18.7595 15.4919 18.9125L15.1931 19.1023V18.4783C15.4151 18.5208 15.6444 18.5431 15.8788 18.5431ZM13.2437 17.4071C12.7678 16.9033 12.4348 16.2631 12.3095 15.5513H5.48283C5.06862 15.5513 4.73283 15.2155 4.73283 14.8013C4.73283 14.3871 5.06862 14.0513 5.48283 14.0513H12.359C12.4393 13.7245 12.5638 13.4151 12.726 13.1299H5.4828C5.06858 13.1299 4.7328 12.7941 4.7328 12.3799C4.7328 11.9657 5.06858 11.6299 5.4828 11.6299H14.3539C14.8175 11.4146 15.3341 11.2944 15.8788 11.2944C17.8805 11.2944 19.5031 12.9171 19.5031 14.9187C19.5031 15.8822 19.1272 16.7579 18.514 17.4071H19.9684C20.1065 17.4071 20.2184 17.2951 20.2184 17.1571V6.62744C20.2184 6.48937 20.1065 6.37744 19.9684 6.37744H3.96838C3.83031 6.37744 3.71838 6.48937 3.71838 6.62744V17.1571C3.71838 17.2951 3.83031 17.4071 3.96838 17.4071H13.2437ZM13.7545 14.9187C13.7545 13.7455 14.7056 12.7944 15.8788 12.7944C17.0521 12.7944 18.0031 13.7455 18.0031 14.9187C18.0031 16.092 17.0521 17.0431 15.8788 17.0431C14.7056 17.0431 13.7545 16.092 13.7545 14.9187Z" fill="black"/>
</svg>
