<svg width="25" height="25" viewBox="0 0 25 25" fill="none" xmlns="http://www.w3.org/2000/svg">
<path d="M7.76184 11.6821C7.76184 11.2679 8.09763 10.9321 8.51184 10.9321H14.0806C14.4949 10.9321 14.8306 11.2679 14.8306 11.6821C14.8306 12.0963 14.4949 12.4321 14.0806 12.4321H8.51184C8.09763 12.4321 7.76184 12.0963 7.76184 11.6821Z" fill="black"/>
<path d="M7.76184 14.5605C7.76184 14.1463 8.09763 13.8105 8.51184 13.8105H16.8185C17.2327 13.8105 17.5685 14.1463 17.5685 14.5605C17.5685 14.9748 17.2327 15.3105 16.8185 15.3105H8.51184C8.09763 15.3105 7.76184 14.9748 7.76184 14.5605Z" fill="black"/>
<path d="M8.51184 16.7637C8.09763 16.7637 7.76184 17.0995 7.76184 17.5137C7.76184 17.9279 8.09763 18.2637 8.51184 18.2637H16.8185C17.2327 18.2637 17.5685 17.9279 17.5685 17.5137C17.5685 17.0995 17.2327 16.7637 16.8185 16.7637H8.51184Z" fill="black"/>
<path fill-rule="evenodd" clip-rule="evenodd" d="M5.24036 3.78633C5.24036 3.20643 5.71046 2.73633 6.29036 2.73633H14.3053C14.3789 2.73633 14.4507 2.7439 14.52 2.7583C14.7154 2.75766 14.9107 2.83284 15.0582 2.98336L19.9773 8.00278C20.1264 8.15492 20.1975 8.3544 20.1912 8.55173C20.2056 8.62099 20.2132 8.69275 20.2132 8.76627V21.2854C20.2132 21.8653 19.7431 22.3354 19.1632 22.3354H6.29036C5.71046 22.3354 5.24036 21.8653 5.24036 21.2854V3.78633ZM6.74036 4.23633V20.8354H18.7132V9.21449L14.9365 9.19952C14.3615 9.19724 13.8953 8.73296 13.8907 8.15802L13.859 4.23633H6.74036ZM17.5902 7.71002L15.3688 5.44331L15.387 7.70129L17.5902 7.71002Z" fill="black"/>
</svg>
