<svg width="25" height="24" viewBox="0 0 25 24" fill="none" xmlns="http://www.w3.org/2000/svg">
<path fill-rule="evenodd" clip-rule="evenodd" d="M12.3167 12.005C13.1277 11.501 14.1815 12.0556 14.2252 13.0095L14.2637 13.8478L14.9052 14.3888C15.6352 15.0044 15.4334 16.178 14.5397 16.5143L13.7543 16.8099L13.438 17.5873C13.0781 18.4717 11.8996 18.6424 11.3036 17.8965L10.7797 17.2408L9.94267 17.1802C8.9903 17.1113 8.46377 16.0432 8.98906 15.2458L9.45075 14.545L9.24971 13.7302C9.02097 12.8031 9.87407 11.9723 10.7947 12.2255L11.6039 12.448L12.3167 12.005ZM12.7463 13.5041L12.3029 13.7797C12.0069 13.9637 11.6476 14.0157 11.3116 13.9233L10.8082 13.7849L10.9333 14.2918C11.0167 14.6301 10.9552 14.9879 10.7635 15.2789L10.4763 15.7149L10.997 15.7526C11.3446 15.7778 11.6659 15.9468 11.8834 16.2191L12.2093 16.627L12.4061 16.1434C12.5374 15.8206 12.7975 15.5673 13.1236 15.4446L13.6123 15.2607L13.2131 14.9241C12.9467 14.6994 12.7862 14.3738 12.7702 14.0257L12.7463 13.5041Z" fill="black"/>
<path fill-rule="evenodd" clip-rule="evenodd" d="M15.6222 2.75146C15.6222 2.33725 15.2864 2.00146 14.8722 2.00146C14.458 2.00146 14.1222 2.33725 14.1222 2.75146V4.54731C13.5306 4.44112 12.9244 4.39023 12.3106 4.39852L11.5136 4.4093C10.995 4.41631 10.5237 4.71241 10.2924 5.17661L4.8006 16.1961C4.62712 16.5441 4.64185 16.9564 4.83973 17.2912C6.55934 20.2009 9.69752 21.9756 13.0773 21.9496L14.0519 21.9421C14.5126 21.9385 14.9323 21.6765 15.1379 21.2641L15.3185 20.9017C17.1187 20.7591 18.7923 19.7686 19.5106 19.2935C19.9981 18.9711 20.2484 18.4327 20.2484 17.8949L20.2484 11.0097L20.6342 10.2355C20.8329 9.83686 20.8133 9.36418 20.5824 8.9833C19.4263 7.07661 17.6606 5.6683 15.6222 4.94517V2.75146ZM18.7484 14.0194L16.149 19.2352C17.1942 18.9496 18.1495 18.3953 18.6831 18.0424C18.7125 18.023 18.7484 17.9768 18.7484 17.8949L18.7484 14.0194ZM12.3309 5.89839C12.9401 5.89015 13.5404 5.95113 14.1222 6.07594V7.87505C13.7482 8.11982 13.5011 8.54246 13.5011 9.02282C13.5011 9.77984 14.1148 10.3935 14.8718 10.3935C15.6289 10.3935 16.2425 9.77984 16.2425 9.02282C16.2425 8.54279 15.9958 8.12039 15.6222 7.87555V6.55597C17.0939 7.19219 18.3653 8.26507 19.2417 9.66674L13.8709 20.4434L13.0657 20.4496C10.2841 20.471 7.69692 19.0436 6.22994 16.6909L11.6037 5.90822L12.3309 5.89839Z" fill="black"/>
</svg>
