<svg width="25" height="24" viewBox="0 0 25 24" fill="none" xmlns="http://www.w3.org/2000/svg">
<path d="M12.1457 2.37848C12.5599 2.37848 12.8957 2.71427 12.8957 3.12848V4.44367C13.3031 4.51066 13.6914 4.63307 14.064 4.81698C14.706 5.13387 15.2608 5.61339 15.7726 6.22749C16.0377 6.5457 15.9947 7.01862 15.6765 7.2838C15.3583 7.54897 14.8854 7.50597 14.6202 7.18777C14.2029 6.68699 13.8055 6.36219 13.4001 6.16204C12.9998 5.96445 12.5517 5.86856 12.0013 5.88292C11.2651 5.90212 10.5151 6.19414 9.9623 6.66289C9.41351 7.12824 9.10261 7.72507 9.11631 8.36127C9.1284 8.92212 9.26307 9.25709 9.50777 9.53816C9.78315 9.85447 10.2506 10.1641 11.0656 10.5489L12.0348 10.9916L12.2941 11.1068C12.6553 11.2674 13.0224 11.4321 13.3817 11.6069L13.514 11.6673C13.548 11.6828 13.5803 11.7006 13.6109 11.7204C14.1908 12.0132 14.7424 12.3365 15.2065 12.7163C16.0529 13.4091 16.6557 14.3289 16.6557 15.6109C16.6557 16.8549 16.1105 17.8723 15.2167 18.5593C14.5742 19.0532 13.7727 19.3622 12.8957 19.4917V20.8715C12.8957 21.2857 12.5599 21.6215 12.1457 21.6215C11.7314 21.6215 11.3957 21.2857 11.3957 20.8715V19.5361C9.6584 19.3607 8.46834 18.3154 7.63236 17.1497C7.39098 16.813 7.46817 16.3445 7.80478 16.1031C8.14139 15.8617 8.60995 15.9389 8.85133 16.2755C9.61022 17.3338 10.5546 18.062 11.9158 18.062C12.9246 18.062 13.7491 17.7954 14.3026 17.37C14.8378 16.9586 15.1557 16.3755 15.1557 15.6109C15.1557 14.8843 14.8456 14.3593 14.2565 13.8771C13.8484 13.5431 13.3314 13.2507 12.7269 12.9569L11.4185 12.3592L10.9995 12.1729L11.0014 12.1686L10.4298 11.9075C9.57456 11.5041 8.86652 11.086 8.37644 10.5231C7.85521 9.92439 7.63464 9.22802 7.61666 8.39358C7.59118 7.21049 8.17835 6.20892 8.9922 5.51882C9.66033 4.95229 10.5105 4.56696 11.3957 4.4336V3.12848C11.3957 2.71427 11.7314 2.37848 12.1457 2.37848Z" fill="black"/>
</svg>
