<svg width="25" height="25" viewBox="0 0 25 25" fill="none" xmlns="http://www.w3.org/2000/svg">
<path fill-rule="evenodd" clip-rule="evenodd" d="M2.20178 12.937C2.20178 7.39635 6.65932 2.89453 12.1705 2.89453C17.6817 2.89453 22.1393 7.39635 22.1393 12.937C22.1393 18.4777 17.6817 22.9795 12.1705 22.9795C6.65932 22.9795 2.20178 18.4777 2.20178 12.937ZM12.1679 4.39453V6.01076C15.9988 6.01943 19.1018 9.12772 19.1018 12.9607C19.1018 16.7991 15.9902 19.9107 12.1518 19.9107C9.7801 19.9107 7.68588 18.7228 6.43172 16.9094L5.20216 17.7932C6.73155 20.0216 9.28415 21.4795 12.1705 21.4795C16.8421 21.4795 20.6393 17.6605 20.6393 12.937C20.6393 8.21349 16.8421 4.39453 12.1705 4.39453L12.1679 4.39453ZM12.1518 7.51074C9.14183 7.51074 6.70178 9.95079 6.70178 12.9607C6.70178 15.9707 9.14183 18.4107 12.1518 18.4107C15.1617 18.4107 17.6018 15.9707 17.6018 12.9607C17.6018 9.95079 15.1617 7.51074 12.1518 7.51074Z" fill="black"/>
</svg>
