<svg width="25" height="24" viewBox="0 0 25 24" fill="none" xmlns="http://www.w3.org/2000/svg">
<path d="M12.0737 3.25C12.4879 3.25 12.8237 3.58579 12.8237 4L12.8237 15.191L16.5433 11.4698C16.8361 11.1768 17.311 11.1767 17.6039 11.4696C17.8969 11.7624 17.897 12.2373 17.6042 12.5302L12.6135 17.5231C12.3167 17.82 11.8355 17.8201 11.5387 17.5234L6.54352 12.5304C6.25056 12.2376 6.25045 11.7627 6.54328 11.4698C6.83611 11.1768 7.31098 11.1767 7.60394 11.4696L11.3237 15.1877L11.3237 4C11.3237 3.58579 11.6595 3.25 12.0737 3.25Z" fill="black"/>
<path d="M20.8237 15C20.8237 14.5858 20.4879 14.25 20.0737 14.25C19.6595 14.25 19.3237 14.5858 19.3237 15V19C19.3237 19.1381 19.2118 19.25 19.0737 19.25H5.07373C4.93566 19.25 4.82373 19.1381 4.82373 19V15.0747C4.82373 14.6605 4.48794 14.3247 4.07373 14.3247C3.65952 14.3247 3.32373 14.6605 3.32373 15.0747V19C3.32373 19.9665 4.10723 20.75 5.07373 20.75H19.0737C20.0402 20.75 20.8237 19.9665 20.8237 19V15Z" fill="black"/>
</svg>
