<svg width="25" height="24" viewBox="0 0 25 24" fill="none" xmlns="http://www.w3.org/2000/svg">
<path fill-rule="evenodd" clip-rule="evenodd" d="M4.58754 3.44542C4.35375 3.23257 4.01157 3.1892 3.73207 3.33699C3.45256 3.48478 3.29575 3.79199 3.34003 4.10505C3.41213 4.61481 3.51659 5.10439 3.62293 5.60287C3.86768 6.75004 4.12248 7.9443 4.0161 9.53997C4.01552 9.54862 4.0151 9.55727 4.01482 9.56593C3.97316 10.8712 4.62371 12.4354 5.6951 13.6575C6.51358 14.5912 7.62683 15.3814 8.96614 15.7148C8.73612 15.9247 8.46718 16.1445 8.17321 16.3494C7.53991 16.7908 6.89633 17.0886 6.35851 17.1459L4.91633 15.9059C4.60224 15.6359 4.12871 15.6716 3.85867 15.9857C3.58862 16.2997 3.62432 16.7733 3.93841 17.0433L7.16431 19.8169C7.47839 20.0869 7.95192 20.0512 8.22197 19.7372C8.49201 19.4231 8.45631 18.9495 8.14223 18.6795L7.71797 18.3147C8.19527 18.1156 8.64248 17.8507 9.03092 17.58C9.59177 17.1891 10.0959 16.7394 10.4685 16.3371L9.66533 18.0495C9.61859 18.1492 9.59436 18.2579 9.59436 18.368C9.59436 19.7398 10.7812 20.75 12.1145 20.75C13.4478 20.75 14.6347 19.7398 14.6347 18.368C14.6347 18.2815 14.6197 18.1956 14.5904 18.1142L13.9205 16.2514C14.2993 16.6747 14.8351 17.1611 15.4361 17.58C15.8247 17.8508 16.2722 18.1158 16.7497 18.315L16.3258 18.6795C16.0117 18.9495 15.976 19.4231 16.246 19.7372C16.5161 20.0512 16.9896 20.0869 17.3037 19.8169L20.5296 17.0433C20.8437 16.7733 20.8794 16.2997 20.6093 15.9857C20.3393 15.6716 19.8658 15.6359 19.5517 15.9059L18.1094 17.146C17.5714 17.089 16.9275 16.791 16.2938 16.3494C15.988 16.1362 15.7092 15.9069 15.4732 15.6894C16.7687 15.3425 17.8476 14.5682 18.646 13.6575C19.7174 12.4354 20.3679 10.8712 20.3262 9.56593C20.326 9.55727 20.3255 9.54862 20.325 9.53997C20.2186 7.9443 20.4734 6.75004 20.7181 5.60287C20.8245 5.10441 20.9289 4.6148 21.001 4.10505C21.0453 3.79199 20.8885 3.48478 20.609 3.33699C20.3295 3.1892 19.9873 3.23257 19.7535 3.44542L16.6022 6.31442C16.0425 6.82393 15.6957 7.45822 15.4239 8.03316C15.3287 8.23454 15.2448 8.42246 15.1651 8.60097C15 8.97102 14.8528 9.30077 14.66 9.62595C14.5722 9.77407 14.4707 9.88382 14.3358 9.94965L14.2734 9.19639L14.2778 9.15687C14.2816 9.12226 14.2867 9.07292 14.2925 9.01121C14.3041 8.88796 14.3183 8.71435 14.3294 8.50928C14.3513 8.10411 14.3622 7.55486 14.3094 7.02231C14.2604 6.52742 14.1447 5.89505 13.808 5.44342C13.6219 5.19371 13.3446 4.96857 12.9626 4.89335C12.592 4.82035 12.2312 4.91015 11.9106 5.06903C11.2173 5.41256 10.7598 5.8362 10.4736 6.31365L9.60261 6.38721C9.19017 6.42205 8.88392 6.78443 8.91833 7.19691L8.96022 7.69899C8.99466 8.11177 9.3572 8.41848 9.76998 8.38404C9.87631 8.37517 9.97561 8.34452 10.0639 8.29685C10.0678 8.42646 10.0732 8.54079 10.0782 8.64745C10.0867 8.82974 10.0942 8.98974 10.0921 9.16521C10.0919 9.17917 10.0921 9.19304 10.0927 9.20682L10.0302 9.96113C9.88268 9.89698 9.77414 9.78304 9.68102 9.62595C9.48826 9.30074 9.34115 8.97113 9.17598 8.60104C9.09631 8.42251 9.01243 8.23457 8.91719 8.03316C8.64533 7.45822 8.29856 6.82393 7.7389 6.31442L4.58754 3.44542ZM9.71279 13.7918L9.66831 14.3287C8.52999 14.1422 7.55512 13.5038 6.82305 12.6687C5.93648 11.6574 5.49176 10.4559 5.51371 9.6256C5.5241 9.4669 5.53109 9.3104 5.53503 9.15613L5.97628 9.58921C6.04115 10.2974 6.35879 11.214 6.89876 11.9949C7.48828 12.8476 8.41914 13.6433 9.71279 13.7918ZM9.90423 11.4812L9.83681 12.2951C9.11298 12.1938 8.54917 11.7444 8.13256 11.1419C7.64009 10.4296 7.45011 9.6367 7.46454 9.29523C7.4735 9.08307 7.39211 8.87705 7.24056 8.7283L5.47158 6.99209C5.44762 6.96858 5.42248 6.947 5.39636 6.92735C5.3546 6.63368 5.30644 6.35192 5.25583 6.08234L6.72909 7.4236C7.06487 7.72929 7.31029 8.14384 7.56114 8.67435C7.6259 8.81131 7.69365 8.96283 7.76497 9.12234C7.94701 9.52947 8.15235 9.98873 8.39066 10.3908C8.69867 10.9104 9.1944 11.3496 9.90423 11.4812ZM17.518 12.6687C16.7914 13.4976 15.8256 14.1326 14.6982 14.3244L14.6538 13.7886C15.937 13.6309 16.8555 12.83 17.4353 11.9766C17.9685 11.192 18.2793 10.2745 18.3438 9.56853L18.8053 9.12764C18.8091 9.29113 18.8163 9.45712 18.8274 9.6256C18.8493 10.4559 18.4046 11.6574 17.518 12.6687ZM16.1947 11.1336C15.7866 11.7341 15.2364 12.1819 14.5298 12.2909L14.4623 11.4764C15.1585 11.3391 15.6461 10.9042 15.9504 10.3908C16.1887 9.98873 16.394 9.52952 16.5761 9.1224C16.6474 8.96286 16.7152 8.81132 16.7799 8.67435C17.0308 8.14384 17.2762 7.72929 17.612 7.4236L19.0852 6.08234C19.0346 6.35192 18.9865 6.63369 18.9447 6.92737C18.9212 6.94502 18.8985 6.96424 18.8768 6.98502L17.087 8.69467C16.9309 8.8438 16.8466 9.05297 16.8557 9.26867C16.8703 9.61424 16.6826 10.4155 16.1947 11.1336ZM12.8167 7.17017C12.8583 7.59005 12.8517 8.04828 12.8323 8.41505H11.5696C11.5668 8.35151 11.5643 8.29162 11.5627 8.23707C11.5541 7.94639 11.5616 7.70796 11.6051 7.49593C11.6779 7.14151 11.8645 6.7659 12.5766 6.41308C12.5993 6.40182 12.6186 6.39333 12.6348 6.38694C12.702 6.5116 12.7769 6.76766 12.8167 7.17017ZM11.5391 9.91505L11.1688 14.3844H13.1981L12.8278 9.91505H11.5391ZM12.1145 19.25C11.5591 19.25 11.1821 18.8903 11.1078 18.5064L12.2566 16.0571L13.1265 18.4759C13.0667 18.871 12.6846 19.25 12.1145 19.25Z" fill="black"/>
</svg>
