<svg width="25" height="25" viewBox="0 0 25 25" fill="none" xmlns="http://www.w3.org/2000/svg">
<path fill-rule="evenodd" clip-rule="evenodd" d="M16.0906 4.65908L14.9296 5.82011C14.8878 5.84703 14.8482 5.87852 14.8112 5.91459L5.41088 15.1013C5.15497 15.3514 4.98188 15.6739 4.91492 16.0254L4.09869 20.3106C4.0511 20.5605 4.1334 20.8175 4.31732 20.9932C4.50124 21.169 4.7617 21.2395 5.00916 21.1806L9.32757 20.1524C9.64261 20.0774 9.93067 19.9164 10.1597 19.6874L19.3658 10.4813C19.4031 10.444 19.4356 10.4037 19.4634 10.3613L20.6281 9.1966C21.8811 7.9436 21.8811 5.91208 20.6281 4.65908C19.3751 3.40608 17.3436 3.40608 16.0906 4.65908ZM19.5675 5.71974C18.9003 5.05253 17.8185 5.05253 17.1513 5.71974L16.1581 6.71294L18.5743 9.12914L19.5675 8.13594C20.2347 7.46872 20.2347 6.38695 19.5675 5.71974ZM17.5248 10.201L15.0765 7.7527L6.45928 16.1741C6.42272 16.2098 6.39799 16.2559 6.38843 16.3061L5.78903 19.453L8.98014 18.6932C9.02514 18.6825 9.06629 18.6595 9.09901 18.6268L17.5248 10.201Z" fill="black"/>
</svg>
