<svg width="25" height="25" viewBox="0 0 25 25" fill="none" xmlns="http://www.w3.org/2000/svg">
<path d="M18.3932 9.45305C18.6742 9.14868 18.6552 8.67419 18.3508 8.39323C18.0465 8.11228 17.572 8.13126 17.291 8.43563L10.2101 16.1066L6.95707 12.8587C6.66394 12.5661 6.18907 12.5665 5.89641 12.8596C5.60374 13.1527 5.60412 13.6276 5.89724 13.9202L9.70223 17.7192C9.8466 17.8634 10.0435 17.9425 10.2474 17.9383C10.4514 17.9342 10.6449 17.8471 10.7832 17.6972L18.3932 9.45305Z" fill="black"/>
<path fill-rule="evenodd" clip-rule="evenodd" d="M12.1706 2.09033C6.66092 2.09033 2.19446 6.5568 2.19446 12.0665C2.19446 17.5761 6.66092 22.0426 12.1706 22.0426C17.6802 22.0426 22.1467 17.5761 22.1467 12.0665C22.1467 6.5568 17.6802 2.09033 12.1706 2.09033ZM3.69446 12.0665C3.69446 7.38522 7.48935 3.59033 12.1706 3.59033C16.8518 3.59033 20.6467 7.38522 20.6467 12.0665C20.6467 16.7477 16.8518 20.5426 12.1706 20.5426C7.48935 20.5426 3.69446 16.7477 3.69446 12.0665Z" fill="black"/>
</svg>
