<svg width="25" height="25" viewBox="0 0 25 25" fill="none" xmlns="http://www.w3.org/2000/svg">
<path d="M8.28436 7.1557C7.99147 6.86281 7.51659 6.86281 7.2237 7.1557C6.93081 7.4486 6.93081 7.92347 7.2237 8.21637L11.0737 12.0664L7.2237 15.9164C6.93081 16.2093 6.93081 16.6842 7.2237 16.9771C7.51659 17.27 7.99147 17.27 8.28436 16.9771L12.1344 13.1271L15.9844 16.9771C16.2773 17.27 16.7522 17.27 17.0451 16.9771C17.338 16.6842 17.338 16.2093 17.0451 15.9164L13.1951 12.0664L17.0451 8.21637C17.338 7.92347 17.338 7.4486 17.0451 7.1557C16.7522 6.86281 16.2773 6.86281 15.9844 7.1557L12.1344 11.0057L8.28436 7.1557Z" fill="black"/>
<path fill-rule="evenodd" clip-rule="evenodd" d="M12.1706 2.09033C6.66092 2.09033 2.19446 6.5568 2.19446 12.0665C2.19446 17.5761 6.66092 22.0426 12.1706 22.0426C17.6802 22.0426 22.1467 17.5761 22.1467 12.0665C22.1467 6.5568 17.6802 2.09033 12.1706 2.09033ZM3.69446 12.0665C3.69446 7.38522 7.48935 3.59033 12.1706 3.59033C16.8518 3.59033 20.6467 7.38522 20.6467 12.0665C20.6467 16.7477 16.8518 20.5426 12.1706 20.5426C7.48935 20.5426 3.69446 16.7477 3.69446 12.0665Z" fill="black"/>
</svg>
