<svg width="25" height="25" viewBox="0 0 25 25" fill="none" xmlns="http://www.w3.org/2000/svg">
<path d="M12.1603 5.0498C12.5745 5.0498 12.9103 5.38559 12.9103 5.7998V14.877C12.9103 15.2912 12.5745 15.627 12.1603 15.627C11.7461 15.627 11.4103 15.2912 11.4103 14.877V5.7998C11.4103 5.38559 11.7461 5.0498 12.1603 5.0498Z" fill="black"/>
<path d="M12.1351 19.229C12.707 19.229 13.1705 18.7654 13.1705 18.1936C13.1705 17.6218 12.707 17.1582 12.1351 17.1582C11.5633 17.1582 11.0997 17.6218 11.0997 18.1936C11.0997 18.7654 11.5633 19.229 12.1351 19.229Z" fill="black"/>
<path fill-rule="evenodd" clip-rule="evenodd" d="M2.19446 12.0665C2.19446 6.5568 6.66092 2.09033 12.1706 2.09033C17.6802 2.09033 22.1467 6.5568 22.1467 12.0665C22.1467 17.5761 17.6802 22.0426 12.1706 22.0426C6.66092 22.0426 2.19446 17.5761 2.19446 12.0665ZM12.1706 3.59033C7.48935 3.59033 3.69446 7.38522 3.69446 12.0665C3.69446 16.7477 7.48935 20.5426 12.1706 20.5426C16.8518 20.5426 20.6467 16.7477 20.6467 12.0665C20.6467 7.38522 16.8518 3.59033 12.1706 3.59033Z" fill="black"/>
</svg>
