<svg width="25" height="25" viewBox="0 0 25 25" fill="none" xmlns="http://www.w3.org/2000/svg">
<path fill-rule="evenodd" clip-rule="evenodd" d="M12.7501 3.79297C8.06882 3.79297 4.27393 7.58786 4.27393 12.2691C4.27393 16.9503 8.06882 20.7452 12.7501 20.7452C17.4313 20.7452 21.2262 16.9503 21.2262 12.2691C21.2262 7.58786 17.4313 3.79297 12.7501 3.79297ZM2.77393 12.2691C2.77393 6.75943 7.24039 2.29297 12.7501 2.29297C18.2597 2.29297 22.7262 6.75943 22.7262 12.2691C22.7262 17.7788 18.2597 22.2452 12.7501 22.2452C7.24039 22.2452 2.77393 17.7788 2.77393 12.2691Z" fill="black"/>
<path d="M11.7175 17.2135C11.7175 16.7014 12.1326 16.2863 12.6446 16.2863C13.1567 16.2863 13.5718 16.7014 13.5718 17.2135C13.5718 17.7255 13.1567 18.1406 12.6446 18.1406C12.1326 18.1406 11.7175 17.7255 11.7175 17.2135Z" fill="black"/>
<path fill-rule="evenodd" clip-rule="evenodd" d="M11.2188 8.62193C10.9437 8.97327 10.8279 9.42683 10.823 9.76488C10.817 10.179 10.4764 10.5099 10.0622 10.5039C9.64806 10.4979 9.31717 10.1573 9.32317 9.74315C9.33187 9.14274 9.52369 8.35379 10.0377 7.69725C10.5757 7.01007 11.4296 6.51902 12.6277 6.51904C13.5623 6.51906 14.4331 6.79819 15.0809 7.37141C15.7388 7.95355 16.1063 8.78711 16.1063 9.76117C16.1063 10.5605 15.8689 11.1407 15.4798 11.6287C15.2321 11.9394 14.8953 12.2341 14.592 12.4994C14.4901 12.5886 14.3919 12.6745 14.3022 12.7565C13.9704 13.0779 13.7729 13.2925 13.6395 13.4984C13.5179 13.6861 13.4371 13.8869 13.3908 14.1921C13.3287 14.6016 12.9464 14.8832 12.5368 14.8211C12.1273 14.759 11.8457 14.3767 11.9078 13.9671C11.9829 13.4716 12.1326 13.0657 12.3806 12.6829C12.6158 12.3198 12.9251 12.0018 13.2665 11.6714L13.2737 11.6645L13.281 11.6577C13.4453 11.5071 13.5868 11.3834 13.7112 11.2747C13.9653 11.0526 14.148 10.893 14.3069 10.6936C14.4878 10.4667 14.6063 10.2151 14.6063 9.76117C14.6063 9.18315 14.3987 8.77066 14.0869 8.49476C13.765 8.20995 13.2715 8.01906 12.6277 8.01904C11.8865 8.01903 11.4699 8.30123 11.2188 8.62193Z" fill="black"/>
</svg>
