<svg width="25" height="25" viewBox="0 0 25 25" fill="none" xmlns="http://www.w3.org/2000/svg">
<path d="M13.7605 7.18907C13.7408 6.79244 13.4129 6.47692 13.0114 6.47692C12.6149 6.47692 12.2903 6.78457 12.2632 7.17417C12.0953 7.24666 11.9388 7.34317 11.8011 7.45988C11.4834 7.72928 11.2232 8.14886 11.2345 8.66954C11.2415 8.99596 11.3327 9.31681 11.5751 9.59518C11.6972 9.7355 11.8423 9.84581 11.9905 9.93635L11.979 9.96228L12.5935 10.2354L12.9292 10.3887C13.0737 10.4588 13.1709 10.5149 13.2392 10.5708C13.2652 10.5921 13.2779 10.6065 13.2833 10.6133L13.2834 10.6194C13.2834 10.6337 13.2819 10.6421 13.281 10.6457L13.28 10.6494L13.2794 10.6506L13.278 10.6525C13.2763 10.6544 13.2724 10.6587 13.2648 10.6645C13.2316 10.69 13.1335 10.7395 12.9489 10.7395C12.8661 10.7395 12.811 10.7193 12.7619 10.6884C12.7047 10.6524 12.6367 10.5889 12.5599 10.4818C12.3185 10.1452 11.8499 10.068 11.5133 10.3094C11.1767 10.5508 11.0995 11.0193 11.3409 11.3559C11.548 11.6447 11.8477 11.9462 12.264 12.1117C12.2958 12.4966 12.6183 12.799 13.0114 12.799C13.4117 12.799 13.7387 12.4855 13.7603 12.0906C13.9083 12.0314 14.0495 11.9533 14.1789 11.8538C14.5524 11.5667 14.7834 11.1321 14.7834 10.6194C14.7834 10.0688 14.513 9.67501 14.1892 9.41006C14.0312 9.28073 13.8502 9.17385 13.6749 9.08409C13.6541 9.07208 13.6325 9.06095 13.6103 9.05077L13.5841 9.0388C13.4745 8.98547 13.3692 8.93867 13.2755 8.89704L13.2097 8.86781L12.948 8.74827C12.8533 8.70341 12.7912 8.66894 12.7499 8.64201L12.7402 8.6356C12.746 8.62789 12.7556 8.61724 12.7712 8.60395C12.8279 8.5559 12.9125 8.52329 12.9864 8.52137C13.0598 8.51945 13.0917 8.53167 13.1106 8.541C13.1347 8.5529 13.1854 8.58484 13.2644 8.67968C13.5296 8.99789 14.0025 9.04089 14.3207 8.77572C14.639 8.51054 14.6819 8.03762 14.4168 7.71941C14.2433 7.51124 14.0352 7.32457 13.7746 7.19594L13.7605 7.18907Z" fill="black"/>
<path fill-rule="evenodd" clip-rule="evenodd" d="M12.0423 3.6859L10.8632 4.31213H6.69739C6.28317 4.31213 5.94739 4.64791 5.94739 5.06213V7.78562L4.42606 9.17161C4.06206 9.50323 3.85461 9.97285 3.85461 10.4653V20.1343C3.85461 20.8247 4.41426 21.3843 5.10461 21.3843H20.6496C21.3399 21.3843 21.8996 20.8247 21.8996 20.1343V10.4653C21.8996 9.97285 21.6921 9.50323 21.3281 9.17161L19.7028 7.69091V5.06213C19.7028 4.64791 19.3671 4.31213 18.9528 4.31213H14.7528L13.7498 3.72268C13.2257 3.41467 12.5792 3.40074 12.0423 3.6859ZM5.43625 10.2804L5.94739 9.81478V10.7525L5.50555 10.4313C5.46519 10.402 5.42288 10.3772 5.37926 10.357C5.39302 10.3284 5.41225 10.3023 5.43625 10.2804ZM10.9587 14.395L7.44739 11.8428V5.81213H18.2028V11.958L14.6912 14.3142L14.5571 14.2107C13.5674 13.4472 12.1873 13.4472 11.1976 14.2107L10.9587 14.395ZM20.3996 10.4841L19.7028 10.9516V9.72006L20.3179 10.2804C20.3699 10.3278 20.3996 10.3949 20.3996 10.4653V10.4841ZM15.9435 15.2803L20.3996 18.7178V12.2904L15.9435 15.2803ZM19.456 19.8843L13.6409 15.3984C13.191 15.0513 12.5637 15.0513 12.1138 15.3984L6.29872 19.8843H19.456ZM5.35461 18.7182L9.72102 15.3498L5.35461 12.176V18.7182Z" fill="black"/>
</svg>
