<svg width="24" height="25" viewBox="0 0 24 25" fill="none" xmlns="http://www.w3.org/2000/svg">
<path fill-rule="evenodd" clip-rule="evenodd" d="M3.57683 4.53198C2.77602 4.53198 2.12683 5.18117 2.12683 5.98198V19.0181C2.12683 19.819 2.77602 20.4681 3.57683 20.4681H20.3522C21.153 20.4681 21.8022 19.819 21.8022 19.0181V5.98198C21.8022 5.18117 21.153 4.53198 20.3522 4.53198H3.57683ZM3.62683 7.08971V6.03198H11.208V9.36304H10.1013L8.04769 7.30938C7.90703 7.16873 7.71627 7.08971 7.51736 7.08971H3.62683ZM3.62683 8.58971V11.7122H8.62244V10.113C8.62244 10.0788 8.62473 10.0452 8.62916 10.0122L7.2067 8.58971H3.62683ZM8.62244 13.2122H3.62683V16.4846L7.0443 16.4846L8.62758 14.9013C8.62418 14.8724 8.62244 14.8429 8.62244 14.8131V13.2122ZM12.708 9.36304H14.2094L16.2824 7.28999C16.4231 7.14934 16.6138 7.07032 16.8127 7.07032H20.3022V6.03198H12.708V9.36304ZM20.3022 8.57032H17.1234L15.2709 10.4228V11.678H20.3022V8.57032ZM20.3022 13.178H15.2709V14.7912L16.961 16.4813H20.3022V13.178ZM12.708 15.5631H13.9214L16.12 17.7616C16.2607 17.9023 16.4514 17.9813 16.6503 17.9813H20.3022V18.9681H12.708V15.5631ZM11.208 15.5631H10.0872L7.88529 17.765C7.74463 17.9056 7.55387 17.9846 7.35495 17.9846L3.62683 17.9846V18.9681H11.208V15.5631ZM10.1224 10.863V14.0631H13.7709V10.863H10.1224Z" fill="black"/>
</svg>
