<svg width="24" height="25" viewBox="0 0 24 25" fill="none" xmlns="http://www.w3.org/2000/svg">
<path fill-rule="evenodd" clip-rule="evenodd" d="M4.62109 7.0447C4.62109 5.17817 6.13422 3.66504 8.00076 3.66504C9.86729 3.66504 11.3804 5.17817 11.3804 7.0447C11.3804 8.15033 10.8495 9.13195 10.0287 9.74855C10.2241 9.87968 10.4012 10.0281 10.5601 10.1904C10.798 10.4334 10.9891 10.7013 11.1388 10.979C11.4095 10.8881 11.6994 10.8389 12.0008 10.8389C12.3019 10.8389 12.5916 10.8881 12.8622 10.9789C13.012 10.7012 13.203 10.4333 13.4409 10.1904C13.5998 10.028 13.777 9.87954 13.9725 9.74836C13.1519 9.13175 12.6211 8.15021 12.6211 7.0447C12.6211 5.17817 14.1342 3.66504 16.0008 3.66504C17.8673 3.66504 19.3804 5.17817 19.3804 7.0447C19.3804 8.16611 18.8342 9.15996 17.9934 9.77474C18.5785 10.1877 19.0822 10.7819 19.4854 11.5091C20.2909 12.9623 20.751 15.0223 20.751 17.5662V20.045C20.751 20.4592 20.4152 20.795 20.001 20.795H4C3.58579 20.795 3.25 20.4592 3.25 20.045V17.5662C3.25 15.0223 3.7101 12.9623 4.51561 11.5091C4.91881 10.7818 5.42262 10.1875 6.00786 9.77455C5.16716 9.15975 4.62109 8.166 4.62109 7.0447ZM8.00076 5.16504C6.96265 5.16504 6.12109 6.00659 6.12109 7.0447C6.12109 8.08281 6.96265 8.92437 8.00076 8.92437C9.03887 8.92437 9.88042 8.08281 9.88042 7.0447C9.88042 6.00659 9.03887 5.16504 8.00076 5.16504ZM15.7002 19.295H19.251V17.5662C19.251 15.1792 18.8156 13.3949 18.1734 12.2364C17.5388 11.0915 16.7586 10.6341 16.0171 10.6275C15.2937 10.6636 14.8224 10.9234 14.5127 11.2397C14.3378 11.4184 14.2034 11.6269 14.1068 11.8457C14.4819 12.3101 14.7066 12.9012 14.7066 13.5447C14.7066 14.2898 14.4054 14.9646 13.9181 15.454C14.9563 16.1177 15.7002 17.3397 15.7002 18.9711V19.295ZM9.48823 11.2397C9.66328 11.4185 9.7977 11.6272 9.89437 11.8461C9.51943 12.3105 9.29492 12.9014 9.29492 13.5447C9.29492 14.2761 9.58511 14.9397 10.0566 15.4267C9.80729 15.5814 9.57585 15.7692 9.36765 15.9897C8.68035 16.7179 8.29883 17.7461 8.29883 18.9711V19.295H4.75V17.5662C4.75 15.1792 5.18533 13.3949 5.82753 12.2364C6.46215 11.0915 7.24241 10.6341 7.98383 10.6275C8.70727 10.6636 9.17862 10.9234 9.48823 11.2397ZM10.7949 13.5447C10.7949 12.8787 11.3348 12.3389 12.0008 12.3389C12.6667 12.3389 13.2066 12.8787 13.2066 13.5447C13.2066 14.2107 12.6667 14.7505 12.0008 14.7505C11.3348 14.7505 10.7949 14.2107 10.7949 13.5447ZM9.79883 18.9711C9.79883 18.0599 10.0778 17.4226 10.4585 17.0194C10.8387 16.6165 11.3729 16.3901 11.9995 16.3901C13.045 16.3901 14.2002 17.2333 14.2002 18.9711V19.295H9.79883V18.9711ZM14.1211 7.0447C14.1211 6.00659 14.9626 5.16504 16.0008 5.16504C17.0389 5.16504 17.8804 6.00659 17.8804 7.0447C17.8804 8.08281 17.0389 8.92437 16.0008 8.92437C14.9626 8.92437 14.1211 8.08281 14.1211 7.0447Z" fill="black"/>
</svg>
