<svg width="24" height="24" viewBox="0 0 24 24" fill="none" xmlns="http://www.w3.org/2000/svg">
<path fill-rule="evenodd" clip-rule="evenodd" d="M12.8262 3.64404C12.8262 3.22983 12.4904 2.89404 12.0762 2.89404C11.662 2.89404 11.3262 3.22983 11.3262 3.64404V5.02082C11.0229 5.11702 10.8032 5.40077 10.8032 5.73584C10.8032 6.07091 11.023 6.35467 11.3262 6.45086V7.15079C10.1762 7.37612 9.1564 8.10906 8.82459 9.16943H8.41553C8.00131 9.16943 7.66553 9.50522 7.66553 9.91943V13.25H5.07617C4.66196 13.25 4.32617 13.5858 4.32617 14C4.32617 14.4142 4.66196 14.75 5.07617 14.75H5.57352V19.1061H4.27759C3.86337 19.1061 3.52759 19.4419 3.52759 19.8561C3.52759 20.2703 3.86337 20.6061 4.27759 20.6061H19.8747C20.2889 20.6061 20.6247 20.2703 20.6247 19.8561C20.6247 19.4419 20.2889 19.1061 19.8747 19.1061H18.5787V14.75H19.0762C19.4904 14.75 19.8262 14.4142 19.8262 14C19.8262 13.5858 19.4904 13.25 19.0762 13.25H16.4868V9.93779L16.487 9.91943C16.487 9.50522 16.1513 9.16943 15.737 9.16943H15.3279C14.9961 8.10903 13.9762 7.37606 12.8262 7.15077V6.45086C13.1294 6.35467 13.3492 6.07091 13.3492 5.73584C13.3492 5.40076 13.1294 5.117 12.8262 5.02081V3.64404ZM10.5432 9.16943C10.8534 8.83595 11.3743 8.57764 12.0763 8.57764C12.7782 8.57764 13.2991 8.83595 13.6093 9.16943H10.5432ZM9.16553 13.25V10.6694H14.9868V13.25H14.395V12.0117C14.395 11.5975 14.0592 11.2617 13.645 11.2617C13.2308 11.2617 12.895 11.5975 12.895 12.0117V13.25H11.2573V12.0117C11.2573 11.5975 10.9215 11.2617 10.5073 11.2617C10.0931 11.2617 9.75732 11.5975 9.75732 12.0117V13.25H9.16553ZM13.8721 14.8186C13.9261 14.8014 13.9776 14.7783 14.0256 14.75H14.9869V19.1061H13.8721V14.8186ZM9.16538 14.75H10.1268C10.1747 14.7783 10.2261 14.8014 10.2802 14.8186V19.1061H9.16538V14.75ZM17.0787 14.75H16.4869V19.1061H17.0787V14.75ZM12.3721 14.75H11.7802V19.1061H12.3721V14.75ZM7.66538 14.75H7.07352V19.1061H7.66538V14.75Z" fill="black"/>
</svg>
