<svg width="24" height="24" viewBox="0 0 24 24" fill="none" xmlns="http://www.w3.org/2000/svg">
<path d="M12.2232 6.00975C12.1073 5.81205 11.8215 5.81205 11.7056 6.00975L11.2458 6.79399C11.2035 6.86613 11.133 6.91735 11.0513 6.93528L10.1634 7.13021C9.93954 7.17935 9.85122 7.45116 10.0034 7.62248L10.6072 8.3021C10.6627 8.36462 10.6897 8.44749 10.6815 8.53072L10.5925 9.43543C10.5701 9.6635 10.8013 9.83148 11.0112 9.73967L11.8442 9.37546C11.9208 9.34195 12.0079 9.34195 12.0846 9.37546L12.9175 9.73967C13.1275 9.83148 13.3587 9.6635 13.3362 9.43543L13.2472 8.53072C13.2391 8.44749 13.266 8.36462 13.3215 8.3021L13.9253 7.62248C14.0775 7.45116 13.9892 7.17935 13.7653 7.13021L12.8774 6.93528C12.7957 6.91735 12.7252 6.86613 12.6829 6.79399L12.2232 6.00975Z" fill="black"/>
<path d="M7.4721 7.21971C7.588 7.02202 7.8738 7.02202 7.9897 7.21971L8.25325 7.66924C8.29555 7.74138 8.36604 7.7926 8.44772 7.81053L8.95669 7.92227C9.18052 7.97141 9.26884 8.24322 9.11664 8.41454L8.77055 8.8041C8.71501 8.86662 8.68808 8.94949 8.69627 9.03272L8.74728 9.5513C8.76972 9.77937 8.5385 9.94735 8.32853 9.85554L7.85109 9.64677C7.77447 9.61327 7.68733 9.61327 7.61071 9.64677L7.13327 9.85554C6.9233 9.94735 6.69208 9.77937 6.71452 9.5513L6.76553 9.03272C6.77372 8.94949 6.74679 8.86662 6.69125 8.8041L6.34516 8.41454C6.19296 8.24322 6.28128 7.97141 6.50511 7.92227L7.01408 7.81053C7.09576 7.7926 7.16625 7.74138 7.20855 7.66924L7.4721 7.21971Z" fill="black"/>
<path d="M16.457 7.21971C16.3411 7.02202 16.0553 7.02202 15.9394 7.21971L15.6758 7.66924C15.6335 7.74138 15.563 7.7926 15.4814 7.81053L14.9724 7.92227C14.7486 7.97141 14.6602 8.24322 14.8124 8.41454L15.1585 8.8041C15.2141 8.86662 15.241 8.94949 15.2328 9.03272L15.1818 9.5513C15.1594 9.77937 15.3906 9.94735 15.6006 9.85554L16.078 9.64677C16.1546 9.61327 16.2418 9.61327 16.3184 9.64677L16.7958 9.85554C17.0058 9.94735 17.237 9.77937 17.2146 9.5513L17.1636 9.03272C17.1554 8.94949 17.1823 8.86662 17.2378 8.8041L17.5839 8.41454C17.7361 8.24322 17.6478 7.97141 17.424 7.92227L16.915 7.81053C16.8333 7.7926 16.7628 7.74138 16.7205 7.66924L16.457 7.21971Z" fill="black"/>
<path fill-rule="evenodd" clip-rule="evenodd" d="M11.9642 3.06753C14.1927 3.05856 16.4001 3.45719 19.1154 4.26203C19.6732 4.42736 20.054 4.94085 20.054 5.51999V7.74057C20.054 10.41 19.8051 13.2991 18.3791 15.7675C17.0042 18.1476 15.2962 19.4039 12.8186 20.7715C12.4442 20.9781 11.9915 20.9878 11.6094 20.8007C8.44255 19.2496 6.44275 17.8394 5.08246 15.139C4.01917 13.0282 3.875 10.6432 3.875 8.45536V5.52526C3.875 4.94021 4.26321 4.42366 4.8276 4.26292C7.53369 3.49222 9.73788 3.0765 11.9642 3.06753ZM5.375 5.66685V8.45536C5.375 9.31515 5.39939 10.1614 5.48502 10.9804H18.3657C18.5088 9.93082 18.554 8.84154 18.554 7.74057V5.66034C15.9875 4.908 13.9686 4.55947 11.9703 4.56752C9.97015 4.57557 7.94885 4.94093 5.375 5.66685ZM6.42209 14.4642C6.10642 13.8375 5.88308 13.1731 5.72624 12.4804H7.1897V15.7298C6.90776 15.3436 6.65445 14.9255 6.42209 14.4642ZM8.6897 17.2986C9.43962 17.9101 10.3414 18.464 11.4513 19.0414V12.4804H8.6897V17.2986ZM12.9513 12.4804V18.9689C13.8448 18.4389 14.5913 17.9207 15.2395 17.3301V12.4804H12.9513ZM17.0803 15.0171C16.9692 15.2095 16.8558 15.3934 16.7395 15.5699V12.4804H18.0814C17.858 13.3748 17.5368 14.227 17.0803 15.0171Z" fill="black"/>
</svg>
