<svg width="25" height="24" viewBox="0 0 25 24" fill="none" xmlns="http://www.w3.org/2000/svg">
<path d="M19.8232 8.5C21.0659 8.5 22.0732 7.49264 22.0732 6.25C22.0732 5.00736 21.0659 4 19.8232 4C18.891 4 18.0911 4.56702 17.7497 5.375L3.07373 5.375C2.59048 5.375 2.19873 5.76675 2.19873 6.25C2.19873 6.73325 2.59048 7.125 3.07373 7.125L17.7497 7.125C18.0911 7.93299 18.891 8.5 19.8232 8.5Z" fill="black"/>
<path d="M12.0737 14.25C13.006 14.25 13.8059 13.683 14.1473 12.875L21.0737 12.875C21.557 12.875 21.9487 12.4833 21.9487 12C21.9487 11.5168 21.557 11.125 21.0737 11.125L14.1473 11.125C13.8059 10.317 13.006 9.75 12.0737 9.75C11.1414 9.75 10.3416 10.317 10.0002 11.125L3.07373 11.125C2.59048 11.125 2.19873 11.5168 2.19873 12C2.19873 12.4832 2.59048 12.875 3.07373 12.875L10.0002 12.875C10.3416 13.683 11.1414 14.25 12.0737 14.25Z" fill="black"/>
<path d="M6.39725 18.625C6.05587 19.433 5.25602 20 4.32373 20C3.08109 20 2.07373 18.9926 2.07373 17.75C2.07373 16.5074 3.08109 15.5 4.32373 15.5C5.25602 15.5 6.05587 16.067 6.39725 16.875L21.0737 16.875C21.557 16.875 21.9487 17.2668 21.9487 17.75C21.9487 18.2333 21.557 18.625 21.0737 18.625L6.39725 18.625Z" fill="black"/>
</svg>
