<svg width="25" height="25" viewBox="0 0 25 25" fill="none" xmlns="http://www.w3.org/2000/svg">
<path fill-rule="evenodd" clip-rule="evenodd" d="M9.31311 6.69683C9.31311 5.16291 10.5566 3.91943 12.0905 3.91943C13.6244 3.91943 14.8679 5.16291 14.8679 6.69683C14.8679 7.9337 14.0594 8.98174 12.942 9.34125V11.0044H17.985C18.6753 11.0044 19.235 11.5641 19.235 12.2544L19.2349 16.5602C20.2261 16.9843 20.9206 17.9684 20.9206 19.1148C20.9206 20.6487 19.6771 21.8922 18.1432 21.8922C16.6093 21.8922 15.3658 20.6487 15.3658 19.1148C15.3658 17.7196 16.3946 16.5647 17.7349 16.3672L17.735 12.5044H12.942V16.4704C14.0594 16.8299 14.8679 17.8779 14.8679 19.1148C14.8679 20.6487 13.6244 21.8922 12.0905 21.8922C10.5566 21.8922 9.31311 20.6487 9.31311 19.1148C9.31311 17.8042 10.2209 16.7056 11.442 16.4135V12.5044H6.66084L6.66078 16.4075C7.89471 16.6903 8.81516 17.7951 8.81516 19.1148C8.81516 20.6487 7.57168 21.8922 6.03777 21.8922C4.50386 21.8922 3.26038 20.6487 3.26038 19.1148C3.26038 17.8873 4.05663 16.8459 5.16077 16.4787L5.16084 12.2544C5.16085 11.564 5.72049 11.0044 6.41084 11.0044H11.442V9.3981C10.2209 9.10603 9.31311 8.00744 9.31311 6.69683ZM12.0905 5.41943C11.385 5.41943 10.8131 5.99134 10.8131 6.69683C10.8131 7.40231 11.385 7.97422 12.0905 7.97422C12.796 7.97422 13.3679 7.40231 13.3679 6.69683C13.3679 5.99134 12.796 5.41943 12.0905 5.41943ZM4.76038 19.1148C4.76038 18.4093 5.33228 17.8374 6.03777 17.8374C6.74325 17.8374 7.31516 18.4093 7.31516 19.1148C7.31516 19.8203 6.74325 20.3922 6.03777 20.3922C5.33228 20.3922 4.76038 19.8203 4.76038 19.1148ZM10.8131 19.1148C10.8131 18.4093 11.385 17.8374 12.0905 17.8374C12.796 17.8374 13.3679 18.4093 13.3679 19.1148C13.3679 19.8203 12.796 20.3922 12.0905 20.3922C11.385 20.3922 10.8131 19.8203 10.8131 19.1148ZM16.8658 19.1148C16.8658 18.4093 17.4378 17.8374 18.1432 17.8374C18.8487 17.8374 19.4206 18.4093 19.4206 19.1148C19.4206 19.8203 18.8487 20.3922 18.1432 20.3922C17.4378 20.3922 16.8658 19.8203 16.8658 19.1148Z" fill="black"/>
</svg>
