<svg width="25" height="24" viewBox="0 0 25 24" fill="none" xmlns="http://www.w3.org/2000/svg">
<path d="M8.52282 10.7571C8.81404 10.4626 9.28891 10.4599 9.58346 10.7511L12.2144 13.3522L14.8453 10.7511C15.1398 10.4599 15.6147 10.4626 15.9059 10.7571C16.1971 11.0517 16.1944 11.5265 15.8999 11.8178L13.2811 14.4069L15.8998 16.9961C16.1944 17.2873 16.1971 17.7621 15.9059 18.0567C15.6147 18.3513 15.1398 18.354 14.8452 18.0627L12.2144 15.4616L9.58348 18.0627C9.28893 18.354 8.81406 18.3513 8.52284 18.0567C8.23162 17.7621 8.23432 17.2873 8.52887 16.9961L11.1476 14.4069L8.52885 11.8178C8.23429 11.5265 8.23159 11.0517 8.52282 10.7571Z" fill="black"/>
<path fill-rule="evenodd" clip-rule="evenodd" d="M19.6663 12.4728L19.6941 12.5035C19.9722 12.8105 20.4464 12.834 20.7535 12.5559C21.0605 12.2779 21.084 11.8036 20.8059 11.4965C20.052 10.6641 19.1969 9.73928 18.333 8.81473V5.6665C18.333 5.25229 17.9972 4.9165 17.583 4.9165C17.1688 4.9165 16.833 5.25229 16.833 5.6665V7.21811C15.474 5.77862 14.2319 4.48018 13.4939 3.71131C12.8101 2.99885 11.6771 3.01435 11.0066 3.72675L3.70385 11.486C3.41996 11.7876 3.43435 12.2623 3.73598 12.5462C4.03761 12.83 4.51226 12.8157 4.79615 12.514L4.83301 12.4749V19.3636C4.83301 20.3134 5.60294 21.0833 6.55271 21.0833H17.9466C18.8964 21.0833 19.6663 20.3134 19.6663 19.3636V12.4728ZM12.4118 4.75003C12.3287 4.66346 12.1875 4.6607 12.0989 4.7548L6.32495 10.8897C6.33026 10.9257 6.33301 10.9625 6.33301 11V19.3636C6.33301 19.485 6.43137 19.5833 6.55271 19.5833H17.9466C18.068 19.5833 18.1663 19.485 18.1663 19.3636V11C18.1663 10.9497 18.1713 10.9006 18.1807 10.853C16.0263 8.52696 13.5861 5.97349 12.4118 4.75003Z" fill="black"/>
</svg>
