<svg width="24" height="24" viewBox="0 0 24 24" fill="none" xmlns="http://www.w3.org/2000/svg">
<path d="M8.64064 4.46422C9.66558 4.00548 10.8021 3.75 12.0002 3.75C13.1093 3.75 14.1653 3.96889 15.129 4.36513C15.512 4.52265 15.9503 4.33979 16.1078 3.9567C16.2654 3.57361 16.0825 3.13536 15.6994 2.97783C14.558 2.50847 13.3083 2.25 12.0002 2.25C10.5868 2.25 9.2418 2.55176 8.02786 3.0951C7.64979 3.26431 7.48047 3.70798 7.64969 4.08605C7.81891 4.46412 8.26257 4.63343 8.64064 4.46422Z" fill="black"/>
<path d="M18.1198 4.41414C17.7978 4.15353 17.3256 4.20326 17.0649 4.52522C16.8043 4.84717 16.8541 5.31943 17.176 5.58004C18.8116 6.90398 19.9282 8.83965 20.1794 11.0366C20.2264 11.4482 20.5982 11.7436 21.0097 11.6966C21.4212 11.6495 21.7167 11.2778 21.6697 10.8663C21.3723 8.26495 20.0501 5.97666 18.1198 4.41414Z" fill="black"/>
<path d="M6.78163 5.61492C7.10184 5.35216 7.14842 4.87958 6.88567 4.55937C6.62292 4.23916 6.15033 4.19258 5.83012 4.45533C3.92729 6.01672 2.62555 8.28771 2.33077 10.8663C2.28373 11.2778 2.5792 11.6495 2.99074 11.6966C3.40227 11.7436 3.77402 11.4482 3.82107 11.0366C4.07002 8.85886 5.16936 6.93788 6.78163 5.61492Z" fill="black"/>
<path d="M3.88973 13.4058C3.81868 12.9977 3.43027 12.7245 3.0222 12.7955C2.61413 12.8666 2.34092 13.255 2.41197 13.6631C2.83725 16.1056 4.172 18.2337 6.05195 19.6871C6.37965 19.9405 6.85069 19.8802 7.10404 19.5525C7.35739 19.2248 7.29712 18.7538 6.96942 18.5004C5.3765 17.2689 4.24883 15.4682 3.88973 13.4058Z" fill="black"/>
<path d="M21.5885 13.6631C21.6595 13.255 21.3863 12.8666 20.9782 12.7955C20.5702 12.7245 20.1818 12.9977 20.1107 13.4058C19.7516 15.4682 18.6239 17.2689 17.031 18.5004C16.7033 18.7538 16.6431 19.2248 16.8964 19.5525C17.1498 19.8802 17.6208 19.9405 17.9485 19.6871C19.8284 18.2337 21.1632 16.1056 21.5885 13.6631Z" fill="black"/>
<path d="M9.73716 6.71152C10.1301 6.58053 10.3425 6.15579 10.2115 5.76283C10.0805 5.36988 9.65578 5.15751 9.26282 5.28849C7.46042 5.88929 5.06026 8.03699 5.01401 12.2432L5.01397 12.2514C5.01397 12.5333 5.03011 12.8116 5.06159 13.0856C5.10887 13.4971 5.48078 13.7924 5.89229 13.7451C6.3038 13.6978 6.59906 13.3259 6.55178 12.9144C6.52698 12.6985 6.51412 12.4786 6.51397 12.2555C6.55466 8.69386 8.54002 7.11056 9.73716 6.71152Z" fill="black"/>
<path fill-rule="evenodd" clip-rule="evenodd" d="M13.2283 11.5539L13.3778 6.02024C13.389 5.60618 13.0624 5.26145 12.6484 5.25026C12.2343 5.23907 11.8896 5.56566 11.8784 5.97973L11.7361 11.247C10.4826 11.3801 9.5061 12.4408 9.5061 13.7295C9.5061 15.1084 10.6239 16.2262 12.0028 16.2262C13.3816 16.2262 14.4994 15.1084 14.4994 13.7295C14.4994 12.7961 13.9871 11.9822 13.2283 11.5539ZM12.0028 12.7329C11.4523 12.7329 11.0061 13.1791 11.0061 13.7295C11.0061 14.28 11.4523 14.7262 12.0028 14.7262C12.5532 14.7262 12.9994 14.28 12.9994 13.7295C12.9994 13.1791 12.5532 12.7329 12.0028 12.7329Z" fill="black"/>
</svg>
