<svg width="25" height="24" viewBox="0 0 25 24" fill="none" xmlns="http://www.w3.org/2000/svg">
<path d="M8.7417 4.46422C9.76664 4.00548 10.9031 3.75 12.1013 3.75C13.2103 3.75 14.2664 3.96889 15.23 4.36513C15.6131 4.52265 16.0514 4.33979 16.2089 3.9567C16.3664 3.57361 16.1836 3.13536 15.8005 2.97783C14.659 2.50847 13.4094 2.25 12.1013 2.25C10.6878 2.25 9.34286 2.55176 8.12892 3.0951C7.75084 3.26431 7.58153 3.70798 7.75075 4.08605C7.91997 4.46412 8.36363 4.63343 8.7417 4.46422Z" fill="black"/>
<path d="M18.2208 4.41414C17.8989 4.15353 17.4266 4.20326 17.166 4.52522C16.9054 4.84717 16.9551 5.31943 17.2771 5.58004C18.9127 6.90398 20.0293 8.83965 20.2804 11.0366C20.3275 11.4482 20.6992 11.7436 21.1108 11.6966C21.5223 11.6495 21.8178 11.2778 21.7707 10.8663C21.4733 8.26495 20.1512 5.97666 18.2208 4.41414Z" fill="black"/>
<path d="M6.88269 5.61492C7.2029 5.35216 7.24948 4.87958 6.98673 4.55937C6.72398 4.23916 6.25139 4.19258 5.93118 4.45533C4.02835 6.01672 2.7266 8.28771 2.43183 10.8663C2.38479 11.2778 2.68026 11.6495 3.0918 11.6966C3.50333 11.7436 3.87508 11.4482 3.92213 11.0366C4.17108 8.85886 5.27042 6.93788 6.88269 5.61492Z" fill="black"/>
<path d="M3.99079 13.4058C3.91974 12.9977 3.53133 12.7245 3.12326 12.7955C2.71519 12.8666 2.44197 13.255 2.51303 13.6631C2.93831 16.1056 4.27306 18.2337 6.15301 19.6871C6.48071 19.9405 6.95174 19.8802 7.2051 19.5525C7.45845 19.2248 7.39818 18.7538 7.07048 18.5004C5.47756 17.2689 4.34989 15.4682 3.99079 13.4058Z" fill="black"/>
<path d="M21.6895 13.6631C21.7606 13.255 21.4874 12.8666 21.0793 12.7955C20.6712 12.7245 20.2828 12.9977 20.2118 13.4058C19.8527 15.4682 18.725 17.2689 17.1321 18.5004C16.8044 18.7538 16.7441 19.2248 16.9975 19.5525C17.2508 19.8802 17.7218 19.9405 18.0495 19.6871C19.9295 18.2337 21.2642 16.1056 21.6895 13.6631Z" fill="black"/>
<path d="M6.61503 12.2514C6.61503 9.08262 9.18385 6.5138 12.3527 6.5138C12.5772 6.5138 12.7984 6.52666 13.0156 6.55162C13.4271 6.5989 13.799 6.30363 13.8463 5.89212C13.8936 5.48062 13.5983 5.1087 13.1868 5.06142C12.9129 5.02994 12.6345 5.0138 12.3527 5.0138C8.35542 5.0138 5.11503 8.2542 5.11503 12.2514C5.11503 12.5333 5.13117 12.8116 5.16265 13.0856C5.20992 13.4971 5.58184 13.7924 5.99335 13.7451C6.40486 13.6978 6.70012 13.3259 6.65284 12.9144C6.62788 12.6971 6.61503 12.4759 6.61503 12.2514Z" fill="black"/>
<path fill-rule="evenodd" clip-rule="evenodd" d="M9.60716 13.7295C9.60716 12.3507 10.725 11.2329 12.1038 11.2329C13.4827 11.2329 14.6005 12.3507 14.6005 13.7295C14.6005 13.7729 14.5994 13.816 14.5972 13.8589L17.4459 15.334C17.8137 15.5245 17.9575 15.977 17.7671 16.3449C17.5766 16.7127 17.124 16.8565 16.7562 16.666L14.0663 15.2731C13.6091 15.8536 12.9 16.2262 12.1038 16.2262C10.725 16.2262 9.60716 15.1084 9.60716 13.7295ZM12.1038 12.7329C11.5534 12.7329 11.1072 13.1791 11.1072 13.7295C11.1072 14.28 11.5534 14.7262 12.1038 14.7262C12.6543 14.7262 13.1005 14.28 13.1005 13.7295C13.1005 13.1791 12.6543 12.7329 12.1038 12.7329Z" fill="black"/>
</svg>
