<svg width="24" height="24" viewBox="0 0 24 24" fill="none" xmlns="http://www.w3.org/2000/svg">
<path d="M15.6173 5.46422C14.5923 5.00548 13.4558 4.75 12.2577 4.75C11.1486 4.75 10.0926 4.96889 9.12895 5.36513C8.74586 5.52265 8.3076 5.33979 8.15008 4.9567C7.99255 4.57361 8.17541 4.13536 8.5585 3.97783C9.69995 3.50847 10.9496 3.25 12.2577 3.25C13.6711 3.25 15.0161 3.55176 16.23 4.0951C16.6081 4.26431 16.7774 4.70798 16.6082 5.08605C16.439 5.46412 15.9953 5.63343 15.6173 5.46422Z" fill="black"/>
<path d="M6.13814 5.41414C6.46009 5.15353 6.93235 5.20326 7.19296 5.52522C7.45357 5.84717 7.40384 6.31943 7.08189 6.58004C5.44631 7.90398 4.32969 9.83965 4.07854 12.0366C4.03149 12.4482 3.65974 12.7436 3.24821 12.6966C2.83667 12.6495 2.5412 12.2778 2.58824 11.8663C2.88562 9.26495 4.20781 6.97666 6.13814 5.41414Z" fill="black"/>
<path d="M17.4763 6.61492C17.1561 6.35216 17.1095 5.87958 17.3722 5.55937C17.635 5.23916 18.1076 5.19258 18.4278 5.45533C20.3306 7.01672 21.6324 9.28771 21.9271 11.8663C21.9742 12.2778 21.6787 12.6495 21.2672 12.6966C20.8556 12.7436 20.4839 12.4482 20.4368 12.0366C20.1879 9.85886 19.0885 7.93788 17.4763 6.61492Z" fill="black"/>
<path d="M20.3682 14.4058C20.4392 13.9977 20.8276 13.7245 21.2357 13.7955C21.6438 13.8666 21.917 14.255 21.8459 14.6631C21.4207 17.1056 20.0859 19.2337 18.206 20.6871C17.8783 20.9405 17.4072 20.8802 17.1539 20.5525C16.9005 20.2248 16.9608 19.7538 17.2885 19.5004C18.8814 18.2689 20.0091 16.4682 20.3682 14.4058Z" fill="black"/>
<path d="M2.66943 14.6631C2.59838 14.255 2.87159 13.8666 3.27967 13.7955C3.68774 13.7245 4.07615 13.9977 4.1472 14.4058C4.5063 16.4682 5.63397 18.2689 7.22689 19.5004C7.55459 19.7538 7.61486 20.2248 7.36151 20.5525C7.10815 20.8802 6.63712 20.9405 6.30942 20.6871C4.42947 19.2337 3.09472 17.1056 2.66943 14.6631Z" fill="black"/>
<path d="M17.8195 13.2514C17.8195 10.0826 15.2507 7.51379 12.0819 7.51379C11.8574 7.51379 11.6362 7.52665 11.4189 7.55161C11.0074 7.59889 10.6355 7.30363 10.5882 6.89212C10.541 6.48061 10.8362 6.10869 11.2477 6.06142C11.5217 6.02994 11.8001 6.01379 12.0819 6.01379C16.0791 6.01379 19.3195 9.25419 19.3195 13.2514C19.3195 13.5333 19.3034 13.8116 19.2719 14.0856C19.2246 14.4971 18.8527 14.7924 18.4412 14.7451C18.0297 14.6978 17.7344 14.3259 17.7817 13.9144C17.8067 13.6971 17.8195 13.4759 17.8195 13.2514Z" fill="black"/>
<path fill-rule="evenodd" clip-rule="evenodd" d="M14.7518 14.7295C14.7518 13.3507 13.634 12.2329 12.2551 12.2329C10.8763 12.2329 9.75847 13.3507 9.75847 14.7295C9.75847 14.7803 9.75999 14.8307 9.76297 14.8807L6.37122 16.3343C5.9905 16.4975 5.81413 16.9384 5.9773 17.3191C6.14047 17.6999 6.58138 17.8762 6.9621 17.713L10.3001 16.2825C10.7575 16.8575 11.4633 17.2262 12.2551 17.2262C13.634 17.2262 14.7518 16.1084 14.7518 14.7295ZM12.2551 13.7329C12.8056 13.7329 13.2518 14.1791 13.2518 14.7295C13.2518 15.28 12.8056 15.7262 12.2551 15.7262C11.7047 15.7262 11.2585 15.28 11.2585 14.7295C11.2585 14.1791 11.7047 13.7329 12.2551 13.7329Z" fill="black"/>
</svg>
