<svg width="24" height="24" viewBox="0 0 24 24" fill="none" xmlns="http://www.w3.org/2000/svg">
<path d="M15.3598 4.46422C14.3349 4.00548 13.1984 3.75 12.0002 3.75C10.8912 3.75 9.83511 3.96889 8.8715 4.36513C8.48841 4.52265 8.05015 4.33979 7.89262 3.9567C7.7351 3.57361 7.91796 3.13536 8.30105 2.97783C9.44249 2.50847 10.6921 2.25 12.0002 2.25C13.4137 2.25 14.7587 2.55176 15.9726 3.0951C16.3507 3.26431 16.52 3.70798 16.3508 4.08605C16.1815 4.46412 15.7379 4.63343 15.3598 4.46422Z" fill="black"/>
<path d="M5.88068 4.41414C6.20264 4.15353 6.6749 4.20326 6.93551 4.52522C7.19612 4.84717 7.14639 5.31943 6.82443 5.58004C5.18885 6.90398 4.07223 8.83965 3.82108 11.0366C3.77404 11.4482 3.40229 11.7436 2.99075 11.6966C2.57922 11.6495 2.28374 11.2778 2.33079 10.8663C2.62816 8.26495 3.95036 5.97666 5.88068 4.41414Z" fill="black"/>
<path d="M17.2188 5.61492C16.8986 5.35216 16.852 4.87958 17.1148 4.55937C17.3775 4.23916 17.8501 4.19258 18.1703 4.45533C20.0732 6.01672 21.3749 8.28771 21.6697 10.8663C21.7167 11.2778 21.4212 11.6495 21.0097 11.6966C20.5982 11.7436 20.2264 11.4482 20.1794 11.0366C19.9304 8.85886 18.8311 6.93788 17.2188 5.61492Z" fill="black"/>
<path d="M20.1107 13.4058C20.1818 12.9977 20.5702 12.7245 20.9783 12.7955C21.3863 12.8666 21.6595 13.255 21.5885 13.6631C21.1632 16.1056 19.8285 18.2337 17.9485 19.6871C17.6208 19.9405 17.1498 19.8802 16.8964 19.5525C16.6431 19.2248 16.7033 18.7538 17.031 18.5004C18.624 17.2689 19.7516 15.4682 20.1107 13.4058Z" fill="black"/>
<path d="M2.41198 13.6631C2.34093 13.255 2.61414 12.8666 3.02222 12.7955C3.43029 12.7245 3.8187 12.9977 3.88975 13.4058C4.24884 15.4682 5.37652 17.2689 6.96943 18.5004C7.29713 18.7538 7.3574 19.2248 7.10405 19.5525C6.8507 19.8802 6.37967 19.9405 6.05197 19.6871C4.17201 18.2337 2.83726 16.1056 2.41198 13.6631Z" fill="black"/>
<path d="M17.4865 12.2514C17.4865 9.08262 14.9177 6.5138 11.7489 6.5138C11.5243 6.5138 11.3031 6.52666 11.0859 6.55162C10.6744 6.5989 10.3025 6.30363 10.2552 5.89212C10.2079 5.48062 10.5032 5.1087 10.9147 5.06142C11.1887 5.02994 11.467 5.0138 11.7489 5.0138C15.7461 5.0138 18.9865 8.2542 18.9865 12.2514C18.9865 12.5333 18.9703 12.8116 18.9389 13.0856C18.8916 13.4971 18.5197 13.7924 18.1082 13.7451C17.6967 13.6978 17.4014 13.3259 17.4487 12.9144C17.4736 12.6971 17.4865 12.4759 17.4865 12.2514Z" fill="black"/>
<path fill-rule="evenodd" clip-rule="evenodd" d="M14.4944 13.7295C14.4944 12.3507 13.3766 11.2329 11.9977 11.2329C11.6249 11.2329 11.2711 11.3146 10.9534 11.4611L7.28743 7.94062C6.98866 7.65371 6.51388 7.66333 6.22698 7.96209C5.94008 8.26086 5.94969 8.73563 6.24846 9.02253L9.84044 12.4719C9.62466 12.8412 9.50102 13.271 9.50102 13.7295C9.50102 15.1084 10.6188 16.2262 11.9977 16.2262C13.3766 16.2262 14.4944 15.1084 14.4944 13.7295ZM11.9977 12.7329C12.5481 12.7329 12.9944 13.1791 12.9944 13.7295C12.9944 14.28 12.5481 14.7262 11.9977 14.7262C11.4472 14.7262 11.001 14.28 11.001 13.7295C11.001 13.1791 11.4472 12.7329 11.9977 12.7329Z" fill="black"/>
</svg>
