<svg width="25" height="24" viewBox="0 0 25 24" fill="none" xmlns="http://www.w3.org/2000/svg">
<path d="M9.14063 4.46422C10.1656 4.00548 11.302 3.75 12.5002 3.75C13.6093 3.75 14.6653 3.96889 15.6289 4.36513C16.012 4.52265 16.4503 4.33979 16.6078 3.9567C16.7653 3.57361 16.5825 3.13536 16.1994 2.97783C15.0579 2.50847 13.8083 2.25 12.5002 2.25C11.0868 2.25 9.74179 2.55176 8.52784 3.0951C8.14977 3.26431 7.98046 3.70798 8.14967 4.08605C8.31889 4.46412 8.76256 4.63343 9.14063 4.46422Z" fill="black"/>
<path d="M18.6198 4.41414C18.2978 4.15353 17.8255 4.20326 17.5649 4.52522C17.3043 4.84717 17.354 5.31943 17.676 5.58004C19.3116 6.90398 20.4282 8.83965 20.6794 11.0366C20.7264 11.4482 21.0982 11.7436 21.5097 11.6966C21.9212 11.6495 22.2167 11.2778 22.1696 10.8663C21.8723 8.26495 20.5501 5.97666 18.6198 4.41414Z" fill="black"/>
<path d="M7.28161 5.61492C7.60182 5.35216 7.6484 4.87958 7.38565 4.55937C7.1229 4.23916 6.65032 4.19258 6.33011 4.45533C4.42728 6.01672 3.12553 8.28771 2.83076 10.8663C2.78371 11.2778 3.07919 11.6495 3.49072 11.6966C3.90226 11.7436 4.27401 11.4482 4.32105 11.0366C4.57001 8.85886 5.66934 6.93788 7.28161 5.61492Z" fill="black"/>
<path d="M4.38972 13.4058C4.31867 12.9977 3.93026 12.7245 3.52219 12.7955C3.11411 12.8666 2.8409 13.255 2.91195 13.6631C3.33723 16.1056 4.67198 18.2337 6.55194 19.6871C6.87964 19.9405 7.35067 19.8802 7.60402 19.5525C7.85737 19.2248 7.7971 18.7538 7.4694 18.5004C5.87649 17.2689 4.74881 15.4682 4.38972 13.4058Z" fill="black"/>
<path d="M22.0885 13.6631C22.1595 13.255 21.8863 12.8666 21.4782 12.7955C21.0701 12.7245 20.6817 12.9977 20.6107 13.4058C20.2516 15.4682 19.1239 17.2689 17.531 18.5004C17.2033 18.7538 17.143 19.2248 17.3964 19.5525C17.6497 19.8802 18.1208 19.9405 18.4485 19.6871C20.3284 18.2337 21.6632 16.1056 22.0885 13.6631Z" fill="black"/>
<path d="M7.01395 12.2514C7.01395 9.08262 9.58278 6.5138 12.7516 6.5138C12.9761 6.5138 13.1973 6.52666 13.4145 6.55162C13.8261 6.5989 14.198 6.30363 14.2453 5.89212C14.2925 5.48062 13.9973 5.1087 13.5858 5.06142C13.3118 5.02994 13.0334 5.0138 12.7516 5.0138C8.75435 5.0138 5.51395 8.2542 5.51395 12.2514C5.51395 12.5333 5.5301 12.8116 5.56157 13.0856C5.60885 13.4971 5.98077 13.7924 6.39228 13.7451C6.80378 13.6978 7.09905 13.3259 7.05177 12.9144C7.02681 12.6971 7.01395 12.4759 7.01395 12.2514Z" fill="black"/>
<path fill-rule="evenodd" clip-rule="evenodd" d="M10.0061 13.7295C10.0061 12.3507 11.1239 11.2329 12.5028 11.2329C12.8756 11.2329 13.2293 11.3146 13.547 11.4611L17.213 7.94062C17.5118 7.65371 17.9866 7.66333 18.2735 7.96209C18.5604 8.26086 18.5507 8.73563 18.252 9.02253L14.66 12.4719C14.8758 12.8412 14.9994 13.271 14.9994 13.7295C14.9994 15.1084 13.8816 16.2262 12.5028 16.2262C11.1239 16.2262 10.0061 15.1084 10.0061 13.7295ZM12.5028 12.7329C11.9523 12.7329 11.5061 13.1791 11.5061 13.7295C11.5061 14.28 11.9523 14.7262 12.5028 14.7262C13.0532 14.7262 13.4994 14.28 13.4994 13.7295C13.4994 13.1791 13.0532 12.7329 12.5028 12.7329Z" fill="black"/>
</svg>
