<svg width="24" height="24" viewBox="0 0 24 24" fill="none" xmlns="http://www.w3.org/2000/svg">
<path d="M16.2456 9.85164C16.5415 9.56179 16.5464 9.08694 16.2565 8.79104C15.9667 8.49514 15.4918 8.49025 15.1959 8.78011L10.7907 13.0954L8.99341 11.2199C8.70682 10.9209 8.23205 10.9108 7.93299 11.1974C7.63392 11.4839 7.62381 11.9587 7.9104 12.2578L9.8373 14.2685C10.3436 14.7969 11.1838 14.8101 11.7065 14.2981L16.2456 9.85164Z" fill="black"/>
<path fill-rule="evenodd" clip-rule="evenodd" d="M18.8114 4.44616C16.1722 3.66453 14.0243 3.27706 11.8555 3.28579C9.68876 3.29451 7.54415 3.69857 4.91405 4.44706C4.3493 4.60778 3.96143 5.12455 3.96143 5.70936V8.46319C3.96143 10.6481 4.09885 13.0424 5.18144 15.1488C6.50695 17.7278 8.44891 19.0896 11.4944 20.5819C11.8765 20.7691 12.3292 20.7594 12.7036 20.5526C15.0777 19.2416 16.7302 18.0323 18.0607 15.7746C19.5108 13.3141 19.7501 10.4145 19.7501 7.7484V5.70409C19.7501 5.1252 19.3696 4.61147 18.8114 4.44616ZM5.46143 8.46319V5.85104C7.95903 5.14739 9.92083 4.79358 11.8615 4.78578C13.8004 4.77798 15.7598 5.11545 18.2501 5.84453V7.7484C18.2501 10.3685 18.0023 12.9193 16.7684 15.013C15.6487 16.9131 14.284 17.959 12.0656 19.1913C9.18051 17.7695 7.60944 16.5915 6.51555 14.4631C5.61033 12.7018 5.46143 10.6268 5.46143 8.46319Z" fill="black"/>
</svg>
