<svg width="25" height="25" viewBox="0 0 25 25" fill="none" xmlns="http://www.w3.org/2000/svg">
<path fill-rule="evenodd" clip-rule="evenodd" d="M3.92151 3.74658C3.5073 3.74658 3.17151 4.08237 3.17151 4.49658C3.17151 4.9108 3.5073 5.24658 3.92151 5.24658H4.00075C3.98908 5.32823 3.98303 5.4117 3.98303 5.49658V7.31986C3.98303 7.81521 4.19296 8.28735 4.56074 8.61918L9.70586 13.2613V18.7149C9.70586 18.9676 9.83305 19.2032 10.0442 19.3419L13.3237 21.4951C13.5544 21.6466 13.8497 21.6591 14.0924 21.5277C14.3351 21.3962 14.486 21.1421 14.4853 20.8661L14.465 13.2674L19.7683 8.62777C20.1481 8.29546 20.366 7.81535 20.366 7.31066V5.49658C20.366 5.4117 20.36 5.32823 20.3483 5.24658H20.3614C20.7756 5.24658 21.1114 4.9108 21.1114 4.49658C21.1114 4.08237 20.7756 3.74658 20.3614 3.74658H3.92151ZM18.6168 5.24658C18.6171 5.24658 18.6165 5.24658 18.6168 5.24658L5.73303 5.24658C5.73313 5.24658 5.73294 5.24658 5.73303 5.24658C5.59509 5.24674 5.48303 5.35861 5.48303 5.49658V7.31986C5.48303 7.39062 5.51302 7.45807 5.56556 7.50547L10.9583 12.371C11.1159 12.5132 11.2059 12.7155 11.2059 12.9278V18.3102L12.9816 19.476L12.964 12.9298C12.9635 12.7128 13.0569 12.5062 13.2202 12.3633L18.7806 7.49882C18.8349 7.45135 18.866 7.38276 18.866 7.31066V5.49658C18.866 5.35878 18.7545 5.24702 18.6168 5.24658Z" fill="black"/>
</svg>
