<svg width="24" height="25" viewBox="0 0 24 25" fill="none" xmlns="http://www.w3.org/2000/svg">
<path fill-rule="evenodd" clip-rule="evenodd" d="M4.25 7.5C4.25 5.42893 5.92893 3.75 8 3.75H11C13.0711 3.75 14.75 5.42893 14.75 7.5V21.25H4.25V7.5ZM8 5.25C6.75736 5.25 5.75 6.25736 5.75 7.5V19.75H13.25V7.5C13.25 6.25736 12.2426 5.25 11 5.25H8Z" fill="black"/>
<path fill-rule="evenodd" clip-rule="evenodd" d="M17.3681 6.88188C17.7767 7.37289 18.1084 8.03755 18.2146 8.90556L18.733 9.03516C18.6593 8.57026 18.4837 8.06578 18.155 7.61917C17.961 7.35548 17.7056 7.10087 17.3681 6.88188ZM17.6249 10.2982C17.0961 10.1118 16.7829 9.62408 16.7314 9.13815C16.6177 8.06466 15.9975 7.53237 15.5565 7.31804C15.1555 7.12316 14.75 6.69215 14.75 6.08864C14.75 5.34754 15.4138 4.69062 16.2304 4.8547C17.7137 5.15273 18.7231 5.86044 19.3631 6.73005C19.992 7.58453 20.2299 8.54727 20.2695 9.32641C20.3087 10.0968 19.7086 10.5661 19.0925 10.607C19.0388 10.8793 19.0238 11.253 19.0611 11.7334C19.1127 12.3967 19.254 13.1596 19.4275 13.9444C19.5323 14.4178 19.6417 14.8699 19.7478 15.3082C19.8211 15.611 19.8928 15.9072 19.9602 16.1993C20.1136 16.8633 20.25 17.5244 20.25 18C20.25 19.0925 19.5285 19.9714 18.6535 20.3214C18.2063 20.5003 17.6916 20.5535 17.1846 20.4086C16.6703 20.2617 16.2156 19.9255 15.876 19.416C15.2881 18.5342 14.8964 17.7122 14.6027 17.0959L14.5862 17.0613C14.4342 16.7424 14.3198 16.5047 14.2157 16.3253C14.1225 16.1648 14.0761 16.1189 14.0761 16.1189C13.7373 15.8876 13.6478 15.4263 13.876 15.084C14.1057 14.7393 14.5714 14.6462 14.916 14.876C15.1936 15.061 15.3819 15.3464 15.513 15.5724C15.654 15.8153 15.7962 16.1136 15.9403 16.4159L15.948 16.4322C16.2432 17.0515 16.5963 17.7923 17.124 18.584C17.2844 18.8245 17.4547 18.9258 17.5967 18.9664C17.7459 19.009 17.9187 18.9997 18.0965 18.9286C18.4715 18.7786 18.75 18.4075 18.75 18C18.75 17.7256 18.6598 17.2347 18.4987 16.5368C18.4395 16.2802 18.3704 15.9946 18.2978 15.694C18.1872 15.2365 18.0683 14.7445 17.9629 14.2683C17.7849 13.4635 17.6254 12.6191 17.5656 11.8496C17.5253 11.3305 17.5249 10.7901 17.6249 10.2982Z" fill="black"/>
<path fill-rule="evenodd" clip-rule="evenodd" d="M6.85644 8.28515C6.85644 7.70525 7.32654 7.23515 7.90644 7.23515H11.0936C11.6735 7.23515 12.1436 7.70525 12.1436 8.28515V10.7149C12.1436 11.2948 11.6735 11.7648 11.0936 11.7648H7.90644C7.32654 11.7648 6.85644 11.2947 6.85644 10.7148V8.28515ZM8.35644 8.73515V10.2648H10.6436V8.73515H8.35644Z" fill="black"/>
<path fill-rule="evenodd" clip-rule="evenodd" d="M3.25 20.5C3.25 20.0858 3.58579 19.75 4 19.75H15C15.4142 19.75 15.75 20.0858 15.75 20.5C15.75 20.9142 15.4142 21.25 15 21.25H4C3.58579 21.25 3.25 20.9142 3.25 20.5Z" fill="black"/>
</svg>
