<svg width="25" height="25" viewBox="0 0 25 25" fill="none" xmlns="http://www.w3.org/2000/svg">
<path fill-rule="evenodd" clip-rule="evenodd" d="M12.2226 2.45459C6.71292 2.45459 2.24646 6.92105 2.24646 12.4307C2.24646 17.9403 6.71278 22.4067 12.2223 22.4068C12.2224 22.4068 12.2222 22.4068 12.2223 22.4068C17.732 22.4068 22.1987 17.9404 22.1987 12.4307C22.1987 6.92105 17.7322 2.45459 12.2226 2.45459ZM11.4723 3.98734C10.969 4.03149 10.4782 4.11963 10.004 4.2479C9.0631 6.17586 8.43248 7.83423 8.08029 9.37418H11.4723V3.98734ZM7.95504 5.10568C6.3058 6.0686 5.01109 7.57256 4.3143 9.37418H6.5452C6.82476 8.02303 7.29481 6.62476 7.95504 5.10568ZM3.88907 10.8742C3.79542 11.3788 3.74646 11.899 3.74646 12.4307C3.74646 12.9624 3.79542 13.4827 3.88907 13.9872H6.34009C6.27779 13.4696 6.24352 12.9549 6.23831 12.4387C6.23305 11.9172 6.25745 11.3972 6.3115 10.8742H3.88907ZM4.3143 15.4872C5.01897 17.3092 6.33513 18.8268 8.01106 19.7882C7.37052 18.2575 6.89279 16.8489 6.59553 15.4872H4.3143ZM10.0131 20.616C10.4845 20.7429 10.9722 20.8302 11.4723 20.8741V15.4872H8.13416C8.50275 17.0271 9.1286 18.686 10.0131 20.616ZM12.9723 20.8741V15.4872H16.3107C15.9422 17.0271 15.3163 18.6861 14.4318 20.6161C13.9603 20.743 13.4725 20.8303 12.9723 20.8741ZM16.4338 19.7884C18.1099 18.827 19.4262 17.3094 20.1309 15.4872H17.8494C17.5521 16.8489 17.0743 18.2577 16.4338 19.7884ZM20.5561 13.9872C20.6498 13.4827 20.6987 12.9624 20.6987 12.4307C20.6987 11.899 20.6498 11.3788 20.5561 10.8742H18.1334C18.1875 11.3972 18.2119 11.9172 18.2066 12.4387C18.2014 12.9549 18.1671 13.4696 18.1048 13.9872H20.5561ZM20.1309 9.37418C19.434 7.57243 18.1392 6.06838 16.4898 5.10547C17.1501 6.62463 17.6201 8.02297 17.8997 9.37418H20.1309ZM14.4409 4.24781C13.9665 4.11954 13.4757 4.03141 12.9723 3.98729V9.37418H16.3646C16.0124 7.83421 15.3818 6.17581 14.4409 4.24781ZM7.82042 10.8742H11.4723V13.9872H7.85205C7.78137 13.4596 7.74346 12.9407 7.73824 12.4236C7.73306 11.9112 7.75999 11.397 7.82042 10.8742ZM16.5929 13.9872H12.9723V10.8742H16.6245C16.6849 11.397 16.7118 11.9112 16.7067 12.4236C16.7015 12.9407 16.6635 13.4596 16.5929 13.9872Z" fill="black"/>
</svg>
