<svg width="25" height="24" viewBox="0 0 25 24" fill="none" xmlns="http://www.w3.org/2000/svg">
<path fill-rule="evenodd" clip-rule="evenodd" d="M12.1576 4.92809C13.3102 2.645 16.1659 1.46718 18.9641 2.31147C19.2286 2.39128 19.4278 2.61003 19.4826 2.88082C19.5875 3.39976 19.5365 4.07357 19.3468 4.74659C19.1534 5.43258 18.7994 6.17841 18.2365 6.83319C17.1962 8.04345 15.5232 8.85121 13.1189 8.53891V9.76225C16.148 10.1301 18.4947 12.7104 18.4947 15.8388C18.4947 19.2196 15.754 21.9603 12.3732 21.9603C8.99237 21.9603 6.25169 19.2196 6.25169 15.8388C6.25169 12.7134 8.59394 10.135 11.6189 9.7633V9.22389C9.21319 9.53706 7.53944 8.72916 6.49876 7.51849C5.93592 6.86371 5.5819 6.11788 5.38853 5.43189C5.19881 4.75887 5.14779 4.08507 5.25274 3.56612C5.30751 3.29533 5.50671 3.07658 5.77121 2.99677C8.27389 2.24165 10.8226 3.10408 12.1576 4.92809ZM17.903 4.33962C17.9792 4.06959 18.0176 3.82564 18.0308 3.62291C15.8268 3.1888 13.8909 4.3274 13.3077 6.10069C13.9565 5.63681 14.7683 5.05807 15.2763 4.69607C15.6137 4.45571 16.082 4.53433 16.3224 4.87168C16.5627 5.20902 16.4841 5.67734 16.1468 5.9177C15.7101 6.22883 15.0696 6.68555 14.497 7.09446C15.7503 7.00631 16.57 6.47088 17.099 5.8554C17.4998 5.38917 17.7602 4.84638 17.903 4.33962ZM6.83226 5.02492C6.75614 4.75489 6.71768 4.51094 6.7045 4.30821C8.908 3.87421 10.8435 5.01218 11.4272 6.78476C10.7786 6.32105 9.96766 5.74287 9.45994 5.38113C9.1226 5.14077 8.65428 5.21939 8.41392 5.55674C8.17356 5.89408 8.25219 6.3624 8.58953 6.60276C9.02633 6.91398 9.66708 7.37086 10.2397 7.77987C8.98562 7.69203 8.16554 7.15642 7.63627 6.5407C7.23551 6.07447 6.97511 5.53168 6.83226 5.02492ZM7.75169 15.8388C7.75169 13.2864 9.8208 11.2173 12.3732 11.2173C14.9256 11.2173 16.9947 13.2864 16.9947 15.8388C16.9947 18.3912 14.9256 20.4603 12.3732 20.4603C9.8208 20.4603 7.75169 18.3912 7.75169 15.8388ZM13.1536 12.9292C13.1536 12.515 12.8179 12.1792 12.4036 12.1792C11.9894 12.1792 11.6536 12.515 11.6536 12.9292V13.0641C11.4431 13.146 11.2469 13.2618 11.0772 13.4057C10.7301 13.7 10.4506 14.1541 10.4626 14.714C10.4703 15.0706 10.5692 15.4137 10.8281 15.711C10.9841 15.8902 11.1765 16.0258 11.3729 16.1363L11.3648 16.1544L11.9393 16.4097L12.3729 16.6078C12.5384 16.6885 12.6569 16.7571 12.7434 16.8279C12.801 16.875 12.8208 16.9054 12.8273 16.9175C12.8311 16.9246 12.8382 16.9382 12.8382 16.9763C12.8382 17.0245 12.8285 17.0508 12.8214 17.0652C12.8138 17.0803 12.7999 17.1002 12.7702 17.123C12.7062 17.1722 12.565 17.2345 12.3316 17.2345C12.1298 17.2345 11.9689 17.144 11.784 16.8862C11.5426 16.5496 11.074 16.4724 10.7374 16.7138C10.4008 16.9552 10.3236 17.4237 10.565 17.7603C10.8083 18.0997 11.1607 18.4479 11.6536 18.6216V18.7503C11.6536 19.1645 11.9894 19.5003 12.4036 19.5003C12.8179 19.5003 13.1536 19.1645 13.1536 18.7503V18.5985C13.343 18.5309 13.5225 18.4366 13.6843 18.3123C14.0886 18.0015 14.3382 17.5323 14.3382 16.9763C14.3382 16.3823 14.0481 15.9574 13.6934 15.6671C13.5151 15.5211 13.3094 15.4003 13.108 15.2979C13.0884 15.2867 13.0681 15.2762 13.0471 15.2667L13.0273 15.2576C12.8982 15.1945 12.7727 15.1386 12.6594 15.0883L12.5555 15.0421L12.279 14.9158C12.1661 14.8624 12.0887 14.8197 12.0346 14.7844C11.9962 14.7594 11.9759 14.7421 11.9663 14.7331C11.9647 14.7236 11.9628 14.7072 11.9623 14.6817C11.962 14.6687 11.9653 14.6193 12.0473 14.5498C12.1334 14.4768 12.2575 14.4288 12.3706 14.4259C12.4722 14.4232 12.5288 14.4404 12.5703 14.4609C12.6171 14.4839 12.6883 14.5332 12.7873 14.6521C13.0525 14.9703 13.5254 15.0133 13.8436 14.7482C14.1619 14.483 14.2049 14.0101 13.9397 13.6918C13.7462 13.4596 13.5175 13.2556 13.2343 13.1158C13.2075 13.1026 13.1807 13.0902 13.1536 13.0784V12.9292Z" fill="black"/>
</svg>
