<svg width="25" height="25" viewBox="0 0 25 25" fill="none" xmlns="http://www.w3.org/2000/svg">
<path fill-rule="evenodd" clip-rule="evenodd" d="M16.8762 6.91794C15.487 5.58738 13.564 5.74003 12.2327 7.01797L12.2233 7.02704L12.2232 7.02696L9.20362 9.82575C9.01827 10.0172 8.97409 10.1553 8.96247 10.2311C8.94988 10.3132 8.96386 10.401 9.00949 10.502C9.057 10.6071 9.12978 10.705 9.19959 10.7815C9.23291 10.8181 9.2617 10.8456 9.28004 10.8622C9.2891 10.8704 9.29527 10.8757 9.29774 10.8778L12.0253 9.45261L12.0243 9.45354L9.29824 10.8782L9.29825 10.8782C9.31928 10.895 9.3394 10.913 9.3585 10.932C9.54461 11.1172 9.68797 11.1447 9.81494 11.1362C9.98193 11.1252 10.2102 11.0407 10.5032 10.8447C10.9415 10.5515 11.3296 10.1566 11.7034 9.77635L11.7035 9.77621C11.8114 9.66651 11.918 9.55802 12.0243 9.45354L13.839 8.50518C14.5738 8.35108 15.2475 8.45743 15.8001 8.66425C16.2534 8.83385 16.6151 9.06554 16.8621 9.25208C16.9867 9.34614 17.0852 9.43103 17.1547 9.49472C17.1895 9.52663 17.2173 9.55344 17.2378 9.57369C17.2472 9.58299 17.255 9.59092 17.2613 9.59734L19.741 11.9916L20.96 10.804L16.8779 6.91963L16.8762 6.91794ZM13.8381 8.50536C13.3226 8.61361 12.777 8.85007 12.2221 9.26996C12.2 9.28666 12.1789 9.30458 12.1588 9.32362C12.1143 9.36578 12.0698 9.40884 12.0253 9.45261L13.8381 8.50536ZM13.8381 8.50536L16.8762 6.91794L13.839 8.50518L13.8381 8.50536ZM16.1885 10.6457C16.1956 10.6531 16.2028 10.6604 16.2102 10.6675L19.1579 13.5138L19.6976 14.0534C19.7042 14.0601 19.711 14.0666 19.7179 14.073C19.7581 14.1103 19.7844 14.1649 19.7822 14.2417C19.78 14.3209 19.7454 14.4197 19.6582 14.5063L19.6533 14.5112C19.4609 14.7057 19.2161 14.6611 19.1329 14.5832C19.1196 14.5708 19.1061 14.559 19.0922 14.5478L17.9921 13.519C17.6896 13.236 17.215 13.2519 16.9321 13.5544C16.6491 13.857 16.665 14.3316 16.9675 14.6145L18.8404 16.3661L18.8427 16.3682C18.8829 16.4055 18.9092 16.4601 18.907 16.5369C18.9048 16.6161 18.8702 16.7149 18.783 16.8015L18.7781 16.8064C18.6187 16.9675 18.4233 16.9646 18.3137 16.9145C18.2623 16.8507 18.2053 16.7894 18.1425 16.731L16.0812 14.7855C15.7799 14.5011 15.3052 14.5149 15.0209 14.8161C14.7366 15.1173 14.7504 15.592 15.0516 15.8763L15.2088 16.0247C15.2468 16.0966 15.2972 16.1634 15.3599 16.2221L17.1755 17.9201C17.1818 17.9428 17.185 17.9684 17.1842 17.997C17.1819 18.0763 17.1474 18.175 17.0601 18.2616L17.0553 18.2665C16.8628 18.461 16.6181 18.4164 16.5349 18.3385L14.3833 16.3905C14.0763 16.1125 13.602 16.136 13.324 16.4431C13.046 16.7502 13.0695 17.2244 13.3766 17.5025L13.5088 17.6222C13.5468 17.6937 13.5972 17.7603 13.6597 17.8187L14.7867 18.8704L14.7885 18.872C14.8286 18.9093 14.8549 18.9639 14.8528 19.0407C14.8505 19.1199 14.816 19.2187 14.7287 19.3053L14.7239 19.3102C14.5314 19.5047 14.2866 19.4601 14.2034 19.3822C14.1981 19.3773 14.1927 19.3724 14.1873 19.3676L13.3395 18.6186C13.4955 18.0431 13.3456 17.405 12.8849 16.946L12.7811 16.8425C12.5368 16.5991 12.2375 16.4385 11.9207 16.3609C11.9015 15.9465 11.7313 15.5367 11.4083 15.215L11.3045 15.1116C11.0345 14.8426 10.6973 14.6746 10.3435 14.6082C10.2957 14.2436 10.1295 13.8902 9.84387 13.6056L9.74009 13.5022C9.43204 13.1953 9.03665 13.0199 8.62883 12.9769C8.55722 12.6734 8.40127 12.3843 8.16028 12.1442L8.05649 12.0408C7.50128 11.4876 6.66233 11.3617 5.97823 11.668L4.71844 10.4546L7.9148 7.37174L8.76201 8.18982L8.17045 8.73813C8.16222 8.74577 8.15415 8.75358 8.14627 8.76158C7.76883 9.14433 7.54722 9.56419 7.47981 10.0036C7.41316 10.4382 7.50794 10.8217 7.64256 11.1196C7.77529 11.4134 7.95422 11.642 8.09107 11.7921C8.16108 11.8689 8.22436 11.9298 8.27224 11.9732C8.2934 11.9924 8.31179 12.0084 8.32674 12.0211C8.79491 12.4743 9.3434 12.6708 9.91426 12.633C10.4558 12.597 10.9429 12.3553 11.3373 12.0914C11.9163 11.7041 12.4879 11.122 12.8823 10.7204C12.9891 10.6117 13.0829 10.5162 13.1603 10.4413C14.0245 9.80297 14.7497 9.87273 15.2744 10.0691C15.5572 10.1749 15.7924 10.3239 15.9583 10.4491C16.0401 10.511 16.1022 10.5648 16.1415 10.6008C16.1611 10.6187 16.1748 10.632 16.1822 10.6394L16.1885 10.6457ZM9.86382 7.16857L8.43607 5.78992C8.14556 5.5094 7.6851 5.50927 7.39443 5.78962L3.11703 9.9152C2.97041 10.0566 2.88762 10.2516 2.8877 10.4553C2.88777 10.659 2.97069 10.8539 3.11741 10.9952L4.80958 12.625L4.34947 13.0552C3.62672 13.731 3.6075 14.8454 4.30912 15.5444L4.41291 15.6478C4.53489 15.7693 4.67058 15.8702 4.81531 15.9505C4.62162 16.5463 4.76321 17.2235 5.24572 17.7042L5.34951 17.8076C5.61954 18.0766 5.9567 18.2446 6.31051 18.3109C6.35838 18.6756 6.52454 19.029 6.81017 19.3136L6.91396 19.417C7.39299 19.8942 8.08322 20.0535 8.70299 19.8914C8.78538 20.0548 8.89558 20.2085 9.03373 20.3461L9.13751 20.4495C9.83913 21.1485 10.9938 21.1654 11.7166 20.4897L12.4333 19.8196L13.1872 20.4855C13.9403 21.1812 15.1041 21.056 15.7877 20.3677C15.9484 20.2076 16.0776 20.0219 16.1717 19.8219C16.843 20.0347 17.6128 19.8338 18.1191 19.324C18.3682 19.0759 18.5417 18.7661 18.626 18.4371C19.0763 18.3944 19.5143 18.1938 19.8419 17.8639C20.3616 17.3465 20.5522 16.5598 20.2913 15.8928C20.446 15.8054 20.5899 15.6968 20.7171 15.5687C21.3914 14.8972 21.5117 13.7725 20.8102 13.0441L22.5646 11.3349C22.7106 11.1926 22.7925 10.9971 22.7913 10.7933C22.7901 10.5894 22.706 10.3949 22.5583 10.2544L17.9137 5.83469L17.9128 5.8338C15.8657 3.8739 13.0274 4.18023 11.1989 5.93113L9.86382 7.16857ZM6.54004 13.0593C6.65882 12.9483 6.84718 12.952 6.96079 13.0652L7.06458 13.1686C7.15841 13.2621 7.1733 13.4024 7.10872 13.511L5.86176 14.6768C5.74726 14.7357 5.60244 14.7168 5.50861 14.6234L5.40482 14.5199C5.29121 14.4068 5.29333 14.2249 5.41211 14.1139L6.54004 13.0593ZM6.83531 15.8188L6.34871 16.2737C6.22993 16.3848 6.22781 16.5666 6.34142 16.6798L6.44521 16.7832C6.55882 16.8964 6.74718 16.9001 6.86596 16.789L8.74088 15.0361C8.85966 14.925 8.86178 14.7432 8.74817 14.63L8.64438 14.5266C8.53863 14.4213 8.36811 14.4108 8.24923 14.4994C8.20897 14.5457 8.16587 14.5904 8.11992 14.6333L6.99199 15.6879C6.94176 15.7349 6.88943 15.7785 6.83531 15.8188ZM9.78809 16.1301C9.90687 16.0191 10.0952 16.0228 10.2088 16.136L10.3126 16.2394C10.4262 16.3526 10.4241 16.5344 10.3053 16.6455L8.43041 18.3984C8.31163 18.5095 8.12327 18.5057 8.00966 18.3925L7.90587 18.2891C7.79227 18.176 7.79438 17.9941 7.91317 17.8831L9.78809 16.1301ZM11.2647 17.8611C11.3834 17.7501 11.5718 17.7538 11.6854 17.867L11.7892 17.9704C11.9028 18.0836 11.9007 18.2654 11.7819 18.3764L10.654 19.431C10.5352 19.542 10.3468 19.5383 10.2332 19.4251L10.1294 19.3217C10.0158 19.2085 10.0179 19.0267 10.1367 18.9157L11.2647 17.8611Z" fill="black"/>
</svg>
