<svg width="24" height="25" viewBox="0 0 24 25" fill="none" xmlns="http://www.w3.org/2000/svg">
<path fill-rule="evenodd" clip-rule="evenodd" d="M5.66028 12.8038C5.77895 12.6929 5.96714 12.6966 6.08064 12.8097L6.18441 12.913C6.27717 13.0055 6.29271 13.1437 6.23051 13.2517L4.97832 14.4224C4.86451 14.4789 4.72187 14.4596 4.62911 14.3671L4.52535 14.2638C4.41184 14.1507 4.41396 13.969 4.53263 13.8581L5.66028 12.8038ZM3.93429 15.6934C3.79013 15.6133 3.65497 15.5127 3.53341 15.3916L3.42965 15.2882C2.72814 14.5893 2.74735 13.475 3.47 12.7994L4.59764 11.7451C5.32029 11.0695 6.47484 11.0863 7.17635 11.7852L7.28011 11.8886C7.52104 12.1287 7.67696 12.4177 7.74857 12.7211C8.15574 12.7644 8.55041 12.9397 8.85799 13.2462L8.96175 13.3496C9.24744 13.6342 9.4136 13.9877 9.46139 14.3524C9.81486 14.4189 10.1517 14.5868 10.4215 14.8556L10.5252 14.9589C10.8478 15.2803 11.018 15.6896 11.0375 16.1037C11.3547 16.1811 11.6544 16.3418 11.899 16.5855L12.0028 16.6889C12.7043 17.3878 12.6851 18.5021 11.9624 19.1777L10.8348 20.232C10.1121 20.9076 8.95758 20.8908 8.25606 20.1919L8.1523 20.0885C8.01426 19.951 7.90413 19.7973 7.82177 19.6342C7.20176 19.7967 6.51101 19.6376 6.03172 19.1601L5.92796 19.0567C5.64227 18.7721 5.47611 18.4186 5.42832 18.0539C5.07485 17.9874 4.73804 17.8195 4.46825 17.5507L4.36448 17.4473C3.88192 16.9666 3.7404 16.2893 3.93429 15.6934ZM5.94755 15.5684L5.46747 16.0172C5.3488 16.1282 5.34668 16.3098 5.46019 16.4229L5.56395 16.5263C5.67745 16.6394 5.86564 16.6431 5.98432 16.5322L7.85876 14.7797C7.97744 14.6687 7.97955 14.4871 7.86605 14.374L7.76228 14.2706C7.65795 14.1666 7.4905 14.1551 7.37195 14.2401C7.33087 14.2876 7.2868 14.3334 7.23976 14.3774L6.11212 15.4317C6.05944 15.4809 6.00447 15.5265 5.94755 15.5684ZM8.90539 15.8741C9.02407 15.7632 9.21226 15.7669 9.32576 15.88L9.42952 15.9833C9.54303 16.0964 9.54091 16.2781 9.42224 16.389L7.54779 18.1415C7.42912 18.2525 7.24093 18.2488 7.12743 18.1357L7.02366 18.0323C6.91016 17.9192 6.91227 17.7376 7.03095 17.6266L8.90539 15.8741ZM10.3829 17.6041C10.5016 17.4931 10.6898 17.4969 10.8033 17.61L10.9071 17.7133C11.0206 17.8264 11.0185 18.0081 10.8998 18.119L9.77214 19.1733C9.65346 19.2843 9.46527 19.2805 9.35177 19.1674L9.24801 19.0641C9.1345 18.951 9.13662 18.7693 9.25529 18.6584L10.3829 17.6041Z" fill="black"/>
<path d="M11.7832 18.7648L12.8105 19.6723C13.2289 20.0641 13.9373 20.0241 14.3764 19.5804C14.8196 19.1406 14.8403 18.4569 14.4178 18.0651L13.2911 17.0137" stroke="black" stroke-width="1.5" stroke-linecap="round" stroke-linejoin="round"/>
<path d="M12.9971 16.6899L15.1387 18.6289C15.5571 19.0207 16.2655 18.9807 16.7046 18.5369C17.1478 18.0972 17.1685 17.4135 16.746 17.0217L14.683 15.0747" stroke="black" stroke-width="1.5" stroke-linecap="round" stroke-linejoin="round"/>
<path d="M14.7297 15.1421L16.8823 17.1372C17.3007 17.529 17.9884 17.5207 18.4275 17.0769C18.8707 16.6371 18.8914 15.9535 18.4689 15.5617L16.5965 13.8105" stroke="black" stroke-width="1.5" stroke-linecap="round" stroke-linejoin="round"/>
<path d="M12.9573 8.25011C12.4417 8.35827 11.8952 8.59489 11.3401 9.01487C11.318 9.03158 11.2969 9.04949 11.2768 9.06854L11.137 9.20094L12.9573 8.25011Z" fill="black"/>
<path fill-rule="evenodd" clip-rule="evenodd" d="M21.8042 10.9582C21.9943 10.6613 21.9535 10.262 21.6884 10.0103L17.0963 5.65211C17.0762 5.62717 17.0543 5.60324 17.0306 5.58049C14.9838 3.62003 12.1455 3.92613 10.3171 5.67692L8.9958 6.90163L7.50921 5.47772C7.21592 5.19679 6.7523 5.20036 6.46336 5.48577L2.22977 9.66764C1.93509 9.95873 1.93217 10.4336 2.22326 10.7283C2.23625 10.7414 2.2496 10.754 2.26329 10.766L4.27975 12.7082C4.57809 12.9955 5.05288 12.9866 5.34023 12.6883C5.62757 12.3899 5.61867 11.9151 5.32033 11.6278L3.83154 10.1939L6.99847 7.0656L7.89374 7.92311L7.28947 8.4832C7.28124 8.49083 7.27317 8.49865 7.26529 8.50664C6.88792 8.88932 6.66635 9.30911 6.59895 9.74849C6.53231 10.183 6.62708 10.5664 6.76167 10.8643C6.89437 11.158 7.07328 11.3865 7.2101 11.5366C7.2801 11.6134 7.34336 11.6743 7.39124 11.7178C7.41256 11.7371 7.43108 11.7532 7.44608 11.7659C8.18227 12.4759 9.06736 12.4072 9.64591 12.2286C9.93986 12.1379 10.1876 12.012 10.3586 11.9123C10.4455 11.8617 10.516 11.8158 10.5667 11.7811C10.5921 11.7637 10.6128 11.749 10.6283 11.7377L10.6476 11.7235L10.6543 11.7184L10.6569 11.7165L10.658 11.7156C10.6582 11.7154 10.6589 11.7149 10.2019 11.1202L10.6589 11.7149C10.6794 11.6992 10.699 11.6824 10.7178 11.6646L12.2769 10.1873C13.1414 9.54803 13.8669 9.61774 14.3917 9.81414C14.6744 9.91992 14.9095 10.0688 15.0753 10.1941C15.1572 10.2559 15.2192 10.3097 15.2585 10.3457C15.278 10.3636 15.2917 10.3769 15.2992 10.3843L15.3055 10.3906C15.3121 10.3975 15.3188 10.4043 15.3257 10.4109L18.8219 13.8052L18.8344 13.8171C18.8745 13.8542 18.9007 13.9088 18.8986 13.9855C18.8963 14.0647 18.8618 14.1634 18.7747 14.2499L18.7698 14.2548C18.5778 14.4488 18.3337 14.4048 18.2502 14.3273L17.0458 13.1929C16.7443 12.9089 16.2697 12.9231 15.9857 13.2246C15.7016 13.5261 15.7158 14.0008 16.0174 14.2848L17.2228 15.4202L17.2244 15.4217C17.9772 16.1267 19.1474 16.0033 19.8336 15.3123C20.5051 14.6436 20.6271 13.5252 19.9348 12.7967L21.649 11.168C21.7145 11.1058 21.7662 11.0346 21.8042 10.9582ZM15.8392 6.52434C14.4651 5.3462 12.6334 5.53271 11.351 6.76375L11.3415 6.77282L8.32264 9.57081C8.13736 9.76215 8.09321 9.90025 8.08161 9.97592C8.06902 10.058 8.08299 10.1457 8.1286 10.2467C8.17609 10.3518 8.24884 10.4495 8.31862 10.5261C8.35193 10.5626 8.3807 10.5901 8.39904 10.6067C8.4081 10.615 8.41426 10.6202 8.41673 10.6223L11.137 9.20094L11.136 9.20191L8.41673 10.6223C8.43776 10.6391 8.45838 10.6575 8.47748 10.6765C8.66815 10.8663 8.89533 10.8905 9.20351 10.7954C9.35642 10.7482 9.4973 10.6782 9.60318 10.6164C9.65477 10.5864 9.69476 10.5602 9.71996 10.5429L9.72275 10.541L11.136 9.20191L12.9573 8.25011C13.6917 8.09626 14.3651 8.20258 14.9174 8.40929C15.3705 8.57886 15.7322 8.8105 15.9792 8.997C16.1037 9.09104 16.2022 9.17591 16.2717 9.23959C16.3065 9.2715 16.3343 9.2983 16.3548 9.31855L16.3644 9.32818L16.3791 9.34305L18.8586 11.7502L20.0999 10.5708L15.9867 6.66701L15.8775 6.56334C15.8642 6.55071 15.8514 6.5377 15.8392 6.52434ZM9.74859 10.5227L9.74547 10.525L9.74653 10.5243L9.74767 10.5234L9.74859 10.5227Z" fill="black"/>
</svg>
