<svg width="25" height="25" viewBox="0 0 25 25" fill="none" xmlns="http://www.w3.org/2000/svg">
<path fill-rule="evenodd" clip-rule="evenodd" d="M6.50975 9.19165C7.09497 6.81823 9.37371 5.00098 12.1698 5.00098C14.9465 5.00098 17.2129 6.79298 17.8174 9.14209H17.0621C16.6479 9.14209 16.3121 9.47788 16.3121 9.89209V16.8102C16.3121 17.2244 16.6479 17.5602 17.0621 17.5602H17.244C16.3307 18.4666 15.1482 19.0182 13.6841 19.1969C13.4587 18.6221 12.9324 18.1729 12.2376 18.1729H11.0272C10.0908 18.1729 9.46033 18.989 9.46033 19.8286C9.46033 20.6683 10.0908 21.4844 11.0272 21.4844H12.2376C12.8242 21.4844 13.2907 21.1641 13.5574 20.7185C15.9833 20.5 17.905 19.4294 19.1981 17.5453C20.3182 17.4163 21.1879 16.4648 21.1879 15.3102V11.3921C21.1879 10.2952 20.4029 9.3816 19.3641 9.18241C18.7544 5.92314 15.7292 3.50098 12.1698 3.50098C8.59786 3.50098 5.56388 5.94033 4.96917 9.21707C3.93919 9.37651 3.15076 10.267 3.15076 11.3417V15.4598C3.15076 16.6472 4.11335 17.6098 5.30076 17.6098H7.27651C7.69072 17.6098 8.02651 17.274 8.02651 16.8598V9.94165C8.02651 9.52744 7.69072 9.19165 7.27651 9.19165H6.50975ZM18.9379 10.6421C19.3521 10.6421 19.6879 10.9779 19.6879 11.3921V15.3102C19.6879 15.7244 19.3521 16.0602 18.9379 16.0602H17.8121V10.6421H18.9379ZM5.30076 10.6917C4.94177 10.6917 4.65076 10.9827 4.65076 11.3417V15.4598C4.65076 15.8188 4.94177 16.1098 5.30076 16.1098H6.52651V10.6917H5.30076ZM11.0065 19.6904C10.9848 19.7146 10.9603 19.7613 10.9603 19.8286C10.9603 19.8959 10.9848 19.9427 11.0065 19.9668C11.0171 19.9785 11.0252 19.983 11.0277 19.9842L12.2367 19.9844C12.2392 19.9832 12.2477 19.9785 12.2582 19.9668C12.28 19.9427 12.3045 19.8959 12.3045 19.8286C12.3045 19.7613 12.28 19.7146 12.2582 19.6904C12.2477 19.6787 12.2396 19.6742 12.2371 19.6731L11.0281 19.6729C11.0256 19.674 11.0171 19.6787 11.0065 19.6904Z" fill="black"/>
</svg>
