<svg width="24" height="24" viewBox="0 0 24 24" fill="none" xmlns="http://www.w3.org/2000/svg">
<path fill-rule="evenodd" clip-rule="evenodd" d="M3.86845 8.60197C5.0105 5.80957 7.7425 3.46049 11.9107 3.75265C15.9373 4.03487 18.2918 6.4792 19.5439 8.99491C20.3595 10.6333 20.7256 12.3288 20.8062 13.5546C20.963 14.9607 20.8129 16.1313 20.4774 17.0879C19.869 18.8224 18.6741 19.7885 17.7616 20.1602C17.4744 20.2772 17.1798 20.2634 16.9369 20.184L5.68202 16.5026C5.56679 16.4649 5.45004 16.4082 5.34111 16.3286L3.23674 13.1016M3.23674 13.1016L5.34111 16.3286C3.08441 14.6789 2.76116 11.3094 3.86845 8.60197M6.18976 15.0905C4.73313 13.99 4.30236 11.5035 5.25682 9.16979C6.18447 6.90163 8.36108 5.00753 11.8059 5.24898C14.5923 5.44428 16.413 6.85503 17.5726 8.57911H13.3116C11.7908 8.57911 10.5005 9.6952 10.2814 11.2001C10.0799 12.5843 10.842 13.9291 12.133 14.4675L18.7769 17.2382C18.3345 18.0556 17.7333 18.5186 17.3005 18.7247L6.18976 15.0905ZM19.266 15.817C19.375 15.2261 19.4067 14.5269 19.3137 13.7051C19.3123 13.6929 19.3112 13.6807 19.3104 13.6684C19.2501 12.7216 18.9824 11.3979 18.3967 10.0791H13.3116C12.5358 10.0791 11.8775 10.6485 11.7658 11.4162C11.663 12.1223 12.0517 12.8084 12.7103 13.0831L19.266 15.817Z" fill="black"/>
</svg>
