<svg width="25" height="24" viewBox="0 0 25 24" fill="none" xmlns="http://www.w3.org/2000/svg">
<path fill-rule="evenodd" clip-rule="evenodd" d="M4.99395 4.34501C4.70044 4.05956 4.23109 4.06212 3.94074 4.35261C3.64791 4.64557 3.64802 5.12044 3.94099 5.41327L6.11073 7.58199C4.63351 8.93801 3.67515 10.4343 3.25558 11.1611C2.97129 11.6536 2.96681 12.2539 3.24301 12.7505C3.66745 13.5136 4.66195 15.1205 6.2164 16.5449C7.7733 17.9716 9.94118 19.2579 12.6883 19.2579C14.2365 19.2579 15.5983 18.8489 16.7694 18.2356L19.2848 20.7498C19.5777 21.0426 20.0526 21.0425 20.3454 20.7495C20.6382 20.4566 20.6381 19.9817 20.3452 19.6889L19.3377 18.6819C19.3153 18.6641 19.2936 18.6448 19.2729 18.6241L4.99395 4.34501ZM19.2295 16.4594C20.7432 15.0354 21.706 13.4471 22.1163 12.694C22.3847 12.2014 22.378 11.6108 22.0998 11.1246C21.6743 10.3807 20.6812 8.82129 19.1305 7.43996C17.5768 6.05589 15.4187 4.81322 12.6883 4.81323C11.1405 4.81324 9.77362 5.21903 8.59552 5.82529L9.71988 6.94966C10.6102 6.55654 11.6004 6.31324 12.6883 6.31323C14.9348 6.31323 16.7527 7.33062 18.1328 8.56002C19.516 9.79216 20.4147 11.1996 20.7978 11.8694C20.8179 11.9044 20.8181 11.9415 20.7991 11.9763C20.4249 12.6631 19.54 14.118 18.1683 15.3982L19.2295 16.4594ZM16.3459 13.5757C16.5537 13.0922 16.6687 12.5595 16.6687 11.9999C16.6687 9.79378 14.8803 8.00537 12.6742 8.00537C12.1146 8.00537 11.5819 8.12044 11.0984 8.32821L12.303 9.5328C12.4241 9.51473 12.5481 9.50537 12.6742 9.50537C14.0519 9.50537 15.1687 10.6222 15.1687 11.9999C15.1687 12.1261 15.1594 12.25 15.1413 12.3711L16.3459 13.5757ZM4.55466 11.911C4.93835 11.2464 5.82419 9.86779 7.17275 8.6435L8.98813 10.458C8.78945 10.9325 8.67968 11.4534 8.67968 11.9999C8.67968 14.206 10.4681 15.9944 12.6742 15.9944C13.2214 15.9944 13.7429 15.8844 14.2178 15.6853L15.6474 17.1141C14.7628 17.5122 13.7763 17.7579 12.6883 17.7579C10.4395 17.7579 8.61674 16.71 7.2298 15.439C5.84043 14.1659 4.93793 12.7118 4.55388 12.0214C4.53379 11.9852 4.5342 11.9465 4.55466 11.911ZM10.1797 11.9999C10.1797 11.8883 10.187 11.7783 10.2012 11.6706L13.0047 14.4727C12.8966 14.487 12.7863 14.4944 12.6742 14.4944C11.2965 14.4944 10.1797 13.3776 10.1797 11.9999Z" fill="black"/>
</svg>
