<svg width="24" height="24" viewBox="0 0 24 24" fill="none" xmlns="http://www.w3.org/2000/svg">
<path fill-rule="evenodd" clip-rule="evenodd" d="M15.7444 4.15607C13.4305 4.0894 11.5007 5.91115 11.434 8.22506C11.4221 8.64 11.4709 9.04258 11.5723 9.42429L10.6886 10.2796L8.06149 7.65242L8.34989 7.36402C8.75815 6.95576 8.71084 6.28073 8.24963 5.9334L6.63362 4.7164C6.2554 4.43157 5.72518 4.46872 5.39037 4.80352L4.19508 5.99881C3.87075 6.32315 3.82447 6.8329 4.08508 7.21035L5.24223 8.88621C5.57927 9.37434 6.27628 9.43763 6.69573 9.01818L7.00083 8.71308L9.61063 11.3229L3.7748 16.9711C2.8617 17.8548 2.83791 19.3115 3.72165 20.2246C4.60539 21.1377 6.06201 21.1614 6.97511 20.2777L12.8652 14.577L13.001 14.7128L12.5913 15.1225C12.3253 15.3885 12.2924 15.8085 12.5137 16.1126L15.0234 19.5614C16.0129 20.9212 17.9831 21.0755 19.1723 19.8864C20.3458 18.7129 20.2135 16.7735 18.8916 15.7703L15.4726 13.1755C15.1682 12.9445 14.7401 12.9737 14.4699 13.2439L14.0616 13.6521L13.9432 13.5337L15.0178 12.4936C15.1767 12.5166 15.3386 12.5307 15.503 12.5355C17.8169 12.6021 19.7468 10.7804 19.8134 8.46648C19.8263 8.02029 19.7687 7.58698 19.6502 7.17804C19.5992 7.0021 19.537 6.83085 19.4644 6.66517C19.2005 6.06303 18.4418 5.98185 18.0269 6.4031L16.118 8.34068L15.6155 7.82163L17.5407 5.93329C17.9652 5.51689 17.8818 4.75217 17.2732 4.49155C17.0682 4.40376 16.8547 4.33178 16.6341 4.27719C16.3477 4.2063 16.0499 4.16487 15.7444 4.15607ZM12.9334 8.26826C12.976 6.78875 14.2049 5.62259 15.6823 5.65497L14.1309 7.17666C13.7825 7.51844 13.7753 8.07741 14.1148 8.42806L15.4764 9.8344C15.8232 10.1926 16.3968 10.1951 16.7467 9.8399L18.3136 8.24942C18.3156 8.3069 18.3157 8.36487 18.3141 8.42328C18.2713 9.9091 17.0321 11.0789 15.5462 11.0361C14.0604 10.9933 12.8906 9.75408 12.9334 8.26826ZM14.5805 15.2546C14.5844 15.2509 14.5883 15.2471 14.5921 15.2433C14.5959 15.2394 14.5997 15.2356 14.6035 15.2317L15.0769 14.7583L17.9847 16.9651C18.5823 17.4186 18.6421 18.2953 18.1116 18.8257C17.5741 19.3632 16.6835 19.2935 16.2362 18.6788L14.0966 15.7385L14.5805 15.2546ZM4.81799 18.0489L12.2181 10.8867L13.3321 12.0376L5.93192 19.1999C5.6141 19.5075 5.10709 19.4992 4.79949 19.1814C4.49189 18.8635 4.50017 18.3565 4.81799 18.0489ZM5.57991 6.73531L6.10165 7.49094L6.8417 6.75089L6.11306 6.20215L5.57991 6.73531Z" fill="black"/>
</svg>
