<svg width="24" height="24" viewBox="0 0 24 24" fill="none" xmlns="http://www.w3.org/2000/svg">
<path d="M12.4554 11.0126C12.3303 10.9508 12.1824 10.9153 11.9762 10.9207C11.7178 10.9274 11.4479 11.0323 11.253 11.1975C11.0622 11.3593 10.9872 11.5363 10.9906 11.6946C10.9948 11.8889 11.0361 11.9529 11.0796 12.0029C11.154 12.0883 11.3126 12.2067 11.6879 12.384L12.1618 12.6005L12.2645 12.6461C12.431 12.7201 12.6074 12.7989 12.7849 12.8851L12.8476 12.9138C12.8747 12.9261 12.9007 12.9399 12.9255 12.955C13.2115 13.1005 13.4941 13.2669 13.7364 13.4652C14.2057 13.8493 14.5687 14.3896 14.5687 15.1439C14.5687 15.8603 14.2502 16.4572 13.7317 16.8557C13.4538 17.0693 13.1307 17.2177 12.7852 17.3074V17.7385C12.7852 18.1527 12.4494 18.4885 12.0352 18.4885C11.6209 18.4885 11.2852 18.1527 11.2852 17.7385V17.3396C10.5018 17.1523 9.95225 16.6345 9.57172 16.1039C9.33034 15.7673 9.40753 15.2987 9.74414 15.0573C10.0808 14.8159 10.5493 14.8931 10.7907 15.2297C11.1094 15.6741 11.4529 15.9132 11.925 15.9132C12.339 15.9132 12.6395 15.8033 12.8176 15.6664C12.9775 15.5436 13.0686 15.3809 13.0686 15.1439C13.0686 14.9449 12.9983 14.7995 12.7863 14.626C12.6219 14.4914 12.4054 14.3685 12.1298 14.235L11.5456 13.9681L10.9699 13.7122L10.9732 13.7049C10.5861 13.5173 10.2189 13.2986 9.94831 12.9878C9.62828 12.6203 9.50103 12.1948 9.49095 11.7269C9.47576 11.0217 9.82702 10.44 10.2829 10.0535C10.5701 9.80997 10.9159 9.627 11.2852 9.52191V9.06073C11.2852 8.64652 11.6209 8.31073 12.0352 8.31073C12.4494 8.31073 12.7852 8.64652 12.7852 9.06073V9.53339C12.8985 9.56902 13.0099 9.61351 13.1193 9.66754C13.4862 9.84861 13.7909 10.1168 14.0586 10.4381C14.3237 10.7563 14.2807 11.2292 13.9625 11.4944C13.6443 11.7596 13.1714 11.7166 12.9062 11.3984C12.733 11.1904 12.5857 11.0769 12.4554 11.0126Z" fill="black"/>
<path fill-rule="evenodd" clip-rule="evenodd" d="M19.4166 12.473L19.4441 12.5034C19.7222 12.8104 20.1964 12.8339 20.5035 12.5558C20.8105 12.2778 20.834 11.8035 20.5559 11.4965C19.8021 10.6641 18.9471 9.73937 18.0833 8.81491V5.66669C18.0833 5.25247 17.7475 4.91669 17.3333 4.91669C16.919 4.91669 16.5833 5.25247 16.5833 5.66669V7.21829C15.2242 5.7787 13.982 4.48015 13.2439 3.71123C12.5601 2.99878 11.4271 3.01427 10.7566 3.72668L3.45385 11.4859C3.16996 11.7875 3.18435 12.2622 3.48598 12.5461C3.78761 12.83 4.26226 12.8156 4.54615 12.5139L4.58325 12.4745V19.3333C4.58325 20.2998 5.36675 21.0833 6.33325 21.0833H17.6666C18.6331 21.0833 19.4166 20.2998 19.4166 19.3333V12.473ZM12.1618 4.74995C12.0787 4.66338 11.9375 4.66062 11.8489 4.75473L6.07516 10.8894C6.08049 10.9255 6.08325 10.9624 6.08325 10.9999V19.3333C6.08325 19.4713 6.19518 19.5833 6.33325 19.5833H17.6666C17.8047 19.5833 17.9166 19.4713 17.9166 19.3333V10.9999C17.9166 10.9497 17.9215 10.9006 17.9309 10.8532C15.7765 8.52705 13.3362 5.97345 12.1618 4.74995Z" fill="black"/>
</svg>
