<svg width="24" height="25" viewBox="0 0 24 25" fill="none" xmlns="http://www.w3.org/2000/svg">
<path fill-rule="evenodd" clip-rule="evenodd" d="M3.75 5.4978C3.75 5.08359 3.41421 4.7478 3 4.7478C2.58579 4.7478 2.25 5.08359 2.25 5.4978V19.7125C2.25 20.1267 2.58579 20.4625 3 20.4625C3.41421 20.4625 3.75 20.1267 3.75 19.7125L3.75 17.2442C3.80668 17.2579 3.86587 17.2652 3.92676 17.2652L20.25 17.2652V19.7123C20.25 20.1265 20.5858 20.4623 21 20.4623C21.4142 20.4623 21.75 20.1265 21.75 19.7123V16.5303L21.7502 16.5152L21.75 16.5V7.4955C21.75 7.08128 21.4142 6.7455 21 6.7455C20.5858 6.7455 20.25 7.08129 20.25 7.4955V10.1903C19.563 9.32708 18.5032 8.7737 17.3142 8.7737H10.9264C10.5122 8.7737 10.1764 9.10948 10.1764 9.5237V10.3294C9.82031 9.21507 8.77633 8.40819 7.54388 8.40819C6.01785 8.40819 4.78076 9.64528 4.78076 11.1713C4.78076 11.7605 4.96519 12.3067 5.27946 12.7551H3.92676C3.86587 12.7551 3.80668 12.7624 3.75 12.7761L3.75 5.4978ZM3.75 14.2342L3.75 15.7861C3.80668 15.7724 3.86587 15.7652 3.92676 15.7652L20.25 15.7652V14.255H11.1776C11.172 14.2551 11.1665 14.2551 11.161 14.2551H3.92676C3.86587 14.2551 3.80668 14.2479 3.75 14.2342ZM10.1764 12.7551V12.0132C10.091 12.2805 9.96599 12.5301 9.8083 12.7551H10.1764ZM6.28076 11.1713C6.28076 10.4737 6.84628 9.90819 7.54388 9.90819C8.24148 9.90819 8.807 10.4737 8.807 11.1713C8.807 11.8689 8.24148 12.4344 7.54388 12.4344C6.84628 12.4344 6.28076 11.8689 6.28076 11.1713ZM11.6764 10.2737V12.755H19.5642V12.5237C19.5642 11.2811 18.5568 10.2737 17.3142 10.2737H11.6764Z" fill="black"/>
</svg>
