<svg width="25" height="24" viewBox="0 0 25 24" fill="none" xmlns="http://www.w3.org/2000/svg">
<path d="M5.43814 12.4494C5.14525 12.7423 5.14525 13.2171 5.43814 13.51C5.73103 13.8029 6.20591 13.8029 6.4988 13.51L9.69244 10.3164C9.98533 10.0235 9.98533 9.54862 9.69244 9.25573C9.39955 8.96283 8.92467 8.96283 8.63178 9.25573L5.43814 12.4494Z" fill="black"/>
<path d="M7.10872 9.90026C7.10872 10.4672 6.64913 10.9268 6.08219 10.9268C5.51526 10.9268 5.05566 10.4672 5.05566 9.90026C5.05566 9.33333 5.51526 8.87374 6.08219 8.87374C6.64913 8.87374 7.10872 9.33333 7.10872 9.90026Z" fill="black"/>
<path d="M8.8195 14.1206C9.38643 14.1206 9.84602 13.661 9.84602 13.0941C9.84602 12.5272 9.38643 12.0676 8.8195 12.0676C8.25256 12.0676 7.79297 12.5272 7.79297 13.0941C7.79297 13.661 8.25256 14.1206 8.8195 14.1206Z" fill="black"/>
<path fill-rule="evenodd" clip-rule="evenodd" d="M11.2012 3.3408L9.61149 5.05504L8.52541 4.11377C7.85038 3.52874 6.84307 3.54602 6.18849 4.15384L3.81214 6.36045C3.45555 6.69157 3.25293 7.15622 3.25293 7.64284V15.3086C3.25293 16.2751 4.03643 17.0586 5.00293 17.0586H5.09677V18.3067C5.09677 19.2732 5.88027 20.0567 6.84677 20.0567H18.0974C19.0639 20.0567 19.8474 19.2732 19.8474 18.3067V11.8396L19.8812 11.8747C20.168 12.1736 20.6428 12.1832 20.9416 11.8964C21.2404 11.6095 21.2501 11.1348 20.9632 10.8359L18.5225 8.29346L18.5225 4.73116C18.5225 4.31695 18.1867 3.98116 17.7725 3.98116C17.3583 3.98116 17.0225 4.31694 17.0225 4.73116L17.0225 6.73096L13.7468 3.31883C13.0498 2.59281 11.8856 2.60286 11.2012 3.3408ZM12.6647 4.35763C12.5652 4.25391 12.3988 4.25535 12.3011 4.36077L10.7457 6.038L11.0952 6.34095C11.4788 6.67334 11.6991 7.15587 11.6991 7.6634V15.3086C11.6991 16.2751 10.9156 17.0586 9.94909 17.0586H6.59677V18.3067C6.59677 18.4447 6.70869 18.5567 6.84677 18.5567H18.0974C18.2355 18.5567 18.3474 18.4447 18.3474 18.3067V10.2771L12.6647 4.35763ZM7.54301 5.24731C7.44658 5.16373 7.30268 5.1662 7.20917 5.25303L4.83282 7.45964C4.78188 7.50695 4.75293 7.57332 4.75293 7.64284V15.3086C4.75293 15.4467 4.86486 15.5586 5.00293 15.5586H9.94909C10.0872 15.5586 10.1991 15.4467 10.1991 15.3086V7.6634C10.1991 7.5909 10.1676 7.52196 10.1128 7.47448L7.54301 5.24731Z" fill="black"/>
</svg>
