<svg width="25" height="24" viewBox="0 0 25 24" fill="none" xmlns="http://www.w3.org/2000/svg">
<path d="M9.86039 12.0445C9.86039 12.5722 9.43256 13 8.90481 13C8.37705 13 7.94922 12.5722 7.94922 12.0445C7.94922 11.5167 8.37705 11.0889 8.90481 11.0889C9.43256 11.0889 9.86039 11.5167 9.86039 12.0445Z" fill="black"/>
<path fill-rule="evenodd" clip-rule="evenodd" d="M8.90468 2.99707C7.19098 2.99707 5.80176 4.3863 5.80176 6.09999V8.04955C4.79241 8.27147 4.03711 9.17107 4.03711 10.2471V13.7176C4.03711 14.7412 4.72069 15.6052 5.65626 15.878L5.65632 19.2034C5.65634 20.1699 6.43983 20.9534 7.40632 20.9534H19.005C19.9715 20.9534 20.755 20.1699 20.755 19.2034V12.493L20.8232 12.564C21.11 12.8628 21.5848 12.8725 21.8836 12.5856C22.1824 12.2988 22.1921 11.824 21.9052 11.5252L19.3945 8.90987L19.3945 5.24536C19.3945 4.83115 19.0588 4.49536 18.6445 4.49536C18.2303 4.49536 17.8945 4.83115 17.8945 5.24536L17.8945 7.34738L14.4748 3.78514C13.7812 3.06265 12.6239 3.06853 11.9377 3.79802L11.4466 4.32004C10.8854 3.52004 9.95612 2.99707 8.90468 2.99707ZM19.255 10.9305L13.3927 4.82393C13.2936 4.72072 13.1283 4.72156 13.0303 4.82578L12.0024 5.91849C12.0058 5.97855 12.0076 6.03906 12.0076 6.09999V8.04953C13.017 8.27142 13.7723 9.17104 13.7723 10.2471V13.7176C13.7723 14.9602 12.765 15.9676 11.5223 15.9676H7.15626L7.15632 19.2034C7.15632 19.3415 7.26825 19.4534 7.40632 19.4534H19.005C19.1431 19.4534 19.255 19.3415 19.255 19.2034V10.9305ZM10.5076 7.99707V6.09999C10.5076 5.21472 9.78994 4.49707 8.90468 4.49707C8.01941 4.49707 7.30176 5.21472 7.30176 6.09999V7.99707H10.5076ZM5.53711 10.2471C5.53711 9.83286 5.8729 9.49707 6.28711 9.49707H11.5223C11.9365 9.49707 12.2723 9.83286 12.2723 10.2471V13.7176C12.2723 14.1318 11.9365 14.4676 11.5223 14.4676H6.28711C5.8729 14.4676 5.53711 14.1318 5.53711 13.7176V10.2471Z" fill="black"/>
</svg>
