<svg width="25" height="25" viewBox="0 0 25 25" fill="none" xmlns="http://www.w3.org/2000/svg">
<path d="M8.61402 9.66642C8.54068 9.63021 8.44932 9.60605 8.30788 9.60974C8.13944 9.61413 7.95983 9.68377 7.83234 9.79187C7.70886 9.89657 7.67827 9.9945 7.67975 10.0629C7.68129 10.1347 7.69063 10.1681 7.69471 10.1799C7.69753 10.188 7.70055 10.1947 7.71187 10.2077C7.74848 10.2498 7.84903 10.3321 8.14138 10.4703L8.52511 10.6456L8.59556 10.6769C8.72513 10.7345 8.8652 10.7969 9.00793 10.8662L9.05859 10.8893C9.08421 10.901 9.10885 10.914 9.13247 10.9281C9.36362 11.0461 9.59579 11.1831 9.79629 11.3472C10.1946 11.6732 10.5125 12.1421 10.5125 12.7971C10.5125 13.4142 10.2367 13.932 9.7889 14.2762C9.5823 14.435 9.34834 14.5506 9.1001 14.6279V14.8508C9.1001 15.265 8.76431 15.6008 8.3501 15.6008C7.93588 15.6008 7.6001 15.265 7.6001 14.8508V14.6551C6.99653 14.474 6.56878 14.0602 6.27333 13.6481C6.03194 13.3115 6.10914 12.843 6.44575 12.6016C6.78235 12.3602 7.25091 12.4374 7.4923 12.774C7.72812 13.1029 7.95861 13.2499 8.26329 13.2499C8.56548 13.2499 8.76732 13.1695 8.8748 13.0869C8.96397 13.0184 9.01248 12.9348 9.01248 12.7971C9.01248 12.6974 8.98731 12.6234 8.84624 12.508C8.72756 12.4108 8.56738 12.3197 8.35261 12.2159L7.90885 12.0132L7.30099 11.743L7.30652 11.7306C7.04032 11.592 6.78162 11.4236 6.58054 11.1927C6.29838 10.8686 6.18869 10.4941 6.18009 10.0952C6.16684 9.47992 6.4737 8.97726 6.86223 8.6478C7.07671 8.46594 7.32927 8.32389 7.6001 8.23149V7.98091C7.6001 7.5667 7.93588 7.23091 8.3501 7.23091C8.76431 7.23091 9.1001 7.5667 9.1001 7.98091V8.24395C9.15996 8.26663 9.21926 8.29238 9.27796 8.32135C9.593 8.47686 9.85062 8.70533 10.0724 8.97145C10.3376 9.28966 10.2946 9.76258 9.97635 10.0278C9.65815 10.2929 9.18522 10.2499 8.92005 9.93173C8.79273 9.77894 8.69257 9.70519 8.61402 9.66642Z" fill="black"/>
<path fill-rule="evenodd" clip-rule="evenodd" d="M10.5522 5.46162L12.2495 3.63133C12.9339 2.89338 14.0981 2.88334 14.7951 3.60936L18.2759 7.23515L18.2759 5.08541C18.2759 4.67119 18.6117 4.33541 19.0259 4.33541C19.4401 4.33541 19.7759 4.67119 19.7759 5.08541L19.7759 8.79765L22.3182 11.4459C22.6051 11.7447 22.5954 12.2195 22.2966 12.5063C21.9977 12.7932 21.523 12.7835 21.2361 12.4847L21.152 12.397V19.223C21.152 20.1895 20.3685 20.973 19.402 20.973H7.64023C6.67373 20.973 5.89023 20.1895 5.89023 19.223V17.8587H5.72461C4.75811 17.8587 3.97461 17.0752 3.97461 16.1087V8.0918C3.97461 7.60518 4.17723 7.14053 4.53382 6.80941L7.03951 4.4827C7.69409 3.87487 8.70139 3.8576 9.37643 4.44263L10.5522 5.46162ZM13.3494 4.65129C13.4472 4.54587 13.6135 4.54444 13.713 4.64816L19.652 10.8345V19.223C19.652 19.3611 19.54 19.473 19.402 19.473H7.64023C7.50216 19.473 7.39023 19.3611 7.39023 19.223V17.8587H10.9387C11.9052 17.8587 12.6887 17.0752 12.6887 16.1087V8.11236C12.6887 7.60483 12.4683 7.1223 12.0848 6.7899L11.6864 6.44457L13.3494 4.65129ZM8.06019 5.58189C8.1537 5.49506 8.2976 5.49259 8.39403 5.57617L11.1024 7.92344C11.1572 7.97092 11.1887 8.03985 11.1887 8.11236V16.1087C11.1887 16.2467 11.0768 16.3587 10.9387 16.3587H5.72461C5.58654 16.3587 5.47461 16.2467 5.47461 16.1087V8.0918C5.47461 8.02228 5.50355 7.9559 5.5545 7.9086L8.06019 5.58189Z" fill="black"/>
</svg>
