<svg width="25" height="24" viewBox="0 0 25 24" fill="none" xmlns="http://www.w3.org/2000/svg">
<path fill-rule="evenodd" clip-rule="evenodd" d="M7.28752 3.80261C7.57656 3.14863 8.32537 2.83342 8.9951 3.08383L20.8565 7.5188C21.5685 7.78499 21.9204 8.5862 21.6348 9.29057L19.3794 14.8531V18.8707C19.3794 19.6163 18.7749 20.2207 18.0294 20.2207H4.40579C3.6602 20.2207 3.05579 19.6163 3.05579 18.8707V10.5413C3.05579 9.79571 3.6602 9.1913 4.40579 9.1913H4.90594L7.28752 3.80261ZM20.1868 8.86981L19.3794 10.8612V10.5413C19.3794 9.79572 18.7749 9.1913 18.0294 9.1913H17.1812L8.10574 5.66195L8.60231 4.53839L20.1868 8.86981ZM7.49876 7.03533L6.5459 9.1913H13.0427L7.49876 7.03533ZM5.41612 10.6913C5.4014 10.6917 5.38664 10.6917 5.37185 10.6913H4.55579V18.7207H17.8794V10.6913H17.064C17.0485 10.6918 17.033 10.6918 17.0175 10.6913H5.41612Z" fill="black"/>
<path fill-rule="evenodd" clip-rule="evenodd" d="M9.41638 13.5514C9.41638 12.5565 10.2229 11.75 11.2177 11.75C12.2126 11.75 13.0191 12.5565 13.0191 13.5514V14.6999C13.4703 14.7846 13.8117 15.1806 13.8117 15.6564V17.0545C13.8117 17.592 13.3759 18.0278 12.8384 18.0278H9.59672C9.05918 18.0278 8.62341 17.592 8.62341 17.0545V15.6564C8.62341 15.1805 8.965 14.7844 9.41638 14.6998V13.5514ZM11.5191 13.5514V14.6831H10.9164V13.5514C10.9164 13.3849 11.0513 13.25 11.2177 13.25C11.3842 13.25 11.5191 13.3849 11.5191 13.5514ZM11.2556 16.9133C11.5634 16.9133 11.813 16.6637 11.813 16.3558C11.813 16.0479 11.5634 15.7984 11.2556 15.7984C10.9477 15.7984 10.6981 16.0479 10.6981 16.3558C10.6981 16.6637 10.9477 16.9133 11.2556 16.9133Z" fill="black"/>
</svg>
