<svg width="25" height="24" viewBox="0 0 25 24" fill="none" xmlns="http://www.w3.org/2000/svg">
<path fill-rule="evenodd" clip-rule="evenodd" d="M3.32373 5C3.32373 4.0335 4.10723 3.25 5.07373 3.25H19.0737C20.0402 3.25 20.8237 4.0335 20.8237 5V19C20.8237 19.9665 20.0402 20.75 19.0737 20.75H5.07373C4.10723 20.75 3.32373 19.9665 3.32373 19V5ZM5.07373 4.75C4.93566 4.75 4.82373 4.86193 4.82373 5V18.2655L10.8332 12.1879C11.5155 11.4978 12.629 11.4947 13.3151 12.181L19.3237 18.191V5C19.3237 4.86193 19.2118 4.75 19.0737 4.75H5.07373ZM18.2614 19.25H5.95977L11.8998 13.2425C11.9973 13.1439 12.1563 13.1435 12.2544 13.2415L18.2614 19.25ZM14.6772 8.75C14.6772 8.19772 15.125 7.75 15.6772 7.75C16.2295 7.75 16.6772 8.19772 16.6772 8.75C16.6772 9.30228 16.2295 9.75 15.6772 9.75C15.125 9.75 14.6772 9.30228 14.6772 8.75ZM15.6772 6.25C14.2965 6.25 13.1772 7.36929 13.1772 8.75C13.1772 10.1307 14.2965 11.25 15.6772 11.25C17.058 11.25 18.1772 10.1307 18.1772 8.75C18.1772 7.36929 17.058 6.25 15.6772 6.25Z" fill="black"/>
</svg>
