<svg width="25" height="24" viewBox="0 0 25 24" fill="none" xmlns="http://www.w3.org/2000/svg">
<path d="M14.6772 8.75C14.6772 8.19772 15.125 7.75 15.6772 7.75C16.2295 7.75 16.6772 8.19772 16.6772 8.75C16.6772 9.30228 16.2295 9.75 15.6772 9.75C15.125 9.75 14.6772 9.30228 14.6772 8.75Z" fill="black"/>
<path fill-rule="evenodd" clip-rule="evenodd" d="M3.32373 5C3.32373 4.0335 4.10723 3.25 5.07373 3.25H19.0737C20.0402 3.25 20.8237 4.0335 20.8237 5V19C20.8237 19.2045 20.7886 19.4008 20.7242 19.5833L13.3107 12.1759C12.6272 11.493 11.5196 11.4932 10.8364 12.1764L3.42472 19.5873C3.35933 19.4037 3.32373 19.206 3.32373 19V5ZM15.6772 6.25C14.2965 6.25 13.1772 7.36929 13.1772 8.75C13.1772 10.1307 14.2965 11.25 15.6772 11.25C17.058 11.25 18.1772 10.1307 18.1772 8.75C18.1772 7.36929 17.058 6.25 15.6772 6.25Z" fill="black"/>
<path d="M12.2505 13.237L19.6666 20.647C19.4815 20.7137 19.2818 20.75 19.0737 20.75H5.07373C4.86713 20.75 4.66889 20.7142 4.48488 20.6485L11.897 13.2371C11.9946 13.1395 12.1528 13.1395 12.2505 13.237Z" fill="black"/>
</svg>
