<svg width="25" height="25" viewBox="0 0 25 25" fill="none" xmlns="http://www.w3.org/2000/svg">
<path fill-rule="evenodd" clip-rule="evenodd" d="M5.07373 3.75C4.10723 3.75 3.32373 4.5335 3.32373 5.5V19.5C3.32373 20.4665 4.10723 21.25 5.07373 21.25H19.0737C20.0402 21.25 20.8237 20.4665 20.8237 19.5V5.5C20.8237 4.5335 20.0402 3.75 19.0737 3.75H5.07373ZM4.82373 5.5C4.82373 5.36193 4.93566 5.25 5.07373 5.25H19.0737C19.2118 5.25 19.3237 5.36193 19.3237 5.5V12.9281H15.3717C15.3717 12.9281 15.3718 12.9281 15.3717 12.9281C14.9576 12.9282 14.6217 13.2639 14.6217 13.6781C14.6217 15.0853 13.481 16.226 12.0738 16.226C10.6666 16.226 9.52588 15.0853 9.52588 13.6781C9.52588 13.2639 9.19009 12.9281 8.77588 12.9281H4.82373V5.5ZM16.0524 14.4281C15.7007 16.3054 14.0531 17.726 12.0738 17.726C10.0945 17.726 8.44692 16.3054 8.09522 14.4281H4.82373V19.5C4.82373 19.6381 4.93566 19.75 5.07373 19.75H19.0737C19.2118 19.75 19.3237 19.6381 19.3237 19.5V14.4281H16.0524Z" fill="black"/>
</svg>
