<svg width="24" height="24" viewBox="0 0 24 24" fill="none" xmlns="http://www.w3.org/2000/svg">
<path d="M10.7602 12.4925V7.12944C9.7612 7.28498 8.42598 7.51697 7.46655 7.74236V8.44112C7.46655 10.7137 7.53683 12.838 8.67883 14.416C9.40211 15.4154 10.4116 16.1079 12.0984 16.9251C13.214 16.3068 13.9043 15.7649 14.4537 15.037C15.911 13.1061 16.0332 10.4581 16.0334 7.71665L15.844 7.65821C15.06 7.41608 14.5482 7.25801 13.8037 7.15441C13.3935 7.09732 13.1072 6.71846 13.1643 6.30819C13.2214 5.89793 13.6002 5.61164 14.0105 5.66873C14.8813 5.7899 15.5077 5.9838 16.2861 6.2247C16.3877 6.25617 16.492 6.28845 16.5998 6.32147C17.1503 6.49016 17.5334 6.99857 17.5334 7.58164V7.7099C17.5334 10.3829 17.4557 13.5495 15.651 15.9406C14.9094 16.9232 13.9948 17.598 12.7284 18.2905C12.3582 18.493 11.9153 18.5013 11.5399 18.321C9.73236 17.453 8.42305 16.6211 7.46365 15.2954C5.99181 13.2616 5.96655 10.6269 5.96655 8.44112V7.58682C5.96655 7.005 6.35401 6.46997 6.94963 6.32384C8.05473 6.05271 9.68074 5.77584 10.7576 5.6122C11.5577 5.49061 12.2603 6.1145 12.2603 6.90804V12.4925C12.2603 12.9067 11.9245 13.2425 11.5102 13.2425C11.096 13.2425 10.7602 12.9067 10.7602 12.4925Z" fill="black"/>
<path fill-rule="evenodd" clip-rule="evenodd" d="M18.9918 4.46247C16.2412 3.64684 14.006 3.24301 11.7499 3.2521C9.49576 3.26118 7.26386 3.68233 4.52241 4.46337C3.95819 4.62411 3.56982 5.14056 3.56982 5.72572V8.73783C3.56982 10.9269 3.71696 13.3079 4.77175 15.4206C6.14817 18.1775 8.1747 19.6102 11.398 21.1886C11.78 21.3757 12.2328 21.366 12.6071 21.1594C15.133 19.7655 16.8665 18.4874 18.2621 16.05C19.6774 13.5783 19.9304 10.6938 19.9304 8.02304V5.72045C19.9304 5.1412 19.5494 4.62782 18.9918 4.46247ZM5.06982 8.73783V5.86728C7.67915 5.131 9.72812 4.76026 11.7559 4.75209C13.7819 4.74393 15.8284 5.09761 18.4304 5.86076V8.02304C18.4304 10.6384 18.1718 13.189 16.9604 15.3046C15.7748 17.3752 14.3337 18.4858 11.9692 19.798C8.91109 18.2923 7.26045 17.0473 6.11379 14.7506C5.22615 12.9727 5.06982 10.8974 5.06982 8.73783Z" fill="black"/>
</svg>
