<svg width="24" height="24" viewBox="0 0 24 24" fill="none" xmlns="http://www.w3.org/2000/svg">
<path fill-rule="evenodd" clip-rule="evenodd" d="M8.65714 5.79541C8.24293 5.79541 7.90714 6.1312 7.90714 6.54541C7.90714 6.95962 8.24293 7.29541 8.65714 7.29541H10.9667L12.3541 8.39907L11.7816 9.61359H9.29611C7.93614 9.61359 6.79245 10.5396 6.46109 11.7954H5.1813C3.56238 11.7954 2.25 13.1078 2.25 14.7267C2.25 14.8663 2.28816 14.9977 2.35462 15.1096L3.83264 17.7223C4.00122 18.0203 4.31712 18.2045 4.6595 18.2045H15.8571C15.8868 18.2045 15.9164 18.2027 15.9459 18.1992C17.3322 18.0341 18.4194 17.8057 19.3285 17.3407C20.2621 16.8632 20.9456 16.1694 21.5925 15.1912C21.5986 15.1821 21.6045 15.1728 21.6102 15.1635C21.6982 15.0406 21.75 14.89 21.75 14.7273C21.75 14.7166 21.7498 14.706 21.7493 14.6954C21.7497 14.6835 21.7498 14.6716 21.7496 14.6596C21.7423 13.9768 21.6231 13.1526 21.3411 12.3079C20.9286 11.072 20.1538 9.75489 18.8268 8.7924C17.5456 7.86316 15.8102 7.3086 13.5281 7.41622L11.7501 6.00194C11.582 5.86821 11.3735 5.79541 11.1587 5.79541H8.65714ZM20.1969 13.9773C20.1673 13.7597 20.1246 13.5307 20.0667 13.2954H16.8857C16.4715 13.2954 16.1357 12.9596 16.1357 12.5454C16.1357 12.1312 16.4715 11.7954 16.8857 11.7954H19.4928C19.1338 11.13 18.6305 10.5031 17.9461 10.0066C17.0076 9.32593 15.6719 8.84908 13.7726 8.90774L11.961 12.7505C11.8042 13.0832 11.4695 13.2954 11.1017 13.2954H5.1813C4.66557 13.2954 4.21356 13.5682 3.96164 13.9773H20.1969ZM4.28602 15.4773L4.98027 16.7045H15.8123C17.1315 16.5451 17.9888 16.3411 18.6454 16.0053C18.9223 15.8637 19.1742 15.693 19.4156 15.4773H4.28602ZM9.29611 11.1136H11.0744L10.753 11.7954H8.07619C8.32825 11.3863 8.78033 11.1136 9.29611 11.1136Z" fill="black"/>
</svg>
