<svg width="24" height="25" viewBox="0 0 24 25" fill="none" xmlns="http://www.w3.org/2000/svg">
<path d="M12.0168 7.58684C13.2744 7.58684 14.2939 6.56736 14.2939 5.30978C14.2939 4.05219 13.2744 3.03271 12.0168 3.03271C10.7592 3.03271 9.73975 4.05219 9.73975 5.30978C9.73975 6.56736 10.7592 7.58684 12.0168 7.58684Z" stroke="black" stroke-width="1.5" stroke-miterlimit="10" stroke-linejoin="round"/>
<path d="M10.7255 6.96776V8.38358L6.76747 4.88403C6.31709 4.48582 5.63463 4.50678 5.20953 4.93187V4.93187C4.75697 5.38443 4.76668 6.12111 5.231 6.56159L9.93946 11.0283L9.80396 13.1687L7.89327 16.1275L5.80637 15.8118C5.11606 15.7074 4.48141 16.2087 4.42308 16.9044V16.9044C4.36994 17.5382 4.81779 18.1045 5.4468 18.1989L7.03958 18.4378C8.14675 18.6039 9.25163 18.1237 9.88559 17.2009L11.3923 15.0078L12.4653 15.4599L12.9739 18.5115L10.9255 19.2685C10.2662 19.5122 9.96752 20.2769 10.2872 20.9029V20.9029C10.5655 21.4481 11.2162 21.6878 11.7817 21.4534L13.5692 20.7125C14.9009 20.1605 15.6517 18.7393 15.3572 17.3281L15.0426 15.8211L14.5844 11.0332L18.9093 6.50947C19.3339 6.06531 19.3292 5.36425 18.8986 4.92586V4.92586C18.4642 4.48355 17.7557 4.47041 17.3051 4.89631L13.6024 8.3968V6.90762" stroke="black" stroke-width="1.5" stroke-linejoin="round"/>
</svg>
