<svg width="25" height="25" viewBox="0 0 25 25" fill="none" xmlns="http://www.w3.org/2000/svg">
<path d="M15.8605 14.3078C15.9709 14.3078 16.0605 14.3974 16.0605 14.5078V16.0526C16.0605 16.106 16.035 16.1561 15.992 16.1876C15.7855 16.3388 15.5637 16.4495 15.3269 16.5185C15.0955 16.5864 14.8539 16.6201 14.6029 16.6201C14.2777 16.6201 13.9768 16.5694 13.7024 16.4656L13.7011 16.4651C13.4315 16.3605 13.1971 16.2161 13.0005 16.0307C12.8039 15.8435 12.6516 15.6218 12.5454 15.3683C12.4388 15.1121 12.3862 14.8357 12.3862 14.5418C12.3862 14.2443 12.4355 13.9675 12.5365 13.7131C12.637 13.4584 12.7811 13.2369 12.9693 13.0506C13.1595 12.8642 13.3875 12.7201 13.6499 12.6185C13.9162 12.5161 14.2101 12.4661 14.5286 12.4661C14.6933 12.4661 14.8499 12.4797 14.998 12.5075C15.1435 12.5347 15.2791 12.5724 15.4043 12.6209C15.5302 12.6691 15.6466 12.7271 15.7528 12.7954C15.8567 12.8622 15.9507 12.9353 16.0343 13.0152C16.0928 13.071 16.103 13.1606 16.0586 13.2281L15.8072 13.6102C15.7467 13.7023 15.66 13.768 15.5494 13.7921C15.4329 13.8178 15.3221 13.7843 15.2265 13.7254C15.1624 13.687 15.1026 13.6548 15.0471 13.6286L15.042 13.6262C14.9912 13.6 14.9393 13.5791 14.8862 13.5633C14.8325 13.5473 14.775 13.5354 14.7135 13.5279C14.6515 13.5204 14.5797 13.5163 14.4978 13.5163C14.3556 13.5163 14.2331 13.5417 14.1275 13.589L14.1258 13.5897C14.0181 13.6365 13.9272 13.7023 13.8515 13.7877C13.777 13.8735 13.7173 13.9793 13.6739 14.1079C13.6311 14.2332 13.6083 14.3776 13.6083 14.5418C13.6083 14.725 13.6336 14.8816 13.6807 15.0142C13.7286 15.1489 13.7942 15.2581 13.8756 15.3453C13.9594 15.4332 14.0586 15.5008 14.175 15.5484C14.2933 15.5944 14.4267 15.6186 14.5773 15.6186C14.6709 15.6186 14.7513 15.6093 14.8197 15.5926L14.8268 15.5909C14.8958 15.574 14.941 15.5099 14.941 15.4388C14.941 15.3475 14.8669 15.2734 14.7755 15.2734H14.7389C14.6544 15.2734 14.5659 15.2503 14.4958 15.1841C14.4297 15.1217 14.3972 15.0401 14.3972 14.9522V14.5078C14.3972 14.3974 14.4867 14.3078 14.5972 14.3078H15.8605Z" fill="black"/>
<path d="M10.4694 14.4926C10.4935 14.5212 10.5165 14.5518 10.5384 14.5842L10.5399 14.5865L11.6356 16.2699C11.7222 16.403 11.6268 16.579 11.468 16.579H10.7537C10.697 16.579 10.6433 16.5752 10.5941 16.5658L10.5926 16.5655C10.5455 16.5561 10.4996 16.541 10.4569 16.5183C10.4181 16.4976 10.3822 16.4717 10.3507 16.4402L10.3455 16.4351C10.3204 16.4076 10.2973 16.3775 10.2759 16.3455L10.2749 16.344L9.42793 15.0427C9.41403 15.0211 9.40118 15.0125 9.38948 15.0079L9.38265 15.0052C9.36679 14.9981 9.33008 14.9887 9.26084 14.9887C9.23707 14.9887 9.21779 15.008 9.21779 15.0317V16.379C9.21779 16.4895 9.12825 16.579 9.01779 16.579H8.21624C8.10578 16.579 8.01624 16.4895 8.01624 16.379V12.7072C8.01624 12.5967 8.10578 12.5072 8.21624 12.5072H9.01779C9.12825 12.5072 9.21779 12.5967 9.21779 12.7072V13.8945C9.21779 13.9621 9.28966 14.0267 9.32881 13.9716L10.1719 12.7481L10.1744 12.7448C10.2357 12.6645 10.3098 12.5979 10.4 12.5594C10.4851 12.5221 10.5811 12.5072 10.6819 12.5072H11.3714C11.5353 12.5072 11.6296 12.6933 11.5327 12.8255L10.4615 14.286C10.4157 14.3467 10.4203 14.4344 10.4694 14.4926Z" fill="black"/>
<path fill-rule="evenodd" clip-rule="evenodd" d="M6.72784 5.38474C6.56887 3.76743 7.83954 2.36572 9.46465 2.36572H14.6866C16.3118 2.36572 17.5824 3.76743 17.4235 5.38474L17.1143 8.53011C18.8295 9.96927 19.92 12.1288 19.92 14.543C19.92 18.8759 16.4075 22.3884 12.0746 22.3884C7.74165 22.3884 4.22913 18.8759 4.22913 14.543C4.22913 12.1278 5.32044 9.96757 7.03686 8.52842L6.72784 5.38474ZM15.9306 5.238L15.7001 7.58372C14.6157 7.01764 13.3825 6.69757 12.0746 6.69757C10.7674 6.69757 9.535 7.01723 8.45112 7.58263L8.22065 5.238C8.14839 4.50286 8.72597 3.86572 9.46465 3.86572L14.6866 3.86572C15.4253 3.86572 16.0029 4.50286 15.9306 5.238ZM12.0746 8.19757C8.57007 8.19757 5.72913 11.0385 5.72913 14.543C5.72913 18.0475 8.57007 20.8884 12.0746 20.8884C15.579 20.8884 18.42 18.0475 18.42 14.543C18.42 11.0385 15.579 8.19757 12.0746 8.19757Z" fill="black"/>
</svg>
