<svg width="25" height="25" viewBox="0 0 25 25" fill="none" xmlns="http://www.w3.org/2000/svg">
<path fill-rule="evenodd" clip-rule="evenodd" d="M10.9629 7.32537C12.1838 8.53134 12.1959 10.4987 10.99 11.7197C9.784 12.9406 7.81661 12.9527 6.59568 11.7468C5.37474 10.5408 5.36261 8.57341 6.56857 7.35247C7.77454 6.13154 9.74193 6.11941 10.9629 7.32537ZM9.92278 10.6656C10.5466 10.034 10.5403 9.01636 9.90876 8.39255C9.27722 7.76875 8.25956 7.77503 7.63576 8.40657C7.01195 9.03812 7.01823 10.0558 7.64978 10.6796C8.28132 11.3034 9.29898 11.2971 9.92278 10.6656Z" fill="black"/>
<path fill-rule="evenodd" clip-rule="evenodd" d="M14.1327 11.5249C14.5333 10.4465 14.6005 9.2675 14.3177 8.14322C13.9883 6.83328 13.2053 5.68248 12.1077 4.8952C11.0102 4.10791 9.66912 3.73509 8.32271 3.84295C6.9763 3.95081 5.71169 4.53237 4.75346 5.48435C3.79524 6.43632 3.20541 7.6971 3.08874 9.04277C2.97207 10.3884 3.3361 11.7319 4.11618 12.8346C4.89626 13.9373 6.04191 14.7278 7.34967 15.0658C8.48795 15.36 9.68492 15.2948 10.7784 14.8861L12.426 16.5135L12.5618 18.6632C12.5854 19.0369 12.8811 19.336 13.2546 19.3638L15.1881 19.508L15.5415 21.2526C15.6126 21.6037 15.9221 21.8555 16.2804 21.8537L20.2689 21.8335C20.6819 21.8314 21.0155 21.4958 21.0151 21.0827L21.0126 18.6331C21.0124 18.4329 20.9322 18.241 20.7897 18.1003L14.1327 11.5249ZM12.5988 11.3091C13.0048 10.4345 13.0986 9.44596 12.863 8.50904C12.6201 7.54313 12.0428 6.69457 11.2335 6.11405C10.4241 5.53353 9.43529 5.25863 8.44249 5.33816C7.44969 5.4177 6.51721 5.84652 5.81065 6.54847C5.10408 7.25043 4.66916 8.18008 4.58313 9.17234C4.4971 10.1646 4.76553 11.1552 5.34073 11.9683C5.91594 12.7814 6.76071 13.3643 7.725 13.6135C8.66209 13.8557 9.65313 13.7675 10.5316 13.3654C10.821 13.176 11.2129 13.207 11.469 13.4598L13.6835 15.6473C13.8146 15.7767 13.8934 15.9498 13.905 16.1336L14.0176 17.9165L15.8662 18.0543C16.2013 18.0793 16.4788 18.3241 16.5455 18.6534L16.8893 20.3506L19.5144 20.3373L19.513 18.9476L12.7134 12.2313C12.4614 11.9825 12.4227 11.5992 12.5988 11.3091Z" fill="black"/>
</svg>
