<svg width="25" height="25" viewBox="0 0 25 25" fill="none" xmlns="http://www.w3.org/2000/svg">
<path d="M12.7506 4.32031C10.385 4.32031 8.40521 6.15546 8.40521 8.49553C8.40521 8.90974 8.741 9.24553 9.15521 9.24553C9.56943 9.24553 9.90521 8.90974 9.90521 8.49553C9.90521 7.05158 11.1441 5.82031 12.7506 5.82031C13.1648 5.82031 13.5006 5.48453 13.5006 5.07031C13.5006 4.6561 13.1648 4.32031 12.7506 4.32031Z" fill="black"/>
<path fill-rule="evenodd" clip-rule="evenodd" d="M6.08783 8.53279C6.08783 4.97353 9.10472 2.15039 12.75 2.15039C16.3953 2.15039 19.4122 4.97353 19.4122 8.53279C19.4122 9.27611 19.1032 10.1868 18.8472 10.8317C18.7123 11.1715 18.578 11.4715 18.4774 11.6865C18.2833 12.1016 18.1103 12.5239 17.9372 12.9482C17.7056 13.5157 17.4061 14.2522 17.1338 14.9299C16.8796 15.5627 16.4123 16.1086 15.8683 16.5085C15.8686 16.515 15.8688 16.5216 15.8689 16.5283C15.8689 16.5322 15.869 16.5361 15.869 16.54V18.3049C15.869 19.4361 15.0342 20.3724 13.947 20.5312C13.7553 21.021 13.2786 21.3679 12.7209 21.3679C12.1594 21.3679 11.68 21.0163 11.4909 20.5212C10.4341 20.3366 9.6308 19.4146 9.6308 18.3049V16.54C9.6308 16.522 9.63144 16.5041 9.63269 16.4864C9.09778 16.0872 8.6395 15.5457 8.38891 14.9202C8.12577 14.2634 7.83789 13.5528 7.61563 13.006C7.44796 12.5935 7.28119 12.1841 7.08624 11.7836C6.97885 11.5631 6.83535 11.2551 6.69127 10.9057C6.41774 10.2423 6.08783 9.30453 6.08783 8.53279ZM9.78133 14.3624C9.92215 14.7139 10.2174 15.0705 10.6089 15.3411C11.0006 15.6119 11.431 15.7568 11.8003 15.7571C12.2302 15.7575 12.6004 15.7578 12.75 15.7578C12.9028 15.7578 13.2711 15.7613 13.6931 15.7658C14.0661 15.7698 14.5029 15.6269 14.9013 15.3555C15.2994 15.0843 15.5996 14.725 15.742 14.3706C16.2932 12.9988 16.908 11.6513 17.453 10.2783C17.7091 9.63311 17.9122 8.96085 17.9122 8.53279C17.9122 5.86965 15.6362 3.65039 12.75 3.65039C9.8638 3.65039 7.58783 5.86965 7.58783 8.53279C7.58783 8.97848 7.80473 9.67112 8.078 10.3338C8.63396 11.6821 9.23855 13.0076 9.78133 14.3624ZM11.1308 18.3049V17.29H14.369V18.3049C14.369 18.7191 14.0332 19.0549 13.619 19.0549H11.8808C11.4666 19.0549 11.1308 18.7191 11.1308 18.3049Z" fill="black"/>
</svg>
