<svg width="25" height="25" viewBox="0 0 25 25" fill="none" xmlns="http://www.w3.org/2000/svg">
<path fill-rule="evenodd" clip-rule="evenodd" d="M8.9758 8.8022C8.77035 8.8022 8.60379 8.96875 8.60379 9.17421C8.60379 9.37966 8.77035 9.54621 8.9758 9.54621C9.18125 9.54621 9.34781 9.37966 9.34781 9.17421C9.34781 8.96875 9.18125 8.8022 8.9758 8.8022ZM7.10379 9.17421C7.10379 8.14033 7.94192 7.3022 8.9758 7.3022C10.0097 7.3022 10.8478 8.14033 10.8478 9.17421C10.8478 10.2081 10.0097 11.0462 8.9758 11.0462C7.94192 11.0462 7.10379 10.2081 7.10379 9.17421Z" fill="black"/>
<path fill-rule="evenodd" clip-rule="evenodd" d="M5.06353 19.6765C4.85808 19.6765 4.69153 19.8431 4.69153 20.0485C4.69153 20.254 4.85808 20.4205 5.06353 20.4205C5.26899 20.4205 5.43554 20.254 5.43554 20.0485C5.43554 19.8431 5.26899 19.6765 5.06353 19.6765ZM3.19153 20.0485C3.19153 19.0147 4.02965 18.1765 5.06353 18.1765C6.09742 18.1765 6.93554 19.0147 6.93554 20.0485C6.93554 21.0824 6.09742 21.9205 5.06353 21.9205C4.02965 21.9205 3.19153 21.0824 3.19153 20.0485Z" fill="black"/>
<path fill-rule="evenodd" clip-rule="evenodd" d="M19.2748 5.43652C19.0694 5.43652 18.9028 5.60308 18.9028 5.80853C18.9028 6.01398 19.0694 6.18054 19.2748 6.18054C19.4803 6.18054 19.6468 6.01398 19.6468 5.80853C19.6468 5.60308 19.4803 5.43652 19.2748 5.43652ZM17.4028 5.80853C17.4028 4.77465 18.2409 3.93652 19.2748 3.93652C20.3087 3.93652 21.1468 4.77465 21.1468 5.80853C21.1468 6.84241 20.3087 7.68054 19.2748 7.68054C18.2409 7.68054 17.4028 6.84241 17.4028 5.80853Z" fill="black"/>
<path fill-rule="evenodd" clip-rule="evenodd" d="M15.79 16.1891C15.5845 16.1891 15.418 16.3556 15.418 16.5611C15.418 16.7665 15.5845 16.9331 15.79 16.9331C15.9954 16.9331 16.162 16.7665 16.162 16.5611C16.162 16.3556 15.9954 16.1891 15.79 16.1891ZM13.918 16.5611C13.918 15.5272 14.7561 14.6891 15.79 14.6891C16.8239 14.6891 17.662 15.5272 17.662 16.5611C17.662 17.595 16.8239 18.4331 15.79 18.4331C14.7561 18.4331 13.918 17.595 13.918 16.5611Z" fill="black"/>
<path fill-rule="evenodd" clip-rule="evenodd" d="M8.61246 9.58587C9.00438 9.71992 9.21344 10.1463 9.07939 10.5382L6.12755 19.169C5.99351 19.5609 5.56713 19.7699 5.1752 19.6359C4.78328 19.5018 4.57422 19.0755 4.70827 18.6835L7.66011 10.0528C7.79415 9.66088 8.22054 9.45183 8.61246 9.58587Z" fill="black"/>
<path fill-rule="evenodd" clip-rule="evenodd" d="M9.36137 9.45408C9.6713 9.17928 10.1453 9.20776 10.4201 9.51769L15.2292 14.9415C15.504 15.2514 15.4755 15.7255 15.1656 16.0003C14.8557 16.2751 14.3816 16.2466 14.1068 15.9367L9.29776 10.5128C9.02296 10.2029 9.05144 9.72889 9.36137 9.45408Z" fill="black"/>
<path fill-rule="evenodd" clip-rule="evenodd" d="M19.2001 6.4002C19.5969 6.51925 19.822 6.93738 19.7029 7.33412L17.2615 15.4703C17.1425 15.8671 16.7243 16.0922 16.3276 15.9731C15.9309 15.8541 15.7058 15.436 15.8248 15.0392L18.2662 6.903C18.3853 6.50627 18.8034 6.28115 19.2001 6.4002Z" fill="black"/>
</svg>
