<svg width="25" height="24" viewBox="0 0 25 24" fill="none" xmlns="http://www.w3.org/2000/svg">
<path d="M3.82373 11.5C3.82373 9.42893 5.50266 7.75 7.57373 7.75H10.0737C10.4879 7.75 10.8237 7.41421 10.8237 7C10.8237 6.58579 10.4879 6.25 10.0737 6.25H7.57373C4.67424 6.25 2.32373 8.6005 2.32373 11.5V12.5C2.32373 15.3995 4.67424 17.75 7.57373 17.75H9.82373C10.2379 17.75 10.5737 17.4142 10.5737 17C10.5737 16.5858 10.2379 16.25 9.82373 16.25H7.57373C5.50266 16.25 3.82373 14.5711 3.82373 12.5V11.5Z" fill="black"/>
<path d="M14.3237 6.25C13.9095 6.25 13.5737 6.58579 13.5737 7C13.5737 7.41421 13.9095 7.75 14.3237 7.75H16.5737C18.6448 7.75 20.3237 9.42893 20.3237 11.5V12.5C20.3237 14.5711 18.6448 16.25 16.5737 16.25H14.3237C13.9095 16.25 13.5737 16.5858 13.5737 17C13.5737 17.4142 13.9095 17.75 14.3237 17.75H16.5737C19.4732 17.75 21.8237 15.3995 21.8237 12.5V11.5C21.8237 8.6005 19.4732 6.25 16.5737 6.25H14.3237Z" fill="black"/>
<path d="M8.07373 11.25C7.65952 11.25 7.32373 11.5858 7.32373 12C7.32373 12.4142 7.65952 12.75 8.07373 12.75L16.0737 12.75C16.4879 12.75 16.8237 12.4142 16.8237 12C16.8237 11.5858 16.4879 11.25 16.0737 11.25L8.07373 11.25Z" fill="black"/>
</svg>
