<svg width="25" height="24" viewBox="0 0 25 24" fill="none" xmlns="http://www.w3.org/2000/svg">
<path d="M3.94873 11.5C3.94873 9.49797 5.5717 7.875 7.57373 7.875H10.0737C10.557 7.875 10.9487 7.48325 10.9487 7C10.9487 6.51675 10.557 6.125 10.0737 6.125H7.57373C4.6052 6.125 2.19873 8.53147 2.19873 11.5V12.5C2.19873 15.4685 4.6052 17.875 7.57373 17.875H9.82373C10.307 17.875 10.6987 17.4832 10.6987 17C10.6987 16.5168 10.307 16.125 9.82373 16.125H7.57373C5.5717 16.125 3.94873 14.502 3.94873 12.5V11.5Z" fill="black"/>
<path d="M14.3237 6.125C13.8405 6.125 13.4487 6.51675 13.4487 7C13.4487 7.48325 13.8405 7.875 14.3237 7.875H16.5737C18.5758 7.875 20.1987 9.49797 20.1987 11.5V12.5C20.1987 14.502 18.5758 16.125 16.5737 16.125H14.3237C13.8405 16.125 13.4487 16.5168 13.4487 17C13.4487 17.4832 13.8405 17.875 14.3237 17.875H16.5737C19.5423 17.875 21.9487 15.4685 21.9487 12.5V11.5C21.9487 8.53147 19.5423 6.125 16.5737 6.125H14.3237Z" fill="black"/>
<path d="M8.07373 11.125C7.59048 11.125 7.19873 11.5168 7.19873 12C7.19873 12.4832 7.59048 12.875 8.07373 12.875L16.0737 12.875C16.557 12.875 16.9487 12.4833 16.9487 12C16.9487 11.5168 16.557 11.125 16.0737 11.125L8.07373 11.125Z" fill="black"/>
</svg>
