<svg width="25" height="25" viewBox="0 0 25 25" fill="none" xmlns="http://www.w3.org/2000/svg">
<path fill-rule="evenodd" clip-rule="evenodd" d="M4.60596 7.37966C4.60596 5.51313 6.11908 4 7.98562 4C9.85216 4 11.3653 5.51313 11.3653 7.37966C11.3653 7.92791 11.2347 8.44566 11.003 8.90354C11.2827 8.83293 11.5756 8.79541 11.8772 8.79541C12.4107 8.79541 12.9167 8.91275 13.371 9.12303C13.0639 8.61402 12.8872 8.01748 12.8872 7.37966C12.8872 5.51313 14.4003 4 16.2669 4C18.1334 4 19.6465 5.51313 19.6465 7.37966C19.6465 8.43638 19.1616 9.37983 18.402 9.99957C18.8837 10.2656 19.3197 10.6278 19.6917 11.08C20.5507 12.1239 21.0342 13.6005 21.0342 15.3921V17.062C21.0342 17.4762 20.6984 17.812 20.2842 17.812H17.1692C17.3482 18.3342 17.4477 18.9137 17.4477 19.5482V20.9612C17.4477 21.3754 17.1119 21.7112 16.6977 21.7112H7.55322C7.13901 21.7112 6.80322 21.3754 6.80322 20.9612V19.5482C6.80322 18.922 6.89345 18.3411 7.06312 17.812H3.73535C3.32114 17.812 2.98535 17.4762 2.98535 17.062V15.3921C2.98535 13.6005 3.46886 12.1239 4.32778 11.08C4.73645 10.5834 5.22219 10.1953 5.76089 9.92387C5.05301 9.30438 4.60596 8.39423 4.60596 7.37966ZM7.98562 5.5C6.94751 5.5 6.10596 6.34155 6.10596 7.37966C6.10596 8.41777 6.94751 9.25933 7.98562 9.25933C9.02373 9.25933 9.86528 8.41777 9.86528 7.37966C9.86528 6.34155 9.02373 5.5 7.98562 5.5ZM8.5563 11.0704C8.54305 11.0588 8.53184 11.0487 8.52355 11.0413L8.51312 11.032C8.46851 11.0211 8.2807 10.9817 7.72323 10.9624C6.848 10.9658 6.06493 11.3296 5.48607 12.0331C4.89728 12.7487 4.48535 13.8619 4.48535 15.3921V16.312H7.85799C8.01936 16.1083 8.1974 15.9191 8.39079 15.7451C8.72306 15.4462 9.09425 15.1979 9.49442 15C8.7717 14.3485 8.31738 13.4049 8.31738 12.3552C8.31738 11.9022 8.402 11.469 8.5563 11.0704ZM15.4371 12.3552C15.4371 11.9459 15.368 11.5527 15.2408 11.1867L15.2456 11.1829C15.3268 11.1197 15.577 10.9881 16.2965 10.9624C17.1716 10.9658 17.9546 11.3297 18.5335 12.0331C19.1223 12.7487 19.5342 13.8619 19.5342 15.3921V16.312H16.3267C15.8007 15.6799 15.1266 15.2001 14.3856 14.8812C15.035 14.2363 15.4371 13.3427 15.4371 12.3552ZM9.81738 12.3552C9.81738 11.2176 10.7396 10.2954 11.8772 10.2954C13.0148 10.2954 13.9371 11.2176 13.9371 12.3552C13.9371 13.4929 13.0148 14.4151 11.8772 14.4151C10.7396 14.4151 9.81738 13.4929 9.81738 12.3552ZM8.30322 19.5482C8.30322 18.3375 8.73754 17.4508 9.39401 16.8603C10.0609 16.2603 11.0149 15.9153 12.1255 15.9153C14.1003 15.9153 15.9477 17.2476 15.9477 19.5482V20.2112H8.30322V19.5482ZM14.3872 7.37966C14.3872 6.34155 15.2288 5.5 16.2669 5.5C17.305 5.5 18.1465 6.34155 18.1465 7.37966C18.1465 8.41777 17.305 9.25933 16.2669 9.25933C15.2288 9.25933 14.3872 8.41777 14.3872 7.37966Z" fill="black"/>
</svg>
