<svg width="24" height="24" viewBox="0 0 24 24" fill="none" xmlns="http://www.w3.org/2000/svg">
<path d="M14.9485 9.83852C15.258 10.1139 15.2856 10.588 15.0102 10.8974L13.1414 12.9974C13.1482 13.0479 13.1517 13.0993 13.1517 13.1516C13.1517 13.7877 12.6361 14.3033 12 14.3033C11.364 14.3033 10.8484 13.7877 10.8484 13.1516C10.8484 12.5156 11.364 12 12 12C12.007 12 12.014 12.0001 12.0209 12.0002L13.8897 9.90021C14.165 9.59078 14.6391 9.56316 14.9485 9.83852Z" fill="black"/>
<path fill-rule="evenodd" clip-rule="evenodd" d="M5.49194 13.1517C5.49194 9.55736 8.40575 6.64355 12.0001 6.64355C15.5945 6.64355 18.5083 9.55736 18.5083 13.1517C18.5083 16.7461 15.5945 19.6599 12.0001 19.6599C8.40575 19.6599 5.49194 16.7461 5.49194 13.1517ZM12.0001 8.14355C9.23417 8.14355 6.99194 10.3858 6.99194 13.1517C6.99194 15.9177 9.23417 18.1599 12.0001 18.1599C14.766 18.1599 17.0083 15.9177 17.0083 13.1517C17.0083 10.3858 14.766 8.14355 12.0001 8.14355Z" fill="black"/>
<path fill-rule="evenodd" clip-rule="evenodd" d="M10.1909 4.52597C10.1308 4.34096 10.0984 4.14352 10.0984 3.9385C10.0984 2.88826 10.9498 2.03687 12 2.03687C13.0503 2.03687 13.9017 2.88826 13.9017 3.9385C13.9017 4.14354 13.8692 4.34099 13.8092 4.52602C17.8077 5.36048 20.8113 8.90523 20.8113 13.1515C20.8113 18.0179 16.8663 21.9629 11.9999 21.9629C7.13349 21.9629 3.18848 18.0179 3.18848 13.1515C3.18848 8.90515 6.19222 5.36036 10.1909 4.52597ZM11.5984 3.9385C11.5984 3.71668 11.7782 3.53687 12 3.53687C12.2218 3.53687 12.4017 3.71668 12.4017 3.9385C12.4017 4.15838 12.225 4.33699 12.0058 4.34009H11.9942C11.7751 4.33698 11.5984 4.15837 11.5984 3.9385ZM11.9885 5.8401C7.95575 5.84626 4.68848 9.11733 4.68848 13.1515C4.68848 17.1895 7.96192 20.4629 11.9999 20.4629C16.0379 20.4629 19.3113 17.1895 19.3113 13.1515C19.3113 9.11739 16.0442 5.84636 12.0115 5.8401L12 5.84013L11.9885 5.8401Z" fill="black"/>
</svg>
