<svg width="25" height="24" viewBox="0 0 25 24" fill="none" xmlns="http://www.w3.org/2000/svg">
<path fill-rule="evenodd" clip-rule="evenodd" d="M7.32373 7C7.32373 4.37665 9.45038 2.25 12.0737 2.25C14.6971 2.25 16.8237 4.37665 16.8237 7V10.25H18.0737C19.0402 10.25 19.8237 11.0335 19.8237 12V20C19.8237 20.9665 19.0402 21.75 18.0737 21.75H6.07373C5.10723 21.75 4.32373 20.9665 4.32373 20V12C4.32373 11.0335 5.10723 10.25 6.07373 10.25H7.32373V7ZM15.3237 7V10.25H8.82373V7C8.82373 5.20507 10.2788 3.75 12.0737 3.75C13.8687 3.75 15.3237 5.20507 15.3237 7ZM6.07373 11.75C5.93566 11.75 5.82373 11.8619 5.82373 12V20C5.82373 20.1381 5.93566 20.25 6.07373 20.25H18.0737C18.2118 20.25 18.3237 20.1381 18.3237 20V12C18.3237 11.8619 18.2118 11.75 18.0737 11.75H6.07373ZM12.0737 17.25C12.9712 17.25 13.6987 16.5225 13.6987 15.625C13.6987 14.7275 12.9712 14 12.0737 14C11.1763 14 10.4487 14.7275 10.4487 15.625C10.4487 16.5225 11.1763 17.25 12.0737 17.25Z" fill="black"/>
</svg>
