<svg width="25" height="24" viewBox="0 0 25 24" fill="none" xmlns="http://www.w3.org/2000/svg">
<path fill-rule="evenodd" clip-rule="evenodd" d="M12.0737 2.125C9.38134 2.125 7.19873 4.30761 7.19873 7V10.25H6.07373C5.10723 10.25 4.32373 11.0335 4.32373 12V20C4.32373 20.9665 5.10723 21.75 6.07373 21.75H18.0737C19.0402 21.75 19.8237 20.9665 19.8237 20V12C19.8237 11.0335 19.0402 10.25 18.0737 10.25H16.9487V7C16.9487 4.30761 14.7661 2.125 12.0737 2.125ZM15.1987 10.25V7C15.1987 5.27411 13.7996 3.875 12.0737 3.875C10.3478 3.875 8.94873 5.27411 8.94873 7V10.25H15.1987ZM13.6987 16.0019C13.6987 16.8994 12.9712 17.6269 12.0737 17.6269C11.1763 17.6269 10.4487 16.8994 10.4487 16.0019C10.4487 15.1044 11.1763 14.3769 12.0737 14.3769C12.9712 14.3769 13.6987 15.1044 13.6987 16.0019Z" fill="black"/>
</svg>
