<svg width="25" height="25" viewBox="0 0 25 25" fill="none" xmlns="http://www.w3.org/2000/svg">
<path fill-rule="evenodd" clip-rule="evenodd" d="M7.42053 7.93848C7.42053 5.31512 9.54718 3.18848 12.1705 3.18848C14.7939 3.18848 16.9205 5.31512 16.9205 7.93848V11.1885H18.1705C19.137 11.1885 19.9205 11.972 19.9205 12.9385V20.9385C19.9205 21.905 19.137 22.6885 18.1705 22.6885H6.17053C5.20403 22.6885 4.42053 21.905 4.42053 20.9385V12.9385C4.42053 11.972 5.20403 11.1885 6.17053 11.1885H7.42053V7.93848ZM15.4205 7.93848V11.1885H8.92053V7.93848C8.92053 6.14355 10.3756 4.68848 12.1705 4.68848C13.9655 4.68848 15.4205 6.14355 15.4205 7.93848ZM6.17053 12.6885C6.03246 12.6885 5.92053 12.8004 5.92053 12.9385V20.9385C5.92053 21.0765 6.03246 21.1885 6.17053 21.1885H18.1705C18.3086 21.1885 18.4205 21.0765 18.4205 20.9385V12.9385C18.4205 12.8004 18.3086 12.6885 18.1705 12.6885H6.17053ZM12.1705 18.1885C13.068 18.1885 13.7955 17.4609 13.7955 16.5635C13.7955 15.666 13.068 14.9385 12.1705 14.9385C11.2731 14.9385 10.5455 15.666 10.5455 16.5635C10.5455 17.4609 11.2731 18.1885 12.1705 18.1885Z" fill="black"/>
</svg>
