<svg width="25" height="24" viewBox="0 0 25 24" fill="none" xmlns="http://www.w3.org/2000/svg">
<path d="M3.79932 5C3.79932 3.96447 4.63878 3.125 5.67432 3.125H13.6743C14.7099 3.125 15.5493 3.96447 15.5493 5V7.6C15.5493 8.08325 15.1576 8.475 14.6743 8.475C14.1911 8.475 13.7993 8.08325 13.7993 7.6V5C13.7993 4.93096 13.7434 4.875 13.6743 4.875H5.67432C5.60528 4.875 5.54932 4.93096 5.54932 5V19C5.54932 19.069 5.60528 19.125 5.67432 19.125H13.6743C13.7434 19.125 13.7993 19.069 13.7993 19V16.8C13.7993 16.3168 14.1911 15.925 14.6743 15.925C15.1576 15.925 15.5493 16.3168 15.5493 16.8V19C15.5493 20.0355 14.7098 20.875 13.6743 20.875H5.67432C4.63878 20.875 3.79932 20.0355 3.79932 19V5Z" fill="black"/>
<path d="M17.0557 15.6188C16.7139 15.2772 16.7138 14.7232 17.0555 14.3814L18.5613 12.875H8.67432C8.19107 12.875 7.79932 12.4832 7.79932 12C7.79932 11.5168 8.19107 11.125 8.67432 11.125H18.5625L17.0557 9.61884C16.7139 9.2772 16.7138 8.72318 17.0555 8.3814C17.3971 8.03963 17.9511 8.03952 18.2929 8.38116L21.2858 11.3729C21.6315 11.7185 21.6316 12.2788 21.2861 12.6245L18.2932 15.6186C17.9515 15.9604 17.3975 15.9605 17.0557 15.6188Z" fill="black"/>
</svg>
