<svg width="25" height="25" viewBox="0 0 25 25" fill="none" xmlns="http://www.w3.org/2000/svg">
<path d="M6.8302 15.4409C6.41599 15.4409 6.0802 15.7767 6.0802 16.1909C6.0802 16.6051 6.41599 16.9409 6.8302 16.9409H9.59601C10.0102 16.9409 10.346 16.6051 10.346 16.1909C10.346 15.7767 10.0102 15.4409 9.59601 15.4409H6.8302Z" fill="black"/>
<path fill-rule="evenodd" clip-rule="evenodd" d="M15.1276 3.45557C15.5418 3.45557 15.8776 3.79135 15.8776 4.20557V4.37744H18.43C18.7533 4.37744 19.0402 4.58463 19.1419 4.89154C19.2436 5.19844 19.1372 5.53597 18.8778 5.72904L18.4475 6.04938L18.8778 6.36972C19.1372 6.56279 19.2436 6.90032 19.1419 7.20722C19.0402 7.51413 18.7533 7.72132 18.43 7.72132H15.8776V8.50947L17.0563 8.50707C19.661 8.50178 21.7841 10.5951 21.8156 13.1996L21.8729 17.9355C21.8847 18.9102 21.0978 19.7067 20.1231 19.7067H15.8776V20.8004C15.8776 21.2146 15.5418 21.5504 15.1276 21.5504C14.7134 21.5504 14.3776 21.2146 14.3776 20.8004V19.7067H14.0333V20.8004C14.0333 21.2146 13.6975 21.5504 13.2833 21.5504C12.8691 21.5504 12.5333 21.2146 12.5333 20.8004V19.7067H5.5802C4.6137 19.7067 3.8302 18.9232 3.8302 17.9567V12.2863C3.8302 10.2523 5.44531 8.59549 7.46301 8.52842V7.93652C7.46301 7.52231 7.7988 7.18652 8.21301 7.18652C8.62723 7.18652 8.96301 7.52231 8.96301 7.93652V8.52352L14.3776 8.51252V4.20557C14.3776 3.79135 14.7134 3.45557 15.1276 3.45557ZM14.3776 12.5029V10.0125L11.8444 10.0177C12.3991 10.6919 12.6044 11.4594 12.6044 12.0421V15.4409H18.98C19.3942 15.4409 19.73 15.7767 19.73 16.1909C19.73 16.6051 19.3942 16.9409 18.98 16.9409H12.6044V18.2067H20.1231C20.2623 18.2067 20.3747 18.0929 20.373 17.9536L20.3157 13.2177C20.2941 11.4357 18.8415 10.0034 17.0593 10.0071L15.8776 10.0095V12.5029C15.8776 12.9171 15.5418 13.2529 15.1276 13.2529C14.7134 13.2529 14.3776 12.9171 14.3776 12.5029ZM10.4932 10.767C10.1194 10.4224 9.48063 10.0877 8.40501 10.0247L7.59173 10.0263L7.59021 9.27631V10.0263C6.34204 10.0263 5.3302 11.0382 5.3302 12.2863V17.9567C5.3302 18.0947 5.44213 18.2067 5.5802 18.2067H11.1044V12.0421C11.1044 11.731 10.9639 11.2009 10.4932 10.767Z" fill="black"/>
</svg>
