<svg width="25" height="24" viewBox="0 0 25 24" fill="none" xmlns="http://www.w3.org/2000/svg">
<path fill-rule="evenodd" clip-rule="evenodd" d="M2.32373 6C2.32373 5.79369 2.35943 5.59572 2.42499 5.41192L8.7975 11.7844L2.44403 17.6389C2.36637 17.441 2.32373 17.2255 2.32373 17V6ZM3.54131 18.6675C3.7092 18.7211 3.88809 18.75 4.07373 18.75H20.0737C20.2593 18.75 20.438 18.7211 20.6058 18.6676L14.2869 12.8475L13.3112 13.8232C12.6277 14.5066 11.5197 14.5066 10.8363 13.8232L9.85905 12.846L3.54131 18.6675ZM15.3484 11.786L21.7033 17.6392C21.781 17.4412 21.8237 17.2256 21.8237 17V6C21.8237 5.79369 21.788 5.59572 21.7225 5.41192L15.3484 11.786ZM20.0737 4.25C20.28 4.25 20.478 4.2857 20.6618 4.35126L12.2505 12.7626C12.1529 12.8602 11.9946 12.8602 11.897 12.7626L3.48565 4.35126C3.66945 4.2857 3.86742 4.25 4.07373 4.25H20.0737Z" fill="black"/>
</svg>
