<svg width="25" height="24" viewBox="0 0 25 24" fill="none" xmlns="http://www.w3.org/2000/svg">
<path fill-rule="evenodd" clip-rule="evenodd" d="M2.32373 6C2.32373 5.0335 3.10723 4.25 4.07373 4.25H20.0737C21.0402 4.25 21.8237 5.0335 21.8237 6V17C21.8237 17.9665 21.0402 18.75 20.0737 18.75H4.07373C3.10723 18.75 2.32373 17.9665 2.32373 17V6ZM3.82373 16.2178V6.81066L8.79352 11.7804L3.82373 16.2178ZM4.91981 17.25H19.2276L14.2916 12.8428L13.3112 13.8232C12.6278 14.5066 11.5197 14.5066 10.8363 13.8232L9.85587 12.8428L4.91981 17.25ZM15.3539 11.7805L20.3237 16.2178V6.81066L15.3539 11.7805ZM4.88439 5.75H19.2631L12.2505 12.7626C12.1529 12.8602 11.9946 12.8602 11.897 12.7626L4.88439 5.75Z" fill="black"/>
</svg>
