<svg width="25" height="25" viewBox="0 0 25 25" fill="none" xmlns="http://www.w3.org/2000/svg">
<path d="M14.0142 7.53325C15.1178 7.53325 16.0125 6.63857 16.0125 5.53493C16.0125 4.4313 15.1178 3.53662 14.0142 3.53662C12.9105 3.53662 12.0159 4.4313 12.0159 5.53493C12.0159 6.63857 12.9105 7.53325 14.0142 7.53325Z" fill="black"/>
<path d="M9.66256 13.5C10.0875 13.5 10.4321 13.1553 10.4321 12.7302C10.4321 12.305 10.0875 11.9603 9.66256 11.9603C9.23758 11.9603 8.89307 12.305 8.89307 12.7302C8.89307 13.1553 9.23758 13.5 9.66256 13.5Z" fill="black"/>
<path fill-rule="evenodd" clip-rule="evenodd" d="M11.1701 8.51189C10.7096 7.97793 10.137 7.60197 9.58774 7.39484C9.25005 7.2675 8.89731 7.19494 8.56489 7.20386C8.24025 7.21257 7.86741 7.30287 7.58477 7.5773C7.26882 7.88407 7.24023 8.2889 7.26594 8.56295C7.29255 8.84666 7.38781 9.13232 7.48588 9.3706C7.56048 9.55186 7.6484 9.73212 7.73317 9.89381C7.07917 10.3433 6.62088 10.9896 6.30879 11.6123C6.0237 12.1812 5.84026 12.7697 5.7349 13.2623H5.06816C4.71393 13.2623 4.42677 13.5495 4.42677 13.9037C4.42677 14.6867 4.42299 15.3632 4.41921 15.8438C4.41732 16.084 4.41543 16.2753 4.41402 16.4064L4.41168 16.6071C4.40937 16.7812 4.47791 16.9495 4.60159 17.072C4.72527 17.1945 4.89344 17.2615 5.06749 17.2576L6.00701 17.2364C6.43588 18.0611 7.09736 18.6407 7.75151 19.0319C8.29782 19.3585 8.8596 19.5667 9.32529 19.6832L9.48901 20.8522C9.53337 21.169 9.80434 21.4047 10.1242 21.4047H11.8238C12.1452 21.4047 12.417 21.1668 12.4596 20.8483L12.5653 20.0572L14.7183 20.0673L14.8895 20.8935C14.9512 21.1912 15.2135 21.4047 15.5176 21.4047H17.2325C17.5725 21.4047 17.8534 21.1394 17.8728 20.7999L17.8736 20.786L17.8761 20.7445C17.8783 20.7085 17.8816 20.6565 17.8857 20.5935C17.8941 20.4671 17.906 20.2973 17.9204 20.122C17.9317 19.9848 17.9443 19.8477 17.9575 19.727C19.367 19.232 21.3253 17.6404 21.3253 14.298C21.3253 11.0484 18.6985 9.00761 15.7915 8.3783C14.2988 8.05516 12.675 8.08293 11.1701 8.51189ZM16.6335 20.1219L16.642 20.0167C16.6571 19.8335 16.6753 19.6374 16.6959 19.4706C16.7061 19.3877 16.7177 19.3056 16.7308 19.2329C16.7411 19.1758 16.7609 19.0727 16.7996 18.9783C16.8802 18.7819 17.0527 18.6382 17.2603 18.5943C18.1435 18.4074 20.0425 17.3167 20.0425 14.298C20.0425 11.8898 18.1053 10.1917 15.5201 9.63205C14.0913 9.32274 12.5309 9.38649 11.1419 9.86492C10.8657 9.96007 10.5601 9.85654 10.3986 9.61311C10.0637 9.10841 9.57674 8.76165 9.13512 8.59512C8.91439 8.51189 8.72886 8.48271 8.59929 8.48618C8.58028 8.48669 8.56364 8.48783 8.54918 8.48933C8.56511 8.58618 8.60492 8.71909 8.67212 8.88237C8.80043 9.19412 8.97475 9.49488 9.09623 9.70446C9.1233 9.75117 9.148 9.79377 9.16871 9.83051C9.25932 9.99125 9.27632 10.1832 9.21536 10.3574C9.1544 10.5315 9.02138 10.671 8.85031 10.7401C8.24908 10.9831 7.78809 11.5237 7.45562 12.1871C7.1255 12.8458 6.96255 13.5478 6.91572 13.9738C6.87998 14.299 6.60528 14.5451 6.27817 14.5451H5.70873C5.7074 15.0604 5.70468 15.5076 5.70196 15.8539L5.70109 15.9602L6.402 15.9443C6.67294 15.9382 6.91849 16.103 7.01544 16.3561C7.28765 17.0667 7.81839 17.5772 8.40982 17.9309C9.00588 18.2873 9.62312 18.4589 9.98226 18.5069C10.2676 18.5451 10.4925 18.7686 10.5324 19.0537L10.682 20.1219H11.2625L11.3686 19.3282C11.4113 19.0085 11.6848 18.7703 12.0073 18.7718L15.2438 18.787C15.5468 18.7884 15.8074 19.0015 15.8689 19.2982L16.0396 20.1219H16.6335Z" fill="black"/>
<path d="M14.0142 7.53325C15.1178 7.53325 16.0125 6.63857 16.0125 5.53493C16.0125 4.4313 15.1178 3.53662 14.0142 3.53662C12.9105 3.53662 12.0159 4.4313 12.0159 5.53493C12.0159 6.63857 12.9105 7.53325 14.0142 7.53325Z" stroke="black" stroke-width="0.3"/>
<path d="M9.66256 13.5C10.0875 13.5 10.4321 13.1553 10.4321 12.7302C10.4321 12.305 10.0875 11.9603 9.66256 11.9603C9.23758 11.9603 8.89307 12.305 8.89307 12.7302C8.89307 13.1553 9.23758 13.5 9.66256 13.5Z" stroke="black" stroke-width="0.3"/>
<path fill-rule="evenodd" clip-rule="evenodd" d="M11.1701 8.51189C10.7096 7.97793 10.137 7.60197 9.58774 7.39484C9.25005 7.2675 8.89731 7.19494 8.56489 7.20386C8.24025 7.21257 7.86741 7.30287 7.58477 7.5773C7.26882 7.88407 7.24023 8.2889 7.26594 8.56295C7.29255 8.84666 7.38781 9.13232 7.48588 9.3706C7.56048 9.55186 7.6484 9.73212 7.73317 9.89381C7.07917 10.3433 6.62088 10.9896 6.30879 11.6123C6.0237 12.1812 5.84026 12.7697 5.7349 13.2623H5.06816C4.71393 13.2623 4.42677 13.5495 4.42677 13.9037C4.42677 14.6867 4.42299 15.3632 4.41921 15.8438C4.41732 16.084 4.41543 16.2753 4.41402 16.4064L4.41168 16.6071C4.40937 16.7812 4.47791 16.9495 4.60159 17.072C4.72527 17.1945 4.89344 17.2615 5.06749 17.2576L6.00701 17.2364C6.43588 18.0611 7.09736 18.6407 7.75151 19.0319C8.29782 19.3585 8.8596 19.5667 9.32529 19.6832L9.48901 20.8522C9.53337 21.169 9.80434 21.4047 10.1242 21.4047H11.8238C12.1452 21.4047 12.417 21.1668 12.4596 20.8483L12.5653 20.0572L14.7183 20.0673L14.8895 20.8935C14.9512 21.1912 15.2135 21.4047 15.5176 21.4047H17.2325C17.5725 21.4047 17.8534 21.1394 17.8728 20.7999L17.8736 20.786L17.8761 20.7445C17.8783 20.7085 17.8816 20.6565 17.8857 20.5935C17.8941 20.4671 17.906 20.2973 17.9204 20.122C17.9317 19.9848 17.9443 19.8477 17.9575 19.727C19.367 19.232 21.3253 17.6404 21.3253 14.298C21.3253 11.0484 18.6985 9.00761 15.7915 8.3783C14.2988 8.05516 12.675 8.08293 11.1701 8.51189ZM16.6335 20.1219L16.642 20.0167C16.6571 19.8335 16.6753 19.6374 16.6959 19.4706C16.7061 19.3877 16.7177 19.3056 16.7308 19.2329C16.7411 19.1758 16.7609 19.0727 16.7996 18.9783C16.8802 18.7819 17.0527 18.6382 17.2603 18.5943C18.1435 18.4074 20.0425 17.3167 20.0425 14.298C20.0425 11.8898 18.1053 10.1917 15.5201 9.63205C14.0913 9.32274 12.5309 9.38649 11.1419 9.86492C10.8657 9.96007 10.5601 9.85654 10.3986 9.61311C10.0637 9.10841 9.57674 8.76165 9.13512 8.59512C8.91439 8.51189 8.72886 8.48271 8.59929 8.48618C8.58028 8.48669 8.56364 8.48783 8.54918 8.48933C8.56511 8.58618 8.60492 8.71909 8.67212 8.88237C8.80043 9.19412 8.97475 9.49488 9.09623 9.70446C9.1233 9.75117 9.148 9.79377 9.16871 9.83051C9.25932 9.99125 9.27632 10.1832 9.21536 10.3574C9.1544 10.5315 9.02138 10.671 8.85031 10.7401C8.24908 10.9831 7.78809 11.5237 7.45562 12.1871C7.1255 12.8458 6.96255 13.5478 6.91572 13.9738C6.87998 14.299 6.60528 14.5451 6.27817 14.5451H5.70873C5.7074 15.0604 5.70468 15.5076 5.70196 15.8539L5.70109 15.9602L6.402 15.9443C6.67294 15.9382 6.91849 16.103 7.01544 16.3561C7.28765 17.0667 7.81839 17.5772 8.40982 17.9309C9.00588 18.2873 9.62312 18.4589 9.98226 18.5069C10.2676 18.5451 10.4925 18.7686 10.5324 19.0537L10.682 20.1219H11.2625L11.3686 19.3282C11.4113 19.0085 11.6848 18.7703 12.0073 18.7718L15.2438 18.787C15.5468 18.7884 15.8074 19.0015 15.8689 19.2982L16.0396 20.1219H16.6335Z" stroke="black" stroke-width="0.3"/>
</svg>
