<svg width="25" height="24" viewBox="0 0 25 24" fill="none" xmlns="http://www.w3.org/2000/svg">
<path fill-rule="evenodd" clip-rule="evenodd" d="M4.19873 10.013C4.19873 5.6581 7.72296 2.125 12.0737 2.125C16.4245 2.125 19.9487 5.6581 19.9487 10.013C19.9487 10.9822 19.603 12.031 19.1286 13.0343C18.6471 14.0523 17.9953 15.101 17.3019 16.0907C15.9145 18.0706 14.3084 19.8869 13.4124 20.8576C12.6871 21.6434 11.4604 21.6434 10.735 20.8576C9.83901 19.8869 8.23299 18.0706 6.84559 16.0907C6.15212 15.101 5.50032 14.0523 5.01888 13.0343C4.54442 12.031 4.19873 10.9822 4.19873 10.013ZM12.0737 13C13.7306 13 15.0737 11.6569 15.0737 10C15.0737 8.34315 13.7306 7 12.0737 7C10.4169 7 9.07373 8.34315 9.07373 10C9.07373 11.6569 10.4169 13 12.0737 13Z" fill="black"/>
</svg>
