<svg width="25" height="25" viewBox="0 0 25 25" fill="none" xmlns="http://www.w3.org/2000/svg">
<path d="M12.8663 20.7026L12.3152 20.1939L12.8663 20.7026ZM11.4748 20.7026L10.9237 21.2113L11.4748 20.7026ZM18.4205 10.4515C18.4205 11.068 18.1905 11.86 17.7564 12.7781C17.3282 13.6834 16.7315 14.6495 16.0679 15.5966C14.741 17.4902 13.1906 19.2456 12.3152 20.1939L13.4174 21.2113C14.3118 20.2424 15.9136 18.4307 17.2963 16.4574C17.9875 15.4711 18.635 14.4287 19.1124 13.4193C19.5837 12.4226 19.9205 11.3936 19.9205 10.4515H18.4205ZM12.0259 20.1939C11.1505 19.2456 9.6001 17.4902 8.27318 15.5966C7.60952 14.6495 7.01286 13.6834 6.58469 12.7781C6.15054 11.86 5.92053 11.068 5.92053 10.4515H4.42053C4.42053 11.3936 4.75732 12.4226 5.22868 13.4193C5.70603 14.4287 6.35358 15.4711 7.04476 16.4574C8.42751 18.4307 10.0293 20.2424 10.9237 21.2113L12.0259 20.1939ZM5.92053 10.4515C5.92053 6.9912 8.72006 4.18848 12.1705 4.18848V2.68848C7.88902 2.68848 4.42053 6.1654 4.42053 10.4515H5.92053ZM12.1705 4.18848C15.621 4.18848 18.4205 6.9912 18.4205 10.4515H19.9205C19.9205 6.1654 16.452 2.68848 12.1705 2.68848V4.18848ZM12.3152 20.1939C12.2333 20.2827 12.1078 20.2827 12.0259 20.1939L10.9237 21.2113C11.5995 21.9435 12.7415 21.9435 13.4174 21.2113L12.3152 20.1939Z" fill="black"/>
<circle cx="12.1705" cy="10.4385" r="3" fill="black"/>
</svg>
