<svg width="25" height="25" viewBox="0 0 25 25" fill="none" xmlns="http://www.w3.org/2000/svg">
<path fill-rule="evenodd" clip-rule="evenodd" d="M4.83752 3.26904C4.14717 3.26904 3.58752 3.82869 3.58752 4.51904V9.29043C3.58752 9.81341 3.91311 10.2811 4.40356 10.4627L11.4372 13.0665C11.4226 13.0882 11.4086 13.1105 11.3952 13.1335L10.6018 14.4868L9.06957 14.8231C8.13692 15.0279 7.76894 16.1604 8.40312 16.8743L9.44498 18.047L9.29141 19.6081C9.19794 20.5584 10.1613 21.2584 11.0362 20.8758L12.4735 20.2473L13.9108 20.8758C14.7857 21.2584 15.749 20.5584 15.6556 19.6081L15.502 18.047L16.5439 16.8743C17.178 16.1604 16.8101 15.0279 15.8774 14.8231L14.3452 14.4868L13.5518 13.1335C13.5419 13.1166 13.5317 13.1001 13.5212 13.0839L20.5031 10.4624C20.9907 10.2793 21.3137 9.81301 21.3137 9.29214V4.51904C21.3137 3.82869 20.7541 3.26904 20.0637 3.26904H4.83752ZM5.08752 9.1164V4.76904H8.38782V10.3382L5.08752 9.1164ZM9.88782 10.8395V4.76904H15.0133V10.8395C15.0133 10.8666 15.0147 10.8934 15.0176 10.9198L12.5062 11.8628L9.88595 10.8928C9.88719 10.8752 9.88782 10.8574 9.88782 10.8395ZM16.5133 10.3582L19.8137 9.11897V4.76904H16.5133V10.3582ZM11.8405 15.3397L12.4735 14.26L13.1065 15.3397C13.2827 15.6403 13.5764 15.8537 13.9168 15.9284L15.1393 16.1968L14.308 17.1325C14.0766 17.393 13.9644 17.7383 13.9985 18.085L14.121 19.3306L12.9743 18.8292C12.655 18.6896 12.292 18.6896 11.9727 18.8292L10.826 19.3306L10.9485 18.085C10.9826 17.7383 10.8704 17.393 10.639 17.1325L9.80772 16.1968L11.0302 15.9284C11.3705 15.8537 11.6643 15.6403 11.8405 15.3397Z" fill="black"/>
</svg>
