<svg width="25" height="24" viewBox="0 0 25 24" fill="none" xmlns="http://www.w3.org/2000/svg">
<path fill-rule="evenodd" clip-rule="evenodd" d="M17.0696 4.25219C18.7544 4.30054 20.24 5.15221 21.1572 6.69188C22.0997 8.27379 22.3401 9.84949 22.0653 11.3623C21.7941 12.8549 21.0312 14.2371 20.0498 15.4809C18.0965 17.9566 15.143 20.0478 12.8939 21.551C12.5665 21.7697 12.1526 21.7568 11.843 21.5519C7.27782 18.5298 4.40324 15.6509 3.32037 13.1334C2.07506 10.2383 2.66577 7.89397 3.70756 6.6179C4.76948 5.1501 6.1837 4.33006 7.81645 4.30166C9.30518 4.27577 10.8619 4.91009 12.3855 6.08992C13.884 4.83546 15.5269 4.20792 17.0696 4.25219ZM17.0265 5.75157C15.8395 5.71751 14.4218 6.24243 13.0476 7.50388C12.6961 7.8266 12.1563 7.84124 11.7879 7.53393C10.3124 6.30306 8.96519 5.78191 7.84253 5.80143C6.75284 5.82038 5.74643 6.35061 4.9112 7.5133L4.89624 7.53413L4.87989 7.55389C4.27008 8.29078 3.71506 9.86818 4.51852 12.0871H6.177L6.77708 10.5763C7.08053 9.81227 8.14531 9.76818 8.51088 10.5045L10.0236 13.5513L11.5362 10.5045C11.9018 9.76819 12.9666 9.81225 13.27 10.5762L13.8702 12.0871H18.129C18.5432 12.0871 18.879 12.4229 18.879 12.8371C18.879 13.2513 18.5432 13.5871 18.129 13.5871H13.4969C13.1076 13.5871 12.7577 13.3496 12.614 12.9878L12.3313 12.2762L10.8745 15.2106C10.5253 15.914 9.52193 15.914 9.1727 15.2106L7.71585 12.2763L7.43324 12.9878C7.28984 13.3488 6.94066 13.5871 6.55053 13.5871H5.25743C6.43383 15.4483 8.75024 17.6679 12.3668 20.0982C14.5616 18.6189 17.1627 16.7185 18.8722 14.5517C19.7625 13.4234 20.3769 12.2643 20.5894 11.0942C20.7983 9.94427 20.6288 8.73574 19.8686 7.45958C19.2113 6.35632 18.1931 5.78505 17.0265 5.75157Z" fill="black"/>
</svg>
