<svg width="25" height="25" viewBox="0 0 25 25" fill="none" xmlns="http://www.w3.org/2000/svg">
<path fill-rule="evenodd" clip-rule="evenodd" d="M16.951 4.06645C16.951 3.74988 16.7522 3.4674 16.4543 3.3605C16.1563 3.2536 15.8233 3.34531 15.622 3.58968C15.0965 4.22788 14.2663 5.12888 12.8626 5.87696C11.4589 6.62507 9.43915 7.2426 6.51062 7.2426C6.4774 7.2426 6.44468 7.24476 6.4126 7.24895C6.35713 7.24142 6.3005 7.23753 6.24297 7.23753L3.8151 7.23748C2.84859 7.23746 2.06506 8.02097 2.06506 8.98748V12.2633C2.06506 13.1999 2.80092 13.9647 3.72607 14.0111V19.7995C3.72607 20.4898 4.28572 21.0495 4.97607 21.0495H6.24274C6.93309 21.0495 7.49274 20.4898 7.49274 19.7995V14.0883C10.1051 14.4757 11.8806 15.2676 13.1049 16.105C14.3937 16.9865 15.1097 17.9441 15.5567 18.622C15.6877 18.8411 15.9272 18.9878 16.201 18.9878C16.3597 18.9878 16.5069 18.9385 16.6281 18.8544C16.8469 18.7032 16.9612 18.4552 16.951 18.2061V14.0088C18.2103 13.7884 18.9975 12.5141 18.9753 11.2392C18.9536 9.99652 18.1634 8.78134 16.951 8.55727V4.06645ZM7.49294 12.573C10.4237 12.9772 12.4845 13.8634 13.9517 14.8669C14.549 15.2754 15.042 15.6994 15.451 16.1102V5.91569C14.9477 6.34902 14.3295 6.79491 13.5681 7.2007C12.1016 7.9823 10.1379 8.59734 7.49294 8.7202V12.573ZM17.4755 11.2653C17.4856 11.842 17.2344 12.2296 16.951 12.4153V10.1599C17.2248 10.3453 17.4659 10.7152 17.4755 11.2653ZM3.81506 12.5133C3.67699 12.5133 3.56506 12.4014 3.56506 12.2633L3.56506 8.98748C3.56506 8.84941 3.677 8.73748 3.81507 8.73748L5.99294 8.73753L5.99294 12.5133L3.81506 12.5133ZM5.22607 14.0653V19.5495H5.99274V14.0653H5.22607Z" fill="black"/>
<path d="M20.9479 7.37714C21.2155 7.06096 21.1761 6.58772 20.8599 6.32014C20.5437 6.05256 20.0704 6.09196 19.8029 6.40815L18.7509 7.65123C18.4833 7.96742 18.5227 8.44065 18.8389 8.70823C19.1551 8.97581 19.6283 8.93641 19.8959 8.62022L20.9479 7.37714Z" fill="black"/>
<path d="M21.2284 15.6312C21.4864 15.3071 21.4328 14.8353 21.1087 14.5773L19.9653 13.6671C19.6412 13.4091 19.1694 13.4627 18.9114 13.7867C18.6534 14.1108 18.707 14.5827 19.0311 14.8406L20.1745 15.7509C20.4986 16.0088 20.9704 15.9553 21.2284 15.6312Z" fill="black"/>
<path d="M21.3015 11.843C21.7153 11.8236 22.035 11.4725 22.0156 11.0587C21.9963 10.645 21.6451 10.3252 21.2314 10.3446L19.9805 10.4031C19.5668 10.4225 19.2471 10.7736 19.2664 11.1874C19.2858 11.6011 19.6369 11.9209 20.0507 11.9015L21.3015 11.843Z" fill="black"/>
</svg>
