<svg width="25" height="24" viewBox="0 0 25 24" fill="none" xmlns="http://www.w3.org/2000/svg">
<path d="M2.19873 5C2.19873 4.51675 2.59048 4.125 3.07373 4.125H21.0737C21.557 4.125 21.9487 4.51675 21.9487 5C21.9487 5.48325 21.557 5.875 21.0737 5.875H3.07373C2.59048 5.875 2.19873 5.48325 2.19873 5Z" fill="black"/>
<path d="M2.19873 12C2.19873 11.5168 2.59048 11.125 3.07373 11.125H21.0737C21.557 11.125 21.9487 11.5168 21.9487 12C21.9487 12.4832 21.557 12.875 21.0737 12.875H3.07373C2.59048 12.875 2.19873 12.4832 2.19873 12Z" fill="black"/>
<path d="M3.07373 18.125C2.59048 18.125 2.19873 18.5168 2.19873 19C2.19873 19.4832 2.59048 19.875 3.07373 19.875H21.0737C21.557 19.875 21.9487 19.4832 21.9487 19C21.9487 18.5168 21.557 18.125 21.0737 18.125H3.07373Z" fill="black"/>
</svg>
