<svg width="25" height="25" viewBox="0 0 25 25" fill="none" xmlns="http://www.w3.org/2000/svg">
<path d="M10.4905 19.2486C10.0763 19.2486 9.74053 19.5844 9.74053 19.9986C9.74053 20.4128 10.0763 20.7486 10.4905 20.7486H13.6105C14.0247 20.7486 14.3605 20.4128 14.3605 19.9986C14.3605 19.5844 14.0247 19.2486 13.6105 19.2486H10.4905Z" fill="black"/>
<path fill-rule="evenodd" clip-rule="evenodd" d="M7.61053 2.68848C6.40103 2.68848 5.42053 3.66897 5.42053 4.87848V20.2385C5.42053 21.448 6.40103 22.4285 7.61053 22.4285H16.7305C17.94 22.4285 18.9205 21.448 18.9205 20.2385V4.87848C18.9205 3.66897 17.94 2.68848 16.7305 2.68848H7.61053ZM6.92053 4.87848C6.92053 4.4974 7.22946 4.18848 7.61053 4.18848H16.7305C17.1116 4.18848 17.4205 4.4974 17.4205 4.87848V5.80859H6.92053V4.87848ZM6.92053 7.30859V17.5686H17.4205V7.30859H6.92053ZM17.4205 19.0686H6.92053V20.2385C6.92053 20.6196 7.22946 20.9285 7.61053 20.9285H16.7305C17.1116 20.9285 17.4205 20.6196 17.4205 20.2385V19.0686Z" fill="black"/>
</svg>
