<svg width="25" height="25" viewBox="0 0 25 25" fill="none" xmlns="http://www.w3.org/2000/svg">
<path d="M16.25 9.84961C16.25 9.57347 16.4739 9.34961 16.75 9.34961H18.75C19.0261 9.34961 19.25 9.57347 19.25 9.84961V12.25C19.25 12.5261 19.0261 12.75 18.75 12.75H16.75C16.4739 12.75 16.25 12.5261 16.25 12.25V9.84961Z" fill="black"/>
<path d="M5.75 9.34985C5.47386 9.34985 5.25 9.57371 5.25 9.84985V12.2502C5.25 12.5264 5.47386 12.7502 5.75 12.7502H7.75C8.02614 12.7502 8.25 12.5264 8.25 12.2502V9.84985C8.25 9.57371 8.02614 9.34985 7.75 9.34985H5.75Z" fill="black"/>
<path fill-rule="evenodd" clip-rule="evenodd" d="M4.75 5C3.50736 5 2.5 6.00736 2.5 7.25V16.75C2.5 17.8242 3.25275 18.7226 4.25952 18.9464C4.35819 19.9588 5.21169 20.75 6.25 20.75C7.2699 20.75 8.1115 19.9866 8.23453 19H16.2655C16.3885 19.9866 17.2301 20.75 18.25 20.75C19.2883 20.75 20.1418 19.9588 20.2405 18.9464C21.2473 18.7226 22 17.8242 22 16.75V7.25C22 6.00736 20.9926 5 19.75 5H4.75ZM4 7.25C4 6.83579 4.33579 6.5 4.75 6.5H19.75C20.1642 6.5 20.5 6.83579 20.5 7.25V16.75C20.5 17.1642 20.1642 17.5 19.75 17.5H15V9.75C15 9.33579 14.6642 9 14.25 9H10.25C9.83579 9 9.5 9.33579 9.5 9.75V17.5H4.75C4.33579 17.5 4 17.1642 4 16.75V7.25ZM11 17V10.5H13.5V17H11Z" fill="black"/>
</svg>
