<svg width="25" height="25" viewBox="0 0 25 25" fill="none" xmlns="http://www.w3.org/2000/svg">
<path d="M15.7264 7.91479C15.3122 7.91479 14.9764 8.25058 14.9764 8.66479C14.9764 9.07901 15.3122 9.41479 15.7264 9.41479H16.2623L13.3898 12.2386L10.7783 9.71618C10.2732 9.22831 9.46544 9.25213 8.98998 9.76892L5.67182 13.3755C5.39136 13.6803 5.41112 14.1548 5.71595 14.4352C6.02078 14.7157 6.49524 14.6959 6.77569 14.3911L9.92042 10.973L12.5229 13.4867C13.0103 13.9576 13.7843 13.9542 14.2676 13.4791L17.345 10.4538V10.7874C17.345 11.2016 17.6808 11.5374 18.095 11.5374C18.5092 11.5374 18.845 11.2016 18.845 10.7874V8.66479C18.845 8.25058 18.5092 7.91479 18.095 7.91479H15.7264Z" fill="black"/>
<path fill-rule="evenodd" clip-rule="evenodd" d="M3.4762 4.70801C2.78584 4.70801 2.2262 5.26765 2.2262 5.95801V16.5898C2.2262 17.2802 2.78584 17.8398 3.4762 17.8398H11.4093V18.9348H8.17786C7.76364 18.9348 7.42786 19.2706 7.42786 19.6848C7.42786 20.099 7.76364 20.4348 8.17786 20.4348H16.1411C16.5554 20.4348 16.8911 20.099 16.8911 19.6848C16.8911 19.2706 16.5554 18.9348 16.1411 18.9348H12.9093V17.8398H20.801C21.4914 17.8398 22.051 17.2802 22.051 16.5898V5.95801C22.051 5.26765 21.4914 4.70801 20.801 4.70801H3.4762ZM12.1593 16.3396L12.1786 16.3398H20.551V6.20801H3.7262V16.3398H12.14L12.1593 16.3396Z" fill="black"/>
</svg>
