<svg width="25" height="25" viewBox="0 0 25 25" fill="none" xmlns="http://www.w3.org/2000/svg">
<path d="M14.6393 8.75197C14.269 8.65454 13.9311 8.99237 14.0285 9.36265L14.6964 11.903C14.8054 12.3176 15.3515 12.4117 15.593 12.0575L15.9183 11.5806L16.9707 12.6078C17.1683 12.8007 17.4849 12.7968 17.6778 12.5992L17.9956 12.2736C18.1885 12.076 18.1847 11.7594 17.987 11.5665L16.9346 10.5393L17.2804 10.301C17.6324 10.0584 17.5373 9.51456 17.1239 9.40578L14.6393 8.75197Z" fill="black"/>
<path fill-rule="evenodd" clip-rule="evenodd" d="M3.4967 4.56494C2.80635 4.56494 2.2467 5.12459 2.2467 5.81494V16.2393C2.2467 16.9296 2.80635 17.4893 3.4967 17.4893H11.442V18.8562H8.20471C7.7905 18.8562 7.45471 19.192 7.45471 19.6062C7.45471 20.0204 7.7905 20.3562 8.20471 20.3562H16.1774C16.5917 20.3562 16.9274 20.0204 16.9274 19.6062C16.9274 19.192 16.5917 18.8562 16.1774 18.8562H12.942V17.4893H20.8433C21.5336 17.4893 22.0933 16.9296 22.0933 16.2393V5.81494C22.0933 5.12458 21.5336 4.56494 20.8433 4.56494H3.4967ZM3.7467 15.9893V6.06494H20.5933V15.9893H3.7467Z" fill="black"/>
</svg>
