<svg width="25" height="25" viewBox="0 0 25 25" fill="none" xmlns="http://www.w3.org/2000/svg">
<path d="M11.5992 13.6113C11.185 13.6113 10.8492 13.9471 10.8492 14.3613C10.8492 14.7755 11.185 15.1113 11.5992 15.1113H12.6708C13.085 15.1113 13.4208 14.7755 13.4208 14.3613C13.4208 13.9471 13.085 13.6113 12.6708 13.6113H11.5992Z" fill="black"/>
<path fill-rule="evenodd" clip-rule="evenodd" d="M3.4967 4.56494C2.80635 4.56494 2.2467 5.12459 2.2467 5.81494V16.2393C2.2467 16.9296 2.80635 17.4893 3.4967 17.4893H11.442V18.8562H8.20471C7.7905 18.8562 7.45471 19.192 7.45471 19.6062C7.45471 20.0204 7.7905 20.3562 8.20471 20.3562H16.1774C16.5917 20.3562 16.9274 20.0204 16.9274 19.6062C16.9274 19.192 16.5917 18.8562 16.1774 18.8562H12.942V17.4893H20.8433C21.5336 17.4893 22.0933 16.9296 22.0933 16.2393V5.81494C22.0933 5.12458 21.5336 4.56494 20.8433 4.56494H3.4967ZM3.7467 15.9893V6.06494H20.5933V15.9893H3.7467Z" fill="black"/>
</svg>
