<svg width="24" height="25" viewBox="0 0 24 25" fill="none" xmlns="http://www.w3.org/2000/svg">
<path fill-rule="evenodd" clip-rule="evenodd" d="M5.88867 9.19434C5.47446 9.19434 5.13867 9.53012 5.13867 9.94434V12.3888C5.13867 12.803 5.47446 13.1388 5.88867 13.1388H9.55534C9.96955 13.1388 10.3053 12.803 10.3053 12.3888V9.94434C10.3053 9.53012 9.96955 9.19434 9.55534 9.19434H5.88867ZM6.63867 11.6388V10.6943H8.80534V11.6388H6.63867Z" fill="black"/>
<path d="M5.13867 16.0557C5.13867 15.6415 5.47446 15.3057 5.88867 15.3057H11.9998C12.414 15.3057 12.7498 15.6415 12.7498 16.0557C12.7498 16.4699 12.414 16.8057 11.9998 16.8057H5.88867C5.47446 16.8057 5.13867 16.4699 5.13867 16.0557Z" fill="black"/>
<path d="M18.5 15.5C18.7761 15.5 19 15.7239 19 16V16.5H19.5C19.7761 16.5 20 16.7239 20 17C20 17.2761 19.7761 17.5 19.5 17.5H19V18C19 18.2761 18.7761 18.5 18.5 18.5C18.2239 18.5 18 18.2761 18 18V17.5H17.5C17.2239 17.5 17 17.2761 17 17C17 16.7239 17.2239 16.5 17.5 16.5H18V16C18 15.7239 18.2239 15.5 18.5 15.5Z" fill="black"/>
<path fill-rule="evenodd" clip-rule="evenodd" d="M4.04434 6.75C3.29875 6.75 2.69434 7.35442 2.69434 8.1V17.9C2.69434 18.6456 3.29875 19.25 4.04434 19.25H16C16.0485 19.25 16.096 19.2454 16.142 19.2366C16.7342 19.8608 17.5716 20.25 18.5 20.25C20.2949 20.25 21.75 18.7949 21.75 17C21.75 16.4011 21.588 15.84 21.3054 15.3582V8.1C21.3054 7.35441 20.701 6.75 19.9554 6.75H4.04434ZM19.8054 14.0228V8.25H4.19434V17.75H15.337C15.2801 17.5092 15.25 17.2581 15.25 17C15.25 15.2051 16.7051 13.75 18.5 13.75C18.9643 13.75 19.4059 13.8474 19.8054 14.0228ZM16.75 17C16.75 16.0335 17.5335 15.25 18.5 15.25C19.4665 15.25 20.25 16.0335 20.25 17C20.25 17.9665 19.4665 18.75 18.5 18.75C17.5335 18.75 16.75 17.9665 16.75 17Z" fill="black"/>
</svg>
