<svg width="24" height="24" viewBox="0 0 24 24" fill="none" xmlns="http://www.w3.org/2000/svg">
<path fill-rule="evenodd" clip-rule="evenodd" d="M19.4166 12.473C19.4258 12.4832 19.4349 12.4933 19.4441 12.5034C19.7222 12.8104 20.1964 12.8339 20.5035 12.5558C20.8105 12.2778 20.834 11.8035 20.5559 11.4965C19.8021 10.6641 18.9471 9.73937 18.0833 8.81491V5.66644C18.0833 5.25223 17.7475 4.91644 17.3333 4.91644C16.919 4.91644 16.5833 5.25223 16.5833 5.66644V7.21829C15.2242 5.7787 13.982 4.48015 13.2439 3.71123C12.5601 2.99878 11.4271 3.01427 10.7566 3.72668L3.45385 11.4859C3.16996 11.7875 3.18435 12.2622 3.48598 12.5461C3.78761 12.83 4.26226 12.8156 4.54615 12.5139L4.58325 12.4745V19.3636C4.58325 20.3133 5.35319 21.0833 6.30295 21.0833H7.2C7.7799 21.0833 8.25 20.6132 8.25 20.0333V14.9696C8.25 14.8483 8.34836 14.7499 8.4697 14.7499H11.0303C11.1516 14.7499 11.25 14.8483 11.25 14.9696V20.0333C11.25 20.6132 11.7201 21.0833 12.3 21.0833H17.6969C18.6466 21.0833 19.4166 20.3133 19.4166 19.3636V12.473ZM12.1618 4.74995C12.0787 4.66338 11.9375 4.66062 11.8489 4.75473L6.07516 10.8894C6.08049 10.9255 6.08325 10.9624 6.08325 10.9999V19.3636C6.08325 19.4849 6.18161 19.5833 6.30295 19.5833H6.75V14.9696C6.75 14.0199 7.51993 13.2499 8.4697 13.2499H11.0303C11.9801 13.2499 12.75 14.0199 12.75 14.9696V19.5833H17.6969C17.8182 19.5833 17.9166 19.4849 17.9166 19.3636V10.9999C17.9166 10.9497 17.9215 10.9006 17.9309 10.8532C15.7765 8.52705 13.3362 5.97345 12.1618 4.74995Z" fill="black"/>
<path d="M14.5861 11.0547C14.0062 11.0547 13.5361 11.5249 13.5361 12.1047V13.4116C13.5361 13.9915 14.0062 14.4616 14.5861 14.4616H15.893C16.4729 14.4616 16.943 13.9915 16.943 13.4116V12.1047C16.943 11.5248 16.4729 11.0547 15.893 11.0547H14.5861Z" fill="black"/>
</svg>
