<svg width="25" height="25" viewBox="0 0 25 25" fill="none" xmlns="http://www.w3.org/2000/svg">
<path fill-rule="evenodd" clip-rule="evenodd" d="M8.61989 3.52296C8.27878 2.98228 7.56395 2.8205 7.02327 3.16161C6.48259 3.50272 6.3208 4.21755 6.66191 4.75823C6.90753 5.14754 7.34689 5.34041 7.77549 5.29055L7.83592 5.38633L8.36212 6.22039L7.80612 6.57117C7.4558 6.79218 7.35098 7.25534 7.57199 7.60566C7.79301 7.95598 8.25617 8.06081 8.60649 7.83979L8.97404 7.60791L9.66075 8.72394C9.2497 8.81792 8.82446 8.92793 8.37921 9.05319C7.81078 9.2131 7.4253 9.73232 7.4253 10.3149V10.8327L7.4253 10.8932C7.42516 12.9599 7.42499 15.5074 8.86481 17.4308L6.41252 21.4162C6.19545 21.769 6.30546 22.231 6.65824 22.448C7.01102 22.6651 7.47297 22.5551 7.69005 22.2023L9.93821 18.5487C10.6124 19.1064 11.4128 19.5689 12.3598 20.0393C12.7454 20.2309 13.201 20.2194 13.5764 20.0092C14.3891 19.554 15.0899 19.1034 15.702 18.542L17.9543 22.2023C18.1713 22.5551 18.6333 22.6651 18.9861 22.448C19.3388 22.231 19.4489 21.769 19.2318 21.4162L16.7314 17.3527C18.14 15.2585 18.1856 12.5421 18.1856 10.2917C18.1856 9.72611 17.8152 9.21918 17.2632 9.05753C16.8194 8.92758 16.3957 8.81477 15.9864 8.71928L16.6703 7.60791L17.0378 7.83979C17.3881 8.06081 17.8513 7.95598 18.0723 7.60566C18.2933 7.25534 18.1885 6.79218 17.8382 6.57117L17.2822 6.22039L17.8084 5.38633L17.8688 5.29055C18.2974 5.34041 18.7368 5.14754 18.9824 4.75823C19.3235 4.21755 19.1617 3.50272 18.621 3.16161C18.0804 2.8205 17.3655 2.98228 17.0244 3.52296C16.7789 3.91211 16.7939 4.39147 17.0232 4.75678L16.9626 4.85275L16.4364 5.68682L15.8802 5.3359C15.5299 5.11488 15.0667 5.21971 14.8457 5.57003C14.6247 5.92035 14.7295 6.38351 15.0798 6.60453L15.4016 6.80749L14.4038 8.42903C13.8654 8.36018 13.3405 8.32638 12.8127 8.32813C12.292 8.32986 11.7743 8.3662 11.2442 8.4351L10.2427 6.80749L10.5645 6.60453C10.9148 6.38351 11.0196 5.92035 10.7986 5.57003C10.5776 5.21971 10.1144 5.11488 9.7641 5.3359L9.20787 5.68682L8.68167 4.85275L8.62112 4.75678C8.8504 4.39147 8.8654 3.91211 8.61989 3.52296ZM8.9253 10.8327V10.4581C10.4433 10.0385 11.6401 9.83203 12.8177 9.82812C13.9892 9.82423 15.1802 10.0208 16.6854 10.4518C16.6804 12.9606 16.5451 15.3348 15.143 16.9673C14.5892 17.612 13.9089 18.0975 12.934 18.6495C11.5719 17.9659 10.723 17.382 10.1064 16.5855C8.9661 15.1124 8.9253 13.0585 8.9253 10.8327ZM11.5293 13.3476L12.8788 12.4035L14.0816 13.3268V14.7761H11.5293V13.3476ZM13.5887 11.0574C13.1906 10.7519 12.6404 10.7397 12.2292 11.0273L10.5201 12.2231C10.2125 12.4382 10.0293 12.79 10.0293 13.1654V15.1261C10.0293 15.7612 10.5442 16.2761 11.1793 16.2761H14.4316C15.0667 16.2761 15.5816 15.7612 15.5816 15.1261V13.1542C15.5816 12.7968 15.4153 12.4597 15.1318 12.242L13.5887 11.0574Z" fill="black"/>
</svg>
