<svg width="24" height="24" viewBox="0 0 24 24" fill="none" xmlns="http://www.w3.org/2000/svg">
<path fill-rule="evenodd" clip-rule="evenodd" d="M12.5454 5.11353C12.1312 5.11353 11.7954 5.44931 11.7954 5.86353C11.7954 6.27774 12.1312 6.61353 12.5454 6.61353H14.5616L14.9425 8.89906C14.7531 9.0185 14.6152 9.19968 14.5473 9.40604C14.2953 9.29654 14.0225 9.19928 13.7374 9.12708C12.9447 8.92634 11.9487 8.89552 11.069 9.48198C10.3735 9.94568 9.95275 10.4697 9.74476 10.9916L6.2438 9.04668C5.69765 8.74327 5.01234 9.0406 4.86081 9.64673L4.46076 11.2469C3.82165 11.6916 3.38631 12.3257 3.0792 12.9853C2.66527 13.8742 2.44394 14.8957 2.27216 15.7546C2.17542 16.2383 2.54539 16.6896 3.03868 16.6896H4.22207C4.64012 17.3281 5.36179 17.7499 6.18198 17.7499C7.00217 17.7499 7.72384 17.3281 8.14189 16.6896H14.5596C14.8773 16.6896 15.1739 16.5308 15.3501 16.2666L17.2299 13.4467L17.3652 13.6496C16.8767 14.0786 16.5684 14.7078 16.5684 15.409C16.5684 16.7019 17.6164 17.7499 18.9093 17.7499C20.2021 17.7499 21.2502 16.7019 21.2502 15.409C21.2502 14.1162 20.2021 13.0681 18.9093 13.0681C18.8668 13.0681 18.8245 13.0692 18.7826 13.0715L18.1313 12.0947L18.4081 11.6795C18.5972 11.3958 18.6199 11.0326 18.4674 10.7276L18.3965 10.5858C19.0396 10.7235 19.6906 10.1388 19.5114 9.4223L19.1923 8.14565C19.0132 7.42927 18.121 7.18216 17.5989 7.70431L16.9605 8.34263C16.9508 8.35243 16.9412 8.36237 16.932 8.37245C16.7575 8.32571 16.5684 8.32825 16.3861 8.38899L16.3786 8.3915L15.9646 5.90735C15.8882 5.44927 15.4919 5.11353 15.0275 5.11353H12.5454ZM14.7472 11.2363C14.8257 11.2952 14.912 11.3364 15.0012 11.3605L15.217 12.0078H10.9975C11.0414 11.9186 11.0749 11.8198 11.0919 11.7117C11.1199 11.5349 11.2591 11.1581 11.9011 10.7301C12.2941 10.468 12.8007 10.4372 13.3691 10.5812C13.9366 10.7249 14.4578 11.0193 14.7472 11.2363ZM8.25718 13.2379C8.31842 13.3114 8.39073 13.3702 8.46967 13.4139C8.50501 13.4819 8.54941 13.547 8.60334 13.6076C8.93871 13.9846 9.30168 14.459 9.53397 14.9008C9.58919 15.0058 9.63345 15.1023 9.66756 15.1896H8.51274C8.40212 13.9996 7.40084 13.0681 6.18198 13.0681C5.3756 13.0681 4.66445 13.4758 4.24344 14.0964C4.30308 13.931 4.36788 13.7712 4.43901 13.6184C4.76324 12.9221 5.1771 12.4615 5.74724 12.2573C6.23533 12.0825 6.70748 12.1526 7.15266 12.3637C7.60964 12.5804 8.00241 12.9322 8.25718 13.2379ZM14.2653 15.1896H11.2229L11.2177 15.1616C11.1534 14.8264 11.0169 14.498 10.8616 14.2027C10.7371 13.9658 10.5902 13.7312 10.4347 13.5078H15.3865L14.2653 15.1896ZM16.983 11.113L16.6609 11.5961L16.1456 10.0503L16.4079 9.96286L16.983 11.113ZM5.34107 15.409C5.34107 14.9446 5.71756 14.5681 6.18198 14.5681C6.64641 14.5681 7.02289 14.9446 7.02289 15.409C7.02289 15.8734 6.64641 16.2499 6.18198 16.2499C5.71756 16.2499 5.34107 15.8734 5.34107 15.409ZM18.9093 14.5681C18.4449 14.5681 18.0684 14.9446 18.0684 15.409C18.0684 15.8734 18.4449 16.2499 18.9093 16.2499C19.3737 16.2499 19.7502 15.8734 19.7502 15.409C19.7502 14.9446 19.3737 14.5681 18.9093 14.5681Z" fill="black"/>
</svg>
