<svg width="25" height="24" viewBox="0 0 25 24" fill="none" xmlns="http://www.w3.org/2000/svg">
<path fill-rule="evenodd" clip-rule="evenodd" d="M15.7974 3.37212C15.4645 3.21846 15.0728 3.27012 14.7911 3.50487L12.3684 5.52384L9.95895 3.51598C9.64553 3.2548 9.20034 3.2229 8.85288 3.43672L2.71229 7.21554C2.15915 7.55594 2.10306 8.33864 2.60201 8.75443L4.75732 10.5505L2.52813 12.7797C2.07815 13.2297 2.18918 13.9862 2.74948 14.2879L4.61838 15.2942V18.8682C4.61838 19.2483 4.84486 19.5917 5.19416 19.7414L11.9877 22.6529C12.0023 22.6592 12.0171 22.6651 12.0319 22.6706C12.1331 22.7215 12.2474 22.7501 12.3684 22.7501C12.5049 22.7501 12.633 22.7136 12.7433 22.6498C12.7579 22.6434 12.7724 22.6366 12.7868 22.6295L19.5932 19.2262C19.9151 19.0653 20.1184 18.7364 20.1184 18.3765V15.0001C20.1184 14.9336 20.1097 14.8691 20.0935 14.8077L21.9873 13.7879C22.5476 13.4862 22.6586 12.7297 22.2086 12.2797L19.929 10.0001L22.1959 7.73327C22.6633 7.2659 22.5224 6.47594 21.9222 6.19896L15.7974 3.37212ZM18.6184 15.6019L15.855 17.0899C15.4856 17.2888 15.0295 17.2219 14.7328 16.9252L13.1184 15.3108V20.7866L18.6184 18.0366V15.6019ZM14.005 14.0761L15.5041 15.5752L20.6253 12.8177L18.7689 10.9613L14.005 14.0761ZM18.7326 9.07521L20.5775 7.23036L15.4844 4.87971L13.701 6.36588L18.7326 9.07521ZM11.0585 6.38482L9.30236 4.92139L4.15015 8.09198L5.74505 9.42107L11.0585 6.38482ZM5.83059 11.5986L10.7511 14.2345L9.19207 16.0534L4.11149 13.3177L5.83059 11.5986ZM11.6184 15.5276V20.8627L6.11838 18.5056V16.1019L8.87097 17.5841C9.26426 17.7959 9.75196 17.7051 10.0427 17.3659L11.6184 15.5276ZM13.1184 12.8636L17.4024 10.0626L13.1184 7.75579V12.8636ZM11.6184 7.79251V12.9975L6.9171 10.479L11.6184 7.79251Z" fill="black"/>
</svg>
