<svg width="25" height="25" viewBox="0 0 25 25" fill="none" xmlns="http://www.w3.org/2000/svg">
<path d="M7.5 9.51001C7.22386 9.51001 7 9.73387 7 10.01V11.51C7 11.7862 7.22386 12.01 7.5 12.01H9C9.27614 12.01 9.5 11.7862 9.5 11.51V10.01C9.5 9.73387 9.27614 9.51001 9 9.51001H7.5Z" fill="black"/>
<path d="M10.5205 10.01C10.5205 9.73387 10.7444 9.51001 11.0205 9.51001H12.5205C12.7966 9.51001 13.0205 9.73387 13.0205 10.01V11.51C13.0205 11.7862 12.7966 12.01 12.5205 12.01H11.0205C10.7444 12.01 10.5205 11.7862 10.5205 11.51V10.01Z" fill="black"/>
<path fill-rule="evenodd" clip-rule="evenodd" d="M15.2 14.7668C14.6753 14.7668 14.25 15.1922 14.25 15.7168V17.8599C14.25 18.3846 14.6753 18.8099 15.2 18.8099H17.3908C17.9155 18.8099 18.3408 18.3846 18.3408 17.8599V15.7168C18.3408 15.1922 17.9155 14.7668 17.3908 14.7668H15.2ZM15.75 17.3099V16.2668H16.8408V17.3099H15.75Z" fill="black"/>
<path fill-rule="evenodd" clip-rule="evenodd" d="M15 7.73192C15.3945 8.14595 15.7977 8.57144 16.2025 9.00148C16.2182 9.0005 16.2341 9 16.25 9H21.25C21.6642 9 22 9.33579 22 9.75V12.75C22 13.1642 21.6642 13.5 21.25 13.5H20.999V20.75C20.999 21.1642 20.6632 21.5 20.249 21.5H12.2494C11.8352 21.5 11.4994 21.1642 11.4994 20.75V15H8.49942V20.75C8.49942 21.1642 8.16363 21.5 7.74942 21.5H4.5957C4.18149 21.5 3.8457 21.1642 3.8457 20.75V11.2135L3.78634 11.2742C3.49681 11.5705 3.02197 11.5759 2.72575 11.2863C2.42954 10.9968 2.42412 10.522 2.71366 10.2257L9.09001 3.70225C9.63785 3.14176 10.5408 3.1358 11.0938 3.69757C11.6528 4.26533 12.5061 5.13761 13.5 6.16771V4.25C13.5 3.83579 13.8358 3.5 14.25 3.5C14.6642 3.5 15 3.83579 15 4.25V7.73192ZM19.499 13.5V20H12.9994V14.25C12.9994 13.8358 12.6636 13.5 12.2494 13.5H7.74942C7.33521 13.5 6.99942 13.8358 6.99942 14.25V20H5.3457V9.83203C5.3457 9.78425 5.34123 9.73751 5.33269 9.69221L10.0945 4.82056C11.1415 5.88461 13.0355 7.82806 14.9994 9.91186V12.75C14.9994 13.1642 15.3352 13.5 15.7494 13.5H19.499ZM16.4994 12V10.5H20.5V12H16.4994Z" fill="black"/>
</svg>
