<svg width="24" height="25" viewBox="0 0 24 25" fill="none" xmlns="http://www.w3.org/2000/svg">
<path fill-rule="evenodd" clip-rule="evenodd" d="M4.25159 3.72717C3.96437 3.56321 3.59212 3.60453 3.34793 3.8504C3.05604 4.14429 3.05767 4.61916 3.35157 4.91105L3.9397 5.49517C3.32756 5.65333 2.8754 6.20928 2.8754 6.87084V14.5407C2.8754 15.3254 3.51149 15.9615 4.29615 15.9615H5.59315V18.5459C5.59315 19.3306 6.22924 19.9667 7.01389 19.9667H18.5107L19.6957 21.1436C19.9895 21.4355 20.4644 21.4338 20.7563 21.1399C20.9243 20.9708 20.995 20.7418 20.9689 20.5222L20.9348 20.556L4.25159 3.72717ZM7.09315 13.445C8.35688 13.3287 9.39916 12.4476 9.75293 11.2687L11.4288 12.9331C11.049 13.3712 10.8191 13.9428 10.8191 14.5681C10.8191 15.9473 11.9372 17.0653 13.3163 17.0653C13.9478 17.0653 14.5245 16.8309 14.9642 16.4444L16.7897 18.2575C16.7786 18.3265 16.7697 18.3962 16.7632 18.4667H9.86918C9.73405 16.9975 8.56519 15.8276 7.09645 15.6908V14.4615H7.09315V13.445ZM7.63899 9.16921L6.67936 8.21613C6.13184 8.90862 5.30862 9.3731 4.3754 9.44384V11.4735C4.82271 11.5198 5.2357 11.669 5.59315 11.8952V10.59C5.59315 9.8053 6.22924 9.16921 7.01389 9.16921H7.63899ZM5.60218 7.1463L5.40462 6.95009H4.3754V7.93565C4.89022 7.86234 5.33299 7.56538 5.60218 7.1463ZM7.09315 17.2033V18.4667H8.35647C8.23922 17.8258 7.73397 17.3205 7.09315 17.2033ZM8.3564 10.6692H7.09315V11.9323C7.73385 11.815 8.23904 11.3099 8.3564 10.6692ZM4.3754 12.9912V14.4615H5.40965C5.49415 13.7709 5.03411 13.1402 4.3754 12.9912Z" fill="black"/>
<path fill-rule="evenodd" clip-rule="evenodd" d="M21.0393 18.5309V10.59C21.0393 9.8053 20.4033 9.16921 19.6186 9.16921H17.3918V6.87084C17.3918 6.08618 16.7558 5.45009 15.9711 5.45009H8.07175L9.55877 6.95009H12.9802C13.2506 8.02858 14.0907 8.88109 15.162 9.16921H11.7587L13.2457 10.6692H16.7633C16.8987 12.1394 18.0691 13.3098 19.5393 13.445V15.6905C19.172 15.7243 18.8234 15.8227 18.5049 15.9743L21.0393 18.5309ZM19.5393 11.9323V10.6692H18.276C18.3934 11.3099 18.8986 11.815 19.5393 11.9323ZM15.8918 6.95009V7.7729C15.3237 7.74781 14.8339 7.42166 14.5779 6.95009H15.8918Z" fill="black"/>
</svg>
