<svg width="24" height="24" viewBox="0 0 24 24" fill="none" xmlns="http://www.w3.org/2000/svg">
<path d="M7.10822 5.10588L6.03016 4.03492C7.68584 2.79935 9.73974 2.06787 11.9645 2.06787C17.4498 2.06787 21.8965 6.51459 21.8965 11.9999C21.8965 14.2011 21.1805 16.235 19.9686 17.8815L18.8905 16.8105C19.8399 15.4462 20.3965 13.788 20.3965 11.9999C20.3965 7.34302 16.6214 3.56787 11.9645 3.56787C10.1564 3.56787 8.48115 4.137 7.10822 5.10588Z" fill="black"/>
<path d="M10.1624 8.13989L11.6723 9.63989H16.8657V14.799L18.2119 16.1364C18.3101 15.9492 18.3657 15.7361 18.3657 15.5101V9.48989C18.3657 8.74431 17.7613 8.13989 17.0157 8.13989H10.1624Z" fill="black"/>
<path fill-rule="evenodd" clip-rule="evenodd" d="M18.9883 19.0221C17.1909 20.8199 14.7076 21.9319 11.9645 21.9319C6.47919 21.9319 2.03247 17.4852 2.03247 11.9999C2.03247 9.28043 3.12543 6.81624 4.89605 5.02263L18.9883 19.0221ZM3.53247 11.9999C3.53247 10.2205 4.08367 8.56977 5.02464 7.20924L6.207 8.38597C5.86056 8.63035 5.63428 9.0337 5.63428 9.48989V15.5101C5.63428 16.2557 6.23869 16.8601 6.98428 16.8601H14.7217L16.7882 18.9168C15.4214 19.8717 13.7584 20.4319 11.9645 20.4319C7.30762 20.4319 3.53247 16.6568 3.53247 11.9999ZM7.13428 9.63989H7.46692L8.49941 10.6675C8.19032 10.7601 7.96509 11.0467 7.96509 11.386C7.96509 11.8002 8.30087 12.136 8.71509 12.136H9.96302L9.97487 12.1359L10.9758 13.1321H8.71509C8.30087 13.1321 7.96509 13.4679 7.96509 13.8821C7.96509 14.2963 8.30087 14.6321 8.71509 14.6321H12.483L13.2145 15.3601H7.13428V9.63989Z" fill="black"/>
</svg>
