<svg width="24" height="24" viewBox="0 0 24 24" fill="none" xmlns="http://www.w3.org/2000/svg">
<path fill-rule="evenodd" clip-rule="evenodd" d="M11.2849 3.97888C10.8483 4.02041 10.4221 4.09781 10.0094 4.20809C9.71501 4.81232 9.45357 5.3878 9.22395 5.93998L7.12598 3.83846C8.55194 2.95402 10.234 2.44336 12.0354 2.44336C17.1866 2.44336 21.3625 6.61926 21.3625 11.7705C21.3625 13.5775 20.8487 15.2645 19.9591 16.6933L18.8649 15.5972C19.0329 15.298 19.1818 14.9867 19.31 14.6648H17.934L16.0918 12.8194C16.1277 12.4647 16.1475 12.1135 16.151 11.7633C16.1557 11.3046 16.1325 10.8441 16.0803 10.3762H13.6527L11.2849 8.00438V3.97888ZM19.7387 13.1648C19.8201 12.7123 19.8625 12.2464 19.8625 11.7705C19.8625 11.2946 19.8201 10.8287 19.7387 10.3762H17.5885C17.6348 10.8447 17.6557 11.3109 17.6509 11.7785C17.6463 12.2407 17.6167 12.7017 17.5629 13.1648H19.7387ZM19.31 8.87621C18.6804 7.29509 17.5502 5.96758 16.1152 5.08942C16.6896 6.43094 17.1034 7.67347 17.3558 8.87621H19.31ZM14.0604 4.20784C13.6477 4.0976 13.2215 4.02026 12.7849 3.97878V8.87621H15.8194C15.4918 7.47363 14.9151 5.96184 14.0604 4.20784Z" fill="black"/>
<path fill-rule="evenodd" clip-rule="evenodd" d="M19.4488 18.3025L19.4474 18.3039L5.12627 3.95849L5.13105 3.95371L4.44587 3.26705C4.1533 2.97384 3.67842 2.97333 3.38521 3.26591C3.092 3.55848 3.09149 4.03336 3.38407 4.32657L4.86248 5.80818C3.51731 7.42469 2.70825 9.50311 2.70825 11.7705C2.70825 16.9215 6.88376 21.0972 12.0347 21.0976C14.2948 21.0976 16.3679 20.2937 17.9822 18.9563L19.4227 20.3999C19.7152 20.6931 20.1901 20.6936 20.4833 20.401C20.7765 20.1084 20.777 19.6336 20.4845 19.3404L19.4488 18.3025ZM15.2973 16.2656L13.7 14.6648H12.7849V19.5622C13.2183 19.521 13.6414 19.4445 14.0513 19.3356C14.559 18.2263 14.9741 17.2142 15.2973 16.2656ZM11.2849 12.2445L9.42065 10.3762H7.98971C7.9375 10.8441 7.91432 11.3046 7.91895 11.7633C7.92363 12.2268 7.9567 12.692 8.01825 13.1648H11.2849V12.2445ZM6.71419 8.87621C6.7817 8.55455 6.86075 8.23004 6.95133 7.90155L5.92744 6.87545C5.44545 7.4761 5.05023 8.14936 4.76079 8.87621H6.71419ZM16.9172 17.889L16.4704 17.4412C16.343 17.7831 16.2059 18.1309 16.0592 18.4855C16.3589 18.3056 16.6454 18.1062 16.9172 17.889ZM4.33207 10.3762C4.25072 10.8287 4.20825 11.2946 4.20825 11.7705C4.20825 12.2464 4.25072 12.7123 4.33207 13.1648H6.50704C6.45333 12.7017 6.4237 12.2407 6.41903 11.7785C6.41431 11.3109 6.43514 10.8447 6.48146 10.3762H4.33207ZM4.76079 14.6648C5.39841 16.266 6.54939 17.6071 8.01046 18.4849C7.45096 17.1315 7.02967 15.8783 6.76146 14.6648H4.76079ZM10.0186 19.3353C10.4284 19.4443 10.8515 19.5209 11.2849 19.5621V14.6648H8.3013C8.6433 16.0672 9.21497 17.5795 10.0186 19.3353Z" fill="black"/>
</svg>
