<svg width="24" height="25" viewBox="0 0 24 25" fill="none" xmlns="http://www.w3.org/2000/svg">
<path d="M9.9197 9.33008C10.3142 9.33008 10.6376 9.63473 10.6675 10.0216C10.9189 10.1468 11.1193 10.3273 11.2857 10.5269C11.5509 10.8451 11.5079 11.318 11.1897 11.5832C10.8715 11.8484 10.3986 11.8054 10.1334 11.4872C10.0603 11.3995 10.0157 11.3727 9.99835 11.3641C9.98616 11.3581 9.96153 11.3474 9.89659 11.349C9.86903 11.3498 9.8352 11.3559 9.79968 11.3696C9.76616 11.3825 9.73802 11.3994 9.71727 11.4162C9.75384 11.438 9.8042 11.4648 9.874 11.4978L10.1203 11.6103L10.1869 11.6399C10.2758 11.6794 10.3763 11.7241 10.4813 11.7752L10.5048 11.786C10.5266 11.7959 10.5478 11.8069 10.5682 11.8186C10.7366 11.9049 10.9112 12.008 11.0639 12.133C11.3785 12.3904 11.643 12.7749 11.643 13.3127C11.643 13.8124 11.4176 14.2368 11.0533 14.5169C10.9334 14.6091 10.8032 14.6823 10.667 14.7388C10.6346 15.1231 10.3124 15.4248 9.9197 15.4248C9.53413 15.4248 9.21651 15.1339 9.17443 14.7595C8.77998 14.5971 8.49539 14.3092 8.29877 14.0351C8.05739 13.6984 8.13458 13.2299 8.47119 12.9885C8.8078 12.7471 9.27636 12.8243 9.51775 13.1609C9.58918 13.2605 9.65084 13.3173 9.70033 13.3485C9.74175 13.3745 9.78774 13.3917 9.85973 13.3917C10.0297 13.3917 10.1151 13.3461 10.1392 13.3276L10.1424 13.325L10.1428 13.32C10.137 13.3139 10.1278 13.3051 10.1139 13.2938C10.0745 13.2615 10.0128 13.221 9.91654 13.1704C9.89021 13.1566 9.8628 13.1427 9.8341 13.1287L9.50409 12.9779L8.88883 12.7045L8.90166 12.6756C8.76737 12.5911 8.63609 12.4886 8.52418 12.3601C8.28674 12.0874 8.19779 11.7731 8.19095 11.4556C8.17999 10.9466 8.43441 10.5373 8.74338 10.2753C8.87193 10.1663 9.0174 10.0754 9.17332 10.006C9.21052 9.62656 9.53049 9.33008 9.9197 9.33008Z" fill="black"/>
<path d="M13.2422 10.3936C12.828 10.3936 12.4922 10.7293 12.4922 11.1436C12.4922 11.5578 12.828 11.8936 13.2422 11.8936H18.0937C18.5079 11.8936 18.8437 11.5578 18.8437 11.1436C18.8437 10.7293 18.5079 10.3936 18.0937 10.3936H13.2422Z" fill="black"/>
<path d="M13.2422 12.79C12.828 12.79 12.4922 13.1258 12.4922 13.54C12.4922 13.9543 12.828 14.29 13.2422 14.29H16.4355C16.8497 14.29 17.1855 13.9543 17.1855 13.54C17.1855 13.1258 16.8497 12.79 16.4355 12.79H13.2422Z" fill="black"/>
<path fill-rule="evenodd" clip-rule="evenodd" d="M2.98633 4.25635C2.98633 3.84213 3.32211 3.50635 3.73633 3.50635H18.0938C18.508 3.50635 18.8438 3.84213 18.8438 4.25635V7.0332H20.7363C21.1505 7.0332 21.4863 7.36899 21.4863 7.7832V16.9717C21.4863 17.3859 21.1505 17.7217 20.7363 17.7217H18.8438L18.8438 20.2563C18.8438 20.6706 18.508 21.0063 18.0938 21.0063L3.73633 21.0063C3.32211 21.0063 2.98633 20.6706 2.98633 20.2563V13.9663C2.98633 13.5521 3.32212 13.2163 3.73633 13.2163H5.53906V11.8081H3.73633C3.32211 11.8081 2.98633 11.4723 2.98633 11.0581V4.25635ZM5.53906 14.7163H4.48633L4.48633 19.5063L17.3438 19.5063L17.3438 17.7217H6.28906C5.87485 17.7217 5.53906 17.3859 5.53906 16.9717V14.7163ZM17.3438 5.00635V7.0332H6.28906C5.87485 7.0332 5.53906 7.36899 5.53906 7.7832V10.3081H4.48633V5.00635H17.3438ZM7.03906 16.2217V8.5332H19.9863V16.2217H7.03906Z" fill="black"/>
</svg>
