<svg width="25" height="25" viewBox="0 0 25 25" fill="none" xmlns="http://www.w3.org/2000/svg">
<path fill-rule="evenodd" clip-rule="evenodd" d="M11.7799 5.33174C12.0301 6.26955 12.0574 7.43564 11.998 8.4468C11.9968 8.46694 11.9948 8.48702 11.992 8.507C11.9076 9.10796 11.5637 9.56619 11.1823 9.86808C10.8066 10.1655 10.3431 10.3545 9.90578 10.3942C9.13381 10.4644 8.5278 10.2157 8.07757 9.86138C7.42309 9.38727 7.20202 8.5793 7.12965 7.96972C7.05305 7.32456 7.11379 6.66241 7.22241 6.22567C7.58804 4.64559 8.50813 3.52717 9.65079 3.39766C9.67331 3.3951 9.69594 3.39357 9.7186 3.39307C10.3094 3.37994 10.7891 3.63136 11.1349 4.02304C11.4587 4.38979 11.6551 4.86412 11.7799 5.33174ZM9.78853 4.89333C9.87169 4.89844 9.9351 4.93049 10.0104 5.01582C10.1185 5.13818 10.2356 5.36265 10.3306 5.71846C10.5173 6.41826 10.5556 7.38126 10.5027 8.32148C10.4787 8.44505 10.3996 8.57458 10.2513 8.69199C10.088 8.82122 9.89716 8.88882 9.76998 8.90038C9.42254 8.93196 9.18722 8.82823 8.99757 8.67656C8.98578 8.66712 8.9737 8.65805 8.96136 8.64934C8.8302 8.55685 8.67851 8.29257 8.61919 7.79288C8.56383 7.32657 8.61351 6.84435 8.67901 6.58391L8.68256 6.56919C8.972 5.31157 9.54946 4.94485 9.78853 4.89333Z" fill="black"/>
<path fill-rule="evenodd" clip-rule="evenodd" d="M3.24765 9.90583C3.66998 8.31529 5.5224 7.95714 6.66602 8.87016C7.07975 9.20047 7.52903 9.62344 7.83384 10.1096C8.14055 10.5987 8.36133 11.2583 8.08912 11.958C7.87665 12.5041 7.31969 13.0126 6.74829 13.3311C6.16004 13.659 5.34341 13.9051 4.53456 13.654C3.85291 13.4425 3.52937 12.8592 3.37169 12.4025C3.21031 11.9352 3.15604 11.4159 3.1261 11.0385C3.09455 10.6409 3.1566 10.2488 3.24765 9.90583ZM5.08489 9.89524C4.90012 9.94617 4.75474 10.0749 4.69742 10.2908C4.63313 10.5329 4.60763 10.7464 4.6214 10.9199C4.65048 11.2865 4.69533 11.6401 4.78954 11.9129C4.88642 12.1935 4.97409 12.2199 4.97903 12.2214C5.24391 12.3036 5.62002 12.2427 6.01796 12.0209C6.43276 11.7897 6.65558 11.5057 6.69118 11.4142C6.7245 11.3285 6.73554 11.1816 6.56299 10.9064C6.38853 10.6282 6.08901 10.3289 5.73015 10.0424C5.52205 9.87626 5.27896 9.84176 5.08489 9.89524Z" fill="black"/>
<path fill-rule="evenodd" clip-rule="evenodd" d="M12.1493 10.4163C12.1891 10.4148 12.2267 10.4141 12.2618 10.4141V10.4224C12.768 10.458 13.5409 10.6168 14.2152 11.0736C14.4246 11.2154 14.7663 11.5157 15.1169 11.8357C15.4852 12.1719 15.9143 12.5774 16.3207 12.9668C16.7278 13.3567 17.1149 13.733 17.4001 14.0117C17.5427 14.151 17.66 14.2661 17.7418 14.3465L17.8613 14.4641C18.8364 15.3735 19.0693 16.4889 18.9664 17.4636C18.8668 18.4079 18.4556 19.2431 18.0981 19.7434C17.8731 20.0673 17.4653 20.4602 16.9767 20.7796C16.4822 21.1029 15.8269 21.4021 15.104 21.4329C14.7595 21.4476 14.4053 21.4008 14.0671 21.3232C13.2296 21.1578 12.5473 20.8351 12.1485 20.618C11.757 20.83 11.0945 21.1428 10.2822 21.3113C9.92883 21.396 9.55639 21.4483 9.19461 21.4329C8.47168 21.4021 7.81642 21.1029 7.32191 20.7796C6.83331 20.4602 6.42542 20.0672 6.20042 19.7434C5.84299 19.243 5.43183 18.4078 5.33219 17.4636C5.22933 16.4889 5.46164 15.374 6.43677 14.4647L6.55685 14.3465C6.63856 14.2661 6.75586 14.151 6.89852 14.0117C7.18371 13.733 7.57085 13.3567 7.97789 12.9668C8.38433 12.5774 8.8134 12.1719 9.18169 11.8357C9.53235 11.5157 9.87403 11.2154 10.0834 11.0736C10.7577 10.6168 11.5306 10.458 12.0368 10.4224V10.4141C12.0719 10.4141 12.1095 10.4148 12.1493 10.4163ZM12.1493 11.918C11.8391 11.9384 11.3297 12.0411 10.9246 12.3155C10.8231 12.3843 10.5658 12.6033 10.1929 12.9436C9.83759 13.2679 9.41843 13.664 9.0155 14.05C8.61317 14.4354 8.2298 14.808 7.94682 15.0845C7.80539 15.2227 7.68919 15.3367 7.60842 15.4161L7.46549 15.5564C6.89644 16.0838 6.75991 16.6998 6.8239 17.3062C6.89108 17.9428 7.18229 18.5386 7.42326 18.8746L7.43113 18.8858C7.52241 19.0182 7.77746 19.2853 8.14268 19.5241C8.48012 19.7447 8.84456 19.8969 9.18386 19.9291C9.44099 19.9279 9.6881 19.9002 9.92111 19.8554C10.1872 19.7921 10.4707 19.6958 10.7506 19.5819C11.1342 19.4257 11.4061 19.2854 11.6065 19.1819C11.6937 19.1369 11.7677 19.0987 11.8311 19.0694C11.9323 19.0228 12.0409 18.9999 12.1493 19.0004C12.2577 18.9999 12.3663 19.0228 12.4675 19.0694C12.5309 19.0987 12.6047 19.1368 12.692 19.1819C12.8924 19.2853 13.1644 19.4257 13.5481 19.5819C13.8401 19.7007 14.1361 19.8005 14.4121 19.8634C14.6346 19.904 14.8698 19.9286 15.1144 19.9292C15.4538 19.897 15.8184 19.7447 16.1559 19.5241C16.5211 19.2853 16.7762 19.0182 16.8675 18.8858L16.8752 18.8746C17.1162 18.5385 17.4075 17.9428 17.4747 17.3062C17.5562 16.5343 17.2198 15.9378 16.6902 15.4161C16.6094 15.3367 16.4932 15.2227 16.3518 15.0845C16.0688 14.808 15.6854 14.4354 15.2831 14.05C14.8802 13.664 14.461 13.2679 14.1057 12.9436C13.7328 12.6033 13.4755 12.3843 13.374 12.3155C12.9689 12.0411 12.4595 11.9384 12.1493 11.918Z" fill="black"/>
<path fill-rule="evenodd" clip-rule="evenodd" d="M17.5047 8.92689C18.6859 7.96214 20.5894 8.39289 20.9717 10.029C21.0492 10.3607 21.0998 10.7339 21.0701 11.1078C21.0415 11.468 20.9994 11.976 20.85 12.4277C20.6987 12.8856 20.3822 13.4443 19.7064 13.654C18.8975 13.9051 18.0809 13.659 17.4926 13.3311C16.9212 13.0126 16.3643 12.5041 16.1518 11.958C15.8873 11.2782 16.0885 10.6349 16.3815 10.1512C16.6713 9.67249 17.1025 9.25537 17.5047 8.92689ZM19.511 10.3703C19.416 9.96371 18.8969 9.7265 18.4535 10.0887C18.1077 10.3711 17.8261 10.6613 17.6646 10.9281C17.506 11.1899 17.5171 11.3303 17.5497 11.4142C17.5853 11.5057 17.8082 11.7897 18.223 12.0209C18.6209 12.2427 18.9969 12.3036 19.2618 12.2214L19.2627 12.2212C19.2752 12.2176 19.3464 12.1972 19.4258 11.957C19.5097 11.7032 19.5443 11.3728 19.5748 10.9891C19.5883 10.8194 19.5669 10.6095 19.511 10.3703Z" fill="black"/>
<path fill-rule="evenodd" clip-rule="evenodd" d="M12.2425 8.4468C12.183 7.43564 12.2104 6.26955 12.4606 5.33174C12.5854 4.86412 12.7818 4.38979 13.1056 4.02304C13.4514 3.63136 13.9311 3.37994 14.5219 3.39307C14.5445 3.39357 14.5672 3.3951 14.5897 3.39766C15.7323 3.52717 16.6524 4.64559 17.0181 6.22567C17.1267 6.66241 17.1874 7.32456 17.1108 7.96972C17.0384 8.5793 16.8174 9.38727 16.1629 9.86138C15.7127 10.2157 15.1067 10.4644 14.3347 10.3942C13.8973 10.3545 13.4338 10.1655 13.0582 9.86808C12.6768 9.56619 12.3328 9.10796 12.2485 8.507C12.2457 8.48702 12.2437 8.46694 12.2425 8.4468ZM14.23 5.01582C14.3054 4.93049 14.3688 4.89844 14.4519 4.89333C14.691 4.94485 15.2685 5.31157 15.5579 6.56919L15.5615 6.58391C15.627 6.84435 15.6766 7.32657 15.6213 7.79288C15.562 8.29257 15.4103 8.55685 15.2791 8.64934C15.2668 8.65805 15.2547 8.66712 15.2429 8.67656C15.0532 8.82823 14.8179 8.93196 14.4705 8.90038C14.3433 8.88882 14.1524 8.82122 13.9892 8.69199C13.8409 8.57458 13.7618 8.44505 13.7378 8.32148C13.6849 7.38126 13.7232 6.41826 13.9099 5.71846C14.0048 5.36265 14.122 5.13818 14.23 5.01582Z" fill="black"/>
</svg>
