<svg width="25" height="25" viewBox="0 0 25 25" fill="none" xmlns="http://www.w3.org/2000/svg">
<path fill-rule="evenodd" clip-rule="evenodd" d="M20.8864 4.88631C21.1793 4.59343 21.1793 4.11856 20.8864 3.82565C20.5935 3.53274 20.1187 3.53272 19.8257 3.8256L18.6547 4.9965L18.3056 4.64739C17.9226 4.2643 17.3014 4.26429 16.9184 4.64739L4.66948 16.8963C4.57826 16.9875 4.50593 17.0958 4.45663 17.215L3.26801 20.089C2.93421 20.8962 3.74228 21.7042 4.5494 21.3704L7.42343 20.1818C7.54264 20.1325 7.65096 20.0602 7.74218 19.969L17.7643 9.94688L18.3293 10.5119L14.7264 14.1148C14.4335 14.4077 14.4335 14.8825 14.7264 15.1754C15.0193 15.4683 15.4942 15.4683 15.7871 15.1754L19.9203 11.0422C20.061 10.9015 20.14 10.7107 20.14 10.5118C20.14 10.3129 20.061 10.1221 19.9203 9.98146L18.8249 8.88622L19.9911 7.72009C20.3741 7.337 20.3741 6.71589 19.9911 6.3328L19.7154 6.05716L20.8864 4.88631ZM17.612 6.07506L5.80325 17.8838L5.1323 19.5061L6.75463 18.8352L18.5634 7.02644L17.612 6.07506Z" fill="black"/>
</svg>
