<svg width="25" height="25" viewBox="0 0 25 25" fill="none" xmlns="http://www.w3.org/2000/svg">
<path fill-rule="evenodd" clip-rule="evenodd" d="M7.43991 12.487C9.79783 12.487 11.7093 10.5755 11.7093 8.21762C11.7093 5.85971 9.79783 3.94824 7.43991 3.94824C5.082 3.94824 3.17053 5.85971 3.17053 8.21762C3.17053 10.5755 5.082 12.487 7.43991 12.487ZM7.43991 10.987C8.9694 10.987 10.2093 9.74711 10.2093 8.21762C10.2093 6.68814 8.9694 5.44824 7.43991 5.44824C5.91043 5.44824 4.67053 6.68814 4.67053 8.21762C4.67053 9.74711 5.91043 10.987 7.43991 10.987Z" fill="black"/>
<path d="M3.63529 21.4839C3.3424 21.191 3.3424 20.7162 3.6353 20.4233L19.5494 4.50946C19.8423 4.21657 20.3172 4.21657 20.61 4.50947C20.9029 4.80236 20.9029 5.27724 20.61 5.57013L4.69595 21.4839C4.40305 21.7768 3.92818 21.7768 3.63529 21.4839Z" fill="black"/>
<path fill-rule="evenodd" clip-rule="evenodd" d="M21.1705 17.6788C21.1705 20.0367 19.2591 21.9482 16.9012 21.9482C14.5432 21.9482 12.6318 20.0367 12.6318 17.6788C12.6318 15.3209 14.5432 13.4094 16.9012 13.4094C19.2591 13.4094 21.1705 15.3209 21.1705 17.6788ZM19.6705 17.6788C19.6705 19.2083 18.4306 20.4482 16.9012 20.4482C15.3717 20.4482 14.1318 19.2083 14.1318 17.6788C14.1318 16.1493 15.3717 14.9094 16.9012 14.9094C18.4306 14.9094 19.6705 16.1493 19.6705 17.6788Z" fill="black"/>
</svg>
