<svg width="25" height="24" viewBox="0 0 25 24" fill="none" xmlns="http://www.w3.org/2000/svg">
<path fill-rule="evenodd" clip-rule="evenodd" d="M20.6924 3.38128C21.0342 3.72299 21.0342 4.27701 20.6924 4.61872L4.69245 20.6187C4.35074 20.9604 3.79672 20.9604 3.45501 20.6187C3.1133 20.277 3.1133 19.723 3.45501 19.3813L19.455 3.38128C19.7967 3.03957 20.3507 3.03957 20.6924 3.38128Z" fill="black"/>
<path fill-rule="evenodd" clip-rule="evenodd" d="M7.07373 4.875C5.90013 4.875 4.94873 5.82639 4.94873 7C4.94873 8.1736 5.90013 9.125 7.07373 9.125C8.24734 9.125 9.19873 8.1736 9.19873 7C9.19873 5.82639 8.24734 4.875 7.07373 4.875ZM3.19873 7C3.19873 4.8599 4.93363 3.125 7.07373 3.125C9.21383 3.125 10.9487 4.8599 10.9487 7C10.9487 9.1401 9.21383 10.875 7.07373 10.875C4.93363 10.875 3.19873 9.1401 3.19873 7Z" fill="black"/>
<path fill-rule="evenodd" clip-rule="evenodd" d="M17.0737 14.875C15.9001 14.875 14.9487 15.8264 14.9487 17C14.9487 18.1736 15.9001 19.125 17.0737 19.125C18.2473 19.125 19.1987 18.1736 19.1987 17C19.1987 15.8264 18.2473 14.875 17.0737 14.875ZM13.1987 17C13.1987 14.8599 14.9336 13.125 17.0737 13.125C19.2138 13.125 20.9487 14.8599 20.9487 17C20.9487 19.1401 19.2138 20.875 17.0737 20.875C14.9336 20.875 13.1987 19.1401 13.1987 17Z" fill="black"/>
</svg>
