<svg width="25" height="25" viewBox="0 0 25 25" fill="none" xmlns="http://www.w3.org/2000/svg">
<path fill-rule="evenodd" clip-rule="evenodd" d="M7.43991 12.487C9.79783 12.487 11.7093 10.5755 11.7093 8.21762C11.7093 5.85971 9.79783 3.94824 7.43991 3.94824C5.082 3.94824 3.17053 5.85971 3.17053 8.21762C3.17053 10.5755 5.082 12.487 7.43991 12.487ZM7.43991 10.987C8.9694 10.987 10.2093 9.74711 10.2093 8.21762C10.2093 6.68814 8.9694 5.44824 7.43991 5.44824C5.91043 5.44824 4.67053 6.68814 4.67053 8.21762C4.67053 9.74711 5.91043 10.987 7.43991 10.987Z" fill="black"/>
<path d="M3.62579 21.4742C3.33826 21.176 3.3469 20.7012 3.64507 20.4137L18.3571 6.22711H16.9738C16.5596 6.22711 16.2238 5.89132 16.2238 5.47711C16.2238 5.0629 16.5596 4.72711 16.9738 4.72711L20.1758 4.72711C20.5901 4.72711 20.9258 5.0629 20.9258 5.47711V8.67915C20.9258 9.09336 20.5901 9.42915 20.1758 9.42915C19.7616 9.42915 19.4258 9.09336 19.4258 8.67915V7.28034L4.68627 21.4935C4.3881 21.781 3.91331 21.7724 3.62579 21.4742Z" fill="black"/>
<path fill-rule="evenodd" clip-rule="evenodd" d="M21.1705 17.6788C21.1705 20.0367 19.2591 21.9482 16.9012 21.9482C14.5432 21.9482 12.6318 20.0367 12.6318 17.6788C12.6318 15.3209 14.5432 13.4094 16.9012 13.4094C19.2591 13.4094 21.1705 15.3209 21.1705 17.6788ZM19.6705 17.6788C19.6705 19.2083 18.4306 20.4482 16.9012 20.4482C15.3717 20.4482 14.1318 19.2083 14.1318 17.6788C14.1318 16.1493 15.3717 14.9094 16.9012 14.9094C18.4306 14.9094 19.6705 16.1493 19.6705 17.6788Z" fill="black"/>
</svg>
