<svg width="24" height="25" viewBox="0 0 24 25" fill="none" xmlns="http://www.w3.org/2000/svg">
<path fill-rule="evenodd" clip-rule="evenodd" d="M7.26938 12.0388C9.62729 12.0388 11.5388 10.1273 11.5388 7.76938C11.5388 5.41147 9.62729 3.5 7.26938 3.5C4.91147 3.5 3 5.41147 3 7.76938C3 10.1273 4.91147 12.0388 7.26938 12.0388ZM7.26938 10.5388C8.79887 10.5388 10.0388 9.29887 10.0388 7.76938C10.0388 6.23989 8.79887 5 7.26938 5C5.73989 5 4.5 6.23989 4.5 7.76938C4.5 9.29887 5.73989 10.5388 7.26938 10.5388Z" fill="black"/>
<path d="M20.5449 4.50798C20.8325 4.80615 20.8238 5.28094 20.5256 5.56846L5.8136 19.7551H7.19691C7.61112 19.7551 7.94691 20.0909 7.94691 20.5051C7.94691 20.9193 7.61112 21.2551 7.19691 21.2551H3.99487C3.58066 21.2551 3.24487 20.9193 3.24487 20.5051V17.303C3.24487 16.8888 3.58066 16.553 3.99487 16.553C4.40909 16.553 4.74487 16.8888 4.74487 17.303V18.7019L19.4844 4.4887C19.7826 4.20118 20.2574 4.20981 20.5449 4.50798Z" fill="black"/>
<path fill-rule="evenodd" clip-rule="evenodd" d="M20.9999 17.2306C20.9999 19.5885 19.0885 21.5 16.7306 21.5C14.3726 21.5 12.4612 19.5885 12.4612 17.2306C12.4612 14.8727 14.3726 12.9612 16.7306 12.9612C19.0885 12.9612 20.9999 14.8727 20.9999 17.2306ZM19.4999 17.2306C19.4999 18.7601 18.26 20 16.7306 20C15.2011 20 13.9612 18.7601 13.9612 17.2306C13.9612 15.7011 15.2011 14.4612 16.7306 14.4612C18.26 14.4612 19.4999 15.7011 19.4999 17.2306Z" fill="black"/>
</svg>
