<svg width="25" height="25" viewBox="0 0 25 25" fill="none" xmlns="http://www.w3.org/2000/svg">
<path d="M12.344 10.1017C12.7582 10.1017 13.094 10.4375 13.094 10.8517V11.1747C13.1573 11.1984 13.2199 11.2254 13.2819 11.256C13.6002 11.4131 13.8607 11.6441 14.0853 11.9136C14.3505 12.2318 14.3075 12.7048 13.9893 12.9699C13.6711 13.2351 13.1982 13.1921 12.933 12.8739C12.8028 12.7177 12.6997 12.6415 12.618 12.6011C12.5414 12.5633 12.4465 12.5384 12.3011 12.5422C12.127 12.5468 11.9418 12.6186 11.8101 12.7303C11.6825 12.8385 11.6491 12.9413 11.6507 13.0153C11.6523 13.0893 11.6619 13.1246 11.6666 13.138C11.67 13.1478 11.6739 13.156 11.6864 13.1703C11.7253 13.2151 11.8295 13.2996 12.127 13.4403L12.5106 13.6155L12.5886 13.6502C12.7212 13.7091 12.8644 13.7729 13.0101 13.8437L13.0593 13.8661C13.0848 13.8778 13.1093 13.8907 13.1328 13.9047C13.3675 14.0244 13.6029 14.1634 13.8062 14.3297C14.2089 14.6593 14.5296 15.1327 14.5296 15.7939C14.5296 16.4171 14.2511 16.9398 13.799 17.2874C13.5878 17.4496 13.3483 17.5674 13.094 17.6455V17.8016C13.094 18.2158 12.7582 18.5516 12.344 18.5516C11.9298 18.5516 11.594 18.2158 11.594 17.8016V17.673C10.9793 17.4914 10.544 17.071 10.2433 16.6516C10.0019 16.315 10.0791 15.8465 10.4157 15.6051C10.7523 15.3637 11.2209 15.4409 11.4623 15.7775C11.7033 16.1135 11.9408 16.2663 12.2559 16.2663C12.565 16.2663 12.773 16.1841 12.8849 16.0981C12.9784 16.0262 13.0296 15.9377 13.0296 15.7939C13.0296 15.688 13.0016 15.6095 12.8561 15.4905C12.7351 15.3914 12.5722 15.2986 12.3549 15.1935L11.8944 14.9831L11.294 14.7163L11.2993 14.7043C11.0259 14.5628 10.7605 14.3913 10.5551 14.1553C10.2705 13.8284 10.1598 13.4508 10.1511 13.0476C10.1377 12.4268 10.4473 11.9192 10.84 11.5862C11.059 11.4005 11.3172 11.2559 11.594 11.1626V10.8517C11.594 10.4375 11.9298 10.1017 12.344 10.1017Z" fill="black"/>
<path fill-rule="evenodd" clip-rule="evenodd" d="M14.3141 5.05084C14.2209 5.04911 14.0623 5.0959 13.9045 5.27166C13.5038 5.71817 13.015 5.9559 12.4878 6.00545C11.9844 6.05276 11.5013 5.92396 11.0847 5.74489C10.902 5.66639 10.7145 5.56757 10.5615 5.48692C10.5236 5.46698 10.4879 5.44815 10.4549 5.43101C10.2651 5.33255 10.135 5.27329 10.0301 5.24375C9.96592 5.22566 9.93615 5.22611 9.92731 5.2271C9.91484 5.23363 9.87003 5.26321 9.8002 5.36335C9.79844 5.36583 9.76011 5.41997 9.79788 5.61132C9.83588 5.80379 9.93478 6.04116 10.0768 6.29525C10.2152 6.54274 10.3746 6.77106 10.5022 6.94021C10.5653 7.02382 10.619 7.09073 10.656 7.13573C10.6744 7.15818 10.6886 7.17504 10.6977 7.18566L10.7072 7.19678L10.7084 7.19818C10.7084 7.19818 10.7082 7.19795 10.1444 7.69256C9.58062 8.18716 9.58038 8.18689 9.58038 8.18689L9.57945 8.18583L9.57769 8.18381L9.57245 8.17778L9.5554 8.15788C9.54122 8.14123 9.52156 8.11785 9.49736 8.08843C9.44906 8.02969 9.38228 7.94632 9.30491 7.8438C9.15163 7.6407 8.94988 7.35336 8.76755 7.02722C8.58892 6.70769 8.40755 6.31348 8.32628 5.90184C8.24516 5.49093 8.24751 4.96756 8.56981 4.50537C8.79804 4.17807 9.08821 3.92508 9.45512 3.80325C9.81838 3.68264 10.1617 3.72242 10.4369 3.79995C10.7028 3.87488 10.9518 3.99897 11.1457 4.09956C11.1975 4.12644 11.2456 4.15176 11.2911 4.17568C11.4362 4.25196 11.5541 4.31397 11.677 4.3668C11.961 4.48887 12.1824 4.52754 12.3475 4.51203C12.4888 4.49875 12.6324 4.44335 12.7882 4.26978C13.1869 3.82547 13.7435 3.54004 14.3418 3.55109C14.9639 3.56258 15.5255 3.89422 15.8794 4.47671C16.1757 4.96439 16.1684 5.49019 16.0664 5.91901C15.9658 6.34234 15.76 6.73592 15.5592 7.05148C15.3545 7.37298 15.131 7.65068 14.9618 7.84547C14.8764 7.94382 14.8028 8.02336 14.7496 8.07933C14.7229 8.10736 14.7012 8.12961 14.6855 8.1455L14.6665 8.16454L14.6607 8.17036L14.6587 8.17233L14.6579 8.17308C14.6579 8.17308 14.6573 8.17366 14.1323 7.63802C13.6074 7.10238 13.6071 7.10262 13.6071 7.10262L13.6082 7.10161L13.6182 7.09153C13.6278 7.0818 13.643 7.06619 13.6629 7.04529C13.7028 7.0034 13.7608 6.94076 13.8293 6.86189C13.968 6.70225 14.1414 6.48533 14.2937 6.2461C14.4497 6.00092 14.5606 5.76765 14.6071 5.57208C14.6523 5.382 14.6225 5.29685 14.5975 5.2556C14.4897 5.07823 14.3835 5.05212 14.3141 5.05084ZM9.92731 5.2271L9.92437 5.22765ZM10.7084 7.19818V7.19818Z" fill="black"/>
<path fill-rule="evenodd" clip-rule="evenodd" d="M10.2589 6.99085L14.3723 6.99086L14.5673 7.12929C15.9153 8.08626 17.8433 9.72556 19.1199 11.676C20.396 13.6258 21.1229 16.0696 19.6463 18.4197C18.9603 19.5115 17.8219 20.2702 16.546 20.7512C15.2639 21.2345 13.7849 21.4608 12.3242 21.4484C10.8633 21.436 9.38622 21.1846 8.10773 20.6827C6.8357 20.1833 5.70304 19.4122 5.02217 18.3218C3.55434 15.9712 4.25608 13.5524 5.52167 11.6202C6.78481 9.69174 8.70256 8.07855 10.0654 7.1261L10.2589 6.99085ZM10.7339 8.49085C9.46986 9.39954 7.83784 10.8217 6.77646 12.4421C5.66329 14.1416 5.27134 15.8889 6.29448 17.5273C6.74903 18.2553 7.56793 18.8593 8.65588 19.2864C9.73736 19.711 11.0287 19.9374 12.3369 19.9485C13.6453 19.9596 14.9361 19.7551 16.0169 19.3476C17.1038 18.9379 17.9212 18.3459 18.3762 17.6217C19.399 15.9938 18.9974 14.228 17.8648 12.4975C16.7887 10.8532 15.1445 9.40606 13.8912 8.49086L10.7339 8.49085Z" fill="black"/>
</svg>
