<svg width="25" height="24" viewBox="0 0 25 24" fill="none" xmlns="http://www.w3.org/2000/svg">
<path d="M8.27596 3.46229C8.09971 3.29092 7.85067 3.2168 7.60939 3.26391C6.84733 3.41272 5.77347 3.8656 4.97537 4.77177C4.14599 5.71346 3.67043 7.08423 4.06554 8.91037C4.06932 8.92788 4.07374 8.94525 4.07877 8.96244C5.02843 12.2073 8.89071 19.0862 16.8602 20.718C16.8771 20.7214 16.8942 20.7243 16.9114 20.7266C18.0561 20.8794 20.3103 20.3275 21.3754 17.5199C21.4808 17.2422 21.4124 16.9286 21.2009 16.72L17.3994 12.9696C17.192 12.765 16.8849 12.699 16.6117 12.8004C16.2277 12.9429 15.6626 13.2367 15.1206 13.6768C14.7477 13.9796 14.3644 14.3693 14.0618 14.8487C13.3003 14.4417 12.469 13.7534 11.6757 12.9556C11.0324 12.3085 10.4485 11.6251 9.98973 11.0397C10.5515 10.7691 11.0101 10.3821 11.3689 9.98037C11.9404 9.34064 12.3004 8.61959 12.4641 8.12225C12.5537 7.84979 12.4801 7.55005 12.2745 7.35009L8.27596 3.46229Z" fill="black"/>
</svg>
