<svg width="25" height="24" viewBox="0 0 25 24" fill="none" xmlns="http://www.w3.org/2000/svg">
<path fill-rule="evenodd" clip-rule="evenodd" d="M7.60952 3.2639C7.85079 3.21679 8.09983 3.29091 8.27608 3.46228L12.2746 7.35008C12.4803 7.55004 12.5539 7.84978 12.4642 8.12224C12.3005 8.61958 11.9405 9.34063 11.3691 9.98036C11.0103 10.382 10.5516 10.7691 9.98985 11.0396C10.4486 11.625 11.0325 12.3085 11.6759 12.9556C12.4692 13.7534 13.3004 14.4417 14.0619 14.8487C14.3645 14.3693 14.7478 13.9796 15.1207 13.6768C15.6627 13.2367 16.2279 12.9429 16.6119 12.8004C16.885 12.699 17.1922 12.765 17.3996 12.9696L21.2011 16.72C21.4125 16.9285 21.4809 17.2422 21.3756 17.5199C20.3104 20.3275 18.0562 20.8794 16.9115 20.7266C16.8943 20.7243 16.8772 20.7214 16.8603 20.718C8.89083 19.0862 5.02856 12.2073 4.07889 8.96242C4.07386 8.94523 4.06944 8.92787 4.06566 8.91036C3.67055 7.08421 4.14612 5.71345 4.97549 4.77176C5.77359 3.86558 6.84745 3.4127 7.60952 3.2639ZM5.52618 8.56717C6.40073 11.5209 9.95218 17.7577 17.1325 19.2425C17.6347 19.2982 18.9655 19.0883 19.7826 17.4277L16.7167 14.4031C16.5185 14.5124 16.2911 14.6586 16.0663 14.8412C15.6539 15.1762 15.2957 15.5962 15.1131 16.0836C14.9707 16.4636 14.552 16.6614 14.168 16.5301C12.9169 16.1022 11.6482 15.0551 10.6122 14.0132C9.55698 12.952 8.65569 11.8058 8.14143 11.0641C7.99265 10.8496 7.96616 10.5731 8.07151 10.3342C8.17685 10.0953 8.39886 9.92833 8.65762 9.89347C9.30362 9.80645 9.83353 9.44774 10.2504 8.98109C10.5197 8.6796 10.7241 8.35181 10.8641 8.07075L7.5343 4.83319C7.06951 4.9889 6.51917 5.28854 6.10115 5.76317C5.60152 6.33046 5.23812 7.20373 5.52618 8.56717Z" fill="black"/>
</svg>
