<svg width="25" height="25" viewBox="0 0 25 25" fill="none" xmlns="http://www.w3.org/2000/svg">
<path fill-rule="evenodd" clip-rule="evenodd" d="M12.0533 12.5669C10.309 12.5669 8.89489 13.9809 8.89489 15.7253C8.89489 17.4696 10.309 18.8837 12.0533 18.8837C13.7976 18.8837 15.2117 17.4696 15.2117 15.7253C15.2117 13.9809 13.7976 12.5669 12.0533 12.5669ZM10.3949 15.7253C10.3949 14.8094 11.1374 14.0669 12.0533 14.0669C12.9692 14.0669 13.7117 14.8094 13.7117 15.7253C13.7117 16.6412 12.9692 17.3837 12.0533 17.3837C11.1374 17.3837 10.3949 16.6412 10.3949 15.7253Z" fill="black"/>
<path fill-rule="evenodd" clip-rule="evenodd" d="M3.09539 7.39857C3.48159 5.54274 5.33369 4.5937 7.05436 4.10496C8.84197 3.5972 10.8692 3.47213 12.2318 3.51167C13.2855 3.51262 14.8597 3.64775 16.4014 4.0393C17.9229 4.42569 19.5481 5.09504 20.5468 6.25778C21.1317 6.93878 21.099 7.82454 20.8714 8.47587L20.5388 9.42775C20.1244 10.6137 18.8191 11.2306 17.6397 10.7979L15.6708 10.0755C15.0157 9.83509 14.5802 9.21142 14.5802 8.5136V7.59315C14.3992 7.56642 14.2178 7.54267 14.0361 7.5219V9.95408C14.3081 10.0028 14.5941 10.0609 14.8974 10.1289C15.3035 10.2198 15.6762 10.4065 15.9907 10.6598L19.4375 13.4361C20.0906 13.9622 20.468 14.7575 20.4624 15.5961L20.4316 20.2297C20.4274 20.8618 19.9138 21.372 19.2816 21.372H4.78975C4.15164 21.372 3.63553 20.8525 3.63978 20.2144L3.67071 15.5619C3.67616 14.7423 4.04691 13.9679 4.6819 13.4497L8.08018 10.6763C8.40578 10.4106 8.79087 10.2201 9.20699 10.1273C9.50525 10.0608 9.79043 10.0004 10.0697 9.94857V7.5402C9.94413 7.55574 9.8187 7.5727 9.69342 7.59108L9.63892 7.59908V8.51005C9.63892 9.21344 9.19358 9.83971 8.52919 10.0707L6.35396 10.8268C5.16734 11.2393 3.87281 10.6002 3.47875 9.40731L3.18743 8.52544C3.08718 8.22198 3.00683 7.82409 3.09539 7.39857ZM12.1983 5.01133C10.9356 4.97376 9.06507 5.09317 7.46421 5.54788C5.79153 6.02299 4.76086 6.75786 4.56392 7.70418C4.55009 7.77064 4.55434 7.88124 4.61172 8.05493L4.90305 8.93679C5.0344 9.33442 5.46591 9.54745 5.86145 9.40996L8.03668 8.65382C8.09789 8.63255 8.13892 8.57485 8.13892 8.51005V7.47285C8.13892 6.80106 8.63153 6.23087 9.2962 6.13331L9.4756 6.10698C11.2977 5.83955 13.1498 5.84904 14.9691 6.13513C15.6089 6.23573 16.0802 6.78698 16.0802 7.43457V8.5136C16.0802 8.58225 16.1231 8.64362 16.1875 8.66727L18.1564 9.38969C18.5495 9.53394 18.9846 9.32831 19.1228 8.93298L19.4554 7.98109C19.5803 7.62349 19.5204 7.36489 19.4089 7.23513C18.7177 6.43031 17.466 5.85726 16.0322 5.49315C14.6242 5.13557 13.1705 5.01166 12.2206 5.01166H12.2095L12.1983 5.01133ZM11.5697 7.4226C11.8918 7.41184 12.214 7.41036 12.5361 7.41816V9.76976C12.292 9.75594 12.0558 9.75158 11.8234 9.75611C11.7381 9.75777 11.6536 9.76063 11.5697 9.76462V7.4226ZM9.53345 11.5913C10.4332 11.3907 11.1162 11.2702 11.8526 11.2558C12.5872 11.2415 13.4086 11.3326 14.5695 11.5926C14.7395 11.6306 14.9045 11.711 15.0498 11.828L18.4966 14.6043C18.7934 14.8434 18.965 15.2049 18.9624 15.5861L18.9339 19.872H5.14209L5.17068 15.5719C5.17316 15.1993 5.34168 14.8473 5.63031 14.6118L9.02859 11.8384C9.17794 11.7165 9.35122 11.632 9.53345 11.5913Z" fill="black"/>
</svg>
