<svg width="25" height="25" viewBox="0 0 25 25" fill="none" xmlns="http://www.w3.org/2000/svg">
<path fill-rule="evenodd" clip-rule="evenodd" d="M12.2996 4.02274C12.3639 3.4719 11.9234 2.95098 11.3219 2.99147C10.7927 3.0271 9.38118 3.17718 8.04339 3.83242C6.74434 4.46869 5.81726 5.3315 5.4667 5.68529C5.05321 6.10259 5.14079 6.76102 5.5816 7.08218L10.1543 10.4136C10.7305 10.8334 11.5455 10.4768 11.6283 9.76867L12.2996 4.02274ZM8.70319 5.17951C9.41046 4.8331 10.1625 4.65695 10.7257 4.56804L10.2513 8.62838L7.0314 6.28255C7.4313 5.9447 8.00633 5.52083 8.70319 5.17951Z" fill="black"/>
<path fill-rule="evenodd" clip-rule="evenodd" d="M14.3009 4.19828C13.6481 4.04612 13.0513 4.50428 12.9641 5.12152L11.9498 12.2965C10.3797 11.3013 7.35351 9.36958 5.96109 8.39053C5.4398 8.024 4.66595 8.15468 4.34225 8.77645C3.70037 10.0094 3.33789 11.4107 3.33789 12.8944C3.33789 17.8257 7.33553 21.8233 12.2669 21.8233C17.1982 21.8233 21.1958 17.8257 21.1958 12.8944C21.1958 8.66205 18.2519 5.11912 14.3009 4.19828ZM13.3512 13.1001L14.387 5.77211C17.4572 6.68448 19.6958 9.52882 19.6958 12.8944C19.6958 16.9973 16.3698 20.3233 12.2669 20.3233C8.16396 20.3233 4.83789 16.9973 4.83789 12.8944C4.83789 11.8196 5.06569 10.7996 5.47522 9.87882C7.21611 11.0713 10.4575 13.1284 11.658 13.887C12.3511 14.325 13.2398 13.8878 13.3512 13.1001Z" fill="black"/>
</svg>
