<svg width="24" height="25" viewBox="0 0 24 25" fill="none" xmlns="http://www.w3.org/2000/svg">
<path fill-rule="evenodd" clip-rule="evenodd" d="M4.82111 9.78546C4.82111 9.37125 5.15689 9.03546 5.57111 9.03546H9.42831C9.84252 9.03546 10.1783 9.37125 10.1783 9.78546V12.3569C10.1783 12.7711 9.84252 13.1069 9.42831 13.1069H5.57111C5.15689 13.1069 4.82111 12.7711 4.82111 12.3569V9.78546ZM6.32111 10.5355V11.6069H8.67831V10.5355H6.32111Z" fill="black"/>
<path d="M5.57111 15.4644C5.15689 15.4644 4.82111 15.8001 4.82111 16.2144C4.82111 16.6286 5.15689 16.9644 5.57111 16.9644H11.9998C12.414 16.9644 12.7498 16.6286 12.7498 16.2144C12.7498 15.8001 12.414 15.4644 11.9998 15.4644H5.57111Z" fill="black"/>
<path d="M17.0511 11.2763C16.9641 11.2334 16.8579 11.2062 16.6995 11.2103C16.5074 11.2153 16.304 11.2942 16.1588 11.4174C16.0176 11.5371 15.9754 11.6558 15.9774 11.7478C15.9791 11.8287 15.9897 11.87 15.9962 11.8888C16.0015 11.904 16.0082 11.9169 16.0245 11.9356C16.071 11.9891 16.1868 12.0808 16.5009 12.2293L16.927 12.4239L16.9871 12.4507C17.1238 12.5114 17.2705 12.5769 17.4195 12.6489L17.4819 12.6774C17.5089 12.6898 17.5348 12.7035 17.5595 12.7185C17.8041 12.8434 18.0484 12.9877 18.2591 13.1601C18.6761 13.5014 19.0058 13.989 19.0058 14.6702C19.0058 15.3133 18.7188 15.8519 18.2524 16.2104C18.0269 16.3838 17.7694 16.5082 17.4957 16.5891V16.875C17.4957 17.2892 17.1599 17.625 16.7457 17.625C16.3315 17.625 15.9957 17.2892 15.9957 16.875V16.6176C15.345 16.4343 14.8852 15.9929 14.5675 15.5498C14.3261 15.2132 14.4033 14.7446 14.7399 14.5033C15.0765 14.2619 15.545 14.3391 15.7864 14.6757C16.044 15.0349 16.3042 15.2061 16.6529 15.2061C16.9845 15.2061 17.2123 15.118 17.3383 15.0211C17.4461 14.9383 17.5058 14.8339 17.5058 14.6702C17.5058 14.5444 17.4688 14.4516 17.309 14.3208C17.1767 14.2125 16.9989 14.1118 16.7638 13.9985L16.3107 13.7915L15.6925 13.5168L15.6973 13.5059C15.4002 13.3549 15.1129 13.173 14.8931 12.9205C14.601 12.585 14.4867 12.1971 14.4777 11.7801C14.464 11.1412 14.7825 10.6178 15.1887 10.2733C15.4223 10.0753 15.6991 9.92233 15.9957 9.82613V9.47162C15.9957 9.0574 16.3315 8.72162 16.7457 8.72162C17.1599 8.72162 17.4957 9.0574 17.4957 9.47162V9.83798C17.5697 9.86456 17.6428 9.89555 17.715 9.93121C18.0437 10.0934 18.3137 10.3324 18.5475 10.613C18.8127 10.9312 18.7697 11.4041 18.4515 11.6693C18.1333 11.9344 17.6604 11.8915 17.3952 11.5732C17.2558 11.406 17.1433 11.3218 17.0511 11.2763Z" fill="black"/>
<path fill-rule="evenodd" clip-rule="evenodd" d="M2.24976 7.81411C2.24976 7.06853 2.85417 6.46411 3.59976 6.46411H20.4C21.1456 6.46411 21.75 7.06853 21.75 7.81411V18.1857C21.75 18.9313 21.1456 19.5357 20.4 19.5357H3.59976C2.85417 19.5357 2.24976 18.9313 2.24976 18.1857V7.81411ZM3.74976 7.96411V18.0357H20.25V7.96411H3.74976Z" fill="black"/>
</svg>
