<svg width="24" height="24" viewBox="0 0 24 24" fill="none" xmlns="http://www.w3.org/2000/svg">
<path fill-rule="evenodd" clip-rule="evenodd" d="M13.3999 11.1013C11.7444 11.1013 10.4023 12.4434 10.4023 14.0989C10.4023 15.7543 11.7444 17.0964 13.3999 17.0964C15.0554 17.0964 16.3974 15.7543 16.3974 14.0989C16.3974 12.4434 15.0554 11.1013 13.3999 11.1013ZM11.9023 14.0989C11.9023 13.2718 12.5728 12.6013 13.3999 12.6013C14.2269 12.6013 14.8974 13.2718 14.8974 14.0989C14.8974 14.9259 14.2269 15.5964 13.3999 15.5964C12.5728 15.5964 11.9023 14.9259 11.9023 14.0989Z" fill="black"/>
<path fill-rule="evenodd" clip-rule="evenodd" d="M2.66553 5.79461C2.66553 5.12398 3.20918 4.58032 3.87981 4.58032H16.3619C17.0325 4.58032 17.5762 5.12397 17.5762 5.79461V8.41187H20.1201C20.7907 8.41187 21.3344 8.95552 21.3344 9.62615V18.2766C21.3344 18.9473 20.7907 19.4909 20.1201 19.4909H6.68011C6.00948 19.4909 5.46582 18.9473 5.46582 18.2766V15.3646H3.87981C3.20918 15.3646 2.66553 14.821 2.66553 14.1503V11.52C2.66553 11.52 2.66553 11.52 2.66553 11.52V5.79461ZM4.16553 12.2987V13.8646H5.27374C5.37517 13.1239 4.87662 12.4444 4.16553 12.2987ZM5.46582 11.2393C5.0871 10.992 4.64536 10.83 4.16553 10.7837V8.65118C5.64136 8.54861 6.85225 7.48408 7.17547 6.08032H13.0712C13.3584 7.25421 14.3047 8.16952 15.4955 8.41187H6.68011C6.00947 8.41187 5.46582 8.95552 5.46582 9.62615V11.2393ZM16.0762 6.08032V6.97434C15.4591 6.956 14.9273 6.59772 14.6618 6.08032H16.0762ZM5.59994 6.08032C5.34417 6.64848 4.80675 7.06248 4.16553 7.14444V6.08032H5.59994ZM6.9917 13.8646V15.131C8.50015 15.2723 9.69899 16.479 9.82807 17.9909H16.9722C17.102 16.4704 18.3138 15.2585 19.8344 15.1287V12.7741C18.3138 12.6443 17.102 11.4324 16.9722 9.91187H9.82807C9.69828 11.4325 8.48643 12.6443 6.96582 12.7741V13.8646H6.9917ZM6.96582 16.6394V17.9909H8.31736C8.20274 17.2997 7.65707 16.754 6.96582 16.6394ZM19.8344 11.2634C19.1432 11.1488 18.5975 10.6031 18.4829 9.91187H19.8344V11.2634ZM18.4829 17.9909H19.8344V16.6394C19.1432 16.7541 18.5976 17.2997 18.4829 17.9909ZM8.31737 9.91187C8.20277 10.6031 7.65709 11.1488 6.96582 11.2634V9.91187H8.31737Z" fill="black"/>
</svg>
