<svg width="25" height="25" viewBox="0 0 25 25" fill="none" xmlns="http://www.w3.org/2000/svg">
<path fill-rule="evenodd" clip-rule="evenodd" d="M12.254 2.60938C6.7443 2.60938 2.27783 7.07584 2.27783 12.5855C2.27783 18.0952 6.7443 22.5616 12.254 22.5616C17.7636 22.5616 22.2301 18.0952 22.2301 12.5855C22.2301 7.07584 17.7636 2.60938 12.254 2.60938ZM6.86388 6.04366C8.32883 4.83524 10.2066 4.10938 12.254 4.10938C16.9352 4.10938 20.7301 7.90427 20.7301 12.5855C20.7301 14.6842 19.9673 16.6048 18.7039 18.0852L6.86388 6.04366ZM5.7952 7.09624C4.53704 8.57516 3.77783 10.4917 3.77783 12.5855C3.77783 17.2667 7.57272 21.0616 12.254 21.0616C14.2964 21.0616 16.1701 20.3392 17.6335 19.136L5.7952 7.09624Z" fill="black"/>
</svg>
