<svg width="25" height="25" viewBox="0 0 25 25" fill="none" xmlns="http://www.w3.org/2000/svg">
<path d="M11.3646 9.92352C11.3672 9.74227 11.4316 9.49631 11.5749 9.31336C11.6941 9.16106 11.8985 9.00805 12.3156 9.00806C12.6957 9.00807 12.9613 9.12043 13.1211 9.26189C13.2709 9.39442 13.3824 9.59872 13.3824 9.91742C13.3824 10.1619 13.3234 10.2746 13.2378 10.3821C13.1817 10.4525 13.1052 10.5291 12.9902 10.6327C12.9575 10.6621 12.9095 10.7043 12.8552 10.7519C12.767 10.8293 12.6624 10.9211 12.5813 10.9955L12.5739 11.0023L12.5667 11.0093C12.3385 11.23 12.1142 11.4588 11.9408 11.7266C11.7546 12.014 11.6434 12.3186 11.5885 12.6803C11.5264 13.0899 11.808 13.4722 12.2176 13.5343C12.6271 13.5965 13.0094 13.3148 13.0715 12.9053C13.0975 12.7339 13.1399 12.6345 13.1997 12.5421C13.2715 12.4312 13.3842 12.3058 13.6023 12.0944C13.6523 12.0488 13.7101 11.9983 13.7723 11.9439C13.9772 11.7647 14.2301 11.5436 14.4106 11.3171C14.7045 10.9486 14.8824 10.5074 14.8824 9.91742C14.8824 9.20268 14.611 8.57731 14.1152 8.13854C13.6294 7.70867 12.9865 7.50807 12.3157 7.50806C11.4415 7.50804 10.7999 7.8699 10.3938 8.38869C10.0116 8.87683 9.87118 9.45818 9.86475 9.9018C9.85875 10.316 10.1896 10.6566 10.6038 10.6626C11.018 10.6686 11.3586 10.3377 11.3646 9.92352Z" fill="black"/>
<path d="M12.3731 14.1908C11.9377 14.1908 11.5847 14.5438 11.5847 14.9792C11.5847 15.4146 11.9377 15.7676 12.3731 15.7676C12.8085 15.7676 13.1615 15.4146 13.1615 14.9792C13.1615 14.5438 12.8085 14.1908 12.3731 14.1908Z" fill="black"/>
<path fill-rule="evenodd" clip-rule="evenodd" d="M11.283 3.95478C13.4228 3.71872 15.6 4.14814 17.4048 5.17638C19.2107 6.20525 20.5379 7.77575 21.089 9.61566C21.642 11.4616 21.3619 13.4098 20.3217 15.0773C19.2855 16.7385 17.5779 17.9924 15.5516 18.634C13.6276 19.2432 11.5177 19.2695 9.57832 18.7135L4.99061 21.1222C4.71145 21.2688 4.37044 21.2251 4.13723 21.0129C3.90402 20.8007 3.82842 20.4653 3.94805 20.1736L5.52425 16.33C4.26155 15.0182 3.53316 13.3646 3.50053 11.6234C3.46476 9.71393 4.26927 7.88559 5.71571 6.48098C7.15874 5.0797 9.14357 4.19082 11.283 3.95478ZM6.86086 15.5414C7.12858 15.7412 7.23832 16.1036 7.10572 16.4269L6.11769 18.8363L9.15761 17.2402C9.36511 17.1313 9.60034 17.1292 9.80037 17.2143C11.5076 17.7473 13.3928 17.7442 15.0988 17.204C16.8287 16.6562 18.2247 15.6049 19.049 14.2834C19.8694 12.9683 20.077 11.4646 19.6521 10.0461C19.2254 8.62158 18.1772 7.34284 16.6623 6.4797C15.1462 5.61593 13.2888 5.2426 11.4475 5.44574C9.60605 5.6489 7.94141 6.41053 6.7607 7.55709C5.5834 8.70033 4.97299 10.1394 5.00027 11.5953C5.02716 13.0303 5.67272 14.4346 6.86086 15.5414Z" fill="black"/>
</svg>
