<svg width="24" height="24" viewBox="0 0 24 24" fill="none" xmlns="http://www.w3.org/2000/svg">
<path d="M3.49039 6.83261L3.55545 7.15792C5.22295 4.29993 8.32232 2.37793 11.872 2.37793C16.9553 2.37793 21.1173 6.31934 21.4698 11.3134C21.499 11.7266 21.1876 12.0852 20.7745 12.1143C20.3613 12.1435 20.0027 11.8322 19.9735 11.419C19.6761 7.20485 16.1622 3.87793 11.872 3.87793C8.86663 3.87793 6.24119 5.51037 4.83632 7.93903L5.34925 7.73386C5.60564 7.6313 5.89663 7.75601 5.99918 8.0124C6.10174 8.26879 5.97703 8.55978 5.72064 8.66233L3.60827 9.50728C3.47034 9.56245 3.31503 9.55344 3.18442 9.48268C3.0538 9.41193 2.96141 9.28676 2.93228 9.1411L2.50981 7.02873C2.45565 6.75795 2.63126 6.49453 2.90204 6.44038C3.17282 6.38622 3.43623 6.56183 3.49039 6.83261Z" fill="black"/>
<path d="M3.75 11.9999C3.75 11.5857 3.41421 11.2499 3 11.2499C2.58579 11.2499 2.25 11.5857 2.25 11.9999C2.25 17.314 6.5579 21.6219 11.872 21.6219C15.5196 21.6219 18.6917 19.5922 20.3231 16.6035L20.4666 17.173C20.5408 17.4675 20.8398 17.6462 21.1344 17.572C21.429 17.4977 21.6076 17.1988 21.5334 16.9042L20.9544 14.6061C20.9145 14.4476 20.8061 14.3151 20.6588 14.2445C20.5114 14.1738 20.3403 14.1724 20.1917 14.2405L17.9166 15.2837C17.6405 15.4103 17.5193 15.7368 17.6459 16.013C17.7725 16.2891 18.099 16.4103 18.3751 16.2837L18.9242 16.0319C17.5233 18.4768 14.8891 20.1219 11.872 20.1219C7.38633 20.1219 3.75 16.4855 3.75 11.9999Z" fill="black"/>
<path d="M14.4993 6.3932C14.9135 6.39326 15.2492 6.72909 15.2492 7.14331L15.2489 9.01807C15.6074 9.33723 15.9587 9.65308 16.2732 9.94119C16.5787 10.221 16.5995 10.6954 16.3197 11.0008C16.04 11.3063 15.5656 11.3271 15.2601 11.0473C14.2085 10.0842 12.7316 8.79803 11.9695 8.13838L8.65801 11.0569C8.34726 11.3308 7.87333 11.3009 7.59946 10.9902C7.32558 10.6794 7.35547 10.2055 7.66622 9.93161L11.13 6.87883C11.6026 6.46235 12.313 6.45258 12.7953 6.86938C13.0274 7.06995 13.3627 7.36051 13.7491 7.69761L13.7492 7.1431C13.7492 6.72888 14.0851 6.39314 14.4993 6.3932Z" fill="black"/>
<path d="M12.2539 12.6922C12.1812 12.6564 12.0907 12.6323 11.9501 12.636C11.7828 12.6404 11.6044 12.7095 11.4778 12.8169C11.3553 12.9208 11.3253 13.0177 11.3267 13.0848C11.3283 13.1562 11.3375 13.1892 11.3415 13.2006C11.3442 13.2084 11.347 13.2148 11.3581 13.2275C11.3942 13.269 11.494 13.3508 11.7852 13.4885L12.1842 13.6708L12.2374 13.6944C12.3642 13.7508 12.5011 13.8118 12.6407 13.8793L12.6992 13.906C12.7257 13.9181 12.7512 13.9316 12.7756 13.9463C13.005 14.0636 13.2354 14.1997 13.4345 14.3627C13.8319 14.6879 14.1491 15.1559 14.1491 15.8096C14.1491 16.4253 13.8739 16.9421 13.4271 17.2855C13.2217 17.4434 12.9893 17.5584 12.7427 17.6355V17.8565C12.7427 18.2707 12.4069 18.6065 11.9927 18.6065C11.5785 18.6065 11.2427 18.2707 11.2427 17.8565V17.6633C10.641 17.4825 10.2146 17.0698 9.92011 16.6591C9.67873 16.3225 9.75592 15.854 10.0925 15.6126C10.4291 15.3712 10.8977 15.4484 11.1391 15.785C11.3738 16.1123 11.6028 16.2581 11.9052 16.2581C12.2059 16.2581 12.4064 16.1781 12.513 16.0962C12.6012 16.0284 12.6491 15.9459 12.6491 15.8096C12.6491 15.7112 12.6246 15.6382 12.4844 15.5235C12.3649 15.4256 12.2029 15.3339 11.9849 15.2288L11.568 15.0384L10.9428 14.7605L10.9485 14.7478C10.6839 14.6099 10.4268 14.4422 10.2268 14.2124C9.9451 13.8889 9.83565 13.5152 9.82707 13.1171C9.81385 12.5031 10.1201 12.0015 10.5077 11.6728C10.7214 11.4916 10.9729 11.3501 11.2427 11.2579V11.0106C11.2427 10.5964 11.5785 10.2606 11.9927 10.2606C12.4069 10.2606 12.7427 10.5964 12.7427 11.0106V11.2708C12.8016 11.2932 12.86 11.3186 12.9178 11.3472C13.2322 11.5023 13.4892 11.7303 13.7103 11.9956C13.9755 12.3139 13.9325 12.7868 13.6143 13.0519C13.2961 13.3171 12.8232 13.2741 12.558 12.9559C12.4313 12.8039 12.3317 12.7306 12.2539 12.6922Z" fill="black"/>
</svg>
