<svg width="25" height="25" viewBox="0 0 25 25" fill="none" xmlns="http://www.w3.org/2000/svg">
<path fill-rule="evenodd" clip-rule="evenodd" d="M17.0679 10.575C17.0679 10.1607 16.7321 9.82495 16.3179 9.82495C15.9037 9.82495 15.5679 10.1607 15.5679 10.575V10.5796L15.2752 10.2764C14.8639 9.85039 14.1819 9.84851 13.7683 10.2722L11.0316 13.076C10.7423 13.3724 10.7481 13.8473 11.0445 14.1366C11.2244 14.3123 11.4702 14.3791 11.7002 14.3383V15.5857C11.7002 16.2761 12.2598 16.8357 12.9502 16.8357H16.094C16.7844 16.8357 17.344 16.2761 17.344 15.5857V14.3749C17.5729 14.4158 17.8175 14.3501 17.9976 14.1763C18.2956 13.8886 18.3039 13.4138 18.0162 13.1158L17.0679 12.1334V10.575ZM15.844 13.0253L14.518 11.6517L13.2002 13.0018V15.3357H15.844V13.0253Z" fill="black"/>
<path fill-rule="evenodd" clip-rule="evenodd" d="M7.33838 3.7666C7.33838 3.35239 7.00259 3.0166 6.58838 3.0166C6.17417 3.0166 5.83838 3.35239 5.83838 3.7666V5.10693H4.73975C4.32553 5.10693 3.98975 5.44272 3.98975 5.85693C3.98975 6.27115 4.32553 6.60693 4.73975 6.60693H5.83838L5.83838 20.2231C5.83838 20.6374 6.17417 20.9731 6.58838 20.9731C7.00259 20.9731 7.33838 20.6374 7.33838 20.2231L7.33838 6.60693L10.5806 6.60693V7.31812H10.1333C9.1668 7.31812 8.3833 8.10162 8.3833 9.06812V17.1264C8.3833 18.0929 9.1668 18.8764 10.1333 18.8764H18.911C19.8775 18.8764 20.661 18.0929 20.661 17.1264V9.06812C20.661 8.10162 19.8775 7.31812 18.911 7.31812H18.4209V6.60693L21.3024 6.60693C21.7166 6.60693 22.0524 6.27115 22.0524 5.85693C22.0524 5.44272 21.7166 5.10693 21.3024 5.10693L7.33838 5.10693V3.7666ZM16.9209 9.47794V8.81812H12.0806V9.47794C12.0806 9.89216 11.7448 10.2279 11.3306 10.2279C10.9164 10.2279 10.5806 9.89216 10.5806 9.47794V8.81812H10.1333C9.99523 8.81812 9.8833 8.93004 9.8833 9.06812V17.1264C9.8833 17.2645 9.99523 17.3764 10.1333 17.3764H18.911C19.0491 17.3764 19.161 17.2645 19.161 17.1264V9.06812C19.161 8.93004 19.0491 8.81812 18.911 8.81812H18.4209V9.47794C18.4209 9.89216 18.0851 10.2279 17.6709 10.2279C17.2567 10.2279 16.9209 9.89216 16.9209 9.47794ZM16.9209 6.60693V7.31812H12.0806V6.60693L16.9209 6.60693Z" fill="black"/>
</svg>
