<svg width="25" height="24" viewBox="0 0 25 24" fill="none" xmlns="http://www.w3.org/2000/svg">
<path fill-rule="evenodd" clip-rule="evenodd" d="M9.04863 16.2739C9.28294 16.2739 9.4268 16.0174 9.30459 15.8175L8.7853 14.9681L8.78253 14.9638C8.77389 14.9507 8.76494 14.9379 8.75569 14.9254C8.72861 14.8888 8.73503 14.8358 8.77095 14.8079C8.85994 14.7398 8.9359 14.6617 8.99762 14.5733L8.99839 14.5722C9.0595 14.483 9.10581 14.3862 9.13712 14.2824C9.16856 14.1781 9.18383 14.0687 9.18383 13.9548C9.18383 13.8058 9.15812 13.6648 9.10494 13.5335C9.04949 13.3966 8.96065 13.2796 8.84237 13.1829C8.72367 13.0847 8.57524 13.0131 8.4031 12.9638C8.22857 12.912 8.02375 12.8879 7.79176 12.8879H6.93623C6.77055 12.8879 6.63623 13.0223 6.63623 13.1879V15.9739C6.63623 16.1396 6.77055 16.2739 6.93623 16.2739H7.35908C7.52476 16.2739 7.65908 16.1396 7.65908 15.9739V15.1627C7.65908 15.1478 7.67121 15.1357 7.68617 15.1357C7.70543 15.1357 7.71837 15.1373 7.72631 15.139L7.72959 15.1398C7.73168 15.1404 7.73366 15.1413 7.73555 15.1424L7.73684 15.1432C7.73935 15.145 7.74904 15.1527 7.76084 15.1709L8.27042 16.0616C8.35474 16.2074 8.49689 16.2739 8.66184 16.2739H9.04863ZM7.79176 13.7313C7.95981 13.7313 8.05125 13.7667 8.09786 13.8073L8.09878 13.8081C8.14768 13.85 8.17787 13.9097 8.17787 14.0076C8.17787 14.0597 8.17034 14.1063 8.15642 14.1482C8.14442 14.1831 8.12556 14.2134 8.09853 14.2404C8.0736 14.2653 8.03788 14.2888 7.98644 14.3078C7.94021 14.324 7.87665 14.3345 7.79176 14.3345C7.71848 14.3345 7.65908 14.2751 7.65908 14.2019V13.864C7.65908 13.7907 7.71848 13.7313 7.79176 13.7313Z" fill="black"/>
<path d="M11.9977 14.455C11.9977 14.2894 11.8634 14.155 11.6977 14.155H11.235C11.1221 14.155 11.0305 14.0635 11.0305 13.9506C11.0305 13.8376 11.1221 13.7461 11.235 13.7461H11.9934C12.1591 13.7461 12.2934 13.6118 12.2934 13.4461V13.1879C12.2934 13.0223 12.1591 12.8879 11.9934 12.8879H10.3035C10.1378 12.8879 10.0035 13.0223 10.0035 13.1879V15.9739C10.0035 16.1396 10.1378 16.2739 10.3035 16.2739H11.9934C12.1591 16.2739 12.2934 16.1396 12.2934 15.9739V15.7158C12.2934 15.5501 12.1591 15.4158 11.9934 15.4158H11.2424C11.1254 15.4158 11.0305 15.3209 11.0305 15.2039C11.0305 15.0869 11.1254 14.992 11.2424 14.992H11.6977C11.8634 14.992 11.9977 14.8577 11.9977 14.692V14.455Z" fill="black"/>
<path d="M16.0113 13.1879C16.0113 13.0223 15.8769 12.8879 15.7113 12.8879H15.3729C15.2072 12.8879 15.0729 13.0223 15.0729 13.1879V14.5321L13.9041 13.0563L13.9022 13.054C13.8798 13.0268 13.857 13.0017 13.8341 12.9809C13.8086 12.9578 13.7793 12.9377 13.7459 12.9231C13.7133 12.9074 13.6792 12.8981 13.6449 12.8935C13.6148 12.8895 13.5814 12.8879 13.5464 12.8879H13.316C13.1503 12.8879 13.016 13.0223 13.016 13.1879V15.9739C13.016 16.1396 13.1503 16.2739 13.316 16.2739H13.6543C13.82 16.2739 13.9543 16.1396 13.9543 15.9739V14.6293L15.1146 16.097L15.1175 16.1004C15.1627 16.1544 15.2151 16.2017 15.2765 16.2324L15.2829 16.2353C15.3459 16.2633 15.4151 16.2739 15.485 16.2739H15.7113C15.8769 16.2739 16.0113 16.1396 16.0113 15.9739V13.1879Z" fill="black"/>
<path d="M19.1106 13.763C19.2763 13.763 19.4106 13.6286 19.4106 13.463V13.1879C19.4106 13.0223 19.2763 12.8879 19.1106 12.8879H16.9561C16.7904 12.8879 16.6561 13.0223 16.6561 13.1879V13.463C16.6561 13.6286 16.7904 13.763 16.9561 13.763H17.5219V15.9739C17.5219 16.1396 17.6563 16.2739 17.8219 16.2739H18.2448C18.4105 16.2739 18.5448 16.1396 18.5448 15.9739V13.763H19.1106Z" fill="black"/>
<path fill-rule="evenodd" clip-rule="evenodd" d="M18.9131 8.25L14.1888 3.9948C14.1861 3.32653 13.6435 2.78564 12.9745 2.78564C12.3055 2.78564 11.7628 3.32672 11.7603 3.99515L7.03637 8.25H5.97461C5.00811 8.25 4.22461 9.0335 4.22461 10V19C4.22461 19.9665 5.00811 20.75 5.97461 20.75H19.9746C20.9411 20.75 21.7246 19.9665 21.7246 19V10C21.7246 9.0335 20.9411 8.25 19.9746 8.25H18.9131ZM13.2631 5.17973C13.1706 5.20227 13.074 5.21422 12.9745 5.21422C12.8752 5.21422 12.7787 5.20229 12.6863 5.1798L9.27767 8.25H16.6718L13.2631 5.17973ZM5.72461 10C5.72461 9.86193 5.83654 9.75 5.97461 9.75H19.9746C20.1127 9.75 20.2246 9.86193 20.2246 10V19C20.2246 19.1381 20.1127 19.25 19.9746 19.25H5.97461C5.83654 19.25 5.72461 19.1381 5.72461 19V10Z" fill="black"/>
</svg>
