<svg width="25" height="25" viewBox="0 0 25 25" fill="none" xmlns="http://www.w3.org/2000/svg">
<path fill-rule="evenodd" clip-rule="evenodd" d="M6.59727 7.50452C6.14746 6.96723 5.41355 6.62024 4.53819 6.845C4.13782 6.9478 3.72661 6.706 3.61971 6.30493C3.51282 5.90386 3.75072 5.49539 4.15109 5.39259C5.66481 5.00392 6.97378 5.62888 7.74434 6.5493C7.95827 6.80484 8.14278 7.10137 8.27885 7.41928C8.64507 7.0993 9.07547 6.83301 9.56071 6.65571C10.6208 6.26836 11.8756 6.33141 13.1659 7.07703C13.5261 7.28515 13.6479 7.74163 13.4379 8.0966C13.2279 8.45157 12.7657 8.57061 12.4055 8.36249C11.4818 7.82874 10.6983 7.83028 10.088 8.0533C9.72008 8.18772 9.39185 8.41159 9.12287 8.68545C9.68188 8.76353 10.2648 8.96155 10.7852 9.2676C11.8452 9.8909 12.756 11.0225 12.8118 12.7121C12.8255 13.1261 12.501 13.4728 12.087 13.4865C11.6731 13.5002 11.3264 13.1757 11.3127 12.7617C11.2763 11.6607 10.7105 10.9638 10.0249 10.5606C9.47134 10.2351 8.89798 10.1328 8.51077 10.15C8.28052 10.9188 8.01389 12.2722 8.02822 13.7841C8.04535 15.5925 8.46262 17.5075 9.69128 18.9266C9.71171 18.9502 9.73041 18.9747 9.74738 19H11.3013C11.3011 18.9941 11.3008 18.9882 11.3006 18.982L11.2998 18.9651V18.9482C11.2998 16.5711 13.2268 14.644 15.6039 14.644C17.9788 14.644 19.9044 16.5674 19.9081 18.9414L19.9082 18.9507C19.9085 18.9668 19.9088 18.9832 19.909 19H21.3063C21.7205 19 22.0563 19.3358 22.0563 19.75C22.0563 20.1642 21.7205 20.5 21.3063 20.5H11.9278L11.916 20.5121C11.9119 20.5081 11.9078 20.504 11.9037 20.5H3.25C2.83579 20.5 2.5 20.1642 2.5 19.75C2.5 19.3358 2.83579 19 3.25 19H7.88681C6.86631 17.3694 6.54408 15.4652 6.52828 13.7983C6.51379 12.2682 6.75646 10.8667 7.01327 9.93136C6.95359 9.8744 6.90479 9.80922 6.86748 9.73892C5.80574 9.33407 4.48363 9.70941 3.89238 10.6133C3.66563 10.9599 3.20081 11.0571 2.85417 10.8304C2.50753 10.6036 2.41034 10.1388 2.63709 9.79216C3.54502 8.40417 5.36767 7.79184 6.97632 8.20225C6.91692 7.98263 6.7968 7.74286 6.59727 7.50452ZM12.8019 19H18.4087C18.4086 18.9877 18.4084 18.9747 18.4082 18.961L18.4079 18.9482C18.4079 17.3995 17.1526 16.144 15.6039 16.144C14.0602 16.144 12.8079 17.3915 12.7998 18.9333C12.8007 18.956 12.8014 18.9783 12.8019 19Z" fill="black"/>
</svg>
