<svg width="24" height="24" viewBox="0 0 24 24" fill="none" xmlns="http://www.w3.org/2000/svg">
<path fill-rule="evenodd" clip-rule="evenodd" d="M6.68573 19.4172H6.17331C5.22355 19.4172 4.45361 18.6473 4.45361 17.6975V12.4878L4.39039 12.5549C4.1065 12.8566 3.63185 12.8709 3.33022 12.5871C3.02859 12.3032 3.0142 11.8285 3.29809 11.5269L10.7565 3.60234C11.4271 2.88979 12.5602 2.87473 13.2439 3.587C13.9992 4.37381 15.2833 5.7161 16.687 7.20319V5.58432C16.687 5.17011 17.0228 4.83432 17.437 4.83432C17.8512 4.83432 18.187 5.17011 18.187 5.58432V8.79992C19.0689 9.74364 19.9418 10.6878 20.7113 11.5374C20.9894 11.8445 20.9659 12.3188 20.6589 12.5968C20.3519 12.8749 19.8776 12.8514 19.5995 12.5444L19.5463 12.4856V17.6975C19.5463 18.6473 18.7763 19.4172 17.8266 19.4172H17.604C17.4972 20.262 16.7762 20.9465 15.867 20.9465H14.1627C14.1547 20.9466 14.1467 20.9466 14.1388 20.9465H8.42255C7.5168 20.9465 6.79262 20.2653 6.68573 19.4172ZM11.8488 4.63039C11.9372 4.53643 12.0785 4.53903 12.1618 4.62576C13.3546 5.8684 15.856 8.4856 18.062 10.8676C18.0517 10.9172 18.0463 10.9686 18.0463 11.0213V17.6975C18.0463 17.8188 17.9479 17.9172 17.8266 17.9172H17.388L16.32 12.7909H17.0973C17.5115 12.7909 17.8473 12.4551 17.8473 12.0409C17.8473 11.6266 17.5115 11.2909 17.0973 11.2909H13.7158C13.7048 11.2906 13.6938 11.2906 13.6828 11.2909H6.90283C6.48862 11.2909 6.15283 11.6266 6.15283 12.0409C6.15283 12.4551 6.48862 12.7909 6.90283 12.7909H7.71601L6.86162 17.9172H6.17331C6.05198 17.9172 5.95361 17.8188 5.95361 17.6975V11.0213C5.95361 10.9813 5.95048 10.9421 5.94445 10.9037L11.8488 4.63039ZM9.44848 12.7909C9.32627 12.7909 9.22198 12.8792 9.20189 12.9998L8.56315 16.8322C8.92645 16.9196 9.32484 17.0749 9.68586 17.3432C10.288 17.7907 10.696 18.4837 10.7463 19.4465H13.3661C13.4163 18.4837 13.8243 17.7907 14.4265 17.3432C14.8131 17.0558 15.2427 16.8981 15.6261 16.8145L14.8293 12.9899C14.8051 12.8739 14.703 12.7909 14.5845 12.7909H14.4979C14.4312 13.2969 14.1824 13.7259 13.8032 14.0415C13.2781 14.4785 12.5744 14.6432 11.9435 14.6264C11.3126 14.6096 10.6187 14.4076 10.1176 13.9434C9.7876 13.6377 9.57086 13.2437 9.50504 12.7909H9.44848ZM11.0868 12.7909C11.1026 12.8096 11.1195 12.8268 11.137 12.843C11.2996 12.9937 11.6061 13.1169 11.9835 13.1269C12.3609 13.137 12.6734 13.0302 12.8437 12.8885C12.8773 12.8606 12.9091 12.8289 12.9361 12.7909H11.0868ZM15.9349 18.2969C15.8728 18.4062 15.8373 18.5325 15.8373 18.6672C15.8373 18.901 15.9442 19.1097 16.1119 19.2473C16.0887 19.3589 15.9898 19.4465 15.867 19.4465H14.8684C14.913 18.9399 15.1285 18.6903 15.3211 18.5472C15.501 18.4135 15.7206 18.3307 15.932 18.2831L15.9349 18.2969ZM8.17595 19.1554L8.31547 18.3183C8.48308 18.3681 8.64944 18.4418 8.79117 18.5472C8.98384 18.6903 9.1993 18.9399 9.24394 19.4465H8.42255C8.26807 19.4465 8.15056 19.3077 8.17595 19.1554Z" fill="black"/>
</svg>
