<svg width="24" height="24" viewBox="0 0 24 24" fill="none" xmlns="http://www.w3.org/2000/svg">
<path fill-rule="evenodd" clip-rule="evenodd" d="M5.905 4.0511C6.35059 3.5453 7.0013 3.25 7.81934 3.25C9.14948 3.25 10.0939 4.03551 10.7257 4.8544C11.0698 5.30049 11.3478 5.7902 11.5693 6.23623C11.7908 5.7902 12.0688 5.30049 12.413 4.8544C13.0447 4.03551 13.9891 3.25 15.3193 3.25C16.1373 3.25 16.788 3.5453 17.2336 4.0511C17.6607 4.53587 17.8406 5.14618 17.8799 5.69656C17.9188 6.24124 17.8262 6.79971 17.6253 7.25H20C20.9665 7.25 21.75 8.0335 21.75 9V11C21.75 11.9665 20.9665 12.75 20 12.75H19.7323C19.744 12.8317 19.75 12.9151 19.75 13V19C19.75 19.9665 18.9665 20.75 18 20.75H6C5.0335 20.75 4.25 19.9665 4.25 19V13C4.25 12.9151 4.25604 12.8317 4.26772 12.75H4C3.0335 12.75 2.25 11.9665 2.25 11V9C2.25 8.0335 3.0335 7.25 4 7.25H5.51329C5.31245 6.79971 5.21981 6.24124 5.25873 5.69656C5.29804 5.14618 5.47794 4.53587 5.905 4.0511ZM6.94113 6.75C6.92612 6.72633 6.90724 6.69216 6.88545 6.644C6.79323 6.44014 6.73167 6.12881 6.75491 5.80344C6.7781 5.47882 6.87947 5.21413 7.03053 5.04265C7.16308 4.8922 7.38737 4.75 7.81934 4.75C8.48919 4.75 9.04471 5.13116 9.53798 5.7706C9.77382 6.07633 9.97481 6.41504 10.1481 6.75H6.94113ZM6.97951 6.79736C6.97951 6.79736 6.97492 6.79513 6.96704 6.78596C6.97578 6.79199 6.97951 6.79736 6.97951 6.79736ZM9.25 11.25V9C9.25 8.91512 9.25604 8.83165 9.26772 8.75H4C3.86193 8.75 3.75 8.86193 3.75 9V11C3.75 11.1381 3.86193 11.25 4 11.25H9.25ZM10.75 11.25H13.25V9C13.25 8.86193 13.1381 8.75 13 8.75H11C10.8619 8.75 10.75 8.86193 10.75 9V11.25ZM14.75 11.25H20C20.1381 11.25 20.25 11.1381 20.25 11V9C20.25 8.86193 20.1381 8.75 20 8.75H14.7323C14.744 8.83165 14.75 8.91512 14.75 9V11.25ZM6 12.75C5.86193 12.75 5.75 12.8619 5.75 13V19C5.75 19.1381 5.86193 19.25 6 19.25H9.26772C9.25604 19.1683 9.25 19.0849 9.25 19V12.75H6ZM10.75 12.75V19C10.75 19.1381 10.8619 19.25 11 19.25H13C13.1381 19.25 13.25 19.1381 13.25 19V12.75H10.75ZM14.75 12.75V19C14.75 19.0849 14.744 19.1683 14.7323 19.25H18C18.1381 19.25 18.25 19.1381 18.25 19V13C18.25 12.8619 18.1381 12.75 18 12.75H14.75ZM16.1975 6.75C16.2125 6.72633 16.2314 6.69216 16.2532 6.644C16.3454 6.44014 16.4069 6.12881 16.3837 5.80344C16.3605 5.47882 16.2591 5.21413 16.1081 5.04265C15.9755 4.8922 15.7512 4.75 15.3193 4.75C14.6494 4.75 14.0939 5.13116 13.6006 5.7706C13.3648 6.07633 13.1638 6.41504 12.9905 6.75H16.1975ZM16.1591 6.79736C16.1591 6.79736 16.1637 6.79513 16.1716 6.78596C16.1628 6.79199 16.1591 6.79736 16.1591 6.79736Z" fill="black"/>
</svg>
