<svg width="25" height="25" viewBox="0 0 25 25" fill="none" xmlns="http://www.w3.org/2000/svg">
<path fill-rule="evenodd" clip-rule="evenodd" d="M8.75699 9.86702C8.75699 7.81965 10.4167 6.15992 12.4641 6.15992C14.5115 6.15992 16.1712 7.81965 16.1712 9.86702C16.1712 11.9144 14.5115 13.5741 12.4641 13.5741C10.4167 13.5741 8.75699 11.9144 8.75699 9.86702ZM12.4641 7.65992C11.2451 7.65992 10.257 8.64808 10.257 9.86702C10.257 11.086 11.2451 12.0741 12.4641 12.0741C13.683 12.0741 14.6712 11.086 14.6712 9.86702C14.6712 8.64808 13.683 7.65992 12.4641 7.65992Z" fill="black"/>
<path fill-rule="evenodd" clip-rule="evenodd" d="M11.5541 2.41725C12.0696 1.94686 12.8586 1.94686 13.3741 2.41725L14.5392 3.48044L16.1067 3.30512C16.8002 3.22756 17.4385 3.69134 17.5791 4.37488L17.8967 5.91985L19.2679 6.69937C19.8746 7.04426 20.1184 7.79467 19.8303 8.43027L19.1792 9.86689L19.8303 11.3035C20.1184 11.9391 19.8746 12.6895 19.2679 13.0344L17.8967 13.8139L17.5791 15.3589C17.4706 15.8867 17.0652 16.2835 16.5669 16.4012V20.3964C16.5669 21.511 15.2668 22.1199 14.4105 21.4064L12.464 19.7842L10.5174 21.4064C9.66107 22.1199 8.36101 21.511 8.36101 20.3964V16.4011C7.86279 16.2833 7.45761 15.8866 7.34911 15.3589L7.03146 13.8139L5.66026 13.0344C5.05361 12.6895 4.80978 11.9391 5.09786 11.3035L5.74898 9.86689L5.09786 8.43027C4.80978 7.79467 5.05361 7.04426 5.66026 6.69937L7.03146 5.91985L7.34911 4.37488C7.48965 3.69134 8.12798 3.22756 8.8215 3.30512L10.389 3.48044L11.5541 2.41725ZM9.86101 16.3124V20.0008L11.6223 18.533C12.1099 18.1267 12.8181 18.1267 13.3056 18.533L15.0669 20.0008V16.3124L14.5392 16.2533L13.3741 17.3165C12.8586 17.7869 12.0696 17.7869 11.5541 17.3165L10.389 16.2533L9.86101 16.3124ZM12.4641 3.61752L11.3499 4.63427C11.0626 4.8964 10.6763 5.02192 10.2899 4.9787L8.79081 4.81104L8.48703 6.28853C8.40871 6.66943 8.16995 6.99806 7.83189 7.19025L6.52059 7.93573L7.14327 9.30959C7.3038 9.66378 7.3038 10.07 7.14327 10.4242L6.52059 11.7981L7.83189 12.5435C8.16995 12.7357 8.40871 13.0644 8.48703 13.4453L8.79081 14.9227L10.2899 14.7551C10.6763 14.7119 11.0626 14.8374 11.3499 15.0995L12.4641 16.1163L13.5783 15.0995C13.8656 14.8374 14.2519 14.7119 14.6383 14.7551L16.1374 14.9227L16.4412 13.4453C16.5195 13.0644 16.7582 12.7357 17.0963 12.5435L18.4076 11.7981L17.7849 10.4242C17.6244 10.07 17.6244 9.66378 17.7849 9.30959L18.4076 7.93573L17.0963 7.19025C16.7582 6.99806 16.5195 6.66943 16.4412 6.28853L16.1374 4.81104L14.6383 4.9787C14.2519 5.02192 13.8655 4.8964 13.5783 4.63427L12.4641 3.61752Z" fill="black"/>
</svg>
