<svg width="25" height="25" viewBox="0 0 25 25" fill="none" xmlns="http://www.w3.org/2000/svg">
<path d="M14.9926 9.69837C15.5988 10.3192 16.5936 10.3311 17.2145 9.7248C17.8353 9.11854 17.8472 8.12377 17.2409 7.50291C16.6346 6.88205 15.6399 6.87022 15.019 7.47648C14.3982 8.08274 14.3863 9.07752 14.9926 9.69837Z" fill="black"/>
<path fill-rule="evenodd" clip-rule="evenodd" d="M20.1197 2.97124C20.5039 3.00617 20.9315 3.13023 21.255 3.46158C21.5581 3.77192 21.6909 4.16695 21.7361 4.54233C21.7811 4.91654 21.7459 5.3203 21.6677 5.72187C21.5111 6.52521 21.1558 7.44922 20.7033 8.37079C19.7985 10.2132 18.423 12.209 17.147 13.4551C17.0375 13.562 16.9249 13.666 16.8095 13.7672L16.7712 16.998C16.7672 17.3295 16.6318 17.6458 16.3946 17.8775L13.1993 20.9976C12.3573 21.8199 10.9492 21.129 11.0842 19.9599L11.4833 16.5041C11.1003 16.6131 10.7662 16.6918 10.5033 16.7422L10.1072 16.8181L9.45677 16.152L8.3211 17.2609C8.02474 17.5503 7.5499 17.5447 7.26052 17.2483C6.97113 16.952 6.97677 16.4771 7.27313 16.1877L8.4088 15.0788L7.60895 14.2597L7.73779 13.8352C7.80605 13.6103 7.89171 13.3463 7.99287 13.0547L4.64103 13.3612C3.46905 13.4684 2.81189 12.0443 3.65389 11.2221L6.84919 8.10188C7.08639 7.87027 7.40587 7.74236 7.73737 7.74631L10.5215 7.77942C10.5597 7.77988 10.5972 7.78318 10.6338 7.78913C10.7866 7.59957 10.9436 7.42417 11.1044 7.26709C12.0952 6.29964 14.1458 4.99022 16.077 4.08301C17.0479 3.62688 18.0356 3.24982 18.8843 3.07181C19.3075 2.98306 19.7318 2.93596 20.1197 2.97124ZM13.0411 15.974C13.7681 15.6863 14.5478 15.3193 15.2964 14.8652L15.2725 16.8766L12.6551 19.4325L13.0381 16.116C13.0436 16.068 13.0445 16.0205 13.0411 15.974ZM10.6084 15.1843L10.53 15.104L13.4289 12.2733C13.7252 11.9839 13.7309 11.509 13.4415 11.2127C13.1521 10.9163 12.6773 10.9107 12.3809 11.2001L9.48201 14.0308L9.30662 13.8512C9.5422 13.1396 9.90441 12.1734 10.3483 11.2151C10.8969 10.0307 11.5302 8.94782 12.1524 8.34029C12.9753 7.53677 14.8595 6.31222 16.7147 5.44067C16.7692 5.41511 16.8234 5.38993 16.8774 5.36515L19.2928 7.83869C18.4462 9.52565 17.1994 11.3074 16.099 12.3819C14.4944 13.9488 11.9771 14.8536 10.6084 15.1843ZM8.98724 10.5846C8.84558 10.8904 8.71184 11.1967 8.58722 11.4962C8.56837 11.4966 8.54939 11.4976 8.5303 11.4993L5.20565 11.8033L7.82307 9.24743L9.65513 9.26922C9.4131 9.70069 9.18949 10.148 8.98724 10.5846ZM18.3851 4.76219L19.9367 6.35117C20.0543 6.01833 20.1417 5.71009 20.1954 5.43493C20.256 5.1239 20.2668 4.88746 20.2468 4.72152C20.2295 4.57762 20.1944 4.525 20.1844 4.51258C20.1738 4.50591 20.1217 4.47761 19.9839 4.46507C19.8 4.44835 19.5368 4.46761 19.1922 4.53987C18.9448 4.59176 18.6738 4.66696 18.3851 4.76219Z" fill="black"/>
</svg>
