<svg width="24" height="24" viewBox="0 0 24 24" fill="none" xmlns="http://www.w3.org/2000/svg">
<path fill-rule="evenodd" clip-rule="evenodd" d="M6.00164 9.40894C5.47697 9.40894 5.05164 9.83426 5.05164 10.3589V12.0251C5.05164 12.5498 5.47697 12.9751 6.00164 12.9751H8.70087C9.22554 12.9751 9.65088 12.5498 9.65088 12.0251V10.3589C9.65088 9.83426 9.22554 9.40894 8.70087 9.40894H6.00164ZM6.55164 11.4751V10.9089H8.15088V11.4751H6.55164Z" fill="black"/>
<path fill-rule="evenodd" clip-rule="evenodd" d="M3.41887 6.82642C2.8942 6.82642 2.46887 7.25175 2.46887 7.77642V16.1576C2.46887 16.6823 2.8942 17.1076 3.41887 17.1076H5.06335C5.18036 18.268 6.16004 19.1737 7.35126 19.1737C8.54247 19.1737 9.52215 18.268 9.63917 17.1076H14.361C14.478 18.268 15.4576 19.1737 16.6489 19.1737C17.8401 19.1737 18.8198 18.268 18.9368 17.1076H20.5812C21.1059 17.1076 21.5312 16.6823 21.5312 16.1576V14.4584C21.5312 13.3814 20.6582 12.5084 19.5812 12.5084H19.5656L18.5912 11.4257H19.5481C20.0728 11.4257 20.4981 11.0003 20.4981 10.4757V9.77642C20.4981 8.14718 19.1774 6.82642 17.5481 6.82642H3.41887ZM16.6489 14.5745C15.8468 14.5745 15.1406 14.9851 14.7291 15.6076H9.271C8.8595 14.9851 8.15333 14.5745 7.35126 14.5745C6.54918 14.5745 5.84301 14.9851 5.43151 15.6076H3.96887V8.32642H17.5481C18.349 8.32642 18.9981 8.9756 18.9981 9.77642V9.92566H14.2662C13.7415 9.92566 13.3162 10.351 13.3162 10.8757V13.0584C13.3162 13.583 13.7415 14.0084 14.2662 14.0084H19.5812C19.8298 14.0084 20.0312 14.2098 20.0312 14.4584V15.6076H18.7151C18.6679 15.6076 18.6217 15.612 18.5769 15.6203C18.1667 14.9907 17.4564 14.5745 16.6489 14.5745ZM16.5732 11.4257L17.5476 12.5084H14.8162V11.4257H16.5732ZM6.55164 16.8741C6.55164 16.4325 6.90964 16.0745 7.35126 16.0745C7.79287 16.0745 8.15088 16.4325 8.15088 16.8741C8.15088 17.3157 7.79287 17.6737 7.35126 17.6737C6.90964 17.6737 6.55164 17.3157 6.55164 16.8741ZM16.6489 16.0745C16.2072 16.0745 15.8492 16.4325 15.8492 16.8741C15.8492 17.3157 16.2072 17.6737 16.6489 17.6737C17.0905 17.6737 17.4485 17.3157 17.4485 16.8741C17.4485 16.4325 17.0905 16.0745 16.6489 16.0745Z" fill="black"/>
</svg>
