<svg width="25" height="25" viewBox="0 0 25 25" fill="none" xmlns="http://www.w3.org/2000/svg">
<path fill-rule="evenodd" clip-rule="evenodd" d="M7.16572 13.6687C6.58582 13.6687 6.11572 14.1388 6.11572 14.7187V17.1187C6.11572 17.6986 6.58582 18.1687 7.16572 18.1687H10.011C10.5909 18.1687 11.061 17.6986 11.061 17.1187V14.7187C11.061 14.1388 10.5909 13.6687 10.011 13.6687H7.16572ZM7.61572 16.6687V15.1687H9.56104V16.6687H7.61572Z" fill="black"/>
<path fill-rule="evenodd" clip-rule="evenodd" d="M4.94287 3.78174C3.97637 3.78174 3.19287 4.56524 3.19287 5.53174V19.9346C3.19287 20.9011 3.97637 21.6846 4.94287 21.6846H19.2827C20.2492 21.6846 21.0327 20.9011 21.0327 19.9346V9.73144L21.0328 9.70654L21.0327 5.53174C21.0327 4.56524 20.2492 3.78174 19.2827 3.78174H4.94287ZM19.5327 9.72348V5.53174C19.5327 5.39367 19.4208 5.28174 19.2827 5.28174H16.9478V9.70654L16.9478 9.72055C16.9553 10.4279 17.5311 10.9991 18.2403 10.9991C18.9485 10.9991 19.5236 10.4295 19.5327 9.72348ZM15.4478 5.28174H12.8628V9.70654C12.8628 10.4204 13.4415 10.9991 14.1553 10.9991C14.8635 10.9991 15.4387 10.4295 15.4478 9.72348V5.28174ZM11.3628 5.28174H8.77734V9.70654L8.77775 9.73934C8.79515 10.438 9.367 10.9991 10.0699 10.9991C10.7837 10.9991 11.3624 10.4204 11.3624 9.70654L11.3628 5.28174ZM7.27734 5.28174H4.94287C4.8048 5.28174 4.69287 5.39367 4.69287 5.53174V9.70654C4.69287 10.4204 5.27156 10.9991 5.98541 10.9991C6.68599 10.9991 7.25638 10.4417 7.27734 9.7462V5.28174ZM4.69287 12.1826V19.9346C4.69287 20.0726 4.8048 20.1846 4.94287 20.1846H12.3755V16.7654C12.3755 15.1363 13.6961 13.8157 15.3252 13.8157C16.9543 13.8157 18.2749 15.1363 18.2749 16.7654V20.1846H19.2827C19.4208 20.1846 19.5327 20.0726 19.5327 19.9346V12.1826C19.1463 12.3848 18.7066 12.4991 18.2403 12.4991C17.434 12.4991 16.7076 12.1574 16.1978 11.6109C15.6881 12.1574 14.9616 12.4991 14.1553 12.4991C13.3489 12.4991 12.6224 12.1573 12.1126 11.6106C11.6028 12.1573 10.8763 12.4991 10.0699 12.4991C9.26374 12.4991 8.53738 12.1575 8.02764 11.6112C7.51791 12.1575 6.79155 12.4991 5.98541 12.4991C5.51903 12.4991 5.07935 12.3847 4.69287 12.1826ZM15.3252 15.3157C14.5245 15.3157 13.8755 15.9647 13.8755 16.7654V20.1843H16.7749V16.7654C16.7749 15.9647 16.1258 15.3157 15.3252 15.3157Z" fill="black"/>
</svg>
