<svg width="25" height="25" viewBox="0 0 25 25" fill="none" xmlns="http://www.w3.org/2000/svg">
<path d="M10.8263 9.50781C10.8263 9.0936 10.4905 8.75781 10.0763 8.75781C9.66208 8.75781 9.32629 9.0936 9.32629 9.50781V13.6996C9.32629 14.1138 9.66208 14.4496 10.0763 14.4496C10.4905 14.4496 10.8263 14.1138 10.8263 13.6996V9.50781Z" fill="black"/>
<path d="M14.8092 13.0681C15.6179 13.0681 16.2736 12.4125 16.2736 11.6038C16.2736 10.795 15.6179 10.1394 14.8092 10.1394C14.0005 10.1394 13.3448 10.795 13.3448 11.6038C13.3448 12.4125 14.0005 13.0681 14.8092 13.0681Z" fill="black"/>
<path fill-rule="evenodd" clip-rule="evenodd" d="M6.80823 7.39352C6.80823 6.44484 7.57729 5.67578 8.52597 5.67578H17.1653C18.114 5.67578 18.8831 6.44484 18.8831 7.39352V15.8142C18.8831 16.7628 18.114 17.5319 17.1653 17.5319H8.52597C7.57729 17.5319 6.80823 16.7628 6.80823 15.8142V7.39352ZM8.52597 7.17578C8.40571 7.17578 8.30823 7.27327 8.30823 7.39352V15.8142C8.30823 15.9344 8.40571 16.0319 8.52597 16.0319H17.1653C17.2856 16.0319 17.3831 15.9344 17.3831 15.8142V7.39352C17.3831 7.27327 17.2856 7.17578 17.1653 7.17578H8.52597Z" fill="black"/>
<path fill-rule="evenodd" clip-rule="evenodd" d="M7.10113 3.20996C5.61798 3.20996 4.41565 4.41229 4.41565 5.89544V18.7637C4.41565 19.3603 4.83915 19.8581 5.40195 19.9727V20.9829C5.40195 21.6643 5.95437 22.2167 6.63582 22.2167H7.4141C7.76654 22.2167 8.10216 22.066 8.33631 21.8026L9.94078 19.9976H15.6481L17.0036 21.7404C17.2374 22.0409 17.5968 22.2167 17.9776 22.2167H18.7365C19.418 22.2167 19.9704 21.6643 19.9704 20.9829V19.9976C20.6514 19.997 21.2032 19.4448 21.2032 18.7637V5.89544C21.2032 4.41229 20.0009 3.20996 18.5178 3.20996H7.10113ZM5.91565 5.89544C5.91565 5.24072 6.44641 4.70996 7.10113 4.70996H18.5178C19.1725 4.70996 19.7032 5.24072 19.7032 5.89544V18.4976H19.3204C18.8509 18.4976 18.4704 18.8781 18.4704 19.3476V20.7167H18.1077L16.7522 18.9739C16.5185 18.6734 16.159 18.4976 15.7783 18.4976H9.82127C9.46883 18.4976 9.13321 18.6483 8.89907 18.9117L7.29459 20.7167H6.90195V19.3476C6.90195 18.8781 6.52139 18.4976 6.05195 18.4976H5.91565V5.89544Z" fill="black"/>
</svg>
