<svg width="25" height="24" viewBox="0 0 25 24" fill="none" xmlns="http://www.w3.org/2000/svg">
<path fill-rule="evenodd" clip-rule="evenodd" d="M11.4691 4.068C11.4494 3.13629 12.6434 2.73623 13.189 3.49173L19.3624 12.0395C19.7769 12.6134 19.4406 13.4228 18.7415 13.5339L13.1887 14.4169L13.1965 14.7691L20.1314 14.098C20.7877 14.0345 21.3476 14.6627 21.121 15.3373C20.8018 16.2876 20.2137 17.5948 19.3741 18.6811C18.5489 19.7487 17.3621 20.75 15.8343 20.75H8.38947C7.97838 20.75 7.58414 20.5867 7.29345 20.296L4.19854 17.2011C3.63083 16.6334 3.97966 15.6611 4.77879 15.5837L11.6993 14.914L11.4691 4.068ZM13.156 12.9032L13.006 5.80026L17.623 12.1929L13.156 12.9032ZM9.13263 7.20688C9.64535 6.40931 10.8818 6.77245 10.8818 7.72059V13.6C10.8818 14.0841 10.5178 14.4907 10.0367 14.5442L5.96631 14.9964C5.17141 15.0848 4.62978 14.2113 5.06228 13.5385L9.13263 7.20688ZM9.38175 9.59324L6.94865 13.3781L9.38175 13.1077V9.59324ZM19.3851 15.6772L6.08329 16.9645L8.35411 19.2353C8.36349 19.2447 8.37621 19.25 8.38947 19.25H15.8343C16.6656 19.25 17.4651 18.6981 18.1873 17.7638C18.6849 17.1199 19.0899 16.3634 19.3851 15.6772Z" fill="black"/>
</svg>
