<svg width="25" height="25" viewBox="0 0 25 25" fill="none" xmlns="http://www.w3.org/2000/svg">
<path fill-rule="evenodd" clip-rule="evenodd" d="M12.6825 3.48291C11.6532 3.48291 10.8188 4.31733 10.8188 5.34664C10.8188 5.59575 10.8677 5.83345 10.9563 6.05066L4.57971 6.05066C4.1655 6.05066 3.82971 6.38645 3.82971 6.80066C3.82971 7.21487 4.1655 7.55066 4.57971 7.55066H6.02767L3.7394 12.7511C3.6703 12.8646 3.63049 12.9979 3.63049 13.1405C3.63049 14.9895 5.12937 16.4883 6.97832 16.4883C8.82728 16.4883 10.3262 14.9895 10.3262 13.1405C10.3262 13.0309 10.3026 12.9267 10.2603 12.8328L10.2646 12.831L8.06374 7.55066L11.9684 7.55066L11.9684 17.8729H9.87854C8.35976 17.8729 7.12854 19.1041 7.12854 20.6229V20.7017C7.12854 21.1159 7.46433 21.4517 7.87854 21.4517H17.7038C18.118 21.4517 18.4538 21.1159 18.4538 20.7017V20.6229C18.4538 19.1041 17.2225 17.8729 15.7038 17.8729H13.4684L13.4684 7.55066L17.5159 7.55066L15.2277 12.7511C15.1586 12.8646 15.1188 12.9979 15.1188 13.1405C15.1188 14.9895 16.6176 16.4883 18.4666 16.4883C20.3156 16.4883 21.8144 14.9895 21.8144 13.1405C21.8144 13.0309 21.7909 12.9267 21.7486 12.8328L21.7529 12.831L19.552 7.55066H21.065C21.4792 7.55066 21.815 7.21487 21.815 6.80066C21.815 6.38645 21.4792 6.05066 21.065 6.05066L14.4087 6.05066C14.4974 5.83345 14.5463 5.59575 14.5463 5.34664C14.5463 4.31733 13.7118 3.48291 12.6825 3.48291ZM12.3188 5.34664C12.3188 5.14576 12.4816 4.98291 12.6825 4.98291C12.8834 4.98291 13.0463 5.14576 13.0463 5.34664C13.0463 5.54753 12.8834 5.71037 12.6825 5.71037C12.4816 5.71037 12.3188 5.54753 12.3188 5.34664ZM18.5242 8.98363L19.9442 12.3905H17.0251L18.5242 8.98363ZM5.53684 12.3905H8.45591L7.03593 8.98363L5.53684 12.3905ZM6.97832 14.9883C6.22481 14.9883 5.57663 14.5373 5.28904 13.8905H8.66761C8.38001 14.5373 7.73184 14.9883 6.97832 14.9883ZM18.4666 14.9883C17.7131 14.9883 17.0649 14.5373 16.7773 13.8905H20.1559C19.8683 14.5373 19.2201 14.9883 18.4666 14.9883ZM16.7584 19.9517H8.82388C9.04581 19.6037 9.43523 19.3729 9.87854 19.3729H15.7038C16.1471 19.3729 16.5365 19.6037 16.7584 19.9517Z" fill="black"/>
</svg>
