<svg width="25" height="25" viewBox="0 0 25 25" fill="none" xmlns="http://www.w3.org/2000/svg">
<path d="M14.8936 3.6345C15.1133 3.28572 15.5775 3.18194 15.9303 3.40269C16.3092 3.63976 16.8392 4.07666 17.2753 4.65899C17.4171 4.84826 17.5537 5.05957 17.6725 5.29024C17.9885 5.08141 18.3224 4.92836 18.64 4.81733C19.3301 4.57613 20.016 4.50661 20.464 4.51921C20.8806 4.53093 21.2105 4.874 21.2007 5.28547C21.1909 5.69695 20.8453 6.02102 20.4286 6.0093C20.1486 6.00142 19.6494 6.04832 19.1499 6.2229C19.1258 6.23134 19.1018 6.24002 19.078 6.24894C19.9235 6.54053 20.696 7.2793 20.9967 8.51701C21.0944 8.91952 20.8474 9.32508 20.4449 9.42286C20.0424 9.52063 19.6368 9.2736 19.5391 8.87109C19.2282 7.59128 18.2969 7.51557 17.8919 7.67322C17.4853 8.78594 16.8315 11.4607 18.6915 14.5312C18.9061 14.8854 18.7929 15.3466 18.4386 15.5612C18.0843 15.7758 17.6232 15.6626 17.4085 15.3083C15.3188 11.8587 15.9288 8.79007 16.4175 7.34539C16.0188 6.97857 15.6613 6.85711 15.3772 6.83271C15.0048 6.80072 14.6432 6.92632 14.3438 7.11849C13.9952 7.34223 13.5312 7.24101 13.3075 6.89242C13.0838 6.54384 13.185 6.07987 13.5336 5.85614C14.0265 5.53975 14.715 5.27031 15.5056 5.33821C15.66 5.35147 15.8144 5.37727 15.9683 5.4163C15.6765 5.06244 15.3455 4.79775 15.1345 4.66572C14.7817 4.44497 14.6738 3.98328 14.8936 3.6345Z" fill="black"/>
<path fill-rule="evenodd" clip-rule="evenodd" d="M14.4425 11.2106C14.1557 11.4703 13.7231 11.467 13.4407 11.2153V14.4994C13.4407 15.0793 12.9706 15.5494 12.3907 15.5494H5.73565C5.15575 15.5494 4.68565 15.0793 4.68565 14.4994V11.002L4.52868 11.1688C4.24479 11.4704 3.77013 11.4848 3.4685 11.2009C3.16687 10.917 3.15249 10.4424 3.43638 10.1407L8.19893 5.08051C8.60713 4.6468 9.29961 4.63541 9.71884 5.0713C10.4467 5.82811 12.8543 8.33976 14.4949 10.1513C14.773 10.4583 14.7495 10.9326 14.4425 11.2106ZM8.96656 6.45352C9.63191 7.14733 10.8066 8.37772 11.9407 9.59276V14.0494H6.18565V9.43482C6.18565 9.42608 6.1855 9.41738 6.1852 9.40871L8.96656 6.45352Z" fill="black"/>
<path d="M21.3431 21.2566C21.145 21.6204 20.6894 21.7546 20.3257 21.5564L18.9252 20.7934C18.3058 20.4559 17.5484 20.5004 16.9728 20.9081L16.883 20.9717C15.7774 21.7548 14.2979 21.7548 13.1923 20.9717C12.6061 20.5565 11.8217 20.5565 11.2355 20.9717C10.1299 21.7548 8.65043 21.7548 7.54481 20.9717L7.45619 20.9089C6.88042 20.5011 6.12258 20.4572 5.50353 20.7957L4.14756 21.5371C3.78413 21.7359 3.32842 21.6023 3.12969 21.2389C2.93097 20.8755 3.06448 20.4198 3.42791 20.221L4.78388 19.4796C5.90593 18.866 7.27957 18.9457 8.32317 19.6849L8.41179 19.7476C8.99797 20.1628 9.78236 20.1628 10.3685 19.7476C11.4742 18.9645 12.9536 18.9645 14.0593 19.7476C14.6454 20.1628 15.4298 20.1628 16.016 19.7476L16.1058 19.684C17.1485 18.9455 18.5207 18.8648 19.6428 19.4762L21.0434 20.2392C21.4071 20.4374 21.5413 20.8929 21.3431 21.2566Z" fill="black"/>
<path d="M20.3257 18.9468C20.6894 19.145 21.145 19.0107 21.3431 18.647C21.5413 18.2833 21.4071 17.8278 21.0434 17.6296L19.6428 16.8665C18.5207 16.2552 17.1485 16.3358 16.1058 17.0744L16.016 17.138C15.4298 17.5532 14.6454 17.5532 14.0593 17.138C12.9536 16.3549 11.4742 16.3549 10.3685 17.138C9.78236 17.5532 8.99797 17.5532 8.41179 17.138L8.32317 17.0752C7.27957 16.3361 5.90593 16.2564 4.78388 16.87L3.42791 17.6114C3.06448 17.8101 2.93097 18.2659 3.12969 18.6293C3.32842 18.9927 3.78413 19.1262 4.14756 18.9275L5.50353 18.1861C6.12258 17.8476 6.88042 17.8915 7.45619 18.2993L7.54481 18.3621C8.65043 19.1452 10.1299 19.1452 11.2355 18.3621C11.8217 17.9469 12.6061 17.9469 13.1923 18.3621C14.2979 19.1452 15.7774 19.1452 16.883 18.3621L16.9728 18.2985C17.5484 17.8908 18.3058 17.8463 18.9252 18.1837L20.3257 18.9468Z" fill="black"/>
</svg>
