<svg width="24" height="25" viewBox="0 0 24 25" fill="none" xmlns="http://www.w3.org/2000/svg">
<path d="M12 18.1269C12.8975 18.1269 13.625 17.3994 13.625 16.5019C13.625 15.6044 12.8975 14.8769 12 14.8769C11.1025 14.8769 10.375 15.6044 10.375 16.5019C10.375 17.3994 11.1025 18.1269 12 18.1269Z" fill="black"/>
<path fill-rule="evenodd" clip-rule="evenodd" d="M7.25 7.5C7.25 4.87665 9.37665 2.75 12 2.75C14.6234 2.75 16.75 4.87665 16.75 7.5V10.75H18C18.9665 10.75 19.75 11.5335 19.75 12.5V20.5C19.75 21.4665 18.9665 22.25 18 22.25H6C5.0335 22.25 4.25 21.4665 4.25 20.5V12.5C4.25 11.5335 5.0335 10.75 6 10.75H7.25V7.5ZM15.25 7.5V10.75H8.75V7.5C8.75 5.70507 10.2051 4.25 12 4.25C13.7949 4.25 15.25 5.70507 15.25 7.5ZM6 12.25C5.86193 12.25 5.75 12.3619 5.75 12.5V20.5C5.75 20.6381 5.86193 20.75 6 20.75H18C18.1381 20.75 18.25 20.6381 18.25 20.5V12.5C18.25 12.3619 18.1381 12.25 18 12.25H6Z" fill="black"/>
</svg>
