<svg width="25" height="24" viewBox="0 0 25 24" fill="none" xmlns="http://www.w3.org/2000/svg">
<path d="M12.8885 13.4911C12.8885 13.8874 12.5672 14.2087 12.1708 14.2087C11.7745 14.2087 11.4532 13.8874 11.4532 13.4911C11.4532 13.0947 11.7745 12.7734 12.1708 12.7734C12.5672 12.7734 12.8885 13.0947 12.8885 13.4911Z" fill="black"/>
<path fill-rule="evenodd" clip-rule="evenodd" d="M12.1704 6.99995C10.7653 6.99995 9.62629 8.13901 9.62629 9.5441V10.8139C8.9866 11.1475 8.54987 11.8169 8.54987 12.5884V14.3943C8.54987 15.4989 9.4453 16.3943 10.5499 16.3943H13.7911C14.8957 16.3943 15.7911 15.4989 15.7911 14.3943V12.5883C15.7911 11.8169 15.3544 11.1474 14.7146 10.8138V9.5441C14.7146 8.13901 13.5755 6.99995 12.1704 6.99995ZM13.2146 10.5883V9.5441C13.2146 8.96744 12.7471 8.49995 12.1704 8.49995C11.5938 8.49995 11.1263 8.96744 11.1263 9.5441V10.5883H13.2146ZM10.0499 12.5884C10.0499 12.3122 10.2737 12.0883 10.5499 12.0883H13.7911C14.0673 12.0883 14.2911 12.3122 14.2911 12.5883V14.3943C14.2911 14.6704 14.0673 14.8943 13.7911 14.8943H10.5499C10.2737 14.8943 10.0499 14.6704 10.0499 14.3943V12.5884Z" fill="black"/>
<path fill-rule="evenodd" clip-rule="evenodd" d="M19.2331 4.06808C16.4691 3.24836 14.2235 2.84258 11.9568 2.85171C9.69225 2.86084 7.44988 3.28403 4.69507 4.06897C4.13091 4.22972 3.74249 4.74613 3.74249 5.33133V8.37441C3.74249 10.5639 3.89081 12.9437 4.9425 15.0571C6.325 17.8353 8.36158 19.2763 11.6061 20.865C11.9881 21.0521 12.4409 21.0424 12.8151 20.8358C15.3592 19.4319 17.1024 18.1456 18.5058 15.6866C19.9171 13.2136 20.1716 10.3309 20.1716 7.65962V5.32606C20.1716 4.74677 19.7906 4.23343 19.2331 4.06808ZM5.24249 8.37441V5.47288C7.86521 4.73268 9.92464 4.35991 11.9629 4.3517C13.9993 4.3435 16.0563 4.69912 18.6716 5.46636V7.65962C18.6716 10.2745 18.4119 12.8249 17.203 14.9431C16.0096 17.0342 14.5593 18.1526 12.1773 19.4745C9.09853 17.9587 7.43837 16.7057 6.28541 14.3889C5.39974 12.6091 5.24249 10.5335 5.24249 8.37441Z" fill="black"/>
</svg>
