<svg width="25" height="24" viewBox="0 0 25 24" fill="none" xmlns="http://www.w3.org/2000/svg">
<path fill-rule="evenodd" clip-rule="evenodd" d="M13.3711 3.0728C10.7612 2.97409 7.65325 3.56136 4.48915 4.4725C4.03066 4.60453 3.71753 5.02405 3.71753 5.49814V10.1956C3.71753 11.3928 3.84659 12.6422 4.28145 13.8338C4.95381 15.6762 5.81043 17.0364 7.01894 18.1749C8.21221 19.2991 9.71332 20.1728 11.6093 21.0948C11.9192 21.2455 12.2865 21.2376 12.5904 21.0711C14.1408 20.2215 15.4125 19.4128 16.4862 18.3496C17.5683 17.2781 18.4158 15.9821 19.1771 14.1953C19.7762 12.7889 19.9777 11.2788 19.9777 9.81873V5.49536C19.9777 5.01851 19.6678 4.62722 19.2589 4.48029C18.9881 4.38303 18.6993 4.25161 18.3783 4.10521L18.2844 4.06243C17.946 3.90841 17.5627 3.7364 17.2007 3.6271C16.688 3.47232 16.1915 3.78302 16.0523 4.24698L14.7267 8.66562L13.0134 10.3789C12.7614 10.6309 12.6922 11.0033 12.82 11.323L13.5394 13.1214C13.2448 13.3467 12.8666 13.5961 12.46 13.8443L12.7505 13.2633C12.8738 13.0167 12.8738 12.7265 12.7505 12.4799L11.6281 10.2352L13.4818 8.75223C13.6632 8.60713 13.7795 8.39591 13.8052 8.16505L14.2566 4.10206C14.315 3.57632 13.919 3.09353 13.3711 3.0728ZM5.25829 10.1956V5.85564C7.95187 5.09984 10.4991 4.62295 12.6507 4.60337L12.3042 7.72116L10.2459 9.36785C9.9234 9.62584 9.82495 10.074 10.0096 10.4434L11.2237 12.8716L10.113 15.0931C9.75223 15.8146 10.5079 16.6697 11.2963 16.2605C11.6663 16.0685 12.3481 15.706 13.0425 15.2922C13.7193 14.8889 14.4726 14.3994 14.942 13.9516C15.2157 13.6904 15.273 13.3068 15.1486 12.9957L14.4135 11.1581C14.565 11.0073 14.7017 10.872 14.8338 10.7411C15.1728 10.4055 15.4822 10.0991 15.9362 9.63511C16.0279 9.54291 16.1085 9.42164 16.1538 9.2706L17.3371 5.3263C17.4351 5.36914 17.5379 5.4155 17.6461 5.46475L17.7486 5.51148C17.9646 5.61006 18.1999 5.71739 18.437 5.81428V9.81873C18.437 11.1454 18.2526 12.4341 17.7596 13.5915C17.0588 15.2365 16.3131 16.3526 15.4021 17.2548C14.5267 18.1217 13.4681 18.8219 12.0639 19.6019C10.3201 18.7425 9.0543 17.9756 8.07547 17.0534C7.0712 16.1073 6.33404 14.964 5.72884 13.3056C5.3778 12.3437 5.25829 11.2907 5.25829 10.1956Z" fill="black"/>
</svg>
