<svg width="25" height="25" viewBox="0 0 25 25" fill="none" xmlns="http://www.w3.org/2000/svg">
<path fill-rule="evenodd" clip-rule="evenodd" d="M8.27895 7.50396V6.17718C8.27895 4.07999 9.97906 2.37988 12.0762 2.37988C14.1734 2.37988 15.8735 4.07999 15.8735 6.17718V7.5041L16.1184 7.50411C16.1432 7.1088 16.4736 6.79779 16.8744 6.8018C17.27 6.80575 17.5911 7.11539 17.6154 7.50414L18.6996 7.50416C19.3372 7.50417 19.8531 8.02302 19.8495 8.66068L19.778 21.27C19.7744 21.9026 19.2606 22.4135 18.628 22.4135H5.57444C4.93063 22.4135 4.41222 21.885 4.42466 21.2413L4.66821 8.63171C4.6803 8.00534 5.19153 7.5039 5.81801 7.50391L8.27895 7.50396ZM9.77895 6.17718C9.77895 4.90842 10.8075 3.87988 12.0762 3.87988C13.345 3.87988 14.3735 4.90842 14.3735 6.17718V7.50407L9.77895 7.50399V6.17718ZM16.1023 9.00411L6.1613 9.00392L5.93127 20.9135H18.28L18.3475 9.00415L17.6024 9.00414L17.5903 10.2102C17.5903 10.2162 17.5901 10.2223 17.5899 10.2283L17.8938 12.4447C17.9175 12.6169 17.8805 12.792 17.7893 12.94L15.8561 16.0772C15.6395 16.4287 15.1797 16.5391 14.8272 16.3242L12.0601 14.6372C11.8885 14.5325 11.766 14.3633 11.7202 14.1675C11.6745 13.9717 11.7092 13.7658 11.8167 13.5959L13.8151 10.4371C13.9139 10.2809 14.0669 10.1667 14.2447 10.1164L16.0964 9.5924L16.1023 9.00411ZM16.1985 11.1224L14.9293 11.4816L13.492 13.7534L14.9707 14.6549L16.3712 12.3821L16.1985 11.1224Z" fill="black"/>
</svg>
