<svg width="24" height="24" viewBox="0 0 24 24" fill="none" xmlns="http://www.w3.org/2000/svg">
<path fill-rule="evenodd" clip-rule="evenodd" d="M14.8875 5.19761L17.3176 10.0578L19.0663 10.4949C19.1831 10.5241 19.2939 10.5732 19.3941 10.6399L20.8547 11.6137C21.072 11.7586 21.2276 11.9793 21.2909 12.2327L21.5739 13.3648C21.7006 13.8714 21.4396 14.2984 21.1202 14.5093C20.8054 14.7171 20.3329 14.7868 19.9216 14.5171C19.1453 14.008 18.2842 13.6719 17.3156 13.5992L15.9759 17.1719C15.8222 17.5817 15.4304 17.8532 14.9928 17.8532H9.09924C8.50211 17.8532 8.08533 17.3775 8.03869 16.872C7.95757 15.9929 7.40254 15.2491 6.55319 14.7861C5.70049 14.3212 4.60051 14.173 3.56104 14.4774C2.92911 14.6625 2.18127 14.2247 2.18127 13.4593V12.0686C2.18127 11.4887 2.65138 11.0186 3.23127 11.0186H3.68752L4.44688 10.2592C4.64379 10.0623 4.91087 9.9517 5.18934 9.9517H6.44888V5.66719C6.44888 5.08729 6.91898 4.61719 7.49889 4.61719H13.9483C14.3461 4.61719 14.7096 4.84189 14.8875 5.19761ZM7.94888 10.0873V6.11719H13.6702L15.7948 10.3663L15.4831 10.5221L14.1479 9.63193L14.2243 9.51734C14.454 9.1727 14.3609 8.70705 14.0163 8.47728C13.6716 8.24752 13.206 8.34065 12.9762 8.68529L11.9093 10.2856C11.6795 10.6303 11.7727 11.0959 12.1173 11.3257C12.4619 11.5555 12.9276 11.4623 13.1574 11.1177L13.3158 10.88L14.0652 11.3796C13.9868 11.4946 13.931 11.6254 13.903 11.7654L13.5189 13.6859H12.7499V12.6021C12.7499 12.0222 12.2798 11.5521 11.6999 11.5521H8.48234V11.0017C8.48234 10.6096 8.26739 10.2677 7.94888 10.0873ZM15.3307 12.2754L16.8883 11.4966L18.6269 11.9313L19.8779 12.7653L19.8792 12.7706C19.0253 12.3565 18.0722 12.1 17.0155 12.0851C16.5622 12.0787 16.1766 12.3646 16.0272 12.7629L14.6809 16.3532H9.47839C9.23094 15.065 8.36276 14.0642 7.27122 13.4691C6.22766 12.9001 4.94285 12.6765 3.68127 12.909V12.5186H3.87391C4.15239 12.5186 4.41946 12.408 4.61638 12.2111L5.37574 11.4517H6.98234V12.0021C6.98234 12.582 7.45244 13.0521 8.03234 13.0521H11.2499V14.1359C11.2499 14.7158 11.72 15.1859 12.2999 15.1859H13.8878C14.3883 15.1859 14.8193 14.8326 14.9174 14.3418L15.3307 12.2754Z" fill="black"/>
<path fill-rule="evenodd" clip-rule="evenodd" d="M2.71448 17.1033C2.71448 15.8052 3.76677 14.7529 5.06483 14.7529C6.3629 14.7529 7.41518 15.8052 7.41518 17.1033C7.41518 18.4013 6.3629 19.4536 5.06483 19.4536C3.76677 19.4536 2.71448 18.4013 2.71448 17.1033ZM5.06483 16.2529C4.59519 16.2529 4.21448 16.6336 4.21448 17.1033C4.21448 17.5729 4.59519 17.9536 5.06483 17.9536C5.53447 17.9536 5.91519 17.5729 5.91519 17.1033C5.91519 16.6336 5.53447 16.2529 5.06483 16.2529Z" fill="black"/>
<path fill-rule="evenodd" clip-rule="evenodd" d="M16.5844 17.1033C16.5844 15.8052 17.6366 14.7529 18.9347 14.7529C20.2328 14.7529 21.2851 15.8052 21.2851 17.1033C21.2851 18.4013 20.2328 19.4536 18.9347 19.4536C17.6366 19.4536 16.5844 18.4013 16.5844 17.1033ZM18.9347 16.2529C18.4651 16.2529 18.0844 16.6336 18.0844 17.1033C18.0844 17.5729 18.4651 17.9536 18.9347 17.9536C19.4043 17.9536 19.7851 17.5729 19.7851 17.1033C19.7851 16.6336 19.4043 16.2529 18.9347 16.2529Z" fill="black"/>
</svg>
