<svg width="24" height="24" viewBox="0 0 24 24" fill="none" xmlns="http://www.w3.org/2000/svg">
<path fill-rule="evenodd" clip-rule="evenodd" d="M13.0233 4.93262C12.6091 4.93262 12.2733 5.2684 12.2733 5.68262C12.2733 6.09683 12.6091 6.43262 13.0233 6.43262H14.4704C14.7189 6.43262 14.9204 6.63409 14.9204 6.88262V7.57983H14.8116C14.2869 7.57983 13.8616 8.00516 13.8616 8.52983V9.01846C13.3295 9.01656 12.7289 9.17643 12.2834 9.69748H6.22332C4.64977 9.69748 3.36397 10.9295 3.2779 12.4815C3.27487 12.5089 3.27332 12.5368 3.27332 12.565C3.27332 12.5742 3.27348 12.5834 3.27382 12.5926C3.27348 12.6109 3.27332 12.6292 3.27332 12.6475V14.1534C3.27332 14.2048 3.2785 14.2551 3.28837 14.3036C2.64232 14.7197 2.21448 15.4453 2.21448 16.2709C2.21448 17.5622 3.26134 18.6091 4.55271 18.6091H10.3762C11.6676 18.6091 12.7145 17.5622 12.7145 16.2709C12.7145 16.1662 12.7076 16.0632 12.6943 15.9622H14.83L16.5068 17.6387H15.141C14.7267 17.6387 14.391 17.9744 14.391 18.3887C14.391 18.8029 14.7267 19.1387 15.141 19.1387H19.8585C20.0059 19.1387 20.1514 19.1043 20.2833 19.0384L21.2999 18.5301C21.6704 18.3448 21.8206 17.8943 21.6353 17.5238C21.4501 17.1534 20.9996 17.0032 20.6291 17.1884L19.7286 17.6387H18.6281L16.9516 15.9622H19.7647C20.8419 15.9622 21.7145 15.0889 21.7145 14.0122V11.0877C21.7145 10.7602 21.5458 10.4557 21.268 10.2821L17.1753 7.72424C17.0244 7.62987 16.8499 7.57983 16.6718 7.57983H16.4204V6.88262C16.4204 5.80566 15.5473 4.93262 14.4704 4.93262H13.0233ZM4.77332 13.315V13.9326H10.3762C10.9424 13.9326 11.4615 14.1338 11.866 14.4686C11.8983 14.4644 11.9311 14.4622 11.9645 14.4622H19.7647C20.0131 14.4622 20.2145 14.2609 20.2145 14.0122V13.3151H12.6674C12.6363 13.3151 12.6055 13.3136 12.5751 13.3106C12.5484 13.3135 12.5213 13.315 12.4939 13.315H4.77332ZM11.6774 11.815C11.6725 11.5975 11.6801 11.3916 11.7004 11.1975H6.22332C5.7323 11.1975 5.29829 11.4415 5.03597 11.815H11.6774ZM20.2145 11.8151V11.3926L16.5141 9.07983H15.3616V9.62266C15.3616 10.3223 14.6889 10.69 14.1489 10.5551C13.9535 10.5063 13.7731 10.5041 13.6389 10.5426C13.528 10.5743 13.4252 10.6375 13.339 10.7995C13.2489 10.9691 13.1618 11.2802 13.1778 11.8151H20.2145ZM4.55271 15.4326C4.08977 15.4326 3.71448 15.8079 3.71448 16.2709C3.71448 16.7338 4.08977 17.1091 4.55271 17.1091H10.3762C10.8392 17.1091 11.2145 16.7338 11.2145 16.2709C11.2145 15.8079 10.8392 15.4326 10.3762 15.4326H4.55271Z" fill="black"/>
</svg>
