<svg width="25" height="24" viewBox="0 0 25 24" fill="none" xmlns="http://www.w3.org/2000/svg">
<path fill-rule="evenodd" clip-rule="evenodd" d="M2.92432 5C2.92432 4.58579 3.2601 4.25 3.67432 4.25H21.6743C22.0885 4.25 22.4243 4.58579 22.4243 5C22.4243 5.41421 22.0885 5.75 21.6743 5.75H3.67432C3.2601 5.75 2.92432 5.41421 2.92432 5Z" fill="black"/>
<path fill-rule="evenodd" clip-rule="evenodd" d="M2.92432 12C2.92432 11.5858 3.2601 11.25 3.67432 11.25H15.6743C16.0885 11.25 16.4243 11.5858 16.4243 12C16.4243 12.4142 16.0885 12.75 15.6743 12.75H3.67432C3.2601 12.75 2.92432 12.4142 2.92432 12Z" fill="black"/>
<path fill-rule="evenodd" clip-rule="evenodd" d="M2.92432 19C2.92432 18.5858 3.2601 18.25 3.67432 18.25H9.67432C10.0885 18.25 10.4243 18.5858 10.4243 19C10.4243 19.4142 10.0885 19.75 9.67432 19.75H3.67432C3.2601 19.75 2.92432 19.4142 2.92432 19Z" fill="black"/>
</svg>
