<svg width="25" height="24" viewBox="0 0 25 24" fill="none" xmlns="http://www.w3.org/2000/svg">
<path fill-rule="evenodd" clip-rule="evenodd" d="M2.79932 5C2.79932 4.51675 3.19107 4.125 3.67432 4.125H21.6743C22.1576 4.125 22.5493 4.51675 22.5493 5C22.5493 5.48325 22.1576 5.875 21.6743 5.875H3.67432C3.19107 5.875 2.79932 5.48325 2.79932 5Z" fill="black"/>
<path fill-rule="evenodd" clip-rule="evenodd" d="M2.79932 12C2.79932 11.5168 3.19107 11.125 3.67432 11.125H15.6743C16.1576 11.125 16.5493 11.5168 16.5493 12C16.5493 12.4832 16.1576 12.875 15.6743 12.875H3.67432C3.19107 12.875 2.79932 12.4832 2.79932 12Z" fill="black"/>
<path fill-rule="evenodd" clip-rule="evenodd" d="M2.79932 19C2.79932 18.5168 3.19107 18.125 3.67432 18.125H9.67432C10.1576 18.125 10.5493 18.5168 10.5493 19C10.5493 19.4832 10.1576 19.875 9.67432 19.875H3.67432C3.19107 19.875 2.79932 19.4832 2.79932 19Z" fill="black"/>
</svg>
