<svg width="25" height="25" viewBox="0 0 25 25" fill="none" xmlns="http://www.w3.org/2000/svg">
<path fill-rule="evenodd" clip-rule="evenodd" d="M15.8916 14.3897C15.7981 14.4046 15.7028 14.4182 15.6061 14.4306C15.742 14.7667 15.8178 15.1275 15.8178 15.5101C15.8178 16.7785 14.996 17.845 13.8933 18.5564C12.7771 19.2765 11.2732 19.7103 9.63262 19.7103H9.61676L9.60091 19.7096L9.4099 19.7019C9.10152 19.6895 8.7032 19.6736 8.30722 19.6452C8.06641 19.628 7.81063 19.6052 7.56449 19.573L5.11364 21.0093C4.85172 21.1628 4.52311 21.1432 4.28123 20.9598C4.03935 20.7764 3.9319 20.4652 4.00906 20.1716L4.4431 18.5199C3.60287 17.8484 2.97757 16.7898 2.9758 15.5679C2.95976 14.2509 3.96729 13.2048 5.13507 12.5383C5.38421 12.3961 5.64988 12.2652 5.92897 12.147C5.07726 11.2955 4.53357 10.2453 4.53357 9.08051C4.53357 7.442 5.62264 6.08191 7.12077 5.17106C8.63234 4.25204 10.6727 3.70801 12.8865 3.70801C15.112 3.70801 17.2077 4.30316 18.7763 5.24804C20.3147 6.17473 21.499 7.54273 21.5405 9.14099L21.5407 9.15073V9.16047C21.5407 10.409 21.2019 11.3994 20.6 12.1575C20.3107 12.5218 19.9724 12.8177 19.6064 13.0583L20.3271 15.3837C20.4178 15.6766 20.3212 15.9952 20.083 16.1883C19.8448 16.3814 19.513 16.41 19.2453 16.2607L15.8916 14.3897ZM6.03357 9.08051C6.03357 8.16607 6.64647 7.21491 7.90004 6.45275C9.14017 5.69876 10.9013 5.20801 12.8865 5.20801C14.8599 5.20801 16.6845 5.73909 18.0023 6.53294C19.3456 7.34207 20.0141 8.32118 20.0407 9.17079C20.0389 10.1295 19.7837 10.7733 19.4253 11.2247C19.0815 11.6577 18.5973 11.9703 18.007 12.1913L17.7884 12.259L18.3396 14.0377L16.1364 12.8086L16.1352 12.8107C15.7255 12.9184 15.1831 12.9806 14.5587 13.0234C14.3405 12.8348 14.102 12.6633 13.8502 12.5102C12.7214 11.8239 11.21 11.4238 9.58033 11.4238C8.91521 11.4238 8.25588 11.4939 7.62623 11.6236L7.58014 11.5902C6.54386 10.8297 6.03357 9.93052 6.03357 9.08051ZM6.0021 17.7023L6.19555 17.7531L5.92109 18.7975L7.28612 17.9975L7.2878 18.0004C7.54229 18.0674 7.94875 18.1157 8.41438 18.1491C8.78408 18.1756 9.15271 18.1903 9.46083 18.2027L9.64805 18.2103C11.0317 18.2076 12.2395 17.8383 13.0801 17.296C13.9372 16.743 14.3178 16.0844 14.3178 15.5101C14.3178 14.9509 13.9416 14.3213 13.0709 13.7919C12.2136 13.2706 10.9813 12.9238 9.58033 12.9238C8.1847 12.9238 6.84447 13.2897 5.87861 13.841C4.87192 14.4156 4.46869 15.0619 4.47572 15.552L4.47579 15.5627C4.47579 16.5551 5.21263 17.4228 6.0021 17.7023Z" fill="black"/>
</svg>
