<svg width="25" height="25" viewBox="0 0 25 25" fill="none" xmlns="http://www.w3.org/2000/svg">
<path fill-rule="evenodd" clip-rule="evenodd" d="M10.2976 14.1815C10.2976 13.0498 11.215 12.1323 12.3468 12.1323C12.666 12.1323 12.9682 12.2053 13.2375 12.3356L15.0585 10.5146C15.3514 10.2217 15.8263 10.2217 16.1192 10.5146C16.4121 10.8075 16.4121 11.2824 16.1192 11.5753L14.2567 13.4377C14.3466 13.6683 14.3959 13.9191 14.3959 14.1815C14.3959 15.3132 13.4785 16.2306 12.3468 16.2306C11.215 16.2306 10.2976 15.3132 10.2976 14.1815ZM12.3468 13.6323C12.0435 13.6323 11.7976 13.8782 11.7976 14.1815C11.7976 14.4848 12.0435 14.7306 12.3468 14.7306C12.65 14.7306 12.8959 14.4848 12.8959 14.1815C12.8959 13.8782 12.65 13.6323 12.3468 13.6323Z" fill="black"/>
<path fill-rule="evenodd" clip-rule="evenodd" d="M9.78833 3.22949C9.78833 2.81528 10.1241 2.47949 10.5383 2.47949H14.1408C14.555 2.47949 14.8908 2.81528 14.8908 3.22949V4.89681C14.8908 5.31103 14.555 5.64681 14.1408 5.64681H13.097L13.0971 5.90348C14.6252 6.04012 16.0344 6.59036 17.2116 7.44147L17.7924 6.86075L17.6467 6.72062C17.3482 6.43342 17.3391 5.95863 17.6263 5.66015C17.9135 5.36168 18.3883 5.35253 18.6868 5.63973L20.112 7.01114C20.4105 7.29834 20.4196 7.77312 20.1324 8.0716C19.8452 8.37008 19.3705 8.37922 19.072 8.09202L18.8734 7.90098L18.3459 8.4285C19.7786 9.92185 20.659 11.9491 20.659 14.1819C20.659 18.7724 16.9377 22.4938 12.3472 22.4938C7.75673 22.4938 4.0354 18.7724 4.0354 14.1819L4.03557 14.1278C4.03501 14.1159 4.03472 14.1039 4.03472 14.0918C4.03472 14.0737 4.03536 14.0558 4.03662 14.038C4.07327 11.8796 4.93262 9.92164 6.31457 8.46409C6.34478 8.41492 6.38118 8.36847 6.42377 8.32587C6.46406 8.28559 6.50779 8.25085 6.55401 8.22164C7.88301 6.92967 9.64264 6.07834 11.5971 5.90351L11.597 5.64681H10.5383C10.1241 5.64681 9.78833 5.31103 9.78833 4.89681V3.22949ZM11.2883 3.97949V4.14681H13.3908V3.97949H11.2883ZM6.99945 9.96221L7.8288 10.7916C8.12169 11.0845 8.59657 11.0845 8.88946 10.7916C9.18235 10.4987 9.18235 10.0238 8.88946 9.7309L8.05269 8.89413C9.22451 7.94127 10.7192 7.37012 12.3472 7.37012C16.1093 7.37012 19.159 10.4199 19.159 14.1819C19.159 17.6891 16.5085 20.5773 13.1013 20.9525V19.6665C13.1013 19.2523 12.7655 18.9165 12.3513 18.9165C11.9371 18.9165 11.6013 19.2523 11.6013 19.6665V20.9534C10.2593 20.8072 9.0344 20.2713 8.04214 19.4611L8.93927 18.564C9.23216 18.2711 9.23216 17.7963 8.93927 17.5034C8.64637 17.2105 8.1715 17.2105 7.87861 17.5034L6.99101 18.391C6.20703 17.3947 5.69504 16.1743 5.56695 14.8418H6.77173C7.18594 14.8418 7.52173 14.506 7.52173 14.0918C7.52173 13.6776 7.18594 13.3418 6.77173 13.3418H5.5867C5.74254 12.0748 6.24629 10.9154 6.99945 9.96221Z" fill="black"/>
</svg>
