<svg width="24" height="24" viewBox="0 0 24 24" fill="none" xmlns="http://www.w3.org/2000/svg">
<path d="M11.8717 3.84937C8.85397 3.84937 6.21791 5.48956 4.80874 7.92924L5.32851 7.72133C5.5849 7.61877 5.87589 7.74348 5.97844 7.99987C6.081 8.25627 5.95629 8.54725 5.6999 8.64981L3.58072 9.49748C3.4428 9.55265 3.28749 9.54364 3.15687 9.47288C3.02626 9.40213 2.93387 9.27696 2.90474 9.1313L2.4809 7.01212C2.42675 6.74134 2.60235 6.47793 2.87313 6.42377C3.14391 6.36962 3.40733 6.54522 3.46148 6.816L3.52789 7.14806C5.19971 4.27909 8.30969 2.34937 11.8717 2.34937C16.9701 2.34937 21.1446 6.30249 21.4981 11.3114C21.5272 11.7245 21.2159 12.0831 20.8027 12.1123C20.3896 12.1415 20.031 11.8301 20.0018 11.417C19.7033 7.18799 16.1771 3.84937 11.8717 3.84937Z" fill="black"/>
<path d="M2.97119 11.2499C3.3854 11.2499 3.72119 11.5857 3.72119 11.9999C3.72119 16.5013 7.37032 20.1505 11.8717 20.1505C14.9021 20.1505 17.5475 18.4967 18.9524 16.0399L18.3948 16.2955C18.1186 16.4222 17.7921 16.3009 17.6655 16.0248C17.5389 15.7487 17.6601 15.4222 17.9362 15.2955L20.2187 14.249C20.3672 14.1809 20.5384 14.1823 20.6857 14.253C20.8331 14.3236 20.9414 14.4561 20.9813 14.6146L21.5622 16.9201C21.6364 17.2146 21.4578 17.5136 21.1632 17.5878C20.8686 17.6621 20.5696 17.4834 20.4954 17.1888L20.3503 16.6129C18.7148 19.6128 15.5319 21.6505 11.8717 21.6505C6.54189 21.6505 2.22119 17.3298 2.22119 11.9999C2.22119 11.5857 2.55698 11.2499 2.97119 11.2499Z" fill="black"/>
<path fill-rule="evenodd" clip-rule="evenodd" d="M11.9694 7.16844C12.1747 7.08888 12.4019 7.08674 12.6086 7.16242L18.278 9.23747C19.0547 9.52175 19.0763 10.6123 18.3115 10.9273L16.1819 11.8042V14.7473C16.1819 16.2661 14.9506 17.4973 13.4319 17.4973H10.9048C9.386 17.4973 8.15479 16.2661 8.15479 14.7473V11.6063L7.28125 11.2255V12.8603C7.54793 13.0779 7.71821 13.4092 7.71821 13.7802C7.71821 14.4357 7.18689 14.967 6.53147 14.967C5.87605 14.967 5.34473 14.4357 5.34473 13.7802C5.34473 13.4094 5.51482 13.0783 5.78125 12.8607V10.22C5.78125 9.91711 5.96077 9.65617 6.2192 9.53777C6.31436 9.41251 6.44647 9.3088 6.61517 9.24342L11.9694 7.16844ZM12.303 8.64786L8.50147 10.1211L12.3038 11.7789L16.329 10.1214L12.303 8.64786ZM9.65479 12.2603V14.7473C9.65479 15.4377 10.2144 15.9973 10.9048 15.9973H13.4319C14.1222 15.9973 14.6819 15.4377 14.6819 14.7473V12.4218L12.6424 13.2616C12.4153 13.3551 12.1599 13.3525 11.9348 13.2544L9.65479 12.2603Z" fill="black"/>
</svg>
