<svg width="24" height="24" viewBox="0 0 24 24" fill="none" xmlns="http://www.w3.org/2000/svg">
<path fill-rule="evenodd" clip-rule="evenodd" d="M3.32547 10.2039L3.13968 10.1055C2.37476 9.70058 2.40074 8.59604 3.18388 8.22751L11.5565 4.28744C11.8325 4.15757 12.1513 4.15412 12.4301 4.278L21.2956 8.21824C22.1065 8.57863 22.1324 9.72004 21.3387 10.1169L18.5994 11.4865V16.5707C18.5994 17.1845 18.2761 17.7643 17.7314 18.0762C15.6912 19.2444 13.9552 19.9044 12.1862 19.9135C10.4094 19.9226 8.71284 19.275 6.75091 18.0681C6.23281 17.7493 5.93229 17.1851 5.93229 16.5935V11.584L4.77344 10.9705V14.4792C4.77344 14.5399 4.76623 14.5989 4.75263 14.6554C5.26702 14.9202 5.61884 15.4563 5.61884 16.0747C5.61884 16.9558 4.9046 17.67 4.02353 17.67C3.14247 17.67 2.42822 16.9558 2.42822 16.0747C2.42822 15.4564 2.77996 14.9203 3.29426 14.6555C3.28065 14.5989 3.27344 14.5399 3.27344 14.4792V10.6288C3.27344 10.4825 3.29146 10.3401 3.32547 10.2039ZM5.38158 8.85109L12.009 5.73232L19.815 9.20168L12.0098 13.1043L6.65528 10.2695L11.2975 9.96003C11.4848 10.125 11.7308 10.2251 12.0001 10.2251C12.5874 10.2251 13.0636 9.74897 13.0636 9.16159C13.0636 8.57421 12.5874 8.09805 12.0001 8.09805C11.6799 8.09805 11.3928 8.23951 11.1978 8.46334L5.38158 8.85109ZM7.43229 12.3781V16.5935C7.43229 16.6809 7.47664 16.7534 7.53688 16.7905C9.38422 17.927 10.7985 18.4206 12.1785 18.4135C13.5664 18.4064 15.0331 17.8928 16.986 16.7745C17.052 16.7367 17.0994 16.6607 17.0994 16.5707V12.2365L12.4735 14.5495C12.1702 14.7011 11.8124 14.697 11.5127 14.5383L7.43229 12.3781Z" fill="black"/>
</svg>
