<svg width="25" height="25" viewBox="0 0 25 25" fill="none" xmlns="http://www.w3.org/2000/svg">
<path fill-rule="evenodd" clip-rule="evenodd" d="M12.7573 2.68971C12.615 2.5112 12.3991 2.40723 12.1708 2.40723C11.9425 2.40723 11.7267 2.5112 11.5844 2.68971L9.7603 4.97785L6.93965 4.19888C6.71959 4.13811 6.48384 4.18087 6.29916 4.31505C6.11447 4.44924 6.00095 4.66023 5.99074 4.88829L5.85996 7.81161L3.12014 8.83934C2.90639 8.91952 2.7408 9.09269 2.67026 9.3098C2.59971 9.52692 2.63189 9.76434 2.75769 9.95485L4.37016 12.3967L2.75769 14.8386C2.63189 15.0291 2.59971 15.2665 2.67026 15.4837C2.7408 15.7008 2.90639 15.8739 3.12014 15.9541L5.85996 16.9818L5.99074 19.9052C6.00095 20.1332 6.11447 20.3442 6.29916 20.4784C6.48384 20.6126 6.71959 20.6554 6.93965 20.5946L9.7603 19.8156L11.5844 22.1037C11.7267 22.2823 11.9425 22.3862 12.1708 22.3862C12.3991 22.3862 12.615 22.2823 12.7573 22.1037L14.5814 19.8156L17.402 20.5946C17.6221 20.6554 17.8578 20.6126 18.0425 20.4784C18.2272 20.3442 18.3407 20.1332 18.3509 19.9052L18.4817 16.9818L21.2215 15.9541C21.4353 15.8739 21.6009 15.7008 21.6714 15.4837C21.742 15.2665 21.7098 15.0291 21.584 14.8386L19.9715 12.3967L21.584 9.95485C21.7098 9.76434 21.742 9.52692 21.6714 9.3098C21.6009 9.09269 21.4353 8.91952 21.2215 8.83934L18.4817 7.81161L18.3509 4.88829C18.3407 4.66023 18.2272 4.44924 18.0425 4.31505C17.8578 4.18087 17.6221 4.13811 17.402 4.19888L14.5814 4.97785L12.7573 2.68971ZM10.972 5.8642L12.1708 4.36039L13.3695 5.864C12.9808 5.79328 12.5804 5.75635 12.1713 5.75635C11.7618 5.75635 11.361 5.79335 10.972 5.8642ZM9.29943 6.40672L7.4472 5.8952L7.36134 7.81424C7.9139 7.23565 8.56981 6.7566 9.29943 6.40672ZM6.32174 9.24045L4.52783 9.91336L5.58127 11.5087C5.69081 10.697 5.94679 9.93175 6.32174 9.24045ZM5.5791 13.2881L4.52783 14.8801L6.30855 15.5481C5.93831 14.8586 5.68614 14.0962 5.5791 13.2881ZM7.36226 16.9997L7.4472 18.8983L9.27373 18.3938C8.5548 18.0453 7.90813 17.571 7.36226 16.9997ZM10.9902 18.952L12.1708 20.4331L13.3514 18.9522C12.9684 19.0208 12.574 19.0566 12.1713 19.0566C11.7682 19.0566 11.3735 19.0207 10.9902 18.952ZM15.0685 18.394L16.8945 18.8983L16.9794 17.0007C16.4336 17.5717 15.7872 18.0456 15.0685 18.394ZM18.0343 15.5476L19.8138 14.8801L18.7634 13.2893C18.6562 14.0968 18.4042 14.8586 18.0343 15.5476ZM18.7612 11.5075L19.8138 9.91336L18.0211 9.24089C18.3958 9.93174 18.6516 10.6964 18.7612 11.5075ZM16.9803 7.81321L16.8945 5.8952L15.0428 6.40656C15.7722 6.75624 16.4278 7.23499 16.9803 7.81321ZM7.02118 12.4065C7.02118 9.56214 9.32697 7.25635 12.1713 7.25635C15.0156 7.25635 17.3214 9.56214 17.3214 12.4065C17.3214 15.2508 15.0156 17.5566 12.1713 17.5566C9.32697 17.5566 7.02118 15.2508 7.02118 12.4065Z" fill="black"/>
</svg>
