<svg width="25" height="25" viewBox="0 0 25 25" fill="none" xmlns="http://www.w3.org/2000/svg">
<path fill-rule="evenodd" clip-rule="evenodd" d="M11.8343 6.92462C8.57743 7.03799 5.63954 7.95416 3.78733 9.26862C3.44953 9.50835 2.98136 9.42884 2.74164 9.09105C2.50191 8.75325 2.58142 8.28508 2.91921 8.04536C5.07047 6.51867 8.31534 5.5462 11.7821 5.42553C15.2596 5.30449 19.0441 6.03706 22.2772 8.01744C22.6304 8.23379 22.7414 8.69552 22.525 9.04874C22.3086 9.40196 21.8469 9.51291 21.4937 9.29655C18.5601 7.49963 15.0803 6.81164 11.8343 6.92462Z" fill="black"/>
<path fill-rule="evenodd" clip-rule="evenodd" d="M11.9738 11.3382C9.51244 11.4239 7.30603 12.1166 5.92746 13.095C5.58967 13.3347 5.1215 13.2552 4.88178 12.9174C4.64205 12.5796 4.72155 12.1114 5.05935 11.8717C6.73696 10.6811 9.25036 9.93211 11.9216 9.83913C14.6037 9.74577 17.5288 10.3103 20.0323 11.8438C20.3855 12.0601 20.4965 12.5219 20.2801 12.8751C20.0637 13.2283 19.602 13.3392 19.2488 13.1229C17.0448 11.7728 14.4244 11.2529 11.9738 11.3382Z" fill="black"/>
<path fill-rule="evenodd" clip-rule="evenodd" d="M12.2052 15.4996C10.4903 15.5696 8.96386 16.135 8.01806 16.9214C7.69955 17.1862 7.22668 17.1426 6.96186 16.8241C6.69705 16.5056 6.74058 16.0327 7.05909 15.7679C8.30852 14.7291 10.1722 14.0813 12.1441 14.0009C14.1278 13.92 16.2907 14.4099 18.1376 15.7353C18.4742 15.9768 18.5512 16.4454 18.3097 16.7819C18.0682 17.1184 17.5996 17.1955 17.2631 16.954C15.7287 15.8529 13.9082 15.4302 12.2052 15.4996Z" fill="black"/>
<path fill-rule="evenodd" clip-rule="evenodd" d="M12.5308 19.5808C11.6677 19.6142 10.9273 19.8848 10.4935 20.2269C10.1683 20.4834 9.69668 20.4277 9.44017 20.1025C9.18366 19.7772 9.23937 19.3057 9.5646 19.0491C10.3017 18.4678 11.3695 18.1246 12.4728 18.0819C13.5875 18.0388 14.8147 18.2989 15.871 19.018C16.2135 19.2511 16.3021 19.7177 16.069 20.0601C15.8359 20.4025 15.3694 20.4911 15.027 20.258C14.2798 19.7494 13.3824 19.5478 12.5308 19.5808Z" fill="black"/>
</svg>
