<svg width="25" height="25" viewBox="0 0 25 25" fill="none" xmlns="http://www.w3.org/2000/svg">
<path fill-rule="evenodd" clip-rule="evenodd" d="M19.1517 3.44215C18.8743 3.31831 18.5497 3.37395 18.3294 3.58308L15.917 5.87356C15.7356 6.04584 15.652 6.29726 15.6942 6.54389L15.8973 7.73177L15.34 8.25512C14.054 7.11945 12.3644 6.43029 10.5138 6.43029C6.48548 6.43029 3.21985 9.69592 3.21985 13.7243C3.21985 17.7527 6.48548 21.0183 10.5138 21.0183C14.5422 21.0183 17.8079 17.7527 17.8079 13.7243C17.8079 12.0867 17.2682 10.5752 16.357 9.3578L16.8383 8.90587L18.2348 9.21993C18.4789 9.27483 18.7343 9.20438 18.9157 9.0321L21.3281 6.74159C21.5484 6.53246 21.6208 6.21115 21.5114 5.92778C21.4021 5.64441 21.1327 5.45494 20.8291 5.4479L19.5591 5.41846L19.5955 4.14846C19.6042 3.84486 19.429 3.56599 19.1517 3.44215ZM18.1733 7.66863L17.3777 7.48972L17.2402 6.68567L18.0441 5.92242L18.0395 6.08291C18.038 6.09958 18.037 6.1164 18.0366 6.13337C18.0313 6.3659 18.1323 6.57615 18.2952 6.71753C18.4216 6.82775 18.5856 6.89646 18.7663 6.90164C18.7819 6.90209 18.7973 6.90206 18.8126 6.90156L18.9771 6.90538L18.1733 7.66863ZM10.5138 7.93029C7.31391 7.93029 4.71985 10.5244 4.71985 13.7243C4.71985 16.9242 7.31391 19.5183 10.5138 19.5183C13.7138 19.5183 16.3079 16.9242 16.3079 13.7243C16.3079 12.4842 15.9183 11.3352 15.2549 10.3928L14.4166 11.18C14.8946 11.9115 15.1725 12.7857 15.1725 13.7248C15.1725 16.2975 13.0869 18.3831 10.5142 18.3831C7.94151 18.3831 5.85593 16.2975 5.85593 13.7248C5.85593 11.1521 7.94151 9.06652 10.5142 9.06652C11.6065 9.06652 12.6109 9.44244 13.4053 10.072L14.2405 9.28762C13.2331 8.44055 11.9331 7.93029 10.5138 7.93029ZM10.5142 10.5665C11.1744 10.5665 11.7873 10.7691 12.2941 11.1154L11.2783 12.0693C11.27 12.0771 11.262 12.0849 11.2542 12.093C11.0286 11.9905 10.7781 11.9335 10.5142 11.9335C9.52497 11.9335 8.72304 12.7354 8.72304 13.7246C8.72304 14.7139 9.52497 15.5158 10.5142 15.5158C11.5034 15.5158 12.3054 14.7139 12.3054 13.7246C12.3054 13.5501 12.2804 13.3814 12.2339 13.2219C12.2585 13.2039 12.2823 13.1842 12.3051 13.1628L13.2975 12.2309C13.5367 12.6756 13.6725 13.1844 13.6725 13.7248C13.6725 15.4691 12.2585 16.8831 10.5142 16.8831C8.76994 16.8831 7.35593 15.4691 7.35593 13.7248C7.35593 11.9805 8.76994 10.5665 10.5142 10.5665Z" fill="black"/>
</svg>
