<svg width="25" height="25" viewBox="0 0 25 25" fill="none" xmlns="http://www.w3.org/2000/svg">
<path fill-rule="evenodd" clip-rule="evenodd" d="M12.8073 8.24316C12.8073 7.82895 12.4715 7.49316 12.0573 7.49316C11.643 7.49316 11.3073 7.82895 11.3073 8.24316L11.3073 14.9018C10.1678 15.2272 9.33362 16.2764 9.33362 17.5203C9.33362 19.0242 10.5527 20.2433 12.0566 20.2433C13.5605 20.2433 14.7796 19.0242 14.7796 17.5203C14.7796 16.2769 13.9461 15.228 12.8073 14.9021L12.8073 8.24316ZM10.8336 17.5203C10.8336 16.8449 11.3812 16.2974 12.0566 16.2974C12.732 16.2974 13.2796 16.8449 13.2796 17.5203C13.2796 18.1958 12.732 18.7433 12.0566 18.7433C11.3812 18.7433 10.8336 18.1958 10.8336 17.5203Z" fill="black"/>
<path fill-rule="evenodd" clip-rule="evenodd" d="M12.0594 2.46826C10.4746 2.46826 9.18982 3.75298 9.18981 5.33778L9.18972 13.6206C8.44643 14.1699 7.84547 14.9275 7.51328 15.8108C7.15 16.7769 7.04871 17.8851 7.3583 18.9254C7.66059 19.941 8.28684 20.8299 9.14151 21.4564C9.99618 22.0829 11.0323 22.4127 12.0919 22.3953C13.1515 22.3779 14.1762 22.0143 15.0099 21.3601C15.8282 20.7179 16.5163 19.7529 16.7897 18.71C17.0654 17.6589 16.9242 16.5528 16.53 15.6007C16.1907 14.7811 15.6372 14.0753 14.9289 13.5532V11.2725H18.6387C19.0529 11.2725 19.3887 10.9367 19.3887 10.5225C19.3887 10.1082 19.0529 9.77246 18.6387 9.77246H14.9289V8.88916H17.2367C17.6509 8.88916 17.9867 8.55337 17.9867 8.13916C17.9867 7.72495 17.6509 7.38916 17.2367 7.38916H14.9289V6.67041H18.6387C19.0529 6.67041 19.3887 6.33462 19.3887 5.92041C19.3887 5.5062 19.0529 5.17041 18.6387 5.17041H14.9241C14.8374 3.66351 13.588 2.46826 12.0594 2.46826ZM13.4289 10.4933V5.94953C13.4285 5.93987 13.4283 5.93016 13.4283 5.92041C13.4283 5.91066 13.4285 5.90095 13.4289 5.89129V5.33781C13.4289 4.58143 12.8157 3.96826 12.0594 3.96826C11.303 3.96826 10.6898 4.58142 10.6898 5.33779L10.6897 14.0187C10.6897 14.3024 10.5322 14.5493 10.2998 14.6767C9.66922 15.0739 9.17069 15.665 8.91729 16.3388C8.64978 17.0502 8.59439 17.8201 8.79598 18.4975C9.00488 19.1994 9.43767 19.8137 10.0283 20.2467C10.619 20.6796 11.335 20.9075 12.0673 20.8955C12.7995 20.8835 13.5077 20.6322 14.0839 20.1801C14.6753 19.716 15.1577 19.0201 15.3388 18.3296C15.5177 17.6473 15.4354 16.8781 15.1441 16.1745C14.8801 15.5369 14.43 15.0006 13.8508 14.6315C13.601 14.5098 13.4289 14.2535 13.4289 13.9569V10.5516C13.4285 10.5419 13.4283 10.5322 13.4283 10.5225C13.4283 10.5127 13.4285 10.503 13.4289 10.4933Z" fill="black"/>
</svg>
