<svg width="25" height="25" viewBox="0 0 25 25" fill="none" xmlns="http://www.w3.org/2000/svg">
<path fill-rule="evenodd" clip-rule="evenodd" d="M7.52437 19.8732C8.54817 20.5131 9.69077 20.9912 11.2001 21.0061L11.2075 21.0061H17.6931C18.7515 21.0061 19.4713 20.0717 19.4713 19.1049C19.4713 18.8187 19.4083 18.5353 19.292 18.2782C19.3147 18.2613 19.3371 18.2439 19.3593 18.226C19.7937 17.8737 20.0892 17.3361 20.0892 16.6561C20.0892 16.6417 20.0888 16.6273 20.088 16.6129C20.0685 16.2747 19.9769 15.9516 19.8258 15.6681C20.2828 15.3174 20.6 14.772 20.6201 14.052L20.6204 14.0316C20.6207 13.6181 20.5239 13.2344 20.349 12.9111C20.7254 12.5515 20.9565 12.0398 20.9565 11.4878C20.9565 10.4442 20.1306 9.54482 19.0579 9.54482H15.8058C16.3744 8.26671 16.5037 6.96808 16.4873 5.95866L16.4872 5.95641C16.4762 5.38272 16.381 4.7513 16.0651 4.24129C15.7144 3.67494 15.1358 3.33301 14.3766 3.33301C13.9166 3.33301 13.5521 3.5496 13.2842 3.79467C13.0228 4.03374 12.8026 4.34495 12.6113 4.65447C12.417 4.96889 12.2237 5.33004 12.0315 5.69078L12.0056 5.73936C11.8178 6.09187 11.626 6.45174 11.4153 6.81193C10.5442 8.30077 9.4799 9.5631 7.69296 9.71195C7.20789 9.15598 6.49416 8.80469 5.69838 8.80469C4.23703 8.80469 3.05237 9.98935 3.05237 11.4507V17.9582C3.05237 19.4196 4.23703 20.6043 5.69838 20.6043C6.40642 20.6043 7.0495 20.3262 7.52437 19.8732ZM8.32647 11.1411C8.33831 11.2427 8.34439 11.346 8.34439 11.4507V17.9582C8.34439 18.1695 8.31963 18.375 8.27285 18.572C9.15115 19.1279 10.0357 19.4938 11.2113 19.5061H17.6931C17.7392 19.5061 17.7999 19.4866 17.8604 19.4189C17.922 19.3499 17.9713 19.2407 17.9713 19.1049C17.9713 18.969 17.922 18.8598 17.8604 18.7909C17.7999 18.7231 17.7392 18.7036 17.6931 18.7036C17.2788 18.7036 16.9431 18.3678 16.9431 17.9536C16.9431 17.5394 17.2788 17.2036 17.6931 17.2036C17.7628 17.2036 17.8311 17.2077 17.8978 17.2155C17.9185 17.2138 17.9394 17.2129 17.9606 17.2129C18.1252 17.2129 18.2977 17.1556 18.4146 17.0608C18.5082 16.985 18.584 16.8743 18.589 16.6771C18.5568 16.2667 18.3052 16.1318 18.1469 16.1318C17.7327 16.1318 17.3969 15.796 17.3969 15.3818C17.3969 14.9676 17.7327 14.6318 18.1469 14.6318C18.2159 14.6318 18.2835 14.6354 18.3498 14.6424C18.359 14.642 18.3683 14.6419 18.3776 14.6419C18.5682 14.6419 18.7686 14.5846 18.9045 14.4841C19.0118 14.4048 19.1107 14.2798 19.1204 14.02C19.1185 13.7638 19.0404 13.6162 18.9741 13.542C18.9091 13.4692 18.8256 13.4307 18.7217 13.4307C18.3075 13.4307 17.9717 13.0949 17.9717 12.6807C17.9717 12.2665 18.3075 11.9307 18.7217 11.9307C18.7927 11.9307 18.8622 11.9344 18.9303 11.9416C18.9717 11.9345 19.0144 11.9308 19.0579 11.9308C19.2491 11.9308 19.4565 11.757 19.4565 11.4878C19.4565 11.2186 19.2491 11.0448 19.0579 11.0448H14.5335C14.1193 11.0448 13.7835 10.709 13.7835 10.2948V10.2792C13.7835 10.1251 13.831 9.97476 13.9195 9.8486C14.8021 8.58982 15.006 7.13333 14.9875 5.98417C14.9784 5.51656 14.8973 5.20442 14.7899 5.03113C14.7426 4.95468 14.6955 4.91354 14.6495 4.88816C14.6043 4.86323 14.5259 4.83466 14.3886 4.83308C14.3755 4.83917 14.3456 4.85664 14.2966 4.90144C14.1888 5.00003 14.055 5.17171 13.8873 5.44309C13.7226 5.70955 13.5518 6.02731 13.3552 6.39627L13.3258 6.45149C13.1407 6.79883 12.9362 7.18272 12.71 7.56938C11.8531 9.03403 10.5697 10.7433 8.32647 11.1411ZM4.55237 11.4507C4.55237 10.8178 5.06546 10.3047 5.69838 10.3047C6.33131 10.3047 6.84439 10.8178 6.84439 11.4507V17.9582C6.84439 18.5912 6.33131 19.1043 5.69838 19.1043C5.06546 19.1043 4.55237 18.5912 4.55237 17.9582V11.4507Z" fill="black"/>
</svg>
