<svg width="25" height="25" viewBox="0 0 25 25" fill="none" xmlns="http://www.w3.org/2000/svg">
<path fill-rule="evenodd" clip-rule="evenodd" d="M16.4914 4.27978C15.4639 3.63726 14.3173 3.15709 12.8024 3.14213L12.795 3.14209H6.28743C5.22707 3.14209 4.50569 4.07821 4.50568 5.04725C4.50568 5.33488 4.56924 5.61961 4.68636 5.87783C4.66306 5.89514 4.64004 5.913 4.61733 5.93141C4.18197 6.28441 3.88582 6.82315 3.88582 7.50462C3.88582 7.51903 3.88623 7.53343 3.88706 7.54781C3.90667 7.88762 3.9988 8.21214 4.15089 8.49671C3.6922 8.84805 3.37379 9.39498 3.3536 10.1173L3.35331 10.1376C3.35295 10.5529 3.45034 10.9381 3.62625 11.2625C3.24791 11.6229 3.01558 12.1364 3.01558 12.6905C3.01558 13.7363 3.84323 14.6375 4.91812 14.6375L8.18513 14.6375C7.61346 15.9206 7.48354 17.2248 7.50001 18.2383L7.50005 18.2406C7.51113 18.816 7.60658 19.449 7.92319 19.9602C8.27469 20.5277 8.85438 20.8704 9.61528 20.8704C10.076 20.8704 10.4412 20.6535 10.7097 20.4078C10.9717 20.1682 11.1925 19.8561 11.3844 19.5456C11.5794 19.2302 11.7732 18.8679 11.9661 18.506L11.9921 18.4572C12.1806 18.1035 12.373 17.7424 12.5845 17.3809C13.4589 15.8862 14.528 14.6181 16.3238 14.4696C16.8101 15.0273 17.5258 15.3797 18.3238 15.3797C19.7887 15.3797 20.9762 14.1921 20.9762 12.7272V6.19759C20.9762 4.73269 19.7887 3.54515 18.3238 3.54515C17.613 3.54515 16.9676 3.82467 16.4914 4.27978ZM7.03743 6.20241C7.03743 6.61662 6.70165 6.95241 6.28743 6.95241C6.21803 6.95241 6.15008 6.9484 6.08369 6.94063C6.06242 6.94244 6.0409 6.94336 6.01917 6.94336C5.85347 6.94336 5.67984 7.00102 5.56204 7.09654C5.46755 7.17316 5.3911 7.2849 5.38608 7.48362C5.4184 7.89661 5.6718 8.03322 5.83217 8.03322C6.24638 8.03322 6.58217 8.369 6.58217 8.78322C6.58217 9.19743 6.24638 9.53322 5.83217 9.53322C5.76216 9.53322 5.69345 9.52954 5.62616 9.52237C5.61786 9.52264 5.60953 9.52278 5.60117 9.52278C5.40944 9.52278 5.20783 9.58031 5.07093 9.68156C4.96269 9.76161 4.86303 9.88776 4.85334 10.1492C4.85517 10.4069 4.93372 10.5557 5.00075 10.6307C5.06647 10.7042 5.1509 10.7432 5.25585 10.7432C5.67006 10.7432 6.00585 11.079 6.00585 11.4932C6.00585 11.9074 5.67006 12.2432 5.25585 12.2432C5.18503 12.2432 5.1156 12.2395 5.04764 12.2323C5.00557 12.2396 4.96229 12.2434 4.91812 12.2434C4.72472 12.2434 4.51558 12.419 4.51558 12.6905C4.51558 12.9619 4.72472 13.1375 4.91812 13.1375L9.45782 13.1375C9.87203 13.1375 10.2078 13.4733 10.2078 13.8875V13.9032C10.2078 14.0573 10.1604 14.2076 10.0719 14.3338C9.18584 15.5974 8.9812 17.0595 8.9998 18.2128C9.00896 18.6822 9.09034 18.9959 9.19839 19.1704C9.2461 19.2474 9.29368 19.289 9.34028 19.3147C9.3861 19.34 9.4653 19.3688 9.60375 19.3703C9.61695 19.3643 9.64729 19.3468 9.69725 19.301C9.80566 19.2019 9.94011 19.0294 10.1084 18.757C10.2737 18.4896 10.4451 18.1707 10.6424 17.8005L10.6719 17.7451C10.8576 17.3965 11.0628 17.0114 11.2898 16.6235C12.1499 15.1533 13.4379 13.4382 15.6896 13.0403C15.6775 12.9376 15.6713 12.8331 15.6713 12.7272V6.19759C15.6713 5.98541 15.6962 5.77905 15.7433 5.58127C14.861 5.02243 13.9725 4.65449 12.7912 4.64209L6.28743 4.64209C6.24038 4.64209 6.1788 4.66204 6.11766 4.7305C6.05545 4.80015 6.00568 4.91035 6.00568 5.04725C6.00568 5.18414 6.05545 5.29435 6.11766 5.364C6.1788 5.43246 6.24038 5.45241 6.28743 5.45241C6.70165 5.45241 7.03743 5.78819 7.03743 6.20241ZM19.4762 12.7272C19.4762 13.3637 18.9602 13.8797 18.3238 13.8797C17.6873 13.8797 17.1713 13.3637 17.1713 12.7272V6.19759C17.1713 5.56112 17.6873 5.04515 18.3238 5.04515C18.9602 5.04515 19.4762 5.56112 19.4762 6.19759V12.7272Z" fill="black"/>
</svg>
