<svg width="25" height="25" viewBox="0 0 25 25" fill="none" xmlns="http://www.w3.org/2000/svg">
<path d="M17.3281 9.46875C17.3281 10.1591 16.7685 10.7188 16.0781 10.7188C15.3878 10.7188 14.8281 10.1591 14.8281 9.46875C14.8281 8.77839 15.3878 8.21875 16.0781 8.21875C16.7685 8.21875 17.3281 8.77839 17.3281 9.46875Z" fill="black"/>
<path d="M14.75 12.0356C14.3358 12.0356 14 12.3714 14 12.7856C14 13.1999 14.3358 13.5356 14.75 13.5356H17.25C17.6642 13.5356 18 13.1999 18 12.7856C18 12.3714 17.6642 12.0356 17.25 12.0356H14.75Z" fill="black"/>
<path d="M8.45508 10.7188C9.14543 10.7188 9.70508 10.1591 9.70508 9.46875C9.70508 8.77839 9.14543 8.21875 8.45508 8.21875C7.76472 8.21875 7.20508 8.77839 7.20508 9.46875C7.20508 10.1591 7.76472 10.7188 8.45508 10.7188Z" fill="black"/>
<path d="M6.45508 12.7856C6.45508 12.3714 6.79086 12.0356 7.20508 12.0356H9.70508C10.1193 12.0356 10.4551 12.3714 10.4551 12.7856C10.4551 13.1999 10.1193 13.5356 9.70508 13.5356H7.20508C6.79086 13.5356 6.45508 13.1999 6.45508 12.7856Z" fill="black"/>
<path fill-rule="evenodd" clip-rule="evenodd" d="M15.4565 4.21967C15.7441 3.93207 16.2085 3.92612 16.5034 4.20625L18 5.62802V4.75C18 4.33579 18.3358 4 18.75 4C19.1642 4 19.5 4.33579 19.5 4.75V7.05302L21.7666 9.20625C22.0669 9.49154 22.079 9.96626 21.7937 10.2666C21.5085 10.5669 21.0337 10.579 20.7334 10.2938L20.5 10.072V20.75C20.5 21.1642 20.1642 21.5 19.75 21.5H17.25C16.8358 21.5 16.5 21.1642 16.5 20.75V16H15.5V20.75C15.5 21.1642 15.1642 21.5 14.75 21.5H9.75C9.33579 21.5 9 21.1642 9 20.75V16H8V20.75C8 21.1642 7.66421 21.5 7.25 21.5H4.75C4.33579 21.5 4 21.1642 4 20.75V10.072L3.76656 10.2938C3.46626 10.579 2.99154 10.5669 2.70625 10.2666C2.42096 9.96626 2.43313 9.49154 2.73344 9.20625L7.9966 4.20625C8.29147 3.92612 8.75589 3.93207 9.04349 4.21967L10.5 5.67618V4.75C10.5 4.33579 10.8358 4 11.25 4C11.6642 4 12 4.33579 12 4.75V7.17618L12.25 7.42618L15.4565 4.21967ZM19 8.75C19 8.7171 19.0021 8.68469 19.0062 8.6529L16.0003 5.79724L13 8.7975V20H14V15.25C14 14.8358 14.3358 14.5 14.75 14.5H17.25C17.6642 14.5 18 14.8358 18 15.25V20H19V8.75ZM11.5 20V8.7975L8.49973 5.79724L5.49377 8.6529C5.49788 8.68469 5.5 8.7171 5.5 8.75V20H6.5V15.25C6.5 14.8358 6.83579 14.5 7.25 14.5H9.75C10.1642 14.5 10.5 14.8358 10.5 15.25V20H11.5Z" fill="black"/>
</svg>
