<svg width="25" height="24" viewBox="0 0 25 24" fill="none" xmlns="http://www.w3.org/2000/svg">
<path fill-rule="evenodd" clip-rule="evenodd" d="M8.56925 5.125C9.02617 3.33348 10.8579 2.125 12.8354 2.125C14.813 2.125 16.6447 3.33348 17.1016 5.125H20.8354C21.3187 5.125 21.7104 5.51675 21.7104 6C21.7104 6.48325 21.3187 6.875 20.8354 6.875H20.0188L19.0102 19.6767C18.918 20.8472 17.9413 21.75 16.7672 21.75H8.90374C7.72963 21.75 6.75291 20.8472 6.66069 19.6767L5.65207 6.875H4.83545C4.3522 6.875 3.96045 6.48325 3.96045 6C3.96045 5.51675 4.3522 5.125 4.83545 5.125H8.56925ZM10.4507 5.125C10.8456 4.4258 11.7026 3.875 12.8354 3.875C13.9683 3.875 14.8253 4.4258 15.2202 5.125H10.4507ZM11.3276 9.48181C11.7419 9.48181 12.0776 9.8176 12.0776 10.2318V16.2318C12.0776 16.646 11.7419 16.9818 11.3276 16.9818C10.9134 16.9818 10.5776 16.646 10.5776 16.2318V10.2318C10.5776 9.8176 10.9134 9.48181 11.3276 9.48181ZM15.0576 10.2318C15.0576 9.8176 14.7218 9.48181 14.3076 9.48181C13.8934 9.48181 13.5576 9.8176 13.5576 10.2318V16.2318C13.5576 16.646 13.8934 16.9818 14.3076 16.9818C14.7218 16.9818 15.0576 16.646 15.0576 16.2318V10.2318Z" fill="black"/>
</svg>
