<svg width="25" height="24" viewBox="0 0 25 24" fill="none" xmlns="http://www.w3.org/2000/svg">
<path d="M11.3276 9.48181C11.7419 9.48181 12.0776 9.8176 12.0776 10.2318V16.2318C12.0776 16.646 11.7419 16.9818 11.3276 16.9818C10.9134 16.9818 10.5776 16.646 10.5776 16.2318V10.2318C10.5776 9.8176 10.9134 9.48181 11.3276 9.48181Z" fill="black"/>
<path d="M15.0576 10.2318C15.0576 9.8176 14.7218 9.48181 14.3076 9.48181C13.8934 9.48181 13.5576 9.8176 13.5576 10.2318V16.2318C13.5576 16.646 13.8934 16.9818 14.3076 16.9818C14.7218 16.9818 15.0576 16.646 15.0576 16.2318V10.2318Z" fill="black"/>
<path fill-rule="evenodd" clip-rule="evenodd" d="M8.66817 5.25C9.0686 3.47191 10.867 2.25 12.8354 2.25C14.8039 2.25 16.6023 3.47191 17.0027 5.25H20.8354C21.2497 5.25 21.5854 5.58579 21.5854 6C21.5854 6.41421 21.2497 6.75 20.8354 6.75H20.0287L19.0103 19.6767C18.918 20.8472 17.9413 21.75 16.7672 21.75H8.90377C7.72967 21.75 6.75294 20.8472 6.66072 19.6767L5.64226 6.75H4.83545C4.42124 6.75 4.08545 6.41421 4.08545 6C4.08545 5.58579 4.42124 5.25 4.83545 5.25H8.66817ZM10.2476 5.25C10.6133 4.41875 11.5701 3.75 12.8354 3.75C14.1008 3.75 15.0576 4.41875 15.4233 5.25H10.2476ZM8.15609 19.5589L7.1469 6.75H18.5241L17.5149 19.5589C17.4841 19.949 17.1586 20.25 16.7672 20.25H8.90377C8.5124 20.25 8.18683 19.949 8.15609 19.5589Z" fill="black"/>
</svg>
