<svg width="24" height="24" viewBox="0 0 24 24" fill="none" xmlns="http://www.w3.org/2000/svg">
<path fill-rule="evenodd" clip-rule="evenodd" d="M12.1089 2.625C12.5231 2.625 12.8589 2.96079 12.8589 3.375V4.14828C18.3911 4.49717 20.6811 8.68549 21.249 11.215C21.3498 11.6639 21.1163 12.0375 20.8284 12.2194C20.5528 12.3936 20.1688 12.4382 19.8277 12.2504C19.2571 11.9362 18.6208 11.956 17.945 12.2101C17.2596 12.4679 16.6027 12.9457 16.103 13.4193C16.0635 13.4568 16.0252 13.494 15.9882 13.5308C15.5426 13.9741 14.8289 14.0756 14.2747 13.7148C13.731 13.3609 13.2695 13.1276 12.8589 12.9873V18.8749C12.8589 18.875 12.8589 18.8749 12.8589 18.8749C12.8589 19.0463 12.8689 19.2379 12.9501 19.3823C12.982 19.439 13.0253 19.488 13.0998 19.5285C13.1786 19.5713 13.331 19.625 13.609 19.625C13.84 19.625 14.0354 19.5129 14.2037 19.3447C14.2858 19.2626 14.3491 19.1785 14.3912 19.1152C14.4119 19.0842 14.4263 19.06 14.4344 19.0459L14.4413 19.0335C14.6284 18.6675 15.076 18.52 15.4444 18.7042C15.8149 18.8894 15.9651 19.3399 15.7798 19.7104L15.1509 19.396C15.7798 19.7104 15.78 19.7101 15.7798 19.7104L15.7793 19.7115L15.7787 19.7127L15.7773 19.7154L15.774 19.7219L15.7649 19.7392C15.7578 19.7526 15.7484 19.7697 15.7368 19.7901C15.7136 19.8307 15.6811 19.8845 15.6393 19.9473C15.5565 20.0715 15.4323 20.2374 15.2643 20.4053C14.9326 20.7371 14.3781 21.125 13.609 21.125C12.6256 21.125 11.9806 20.7182 11.6428 20.1177C11.3577 19.611 11.3586 19.0704 11.3589 18.8906C11.3589 18.8851 11.3589 18.8799 11.3589 18.8751V12.8675C10.8132 12.9749 10.2092 13.2497 9.44152 13.7296C8.86686 14.0889 8.16348 13.947 7.73543 13.5229C7.70242 13.4902 7.66909 13.4584 7.63545 13.4276C6.4252 12.3169 4.72585 12.3144 3.75603 12.5353C3.17427 12.6678 2.53712 12.2221 2.58698 11.5393C2.79222 8.72862 4.49143 6.89852 6.43081 5.77944C8.06833 4.83455 9.92436 4.36277 11.3589 4.1901V3.375C11.3589 2.96079 11.6947 2.625 12.1089 2.625ZM9.6474 6.06002C8.82421 6.2922 7.968 6.62425 7.1805 7.07866C5.70922 7.92763 4.53091 9.16589 4.17627 10.9531C5.08783 10.8649 6.27355 10.9415 7.39343 11.4753C7.52064 10.346 7.91526 9.23009 8.37929 8.2532C8.76635 7.43834 9.21767 6.68705 9.6474 6.06002ZM8.85173 12.3316C9.97123 11.6569 11.0125 11.2483 12.158 11.3234C13.0531 11.3821 13.9279 11.7308 14.8779 12.3208C15.0274 9.22609 13.41 6.74899 12.5748 5.9014C12.496 5.82143 12.4388 5.72825 12.4032 5.62911C12.3134 5.62658 12.2226 5.62521 12.1308 5.62502C12.0268 5.63135 11.9186 5.63975 11.8069 5.65035C11.777 5.72608 11.7342 5.79819 11.6782 5.86345C11.1446 6.48509 10.3479 7.60476 9.7342 8.8968C9.1894 10.0437 8.82546 11.2499 8.85173 12.3316ZM14.5131 5.93262C15.3473 7.16296 16.2356 9.0596 16.3703 11.3258C16.697 11.1245 17.0484 10.9447 17.417 10.8061C18.0511 10.5677 18.7655 10.4422 19.4913 10.5649C18.8349 8.81552 17.3423 6.70992 14.5131 5.93262Z" fill="black"/>
</svg>
