<svg width="24" height="24" viewBox="0 0 24 24" fill="none" xmlns="http://www.w3.org/2000/svg">
<path fill-rule="evenodd" clip-rule="evenodd" d="M4.31962 4.345C4.02617 4.05961 3.55692 4.0621 3.26654 4.35248C2.97365 4.64538 2.97365 5.12025 3.26654 5.41314L4.83131 6.97791C3.28621 7.89171 2.25 9.57485 2.25 11.5V12.5C2.25 15.3995 4.60051 17.75 7.5 17.75H9.75C10.1642 17.75 10.5 17.4142 10.5 17C10.5 16.5858 10.1642 16.25 9.75 16.25H7.5C5.42893 16.25 3.75 14.5711 3.75 12.5V11.5C3.75 9.98498 4.64843 8.67979 5.94157 8.08816L9.1034 11.25H8C7.58579 11.25 7.25 11.5858 7.25 12C7.25 12.4142 7.58579 12.75 8 12.75H10.6034L14.1154 16.262C13.7654 16.3254 13.5 16.6317 13.5 17C13.5 17.4142 13.8358 17.75 14.25 17.75H15.6034L17.4697 19.6163C17.7626 19.9092 18.2374 19.9092 18.5303 19.6163C18.8195 19.3271 18.8232 18.8605 18.5413 18.5668L4.31962 4.345ZM19.1367 17.0409C20.6995 16.1315 21.75 14.4384 21.75 12.5V11.5C21.75 8.6005 19.3995 6.25 16.5 6.25H14.25C13.8358 6.25 13.5 6.58579 13.5 7C13.5 7.41421 13.8358 7.75 14.25 7.75H16.5C18.5711 7.75 20.25 9.42893 20.25 11.5V12.5C20.25 14.0286 19.3353 15.3437 18.0235 15.9276L19.1367 17.0409ZM14.8459 12.75H16C16.4142 12.75 16.75 12.4142 16.75 12C16.75 11.5858 16.4142 11.25 16 11.25L13.3459 11.25L14.8459 12.75ZM9.8459 7.75H10C10.4142 7.75 10.75 7.41421 10.75 7C10.75 6.58579 10.4142 6.25 10 6.25H8.34591L9.8459 7.75Z" fill="black"/>
</svg>
