<svg width="24" height="24" viewBox="0 0 24 24" fill="none" xmlns="http://www.w3.org/2000/svg">
<path fill-rule="evenodd" clip-rule="evenodd" d="M4.31962 4.345C4.02617 4.05961 3.55692 4.0621 3.26654 4.35248C2.97365 4.64538 2.97365 5.12025 3.26654 5.41314L4.74011 6.88671C3.17353 7.82594 2.125 9.54052 2.125 11.5V12.5C2.125 15.4685 4.53147 17.875 7.5 17.875H9.75C10.2332 17.875 10.625 17.4832 10.625 17C10.625 16.5168 10.2332 16.125 9.75 16.125H7.5C5.49797 16.125 3.875 14.502 3.875 12.5V11.5C3.875 10.0189 4.76326 8.74525 6.03613 8.18273L8.9784 11.125H8C7.51675 11.125 7.125 11.5168 7.125 12C7.125 12.4832 7.51675 12.875 8 12.875H10.7284L14.0113 16.1579C13.6441 16.2618 13.375 16.5995 13.375 17C13.375 17.4832 13.7668 17.875 14.25 17.875H15.7284L17.4697 19.6163C17.7626 19.9092 18.2374 19.9092 18.5303 19.6163C18.8195 19.3271 18.8232 18.8605 18.5413 18.5668L4.31962 4.345ZM19.228 17.1322C20.8123 16.1972 21.875 14.4727 21.875 12.5V11.5C21.875 8.53147 19.4685 6.125 16.5 6.125H14.25C13.7668 6.125 13.375 6.51675 13.375 7C13.375 7.48325 13.7668 7.875 14.25 7.875H16.5C18.502 7.875 20.125 9.49797 20.125 11.5V12.5C20.125 13.9948 19.2203 15.2783 17.9285 15.8327L19.228 17.1322ZM14.9709 12.875H16C16.4832 12.875 16.875 12.4832 16.875 12C16.875 11.5168 16.4832 11.125 16 11.125L13.2209 11.125L14.9709 12.875ZM9.9709 7.875H10C10.4832 7.875 10.875 7.48325 10.875 7C10.875 6.51675 10.4832 6.125 10 6.125H8.22091L9.9709 7.875Z" fill="black"/>
</svg>
