<svg width="25" height="24" viewBox="0 0 25 24" fill="none" xmlns="http://www.w3.org/2000/svg">
<path fill-rule="evenodd" clip-rule="evenodd" d="M7.32373 7C7.32373 4.37665 9.45038 2.25 12.0737 2.25C14.6971 2.25 16.8237 4.37665 16.8237 7V7.21961C16.8237 7.63383 16.4879 7.96961 16.0737 7.96961C15.6595 7.96961 15.3237 7.63383 15.3237 7.21961V7C15.3237 5.20507 13.8687 3.75 12.0737 3.75C10.2788 3.75 8.82373 5.20507 8.82373 7V10.25H18.0737C19.0402 10.25 19.8237 11.0335 19.8237 12V20C19.8237 20.9665 19.0402 21.75 18.0737 21.75H6.07373C5.10723 21.75 4.32373 20.9665 4.32373 20V12C4.32373 11.0335 5.10723 10.25 6.07373 10.25H7.32373V7ZM6.07373 11.75H8.07373H18.0737C18.2118 11.75 18.3237 11.8619 18.3237 12V20C18.3237 20.1381 18.2118 20.25 18.0737 20.25H6.07373C5.93566 20.25 5.82373 20.1381 5.82373 20V12C5.82373 11.8619 5.93566 11.75 6.07373 11.75ZM12.0737 17.6269C12.9712 17.6269 13.6987 16.8993 13.6987 16.0019C13.6987 15.1044 12.9712 14.3769 12.0737 14.3769C11.1763 14.3769 10.4487 15.1044 10.4487 16.0019C10.4487 16.8993 11.1763 17.6269 12.0737 17.6269Z" fill="black"/>
</svg>
