<svg width="25" height="24" viewBox="0 0 25 24" fill="none" xmlns="http://www.w3.org/2000/svg">
<path d="M18.2932 9.61859C17.9515 9.96037 17.3975 9.9605 17.0557 9.61887L13.5493 6.11401L13.5493 17C13.5493 17.4833 13.1576 17.875 12.6743 17.875C12.1911 17.875 11.7993 17.4833 11.7993 17L11.7993 6.11088L8.29317 9.61859C7.95154 9.96037 7.39752 9.9605 7.05574 9.61887C6.71395 9.27723 6.71383 8.72321 7.05546 8.38143L12.0462 3.3885C12.3917 3.04278 12.9521 3.04271 13.2977 3.38822L18.2929 8.38115C18.6347 8.72278 18.6348 9.2768 18.2932 9.61859Z" fill="black"/>
<path d="M21.5493 15C21.5493 14.5168 21.1576 14.125 20.6743 14.125C20.1911 14.125 19.7993 14.5168 19.7993 15V19C19.7993 19.069 19.7434 19.125 19.6743 19.125H5.67432C5.60528 19.125 5.54932 19.069 5.54932 19V15.0747C5.54932 14.5915 5.15757 14.1997 4.67432 14.1997C4.19107 14.1997 3.79932 14.5915 3.79932 15.0747V19C3.79932 20.0355 4.63878 20.875 5.67432 20.875H19.6743C20.7099 20.875 21.5493 20.0355 21.5493 19V15Z" fill="black"/>
</svg>
