<svg width="25" height="25" viewBox="0 0 25 25" fill="none" xmlns="http://www.w3.org/2000/svg">
<path d="M9.25926 8.58776L9.25924 8.58494C9.25847 8.42417 9.27721 8.26258 9.30402 8.10433C9.34895 7.83918 9.44148 7.47666 9.63571 7.10032C10.0448 6.30767 10.8694 5.53479 12.37 5.41766C12.783 5.38543 13.1439 5.69407 13.1761 6.10703C13.2083 6.51998 12.8997 6.88088 12.4867 6.91311C11.5431 6.98676 11.1581 7.42124 10.9687 7.78825C10.8453 8.02722 10.7649 8.30691 10.7592 8.57776C10.7606 8.98916 10.4298 9.32539 10.0177 9.33005C9.60353 9.33474 9.26395 9.00194 9.25926 8.58776Z" fill="black"/>
<path fill-rule="evenodd" clip-rule="evenodd" d="M7.4469 8.37821C7.4469 5.74014 9.58548 3.60156 12.2235 3.60156C14.8616 3.60156 17.0002 5.74014 17.0002 8.37821C17.0002 11.0163 14.8616 13.1549 12.2235 13.1549C9.58548 13.1549 7.4469 11.0163 7.4469 8.37821ZM12.2235 5.10156C10.4139 5.10156 8.9469 6.56857 8.9469 8.37821C8.9469 10.1879 10.4139 11.6549 12.2235 11.6549C14.0332 11.6549 15.5002 10.1879 15.5002 8.37821C15.5002 6.56857 14.0332 5.10156 12.2235 5.10156Z" fill="black"/>
<path fill-rule="evenodd" clip-rule="evenodd" d="M12.2238 14.1714C9.93002 14.1714 7.79353 14.5565 6.20041 15.3339C4.60924 16.1102 3.42053 17.3631 3.42053 19.1082V20.458C3.42053 20.8722 3.75632 21.208 4.17053 21.208H20.2771C20.6913 21.208 21.0271 20.8722 21.0271 20.458V19.1082C21.0271 17.3292 19.6881 16.0867 18.08 15.3294C16.4451 14.5595 14.3162 14.1714 12.2238 14.1714ZM4.92053 19.1082C4.92053 18.1683 5.53461 17.3277 6.85817 16.682C8.17977 16.0371 10.0699 15.6714 12.2238 15.6714C14.1581 15.6714 16.0559 16.0342 17.4409 16.6864C18.8528 17.3513 19.5271 18.2022 19.5271 19.1082V19.708H4.92053V19.1082Z" fill="black"/>
</svg>
