<svg width="24" height="24" viewBox="0 0 24 24" fill="none" xmlns="http://www.w3.org/2000/svg">
<path fill-rule="evenodd" clip-rule="evenodd" d="M13.2642 4.9842C12.8541 4.92562 12.4742 5.21054 12.4157 5.62059C12.3571 6.03064 12.642 6.41054 13.0521 6.46912C13.5826 6.54491 14.3855 6.77716 15.0334 7.20297C15.4453 7.47362 15.7563 7.79312 15.925 8.17495C14.6381 8.12608 13.3872 8.36608 12.5513 8.62543L7.1707 8.13629C6.61436 8.08571 6.13469 8.52376 6.13469 9.08239V9.58215L3.26289 9.22318C2.43102 9.1192 1.88205 10.0652 2.38506 10.7358L3.62105 12.3838C3.77222 12.5854 3.99728 12.7186 4.2467 12.7543L7.74128 13.2535C7.84966 13.3031 7.98892 13.4099 8.1484 13.614C8.32639 13.8417 8.49573 14.1476 8.64919 14.5073C8.95635 15.2273 9.15796 16.0627 9.25507 16.6558C9.3297 17.1116 9.72282 17.4552 10.1949 17.4552H14.0037C14.5377 17.4552 14.9339 17.0276 14.9577 16.5419C15.0208 15.2578 15.8108 14.0955 16.2528 13.6272C18.0949 12.4319 19.5316 12.9036 20.2052 13.3615C20.5242 13.5784 20.9071 13.5715 21.1958 13.4279C21.4988 13.2773 21.7736 12.9279 21.7128 12.4659C21.5151 10.9619 20.5785 10.1256 19.8854 9.80644C19.2358 9.0705 18.4012 8.64169 17.537 8.40884C17.3801 7.26707 16.6433 6.46597 15.8572 5.94941C14.9804 5.37321 13.9535 5.08267 13.2642 4.9842ZM7.63469 10.2052V9.68465L11.5398 10.0397L12.219 12.0772L8.00897 11.7765L4.68436 11.3016L4.3624 10.8723L6.56686 11.1478C7.13387 11.2187 7.63469 10.7766 7.63469 10.2052ZM13.8387 12.1929L15.3026 12.2975C15.3677 12.3021 15.4302 12.3149 15.4892 12.3348C17.1154 11.2985 18.5971 11.2265 19.7264 11.5255C19.5362 11.3156 19.3382 11.1983 19.2166 11.1513C19.0694 11.0944 18.9284 10.9992 18.8165 10.8641C18.1701 10.0839 17.1321 9.73758 15.959 9.6779C14.9012 9.62409 13.8398 9.81137 13.1152 10.0222L13.8387 12.1929ZM9.78679 13.4073L14.3277 13.7317C13.9692 14.3414 13.6403 15.1062 13.5113 15.9552H10.6501C10.5231 15.342 10.3196 14.6001 10.0289 13.9187C9.95559 13.7469 9.87511 13.575 9.78679 13.4073Z" fill="black"/>
<path fill-rule="evenodd" clip-rule="evenodd" d="M2.9978 16.1823C2.9978 14.6132 4.26983 13.3412 5.83895 13.3412C7.40808 13.3412 8.6801 14.6132 8.6801 16.1823C8.6801 17.7514 7.40808 19.0235 5.83895 19.0235C4.26983 19.0235 2.9978 17.7514 2.9978 16.1823ZM5.83895 14.8412C5.09826 14.8412 4.4978 15.4416 4.4978 16.1823C4.4978 16.923 5.09826 17.5235 5.83895 17.5235C6.57965 17.5235 7.1801 16.923 7.1801 16.1823C7.1801 15.4416 6.57965 14.8412 5.83895 14.8412Z" fill="black"/>
<path fill-rule="evenodd" clip-rule="evenodd" d="M15.5447 16.1823C15.5447 14.6132 16.8167 13.3412 18.3858 13.3412C19.955 13.3412 21.227 14.6132 21.227 16.1823C21.227 17.7514 19.955 19.0235 18.3858 19.0235C16.8167 19.0235 15.5447 17.7514 15.5447 16.1823ZM18.3858 14.8412C17.6451 14.8412 17.0447 15.4416 17.0447 16.1823C17.0447 16.923 17.6451 17.5235 18.3858 17.5235C19.1265 17.5235 19.727 16.923 19.727 16.1823C19.727 15.4416 19.1265 14.8412 18.3858 14.8412Z" fill="black"/>
</svg>
