<svg width="24" height="24" viewBox="0 0 24 24" fill="none" xmlns="http://www.w3.org/2000/svg">
<path fill-rule="evenodd" clip-rule="evenodd" d="M4.25 3.79994C4.25 3.08276 5.01427 2.62421 5.64707 2.96172L12 6.35007L18.3529 2.96183C18.9857 2.62434 19.75 3.0829 19.75 3.80007V6.14674C19.75 6.49758 19.5566 6.81987 19.2471 6.98497L12.4471 10.6116C12.1676 10.7607 11.8323 10.7607 11.5529 10.6116L4.75293 6.98484C4.44337 6.81973 4.25 6.49745 4.25 6.14661V3.79994ZM5.75 4.71663V5.81661L12 9.15007L18.25 5.81674V4.71674L12.4471 7.81164C12.1676 7.96066 11.8323 7.96066 11.5529 7.81163L5.75 4.71663Z" fill="black"/>
<path fill-rule="evenodd" clip-rule="evenodd" d="M4.25 9.33315C4.25 8.61596 5.01427 8.15741 5.64707 8.49492L12 11.8833L18.3529 8.49504C18.9857 8.15754 19.75 8.6161 19.75 9.33327V11.6799C19.75 12.0308 19.5566 12.3531 19.2471 12.5182L12.4471 16.1448C12.1676 16.2939 11.8323 16.2939 11.5529 16.1448L4.75293 12.518C4.44337 12.3529 4.25 12.0307 4.25 11.6798V9.33315ZM5.75 10.2498V11.3498L12 14.6833L18.25 11.3499V10.2499L12.4471 13.3448C12.1676 13.4939 11.8323 13.4939 11.5529 13.3448L5.75 10.2498Z" fill="black"/>
<path fill-rule="evenodd" clip-rule="evenodd" d="M5.64707 14.0281C5.01427 13.6906 4.25 14.1492 4.25 14.8664V17.213C4.25 17.5639 4.44337 17.8861 4.75293 18.0512L11.5529 21.678C11.8323 21.8271 12.1676 21.8271 12.4471 21.678L19.2471 18.0514C19.5566 17.8863 19.75 17.564 19.75 17.2131V14.8665C19.75 14.1493 18.9857 13.6907 18.3529 14.0282L12 17.4165L5.64707 14.0281ZM5.75 16.883V15.783L11.5529 18.878C11.8323 19.0271 12.1676 19.0271 12.4471 18.878L18.25 15.7831V16.8831L12 20.2165L5.75 16.883Z" fill="black"/>
</svg>
