<svg width="25" height="24" viewBox="0 0 25 24" fill="none" xmlns="http://www.w3.org/2000/svg">
<path fill-rule="evenodd" clip-rule="evenodd" d="M4.28146 14.7963L4.27156 14.7548C4.2609 14.7099 4.24553 14.6444 4.22634 14.5608C4.18798 14.3937 4.13431 14.154 4.07253 13.8611C3.94914 13.2761 3.79251 12.4751 3.66077 11.615C3.5295 10.7581 3.42042 9.82635 3.39672 8.98438C3.37463 8.19947 3.42101 7.37601 3.67354 6.76898C3.68233 6.73986 3.69422 6.70255 3.70969 6.65802C3.74336 6.5611 3.7942 6.42937 3.86724 6.27328C4.01305 5.96163 4.2494 5.54848 4.61775 5.12106C5.36158 4.25793 6.61105 3.37622 8.62495 3.12186L8.64179 3.11859C8.67592 3.11214 8.72118 3.10451 8.77589 3.09743C8.88469 3.08334 9.03436 3.07091 9.21065 3.07501C9.55869 3.08311 10.0441 3.15669 10.52 3.44248C11.5422 4.05631 12.1503 5.39123 11.8993 7.78675C11.8815 8.45194 11.7185 9.57911 11.56 10.6753L11.548 10.758C11.3773 11.939 11.2111 13.0991 11.1785 13.8348C11.1538 14.9774 11.2082 16.0978 11.4215 17.1817C11.4246 17.1975 11.4272 17.2134 11.4293 17.2293C11.4322 17.2517 11.4359 17.2778 11.4401 17.3073C11.4902 17.6594 11.6083 18.4913 11.2875 19.2685C11.1021 19.7177 10.7775 20.1403 10.2595 20.454C9.75219 20.7613 9.09919 20.9404 8.2845 20.9832C6.77417 21.0627 5.63296 20.8175 5.01345 19.7847C4.73839 19.3261 4.61512 18.7814 4.54548 18.222C4.47636 17.6667 4.45194 17.0145 4.42527 16.3023L4.42424 16.2748C4.40144 15.7001 4.34987 15.2184 4.28146 14.7963ZM8.92347 4.59162L8.9181 4.59288L8.92068 4.59244L8.91637 4.59328C8.89116 4.59906 8.86567 4.60353 8.84 4.60667C7.19521 4.80802 6.27044 5.50103 5.75402 6.10028C5.49022 6.40638 5.32429 6.69862 5.22588 6.90897C5.17679 7.01387 5.14502 7.09731 5.12661 7.15029C5.11743 7.17673 5.11163 7.19542 5.10871 7.2052L5.10657 7.21258C5.09628 7.25163 5.08285 7.28978 5.06642 7.32667C4.94273 7.60428 4.87393 8.15342 4.89613 8.94218C4.90594 9.291 4.93245 9.66311 4.97064 10.0442C5.07927 9.84174 5.19443 9.6493 5.31385 9.46801C5.69181 8.89427 6.12664 8.41021 6.5627 8.06245C6.77607 7.89229 7.02156 7.72937 7.28442 7.61483V6.53857C7.28442 6.12436 7.62021 5.78857 8.03442 5.78857C8.44864 5.78857 8.78442 6.12436 8.78442 6.53857V7.63584C9.38867 7.91974 9.89286 8.50299 10.2573 9.16674C10.3378 8.56041 10.3939 8.0533 10.4004 7.72344C10.4009 7.70163 10.4022 7.67984 10.4046 7.65814C10.6365 5.50079 10.0447 4.90674 9.74778 4.72843C9.5619 4.61681 9.35479 4.57877 9.17576 4.57461C9.08852 4.57258 9.01602 4.57886 8.96854 4.58501C8.9451 4.58804 8.92868 4.59093 8.92068 4.59244L8.92347 4.59162ZM9.70076 13.2419C9.70142 13.2736 9.70403 13.3048 9.70848 13.3353C9.69536 13.4928 9.68548 13.6411 9.67957 13.7778L9.67905 13.7937C9.65266 14.9956 9.70722 16.2269 9.94509 17.4476L9.94879 17.4757C10.0001 17.8651 10.0592 18.3128 9.90099 18.6961C9.82996 18.8682 9.70988 19.0332 9.48244 19.171C9.24429 19.3152 8.85093 19.4514 8.20572 19.4853C7.84056 19.5045 7.5473 19.4998 7.31042 19.4777C6.63458 19.4147 6.4178 19.2098 6.2998 19.0131C6.18542 18.8224 6.09472 18.5246 6.03399 18.0367C6.01046 17.8476 5.99267 17.6426 5.97805 17.4185C5.95521 17.0682 5.94016 16.6715 5.92313 16.2169L5.92306 16.2153C5.89744 15.5695 5.83822 15.018 5.75718 14.5259C5.75408 14.5071 5.75013 14.4879 5.74562 14.4694L5.74498 14.4668L5.74223 14.4554L5.73104 14.4085C5.72117 14.367 5.70664 14.3051 5.68832 14.2253C5.67017 14.1462 5.64833 14.0496 5.62364 13.9379C5.62733 13.895 5.62737 13.8513 5.62346 13.8069C5.50656 12.4797 5.954 11.2229 6.56648 10.2932C6.87172 9.82984 7.20391 9.46969 7.49796 9.23518C7.81799 8.97996 7.98982 8.9535 7.99464 8.95276C8.11623 8.95519 8.52052 9.11399 8.94872 9.90008C9.34818 10.6334 9.67002 11.7609 9.70076 13.2419Z" fill="black"/>
<path fill-rule="evenodd" clip-rule="evenodd" d="M20.3841 14.7963L20.394 14.7548C20.4046 14.7099 20.42 14.6444 20.4392 14.5608C20.4776 14.3937 20.5312 14.154 20.593 13.8611C20.7164 13.2761 20.873 12.4751 21.0048 11.615C21.136 10.7581 21.2451 9.82635 21.2688 8.98438C21.2909 8.19947 21.2445 7.37601 20.992 6.76898C20.9832 6.73986 20.9713 6.70255 20.9558 6.65802C20.9222 6.5611 20.8713 6.42937 20.7983 6.27328C20.6525 5.96163 20.4161 5.54848 20.0478 5.12106C19.304 4.25793 18.0545 3.37622 16.0406 3.12186L16.0237 3.11859C15.9896 3.11214 15.9443 3.10451 15.8896 3.09743C15.7808 3.08334 15.6312 3.07091 15.4549 3.07501C15.1068 3.08311 14.6214 3.15669 14.1455 3.44248C13.1234 4.05631 12.5153 5.39123 12.7662 7.78675C12.784 8.45194 12.947 9.57911 13.1055 10.6753L13.1175 10.758C13.2882 11.939 13.4544 13.0991 13.487 13.8348C13.5117 14.9774 13.4574 16.0978 13.244 17.1817C13.2409 17.1975 13.2383 17.2134 13.2362 17.2293C13.2333 17.2517 13.2296 17.2778 13.2254 17.3072C13.1754 17.6594 13.0572 18.4913 13.378 19.2685C13.5635 19.7177 13.888 20.1403 14.406 20.454C14.9133 20.7613 15.5663 20.9404 16.381 20.9832C17.8914 21.0627 19.0326 20.8175 19.6521 19.7847C19.9271 19.3261 20.0504 18.7814 20.12 18.222C20.1892 17.6667 20.2136 17.0145 20.2403 16.3023L20.2413 16.2748C20.2641 15.7001 20.3157 15.2184 20.3841 14.7963ZM15.7421 4.59162L15.7474 4.59288L15.7449 4.59244L15.7421 4.59162ZM17.3801 7.61452C17.6441 7.72937 17.8909 7.89292 18.1053 8.06358C18.543 8.41191 18.9803 8.89685 19.3609 9.47164C19.4774 9.64752 19.5899 9.83389 19.6963 10.0297C19.7337 9.65369 19.7597 9.28658 19.7694 8.94218C19.7916 8.15342 19.7228 7.60428 19.5991 7.32667C19.5827 7.28978 19.5692 7.25163 19.559 7.21258L19.5568 7.2052C19.5539 7.19542 19.5481 7.17673 19.5389 7.15029C19.5205 7.09731 19.4887 7.01387 19.4397 6.90897C19.3412 6.69862 19.1753 6.40638 18.9115 6.10028C18.3951 5.50103 17.4703 4.80802 15.8255 4.60667C15.7999 4.60353 15.7744 4.59906 15.7492 4.59328L15.7449 4.59244C15.7368 4.59093 15.7204 4.58804 15.697 4.58501C15.6495 4.57886 15.577 4.57258 15.4898 4.57461C15.3107 4.57877 15.1036 4.61681 14.9178 4.72843C14.6208 4.90674 14.0291 5.50079 14.261 7.65814C14.2633 7.67984 14.2647 7.70163 14.2651 7.72344C14.2716 8.05326 14.3277 8.56027 14.4082 9.16648C14.7725 8.50313 15.2763 7.92022 15.8801 7.63621V6.53857C15.8801 6.12436 16.2159 5.78857 16.6301 5.78857C17.0443 5.78857 17.3801 6.12436 17.3801 6.53857V7.61452ZM19.0627 13.8171C19.0617 13.8293 19.0609 13.8415 19.0604 13.8536C19.0281 14.0015 18.9998 14.1269 18.9772 14.2253C18.9589 14.3051 18.9444 14.367 18.9345 14.4085L18.9233 14.4554L18.9205 14.4668L18.9199 14.4694C18.9154 14.4879 18.9114 14.5071 18.9083 14.5259C18.8273 15.018 18.7681 15.5695 18.7425 16.2153L18.7424 16.2169C18.7254 16.6715 18.7103 17.0682 18.6875 17.4185C18.6729 17.6426 18.6551 17.8476 18.6315 18.0367C18.5708 18.5246 18.4801 18.8224 18.3657 19.0131C18.2477 19.2098 18.0309 19.4147 17.3551 19.4777C17.1182 19.4998 16.825 19.5045 16.4598 19.4853C15.8146 19.4514 15.4212 19.3152 15.1831 19.171C14.9556 19.0332 14.8356 18.8682 14.7645 18.6961C14.6063 18.3128 14.6654 17.8651 14.7167 17.4757L14.7204 17.4476C14.9583 16.2269 15.0129 14.9956 14.9865 13.7937L14.986 13.7778C14.98 13.6409 14.9701 13.4923 14.957 13.3346C14.9614 13.3043 14.9639 13.2733 14.9646 13.2419C14.9953 11.7609 15.3172 10.6334 15.7166 9.90008C16.1448 9.11399 16.549 8.95518 16.6706 8.95274C16.6766 8.9537 16.8498 8.98139 17.1712 9.23724C17.4676 9.47309 17.8025 9.83493 18.1103 10.2998C18.7281 11.2328 19.1795 12.4916 19.0627 13.8171Z" fill="black"/>
</svg>
