<svg width="25" height="24" viewBox="0 0 25 24" fill="none" xmlns="http://www.w3.org/2000/svg">
<path fill-rule="evenodd" clip-rule="evenodd" d="M12.6742 9.50543C11.2965 9.50543 10.1797 10.6223 10.1797 12C10.1797 13.3777 11.2965 14.4945 12.6742 14.4945C14.0519 14.4945 15.1687 13.3777 15.1687 12C15.1687 10.6223 14.0519 9.50543 12.6742 9.50543ZM8.67968 12C8.67968 9.79384 10.4681 8.00543 12.6742 8.00543C14.8803 8.00543 16.6687 9.79384 16.6687 12C16.6687 14.2061 14.8803 15.9945 12.6742 15.9945C10.4681 15.9945 8.67968 14.2061 8.67968 12Z" fill="black"/>
<path fill-rule="evenodd" clip-rule="evenodd" d="M7.2496 8.57429C5.8578 9.81544 4.94559 11.2338 4.55466 11.911C4.5342 11.9464 4.53379 11.9852 4.55388 12.0213C4.93793 12.7118 5.84043 14.1658 7.2298 15.439C8.61674 16.7099 10.4395 17.7578 12.6883 17.7578C14.9468 17.7578 16.7676 16.6992 18.1481 15.4169C19.5314 14.1322 20.4231 12.6664 20.7991 11.9763C20.8181 11.9415 20.8179 11.9043 20.7978 11.8693C20.4147 11.1995 19.516 9.7921 18.1328 8.55996C16.7527 7.33056 14.9348 6.31316 12.6883 6.31317C10.4587 6.31318 8.63911 7.33518 7.2496 8.57429ZM6.25126 7.45478C7.81064 6.06418 9.97075 4.81318 12.6883 4.81317C15.4187 4.81316 17.5768 6.05583 19.1305 7.4399C20.6812 8.82123 21.6743 10.3807 22.0998 11.1245C22.378 11.6107 22.3847 12.2014 22.1163 12.6939C21.7005 13.4571 20.7175 15.0777 19.1689 16.516C17.6177 17.9568 15.4496 19.2578 12.6883 19.2578C9.94118 19.2578 7.7733 17.9716 6.2164 16.5449C4.66195 15.1204 3.66745 13.5135 3.24301 12.7504C2.96681 12.2538 2.97129 11.6535 3.25558 11.161C3.68831 10.4114 4.69416 8.84334 6.25126 7.45478Z" fill="black"/>
</svg>
