<svg width="25" height="25" viewBox="0 0 25 25" fill="none" xmlns="http://www.w3.org/2000/svg">
<path d="M16.5345 15.0626C16.9486 15.0626 17.2843 14.7269 17.2843 14.3128C17.2843 13.8987 16.9486 13.563 16.5345 13.563C16.1205 13.563 15.7848 13.8987 15.7848 14.3128C15.7848 14.7269 16.1205 15.0626 16.5345 15.0626Z" fill="black"/>
<path fill-rule="evenodd" clip-rule="evenodd" d="M14.4212 3.95179C14.0538 3.40071 13.3203 3.23184 12.749 3.56679L6.08299 7.47442H4.28772C3.59736 7.47442 3.03772 8.03407 3.03772 8.72442V19.2212C3.03772 19.9115 3.59736 20.4712 4.28772 20.4712H18.7833C19.4737 20.4712 20.0333 19.9115 20.0333 19.2212V16.9714H20.2838C20.9742 16.9714 21.5338 16.4118 21.5338 15.7214V12.7227C21.5338 12.0324 20.9742 11.4727 20.2838 11.4727H20.0333V8.72442C20.0333 8.03407 19.4737 7.47442 18.7833 7.47442H18.4082L17.8924 5.927C17.6859 5.30734 17.0371 4.95119 16.4034 5.1096L15.366 5.36896L14.4212 3.95179ZM13.8207 5.75527L13.304 4.98016L10.6143 6.55688L13.8207 5.75527ZM16.5426 6.62097L16.8271 7.47442H13.1288L16.5426 6.62097ZM18.5333 8.97442V11.4727H15.2858C14.5954 11.4727 14.0358 12.0324 14.0358 12.7227V15.7214C14.0358 16.4118 14.5954 16.9714 15.2858 16.9714H18.5333V18.9712H4.53772V8.97442H18.5333ZM15.5358 12.9727V15.4714H20.0338V12.9727H15.5358Z" fill="black"/>
</svg>
