<svg width="25" height="24" viewBox="0 0 25 24" fill="none" xmlns="http://www.w3.org/2000/svg">
<path fill-rule="evenodd" clip-rule="evenodd" d="M8.86769 2.63672C9.00492 2.41825 9.2448 2.28564 9.50279 2.28564H15.3975C15.6682 2.28564 15.9178 2.43146 16.0508 2.66719L17.3018 4.88511C17.4585 5.16291 17.4223 5.50942 17.2117 5.7489L14.7365 8.5629C17.4088 9.52019 19.3206 12.0752 19.3206 15.0768C19.3206 18.8971 16.2236 21.9941 12.4033 21.9941C8.58305 21.9941 5.48608 18.8971 5.48608 15.0768C5.48608 12.0896 7.37962 9.54464 10.0319 8.57675L7.76563 5.87463C7.66804 5.80171 7.5888 5.70559 7.53609 5.59445C7.37195 5.35063 7.3644 5.02999 7.52334 4.77695L8.86769 2.63672ZM9.84816 6.02344L11.6278 8.14535L12.3173 8.15978L12.3483 8.15976L12.4033 8.15955L12.4496 8.1597L13.0938 8.15929L14.9725 6.02344H9.84816ZM15.3756 4.52344H9.45395L9.91738 3.78564H14.9595L15.3756 4.52344ZM12.4447 9.6597L12.355 9.65976C9.38539 9.68571 6.98608 12.1011 6.98608 15.0768C6.98608 18.0687 9.41147 20.4941 12.4033 20.4941C15.3952 20.4941 17.8206 18.0687 17.8206 15.0768C17.8206 12.0987 15.4176 9.68195 12.4447 9.6597Z" fill="black"/>
</svg>
