<svg width="25" height="25" viewBox="0 0 25 25" fill="none" xmlns="http://www.w3.org/2000/svg">
<path fill-rule="evenodd" clip-rule="evenodd" d="M18.2198 2.8725C18.9654 2.8725 19.5698 3.47691 19.5698 4.2225L19.5698 21.4789C19.5698 22.2245 18.9654 22.8289 18.2198 22.8289H7.55496C6.80937 22.8289 6.20496 22.2245 6.20496 21.4789L6.20496 4.2225C6.20496 3.47691 6.80937 2.8725 7.55496 2.8725L18.2198 2.8725ZM18.0698 4.3725L7.70496 4.3725L7.70496 21.3289H18.0698L18.0698 4.3725Z" fill="black"/>
<path fill-rule="evenodd" clip-rule="evenodd" d="M14.206 5.50915C14.6202 5.50915 14.956 5.84493 14.956 6.25915V10.2141C14.956 10.6283 14.6202 10.9641 14.206 10.9641L11.5694 10.9641C11.1552 10.9641 10.8194 10.6283 10.8194 10.2141L10.8194 6.25915C10.8194 5.84493 11.1552 5.50915 11.5694 5.50915H14.206ZM13.456 7.00915H12.3194L12.3194 9.46409H13.456L13.456 7.00915Z" fill="black"/>
<path fill-rule="evenodd" clip-rule="evenodd" d="M12.4814 16.9128L11.5697 19.8647H10.7989L10.3492 18.3827L9.893 19.8647H9.12267L8.21096 16.9128H8.92383C8.99881 16.9128 9.07309 16.9299 9.13736 16.9739C9.20041 17.0163 9.24577 17.0764 9.26622 17.1513L9.26655 17.1526L9.57345 18.3188L9.93788 17.1452C9.95969 17.0774 10.0037 17.0243 10.0567 16.9841C10.1208 16.935 10.196 16.9128 10.2748 16.9128H10.4578C10.5335 16.9128 10.6098 16.9309 10.6738 16.9802C10.7269 17.0198 10.7669 17.0713 10.7933 17.1317L10.7966 17.1392L11.1575 18.3114L11.4629 17.1509C11.483 17.0779 11.5293 17.0218 11.5855 16.9806C11.6496 16.9336 11.724 16.9128 11.8015 16.9128H12.4814ZM13.8694 19.8647H12.9622V16.9128H13.8694V19.8647ZM17.2616 16.9128V19.8647H16.797C16.7356 19.8647 16.6744 19.8553 16.6184 19.8304L16.6125 19.8278C16.5579 19.8005 16.5116 19.7586 16.4719 19.7113L16.4693 19.7081L15.4786 18.4549V19.8647H14.6483V16.9128H15.1166C15.1471 16.9128 15.1765 16.9142 15.2031 16.9177C15.2335 16.9218 15.2639 16.9301 15.293 16.944C15.3228 16.9571 15.3489 16.975 15.3716 16.9956C15.3919 17.014 15.4119 17.0361 15.4315 17.0599L15.4332 17.0619L16.4313 18.3222V16.9128H17.2616Z" fill="black"/>
</svg>
