<svg width="25" height="25" viewBox="0 0 25 25" fill="none" xmlns="http://www.w3.org/2000/svg">
<path d="M9.59924 7.26807C9.59924 6.85385 9.26346 6.51807 8.84924 6.51807C8.43503 6.51807 8.09924 6.85385 8.09924 7.26807C8.09924 8.07211 8.49956 9.88078 10.1823 10.8423C10.5419 11.0478 11 10.9229 11.2056 10.5632C11.4111 10.2036 11.2861 9.74547 10.9265 9.53996C9.88098 8.94253 9.59924 7.76317 9.59924 7.26807Z" fill="black"/>
<path fill-rule="evenodd" clip-rule="evenodd" d="M6.69369 2.39648C6.40476 2.39648 6.17053 2.63071 6.17053 2.91964V7.02469C6.17053 10.0495 8.37579 12.5592 11.2662 13.0337V20.6465H8.17053C7.75632 20.6465 7.42053 20.9823 7.42053 21.3965C7.42053 21.8107 7.75632 22.1465 8.17053 22.1465H16.209C16.6232 22.1465 16.959 21.8107 16.959 21.3965C16.959 20.9823 16.6232 20.6465 16.209 20.6465H12.7662V13.0937C15.8928 12.8366 18.35 10.2176 18.35 7.0247V2.91964C18.35 2.63071 18.1158 2.39648 17.8269 2.39648H6.69369ZM7.67053 3.89648V4.32617H16.85V3.89648H7.67053ZM7.67053 7.02469V5.82617H16.85V7.0247C16.85 9.55954 14.7951 11.6144 12.2603 11.6144C9.72543 11.6144 7.67053 9.55954 7.67053 7.02469Z" fill="black"/>
</svg>
