<svg width="24" height="24" viewBox="0 0 24 24" fill="none" xmlns="http://www.w3.org/2000/svg">
<path fill-rule="evenodd" clip-rule="evenodd" d="M13.25 3.98193C13.25 2.87736 14.1454 1.98193 15.25 1.98193C16.3546 1.98193 17.25 2.87736 17.25 3.98193C17.25 5.0865 16.3546 5.98193 15.25 5.98193C14.1454 5.98193 13.25 5.0865 13.25 3.98193ZM15.25 3.48193C14.9739 3.48193 14.75 3.70579 14.75 3.98193C14.75 4.25808 14.9739 4.48193 15.25 4.48193C15.5261 4.48193 15.75 4.25808 15.75 3.98193C15.75 3.70579 15.5261 3.48193 15.25 3.48193Z" fill="black"/>
<path d="M20.5303 4.51226L15.9247 9.1179C15.6318 9.41079 15.1569 9.41079 14.864 9.1179C14.5711 8.82501 14.5711 8.35013 14.864 8.05724L19.4697 3.4516C19.7625 3.15871 20.2374 3.15871 20.5303 3.4516C20.8232 3.7445 20.8232 4.21937 20.5303 4.51226Z" fill="black"/>
<path fill-rule="evenodd" clip-rule="evenodd" d="M19.833 7.02441C18.7284 7.02441 17.833 7.91984 17.833 9.02441C17.833 10.129 18.7284 11.0244 19.833 11.0244C20.9376 11.0244 21.833 10.129 21.833 9.02441C21.833 7.91984 20.9376 7.02441 19.833 7.02441ZM19.333 9.02441C19.333 8.74827 19.5569 8.52441 19.833 8.52441C20.1091 8.52441 20.333 8.74827 20.333 9.02441C20.333 9.30056 20.1091 9.52441 19.833 9.52441C19.5569 9.52441 19.333 9.30056 19.333 9.02441Z" fill="black"/>
<path fill-rule="evenodd" clip-rule="evenodd" d="M8.46526 4.25C7.38772 4.25 6.46997 4.50885 5.71106 5.00095C4.95523 5.49105 4.40318 6.18239 4.00519 6.97635C3.2216 8.53955 2.99614 10.5795 2.99609 12.5817C2.99609 14.4711 3.22385 16.5088 4.00439 18.1001C4.39975 18.9062 4.9485 19.6214 5.70244 20.1337C6.46178 20.6498 7.38505 20.9297 8.4742 20.9297C10.6668 20.9297 12.074 19.7048 12.888 18.0582C13.6801 16.4561 13.9412 14.4181 13.9412 12.561C13.9412 10.5477 13.6894 8.51367 12.8914 6.95753C12.4867 6.1684 11.9317 5.48287 11.1819 4.99681C10.4286 4.50839 9.5225 4.25 8.46526 4.25ZM8.43905 5.7561C11.7536 5.7561 12.4345 9.02751 12.4345 12.57C12.4345 15.8129 11.6544 19.4245 8.45709 19.4245C5.16962 19.42 4.5022 15.9114 4.5022 12.588C4.50227 9.05121 5.12001 5.7561 8.43905 5.7561Z" fill="black"/>
</svg>
